<svg width="20" height="20" viewBox="0 0 20 20" fill="none" xmlns="http://www.w3.org/2000/svg">
<path d="M18.5021 3.44824H1.49785C0.670586 3.44824 0 4.11883 0 4.94609V7.42809H20V4.94609C20 4.11883 19.3294 3.44824 18.5021 3.44824Z" fill="#82AFFF"/>
<path d="M0 15.0538C0 15.881 0.670586 16.5516 1.49785 16.5516H18.5021C19.3294 16.5516 20 15.881 20 15.0538V12.5718H0V15.0538Z" fill="#73AF00"/>
<path d="M0 7.97266H20V12.027H0V7.97266Z" fill="#F5F5F5"/>
<path d="M0 7.81599V7.97263H20V7.42798H0V7.81599ZM0 12.1838V12.5718H20V12.0272H0V12.1838Z" fill="#FF4B55"/>
<path d="M4.4332 6.72136C3.72726 6.72136 3.15503 6.15051 3.15503 5.44711C3.15503 4.74113 3.72722 4.16769 4.4332 4.16769L4.44124 4.16773C4.48281 4.16828 4.49738 4.11308 4.46074 4.09344C4.23668 3.97298 3.98589 3.91089 3.73152 3.91289C2.88683 3.9189 2.2007 4.61886 2.20968 5.46355C2.21851 6.29953 2.90195 6.97621 3.74257 6.97621C3.99363 6.97632 4.2408 6.91422 4.46199 6.79547C4.49851 6.7759 4.48374 6.7207 4.44234 6.72129C4.43921 6.72136 4.43621 6.72136 4.4332 6.72136ZM5.43406 6.36898L5.37699 6.54015L5.19656 6.54152C5.1732 6.54168 5.16351 6.57152 5.1823 6.58539L5.32746 6.69258L5.273 6.86461C5.26597 6.88687 5.29132 6.90531 5.31035 6.89172L5.45714 6.78679L5.60394 6.89172C5.62296 6.90531 5.64828 6.88687 5.64128 6.86461L5.58683 6.69258L5.73195 6.58539C5.75074 6.57152 5.74105 6.54168 5.71769 6.54152L5.53726 6.54015L5.48019 6.36898C5.47281 6.34683 5.44148 6.34683 5.43406 6.36898ZM6.70527 6.36898L6.6482 6.54015L6.46777 6.54152C6.44441 6.54168 6.43472 6.57152 6.45351 6.58539L6.59863 6.69258L6.54417 6.86461C6.53714 6.88687 6.56249 6.90531 6.58152 6.89172L6.72831 6.78679L6.87511 6.89172C6.89413 6.90531 6.91945 6.88687 6.91246 6.86461L6.858 6.69258L7.00312 6.58539C7.02191 6.57152 7.01222 6.54168 6.98886 6.54152L6.80843 6.54015L6.75136 6.36898C6.74398 6.34683 6.71261 6.34683 6.70527 6.36898ZM7.97644 6.36898L7.91937 6.54015L7.73894 6.54152C7.71558 6.54168 7.70589 6.57152 7.72468 6.58539L7.86984 6.69258L7.81538 6.86461C7.80835 6.88687 7.83371 6.90531 7.85273 6.89172L7.99953 6.78679L8.14632 6.89172C8.16535 6.90531 8.19066 6.88687 8.18367 6.86461L8.12921 6.69258L8.27433 6.58539C8.29312 6.57152 8.28343 6.54168 8.26007 6.54152L8.07964 6.54015L8.02257 6.36898C8.01519 6.34683 7.98382 6.34683 7.97644 6.36898ZM9.24761 6.36898L9.19054 6.54015L9.01011 6.54152C8.98675 6.54168 8.97706 6.57152 8.99585 6.58539L9.14097 6.69258L9.08652 6.86461C9.07949 6.88687 9.10484 6.90531 9.12386 6.89172L9.27066 6.78679L9.41746 6.89172C9.43648 6.90531 9.46179 6.88687 9.4548 6.86461L9.40035 6.69258L9.54546 6.58539C9.56425 6.57152 9.55456 6.54168 9.53121 6.54152L9.35078 6.54015L9.2937 6.36898C9.28636 6.34683 9.25499 6.34683 9.24761 6.36898ZM10.5188 6.36898L10.4618 6.54015L10.2813 6.54152C10.258 6.54168 10.2483 6.57152 10.2671 6.58539L10.4122 6.69258L10.3578 6.86461C10.3507 6.88687 10.3761 6.90531 10.3951 6.89172L10.5419 6.78679L10.6887 6.89172C10.7077 6.90531 10.733 6.88687 10.726 6.86461L10.6716 6.69258L10.8168 6.58539C10.8355 6.57152 10.8259 6.54168 10.8025 6.54152L10.6221 6.54015L10.565 6.36898C10.5575 6.34683 10.5262 6.34683 10.5188 6.36898ZM6.70527 5.18258L6.6482 5.35375L6.46777 5.35511C6.44441 5.35527 6.43472 5.38511 6.45351 5.39898L6.59863 5.50617L6.54417 5.6782C6.53714 5.70047 6.56249 5.7189 6.58152 5.70531L6.72831 5.60039L6.87511 5.70531C6.89413 5.7189 6.91945 5.70047 6.91246 5.6782L6.858 5.50617L7.00312 5.39898C7.02191 5.38511 7.01222 5.35527 6.98886 5.35511L6.80843 5.35375L6.75136 5.18258C6.74398 5.16035 6.71261 5.16035 6.70527 5.18258ZM7.97644 5.18258L7.91937 5.35375L7.73894 5.35511C7.71558 5.35527 7.70589 5.38511 7.72468 5.39898L7.86984 5.50617L7.81538 5.6782C7.80835 5.70047 7.83371 5.7189 7.85273 5.70531L7.99953 5.60039L8.14632 5.70531C8.16535 5.7189 8.19066 5.70047 8.18367 5.6782L8.12921 5.50617L8.27433 5.39898C8.29312 5.38511 8.28343 5.35527 8.26007 5.35511L8.07964 5.35375L8.02257 5.18258C8.01519 5.16035 7.98382 5.16035 7.97644 5.18258ZM9.24761 5.18258L9.19054 5.35375L9.01011 5.35511C8.98675 5.35527 8.97706 5.38511 8.99585 5.39898L9.14097 5.50617L9.08652 5.6782C9.07949 5.70047 9.10484 5.7189 9.12386 5.70531L9.27066 5.60039L9.41746 5.70531C9.43648 5.7189 9.46179 5.70047 9.4548 5.6782L9.40035 5.50617L9.54546 5.39898C9.56425 5.38511 9.55456 5.35527 9.53121 5.35511L9.35078 5.35375L9.2937 5.18258C9.28636 5.16035 9.25499 5.16035 9.24761 5.18258ZM10.5188 5.18258L10.4618 5.35375L10.2813 5.35511C10.258 5.35527 10.2483 5.38511 10.2671 5.39898L10.4122 5.50617L10.3578 5.6782C10.3507 5.70047 10.3761 5.7189 10.3951 5.70531L10.5419 5.60039L10.6887 5.70531C10.7077 5.7189 10.733 5.70047 10.726 5.6782L10.6716 5.50617L10.8168 5.39898C10.8355 5.38511 10.8259 5.35527 10.8025 5.35511L10.6221 5.35375L10.565 5.18258C10.5575 5.16035 10.5262 5.16035 10.5188 5.18258Z" fill="#F5F5F5"/>
<path d="M7.97651 6.36899L7.91944 6.54017L7.73901 6.54153C7.71565 6.54169 7.70597 6.57153 7.72476 6.5854L7.86991 6.69259L7.81546 6.86462C7.80843 6.88688 7.83378 6.90532 7.8528 6.89173L7.9996 6.78681L8.1464 6.89173C8.16542 6.90532 8.19073 6.88688 8.18374 6.86462L8.12929 6.69259L8.2744 6.5854C8.29319 6.57153 8.28351 6.54169 8.26015 6.54153L8.07972 6.54017L8.02265 6.36899C8.01526 6.34685 7.9839 6.34685 7.97651 6.36899ZM7.97651 3.9961L7.91944 4.16728L7.73901 4.16864C7.71565 4.1688 7.70597 4.19864 7.72476 4.21251L7.86991 4.3197L7.81546 4.49173C7.80843 4.51399 7.83378 4.53243 7.8528 4.51884L7.9996 4.41392L8.1464 4.51884C8.16542 4.53243 8.19073 4.51399 8.18374 4.49173L8.12929 4.3197L8.2744 4.21251C8.29319 4.19864 8.28351 4.1688 8.26015 4.16864L8.07972 4.16728L8.02265 3.9961C8.01526 3.97396 7.9839 3.97396 7.97651 3.9961ZM9.24769 6.36899L9.19062 6.54017L9.01019 6.54153C8.98683 6.54169 8.97714 6.57153 8.99593 6.5854L9.14105 6.69259L9.08659 6.86462C9.07956 6.88688 9.10491 6.90532 9.12394 6.89173L9.27073 6.78681L9.41753 6.89173C9.43655 6.90532 9.46187 6.88688 9.45487 6.86462L9.40042 6.69259L9.54554 6.5854C9.56433 6.57153 9.55464 6.54169 9.53128 6.54153L9.35085 6.54017L9.29378 6.36899C9.28644 6.34685 9.25507 6.34685 9.24769 6.36899ZM10.5189 6.36899L10.4618 6.54017L10.2814 6.54153C10.258 6.54169 10.2484 6.57153 10.2671 6.5854L10.4123 6.69259L10.3578 6.86462C10.3508 6.88688 10.3762 6.90532 10.3952 6.89173L10.542 6.78681L10.6888 6.89173C10.7078 6.90532 10.7331 6.88688 10.7261 6.86462L10.6717 6.69259L10.8168 6.5854C10.8356 6.57153 10.8259 6.54169 10.8026 6.54153L10.6221 6.54017L10.5651 6.36899C10.5576 6.34685 10.5263 6.34685 10.5189 6.36899ZM9.24769 3.9961L9.19062 4.16728L9.01019 4.16864C8.98683 4.1688 8.97714 4.19864 8.99593 4.21251L9.14105 4.3197L9.08659 4.49173C9.07956 4.51399 9.10491 4.53243 9.12394 4.51884L9.27073 4.41392L9.41753 4.51884C9.43655 4.53243 9.46187 4.51399 9.45487 4.49173L9.40042 4.3197L9.54554 4.21251C9.56433 4.19864 9.55464 4.1688 9.53128 4.16864L9.35085 4.16728L9.29378 3.9961C9.28644 3.97396 9.25507 3.97396 9.24769 3.9961ZM10.5189 3.9961L10.4618 4.16728L10.2814 4.16864C10.258 4.1688 10.2484 4.19864 10.2671 4.21251L10.4123 4.3197L10.3578 4.49173C10.3508 4.51399 10.3762 4.53243 10.3952 4.51884L10.542 4.41392L10.6888 4.51884C10.7078 4.53243 10.7331 4.51399 10.7261 4.49173L10.6717 4.3197L10.8168 4.21251C10.8356 4.19864 10.8259 4.1688 10.8026 4.16864L10.6221 4.16728L10.5651 3.9961C10.5576 3.97396 10.5263 3.97396 10.5189 3.9961Z" fill="#F5F5F5"/>
</svg>
