<?xml version="1.0" standalone="no"?>
<!DOCTYPE svg PUBLIC "-//W3C//DTD SVG 1.1//EN" "http://www.w3.org/Graphics/SVG/1.1/DTD/svg11.dtd" >
<svg xmlns="http://www.w3.org/2000/svg" xmlns:xlink="http://www.w3.org/1999/xlink" version="1.1">
<metadata>
Created by FontForge 20170731 at Fri Jul 29 23:56:12 2022
 By Aleksey,,,
Copyright (c) 2022 by Type Forward. All rights reserved.
</metadata>
<defs>
<font id="Gogh-Regular" horiz-adv-x="0" >
  <font-face 
    font-family="Gogh"
    font-weight="400"
    font-stretch="normal"
    units-per-em="2048"
    panose-1="0 0 0 0 0 0 0 0 0 0"
    ascent="1638"
    descent="-410"
    x-height="1040"
    cap-height="1434"
    bbox="-344 -698 2869 1991"
    underline-thickness="102"
    underline-position="-460"
    unicode-range="U+000D-1F4E7"
  />
<missing-glyph horiz-adv-x="1669" 
d="M205 -82v1598h1257v-1598h-1257zM381 82h905v1270h-905v-1270zM492 1012q128 194 342 194q143 0 231 -72t88 -198q0 -82 -41 -141.5t-117 -124.5q-56 -46 -74 -80t-18 -92v-37h-160v55q0 85 32 137.5t114 118.5q98 79 98 152q0 55 -43 93t-121 38q-70 0 -121.5 -35.5
t-97.5 -101.5zM721 276q0 43 30 71t72 28t72.5 -28t30.5 -71t-30 -70.5t-73 -27.5q-42 0 -72 27.5t-30 70.5z" />
    <glyph glyph-name="fi" unicode="fi" horiz-adv-x="1374" 
d="M301 1135q0 189 104.5 291t290.5 102q105 0 212.5 -34.5t197.5 -96.5l-74 -127q-157 108 -319 108q-120 0 -184 -64.5t-64 -185.5v-88h723v-1040h-164v893h-559v-893h-164v893h-227v147h227v95z" />
    <glyph glyph-name="fl" unicode="fl" horiz-adv-x="1376" 
d="M301 1143q0 209 112.5 315.5t331.5 106.5q230 0 445 -99v-1466h-164v1364q-105 47 -274 47q-155 0 -221 -64.5t-66 -216.5v-90h344v-147h-344v-893h-164v893h-227v147h227v103z" />
    <glyph glyph-name="f_f.liga" unicode="ff" horiz-adv-x="1572" 
d="M1034 1192q0 158 80 246t225 88q118 0 232 -60l-55 -131q-78 41 -158 41q-78 0 -119 -48t-41 -140v-148h354v-147h-354v-893h-164v893h-569v-893h-164v893h-227v147h227v152q0 158 79 246t222 88q118 0 229 -60l-55 -131q-75 41 -153 41q-158 0 -158 -188v-148h569v152z
" />
    <glyph glyph-name="f_f_i.liga" unicode="ffi" horiz-adv-x="2107" 
d="M1034 1135q0 189 105 291t291 102q105 0 212 -34.5t197 -96.5l-74 -127q-157 108 -319 108q-120 0 -184 -64.5t-64 -185.5v-88h723v-1040h-164v893h-559v-893h-164v893h-569v-893h-164v893h-227v147h227v152q0 158 79 246t222 88q118 0 229 -60l-55 -131q-75 41 -153 41
q-158 0 -158 -188v-148h569v95z" />
    <glyph glyph-name="f_f_j.liga" unicode="ffj" horiz-adv-x="2107" 
d="M1034 1135q0 186 103.5 289.5t292.5 103.5q106 0 213 -34t196 -97l-74 -127q-162 108 -319 108q-120 0 -184 -64.5t-64 -185.5v-88h723v-1202q0 -158 -74.5 -240.5t-214.5 -82.5q-88 0 -186 32l37 146q77 -23 133 -23q76 0 108.5 44.5t32.5 148.5v1030h-559v-893h-164
v893h-569v-893h-164v893h-227v147h227v152q0 158 79 246t222 88q118 0 229 -60l-55 -131q-69 41 -153 41q-158 0 -158 -188v-148h569v95z" />
    <glyph glyph-name="f_f_l.liga" unicode="ffl" horiz-adv-x="2111" 
d="M1036 1143q0 209 112.5 315.5t332.5 106.5q233 0 444 -92v-1473h-164v1368q-110 43 -274 43q-155 0 -221 -64.5t-66 -216.5v-90h344v-147h-344v-893h-164v893h-571v-893h-164v893h-227v147h227v152q0 157 79.5 244.5t221.5 87.5q118 0 229 -60l-55 -131q-69 41 -153 41
q-158 0 -158 -188v-146h571v103z" />
    <glyph glyph-name="uni00660066013C.liga" unicode="ff&#x13c;" horiz-adv-x="2111" 
d="M1036 1143q0 209 112.5 315.5t332.5 106.5q233 0 444 -92v-1473h-164v1368q-110 43 -274 43q-155 0 -221 -64.5t-66 -216.5v-90h344v-147h-344v-893h-164v893h-571v-893h-164v893h-227v147h227v152q0 157 79.5 244.5t221.5 87.5q118 0 229 -60l-55 -131q-69 41 -153 41
q-158 0 -158 -188v-146h571v103zM1735 -215q0 47 28 78t72 31q55 0 87 -38.5t32 -103.5q0 -138 -131 -266l-60 53q62 72 78 148q-45 0 -75.5 28.5t-30.5 69.5z" />
    <glyph glyph-name="f_f_t.liga" unicode="fft" horiz-adv-x="2318" 
d="M1034 1192q0 158 80 246t225 88q118 0 232 -60l-55 -131q-78 41 -158 41q-78 0 -119 -48t-41 -140v-148h541v248h164v-248h323v-147h-323v-565q0 -93 42 -141t123 -48q68 0 158 41l53 -141q-111 -53 -227 -53q-147 0 -230 90t-83 246v571h-541v-893h-164v893h-569v-893
h-164v893h-227v147h227v152q0 158 80 246t225 88q118 0 232 -60l-56 -131q-78 41 -157 41q-78 0 -119 -48t-41 -140v-148h569v152z" />
    <glyph glyph-name="f_f_tcaron.liga" unicode="ff&#x165;" horiz-adv-x="2318" 
d="M1034 1192q0 158 80 246t225 88q118 0 232 -60l-55 -131q-78 41 -158 41q-78 0 -119 -48t-41 -140v-148h541v248h164v-248h323v-147h-323v-565q0 -93 42 -141t123 -48q68 0 158 41l53 -141q-111 -53 -227 -53q-147 0 -230 90t-83 246v571h-541v-893h-164v893h-569v-893
h-164v893h-227v147h227v152q0 158 80 246t225 88q118 0 232 -60l-56 -131q-78 41 -157 41q-78 0 -119 -48t-41 -140v-148h569v152zM2126 1174l69 342h166l-104 -342h-131z" />
    <glyph glyph-name="uni006600660163.liga" unicode="ff&#x163;" horiz-adv-x="2318" 
d="M1034 1192q0 158 80 246t225 88q118 0 232 -60l-55 -131q-78 41 -158 41q-78 0 -119 -48t-41 -140v-148h541v248h164v-248h323v-147h-323v-565q0 -93 42 -141t123 -48q68 0 158 41l53 -141q-95 -45 -186 -51l-22 -97q101 9 164 -41t63 -141q0 -94 -71.5 -149.5
t-182.5 -55.5q-129 0 -225 78l59 90q64 -55 158 -55q61 0 95 25t34 69q0 42 -28.5 63.5t-71.5 21.5t-95 -9l-31 31l41 174q-115 22 -178 108.5t-63 221.5v571h-541v-893h-164v893h-569v-893h-164v893h-227v147h227v152q0 158 80 246t225 88q118 0 232 -60l-56 -131
q-78 41 -157 41q-78 0 -119 -48t-41 -140v-148h569v152z" />
    <glyph glyph-name="uni00660066021B.liga" unicode="ff&#x21b;" horiz-adv-x="2318" 
d="M1034 1192q0 158 80 246t225 88q118 0 232 -60l-55 -131q-78 41 -158 41q-78 0 -119 -48t-41 -140v-148h541v248h164v-248h323v-147h-323v-565q0 -93 42 -141t123 -48q68 0 158 41l53 -141q-111 -53 -227 -53q-147 0 -230 90t-83 246v571h-541v-893h-164v893h-569v-893
h-164v893h-227v147h227v152q0 158 80 246t225 88q118 0 232 -60l-56 -131q-78 41 -157 41q-78 0 -119 -48t-41 -140v-148h569v152zM1925 -215q0 48 29 78.5t74 30.5q55 0 85.5 -38.5t30.5 -103.5q0 -141 -131 -266l-57 53q62 72 78 148h-2q-44 0 -75.5 28.5t-31.5 69.5z" />
    <glyph glyph-name="f_j.liga" unicode="fj" horiz-adv-x="1374" 
d="M301 1135q0 189 104.5 291t290.5 102q106 0 213.5 -34t196.5 -97l-74 -127q-160 108 -319 108q-120 0 -184 -64.5t-64 -185.5v-88h723v-1202q0 -156 -73.5 -239.5t-215.5 -83.5q-88 0 -186 32l37 146q74 -23 133 -23q78 0 109.5 45.5t31.5 147.5v1030h-559v-893h-164v893
h-227v147h227v95z" />
    <glyph glyph-name="uni0066013C.liga" unicode="f&#x13c;" horiz-adv-x="1376" 
d="M301 1143q0 209 112.5 315.5t331.5 106.5q230 0 445 -99v-1466h-164v1364q-105 47 -274 47q-155 0 -221 -64.5t-66 -216.5v-90h344v-147h-344v-893h-164v893h-227v147h227v103zM999 -215q0 47 28.5 78t72.5 31q55 0 87 -38.5t32 -103.5q0 -137 -132 -266l-59 53
q62 72 78 148q-46 0 -76.5 28.5t-30.5 69.5z" />
    <glyph glyph-name="f_t.liga" unicode="ft" horiz-adv-x="1585" 
d="M301 1192q0 158 80 246t225 88q118 0 232 -60l-56 -131q-78 41 -157 41q-78 0 -119 -48t-41 -140v-148h541v248h163v-248h324v-147h-324v-565q0 -92 42 -140.5t124 -48.5q69 0 156 41l55 -141q-111 -53 -227 -53q-147 0 -230 90t-83 246v571h-541v-893h-164v893h-227v147
h227v152z" />
    <glyph glyph-name="f_tcaron.liga" unicode="f&#x165;" horiz-adv-x="1585" 
d="M301 1192q0 158 80 246t225 88q118 0 232 -60l-56 -131q-78 41 -157 41q-78 0 -119 -48t-41 -140v-148h541v248h163v-248h324v-147h-324v-565q0 -92 42 -140.5t124 -48.5q69 0 156 41l55 -141q-111 -53 -227 -53q-147 0 -230 90t-83 246v571h-541v-893h-164v893h-227v147
h227v152zM1393 1174l69 342h166l-104 -342h-131z" />
    <glyph glyph-name="uni00660163.liga" unicode="f&#x163;" horiz-adv-x="1585" 
d="M301 1192q0 158 80 246t225 88q118 0 232 -60l-56 -131q-78 41 -157 41q-78 0 -119 -48t-41 -140v-148h541v248h163v-248h324v-147h-324v-565q0 -92 42 -140.5t124 -48.5q69 0 156 41l55 -141q-98 -45 -188 -51l-21 -97q101 9 163.5 -40.5t62.5 -141.5
q0 -94 -70.5 -149.5t-181.5 -55.5q-130 0 -226 78l58 90q68 -55 160 -55q61 0 95 25t34 69q0 42 -29 63.5t-72 21.5t-94 -9l-31 31l41 174q-115 22 -178 108.5t-63 221.5v571h-541v-893h-164v893h-227v147h227v152z" />
    <glyph glyph-name="uni0066021B.liga" unicode="f&#x21b;" horiz-adv-x="1585" 
d="M301 1192q0 158 80 246t225 88q118 0 232 -60l-56 -131q-78 41 -157 41q-78 0 -119 -48t-41 -140v-148h541v248h163v-248h324v-147h-324v-565q0 -92 42 -140.5t124 -48.5q69 0 156 41l55 -141q-111 -53 -227 -53q-147 0 -230 90t-83 246v571h-541v-893h-164v893h-227v147
h227v152zM1192 -215q0 48 28.5 78.5t73.5 30.5q55 0 86 -38.5t31 -103.5q0 -141 -131 -266l-57 53q60 71 77 148h-2q-44 0 -75 28.5t-31 69.5z" />
    <glyph glyph-name=".notdef" horiz-adv-x="1669" 
d="M205 -82v1598h1257v-1598h-1257zM381 82h905v1270h-905v-1270zM492 1012q128 194 342 194q143 0 231 -72t88 -198q0 -82 -41 -141.5t-117 -124.5q-56 -46 -74 -80t-18 -92v-37h-160v55q0 85 32 137.5t114 118.5q98 79 98 152q0 55 -43 93t-121 38q-70 0 -121.5 -35.5
t-97.5 -101.5zM721 276q0 43 30 71t72 28t72.5 -28t30.5 -71t-30 -70.5t-73 -27.5q-42 0 -72 27.5t-30 70.5z" />
    <glyph glyph-name=".null" horiz-adv-x="1228" 
 />
    <glyph glyph-name="nonmarkingreturn" horiz-adv-x="682" 
 />
    <glyph glyph-name="CR" unicode="&#xd;" horiz-adv-x="507" 
 />
    <glyph glyph-name="space" unicode=" " horiz-adv-x="507" 
 />
    <glyph glyph-name="exclam" unicode="!" horiz-adv-x="532" 
d="M199 330l-13 583l-4 521h168l-4 -521l-12 -583h-135zM145 96q0 51 35 84t86 33q50 0 84.5 -32.5t34.5 -84.5t-34 -84t-85 -32t-86 32.5t-35 83.5z" />
    <glyph glyph-name="quotedbl" unicode="&#x22;" horiz-adv-x="661" 
d="M428 1059l-8 491h145l-8 -491h-129zM96 1550h146l-9 -491h-129z" />
    <glyph glyph-name="numbersign" unicode="#" horiz-adv-x="1425" 
d="M715 0l90 336h-379l-92 -336h-166l92 336h-233v147h272l131 486h-223v147h264l86 318h166l-84 -318h379l86 318h166l-86 -318h217v-147h-258l-131 -486h221v-147h-260l-92 -336h-166zM461 481h389l133 490h-389z" />
    <glyph glyph-name="dollar" unicode="$" horiz-adv-x="1222" 
d="M563 -199v187q-277 16 -475 192l88 137q175 -153 391 -167v516q-226 69 -329 168t-103 245q0 155 118 255.5t310 111.5v180h137v-184q229 -32 402 -191l-92 -131q-130 130 -314 158v-477q229 -73 337 -174.5t108 -249.5q0 -156 -121.5 -261.5t-319.5 -125.5v-189h-137z
M305 1087q0 -79 58.5 -134.5t203.5 -108.5v440q-121 -6 -191.5 -59.5t-70.5 -137.5zM696 152q128 12 200.5 70.5t72.5 150.5q0 80 -65.5 140.5t-207.5 111.5v-473z" />
    <glyph glyph-name="percent" unicode="%" horiz-adv-x="1603" 
d="M338 -31l-98 68l1013 1427l97 -67zM53 1126q0 138 91 228t231 90q141 0 231 -90t90 -228q0 -140 -90 -229.5t-231 -89.5q-140 0 -231 90t-91 229zM176 1126q0 -88 56 -145t143 -57q88 0 143 56.5t55 145.5q0 88 -54.5 144.5t-143.5 56.5q-88 0 -143.5 -56.5t-55.5 -144.5
zM893 307q0 139 91.5 229.5t232.5 90.5q139 0 229 -90t90 -230q0 -138 -90 -227.5t-229 -89.5q-141 0 -232.5 89.5t-91.5 227.5zM1016 307q0 -87 56 -144t145 -57q87 0 141.5 57t54.5 144q0 88 -54.5 145.5t-141.5 57.5q-89 0 -145 -57t-56 -146z" />
    <glyph glyph-name="ampersand" unicode="&#x26;" horiz-adv-x="1386" 
d="M383 770q-87 87 -128.5 166t-41.5 172q0 150 109.5 244t281.5 94q174 0 282.5 -91t108.5 -237q0 -237 -325 -403l342 -336q90 134 139 336l149 -37q-58 -242 -176 -410l191 -186l-117 -121l-184 182q-178 -161 -439 -161q-211 0 -341 104.5t-130 273.5q0 120 79 221.5
t220 168.5zM274 375q0 -108 84.5 -172t225.5 -64q189 0 319 115l-395 393q-119 -58 -176.5 -123.5t-57.5 -148.5zM381 1110q0 -59 31 -116.5t102 -127.5l53 -51q134 72 197 142.5t63 148.5q0 85 -62 137.5t-161 52.5q-100 0 -161.5 -51.5t-61.5 -134.5z" />
    <glyph glyph-name="quotesingle" unicode="'" horiz-adv-x="339" 
d="M104 1059l-8 491h148l-6 -491h-134z" />
    <glyph glyph-name="parenleft" unicode="(" horiz-adv-x="675" 
d="M498 -350q-414 414 -414 954q0 541 414 955l104 -101q-176 -192 -264 -400.5t-88 -453.5t88 -453.5t264 -400.5z" />
    <glyph glyph-name="parenright" unicode=")" horiz-adv-x="675" 
d="M74 -250q176 192 264 400.5t88 453.5t-88 453.5t-264 400.5l104 101q414 -414 414 -955q0 -540 -414 -954z" />
    <glyph glyph-name="asterisk" unicode="*" horiz-adv-x="737" 
d="M307 922l6 200l-172 -106l-61 106l178 97l-178 94l61 106l172 -106l-6 203h123l-6 -203l172 106l61 -106l-178 -94l178 -97l-61 -106l-172 106l6 -200h-123z" />
    <glyph glyph-name="plus" unicode="+" horiz-adv-x="1069" 
d="M459 190v365h-350v145h350v355h149v-355h353v-145h-353v-365h-149z" />
    <glyph glyph-name="comma" unicode="," horiz-adv-x="495" 
d="M135 -262q56 63 81.5 118.5t29.5 125.5h-2q-51 0 -86 33.5t-35 84.5q0 50 34.5 83.5t86.5 33.5q58 0 92.5 -46t34.5 -124q0 -220 -170 -373z" />
    <glyph glyph-name="hyphen" unicode="-" horiz-adv-x="919" 
d="M821 485h-723v140h723v-140z" />
    <glyph glyph-name="period" unicode="." horiz-adv-x="481" 
d="M242 -20q-51 0 -86 32.5t-35 83.5t35 84t86 33q50 0 84 -32.5t34 -84.5t-34 -84t-84 -32z" />
    <glyph glyph-name="slash" unicode="/" horiz-adv-x="921" 
d="M68 -96l641 1612h145l-641 -1612h-145z" />
    <glyph glyph-name="zero" unicode="0" horiz-adv-x="1368" 
d="M684 -25q-267 0 -420 198t-153 544t153 543.5t420 197.5t420 -197.5t153 -543.5q0 -345 -153 -543.5t-420 -198.5zM281 717q0 -269 108 -424.5t295 -155.5q188 0 297 155.5t109 424.5q0 270 -108.5 424.5t-297.5 154.5q-187 0 -295 -155t-108 -424z" />
    <glyph glyph-name="one" unicode="1" horiz-adv-x="821" 
d="M451 0v1200q-85 -60 -177 -84t-208 -24v149q135 0 230 45.5t179 147.5h141v-1434h-165z" />
    <glyph glyph-name="two" unicode="2" horiz-adv-x="1198" 
d="M90 0v137l531 488q130 119 190.5 219t60.5 196q0 113 -80 184.5t-206 71.5q-108 0 -193 -55t-157 -166l-127 101q91 143 206 212.5t271 69.5q199 0 326.5 -116t127.5 -298q0 -141 -71.5 -264.5t-235.5 -271.5l-381 -346h731v-162h-993z" />
    <glyph glyph-name="three" unicode="3" horiz-adv-x="1142" 
d="M549 -25q-147 0 -270.5 63.5t-208.5 182.5l116 105q71 -94 163 -143.5t196 -49.5q141 0 229 83.5t88 215.5q0 112 -65.5 184.5t-172 95.5t-237.5 -1l-53 96l420 467h-615v160h834v-136l-389 -432q192 -3 319 -126t127 -312q0 -198 -134.5 -325.5t-346.5 -127.5z" />
    <glyph glyph-name="four" unicode="4" horiz-adv-x="1275" 
d="M842 0v309h-779v156l791 969h156v-965h188v-160h-188v-309h-168zM272 467h574v702l-221 -272z" />
    <glyph glyph-name="five" unicode="5" horiz-adv-x="1153" 
d="M559 -25q-147 0 -272 64.5t-209 181.5l115 107q147 -195 360 -195q146 0 235 86t89 227t-98.5 227.5t-258.5 86.5q-132 0 -280 -51l-84 59l51 666h764v-160h-617l-30 -391q113 35 217 35q220 0 360.5 -131.5t140.5 -340.5t-134 -340t-349 -131z" />
    <glyph glyph-name="six" unicode="6" horiz-adv-x="1243" 
d="M639 -25q-247 0 -387.5 179t-140.5 518q0 373 149.5 577.5t421.5 204.5q231 0 403 -156l-96 -120q-59 55 -139 86.5t-164 31.5q-187 0 -294 -140.5t-111 -397.5q63 96 165.5 149.5t223.5 53.5q204 0 340.5 -141t136.5 -353q0 -217 -141.5 -354.5t-366.5 -137.5zM301 467
q0 -149 93.5 -241.5t244.5 -92.5q152 0 247 92.5t95 241.5q0 150 -94.5 243t-247.5 93q-151 0 -244.5 -92.5t-93.5 -243.5z" />
    <glyph glyph-name="seven" unicode="7" horiz-adv-x="1015" 
d="M229 0l545 1274h-721v160h914v-136l-557 -1298h-181z" />
    <glyph glyph-name="eight" unicode="8" horiz-adv-x="1255" 
d="M629 -25q-234 0 -378.5 117t-144.5 307q0 120 63 213t179 146q-198 107 -198 315q0 170 133.5 277.5t345.5 107.5q211 0 344 -107.5t133 -277.5q0 -207 -199 -315q115 -53 178.5 -146.5t63.5 -212.5q0 -190 -143.5 -307t-376.5 -117zM274 403q0 -123 97.5 -197.5
t257.5 -74.5q158 0 255 74.5t97 197.5t-97 198t-255 75q-160 0 -257.5 -75t-97.5 -198zM315 1065q0 -107 87 -173.5t227 -66.5q139 0 225 66.5t86 173.5q0 106 -86 172t-225 66q-140 0 -227 -66t-87 -172z" />
    <glyph glyph-name="nine" unicode="9" horiz-adv-x="1241" 
d="M559 -23q-228 0 -405 144l84 133q138 -115 319 -115q189 0 292 135.5t109 387.5q-63 -93 -164.5 -145t-220.5 -52q-205 0 -341 141.5t-136 354.5q0 218 140.5 356.5t361.5 138.5q255 0 393.5 -176.5t138.5 -519.5q0 -375 -148.5 -579t-422.5 -204zM262 961
q0 -151 95 -244.5t247 -93.5q151 0 245.5 93.5t94.5 244.5q0 150 -94.5 242.5t-245.5 92.5q-153 0 -247.5 -92.5t-94.5 -242.5z" />
    <glyph glyph-name="colon" unicode=":" horiz-adv-x="522" 
d="M262 -20q-51 0 -86 32.5t-35 83.5t35 84t86 33q50 0 84.5 -32.5t34.5 -84.5t-34 -84t-85 -32zM141 690q0 51 35 84t86 33q50 0 84.5 -32.5t34.5 -84.5t-34.5 -84.5t-84.5 -32.5q-51 0 -86 33t-35 84z" />
    <glyph glyph-name="semicolon" unicode=";" horiz-adv-x="528" 
d="M152 -262q56 63 81 118.5t29 125.5h-2q-51 0 -86 33.5t-35 84.5q0 50 34.5 83.5t86.5 33.5q58 0 92.5 -46t34.5 -124q0 -220 -170 -373zM139 690q0 51 35 84t86 33q50 0 84.5 -32.5t34.5 -84.5t-34.5 -84.5t-84.5 -32.5q-51 0 -86 33t-35 84z" />
    <glyph glyph-name="less" unicode="&#x3c;" horiz-adv-x="1017" 
d="M930 1061v-166l-619 -283l619 -282v-164l-852 397v99z" />
    <glyph glyph-name="equal" unicode="=" horiz-adv-x="1038" 
d="M109 733v144h821v-144h-821zM109 362v142h821v-142h-821z" />
    <glyph glyph-name="greater" unicode="&#x3e;" horiz-adv-x="1017" 
d="M88 166v166l619 282l-619 283v164l852 -397v-99z" />
    <glyph glyph-name="question" unicode="?" horiz-adv-x="1017" 
d="M416 451q0 112 43.5 186t152.5 162q94 76 128 135t34 131q0 107 -73.5 172.5t-204.5 65.5q-212 0 -342 -211l-119 92q167 272 467 272q200 0 321 -104.5t121 -272.5q0 -113 -56.5 -203t-176.5 -188q-75 -60 -105.5 -112t-30.5 -134v-112h-159v121zM375 96q0 51 35 84
t86 33q50 0 84 -32.5t34 -84.5t-34 -84t-84 -32q-51 0 -86 32.5t-35 83.5z" />
    <glyph glyph-name="at" unicode="@" horiz-adv-x="2078" 
d="M1038 -453q-197 0 -368 68.5t-294.5 190t-194 296t-70.5 379.5t71 381t194.5 297.5t294.5 190.5t367 69q207 0 381.5 -67t294.5 -183.5t187 -277.5t67 -346q0 -106 -22 -189.5t-56.5 -134.5t-81 -85t-92 -47t-92.5 -13q-101 0 -176 47.5t-109 128.5q-57 -96 -143 -145.5
t-188 -49.5q-176 0 -292 119t-116 305q0 187 115 305.5t293 118.5q191 0 305 -153v131h153v-408q0 -258 160 -258q88 0 139.5 84t51.5 246q0 156 -56 290t-157 230t-247 150.5t-319 54.5q-168 0 -312.5 -59t-246.5 -162.5t-159.5 -251t-57.5 -318.5q0 -228 98.5 -408
t275.5 -281t402 -101q159 0 292.5 51t228.5 145l94 -118q-117 -107 -275.5 -164.5t-339.5 -57.5zM760 481q0 -123 75.5 -200.5t192.5 -77.5t189.5 78.5t72.5 201.5t-72.5 200t-189.5 77q-116 0 -192 -77.5t-76 -201.5z" />
    <glyph glyph-name="A" unicode="A" horiz-adv-x="1439" 
d="M43 0l580 1434h200l574 -1434h-176l-136 340h-729l-137 -340h-176zM414 494h614l-307 763z" />
    <glyph glyph-name="B" unicode="B" horiz-adv-x="1349" 
d="M205 0v1434h573q185 0 301.5 -106.5t116.5 -276.5q0 -98 -43 -177.5t-123 -130.5q98 -46 155.5 -139.5t57.5 -210.5q0 -177 -122 -285t-322 -108h-594zM373 158h411q136 0 211.5 65.5t75.5 184.5q0 114 -73 181.5t-199 67.5h-426v-499zM373 807h411q108 0 175 65t67 168
q0 105 -70 170.5t-186 65.5h-397v-469z" />
    <glyph glyph-name="C" unicode="C" horiz-adv-x="1501" 
d="M817 -25q-207 0 -368.5 96t-249.5 265t-88 381q0 211 88 380t248 265t364 96q183 0 334.5 -78.5t261.5 -226.5l-123 -104q-81 117 -206 181t-267 64q-233 0 -380.5 -162.5t-147.5 -414.5q0 -167 66.5 -298.5t188.5 -205.5t279 -74q151 0 281.5 68t218.5 192l123 -102
q-115 -158 -273.5 -240t-349.5 -82z" />
    <glyph glyph-name="D" unicode="D" horiz-adv-x="1527" 
d="M205 0v1434h491q330 0 525.5 -194.5t195.5 -522.5t-195.5 -522.5t-525.5 -194.5h-491zM375 162h311q262 0 410.5 147.5t148.5 407.5t-148.5 407.5t-410.5 147.5h-311v-1110z" />
    <glyph glyph-name="E" unicode="E" horiz-adv-x="1224" 
d="M205 0v1434h885v-158h-715v-469h661v-154h-661v-493h741v-160h-911z" />
    <glyph glyph-name="F" unicode="F" horiz-adv-x="1126" 
d="M205 0v1434h848v-162h-678v-496h631v-160h-631v-616h-170z" />
    <glyph glyph-name="G" unicode="G" horiz-adv-x="1558" 
d="M838 -25q-218 0 -383.5 94t-254.5 262t-89 386q0 212 89.5 381t252.5 264.5t372 95.5q161 0 303.5 -60t249.5 -173l-110 -115q-78 86 -196 135t-247 49q-160 0 -283.5 -74t-191 -205t-67.5 -298q0 -259 149.5 -418.5t403.5 -159.5q121 0 239 38t203 106v321h-506v160h668
v-555q-112 -113 -271 -173.5t-331 -60.5z" />
    <glyph glyph-name="H" unicode="H" horiz-adv-x="1550" 
d="M1176 0v651h-801v-651h-170v1434h170v-621h801v621h170v-1434h-170z" />
    <glyph glyph-name="I" unicode="I" horiz-adv-x="579" 
d="M205 0v1434h170v-1434h-170z" />
    <glyph glyph-name="J" unicode="J" horiz-adv-x="960" 
d="M332 -25q-141 0 -307 72l67 143q117 -53 240 -53q137 0 203.5 88t66.5 269v940h170v-957q0 -244 -113 -373t-327 -129z" />
    <glyph glyph-name="K" unicode="K" horiz-adv-x="1316" 
d="M1077 0l-510 645h-192v-645h-170v1434h170v-631h186l498 631h211l-557 -705l577 -729h-213z" />
    <glyph glyph-name="L" unicode="L" horiz-adv-x="1150" 
d="M205 0v1434h170v-1272h694v-162h-864z" />
    <glyph glyph-name="M" unicode="M" horiz-adv-x="1820" 
d="M864 508l-489 637v-1145h-170v1434h151l553 -725l555 725h150v-1434h-168v1145l-492 -637h-90z" />
    <glyph glyph-name="N" unicode="N" horiz-adv-x="1579" 
d="M205 0v1434h151l850 -1137v1137h168v-1434h-153l-848 1137v-1137h-168z" />
    <glyph glyph-name="O" unicode="O" horiz-adv-x="1679" 
d="M840 -25q-210 0 -376.5 94.5t-259.5 264t-93 383.5t93.5 383.5t259.5 263.5t376 94q209 0 375.5 -94.5t260 -264t93.5 -382.5t-93.5 -382.5t-260 -264.5t-375.5 -95zM283 717q0 -254 155.5 -416t401.5 -162t401.5 162t155.5 416t-155.5 415.5t-401.5 161.5
q-245 0 -401 -162t-156 -415z" />
    <glyph glyph-name="P" unicode="P" horiz-adv-x="1259" 
d="M205 0v1434h508q230 0 363.5 -128t133.5 -348q0 -218 -133.5 -345.5t-363.5 -127.5h-338v-485h-170zM373 645h327q162 0 252 82.5t90 230.5q0 151 -89.5 233.5t-252.5 82.5h-327v-629z" />
    <glyph glyph-name="Q" unicode="Q" horiz-adv-x="1679" 
d="M840 -25q-210 0 -376.5 94.5t-259.5 264t-93 383.5t93.5 383.5t259.5 263.5t376 94q209 0 375.5 -94.5t260 -264t93.5 -382.5q0 -179 -67 -329t-189 -251l172 -250l-125 -86l-172 254q-160 -80 -348 -80zM283 717q0 -254 155.5 -416t401.5 -162q136 0 254 56l-250 370
l119 86l254 -375q86 79 133 192.5t47 248.5q0 254 -155.5 415.5t-401.5 161.5q-245 0 -401 -162t-156 -415z" />
    <glyph glyph-name="R" unicode="R" horiz-adv-x="1368" 
d="M205 0v1434h563q213 0 346 -127t133 -324q0 -158 -88.5 -274.5t-240.5 -157.5l366 -551h-192l-349 532h-368v-532h-170zM373 686h389q148 0 231.5 79t83.5 216q0 136 -83.5 214.5t-231.5 78.5h-389v-588z" />
    <glyph glyph-name="S" unicode="S" horiz-adv-x="1224" 
d="M623 -14q-312 0 -535 198l90 133q101 -88 209.5 -129t239.5 -41q159 0 251.5 61t92.5 165q0 94 -90 162.5t-293 126.5q-236 69 -343.5 168.5t-107.5 248.5q0 164 131 266.5t342 102.5q136 0 265 -51.5t233 -147.5l-94 -129q-82 79 -188.5 122.5t-219.5 43.5
q-135 0 -216 -54.5t-81 -144.5q0 -92 80.5 -154t288.5 -126q241 -72 354 -175.5t113 -254.5q0 -172 -146 -281.5t-376 -109.5z" />
    <glyph glyph-name="T" unicode="T" horiz-adv-x="1212" 
d="M522 0v1272h-465v162h1098v-162h-465v-1272h-168z" />
    <glyph glyph-name="U" unicode="U" horiz-adv-x="1509" 
d="M756 -25q-255 0 -411.5 157t-156.5 421v881h168v-871q0 -203 105.5 -313.5t294.5 -110.5q187 0 292 110.5t105 313.5v871h170v-881q0 -263 -156.5 -420.5t-410.5 -157.5z" />
    <glyph glyph-name="V" unicode="V" horiz-adv-x="1404" 
d="M604 0l-561 1434h182l271 -703l209 -534l208 534l269 703h182l-559 -1434h-201z" />
    <glyph glyph-name="W" unicode="W" horiz-adv-x="2154" 
d="M506 0l-453 1434h178l172 -564l205 -661l385 1153h172l387 -1153l203 661l170 564h176l-446 -1434h-201l-375 1106l-178 -537l-194 -569h-201z" />
    <glyph glyph-name="X" unicode="X" horiz-adv-x="1308" 
d="M29 0l522 743l-481 691h202l213 -301l172 -254l172 254l213 301h203l-481 -695l516 -739h-203l-219 307l-203 293l-200 -293l-222 -307h-204z" />
    <glyph glyph-name="Y" unicode="Y" horiz-adv-x="1341" 
d="M588 0v549l-547 885h197l225 -367l209 -336l209 336l225 367h194l-544 -883v-551h-168z" />
    <glyph glyph-name="Z" unicode="Z" horiz-adv-x="1214" 
d="M106 0v137l773 1137h-750v160h967v-136l-772 -1136h800v-162h-1018z" />
    <glyph glyph-name="bracketleft" unicode="[" horiz-adv-x="720" 
d="M170 -289v1786h465v-139h-309v-1508h309v-139h-465z" />
    <glyph glyph-name="backslash" unicode="\" horiz-adv-x="921" 
d="M854 -96h-145l-641 1612h145z" />
    <glyph glyph-name="bracketright" unicode="]" horiz-adv-x="720" 
d="M551 -289h-465v139h309v1508h-309v139h465v-1786z" />
    <glyph glyph-name="asciicircum" unicode="^" horiz-adv-x="1011" 
d="M84 897l354 584h135l353 -584h-168l-254 424l-254 -424h-166z" />
    <glyph glyph-name="underscore" unicode="_" horiz-adv-x="1386" 
d="M1276 -336h-1178v121h1178v-121z" />
    <glyph glyph-name="grave" unicode="`" horiz-adv-x="739" 
d="M535 1214h-150l-180 302h196z" />
    <glyph glyph-name="a" unicode="a" horiz-adv-x="1196" 
d="M475 -14q-168 0 -271.5 88.5t-103.5 232.5q0 157 117 251.5t313 94.5q169 0 334 -61v76q0 121 -72 179t-223 58q-160 0 -344 -90l-49 137q113 56 207.5 80.5t196.5 24.5q215 0 329.5 -100.5t114.5 -286.5v-670h-156l-2 166q-60 -84 -164.5 -132t-226.5 -48zM264 315
q0 -87 63.5 -136.5t176.5 -49.5q157 0 259.5 89t102.5 222v15q-180 59 -317 59q-135 0 -210 -52.5t-75 -146.5z" />
    <glyph glyph-name="b" unicode="b" horiz-adv-x="1372" 
d="M754 -25q-127 0 -232.5 52t-173.5 145v-172h-162v1516h164v-646q68 92 173 143.5t231 51.5q227 0 372.5 -153t145.5 -392t-145.5 -392t-372.5 -153zM348 520q0 -173 106 -282t273 -109q168 0 274.5 109t106.5 282t-106 282t-275 109q-167 0 -273 -109t-106 -282z" />
    <glyph glyph-name="c" unicode="c" horiz-adv-x="1134" 
d="M629 -25q-230 0 -379.5 153.5t-149.5 391.5t148.5 391.5t380.5 153.5q131 0 242 -50.5t184 -144.5l-103 -104q-60 69 -143.5 107t-177.5 38q-162 0 -264.5 -109.5t-102.5 -281.5q0 -174 101.5 -282.5t267.5 -108.5q101 0 188 41.5t146 118.5l110 -101
q-68 -100 -187.5 -156.5t-260.5 -56.5z" />
    <glyph glyph-name="d" unicode="d" horiz-adv-x="1372" 
d="M618 -25q-227 0 -372.5 153t-145.5 392t145.5 392t372.5 153q126 0 231 -51.5t173 -143.5v646h164v-1516h-162v172q-68 -93 -173.5 -145t-232.5 -52zM264 520q0 -173 106.5 -282t274.5 -109q167 0 273 109t106 282t-106 282t-273 109q-169 0 -275 -109t-106 -282z" />
    <glyph glyph-name="e" unicode="e" horiz-adv-x="1224" 
d="M635 -25q-238 0 -386.5 151.5t-148.5 393.5q0 238 148 391.5t375 153.5q165 0 291.5 -84t185.5 -227.5t35 -313.5h-873q20 -139 123.5 -227t251.5 -88q208 0 352 154l98 -107q-79 -93 -194 -145t-258 -52zM262 582h721q-15 147 -114 240t-246 93q-146 0 -245 -91.5
t-116 -241.5z" />
    <glyph glyph-name="f" unicode="f" horiz-adv-x="839" 
d="M301 1192q0 158 80 246t225 88q118 0 232 -60l-56 -131q-78 41 -157 41q-78 0 -119 -48t-41 -140v-148h354v-147h-354v-893h-164v893h-227v147h227v152z" />
    <glyph glyph-name="g" unicode="g" horiz-adv-x="1306" 
d="M686 -670q-285 0 -441.5 86t-156.5 242q0 69 30.5 128t88.5 97q-86 62 -86 166q0 135 143 223q-104 119 -104 303q0 207 134 336t351 129h596v-143h-266q153 -119 153 -328q0 -201 -135.5 -328.5t-347.5 -127.5q-159 0 -276 69q-90 -41 -90 -110q0 -46 38 -73.5
t128.5 -44t254.5 -24.5q278 -13 399.5 -79t121.5 -203q0 -151 -140.5 -234.5t-394.5 -83.5zM250 -328q0 -190 428 -190q381 0 381 158q0 70 -82.5 101.5t-284.5 39.5q-217 6 -340 39q-46 -23 -74 -65t-28 -83zM322 575q0 -140 89.5 -227.5t233.5 -87.5t234 88t90 227
q0 140 -90 229t-234 89t-233.5 -89t-89.5 -229z" />
    <glyph glyph-name="h" unicode="h" horiz-adv-x="1310" 
d="M186 0v1516h164v-644q136 183 367 183q191 0 306.5 -119t115.5 -315v-621h-164v594q0 146 -74.5 226.5t-210.5 80.5q-156 0 -248 -96t-92 -258v-547h-164z" />
    <glyph glyph-name="i" unicode="i" horiz-adv-x="536" 
d="M186 0v1040h164v-1040h-164zM141 1331q0 57 35.5 92t91.5 35t90.5 -35t34.5 -92t-35 -93t-90 -36q-56 0 -91.5 36t-35.5 93z" />
    <glyph glyph-name="j" unicode="j" horiz-adv-x="536" 
d="M61 -485q-88 0 -186 32l37 146q77 -23 133 -23q76 0 108.5 44.5t32.5 148.5v1177h164v-1202q0 -158 -74.5 -240.5t-214.5 -82.5zM141 1331q0 57 35.5 92t91.5 35t90.5 -35t34.5 -92t-35 -93t-90 -36q-56 0 -91.5 36t-35.5 93z" />
    <glyph glyph-name="k" unicode="k" horiz-adv-x="1105" 
d="M881 0l-375 463h-156v-463h-164v1516h164v-902h164l344 426h199l-412 -503l436 -537h-200z" />
    <glyph glyph-name="l" unicode="l" horiz-adv-x="536" 
d="M186 0v1516h164v-1516h-164z" />
    <glyph glyph-name="m" unicode="m" horiz-adv-x="2007" 
d="M186 0v1040h162v-166q128 181 342 181q118 0 205 -54.5t131 -156.5q66 103 166.5 157t226.5 54q190 0 303 -118t113 -316v-621h-164v596q0 143 -71.5 224t-198.5 81q-135 0 -221 -97t-86 -249v-555h-164v596q0 142 -72.5 223.5t-198.5 81.5q-136 0 -222.5 -97t-86.5 -249
v-555h-164z" />
    <glyph glyph-name="n" unicode="n" horiz-adv-x="1310" 
d="M186 0v1040h162v-172q135 187 369 187q191 0 306.5 -120t115.5 -317v-618h-164v592q0 148 -74.5 228.5t-210.5 80.5q-157 0 -248.5 -97t-91.5 -261v-543h-164z" />
    <glyph glyph-name="o" unicode="o" horiz-adv-x="1292" 
d="M645 -25q-239 0 -392 153t-153 392t153 392t392 153t393 -153t154 -392t-154 -392t-393 -153zM264 520q0 -173 106.5 -282t274.5 -109q169 0 276 109t107 282t-107 282t-276 109q-168 0 -274.5 -109t-106.5 -282z" />
    <glyph glyph-name="p" unicode="p" horiz-adv-x="1372" 
d="M754 -25q-126 0 -231 51.5t-173 143.5v-641h-164v1511h162v-174q70 94 175 146.5t231 52.5q226 0 372 -153t146 -392t-146 -392t-372 -153zM348 520q0 -172 106.5 -281.5t272.5 -109.5q168 0 274.5 109t106.5 282t-106.5 282t-274.5 109q-166 0 -272.5 -109.5
t-106.5 -281.5z" />
    <glyph glyph-name="q" unicode="q" horiz-adv-x="1372" 
d="M618 -25q-226 0 -372 153t-146 392t146 392t372 153q126 0 231 -52.5t175 -146.5v174h162v-1511h-164v641q-68 -92 -173 -143.5t-231 -51.5zM264 520q0 -173 106.5 -282t274.5 -109q166 0 272.5 109.5t106.5 281.5t-106.5 281.5t-272.5 109.5q-168 0 -274.5 -109
t-106.5 -282z" />
    <glyph glyph-name="r" unicode="r" horiz-adv-x="854" 
d="M186 0v1040h162v-176q118 191 332 191q83 0 160 -29l-43 -162q-76 25 -150 25q-148 0 -222.5 -108.5t-74.5 -297.5v-483h-164z" />
    <glyph glyph-name="s" unicode="s" horiz-adv-x="983" 
d="M506 -16q-243 0 -426 149l74 129q173 -125 352 -125q112 0 175.5 39t63.5 105q0 61 -59.5 103t-196.5 75q-193 49 -280.5 124.5t-87.5 192.5q0 129 98 205t268 76q233 0 404 -148l-80 -123q-63 56 -149.5 87.5t-176.5 31.5q-97 0 -149.5 -33.5t-52.5 -95.5t55.5 -99.5
t200.5 -74.5q191 -47 280.5 -124t89.5 -193q0 -137 -110 -219t-293 -82z" />
    <glyph glyph-name="t" unicode="t" horiz-adv-x="837" 
d="M571 -14q-147 0 -229 90t-82 246v575h-203v143h203v248h164v-248h324v-143h-324v-569q0 -189 164 -189q67 0 157 41l54 -141q-111 -53 -228 -53z" />
    <glyph glyph-name="u" unicode="u" horiz-adv-x="1310" 
d="M1124 1040v-1040h-161v174q-135 -188 -371 -188q-191 0 -306.5 120t-115.5 318v616h164v-589q0 -149 75 -230.5t212 -81.5q156 0 248 97t92 262v542h163z" />
    <glyph glyph-name="v" unicode="v" horiz-adv-x="1150" 
d="M481 0l-442 1040h176l234 -553l126 -297l363 850h174l-444 -1040h-187z" />
    <glyph glyph-name="w" unicode="w" horiz-adv-x="1753" 
d="M410 0l-361 1040h174l121 -360l162 -473l293 788h155l293 -788l162 473l123 360h172l-363 -1040h-184l-280 764l-162 -440l-121 -324h-184z" />
    <glyph glyph-name="x" unicode="x" horiz-adv-x="1048" 
d="M823 0l-299 406l-149 -201l-154 -205h-194l393 530l-371 510h193l153 -209l129 -178l129 178l150 209h194l-370 -510l395 -530h-199z" />
    <glyph glyph-name="y" unicode="y" horiz-adv-x="1148" 
d="M285 -481q-99 0 -183 37l45 141q59 -23 127 -23q75 0 120.5 36.5t84.5 133.5l43 111l-483 1085h178l387 -874l109 285l223 589h174l-481 -1249q-55 -141 -139 -206.5t-205 -65.5z" />
    <glyph glyph-name="z" unicode="z" horiz-adv-x="1001" 
d="M96 0v119l596 778h-573v143h782v-116l-596 -781h619v-143h-828z" />
    <glyph glyph-name="braceleft" unicode="{" horiz-adv-x="772" 
d="M504 -289q-147 0 -223 84t-76 234v321q0 96 -39 139t-119 43v144q83 0 120.5 42.5t37.5 139.5v322q0 150 76 233.5t223 83.5h213v-139h-195q-162 0 -162 -178v-351q0 -164 -116 -225q116 -61 116 -225v-350q0 -179 162 -179h195v-139h-213z" />
    <glyph glyph-name="bar" unicode="|" horiz-adv-x="460" 
d="M154 -289v1805h153v-1805h-153z" />
    <glyph glyph-name="braceright" unicode="}" horiz-adv-x="772" 
d="M268 -289h-213v139h195q162 0 162 179v350q0 164 116 225q-116 61 -116 225v351q0 178 -162 178h-195v139h213q147 0 223 -83.5t76 -233.5v-322q0 -97 37.5 -139.5t120.5 -42.5v-144q-80 0 -119 -43t-39 -139v-321q0 -150 -76 -234t-223 -84z" />
    <glyph glyph-name="asciitilde" unicode="~" horiz-adv-x="1202" 
d="M119 498q14 149 91 235t198 86q136 0 231 -106q39 -47 72 -64.5t71 -17.5q57 0 93 48.5t45 139.5l155 -18q-14 -150 -91 -236t-198 -86q-136 0 -229 107q-39 47 -72.5 64.5t-72.5 17.5q-57 0 -93 -49t-45 -140z" />
    <glyph glyph-name="uni00A0" unicode="&#xa0;" horiz-adv-x="507" 
 />
    <glyph glyph-name="exclamdown" unicode="&#xa1;" horiz-adv-x="532" 
d="M334 770l12 -584l4 -520h-168l4 520l13 584h135zM147 1004q0 52 34 84t85 32t86 -32.5t35 -83.5t-35 -84t-86 -33q-50 0 -84.5 32.5t-34.5 84.5z" />
    <glyph glyph-name="cent" unicode="&#xa2;" horiz-adv-x="1134" 
d="M555 -209v189q-202 25 -328.5 174t-126.5 366q0 218 126 367t329 174v182h137v-182q110 -11 204.5 -60t158.5 -131l-103 -106q-103 121 -264 143v-774q173 18 279 156l110 -101q-61 -89 -162 -144t-223 -67v-186h-137zM264 520q0 -154 80 -258t215 -127v770
q-134 -23 -214.5 -128t-80.5 -257z" />
    <glyph glyph-name="sterling" unicode="&#xa3;" horiz-adv-x="1140" 
d="M154 127q110 130 148 221.5t38 192.5q0 48 -8 84h-258v135h217q-5 12 -23 51.5t-25 57.5t-18 51.5t-15.5 65.5t-4.5 67q0 177 117 289t313 112q129 0 236 -54.5t169 -158.5l-116 -100q-100 155 -281 155q-131 0 -198.5 -67t-67.5 -174q0 -44 9.5 -87t20 -69t31 -70.5
t29.5 -68.5h448v-135h-413q6 -43 6 -93q0 -93 -30.5 -180.5t-104.5 -189.5h690v-162h-909v127z" />
    <glyph glyph-name="currency" unicode="&#xa4;" horiz-adv-x="1257" 
d="M629 96q-160 0 -279 86l-149 -149l-99 100l148 148q-88 125 -88 280q0 162 88 279l-144 143l99 100l145 -143q119 86 279 86t280 -84l148 145l100 -100l-145 -143q86 -122 86 -283q0 -160 -86 -282l141 -142l-100 -100l-144 143q-120 -84 -280 -84zM299 561
q0 -146 92.5 -240t237.5 -94q147 0 239.5 92.5t92.5 241.5t-92.5 241.5t-239.5 92.5q-145 0 -237.5 -94t-92.5 -240z" />
    <glyph glyph-name="yen" unicode="&#xa5;" horiz-adv-x="1341" 
d="M229 258v135h359v146h-359v141h297l-485 754h199l268 -422l164 -254l164 254l268 422h196l-483 -754h297v-141h-358v-146h358v-135h-358v-258h-168v258h-359z" />
    <glyph glyph-name="brokenbar" unicode="&#xa6;" horiz-adv-x="452" 
d="M303 420v-709h-153v709h153zM150 813v703h153v-703h-153z" />
    <glyph glyph-name="section" unicode="&#xa7;" horiz-adv-x="1062" 
d="M539 -180q-237 0 -433 149l76 123q173 -127 353 -127q113 0 179 43.5t66 118.5q0 68 -62.5 114.5t-197.5 80.5q-193 48 -296 131.5t-103 212.5q0 164 172 254q-141 88 -141 241q0 130 102.5 213.5t265.5 83.5q229 0 408 -147l-80 -119q-69 57 -153.5 89t-170.5 32
q-98 0 -155.5 -41.5t-57.5 -110.5q0 -72 60.5 -119t193.5 -79q201 -52 295 -131.5t94 -204.5q0 -79 -45.5 -145t-130.5 -107q162 -94 162 -248q0 -138 -111 -222.5t-290 -84.5zM276 672q0 -76 69 -126t220 -89q30 -8 68 -21q166 65 166 185q0 71 -65.5 120.5t-213.5 87.5
l-28 8t-30.5 9t-25.5 8q-81 -28 -120.5 -75.5t-39.5 -106.5z" />
    <glyph glyph-name="dieresis" unicode="&#xa8;" horiz-adv-x="989" 
d="M674 1206q-47 0 -78 32t-31 81t30.5 80t78.5 31t79 -31t31 -80t-31.5 -81t-78.5 -32zM205 1319q0 49 30.5 80t77.5 31q48 0 78.5 -31t30.5 -80t-31 -81t-78 -32t-77.5 32t-30.5 81z" />
    <glyph glyph-name="copyright" unicode="&#xa9;" horiz-adv-x="1665" 
d="M834 -16q-207 0 -372.5 94.5t-258 262t-92.5 376.5t92.5 376.5t258 262t372.5 94.5q155 0 289 -55.5t229 -152t149.5 -232.5t54.5 -293t-54.5 -293t-149.5 -232.5t-229 -152t-289 -55.5zM246 717q0 -172 75 -310t209.5 -216t303.5 -78q168 0 302 78t208.5 216t74.5 310
t-74.5 310t-208.5 216t-302 78q-169 0 -303.5 -78t-209.5 -216t-75 -310zM444 715q0 176 111 290.5t283 114.5q206 0 325 -166l-92 -75q-81 122 -233 122q-121 0 -196 -80.5t-75 -207.5t74.5 -207t196.5 -80q154 0 243 125l90 -72q-57 -82 -144 -127t-189 -45
q-174 0 -284 115t-110 293z" />
    <glyph glyph-name="ordfeminine" unicode="&#xaa;" horiz-adv-x="714" 
d="M274 745q-105 0 -169 61t-64 161q0 98 77 160.5t206 62.5q95 0 196 -35v23q0 151 -178 151q-111 0 -219 -51l-31 108q126 60 254 60q145 0 223 -69.5t78 -198.5v-420h-125v90q-93 -103 -248 -103zM170 967q0 -52 37 -82.5t104 -30.5q85 0 146 58t63 137q-95 32 -178 32
t-127.5 -31t-44.5 -83z" />
    <glyph glyph-name="guillemotleft" unicode="&#xab;" horiz-adv-x="1302" 
d="M547 51l-434 524l434 519l112 -97l-352 -422l352 -428zM614 575l435 519l112 -97l-352 -422l352 -428l-112 -96z" />
    <glyph glyph-name="logicalnot" unicode="&#xac;" horiz-adv-x="1040" 
d="M750 319v297h-641v146h792v-443h-151z" />
    <glyph glyph-name="uni00AD" unicode="&#xad;" horiz-adv-x="919" 
d="M821 485h-723v140h723v-140z" />
    <glyph glyph-name="registered" unicode="&#xae;" horiz-adv-x="1116" 
d="M559 510q-204 0 -337.5 131t-133.5 332q0 200 133.5 330.5t337.5 130.5q206 0 337.5 -129.5t131.5 -331.5q0 -204 -131.5 -333.5t-337.5 -129.5zM207 973q0 -152 100 -252t252 -100q151 0 250.5 100t99.5 252q0 155 -97.5 253.5t-252.5 98.5t-253.5 -98.5t-98.5 -253.5z
M406 762v418h165q67 0 111.5 -41.5t44.5 -104.5q0 -44 -22.5 -77t-61.5 -48l100 -147h-104l-86 133h-59v-133h-88zM492 973h75q33 0 52.5 17t19.5 46q0 26 -20.5 44t-51.5 18h-75v-125z" />
    <glyph glyph-name="macron" unicode="&#xaf;" horiz-adv-x="972" 
d="M205 1253v123h563v-123h-563z" />
    <glyph glyph-name="degree" unicode="&#xb0;" horiz-adv-x="763" 
d="M383 866q-131 0 -219 87.5t-88 217.5t88 218t219 88q129 0 217 -88t88 -218t-88 -217.5t-217 -87.5zM190 1171q0 -83 54 -137.5t139 -54.5q83 0 137.5 54.5t54.5 137.5t-54.5 138t-137.5 55q-84 0 -138.5 -54.5t-54.5 -138.5z" />
    <glyph glyph-name="plusminus" unicode="&#xb1;" horiz-adv-x="1069" 
d="M109 805v147h350v287h151v-287h351v-147h-351v-281h-151v281h-350zM109 160v143h852v-143h-852z" />
    <glyph glyph-name="uni00B2" unicode="&#xb2;" horiz-adv-x="563" 
d="M43 967v84l223 249q56 62 75 94.5t19 65.5q0 44 -28.5 70t-77.5 26q-91 0 -154 -83l-75 81q56 62 111.5 89.5t127.5 27.5q101 0 162 -56.5t61 -150.5q0 -60 -23.5 -104t-103.5 -137l-124 -140h282v-116h-475z" />
    <glyph glyph-name="uni00B3" unicode="&#xb3;" horiz-adv-x="569" 
d="M279 954q-141 0 -238 93l68 96q70 -70 159 -70q57 0 91 31.5t34 83.5q0 68 -52 97t-142 7l-31 60l143 192h-233v115h405v-66l-164 -200q90 -9 144.5 -67.5t54.5 -145.5q0 -100 -66 -163t-173 -63z" />
    <glyph glyph-name="acute" unicode="&#xb4;" horiz-adv-x="739" 
d="M205 1214l133 302h197l-181 -302h-149z" />
    <glyph glyph-name="uni00B5" unicode="&#xb5;" horiz-adv-x="1325" 
d="M186 -471v1511h164v-555q0 -168 79.5 -257t229.5 -89q143 0 229.5 94.5t86.5 251.5v555h164v-1040h-160v160q-56 -82 -140 -125t-184 -43q-201 0 -311 135v-598h-158z" />
    <glyph glyph-name="paragraph" unicode="&#xb6;" horiz-adv-x="1345" 
d="M516 588q-190 0 -321.5 119.5t-131.5 302.5q0 128 61.5 225.5t163.5 148t228 50.5h758v-140h-172v-1519h-152v1519h-268v-1519h-150v813h-16z" />
    <glyph glyph-name="periodcentered" unicode="&#xb7;" horiz-adv-x="481" 
d="M242 461q-51 0 -86 33t-35 84t35 83.5t86 32.5q50 0 84 -32t34 -84t-34 -84.5t-84 -32.5z" />
    <glyph glyph-name="cedilla" unicode="&#xb8;" horiz-adv-x="888" 
d="M430 -496q-129 0 -225 78l59 90q68 -55 158 -55q61 0 95 25t34 69q0 42 -28.5 63.5t-71.5 21.5t-95 -9l-30 31l51 219l112 -2l-32 -144q101 9 164 -41t63 -141q0 -94 -71.5 -149.5t-182.5 -55.5z" />
    <glyph glyph-name="uni00B9" unicode="&#xb9;" horiz-adv-x="430" 
d="M215 967v536q-73 -43 -184 -43v103q68 0 114.5 22.5t83.5 73.5h107v-692h-121z" />
    <glyph glyph-name="ordmasculine" unicode="&#xba;" horiz-adv-x="790" 
d="M395 745q-155 0 -254.5 99t-99.5 252t99.5 251.5t254.5 98.5q157 0 256 -98t99 -252t-99.5 -252.5t-255.5 -98.5zM176 1096q0 -98 62 -162t157 -64q96 0 157.5 63.5t61.5 162.5t-61.5 162t-157.5 63q-95 0 -157 -63.5t-62 -161.5z" />
    <glyph glyph-name="guillemotright" unicode="&#xbb;" horiz-adv-x="1302" 
d="M756 51l-113 96l352 428l-352 422l113 97l434 -519zM139 147l353 428l-353 422l113 97l434 -519l-434 -524z" />
    <glyph glyph-name="onequarter" unicode="&#xbc;" horiz-adv-x="1501" 
d="M215 741v537q-73 -43 -184 -43v102q67 0 114 23t84 74h107v-693h-121zM86 6l1012 1514l112 -78l-1011 -1512zM893 145v103l356 444h113v-434h88v-113h-88v-145h-119v145h-350zM1040 256h205v254z" />
    <glyph glyph-name="onehalf" unicode="&#xbd;" horiz-adv-x="1429" 
d="M215 741v537q-73 -43 -184 -43v102q67 0 114 23t84 74h107v-693h-121zM86 6l1012 1514l112 -78l-1011 -1512zM889 588q56 62 111.5 89.5t127.5 27.5q101 0 162.5 -56.5t61.5 -150.5q0 -60 -23.5 -104.5t-103.5 -137.5l-125 -139h282v-117h-475v84l223 250q57 63 76 95.5
t19 64.5q0 44 -29 70t-78 26q-90 0 -153 -84z" />
    <glyph glyph-name="threequarters" unicode="&#xbe;" horiz-adv-x="1640" 
d="M279 729q-142 0 -238 92l68 97q70 -70 159 -70q57 0 91 31.5t34 83.5q0 68 -52 97t-142 7l-31 59l143 193h-233v115h405v-66l-164 -201q90 -9 144.5 -67.5t54.5 -145.5q0 -100 -66 -162.5t-173 -62.5zM225 6l1012 1514l113 -78l-1012 -1512zM1034 145v103l357 444h112
v-434h88v-113h-88v-145h-119v145h-350zM1182 256h204v254z" />
    <glyph glyph-name="questiondown" unicode="&#xbf;" horiz-adv-x="1017" 
d="M602 649q0 -112 -43.5 -186t-152.5 -162q-94 -76 -128 -135t-34 -131q0 -107 73.5 -172.5t204.5 -65.5q212 0 342 211l119 -92q-167 -272 -467 -272q-200 0 -321 104t-121 272q0 113 57 203.5t176 188.5q75 59 105 111t30 134v113h160v-121zM403 1004q0 52 34 84t85 32
t86 -32.5t35 -83.5t-35 -84t-86 -33q-50 0 -84.5 32.5t-34.5 84.5z" />
    <glyph glyph-name="Agrave" unicode="&#xc0;" horiz-adv-x="1439" 
d="M43 0l580 1434h200l574 -1434h-176l-136 340h-729l-137 -340h-176zM414 494h614l-307 763zM471 1841h197l133 -260h-148z" />
    <glyph glyph-name="Aacute" unicode="&#xc1;" horiz-adv-x="1439" 
d="M43 0l580 1434h200l574 -1434h-176l-136 340h-729l-137 -340h-176zM414 494h614l-307 763zM643 1581l133 260h197l-180 -260h-150z" />
    <glyph glyph-name="Acircumflex" unicode="&#xc2;" horiz-adv-x="1439" 
d="M43 0l580 1434h200l574 -1434h-176l-136 340h-729l-137 -340h-176zM401 1581l258 260h127l256 -260h-172l-147 154l-148 -154h-174zM414 494h614l-307 763z" />
    <glyph glyph-name="Atilde" unicode="&#xc3;" horiz-adv-x="1439" 
d="M43 0l580 1434h200l574 -1434h-176l-136 340h-729l-137 -340h-176zM401 1642q65 158 191 158q48 0 94 -24.5t86 -49t72 -24.5q57 0 106 90l97 -55q-69 -160 -193 -160q-48 0 -94 24.5t-86 49t-72 24.5q-59 0 -104 -88zM414 494h614l-307 763z" />
    <glyph glyph-name="Adieresis" unicode="&#xc4;" horiz-adv-x="1439" 
d="M43 0l580 1434h200l574 -1434h-176l-136 340h-729l-137 -340h-176zM414 494h614l-307 763zM430 1686q0 51 30.5 82.5t78.5 31.5q49 0 79.5 -31.5t30.5 -82.5q0 -50 -30.5 -82.5t-79.5 -32.5q-47 0 -78 32.5t-31 82.5zM795 1686q0 51 31 82.5t79 31.5q50 0 80.5 -31.5
t30.5 -82.5q0 -50 -31 -82.5t-80 -32.5q-47 0 -78.5 33t-31.5 82z" />
    <glyph glyph-name="Aring" unicode="&#xc5;" horiz-adv-x="1439" 
d="M43 0l580 1434h200l574 -1434h-176l-136 340h-729l-137 -340h-176zM414 494h614l-307 763zM479 1755q0 100 70.5 168t173.5 68t173.5 -68t70.5 -168q0 -98 -70.5 -165.5t-173.5 -67.5t-173.5 67.5t-70.5 165.5zM600 1755q0 -53 34.5 -88t88.5 -35q53 0 88 35t35 88
q0 54 -35 89.5t-88 35.5q-54 0 -88.5 -35.5t-34.5 -89.5z" />
    <glyph glyph-name="AE" unicode="&#xc6;" horiz-adv-x="1927" 
d="M31 0l860 1434h903v-158h-657v-463h604v-154h-604v-501h682v-158h-846v326h-559l-195 -326h-188zM502 475h471v789z" />
    <glyph glyph-name="Ccedilla" unicode="&#xc7;" horiz-adv-x="1501" 
d="M827 -496q-130 0 -231 78l59 92q68 -53 164 -53q61 0 95 24t34 68q0 41 -28.5 62t-72 21t-95.5 -9l-33 31l37 159q-289 22 -467 227.5t-178 512.5q0 211 88 380t248 265t364 96q183 0 334.5 -78.5t261.5 -226.5l-123 -104q-81 117 -206 181t-267 64q-233 0 -380.5 -162.5
t-147.5 -414.5q0 -167 66.5 -298.5t188.5 -205.5t279 -74q151 0 281.5 68t218.5 192l123 -102q-107 -146 -251.5 -228t-316.5 -92l-18 -83q101 6 165 -44.5t64 -140.5q0 -94 -72 -149.5t-184 -55.5z" />
    <glyph glyph-name="Egrave" unicode="&#xc8;" horiz-adv-x="1224" 
d="M205 0v1434h885v-158h-715v-469h661v-154h-661v-493h741v-160h-911zM416 1841h196l133 -260h-147z" />
    <glyph glyph-name="Eacute" unicode="&#xc9;" horiz-adv-x="1224" 
d="M205 0v1434h885v-158h-715v-469h661v-154h-661v-493h741v-160h-911zM588 1581l133 260h197l-181 -260h-149z" />
    <glyph glyph-name="Ecircumflex" unicode="&#xca;" horiz-adv-x="1224" 
d="M205 0v1434h885v-158h-715v-469h661v-154h-661v-493h741v-160h-911zM346 1581l258 260h127l256 -260h-172l-147 154l-148 -154h-174z" />
    <glyph glyph-name="Edieresis" unicode="&#xcb;" horiz-adv-x="1224" 
d="M205 0v1434h885v-158h-715v-469h661v-154h-661v-493h741v-160h-911zM375 1686q0 51 30.5 82.5t79.5 31.5q48 0 79.5 -32t31.5 -82q0 -49 -32 -82t-79 -33q-49 0 -79.5 32.5t-30.5 82.5zM741 1686q0 51 30.5 82.5t78.5 31.5q50 0 80.5 -31.5t30.5 -82.5q0 -50 -31 -82.5
t-80 -32.5q-47 0 -78 32.5t-31 82.5z" />
    <glyph glyph-name="Igrave" unicode="&#xcc;" horiz-adv-x="579" 
d="M205 0v1434h170v-1434h-170zM39 1841h197l133 -260h-148z" />
    <glyph glyph-name="Iacute" unicode="&#xcd;" horiz-adv-x="579" 
d="M205 0v1434h170v-1434h-170zM211 1581l133 260h197l-181 -260h-149z" />
    <glyph glyph-name="Icircumflex" unicode="&#xce;" horiz-adv-x="579" 
d="M205 0v1434h170v-1434h-170zM-31 1581l256 260h129l256 -260h-172l-147 154l-148 -154h-174z" />
    <glyph glyph-name="Idieresis" unicode="&#xcf;" horiz-adv-x="579" 
d="M205 0v1434h170v-1434h-170zM-4 1686q0 51 31 82.5t79 31.5q50 0 80.5 -31.5t30.5 -82.5q0 -50 -31 -82.5t-80 -32.5q-47 0 -78.5 33t-31.5 82zM362 1686q0 50 31.5 82t79.5 32q50 0 80.5 -31.5t30.5 -82.5q0 -50 -31 -82.5t-80 -32.5q-47 0 -79 33t-32 82z" />
    <glyph glyph-name="Eth" unicode="&#xd0;" horiz-adv-x="1576" 
d="M31 662v141h223v631h491q329 0 525 -194.5t196 -522.5t-196 -522.5t-525 -194.5h-491v662h-223zM424 162h311q262 0 410.5 147.5t148.5 407.5t-148.5 407.5t-410.5 147.5h-311v-473h350v-135h-350v-502z" />
    <glyph glyph-name="Ntilde" unicode="&#xd1;" horiz-adv-x="1579" 
d="M205 0v1434h151l850 -1137v1137h168v-1434h-153l-848 1137v-1137h-168zM475 1642q68 158 193 158q47 0 92.5 -24.5t85.5 -49t72 -24.5q57 0 106 90l96 -55q-69 -160 -192 -160q-48 0 -93.5 24.5t-85.5 49t-73 24.5q-57 0 -105 -88z" />
    <glyph glyph-name="Ograve" unicode="&#xd2;" horiz-adv-x="1679" 
d="M840 -25q-210 0 -376.5 94.5t-259.5 264t-93 383.5t93.5 383.5t259.5 263.5t376 94q209 0 375.5 -94.5t260 -264t93.5 -382.5t-93.5 -382.5t-260 -264.5t-375.5 -95zM283 717q0 -254 155.5 -416t401.5 -162t401.5 162t155.5 416t-155.5 415.5t-401.5 161.5
q-245 0 -401 -162t-156 -415zM590 1841h196l134 -260h-148z" />
    <glyph glyph-name="Oacute" unicode="&#xd3;" horiz-adv-x="1679" 
d="M840 -25q-210 0 -376.5 94.5t-259.5 264t-93 383.5t93.5 383.5t259.5 263.5t376 94q209 0 375.5 -94.5t260 -264t93.5 -382.5t-93.5 -382.5t-260 -264.5t-375.5 -95zM283 717q0 -254 155.5 -416t401.5 -162t401.5 162t155.5 416t-155.5 415.5t-401.5 161.5
q-245 0 -401 -162t-156 -415zM760 1581l133 260h197l-181 -260h-149z" />
    <glyph glyph-name="Ocircumflex" unicode="&#xd4;" horiz-adv-x="1679" 
d="M840 -25q-210 0 -376.5 94.5t-259.5 264t-93 383.5t93.5 383.5t259.5 263.5t376 94q209 0 375.5 -94.5t260 -264t93.5 -382.5t-93.5 -382.5t-260 -264.5t-375.5 -95zM283 717q0 -254 155.5 -416t401.5 -162t401.5 162t155.5 416t-155.5 415.5t-401.5 161.5
q-245 0 -401 -162t-156 -415zM520 1581l256 260h127l256 -260h-172l-147 154l-148 -154h-172z" />
    <glyph glyph-name="Otilde" unicode="&#xd5;" horiz-adv-x="1679" 
d="M840 -25q-210 0 -376.5 94.5t-259.5 264t-93 383.5t93.5 383.5t259.5 263.5t376 94q209 0 375.5 -94.5t260 -264t93.5 -382.5t-93.5 -382.5t-260 -264.5t-375.5 -95zM283 717q0 -254 155.5 -416t401.5 -162t401.5 162t155.5 416t-155.5 415.5t-401.5 161.5
q-245 0 -401 -162t-156 -415zM518 1642q68 158 193 158q47 0 92.5 -24.5t85.5 -49t72 -24.5q57 0 106 90l96 -55q-69 -160 -192 -160q-48 0 -93.5 24.5t-85.5 49t-73 24.5q-60 0 -105 -88z" />
    <glyph glyph-name="Odieresis" unicode="&#xd6;" horiz-adv-x="1679" 
d="M840 -25q-210 0 -376.5 94.5t-259.5 264t-93 383.5t93.5 383.5t259.5 263.5t376 94q209 0 375.5 -94.5t260 -264t93.5 -382.5t-93.5 -382.5t-260 -264.5t-375.5 -95zM283 717q0 -254 155.5 -416t401.5 -162t401.5 162t155.5 416t-155.5 415.5t-401.5 161.5
q-245 0 -401 -162t-156 -415zM547 1686q0 51 30.5 82.5t79.5 31.5q48 0 79.5 -32t31.5 -82q0 -49 -32 -82t-79 -33q-49 0 -79.5 32.5t-30.5 82.5zM913 1686q0 51 30.5 82.5t80.5 31.5q48 0 78.5 -31.5t30.5 -82.5q0 -50 -31 -82.5t-78 -32.5q-49 0 -80 32.5t-31 82.5z" />
    <glyph glyph-name="multiply" unicode="&#xd7;" horiz-adv-x="925" 
d="M719 268l-256 256l-256 -256l-103 105l256 256l-256 254l103 104l256 -256l256 256l102 -102l-256 -256l256 -256z" />
    <glyph glyph-name="Oslash" unicode="&#xd8;" horiz-adv-x="1679" 
d="M840 -25q-164 0 -310 62l-131 -223l-125 71l129 224q-138 98 -215 256t-77 352q0 214 93.5 383.5t259.5 263.5t376 94q165 0 309 -61l129 225l125 -74l-129 -223q139 -98 217 -256t78 -352q0 -213 -93.5 -382.5t-260 -264.5t-375.5 -95zM283 717q0 -147 55.5 -267
t155.5 -198l571 999q-101 43 -225 43q-245 0 -401 -162t-156 -415zM612 182q101 -43 228 -43q246 0 401.5 162t155.5 416q0 148 -56 269t-157 198z" />
    <glyph glyph-name="Ugrave" unicode="&#xd9;" horiz-adv-x="1509" 
d="M756 -25q-255 0 -411.5 157t-156.5 421v881h168v-871q0 -203 105.5 -313.5t294.5 -110.5q187 0 292 110.5t105 313.5v871h170v-881q0 -263 -156.5 -420.5t-410.5 -157.5zM504 1841h196l134 -260h-148z" />
    <glyph glyph-name="Uacute" unicode="&#xda;" horiz-adv-x="1509" 
d="M756 -25q-255 0 -411.5 157t-156.5 421v881h168v-871q0 -203 105.5 -313.5t294.5 -110.5q187 0 292 110.5t105 313.5v871h170v-881q0 -263 -156.5 -420.5t-410.5 -157.5zM676 1581l133 260h197l-183 -260h-147z" />
    <glyph glyph-name="Ucircumflex" unicode="&#xdb;" horiz-adv-x="1509" 
d="M756 -25q-255 0 -411.5 157t-156.5 421v881h168v-871q0 -203 105.5 -313.5t294.5 -110.5q187 0 292 110.5t105 313.5v871h170v-881q0 -263 -156.5 -420.5t-410.5 -157.5zM434 1581l256 260h129l256 -260h-172l-147 154l-148 -154h-174z" />
    <glyph glyph-name="Udieresis" unicode="&#xdc;" horiz-adv-x="1509" 
d="M756 -25q-255 0 -411.5 157t-156.5 421v881h168v-871q0 -203 105.5 -313.5t294.5 -110.5q187 0 292 110.5t105 313.5v871h170v-881q0 -263 -156.5 -420.5t-410.5 -157.5zM461 1686q0 51 31 82.5t79 31.5q50 0 80.5 -31.5t30.5 -82.5q0 -50 -31 -82.5t-80 -32.5
q-47 0 -78.5 33t-31.5 82zM827 1686q0 50 31.5 82t79.5 32q50 0 80.5 -31.5t30.5 -82.5q0 -50 -31 -82.5t-80 -32.5q-47 0 -79 33t-32 82z" />
    <glyph glyph-name="Yacute" unicode="&#xdd;" horiz-adv-x="1341" 
d="M588 0v549l-547 885h197l225 -367l209 -336l209 336l225 367h194l-544 -883v-551h-168zM594 1581l133 260h197l-183 -260h-147z" />
    <glyph glyph-name="Thorn" unicode="&#xde;" horiz-adv-x="1259" 
d="M205 0v1434h170v-234h338q234 0 365.5 -130t131.5 -345t-131.5 -345t-365.5 -130h-338v-250h-170zM373 410h327q164 0 253 83.5t89 231.5t-89 231.5t-253 83.5h-327v-630z" />
    <glyph glyph-name="germandbls" unicode="&#xdf;" horiz-adv-x="1343" 
d="M842 -18q-184 0 -301 94l69 127q101 -68 226 -68q106 0 173.5 55.5t67.5 143.5q0 68 -37 120.5t-133 123.5q-95 72 -131.5 122.5t-36.5 110.5q0 47 17.5 89t64.5 101q78 102 78 185q0 90 -67.5 145t-178.5 55q-145 0 -227 -91.5t-82 -252.5v-1042h-158v1042
q0 226 127.5 362t339.5 136q183 0 296.5 -93.5t113.5 -244.5q0 -68 -22.5 -126.5t-77.5 -129.5q-60 -83 -60 -123q0 -34 26.5 -65.5t98.5 -85.5q115 -83 164 -161.5t49 -176.5q0 -157 -110.5 -254.5t-288.5 -97.5z" />
    <glyph glyph-name="agrave" unicode="&#xe0;" horiz-adv-x="1196" 
d="M475 -14q-168 0 -271.5 88.5t-103.5 232.5q0 157 117 251.5t313 94.5q169 0 334 -61v76q0 121 -72 179t-223 58q-160 0 -344 -90l-49 137q113 56 207.5 80.5t196.5 24.5q215 0 329.5 -100.5t114.5 -286.5v-670h-156l-2 166q-60 -84 -164.5 -132t-226.5 -48zM264 315
q0 -87 63.5 -136.5t176.5 -49.5q157 0 259.5 89t102.5 222v15q-180 59 -317 59q-135 0 -210 -52.5t-75 -146.5zM340 1516h197l133 -302h-150z" />
    <glyph glyph-name="aacute" unicode="&#xe1;" horiz-adv-x="1196" 
d="M475 -14q-168 0 -271.5 88.5t-103.5 232.5q0 157 117 251.5t313 94.5q169 0 334 -61v76q0 121 -72 179t-223 58q-160 0 -344 -90l-49 137q113 56 207.5 80.5t196.5 24.5q215 0 329.5 -100.5t114.5 -286.5v-670h-156l-2 166q-60 -84 -164.5 -132t-226.5 -48zM264 315
q0 -87 63.5 -136.5t176.5 -49.5q157 0 259.5 89t102.5 222v15q-180 59 -317 59q-135 0 -210 -52.5t-75 -146.5zM489 1214l134 302h196l-180 -302h-150z" />
    <glyph glyph-name="acircumflex" unicode="&#xe2;" horiz-adv-x="1196" 
d="M475 -14q-168 0 -271.5 88.5t-103.5 232.5q0 157 117 251.5t313 94.5q169 0 334 -61v76q0 121 -72 179t-223 58q-160 0 -344 -90l-49 137q113 56 207.5 80.5t196.5 24.5q215 0 329.5 -100.5t114.5 -286.5v-670h-156l-2 166q-60 -84 -164.5 -132t-226.5 -48zM258 1214
l258 302h127l256 -302h-172l-147 185l-148 -185h-174zM264 315q0 -87 63.5 -136.5t176.5 -49.5q157 0 259.5 89t102.5 222v15q-180 59 -317 59q-135 0 -210 -52.5t-75 -146.5z" />
    <glyph glyph-name="atilde" unicode="&#xe3;" horiz-adv-x="1196" 
d="M475 -14q-168 0 -271.5 88.5t-103.5 232.5q0 157 117 251.5t313 94.5q169 0 334 -61v76q0 121 -72 179t-223 58q-160 0 -344 -90l-49 137q113 56 207.5 80.5t196.5 24.5q215 0 329.5 -100.5t114.5 -286.5v-670h-156l-2 166q-60 -84 -164.5 -132t-226.5 -48zM262 1280
q68 158 189 158q31 0 60.5 -12t84.5 -44q42 -26 61 -34.5t39 -8.5q58 0 103 91l96 -56q-68 -160 -188 -160q-31 0 -61.5 12.5t-84.5 45.5q-68 41 -100 41q-58 0 -103 -88zM264 315q0 -87 63.5 -136.5t176.5 -49.5q157 0 259.5 89t102.5 222v15q-180 59 -317 59
q-135 0 -210 -52.5t-75 -146.5z" />
    <glyph glyph-name="adieresis" unicode="&#xe4;" horiz-adv-x="1196" 
d="M475 -14q-168 0 -271.5 88.5t-103.5 232.5q0 157 117 251.5t313 94.5q169 0 334 -61v76q0 121 -72 179t-223 58q-160 0 -344 -90l-49 137q113 56 207.5 80.5t196.5 24.5q215 0 329.5 -100.5t114.5 -286.5v-670h-156l-2 166q-60 -84 -164.5 -132t-226.5 -48zM264 315
q0 -87 63.5 -136.5t176.5 -49.5q157 0 259.5 89t102.5 222v15q-180 59 -317 59q-135 0 -210 -52.5t-75 -146.5zM289 1319q0 49 31 80t79 31t78.5 -31t30.5 -80t-31 -81t-78 -32t-78.5 32t-31.5 81zM649 1319q0 49 31.5 80t79.5 31q47 0 77.5 -31t30.5 -80t-30.5 -81
t-77.5 -32q-48 0 -79.5 32t-31.5 81z" />
    <glyph glyph-name="aring" unicode="&#xe5;" horiz-adv-x="1196" 
d="M475 -14q-168 0 -271.5 88.5t-103.5 232.5q0 157 117 251.5t313 94.5q169 0 334 -61v76q0 121 -72 179t-223 58q-160 0 -344 -90l-49 137q113 56 207.5 80.5t196.5 24.5q215 0 329.5 -100.5t114.5 -286.5v-670h-156l-2 166q-60 -84 -164.5 -132t-226.5 -48zM264 315
q0 -87 63.5 -136.5t176.5 -49.5q157 0 259.5 89t102.5 222v15q-180 59 -317 59q-135 0 -210 -52.5t-75 -146.5zM336 1401q0 100 70.5 167.5t173.5 67.5t173 -67.5t70 -167.5q0 -98 -70 -166t-173 -68t-173.5 68t-70.5 166zM457 1401q0 -53 34 -88t89 -35q54 0 88 35t34 88
t-34.5 89t-87.5 36q-55 0 -89 -36t-34 -89z" />
    <glyph glyph-name="ae" unicode="&#xe6;" horiz-adv-x="1957" 
d="M1384 -25q-146 0 -259.5 63t-178.5 177q-64 -117 -187.5 -178.5t-275.5 -61.5q-173 0 -278 91t-105 239q0 158 117.5 253t312.5 95q163 0 328 -67v82q0 129 -74 187t-219 58q-164 0 -340 -98l-49 137q204 113 391 113q147 0 250 -52t150 -153q69 97 172.5 151t230.5 54
q161 0 284 -84t180 -227.5t34 -313.5h-852q22 -141 121.5 -228t242.5 -87q202 0 340 154l101 -107q-75 -93 -187 -145t-250 -52zM264 309q0 -88 62 -136t176 -48q154 0 256 88t102 221v15q-177 65 -311 65q-133 0 -209 -55t-76 -150zM1016 582h700q-15 147 -110.5 240
t-239.5 93q-141 0 -237 -91.5t-113 -241.5z" />
    <glyph glyph-name="ccedilla" unicode="&#xe7;" horiz-adv-x="1134" 
d="M635 -496q-129 0 -225 78l57 90q68 -55 160 -55q61 0 95 25t34 69q0 42 -29 63.5t-72 21.5t-94 -9l-31 31l37 159q-207 22 -337 172t-130 371q0 238 148.5 391.5t380.5 153.5q131 0 242 -50.5t184 -144.5l-103 -104q-60 69 -143.5 107t-177.5 38q-162 0 -264.5 -109.5
t-102.5 -281.5q0 -174 101.5 -282.5t267.5 -108.5q101 0 188 41.5t146 118.5l110 -101q-63 -92 -167.5 -147t-229.5 -64l-18 -86q100 9 162.5 -40.5t62.5 -141.5q0 -94 -70.5 -149.5t-181.5 -55.5z" />
    <glyph glyph-name="egrave" unicode="&#xe8;" horiz-adv-x="1224" 
d="M635 -25q-238 0 -386.5 151.5t-148.5 393.5q0 238 148 391.5t375 153.5q165 0 291.5 -84t185.5 -227.5t35 -313.5h-873q20 -139 123.5 -227t251.5 -88q208 0 352 154l98 -107q-79 -93 -194 -145t-258 -52zM262 582h721q-15 147 -114 240t-246 93q-146 0 -245 -91.5
t-116 -241.5zM383 1516h197l133 -302h-150z" />
    <glyph glyph-name="eacute" unicode="&#xe9;" horiz-adv-x="1224" 
d="M635 -25q-238 0 -386.5 151.5t-148.5 393.5q0 238 148 391.5t375 153.5q165 0 291.5 -84t185.5 -227.5t35 -313.5h-873q20 -139 123.5 -227t251.5 -88q208 0 352 154l98 -107q-79 -93 -194 -145t-258 -52zM262 582h721q-15 147 -114 240t-246 93q-146 0 -245 -91.5
t-116 -241.5zM535 1214l133 302h196l-180 -302h-149z" />
    <glyph glyph-name="ecircumflex" unicode="&#xea;" horiz-adv-x="1224" 
d="M635 -25q-238 0 -386.5 151.5t-148.5 393.5q0 238 148 391.5t375 153.5q165 0 291.5 -84t185.5 -227.5t35 -313.5h-873q20 -139 123.5 -227t251.5 -88q208 0 352 154l98 -107q-79 -93 -194 -145t-258 -52zM262 582h721q-15 147 -114 240t-246 93q-146 0 -245 -91.5
t-116 -241.5zM303 1214l258 302h127l256 -302h-172l-147 183l-148 -183h-174z" />
    <glyph glyph-name="edieresis" unicode="&#xeb;" horiz-adv-x="1224" 
d="M635 -25q-238 0 -386.5 151.5t-148.5 393.5q0 238 148 391.5t375 153.5q165 0 291.5 -84t185.5 -227.5t35 -313.5h-873q20 -139 123.5 -227t251.5 -88q208 0 352 154l98 -107q-79 -93 -194 -145t-258 -52zM262 582h721q-15 147 -114 240t-246 93q-146 0 -245 -91.5
t-116 -241.5zM334 1319q0 49 30.5 80t77.5 31q48 0 79.5 -31t31.5 -80t-31.5 -81t-79.5 -32q-47 0 -77.5 32t-30.5 81zM694 1319q0 49 31.5 80t79.5 31q47 0 77.5 -31t30.5 -80t-30.5 -81t-77.5 -32q-48 0 -79.5 32t-31.5 81z" />
    <glyph glyph-name="igrave" unicode="&#xec;" horiz-adv-x="536" 
d="M186 0v1040h164v-1040h-164zM47 1516h197l116 -302h-149z" />
    <glyph glyph-name="iacute" unicode="&#xed;" horiz-adv-x="536" 
d="M186 0v1040h164v-1040h-164zM178 1214l115 302h196l-161 -302h-150z" />
    <glyph glyph-name="icircumflex" unicode="&#xee;" horiz-adv-x="536" 
d="M186 0v1040h164v-1040h-164zM-14 1214l219 302h127l219 -302h-166l-115 177l-116 -177h-168z" />
    <glyph glyph-name="idieresis" unicode="&#xef;" horiz-adv-x="536" 
d="M186 0v1040h164v-1040h-164zM-12 1319q0 49 30.5 80t77.5 31t77 -31t30 -80q0 -50 -30 -81.5t-77 -31.5t-77.5 32t-30.5 81zM332 1319q0 49 30.5 80t77.5 31t77 -31t30 -80q0 -50 -30 -81.5t-77 -31.5t-77.5 32t-30.5 81z" />
    <glyph glyph-name="eth" unicode="&#xf0;" horiz-adv-x="1292" 
d="M645 -25q-239 0 -392 150.5t-153 386.5q0 233 146 384t372 151q172 0 302 -97q-128 194 -322 336l-238 -166l-71 101l198 139q-87 53 -182 98l78 133q134 -64 240 -137l200 141l72 -102l-168 -117q220 -176 342.5 -396t122.5 -445q0 -249 -152 -404.5t-395 -155.5z
M264 512q0 -170 106.5 -276.5t274.5 -106.5q169 0 276 107t107 276t-107 275t-276 106t-275 -106t-106 -275z" />
    <glyph glyph-name="ntilde" unicode="&#xf1;" horiz-adv-x="1310" 
d="M186 0v1040h162v-172q135 187 369 187q191 0 306.5 -120t115.5 -317v-618h-164v592q0 148 -74.5 228.5t-210.5 80.5q-157 0 -248.5 -97t-91.5 -261v-543h-164zM354 1280q68 158 189 158q32 0 61.5 -12t83.5 -44q68 -43 100 -43q58 0 103 91l96 -56q-68 -160 -188 -160
q-30 0 -59.5 12t-86.5 46q-66 41 -100 41q-29 0 -53 -21t-49 -67z" />
    <glyph glyph-name="ograve" unicode="&#xf2;" horiz-adv-x="1292" 
d="M645 -25q-239 0 -392 153t-153 392t153 392t392 153t393 -153t154 -392t-154 -392t-393 -153zM264 520q0 -173 106.5 -282t274.5 -109q169 0 276 109t107 282t-107 282t-276 109q-168 0 -274.5 -109t-106.5 -282zM406 1516h196l133 -302h-149z" />
    <glyph glyph-name="oacute" unicode="&#xf3;" horiz-adv-x="1292" 
d="M645 -25q-239 0 -392 153t-153 392t153 392t392 153t393 -153t154 -392t-154 -392t-393 -153zM264 520q0 -173 106.5 -282t274.5 -109q169 0 276 109t107 282t-107 282t-276 109q-168 0 -274.5 -109t-106.5 -282zM557 1214l133 302h195l-178 -302h-150z" />
    <glyph glyph-name="ocircumflex" unicode="&#xf4;" horiz-adv-x="1292" 
d="M645 -25q-239 0 -392 153t-153 392t153 392t392 153t393 -153t154 -392t-154 -392t-393 -153zM264 520q0 -173 106.5 -282t274.5 -109q169 0 276 109t107 282t-107 282t-276 109q-168 0 -274.5 -109t-106.5 -282zM326 1214l256 302h129l256 -302h-172l-148 185l-147 -185
h-174z" />
    <glyph glyph-name="otilde" unicode="&#xf5;" horiz-adv-x="1292" 
d="M645 -25q-239 0 -392 153t-153 392t153 392t392 153t393 -153t154 -392t-154 -392t-393 -153zM264 520q0 -173 106.5 -282t274.5 -109q169 0 276 109t107 282t-107 282t-276 109q-168 0 -274.5 -109t-106.5 -282zM328 1280q68 158 190 158q31 0 61 -12t83 -44
q41 -26 61.5 -34.5t40.5 -8.5q29 0 53 21.5t49 69.5l97 -56q-68 -160 -191 -160q-30 0 -58.5 12t-84.5 46q-68 41 -103 41q-29 0 -53 -21t-49 -67z" />
    <glyph glyph-name="odieresis" unicode="&#xf6;" horiz-adv-x="1292" 
d="M645 -25q-239 0 -392 153t-153 392t153 392t392 153t393 -153t154 -392t-154 -392t-393 -153zM264 520q0 -173 106.5 -282t274.5 -109q169 0 276 109t107 282t-107 282t-276 109q-168 0 -274.5 -109t-106.5 -282zM356 1319q0 49 30.5 80t78.5 31q47 0 77.5 -31t30.5 -80
t-30.5 -81t-77.5 -32t-78 32t-31 81zM717 1319q0 49 30.5 80t77.5 31q48 0 78.5 -31t30.5 -80t-31 -81t-78 -32t-77.5 32t-30.5 81z" />
    <glyph glyph-name="divide" unicode="&#xf7;" horiz-adv-x="1038" 
d="M109 551v145h821v-145h-821zM406 317q0 46 33.5 76.5t78.5 30.5q46 0 79.5 -30.5t33.5 -76.5q0 -48 -33.5 -78t-79.5 -30t-79 30t-33 78zM406 928q0 48 33 78t79 30t79.5 -30t33.5 -78q0 -46 -33.5 -76.5t-79.5 -30.5q-45 0 -78.5 30.5t-33.5 76.5z" />
    <glyph glyph-name="oslash" unicode="&#xf8;" horiz-adv-x="1292" 
d="M315 -145l-116 69l100 162q-95 74 -147 186t-52 248q0 239 153 392t392 153q125 0 229 -43l101 164l117 -70l-101 -162q95 -73 148 -185.5t53 -248.5q0 -239 -154 -392t-393 -153q-126 0 -227 43zM264 520q0 -93 33 -170t92 -129l404 666q-68 24 -148 24
q-168 0 -274.5 -109t-106.5 -282zM498 156q68 -27 147 -27q169 0 276 109t107 282q0 187 -125 299z" />
    <glyph glyph-name="ugrave" unicode="&#xf9;" horiz-adv-x="1310" 
d="M1124 1040v-1040h-161v174q-135 -188 -371 -188q-191 0 -306.5 120t-115.5 318v616h164v-589q0 -149 75 -230.5t212 -81.5q156 0 248 97t92 262v542h163zM408 1516h196l133 -302h-149z" />
    <glyph glyph-name="uacute" unicode="&#xfa;" horiz-adv-x="1310" 
d="M1124 1040v-1040h-161v174q-135 -188 -371 -188q-191 0 -306.5 120t-115.5 318v616h164v-589q0 -149 75 -230.5t212 -81.5q156 0 248 97t92 262v542h163zM559 1214l133 302h197l-180 -302h-150z" />
    <glyph glyph-name="ucircumflex" unicode="&#xfb;" horiz-adv-x="1310" 
d="M1124 1040v-1040h-161v174q-135 -188 -371 -188q-191 0 -306.5 120t-115.5 318v616h164v-589q0 -149 75 -230.5t212 -81.5q156 0 248 97t92 262v542h163zM328 1214l256 302h129l256 -302h-172l-148 183l-147 -183h-174z" />
    <glyph glyph-name="udieresis" unicode="&#xfc;" horiz-adv-x="1310" 
d="M1124 1040v-1040h-161v174q-135 -188 -371 -188q-191 0 -306.5 120t-115.5 318v616h164v-589q0 -149 75 -230.5t212 -81.5q156 0 248 97t92 262v542h163zM358 1319q0 49 30.5 80t78.5 31t79.5 -31t31.5 -80t-31.5 -81t-79.5 -32q-47 0 -78 32t-31 81zM719 1319
q0 49 31 80t79 31t78.5 -31t30.5 -80t-31 -81t-78 -32t-78.5 32t-31.5 81z" />
    <glyph glyph-name="yacute" unicode="&#xfd;" horiz-adv-x="1148" 
d="M285 -481q-99 0 -183 37l45 141q59 -23 127 -23q75 0 120.5 36.5t84.5 133.5l43 111l-483 1085h178l387 -874l109 285l223 589h174l-481 -1249q-55 -141 -139 -206.5t-205 -65.5zM498 1214l133 302h196l-180 -302h-149z" />
    <glyph glyph-name="thorn" unicode="&#xfe;" horiz-adv-x="1372" 
d="M754 -25q-126 0 -231 51.5t-173 143.5v-641h-164v1987h164v-648q70 94 174 145.5t230 51.5q226 0 372 -153t146 -392t-146 -392t-372 -153zM348 520q0 -172 106.5 -281.5t272.5 -109.5q168 0 274.5 109t106.5 282t-106.5 282t-274.5 109q-166 0 -272.5 -109.5
t-106.5 -281.5z" />
    <glyph glyph-name="ydieresis" unicode="&#xff;" horiz-adv-x="1148" 
d="M285 -481q-99 0 -183 37l45 141q59 -23 127 -23q75 0 120.5 36.5t84.5 133.5l43 111l-483 1085h178l387 -874l109 285l223 589h174l-481 -1249q-55 -141 -139 -206.5t-205 -65.5zM297 1319q0 49 30.5 80t78.5 31t79 -31t31 -80t-31.5 -81t-78.5 -32t-78 32t-31 81z
M657 1319q0 49 30.5 80t78.5 31t79.5 -31t31.5 -80t-31.5 -81t-79.5 -32q-47 0 -78 32t-31 81z" />
    <glyph glyph-name="Amacron" unicode="&#x100;" horiz-adv-x="1439" 
d="M43 0l580 1434h200l574 -1434h-176l-136 340h-729l-137 -340h-176zM414 494h614l-307 763zM432 1610v127h580v-127h-580z" />
    <glyph glyph-name="amacron" unicode="&#x101;" horiz-adv-x="1196" 
d="M475 -14q-168 0 -271.5 88.5t-103.5 232.5q0 157 117 251.5t313 94.5q169 0 334 -61v76q0 121 -72 179t-223 58q-160 0 -344 -90l-49 137q113 56 207.5 80.5t196.5 24.5q215 0 329.5 -100.5t114.5 -286.5v-670h-156l-2 166q-60 -84 -164.5 -132t-226.5 -48zM264 315
q0 -87 63.5 -136.5t176.5 -49.5q157 0 259.5 89t102.5 222v15q-180 59 -317 59q-135 0 -210 -52.5t-75 -146.5zM299 1253v123h561v-123h-561z" />
    <glyph glyph-name="Abreve" unicode="&#x102;" horiz-adv-x="1439" 
d="M43 0l580 1434h200l574 -1434h-176l-136 340h-729l-137 -340h-176zM414 494h614l-307 763zM422 1825l133 24q18 -157 168 -157q151 0 166 157l133 -24q-30 -254 -299 -254q-271 0 -301 254z" />
    <glyph glyph-name="abreve" unicode="&#x103;" horiz-adv-x="1196" 
d="M475 -14q-168 0 -271.5 88.5t-103.5 232.5q0 157 117 251.5t313 94.5q169 0 334 -61v76q0 121 -72 179t-223 58q-160 0 -344 -90l-49 137q113 56 207.5 80.5t196.5 24.5q215 0 329.5 -100.5t114.5 -286.5v-670h-156l-2 166q-60 -84 -164.5 -132t-226.5 -48zM264 315
q0 -87 63.5 -136.5t176.5 -49.5q157 0 259.5 89t102.5 222v15q-180 59 -317 59q-135 0 -210 -52.5t-75 -146.5zM279 1499l124 23q10 -103 52.5 -150t124.5 -47t123.5 47t50.5 150l127 -23q-15 -151 -88 -222t-213 -71t-213 71t-88 222z" />
    <glyph glyph-name="Aogonek" unicode="&#x104;" horiz-adv-x="1439" 
d="M43 0l580 1434h200l574 -1434q-154 -100 -154 -215q0 -82 82 -82q49 0 107 41l61 -96q-90 -78 -190 -78q-89 0 -142 50.5t-53 135.5q0 134 131 244h-18l-136 340h-729l-137 -340h-176zM414 494h614l-307 763z" />
    <glyph glyph-name="aogonek" unicode="&#x105;" horiz-adv-x="1196" 
d="M475 -14q-168 0 -271.5 88.5t-103.5 232.5q0 157 117 251.5t313 94.5q169 0 334 -61v76q0 121 -72 179t-223 58q-160 0 -344 -90l-49 137q113 56 207.5 80.5t196.5 24.5q215 0 329.5 -100.5t114.5 -286.5v-670q-154 -105 -154 -217q0 -40 21 -62t61 -22q50 0 107 43
l59 -96q-91 -76 -188 -76q-88 0 -139.5 49.5t-51.5 134.5q0 136 135 246h-6l-2 166q-60 -84 -164.5 -132t-226.5 -48zM264 315q0 -87 63.5 -136.5t176.5 -49.5q157 0 259.5 89t102.5 222v15q-180 59 -317 59q-135 0 -210 -52.5t-75 -146.5z" />
    <glyph glyph-name="Cacute" unicode="&#x106;" horiz-adv-x="1501" 
d="M817 -25q-207 0 -368.5 96t-249.5 265t-88 381q0 211 88 380t248 265t364 96q183 0 334.5 -78.5t261.5 -226.5l-123 -104q-81 117 -206 181t-267 64q-233 0 -380.5 -162.5t-147.5 -414.5q0 -167 66.5 -298.5t188.5 -205.5t279 -74q151 0 281.5 68t218.5 192l123 -102
q-115 -158 -273.5 -240t-349.5 -82zM731 1581l133 260h197l-180 -260h-150z" />
    <glyph glyph-name="cacute" unicode="&#x107;" horiz-adv-x="1134" 
d="M629 -25q-230 0 -379.5 153.5t-149.5 391.5t148.5 391.5t380.5 153.5q131 0 242 -50.5t184 -144.5l-103 -104q-60 69 -143.5 107t-177.5 38q-162 0 -264.5 -109.5t-102.5 -281.5q0 -174 101.5 -282.5t267.5 -108.5q101 0 188 41.5t146 118.5l110 -101
q-68 -100 -187.5 -156.5t-260.5 -56.5zM532 1214l134 302h196l-180 -302h-150z" />
    <glyph glyph-name="Ccircumflex" unicode="&#x108;" horiz-adv-x="1501" 
d="M817 -25q-207 0 -368.5 96t-249.5 265t-88 381q0 211 88 380t248 265t364 96q183 0 334.5 -78.5t261.5 -226.5l-123 -104q-81 117 -206 181t-267 64q-233 0 -380.5 -162.5t-147.5 -414.5q0 -167 66.5 -298.5t188.5 -205.5t279 -74q151 0 281.5 68t218.5 192l123 -102
q-115 -158 -273.5 -240t-349.5 -82zM489 1581l259 260h126l256 -260h-172l-147 154l-147 -154h-175z" />
    <glyph glyph-name="ccircumflex" unicode="&#x109;" horiz-adv-x="1134" 
d="M629 -25q-230 0 -379.5 153.5t-149.5 391.5t148.5 391.5t380.5 153.5q131 0 242 -50.5t184 -144.5l-103 -104q-60 69 -143.5 107t-177.5 38q-162 0 -264.5 -109.5t-102.5 -281.5q0 -174 101.5 -282.5t267.5 -108.5q101 0 188 41.5t146 118.5l110 -101
q-68 -100 -187.5 -156.5t-260.5 -56.5zM303 1214l256 302h127l256 -302h-172l-147 185l-148 -185h-172z" />
    <glyph glyph-name="Cdotaccent" unicode="&#x10a;" horiz-adv-x="1501" 
d="M817 -25q-207 0 -368.5 96t-249.5 265t-88 381q0 211 88 380t248 265t364 96q183 0 334.5 -78.5t261.5 -226.5l-123 -104q-81 117 -206 181t-267 64q-233 0 -380.5 -162.5t-147.5 -414.5q0 -167 66.5 -298.5t188.5 -205.5t279 -74q151 0 281.5 68t218.5 192l123 -102
q-115 -158 -273.5 -240t-349.5 -82zM686 1698q0 57 35 93t90 36t90 -36t35 -93q0 -56 -35 -91.5t-90 -35.5t-90 35.5t-35 91.5z" />
    <glyph glyph-name="cdotaccent" unicode="&#x10b;" horiz-adv-x="1134" 
d="M629 -25q-230 0 -379.5 153.5t-149.5 391.5t148.5 391.5t380.5 153.5q131 0 242 -50.5t184 -144.5l-103 -104q-60 69 -143.5 107t-177.5 38q-162 0 -264.5 -109.5t-102.5 -281.5q0 -174 101.5 -282.5t267.5 -108.5q101 0 188 41.5t146 118.5l110 -101
q-68 -100 -187.5 -156.5t-260.5 -56.5zM500 1323q0 55 34.5 90t88.5 35t88 -35t34 -90t-34 -90t-88 -35t-88.5 35t-34.5 90z" />
    <glyph glyph-name="Ccaron" unicode="&#x10c;" horiz-adv-x="1501" 
d="M817 -25q-207 0 -368.5 96t-249.5 265t-88 381q0 211 88 380t248 265t364 96q183 0 334.5 -78.5t261.5 -226.5l-123 -104q-81 117 -206 181t-267 64q-233 0 -380.5 -162.5t-147.5 -414.5q0 -167 66.5 -298.5t188.5 -205.5t279 -74q151 0 281.5 68t218.5 192l123 -102
q-115 -158 -273.5 -240t-349.5 -82zM489 1841h175l147 -153l147 153h172l-256 -260h-129z" />
    <glyph glyph-name="ccaron" unicode="&#x10d;" horiz-adv-x="1134" 
d="M629 -25q-230 0 -379.5 153.5t-149.5 391.5t148.5 391.5t380.5 153.5q131 0 242 -50.5t184 -144.5l-103 -104q-60 69 -143.5 107t-177.5 38q-162 0 -264.5 -109.5t-102.5 -281.5q0 -174 101.5 -282.5t267.5 -108.5q101 0 188 41.5t146 118.5l110 -101
q-68 -100 -187.5 -156.5t-260.5 -56.5zM303 1516h174l148 -185l147 185h172l-256 -302h-129z" />
    <glyph glyph-name="Dcaron" unicode="&#x10e;" horiz-adv-x="1527" 
d="M205 0v1434h491q330 0 525.5 -194.5t195.5 -522.5t-195.5 -522.5t-525.5 -194.5h-491zM375 162h311q262 0 410.5 147.5t148.5 407.5t-148.5 407.5t-410.5 147.5h-311v-1110zM375 1841h174l147 -153l148 153h172l-256 -260h-129z" />
    <glyph glyph-name="dcaron" unicode="&#x10f;" horiz-adv-x="1433" 
d="M618 -25q-227 0 -372.5 153t-145.5 392t145.5 392t372.5 153q126 0 231 -51.5t173 -143.5v646h164v-1516h-162v172q-68 -93 -173.5 -145t-232.5 -52zM264 520q0 -173 106.5 -282t274.5 -109q167 0 273 109t106 282t-106 282t-273 109q-169 0 -275 -109t-106 -282z
M1305 1094l69 422h174l-114 -422h-129z" />
    <glyph glyph-name="Dcroat" unicode="&#x110;" horiz-adv-x="1576" 
d="M31 662v141h223v631h491q329 0 525 -194.5t196 -522.5t-196 -522.5t-525 -194.5h-491v662h-223zM424 162h311q262 0 410.5 147.5t148.5 407.5t-148.5 407.5t-410.5 147.5h-311v-473h350v-135h-350v-502z" />
    <glyph glyph-name="dcroat" unicode="&#x111;" horiz-adv-x="1439" 
d="M618 -25q-227 0 -372.5 152t-145.5 389t145.5 389t372.5 152q126 0 231 -51.5t173 -143.5v342h-348v123h348v189h164v-189h188v-123h-188v-1204h-162v172q-68 -93 -173.5 -145t-232.5 -52zM264 516q0 -170 107 -278.5t274 -108.5q166 0 272.5 109t106.5 278t-106.5 278
t-272.5 109q-168 0 -274.5 -108t-106.5 -279z" />
    <glyph glyph-name="Emacron" unicode="&#x112;" horiz-adv-x="1224" 
d="M205 0v1434h885v-158h-715v-469h661v-154h-661v-493h741v-160h-911zM377 1610v127h579v-127h-579z" />
    <glyph glyph-name="emacron" unicode="&#x113;" horiz-adv-x="1224" 
d="M635 -25q-238 0 -386.5 151.5t-148.5 393.5q0 238 148 391.5t375 153.5q165 0 291.5 -84t185.5 -227.5t35 -313.5h-873q20 -139 123.5 -227t251.5 -88q208 0 352 154l98 -107q-79 -93 -194 -145t-258 -52zM262 582h721q-15 147 -114 240t-246 93q-146 0 -245 -91.5
t-116 -241.5zM344 1253v123h561v-123h-561z" />
    <glyph glyph-name="Ebreve" unicode="&#x114;" horiz-adv-x="1224" 
d="M205 0v1434h885v-158h-715v-469h661v-154h-661v-493h741v-160h-911zM367 1825l133 24q18 -157 168 -157q151 0 166 157l133 -24q-30 -254 -299 -254q-271 0 -301 254z" />
    <glyph glyph-name="ebreve" unicode="&#x115;" horiz-adv-x="1224" 
d="M635 -25q-238 0 -386.5 151.5t-148.5 393.5q0 238 148 391.5t375 153.5q165 0 291.5 -84t185.5 -227.5t35 -313.5h-873q20 -139 123.5 -227t251.5 -88q208 0 352 154l98 -107q-79 -93 -194 -145t-258 -52zM262 582h721q-15 147 -114 240t-246 93q-146 0 -245 -91.5
t-116 -241.5zM324 1499l125 23q11 -103 52.5 -150t123.5 -47t123.5 47t50.5 150l127 -23q-15 -150 -89 -221.5t-212 -71.5q-140 0 -213 71t-88 222z" />
    <glyph glyph-name="Edotaccent" unicode="&#x116;" horiz-adv-x="1224" 
d="M205 0v1434h885v-158h-715v-469h661v-154h-661v-493h741v-160h-911zM541 1698q0 57 35.5 93t91.5 36q55 0 90 -36t35 -93q0 -56 -35 -91.5t-90 -35.5q-56 0 -91.5 35.5t-35.5 91.5z" />
    <glyph glyph-name="edotaccent" unicode="&#x117;" horiz-adv-x="1224" 
d="M635 -25q-238 0 -386.5 151.5t-148.5 393.5q0 238 148 391.5t375 153.5q165 0 291.5 -84t185.5 -227.5t35 -313.5h-873q20 -139 123.5 -227t251.5 -88q208 0 352 154l98 -107q-79 -93 -194 -145t-258 -52zM262 582h721q-15 147 -114 240t-246 93q-146 0 -245 -91.5
t-116 -241.5zM502 1323q0 55 34.5 90t88.5 35t88.5 -35t34.5 -90t-34.5 -90t-88.5 -35t-88.5 35t-34.5 90z" />
    <glyph glyph-name="Eogonek" unicode="&#x118;" horiz-adv-x="1224" 
d="M205 0v1434h885v-158h-715v-469h661v-154h-661v-493h741v-160q-153 -99 -153 -215q0 -82 81 -82q49 0 107 41l61 -96q-90 -78 -190 -78q-89 0 -142 50.5t-53 135.5q0 134 131 244h-753z" />
    <glyph glyph-name="eogonek" unicode="&#x119;" horiz-adv-x="1241" 
d="M786 -424q-88 0 -141 51.5t-53 134.5q0 111 96 215q-14 -2 -51 -2q-240 0 -389.5 151t-149.5 394q0 238 148 391.5t375 153.5q166 0 292.5 -84.5t185.5 -228t36 -312.5h-875q20 -139 124 -227t251 -88q204 0 352 154l98 -107q-61 -73 -192 -154q-170 -105 -170 -221
q0 -43 23 -67.5t61 -24.5q47 0 104 43l60 -96q-87 -76 -185 -76zM260 582h723q-15 148 -115 240.5t-247 92.5q-146 0 -245 -91.5t-116 -241.5z" />
    <glyph glyph-name="Ecaron" unicode="&#x11a;" horiz-adv-x="1224" 
d="M205 0v1434h885v-158h-715v-469h661v-154h-661v-493h741v-160h-911zM346 1841h174l148 -153l147 153h172l-256 -260h-129z" />
    <glyph glyph-name="ecaron" unicode="&#x11b;" horiz-adv-x="1224" 
d="M635 -25q-238 0 -386.5 151.5t-148.5 393.5q0 238 148 391.5t375 153.5q165 0 291.5 -84t185.5 -227.5t35 -313.5h-873q20 -139 123.5 -227t251.5 -88q208 0 352 154l98 -107q-79 -93 -194 -145t-258 -52zM262 582h721q-15 147 -114 240t-246 93q-146 0 -245 -91.5
t-116 -241.5zM303 1516h174l148 -185l147 185h172l-256 -302h-129z" />
    <glyph glyph-name="Gcircumflex" unicode="&#x11c;" horiz-adv-x="1558" 
d="M838 -25q-218 0 -383.5 94t-254.5 262t-89 386q0 212 89.5 381t252.5 264.5t372 95.5q161 0 303.5 -60t249.5 -173l-110 -115q-78 86 -196 135t-247 49q-160 0 -283.5 -74t-191 -205t-67.5 -298q0 -259 149.5 -418.5t403.5 -159.5q121 0 239 38t203 106v321h-506v160h668
v-555q-112 -113 -271 -173.5t-331 -60.5zM504 1581l258 260h127l256 -260h-172l-148 154l-147 -154h-174z" />
    <glyph glyph-name="gcircumflex" unicode="&#x11d;" horiz-adv-x="1306" 
d="M686 -670q-285 0 -441.5 86t-156.5 242q0 69 30.5 128t88.5 97q-86 62 -86 166q0 135 143 223q-104 119 -104 303q0 207 134 336t351 129h596v-143h-266q153 -119 153 -328q0 -201 -135.5 -328.5t-347.5 -127.5q-159 0 -276 69q-90 -41 -90 -110q0 -46 38 -73.5
t128.5 -44t254.5 -24.5q278 -13 399.5 -79t121.5 -203q0 -151 -140.5 -234.5t-394.5 -83.5zM250 -328q0 -190 428 -190q381 0 381 158q0 70 -82.5 101.5t-284.5 39.5q-217 6 -340 39q-46 -23 -74 -65t-28 -83zM322 575q0 -140 89.5 -227.5t233.5 -87.5t234 88t90 227
q0 140 -90 229t-234 89t-233.5 -89t-89.5 -229zM336 1214l256 302h129l256 -302h-172l-148 183l-147 -183h-174z" />
    <glyph glyph-name="Gbreve" unicode="&#x11e;" horiz-adv-x="1558" 
d="M838 -25q-218 0 -383.5 94t-254.5 262t-89 386q0 212 89.5 381t252.5 264.5t372 95.5q161 0 303.5 -60t249.5 -173l-110 -115q-78 86 -196 135t-247 49q-160 0 -283.5 -74t-191 -205t-67.5 -298q0 -259 149.5 -418.5t403.5 -159.5q121 0 239 38t203 106v321h-506v160h668
v-555q-112 -113 -271 -173.5t-331 -60.5zM524 1825l133 24q18 -157 168 -157q151 0 166 157l133 -24q-30 -254 -299 -254q-271 0 -301 254z" />
    <glyph glyph-name="gbreve" unicode="&#x11f;" horiz-adv-x="1306" 
d="M686 -670q-285 0 -441.5 86t-156.5 242q0 69 30.5 128t88.5 97q-86 62 -86 166q0 135 143 223q-104 119 -104 303q0 207 134 336t351 129h596v-143h-266q153 -119 153 -328q0 -201 -135.5 -328.5t-347.5 -127.5q-159 0 -276 69q-90 -41 -90 -110q0 -46 38 -73.5
t128.5 -44t254.5 -24.5q278 -13 399.5 -79t121.5 -203q0 -151 -140.5 -234.5t-394.5 -83.5zM250 -328q0 -190 428 -190q381 0 381 158q0 70 -82.5 101.5t-284.5 39.5q-217 6 -340 39q-46 -23 -74 -65t-28 -83zM322 575q0 -140 89.5 -227.5t233.5 -87.5t234 88t90 227
q0 140 -90 229t-234 89t-233.5 -89t-89.5 -229zM356 1499l125 23q11 -103 52 -150t124 -47q82 0 123.5 47t50.5 150l127 -23q-15 -150 -89 -221.5t-212 -71.5q-140 0 -213 71t-88 222z" />
    <glyph glyph-name="Gdotaccent" unicode="&#x120;" horiz-adv-x="1558" 
d="M838 -25q-218 0 -383.5 94t-254.5 262t-89 386q0 212 89.5 381t252.5 264.5t372 95.5q161 0 303.5 -60t249.5 -173l-110 -115q-78 86 -196 135t-247 49q-160 0 -283.5 -74t-191 -205t-67.5 -298q0 -259 149.5 -418.5t403.5 -159.5q121 0 239 38t203 106v321h-506v160h668
v-555q-112 -113 -271 -173.5t-331 -60.5zM698 1698q0 57 35.5 93t91.5 36q55 0 90 -36t35 -93q0 -56 -35 -91.5t-90 -35.5t-91 35.5t-36 91.5z" />
    <glyph glyph-name="gdotaccent" unicode="&#x121;" horiz-adv-x="1306" 
d="M686 -670q-285 0 -441.5 86t-156.5 242q0 69 30.5 128t88.5 97q-86 62 -86 166q0 135 143 223q-104 119 -104 303q0 207 134 336t351 129h596v-143h-266q153 -119 153 -328q0 -201 -135.5 -328.5t-347.5 -127.5q-159 0 -276 69q-90 -41 -90 -110q0 -46 38 -73.5
t128.5 -44t254.5 -24.5q278 -13 399.5 -79t121.5 -203q0 -151 -140.5 -234.5t-394.5 -83.5zM250 -328q0 -190 428 -190q381 0 381 158q0 70 -82.5 101.5t-284.5 39.5q-217 6 -340 39q-46 -23 -74 -65t-28 -83zM322 575q0 -140 89.5 -227.5t233.5 -87.5t234 88t90 227
q0 140 -90 229t-234 89t-233.5 -89t-89.5 -229zM535 1323q0 55 34 90t88 35t88.5 -35t34.5 -90t-34.5 -90t-88.5 -35t-88 35t-34 90z" />
    <glyph glyph-name="uni0122" unicode="&#x122;" horiz-adv-x="1558" 
d="M838 -25q-218 0 -383.5 94t-254.5 262t-89 386q0 212 89.5 381t252.5 264.5t372 95.5q161 0 303.5 -60t249.5 -173l-110 -115q-78 86 -196 135t-247 49q-160 0 -283.5 -74t-191 -205t-67.5 -298q0 -259 149.5 -418.5t403.5 -159.5q121 0 239 38t203 106v321h-506v160h668
v-555q-112 -113 -271 -173.5t-331 -60.5zM733 -215q0 48 29 78.5t74 30.5q55 0 85.5 -38.5t30.5 -103.5q0 -141 -131 -266l-57 53q62 72 78 148h-2q-44 0 -75.5 28.5t-31.5 69.5z" />
    <glyph glyph-name="uni0123" unicode="&#x123;" horiz-adv-x="1306" 
d="M686 -670q-285 0 -441.5 86t-156.5 242q0 69 30.5 128t88.5 97q-86 62 -86 166q0 135 143 223q-104 119 -104 303q0 207 134 336t351 129h596v-143h-266q153 -119 153 -328q0 -201 -135.5 -328.5t-347.5 -127.5q-159 0 -276 69q-90 -41 -90 -110q0 -46 38 -73.5
t128.5 -44t254.5 -24.5q278 -13 399.5 -79t121.5 -203q0 -151 -140.5 -234.5t-394.5 -83.5zM250 -328q0 -190 428 -190q381 0 381 158q0 70 -82.5 101.5t-284.5 39.5q-217 6 -340 39q-46 -23 -74 -65t-28 -83zM322 575q0 -140 89.5 -227.5t233.5 -87.5t234 88t90 227
q0 140 -90 229t-234 89t-233.5 -89t-89.5 -229zM543 1315q0 141 131 266l59 -53q-63 -68 -80 -148h2q44 0 75.5 -28.5t31.5 -69.5q0 -47 -28 -77.5t-72 -30.5q-55 0 -87 38t-32 103z" />
    <glyph glyph-name="Hcircumflex" unicode="&#x124;" horiz-adv-x="1550" 
d="M1176 0v651h-801v-651h-170v1434h170v-621h801v621h170v-1434h-170zM455 1581l258 260h127l256 -260h-172l-148 154l-147 -154h-174z" />
    <glyph glyph-name="hcircumflex" unicode="&#x125;" horiz-adv-x="1310" 
d="M186 0v1516h164v-644q136 183 367 183q191 0 306.5 -119t115.5 -315v-621h-164v594q0 146 -74.5 226.5t-210.5 80.5q-156 0 -248 -96t-92 -258v-547h-164zM-51 1663l256 260h127l256 -260h-172l-146 154l-147 -154h-174z" />
    <glyph glyph-name="Hbar" unicode="&#x126;" horiz-adv-x="1574" 
d="M1188 0v653h-801v-653h-168v1069h-168v143h168v222h168v-222h801v222h170v-222h168v-143h-168v-1069h-170zM387 807h801v266h-801v-266z" />
    <glyph glyph-name="hbar" unicode="&#x127;" horiz-adv-x="1325" 
d="M201 0v1204h-191v123h191v189h164v-189h352v-123h-352v-330q134 181 366 181q191 0 306.5 -119t115.5 -315v-621h-164v594q0 147 -74 227t-210 80q-156 0 -248 -96t-92 -258v-547h-164z" />
    <glyph glyph-name="Itilde" unicode="&#x128;" horiz-adv-x="579" 
d="M205 0v1434h170v-1434h-170zM-33 1642q68 158 193 158q48 0 94 -24.5t86 -49t72 -24.5q57 0 106 90l96 -55q-69 -160 -192 -160q-48 0 -94 24.5t-86 49t-72 24.5q-59 0 -107 -88z" />
    <glyph glyph-name="itilde" unicode="&#x129;" horiz-adv-x="536" 
d="M186 0v1040h164v-1040h-164zM-31 1268q65 157 181 157q34 0 67.5 -15.5t56 -33.5t50 -33.5t51.5 -15.5q56 0 92 90l96 -55q-63 -160 -178 -160q-43 0 -84.5 24.5t-77.5 49t-65 24.5q-53 0 -92 -88z" />
    <glyph glyph-name="Imacron" unicode="&#x12a;" horiz-adv-x="579" 
d="M205 0v1434h170v-1434h-170zM25 1610v127h530v-127h-530z" />
    <glyph glyph-name="imacron" unicode="&#x12b;" horiz-adv-x="536" 
d="M186 0v1040h164v-1040h-164zM25 1253v123h487v-123h-487z" />
    <glyph glyph-name="Ibreve" unicode="&#x12c;" horiz-adv-x="579" 
d="M205 0v1434h170v-1434h-170zM-10 1825l133 24q18 -157 168 -157q151 0 166 157l133 -24q-30 -254 -299 -254q-271 0 -301 254z" />
    <glyph glyph-name="ibreve" unicode="&#x12d;" horiz-adv-x="536" 
d="M186 0v1040h164v-1040h-164zM-12 1499l125 23q9 -103 46 -150t109 -47t108.5 47t45.5 150l127 -23q-15 -152 -83 -222.5t-198 -70.5q-131 0 -199 70.5t-81 222.5z" />
    <glyph glyph-name="Iogonek" unicode="&#x12e;" horiz-adv-x="579" 
d="M205 0v1434h170v-1434q-154 -100 -154 -215q0 -82 82 -82q49 0 107 41l61 -96q-93 -78 -190 -78q-89 0 -142 50.5t-53 135.5q0 134 131 244h-12z" />
    <glyph glyph-name="iogonek" unicode="&#x12f;" horiz-adv-x="536" 
d="M186 0v1040h164v-1040q-133 -103 -133 -217q0 -84 80 -84q44 0 102 43l60 -96q-88 -76 -185 -76q-86 0 -137 49.5t-51 134.5q0 138 123 246h-23zM141 1331q0 57 35.5 92t91.5 35t90.5 -35t34.5 -92t-35 -93t-90 -36q-56 0 -91.5 36t-35.5 93z" />
    <glyph glyph-name="Idotaccent" unicode="&#x130;" horiz-adv-x="579" 
d="M205 0v1434h170v-1434h-170zM164 1698q0 57 35.5 93t91.5 36q54 0 89.5 -36t35.5 -93q0 -55 -35.5 -91t-89.5 -36q-55 0 -91 35.5t-36 91.5z" />
    <glyph glyph-name="dotlessi" unicode="&#x131;" horiz-adv-x="536" 
d="M186 0v1040h164v-1040h-164z" />
    <glyph glyph-name="IJ" unicode="&#x132;" horiz-adv-x="1540" 
d="M205 0v1434h170v-1434h-170zM604 47l68 143q117 -53 239 -53q137 0 204 88t67 269v940h170v-957q0 -244 -113.5 -373t-327.5 -129q-141 0 -307 72z" />
    <glyph glyph-name="ij" unicode="&#x133;" horiz-adv-x="1073" 
d="M186 0v1040h164v-1040h-164zM141 1331q0 57 35.5 92t91.5 35t90.5 -35t34.5 -92t-35 -93t-90 -36q-56 0 -91.5 36t-35.5 93zM412 -453l37 146q77 -23 133 -23q76 0 108.5 44.5t32.5 148.5v1177h164v-1202q0 -158 -74.5 -240.5t-214.5 -82.5q-88 0 -186 32zM678 1329
q0 58 34.5 93.5t90.5 35.5t91.5 -35.5t35.5 -93.5q0 -57 -35.5 -92t-91.5 -35t-90.5 35t-34.5 92z" />
    <glyph glyph-name="Jcircumflex" unicode="&#x134;" horiz-adv-x="960" 
d="M332 -25q-141 0 -307 72l67 143q117 -53 240 -53q137 0 203.5 88t66.5 269v940h170v-957q0 -244 -113 -373t-327 -129zM367 1581l258 260h127l256 -260h-172l-148 154l-147 -154h-174z" />
    <glyph glyph-name="jcircumflex" unicode="&#x135;" horiz-adv-x="536" 
d="M61 -485q-88 0 -186 32l37 146q77 -23 133 -23q76 0 108.5 44.5t32.5 148.5v1177h164v-1202q0 -158 -74.5 -240.5t-214.5 -82.5zM-14 1214l219 302h127l219 -302h-166l-115 177l-116 -177h-168z" />
    <glyph glyph-name="uni0136" unicode="&#x136;" horiz-adv-x="1316" 
d="M1077 0l-510 645h-192v-645h-170v1434h170v-631h186l498 631h211l-557 -705l577 -729h-213zM575 -215q0 47 28.5 78t72.5 31q55 0 87 -38.5t32 -103.5q0 -141 -131 -266l-60 53q63 71 80 148h-2q-44 0 -75.5 28.5t-31.5 69.5z" />
    <glyph glyph-name="uni0137" unicode="&#x137;" horiz-adv-x="1105" 
d="M881 0l-375 463h-156v-463h-164v1516h164v-902h164l344 426h199l-412 -503l436 -537h-200zM477 -215q0 48 29 78.5t74 30.5q55 0 85.5 -38.5t30.5 -103.5q0 -141 -131 -266l-57 53q62 72 78 148h-2q-44 0 -75.5 28.5t-31.5 69.5z" />
    <glyph glyph-name="kgreenlandic" unicode="&#x138;" horiz-adv-x="1105" 
d="M881 0l-375 463h-156v-463h-164v1040h164v-426h164l344 426h199l-412 -503l436 -537h-200z" />
    <glyph glyph-name="Lacute" unicode="&#x139;" horiz-adv-x="1150" 
d="M211 1581l133 260h197l-181 -260h-149zM205 0v1434h170v-1272h694v-162h-864z" />
    <glyph glyph-name="lacute" unicode="&#x13a;" horiz-adv-x="536" 
d="M186 0v1516h164v-1516h-164zM188 1663l134 260h196l-180 -260h-150z" />
    <glyph glyph-name="uni013B" unicode="&#x13b;" horiz-adv-x="1150" 
d="M575 -461q62 72 78 148q-45 0 -75.5 28.5t-30.5 69.5q0 47 28 78t72 31q55 0 87 -38.5t32 -103.5q0 -138 -131 -266zM205 0v1434h170v-1272h694v-162h-864z" />
    <glyph glyph-name="uni013C" unicode="&#x13c;" horiz-adv-x="536" 
d="M186 0v1516h164v-1516h-164zM160 -215q0 47 28 78t72 31q55 0 87 -38.5t32 -103.5q0 -138 -131 -266l-60 53q62 72 78 148q-45 0 -75.5 28.5t-30.5 69.5z" />
    <glyph glyph-name="Lcaron" unicode="&#x13d;" horiz-adv-x="1150" 
d="M786 1012l66 422h180l-108 -422h-138zM205 0v1434h170v-1272h694v-162h-864z" />
    <glyph glyph-name="lcaron" unicode="&#x13e;" horiz-adv-x="598" 
d="M186 0v1516h164v-1516h-164zM469 1094l70 422h174l-115 -422h-129z" />
    <glyph glyph-name="Ldot" unicode="&#x13f;" horiz-adv-x="1150" 
d="M809 668q-51 0 -86 32.5t-35 83.5t35 84t86 33q50 0 84.5 -32.5t34.5 -84.5t-34 -84t-85 -32zM205 0v1434h170v-1272h694v-162h-864z" />
    <glyph glyph-name="ldot" unicode="&#x140;" horiz-adv-x="841" 
d="M186 0v1516h164v-1516h-164zM508 653q0 51 35 84t86 33q50 0 84.5 -32.5t34.5 -84.5t-34 -84t-85 -32t-86 32.5t-35 83.5z" />
    <glyph glyph-name="Lslash" unicode="&#x141;" horiz-adv-x="1179" 
d="M18 487v156l215 94v697h170v-623l451 195v-156l-451 -195v-493h695v-162h-865v582z" />
    <glyph glyph-name="lslash" unicode="&#x142;" horiz-adv-x="587" 
d="M213 0v639l-209 -102v153l209 103v723h164v-642l209 103v-154l-209 -102v-721h-164z" />
    <glyph glyph-name="Nacute" unicode="&#x143;" horiz-adv-x="1579" 
d="M205 0v1434h151l850 -1137v1137h168v-1434h-153l-848 1137v-1137h-168zM717 1581l133 260h197l-181 -260h-149z" />
    <glyph glyph-name="nacute" unicode="&#x144;" horiz-adv-x="1310" 
d="M186 0v1040h162v-172q135 187 369 187q191 0 306.5 -120t115.5 -317v-618h-164v592q0 148 -74.5 228.5t-210.5 80.5q-157 0 -248.5 -97t-91.5 -261v-543h-164zM582 1214l135 302h194l-178 -302h-151z" />
    <glyph glyph-name="uni0145" unicode="&#x145;" horiz-adv-x="1579" 
d="M205 0v1434h151l850 -1137v1137h168v-1434h-153l-848 1137v-1137h-168zM682 -215q0 47 29 78t73 31q55 0 86 -38.5t31 -103.5q0 -140 -129 -266l-59 53q62 72 78 148q-46 0 -77.5 28.5t-31.5 69.5z" />
    <glyph glyph-name="uni0146" unicode="&#x146;" horiz-adv-x="1310" 
d="M186 0v1040h162v-172q135 187 369 187q191 0 306.5 -120t115.5 -317v-618h-164v592q0 148 -74.5 228.5t-210.5 80.5q-157 0 -248.5 -97t-91.5 -261v-543h-164zM555 -215q0 48 28.5 78.5t73.5 30.5q55 0 86 -38.5t31 -103.5q0 -141 -131 -266l-57 53q62 72 78 148h-2
q-44 0 -75.5 28.5t-31.5 69.5z" />
    <glyph glyph-name="Ncaron" unicode="&#x147;" horiz-adv-x="1579" 
d="M205 0v1434h151l850 -1137v1137h168v-1434h-153l-848 1137v-1137h-168zM477 1841h174l148 -153l147 153h172l-256 -260h-129z" />
    <glyph glyph-name="ncaron" unicode="&#x148;" horiz-adv-x="1310" 
d="M186 0v1040h162v-172q135 187 369 187q191 0 306.5 -120t115.5 -317v-618h-164v592q0 148 -74.5 228.5t-210.5 80.5q-157 0 -248.5 -97t-91.5 -261v-543h-164zM352 1516h174l148 -185l147 185h172l-256 -302h-129z" />
    <glyph glyph-name="napostrophe" unicode="&#x149;" horiz-adv-x="1468" 
d="M346 2v1040h162v-172q135 187 369 187q191 0 306 -119.5t115 -316.5v-619h-163v592q0 148 -74.5 228.5t-210.5 80.5q-157 0 -248.5 -97t-91.5 -261v-543h-164zM14 1393q0 53 31 85.5t80 32.5q61 0 96 -42t35 -113q0 -157 -145 -293l-62 59q68 79 84 162h-2
q-49 0 -83 31.5t-34 77.5z" />
    <glyph glyph-name="Eng" unicode="&#x14a;" horiz-adv-x="1579" 
d="M205 0v1434h151l850 -1143v1143h168v-1596q0 -158 -74.5 -240.5t-214.5 -82.5q-92 0 -186 32l39 146q71 -23 131 -23q76 0 108.5 45t32.5 148v151l-837 1125v-1139h-168z" />
    <glyph glyph-name="eng" unicode="&#x14b;" horiz-adv-x="1310" 
d="M852 -485q-88 0 -186 32l36 144q74 -23 132 -23q77 0 109 43.5t32 147.5v733q0 148 -74.5 228.5t-210.5 80.5q-157 0 -248.5 -97t-91.5 -261v-543h-164v1040h162v-172q137 187 369 187q191 0 306.5 -120t115.5 -317v-780q0 -158 -73.5 -240.5t-213.5 -82.5z" />
    <glyph glyph-name="Omacron" unicode="&#x14c;" horiz-adv-x="1679" 
d="M840 -25q-210 0 -376.5 94.5t-259.5 264t-93 383.5t93.5 383.5t259.5 263.5t376 94q209 0 375.5 -94.5t260 -264t93.5 -382.5t-93.5 -382.5t-260 -264.5t-375.5 -95zM283 717q0 -254 155.5 -416t401.5 -162t401.5 162t155.5 416t-155.5 415.5t-401.5 161.5
q-245 0 -401 -162t-156 -415zM551 1610v127h577v-127h-577z" />
    <glyph glyph-name="omacron" unicode="&#x14d;" horiz-adv-x="1292" 
d="M645 -25q-239 0 -392 153t-153 392t153 392t392 153t393 -153t154 -392t-154 -392t-393 -153zM264 520q0 -173 106.5 -282t274.5 -109q169 0 276 109t107 282t-107 282t-276 109q-168 0 -274.5 -109t-106.5 -282zM365 1253v123h563v-123h-563z" />
    <glyph glyph-name="Obreve" unicode="&#x14e;" horiz-adv-x="1679" 
d="M840 -25q-210 0 -376.5 94.5t-259.5 264t-93 383.5t93.5 383.5t259.5 263.5t376 94q209 0 375.5 -94.5t260 -264t93.5 -382.5t-93.5 -382.5t-260 -264.5t-375.5 -95zM283 717q0 -254 155.5 -416t401.5 -162t401.5 162t155.5 416t-155.5 415.5t-401.5 161.5
q-245 0 -401 -162t-156 -415zM539 1825l133 24q18 -157 168 -157t168 157l133 -24q-17 -128 -91 -191t-210 -63t-210 63t-91 191z" />
    <glyph glyph-name="obreve" unicode="&#x14f;" horiz-adv-x="1292" 
d="M645 -25q-239 0 -392 153t-153 392t153 392t392 153t393 -153t154 -392t-154 -392t-393 -153zM264 520q0 -173 106.5 -282t274.5 -109q169 0 276 109t107 282t-107 282t-276 109q-168 0 -274.5 -109t-106.5 -282zM344 1499l127 23q9 -103 50.5 -150t123.5 -47
q83 0 124 47t52 150l125 -23q-15 -151 -88 -222t-213 -71q-138 0 -212 71.5t-89 221.5z" />
    <glyph glyph-name="Ohungarumlaut" unicode="&#x150;" horiz-adv-x="1679" 
d="M840 -25q-210 0 -376.5 94.5t-259.5 264t-93 383.5t93.5 383.5t259.5 263.5t376 94q209 0 375.5 -94.5t260 -264t93.5 -382.5t-93.5 -382.5t-260 -264.5t-375.5 -95zM283 717q0 -254 155.5 -416t401.5 -162t401.5 162t155.5 416t-155.5 415.5t-401.5 161.5
q-245 0 -401 -162t-156 -415zM602 1581l123 260h178l-164 -260h-137zM893 1581l143 260h181l-181 -260h-143z" />
    <glyph glyph-name="ohungarumlaut" unicode="&#x151;" horiz-adv-x="1292" 
d="M645 -25q-239 0 -392 153t-153 392t153 392t392 153t393 -153t154 -392t-154 -392t-393 -153zM264 520q0 -173 106.5 -282t274.5 -109q169 0 276 109t107 282t-107 282t-276 109q-168 0 -274.5 -109t-106.5 -282zM410 1214l122 302h179l-164 -302h-137zM700 1214l146 302
h178l-180 -302h-144z" />
    <glyph glyph-name="OE" unicode="&#x152;" horiz-adv-x="2041" 
d="M874 -25q-352 0 -557.5 200.5t-205.5 541.5t204.5 541t552.5 200q121 0 238 -26v2h803v-158h-637v-467h590v-154h-590v-495h663v-160h-829v2q-122 -27 -232 -27zM283 717q0 -277 161 -430.5t451 -153.5q105 0 211 23v1120q-93 22 -211 22q-291 0 -451.5 -152.5
t-160.5 -428.5z" />
    <glyph glyph-name="oe" unicode="&#x153;" horiz-adv-x="2082" 
d="M621 -25q-228 0 -374.5 153t-146.5 392t146.5 392t374.5 153q150 0 267.5 -68t182.5 -190q65 121 179 189.5t255 68.5q158 0 279 -84.5t177.5 -228t33.5 -312.5h-846q20 -142 118.5 -228.5t241.5 -86.5q200 0 338 154l99 -107q-72 -93 -182.5 -145t-245.5 -52
q-151 0 -267 67.5t-180 188.5q-67 -120 -184 -188t-266 -68zM264 520q0 -173 103 -282t266 -109q161 0 263.5 109t102.5 282t-102.5 282t-263.5 109q-163 0 -266 -109t-103 -282zM1149 582h692q-15 147 -109 240t-237 93q-139 0 -234 -91.5t-112 -241.5z" />
    <glyph glyph-name="Racute" unicode="&#x154;" horiz-adv-x="1368" 
d="M205 0v1434h563q213 0 346 -127t133 -324q0 -158 -88.5 -274.5t-240.5 -157.5l366 -551h-192l-349 532h-368v-532h-170zM373 686h389q148 0 231.5 79t83.5 216q0 136 -83.5 214.5t-231.5 78.5h-389v-588zM586 1581l133 260h196l-180 -260h-149z" />
    <glyph glyph-name="racute" unicode="&#x155;" horiz-adv-x="854" 
d="M186 0v1040h162v-176q118 191 332 191q83 0 160 -29l-43 -162q-76 25 -150 25q-148 0 -222.5 -108.5t-74.5 -297.5v-483h-164zM418 1214l135 302h195l-181 -302h-149z" />
    <glyph glyph-name="uni0156" unicode="&#x156;" horiz-adv-x="1368" 
d="M205 0v1434h563q213 0 346 -127t133 -324q0 -158 -88.5 -274.5t-240.5 -157.5l366 -551h-192l-349 532h-368v-532h-170zM373 686h389q148 0 231.5 79t83.5 216q0 136 -83.5 214.5t-231.5 78.5h-389v-588zM604 -215q0 47 28.5 78t72.5 31q55 0 86.5 -38.5t31.5 -103.5
q0 -138 -131 -266l-59 53q64 72 78 148q-46 0 -76.5 28.5t-30.5 69.5z" />
    <glyph glyph-name="uni0157" unicode="&#x157;" horiz-adv-x="854" 
d="M186 0v1040h162v-176q118 191 332 191q83 0 160 -29l-43 -162q-76 25 -150 25q-148 0 -222.5 -108.5t-74.5 -297.5v-483h-164zM160 -215q0 47 28 78t72 31q55 0 87 -38.5t32 -103.5q0 -138 -131 -266l-60 53q62 72 78 148q-45 0 -75.5 28.5t-30.5 69.5z" />
    <glyph glyph-name="Rcaron" unicode="&#x158;" horiz-adv-x="1368" 
d="M205 0v1434h563q213 0 346 -127t133 -324q0 -158 -88.5 -274.5t-240.5 -157.5l366 -551h-192l-349 532h-368v-532h-170zM344 1841h174l148 -153l147 153h172l-256 -260h-129zM373 686h389q148 0 231.5 79t83.5 216q0 136 -83.5 214.5t-231.5 78.5h-389v-588z" />
    <glyph glyph-name="rcaron" unicode="&#x159;" horiz-adv-x="854" 
d="M186 0v1040h162v-176q118 191 332 191q83 0 160 -29l-43 -162q-76 25 -150 25q-148 0 -222.5 -108.5t-74.5 -297.5v-483h-164zM188 1516h174l148 -185l147 185h172l-256 -302h-129z" />
    <glyph glyph-name="Sacute" unicode="&#x15a;" horiz-adv-x="1224" 
d="M623 -14q-312 0 -535 198l90 133q101 -88 209.5 -129t239.5 -41q159 0 251.5 61t92.5 165q0 94 -90 162.5t-293 126.5q-236 69 -343.5 168.5t-107.5 248.5q0 164 131 266.5t342 102.5q136 0 265 -51.5t233 -147.5l-94 -129q-82 79 -188.5 122.5t-219.5 43.5
q-135 0 -216 -54.5t-81 -144.5q0 -92 80.5 -154t288.5 -126q241 -72 354 -175.5t113 -254.5q0 -172 -146 -281.5t-376 -109.5zM532 1581l134 260h196l-180 -260h-150z" />
    <glyph glyph-name="sacute" unicode="&#x15b;" horiz-adv-x="983" 
d="M506 -16q-243 0 -426 149l74 129q173 -125 352 -125q112 0 175.5 39t63.5 105q0 61 -59.5 103t-196.5 75q-193 49 -280.5 124.5t-87.5 192.5q0 129 98 205t268 76q233 0 404 -148l-80 -123q-63 56 -149.5 87.5t-176.5 31.5q-97 0 -149.5 -33.5t-52.5 -95.5t55.5 -99.5
t200.5 -74.5q191 -47 280.5 -124t89.5 -193q0 -137 -110 -219t-293 -82zM408 1214l133 302h196l-180 -302h-149z" />
    <glyph glyph-name="Scircumflex" unicode="&#x15c;" horiz-adv-x="1224" 
d="M623 -14q-312 0 -535 198l90 133q101 -88 209.5 -129t239.5 -41q159 0 251.5 61t92.5 165q0 94 -90 162.5t-293 126.5q-236 69 -343.5 168.5t-107.5 248.5q0 164 131 266.5t342 102.5q136 0 265 -51.5t233 -147.5l-94 -129q-82 79 -188.5 122.5t-219.5 43.5
q-135 0 -216 -54.5t-81 -144.5q0 -92 80.5 -154t288.5 -126q241 -72 354 -175.5t113 -254.5q0 -172 -146 -281.5t-376 -109.5zM293 1581l256 260h127l256 -260h-172l-148 154l-147 -154h-172z" />
    <glyph glyph-name="scircumflex" unicode="&#x15d;" horiz-adv-x="983" 
d="M506 -16q-243 0 -426 149l74 129q173 -125 352 -125q112 0 175.5 39t63.5 105q0 61 -59.5 103t-196.5 75q-193 49 -280.5 124.5t-87.5 192.5q0 129 98 205t268 76q233 0 404 -148l-80 -123q-63 56 -149.5 87.5t-176.5 31.5q-97 0 -149.5 -33.5t-52.5 -95.5t55.5 -99.5
t200.5 -74.5q191 -47 280.5 -124t89.5 -193q0 -137 -110 -219t-293 -82zM176 1214l256 302h129l256 -302h-172l-147 185l-148 -185h-174z" />
    <glyph glyph-name="Scedilla" unicode="&#x15e;" horiz-adv-x="1224" 
d="M627 -496q-129 0 -230 78l60 92q68 -53 161 -53q61 0 96.5 24t35.5 68q0 41 -29 62t-72.5 21t-95.5 -9l-33 31l39 170q-268 18 -471 196l90 133q101 -88 209.5 -129t239.5 -41q159 0 251.5 61t92.5 165q0 94 -90 162.5t-293 126.5q-236 69 -343.5 168.5t-107.5 248.5
q0 164 131 266.5t342 102.5q136 0 265 -51.5t233 -147.5l-94 -129q-82 79 -188.5 122.5t-219.5 43.5q-135 0 -216 -54.5t-81 -144.5q0 -92 80.5 -154t288.5 -126q241 -72 354 -175.5t113 -254.5q0 -161 -130 -269t-339 -120l-23 -94q102 8 167 -43t65 -142q0 -93 -72.5 -149
t-185.5 -56z" />
    <glyph glyph-name="scedilla" unicode="&#x15f;" horiz-adv-x="983" 
d="M516 -496q-129 0 -225 78l57 90q68 -55 160 -55q61 0 95 25t34 69q0 42 -29 63.5t-72 21.5t-94 -9l-30 31l39 168q-207 15 -371 147l74 129q173 -125 352 -125q112 0 175.5 39t63.5 105q0 61 -59.5 103t-196.5 75q-193 49 -280.5 124.5t-87.5 192.5q0 129 98 205t268 76
q233 0 404 -148l-80 -123q-63 56 -149.5 87.5t-176.5 31.5q-97 0 -149.5 -33.5t-52.5 -95.5t55.5 -99.5t200.5 -74.5q191 -47 280.5 -124t89.5 -193q0 -125 -93.5 -205t-252.5 -94l-20 -95q100 9 162.5 -40.5t62.5 -141.5q0 -94 -70.5 -149.5t-181.5 -55.5z" />
    <glyph glyph-name="Scaron" unicode="&#x160;" horiz-adv-x="1224" 
d="M623 -14q-312 0 -535 198l90 133q101 -88 209.5 -129t239.5 -41q159 0 251.5 61t92.5 165q0 94 -90 162.5t-293 126.5q-236 69 -343.5 168.5t-107.5 248.5q0 164 131 266.5t342 102.5q136 0 265 -51.5t233 -147.5l-94 -129q-82 79 -188.5 122.5t-219.5 43.5
q-135 0 -216 -54.5t-81 -144.5q0 -92 80.5 -154t288.5 -126q241 -72 354 -175.5t113 -254.5q0 -172 -146 -281.5t-376 -109.5zM293 1841h174l147 -153l148 153h172l-256 -260h-129z" />
    <glyph glyph-name="scaron" unicode="&#x161;" horiz-adv-x="983" 
d="M506 -16q-243 0 -426 149l74 129q173 -125 352 -125q112 0 175.5 39t63.5 105q0 61 -59.5 103t-196.5 75q-193 49 -280.5 124.5t-87.5 192.5q0 129 98 205t268 76q233 0 404 -148l-80 -123q-63 56 -149.5 87.5t-176.5 31.5q-97 0 -149.5 -33.5t-52.5 -95.5t55.5 -99.5
t200.5 -74.5q191 -47 280.5 -124t89.5 -193q0 -137 -110 -219t-293 -82zM176 1516h174l148 -185l147 185h172l-256 -302h-129z" />
    <glyph glyph-name="uni0162" unicode="&#x162;" horiz-adv-x="1212" 
d="M522 0v1272h-465v162h1098v-162h-465v-1272h-24l-23 -106q101 8 165 -43t64 -142q0 -94 -72 -149.5t-184 -55.5q-128 0 -229 78l57 92q71 -53 164 -53q61 0 96 24t35 68q0 41 -29 62t-73 21t-96 -9l-33 31l41 182h-27z" />
    <glyph glyph-name="uni0163" unicode="&#x163;" horiz-adv-x="837" 
d="M57 897v143h203v248h164v-248h324v-143h-324v-569q0 -189 164 -189q67 0 157 41l54 -141q-95 -45 -187 -51l-22 -97q101 9 164 -41t63 -141q0 -94 -71.5 -149.5t-182.5 -55.5q-129 0 -225 78l59 90q68 -55 158 -55q61 0 95 25t34 69q0 42 -28 63.5t-70.5 21.5t-93.5 -9
l-33 31l41 174q-115 22 -177.5 108t-62.5 222v575h-203z" />
    <glyph glyph-name="Tcaron" unicode="&#x164;" horiz-adv-x="1212" 
d="M522 0v1272h-465v162h1098v-162h-465v-1272h-168zM287 1841h174l147 -153l148 153h172l-256 -260h-129z" />
    <glyph glyph-name="tcaron" unicode="&#x165;" horiz-adv-x="837" 
d="M571 -14q-147 0 -229 90t-82 246v575h-203v143h203v248h164v-248h324v-143h-324v-569q0 -189 164 -189q67 0 157 41l54 -141q-111 -53 -228 -53zM645 1174l70 342h166l-105 -342h-131z" />
    <glyph glyph-name="Tbar" unicode="&#x166;" horiz-adv-x="1212" 
d="M217 664v141h305v467h-465v162h1098v-162h-465v-467h305v-141h-305v-664h-168v664h-305z" />
    <glyph glyph-name="tbar" unicode="&#x167;" horiz-adv-x="837" 
d="M571 -14q-145 0 -228 89t-83 247v165h-190v131h190v279h-203v143h203v248h164v-248h324v-143h-324v-279h303v-131h-303v-161q0 -94 42.5 -141.5t121.5 -47.5q73 0 160 37l51 -135q-109 -53 -228 -53z" />
    <glyph glyph-name="Utilde" unicode="&#x168;" horiz-adv-x="1509" 
d="M756 -25q-255 0 -411.5 157t-156.5 421v881h168v-871q0 -203 105.5 -313.5t294.5 -110.5q187 0 292 110.5t105 313.5v871h170v-881q0 -263 -156.5 -420.5t-410.5 -157.5zM432 1642q68 158 193 158q48 0 94 -24.5t86 -49t72 -24.5q58 0 104 90l96 -55q-66 -160 -190 -160
q-48 0 -94 24.5t-86 49t-72 24.5q-59 0 -107 -88z" />
    <glyph glyph-name="utilde" unicode="&#x169;" horiz-adv-x="1310" 
d="M1124 1040v-1040h-161v174q-135 -188 -371 -188q-191 0 -306.5 120t-115.5 318v616h164v-589q0 -149 75 -230.5t212 -81.5q156 0 248 97t92 262v542h163zM332 1280q68 158 188 158q31 0 61 -12t85 -44q42 -26 61 -34.5t39 -8.5q29 0 53 21.5t49 69.5l97 -56
q-68 -160 -189 -160q-31 0 -60.5 12.5t-84.5 45.5q-68 41 -101 41q-31 0 -55 -21t-47 -67z" />
    <glyph glyph-name="Umacron" unicode="&#x16a;" horiz-adv-x="1509" 
d="M756 -25q-255 0 -411.5 157t-156.5 421v881h168v-871q0 -203 105.5 -313.5t294.5 -110.5q187 0 292 110.5t105 313.5v871h170v-881q0 -263 -156.5 -420.5t-410.5 -157.5zM465 1610v127h579v-127h-579z" />
    <glyph glyph-name="umacron" unicode="&#x16b;" horiz-adv-x="1310" 
d="M1124 1040v-1040h-161v174q-135 -188 -371 -188q-191 0 -306.5 120t-115.5 318v616h164v-589q0 -149 75 -230.5t212 -81.5q156 0 248 97t92 262v542h163zM369 1253v123h561v-123h-561z" />
    <glyph glyph-name="Ubreve" unicode="&#x16c;" horiz-adv-x="1509" 
d="M756 -25q-255 0 -411.5 157t-156.5 421v881h168v-871q0 -203 105.5 -313.5t294.5 -110.5q187 0 292 110.5t105 313.5v871h170v-881q0 -263 -156.5 -420.5t-410.5 -157.5zM455 1825l133 24q18 -157 168 -157q148 0 166 157l133 -24q-30 -254 -299 -254q-271 0 -301 254z
" />
    <glyph glyph-name="ubreve" unicode="&#x16d;" horiz-adv-x="1310" 
d="M1124 1040v-1040h-161v174q-135 -188 -371 -188q-191 0 -306.5 120t-115.5 318v616h164v-589q0 -149 75 -230.5t212 -81.5q156 0 248 97t92 262v542h163zM348 1499l125 23q11 -103 52 -150t124 -47q82 0 123.5 47t50.5 150l127 -23q-15 -150 -89 -221.5t-212 -71.5
q-140 0 -213 71t-88 222z" />
    <glyph glyph-name="Uring" unicode="&#x16e;" horiz-adv-x="1509" 
d="M756 -25q-255 0 -411.5 157t-156.5 421v881h168v-871q0 -203 105.5 -313.5t294.5 -110.5q187 0 292 110.5t105 313.5v871h170v-881q0 -263 -156.5 -420.5t-410.5 -157.5zM512 1755q0 100 70.5 168t173.5 68q102 0 172.5 -68.5t70.5 -167.5q0 -98 -70.5 -165.5
t-172.5 -67.5q-103 0 -173.5 67.5t-70.5 165.5zM633 1755q0 -53 34.5 -88t88.5 -35q52 0 87.5 35t35.5 88q0 54 -35 89.5t-88 35.5q-54 0 -88.5 -35.5t-34.5 -89.5z" />
    <glyph glyph-name="uring" unicode="&#x16f;" horiz-adv-x="1310" 
d="M1124 1040v-1040h-161v174q-135 -188 -371 -188q-191 0 -306.5 120t-115.5 318v616h164v-589q0 -149 75 -230.5t212 -81.5q156 0 248 97t92 262v542h163zM406 1401q0 100 70 167.5t173 67.5q102 0 173 -68t71 -167q0 -98 -71 -166t-173 -68q-103 0 -173 68t-70 166z
M526 1401q0 -53 34 -88t89 -35q54 0 88.5 35t34.5 88t-35 89t-88 36q-55 0 -89 -36t-34 -89z" />
    <glyph glyph-name="Uhungarumlaut" unicode="&#x170;" horiz-adv-x="1509" 
d="M756 -25q-255 0 -411.5 157t-156.5 421v881h168v-871q0 -203 105.5 -313.5t294.5 -110.5q187 0 292 110.5t105 313.5v871h170v-881q0 -263 -156.5 -420.5t-410.5 -157.5zM516 1581l123 260h180l-164 -260h-139zM807 1581l145 260h181l-181 -260h-145z" />
    <glyph glyph-name="uhungarumlaut" unicode="&#x171;" horiz-adv-x="1310" 
d="M1124 1040v-1040h-161v174q-135 -188 -371 -188q-191 0 -306.5 120t-115.5 318v616h164v-589q0 -149 75 -230.5t212 -81.5q156 0 248 97t92 262v542h163zM412 1214l123 302h178l-162 -302h-139zM702 1214l146 302h178l-178 -302h-146z" />
    <glyph glyph-name="Uogonek" unicode="&#x172;" horiz-adv-x="1509" 
d="M856 -430q-87 0 -138.5 50t-51.5 134q0 122 102 221h-12q-255 0 -411.5 157t-156.5 421v881h168v-871q0 -203 105.5 -313.5t294.5 -110.5q192 0 294.5 111.5t102.5 312.5v871h170v-881q0 -186 -86.5 -320t-235.5 -206q-101 -47 -151.5 -111.5t-50.5 -132.5q0 -84 80 -84
q45 0 106 43l59 -96q-91 -76 -188 -76z" />
    <glyph glyph-name="uogonek" unicode="&#x173;" horiz-adv-x="1310" 
d="M1124 1040v-1040q-153 -102 -153 -217q0 -84 82 -84q47 0 104 43l60 -96q-88 -76 -189 -76q-87 0 -138.5 50t-51.5 134q0 136 137 246h-12v174q-135 -188 -371 -188q-191 0 -306.5 120t-115.5 318v616h164v-589q0 -149 75 -230.5t212 -81.5q156 0 248 97t92 262v542h163z
" />
    <glyph glyph-name="Wcircumflex" unicode="&#x174;" horiz-adv-x="2154" 
d="M506 0l-453 1434h178l172 -564l205 -661l385 1153h172l387 -1153l203 661l170 564h176l-446 -1434h-201l-375 1106l-178 -537l-194 -569h-201zM760 1581l256 260h127l258 -260h-174l-146 154l-147 -154h-174z" />
    <glyph glyph-name="wcircumflex" unicode="&#x175;" horiz-adv-x="1753" 
d="M410 0l-361 1040h174l121 -360l162 -473l293 788h155l293 -788l162 473l123 360h172l-363 -1040h-184l-280 764l-162 -440l-121 -324h-184zM557 1214l256 302h127l258 -302h-174l-145 185l-148 -185h-174z" />
    <glyph glyph-name="Ycircumflex" unicode="&#x176;" horiz-adv-x="1341" 
d="M588 0v549l-547 885h197l225 -367l209 -336l209 336l225 367h194l-544 -883v-551h-168zM352 1581l256 260h129l256 -260h-172l-147 154l-148 -154h-174z" />
    <glyph glyph-name="ycircumflex" unicode="&#x177;" horiz-adv-x="1148" 
d="M285 -481q-99 0 -183 37l45 141q59 -23 127 -23q75 0 120.5 36.5t84.5 133.5l43 111l-483 1085h178l387 -874l109 285l223 589h174l-481 -1249q-55 -141 -139 -206.5t-205 -65.5zM266 1214l256 302h129l256 -302h-172l-147 185l-148 -185h-174z" />
    <glyph glyph-name="Ydieresis" unicode="&#x178;" horiz-adv-x="1341" 
d="M588 0v549l-547 885h197l225 -367l209 -336l209 336l225 367h194l-544 -883v-551h-168zM379 1686q0 51 31 82.5t79 31.5q50 0 80.5 -31.5t30.5 -82.5q0 -50 -31 -82.5t-80 -32.5q-47 0 -78.5 33t-31.5 82zM745 1686q0 50 31.5 82t79.5 32q50 0 80.5 -31.5t30.5 -82.5
q0 -50 -31 -82.5t-80 -32.5q-47 0 -79 33t-32 82z" />
    <glyph glyph-name="Zacute" unicode="&#x179;" horiz-adv-x="1214" 
d="M535 1581l133 260h196l-180 -260h-149zM106 0v137l773 1137h-750v160h967v-136l-772 -1136h800v-162h-1018z" />
    <glyph glyph-name="zacute" unicode="&#x17a;" horiz-adv-x="1001" 
d="M412 1214l133 302h196l-180 -302h-149zM96 0v119l596 778h-573v143h782v-116l-596 -781h619v-143h-828z" />
    <glyph glyph-name="Zdotaccent" unicode="&#x17b;" horiz-adv-x="1214" 
d="M614 1571q-56 0 -91.5 35.5t-35.5 91.5q0 57 35.5 93t91.5 36q55 0 90 -36t35 -93q0 -56 -35 -91.5t-90 -35.5zM106 0v137l773 1137h-750v160h967v-136l-772 -1136h800v-162h-1018z" />
    <glyph glyph-name="zdotaccent" unicode="&#x17c;" horiz-adv-x="1001" 
d="M502 1198q-54 0 -88.5 35t-34.5 90t34.5 90t88.5 35t88.5 -35t34.5 -90t-34.5 -90t-88.5 -35zM96 0v119l596 778h-573v143h782v-116l-596 -781h619v-143h-828z" />
    <glyph glyph-name="Zcaron" unicode="&#x17d;" horiz-adv-x="1214" 
d="M293 1841h174l147 -153l148 153h172l-256 -260h-129zM106 0v137l773 1137h-750v160h967v-136l-772 -1136h800v-162h-1018z" />
    <glyph glyph-name="zcaron" unicode="&#x17e;" horiz-adv-x="1001" 
d="M180 1516h174l148 -185l147 185h172l-256 -302h-129zM96 0v119l596 778h-573v143h782v-116l-596 -781h619v-143h-828z" />
    <glyph glyph-name="longs" unicode="&#x17f;" horiz-adv-x="819" 
d="M301 1192q0 163 76.5 248.5t218.5 85.5q109 0 221 -53l-55 -132q-78 35 -148 35q-72 0 -110.5 -47t-38.5 -141v-1188h-164v893h-227v147h227v152z" />
    <glyph glyph-name="uni018F" unicode="&#x18f;" horiz-adv-x="1556" 
d="M766 -25q-212 0 -375 111.5t-241 301.5t-52 415h1180q-20 219 -167 358t-363 139q-142 0 -266 -58.5t-218 -166.5l-102 111q105 129 256.5 200.5t333.5 71.5q204 0 362 -93t245 -261.5t87 -386.5q0 -213 -87 -382.5t-242.5 -264.5t-350.5 -95zM256 653
q14 -226 155.5 -372t354.5 -146q210 0 351.5 144t160.5 374h-1022z" />
    <glyph glyph-name="florin" unicode="&#x192;" horiz-adv-x="878" 
d="M37 -481q-118 0 -217 55l61 135q65 -41 139 -41q161 0 185 182l139 1047h-256v143h274l19 144q23 168 107.5 253t226.5 85q116 0 217 -56l-64 -135q-62 41 -137 41q-162 0 -186 -182l-21 -150h303v-143h-321l-137 -1040q-23 -167 -107 -252.5t-225 -85.5z" />
    <glyph glyph-name="uni01CD" unicode="&#x1cd;" horiz-adv-x="1439" 
d="M43 0l580 1434h200l574 -1434h-176l-136 340h-729l-137 -340h-176zM401 1841h174l148 -155l147 155h172l-256 -260h-129zM414 494h614l-307 763z" />
    <glyph glyph-name="uni01CE" unicode="&#x1ce;" horiz-adv-x="1196" 
d="M475 -14q-168 0 -271.5 88.5t-103.5 232.5q0 157 117 251.5t313 94.5q169 0 334 -61v76q0 121 -72 179t-223 58q-160 0 -344 -90l-49 137q113 56 207.5 80.5t196.5 24.5q215 0 329.5 -100.5t114.5 -286.5v-670h-156l-2 166q-60 -84 -164.5 -132t-226.5 -48zM258 1516h174
l148 -185l147 185h172l-256 -302h-129zM264 315q0 -87 63.5 -136.5t176.5 -49.5q157 0 259.5 89t102.5 222v15q-180 59 -317 59q-135 0 -210 -52.5t-75 -146.5z" />
    <glyph glyph-name="Gcaron" unicode="&#x1e6;" horiz-adv-x="1558" 
d="M838 -25q-218 0 -383.5 94t-254.5 262t-89 386q0 212 89.5 381t252.5 264.5t372 95.5q161 0 303.5 -60t249.5 -173l-110 -115q-78 86 -196 135t-247 49q-160 0 -283.5 -74t-191 -205t-67.5 -298q0 -259 149.5 -418.5t403.5 -159.5q121 0 239 38t203 106v321h-506v160h668
v-555q-112 -113 -271 -173.5t-331 -60.5zM504 1841h174l147 -155l148 155h172l-256 -260h-129z" />
    <glyph glyph-name="gcaron" unicode="&#x1e7;" horiz-adv-x="1306" 
d="M686 -670q-285 0 -441.5 86t-156.5 242q0 69 30.5 128t88.5 97q-86 62 -86 166q0 135 143 223q-104 119 -104 303q0 207 134 336t351 129h596v-143h-266q153 -119 153 -328q0 -201 -135.5 -328.5t-347.5 -127.5q-159 0 -276 69q-90 -41 -90 -110q0 -46 38 -73.5
t128.5 -44t254.5 -24.5q278 -13 399.5 -79t121.5 -203q0 -151 -140.5 -234.5t-394.5 -83.5zM250 -328q0 -190 428 -190q381 0 381 158q0 70 -82.5 101.5t-284.5 39.5q-217 6 -340 39q-46 -23 -74 -65t-28 -83zM322 575q0 -140 89.5 -227.5t233.5 -87.5t234 88t90 227
q0 140 -90 229t-234 89t-233.5 -89t-89.5 -229zM336 1516h174l147 -185l148 185h172l-256 -302h-129z" />
    <glyph glyph-name="AEacute" unicode="&#x1fc;" horiz-adv-x="1927" 
d="M31 0l860 1434h903v-158h-657v-463h604v-154h-604v-501h682v-158h-846v326h-559l-195 -326h-188zM502 475h471v789zM1018 1581l133 260h197l-181 -260h-149z" />
    <glyph glyph-name="aeacute" unicode="&#x1fd;" horiz-adv-x="1957" 
d="M1384 -25q-146 0 -259.5 63t-178.5 177q-64 -117 -187.5 -178.5t-275.5 -61.5q-173 0 -278 91t-105 239q0 158 117.5 253t312.5 95q163 0 328 -67v82q0 129 -74 187t-219 58q-164 0 -340 -98l-49 137q204 113 391 113q147 0 250 -52t150 -153q69 97 172.5 151t230.5 54
q161 0 284 -84t180 -227.5t34 -313.5h-852q22 -141 121.5 -228t242.5 -87q202 0 340 154l101 -107q-75 -93 -187 -145t-250 -52zM264 309q0 -88 62 -136t176 -48q154 0 256 88t102 221v15q-177 65 -311 65q-133 0 -209 -55t-76 -150zM887 1214l133 302h197l-181 -302h-149z
M1016 582h700q-15 147 -110.5 240t-239.5 93q-141 0 -237 -91.5t-113 -241.5z" />
    <glyph glyph-name="Oslashacute" unicode="&#x1fe;" horiz-adv-x="1679" 
d="M840 -25q-164 0 -310 62l-131 -223l-125 71l129 224q-138 98 -215 256t-77 352q0 214 93.5 383.5t259.5 263.5t376 94q165 0 309 -61l129 225l125 -74l-129 -223q139 -98 217 -256t78 -352q0 -213 -93.5 -382.5t-260 -264.5t-375.5 -95zM283 717q0 -147 55.5 -267
t155.5 -198l571 999q-101 43 -225 43q-245 0 -401 -162t-156 -415zM612 182q101 -43 228 -43q246 0 401.5 162t155.5 416q0 148 -56 269t-157 198zM760 1581l133 260h197l-181 -260h-149z" />
    <glyph glyph-name="oslashacute" unicode="&#x1ff;" horiz-adv-x="1292" 
d="M315 -145l-116 69l100 162q-95 74 -147 186t-52 248q0 239 153 392t392 153q125 0 229 -43l101 164l117 -70l-101 -162q95 -73 148 -185.5t53 -248.5q0 -239 -154 -392t-393 -153q-126 0 -227 43zM264 520q0 -93 33 -170t92 -129l404 666q-68 24 -148 24
q-168 0 -274.5 -109t-106.5 -282zM498 156q68 -27 147 -27q169 0 276 109t107 282q0 187 -125 299zM557 1214l133 302h195l-178 -302h-150z" />
    <glyph glyph-name="uni0218" unicode="&#x218;" horiz-adv-x="1224" 
d="M623 -14q-312 0 -535 198l90 133q101 -88 209.5 -129t239.5 -41q159 0 251.5 61t92.5 165q0 94 -90 162.5t-293 126.5q-236 69 -343.5 168.5t-107.5 248.5q0 164 131 266.5t342 102.5q136 0 265 -51.5t233 -147.5l-94 -129q-82 79 -188.5 122.5t-219.5 43.5
q-135 0 -216 -54.5t-81 -144.5q0 -92 80.5 -154t288.5 -126q241 -72 354 -175.5t113 -254.5q0 -172 -146 -281.5t-376 -109.5zM508 -215q0 47 29 78t73 31q55 0 86 -38.5t31 -103.5q0 -140 -129 -266l-59 53q60 71 77 148q-46 0 -77 28.5t-31 69.5z" />
    <glyph glyph-name="uni0219" unicode="&#x219;" horiz-adv-x="983" 
d="M506 -16q-243 0 -426 149l74 129q173 -125 352 -125q112 0 175.5 39t63.5 105q0 61 -59.5 103t-196.5 75q-193 49 -280.5 124.5t-87.5 192.5q0 129 98 205t268 76q233 0 404 -148l-80 -123q-63 56 -149.5 87.5t-176.5 31.5q-97 0 -149.5 -33.5t-52.5 -95.5t55.5 -99.5
t200.5 -74.5q191 -47 280.5 -124t89.5 -193q0 -137 -110 -219t-293 -82zM397 -215q0 48 29 78.5t74 30.5q55 0 85.5 -38.5t30.5 -103.5q0 -141 -131 -266l-57 53q62 72 78 148h-2q-44 0 -75.5 28.5t-31.5 69.5z" />
    <glyph glyph-name="uni021A" unicode="&#x21a;" horiz-adv-x="1212" 
d="M522 0v1272h-465v162h1098v-162h-465v-1272h-168zM498 -215q0 47 28 78t72 31q55 0 87 -38.5t32 -103.5q0 -138 -131 -266l-60 53q63 71 80 148h-2q-45 0 -75.5 28.5t-30.5 69.5z" />
    <glyph glyph-name="uni021B" unicode="&#x21b;" horiz-adv-x="837" 
d="M571 -14q-147 0 -229 90t-82 246v575h-203v143h203v248h164v-248h324v-143h-324v-569q0 -189 164 -189q67 0 157 41l54 -141q-111 -53 -228 -53zM444 -215q0 47 29.5 78t73.5 31q55 0 86 -38.5t31 -103.5q0 -140 -129 -266l-60 53q62 72 78 148q-46 0 -77.5 28.5
t-31.5 69.5z" />
    <glyph glyph-name="uni0237" unicode="&#x237;" horiz-adv-x="536" 
d="M61 -485q-88 0 -186 32l37 146q77 -23 133 -23q76 0 108.5 44.5t32.5 148.5v1177h164v-1202q0 -158 -74.5 -240.5t-214.5 -82.5z" />
    <glyph glyph-name="uni0259" unicode="&#x259;" horiz-adv-x="1224" 
d="M590 1065q237 0 385.5 -151.5t148.5 -393.5q0 -238 -147.5 -391.5t-374.5 -153.5q-165 0 -291.5 84t-185.5 227.5t-35 313.5h873q-20 139 -123.5 227t-251.5 88q-209 0 -352 -153l-99 106q79 93 194.5 145t258.5 52zM242 459q15 -147 114 -240.5t246 -93.5q146 0 245 92
t116 242h-721z" />
    <glyph glyph-name="uni02BC" unicode="&#x2bc;" horiz-adv-x="477" 
d="M135 1128q51 59 75 111t28 117h-2q-48 0 -80.5 31.5t-32.5 78.5q0 45 32 77t81 32q54 0 86 -43.5t32 -116.5q0 -202 -159 -346z" />
    <glyph glyph-name="circumflex" unicode="&#x2c6;" horiz-adv-x="1050" 
d="M205 1214l256 302h129l256 -302h-172l-148 185l-147 -185h-174z" />
    <glyph glyph-name="caron" unicode="&#x2c7;" horiz-adv-x="1050" 
d="M205 1516h174l147 -185l148 185h172l-256 -302h-129z" />
    <glyph glyph-name="breve" unicode="&#x2d8;" horiz-adv-x="1011" 
d="M506 1206q-140 0 -213 71t-88 222l127 23q9 -103 50.5 -150t123.5 -47t123.5 47t50.5 150l127 -23q-15 -151 -88 -222t-213 -71z" />
    <glyph glyph-name="dotaccent" unicode="&#x2d9;" horiz-adv-x="655" 
d="M328 1198q-54 0 -88.5 35t-34.5 90t34.5 90t88.5 35t88.5 -35t34.5 -90t-34.5 -90t-88.5 -35z" />
    <glyph glyph-name="ring" unicode="&#x2da;" horiz-adv-x="897" 
d="M449 1167q-103 0 -173.5 68t-70.5 166q0 100 70.5 167.5t173.5 67.5t173 -67.5t70 -167.5q0 -98 -70 -166t-173 -68zM326 1401q0 -53 34.5 -88t88.5 -35t88 35t34 88t-34.5 89t-87.5 36t-88 -36t-35 -89z" />
    <glyph glyph-name="ogonek" unicode="&#x2db;" horiz-adv-x="788" 
d="M395 -430q-88 0 -139 49.5t-51 134.5t54 161t157 136l73 -51q-153 -104 -153 -217q0 -40 21 -62t61 -22q49 0 106 43l60 -96q-91 -76 -189 -76z" />
    <glyph glyph-name="tilde" unicode="&#x2dc;" horiz-adv-x="1042" 
d="M649 1214q-30 0 -58.5 12t-86.5 46q-68 41 -101 41q-57 0 -102 -88l-96 55q68 158 188 158q31 0 62 -12t84 -44q68 -43 100 -43q30 0 54.5 21.5t47.5 69.5l97 -56q-68 -160 -189 -160z" />
    <glyph glyph-name="hungarumlaut" unicode="&#x2dd;" horiz-adv-x="1024" 
d="M496 1214l145 302h178l-178 -302h-145zM205 1214l123 302h178l-162 -302h-139z" />
    <glyph glyph-name="gravecomb" unicode="&#x300;" 
d="M535 1214h-150l-180 302h196z" />
    <glyph glyph-name="acutecomb" unicode="&#x301;" 
d="M205 1214l133 302h197l-181 -302h-149z" />
    <glyph glyph-name="uni0302" unicode="&#x302;" 
d="M205 1214l256 302h129l256 -302h-172l-148 185l-147 -185h-174z" />
    <glyph glyph-name="tildecomb" unicode="&#x303;" 
d="M649 1214q-30 0 -58.5 12t-86.5 46q-68 41 -101 41q-57 0 -102 -88l-96 55q68 158 188 158q31 0 62 -12t84 -44q68 -43 100 -43q30 0 54.5 21.5t47.5 69.5l97 -56q-68 -160 -189 -160z" />
    <glyph glyph-name="uni0304" unicode="&#x304;" 
d="M205 1253v123h563v-123h-563z" />
    <glyph glyph-name="uni0306" unicode="&#x306;" 
d="M506 1206q-140 0 -213 71t-88 222l127 23q9 -103 50.5 -150t123.5 -47t123.5 47t50.5 150l127 -23q-15 -151 -88 -222t-213 -71z" />
    <glyph glyph-name="uni0307" unicode="&#x307;" 
d="M328 1198q-54 0 -88.5 35t-34.5 90t34.5 90t88.5 35t88.5 -35t34.5 -90t-34.5 -90t-88.5 -35z" />
    <glyph glyph-name="uni0308" unicode="&#x308;" 
d="M674 1206q-47 0 -78 32t-31 81t30.5 80t78.5 31t79 -31t31 -80t-31.5 -81t-78.5 -32zM205 1319q0 49 30.5 80t77.5 31q48 0 78.5 -31t30.5 -80t-31 -81t-78 -32t-77.5 32t-30.5 81z" />
    <glyph glyph-name="uni030A" unicode="&#x30a;" 
d="M449 1167q-103 0 -173.5 68t-70.5 166q0 100 70.5 167.5t173.5 67.5t173 -67.5t70 -167.5q0 -98 -70 -166t-173 -68zM326 1401q0 -53 34.5 -88t88.5 -35t88 35t34 88t-34.5 89t-87.5 36t-88 -36t-35 -89z" />
    <glyph glyph-name="uni030B" unicode="&#x30b;" 
d="M496 1214l145 302h178l-178 -302h-145zM205 1214l123 302h178l-162 -302h-139z" />
    <glyph glyph-name="uni030C" unicode="&#x30c;" 
d="M205 1516h174l147 -185l148 185h172l-256 -302h-129z" />
    <glyph glyph-name="uni0312" unicode="&#x312;" 
d="M393 1528q-62 -72 -78 -148h2q44 0 75.5 -28.5t31.5 -69.5q0 -47 -28 -77.5t-72 -30.5q-55 0 -87 38t-32 103q0 141 131 266z" />
    <glyph glyph-name="uni0326" unicode="&#x326;" 
d="M236 -461q60 71 77 148h-2q-44 0 -75 28.5t-31 69.5q0 47 28 78t72 31q55 0 87 -38.5t32 -103.5q0 -141 -131 -266z" />
    <glyph glyph-name="uni0327" unicode="&#x327;" 
d="M430 -496q-129 0 -225 78l59 90q68 -55 158 -55q61 0 95 25t34 69q0 42 -28.5 63.5t-71.5 21.5t-95 -9l-30 31l51 219l112 -2l-32 -144q101 9 164 -41t63 -141q0 -94 -71.5 -149.5t-182.5 -55.5z" />
    <glyph glyph-name="uni0328" unicode="&#x328;" 
d="M395 -430q-88 0 -139 49.5t-51 134.5t54 161t157 136l73 -51q-153 -104 -153 -217q0 -40 21 -62t61 -22q49 0 106 43l60 -96q-91 -76 -189 -76z" />
    <glyph glyph-name="uni0394" unicode="&#x394;" horiz-adv-x="1439" 
d="M43 0l580 1434h200l574 -1434h-1354zM279 152h882l-440 1105z" />
    <glyph glyph-name="uni03A9" unicode="&#x3a9;" horiz-adv-x="1736" 
d="M102 0v150h308q-125 96 -197 246t-72 331q0 208 92 373.5t258 258.5t377 93t377 -93t258 -258.5t92 -373.5q0 -182 -71 -331.5t-197 -245.5h307v-150h-628v133q193 79 305 224.5t112 361.5q0 175 -76 307t-201 199t-278 67t-278 -67t-201 -199t-76 -307
q0 -216 112.5 -361.5t305.5 -224.5v-133h-629z" />
    <glyph glyph-name="uni03BC" unicode="&#x3bc;" horiz-adv-x="1325" 
d="M186 -471v1511h164v-555q0 -168 79.5 -257t229.5 -89q143 0 229.5 94.5t86.5 251.5v555h164v-1040h-160v160q-56 -82 -140 -125t-184 -43q-201 0 -311 135v-598h-158z" />
    <glyph glyph-name="pi" unicode="&#x3c0;" horiz-adv-x="1286" 
d="M1098 -20q-111 0 -183.5 67.5t-72.5 210.5v625h-445v-883h-164v883h-170v157h1113v-157h-170v-602q0 -75 28 -109.5t86 -34.5q36 0 78 17l33 -152q-68 -22 -133 -22z" />
    <glyph glyph-name="uni0400" unicode="&#x400;" horiz-adv-x="1224" 
d="M205 0v1434h885v-158h-715v-469h661v-154h-661v-493h741v-160h-911zM416 1841h196l133 -260h-147z" />
    <glyph glyph-name="uni0401" unicode="&#x401;" horiz-adv-x="1224" 
d="M205 0v1434h885v-158h-715v-469h661v-154h-661v-493h741v-160h-911zM375 1686q0 51 30.5 82.5t79.5 31.5q48 0 79.5 -32t31.5 -82q0 -49 -32 -82t-79 -33q-49 0 -79.5 32.5t-30.5 82.5zM741 1686q0 51 30.5 82.5t78.5 31.5q50 0 80.5 -31.5t30.5 -82.5q0 -50 -31 -82.5
t-80 -32.5q-47 0 -78 32.5t-31 82.5z" />
    <glyph glyph-name="uni0402" unicode="&#x402;" horiz-adv-x="1681" 
d="M1135 -16q-145 0 -297 73l61 148q123 -60 231 -60q128 0 202.5 81t74.5 216q0 149 -95 231.5t-268 82.5q-180 0 -362 -92v-664h-170v1272h-455v162h1176v-162h-551v-438q189 86 377 86q242 0 382 -128t140 -343q0 -205 -124.5 -335t-321.5 -130z" />
    <glyph glyph-name="uni0403" unicode="&#x403;" horiz-adv-x="1097" 
d="M205 0v1434h844v-162h-674v-1272h-170zM545 1581l133 260h196l-182 -260h-147z" />
    <glyph glyph-name="uni0404" unicode="&#x404;" horiz-adv-x="1499" 
d="M821 -25q-206 0 -368.5 95t-252 264t-89.5 383q0 213 89 382.5t248.5 264t360.5 94.5q177 0 328.5 -73t261.5 -211l-119 -111q-84 112 -205.5 171.5t-261.5 59.5q-212 0 -357 -135t-171 -354h819v-160h-821q22 -227 169 -366.5t369 -139.5q146 0 273.5 63.5t218.5 182.5
l119 -111q-246 -299 -611 -299z" />
    <glyph glyph-name="uni0405" unicode="&#x405;" horiz-adv-x="1224" 
d="M623 -14q-312 0 -535 198l90 133q101 -88 209.5 -129t239.5 -41q159 0 251.5 61t92.5 165q0 94 -90 162.5t-293 126.5q-236 69 -343.5 168.5t-107.5 248.5q0 164 131 266.5t342 102.5q136 0 265 -51.5t233 -147.5l-94 -129q-82 79 -188.5 122.5t-219.5 43.5
q-135 0 -216 -54.5t-81 -144.5q0 -92 80.5 -154t288.5 -126q241 -72 354 -175.5t113 -254.5q0 -172 -146 -281.5t-376 -109.5z" />
    <glyph glyph-name="uni0406" unicode="&#x406;" horiz-adv-x="579" 
d="M205 0v1434h170v-1434h-170z" />
    <glyph glyph-name="uni0407" unicode="&#x407;" horiz-adv-x="579" 
d="M205 0v1434h170v-1434h-170zM-4 1686q0 51 31 82.5t79 31.5q50 0 80.5 -31.5t30.5 -82.5q0 -50 -31 -82.5t-80 -32.5q-47 0 -78.5 33t-31.5 82zM362 1686q0 50 31.5 82t79.5 32q50 0 80.5 -31.5t30.5 -82.5q0 -50 -31 -82.5t-80 -32.5q-47 0 -79 33t-32 82z" />
    <glyph glyph-name="uni0408" unicode="&#x408;" horiz-adv-x="960" 
d="M332 -25q-141 0 -307 72l67 143q117 -53 240 -53q137 0 203.5 88t66.5 269v940h170v-957q0 -244 -113 -373t-327 -129z" />
    <glyph glyph-name="uni0409" unicode="&#x409;" horiz-adv-x="2228" 
d="M25 145q87 17 141 42.5t91 76t54.5 122.5t26.5 187l61 861h922v-527h350q226 0 359 -121.5t133 -330.5q0 -210 -133 -332.5t-359 -122.5h-520v1272h-594l-51 -711q-19 -273 -119 -403.5t-319 -167.5zM1319 160h340q161 0 247.5 76.5t86.5 218.5t-86 217.5t-248 75.5h-340
v-588z" />
    <glyph glyph-name="uni040A" unicode="&#x40a;" horiz-adv-x="2236" 
d="M1155 0v659h-780v-659h-170v1434h170v-613h780v613h170v-547h352q227 0 359.5 -120.5t132.5 -324.5t-132.5 -323t-359.5 -119h-522zM1323 160h344q163 0 248.5 73t85.5 209t-85.5 210.5t-248.5 74.5h-344v-567z" />
    <glyph glyph-name="uni040B" unicode="&#x40b;" horiz-adv-x="1708" 
d="M1393 375q0 391 -351 391q-185 0 -360 -82v-684h-170v1272h-455v162h1172v-162h-547v-420q189 78 365 78q248 0 382 -141t134 -400v-389h-170v375z" />
    <glyph glyph-name="uni040C" unicode="&#x40c;" horiz-adv-x="1316" 
d="M1077 0l-510 645h-192v-645h-170v1434h170v-631h186l498 631h211l-557 -705l577 -729h-213zM606 1581l133 260h195l-180 -260h-148z" />
    <glyph glyph-name="uni040D" unicode="&#x40d;" horiz-adv-x="1579" 
d="M205 0v1434h170v-1147l844 1147h155v-1434h-170v1147l-844 -1147h-155zM547 1841h196l134 -260h-148z" />
    <glyph glyph-name="uni040E" unicode="&#x40e;" horiz-adv-x="1370" 
d="M412 -25q-117 0 -207 43l49 154q74 -33 145 -33q70 0 118 35t89 119l21 43l-584 1098h190l199 -375l287 -535l252 535l178 375h186l-583 -1217q-62 -129 -141 -185.5t-199 -56.5zM391 1825l133 24q18 -157 168 -157q148 0 166 157l133 -24q-30 -254 -299 -254
q-271 0 -301 254z" />
    <glyph glyph-name="uni040F" unicode="&#x40f;" horiz-adv-x="1550" 
d="M858 0v-334h-164v334h-489v1434h170v-1272h801v1272h167v-1434h-485z" />
    <glyph glyph-name="uni0410" unicode="&#x410;" horiz-adv-x="1439" 
d="M43 0l580 1434h200l574 -1434h-176l-136 340h-729l-137 -340h-176zM414 494h614l-307 763z" />
    <glyph glyph-name="uni0411" unicode="&#x411;" horiz-adv-x="1308" 
d="M205 0v1434h917v-160h-747v-389h350q227 0 359.5 -119t132.5 -324q0 -204 -132.5 -323t-359.5 -119h-520zM375 160h340q159 0 246.5 73.5t87.5 208.5q0 134 -88 209.5t-246 75.5h-340v-567z" />
    <glyph glyph-name="uni0412" unicode="&#x412;" horiz-adv-x="1349" 
d="M205 0v1434h573q185 0 301.5 -106.5t116.5 -276.5q0 -98 -43 -177.5t-123 -130.5q98 -46 155.5 -139.5t57.5 -210.5q0 -177 -122 -285t-322 -108h-594zM373 158h411q136 0 211.5 65.5t75.5 184.5q0 114 -73 181.5t-199 67.5h-426v-499zM373 807h411q108 0 175 65t67 168
q0 105 -70 170.5t-186 65.5h-397v-469z" />
    <glyph glyph-name="uni0413" unicode="&#x413;" horiz-adv-x="1097" 
d="M205 0v1434h844v-162h-674v-1272h-170z" />
    <glyph glyph-name="uni0414" unicode="&#x414;" horiz-adv-x="1611" 
d="M53 -334v496h164q68 58 101.5 144.5t43.5 248.5l64 879h903v-1272h223v-496h-161v334h-1176v-334h-162zM420 158h739v1116h-575l-52 -733q-17 -250 -112 -383z" />
    <glyph glyph-name="uni0415" unicode="&#x415;" horiz-adv-x="1224" 
d="M205 0v1434h885v-158h-715v-469h661v-154h-661v-493h741v-160h-911z" />
    <glyph glyph-name="uni0416" unicode="&#x416;" horiz-adv-x="2002" 
d="M1767 0l-487 645h-195v-645h-167v645h-195l-487 -645h-209l553 729l-533 705h209l471 -631h191v631h167v-631h191l471 631h209l-533 -705l553 -729h-209z" />
    <glyph glyph-name="uni0417" unicode="&#x417;" horiz-adv-x="1251" 
d="M629 -14q-309 0 -523 192l99 125q179 -156 422 -156q168 0 257 67t89 189q0 114 -78.5 182t-210.5 68h-303v158h291q115 0 185.5 66.5t70.5 175.5t-81.5 171t-225.5 62q-219 0 -398 -156l-96 125q208 193 494 193q221 0 348 -102t127 -279q0 -104 -45.5 -188t-130.5 -138
q103 -46 164 -141.5t61 -212.5q0 -184 -138 -292.5t-378 -108.5z" />
    <glyph glyph-name="uni0418" unicode="&#x418;" horiz-adv-x="1579" 
d="M205 0v1434h170v-1147l844 1147h155v-1434h-170v1147l-844 -1147h-155z" />
    <glyph glyph-name="uni0419" unicode="&#x419;" horiz-adv-x="1579" 
d="M205 0v1434h170v-1147l844 1147h155v-1434h-170v1147l-844 -1147h-155zM496 1825l133 24q18 -157 168 -157q148 0 166 157l133 -24q-30 -254 -299 -254q-271 0 -301 254z" />
    <glyph glyph-name="uni041A" unicode="&#x41a;" horiz-adv-x="1316" 
d="M1077 0l-510 645h-192v-645h-170v1434h170v-631h186l498 631h211l-557 -705l577 -729h-213z" />
    <glyph glyph-name="uni041B" unicode="&#x41b;" horiz-adv-x="1552" 
d="M25 139q123 28 185.5 73t92 126.5t39.5 234.5l61 861h943v-1434h-168v1272h-617l-49 -711q-20 -276 -123 -405t-321 -166z" />
    <glyph glyph-name="uni041C" unicode="&#x41c;" horiz-adv-x="1820" 
d="M864 508l-489 637v-1145h-170v1434h151l553 -725l555 725h150v-1434h-168v1145l-492 -637h-90z" />
    <glyph glyph-name="uni041D" unicode="&#x41d;" horiz-adv-x="1550" 
d="M1176 0v651h-801v-651h-170v1434h170v-621h801v621h170v-1434h-170z" />
    <glyph glyph-name="uni041E" unicode="&#x41e;" horiz-adv-x="1679" 
d="M840 -25q-210 0 -376.5 94.5t-259.5 264t-93 383.5t93.5 383.5t259.5 263.5t376 94q209 0 375.5 -94.5t260 -264t93.5 -382.5t-93.5 -382.5t-260 -264.5t-375.5 -95zM283 717q0 -254 155.5 -416t401.5 -162t401.5 162t155.5 416t-155.5 415.5t-401.5 161.5
q-245 0 -401 -162t-156 -415z" />
    <glyph glyph-name="uni041F" unicode="&#x41f;" horiz-adv-x="1550" 
d="M1176 0v1272h-801v-1272h-170v1434h1141v-1434h-170z" />
    <glyph glyph-name="uni0420" unicode="&#x420;" horiz-adv-x="1259" 
d="M205 0v1434h508q230 0 363.5 -128t133.5 -348q0 -218 -133.5 -345.5t-363.5 -127.5h-338v-485h-170zM373 645h327q162 0 252 82.5t90 230.5q0 151 -89.5 233.5t-252.5 82.5h-327v-629z" />
    <glyph glyph-name="uni0421" unicode="&#x421;" horiz-adv-x="1501" 
d="M817 -25q-207 0 -368.5 96t-249.5 265t-88 381q0 211 88 380t248 265t364 96q183 0 334.5 -78.5t261.5 -226.5l-123 -104q-81 117 -206 181t-267 64q-233 0 -380.5 -162.5t-147.5 -414.5q0 -167 66.5 -298.5t188.5 -205.5t279 -74q151 0 281.5 68t218.5 192l123 -102
q-115 -158 -273.5 -240t-349.5 -82z" />
    <glyph glyph-name="uni0422" unicode="&#x422;" horiz-adv-x="1212" 
d="M522 0v1272h-465v162h1098v-162h-465v-1272h-168z" />
    <glyph glyph-name="uni0423" unicode="&#x423;" horiz-adv-x="1370" 
d="M412 -25q-117 0 -207 43l49 154q74 -33 145 -33q70 0 118 35t89 119l21 43l-584 1098h190l199 -375l287 -535l252 535l178 375h186l-583 -1217q-62 -129 -141 -185.5t-199 -56.5z" />
    <glyph glyph-name="uni0424" unicode="&#x424;" horiz-adv-x="1695" 
d="M764 -117v211q-192 8 -339 84.5t-230.5 216t-83.5 322.5q0 275 180.5 442.5t472.5 179.5v209h170v-209q292 -12 472.5 -180t180.5 -442t-180.5 -442.5t-472.5 -180.5v-211h-170zM283 717q0 -203 132 -324.5t349 -132.5v914q-217 -11 -349 -132.5t-132 -324.5zM932 260
q218 11 349.5 132t131.5 325t-131.5 325t-349.5 132v-914z" />
    <glyph glyph-name="uni0425" unicode="&#x425;" horiz-adv-x="1308" 
d="M29 0l522 743l-481 691h202l213 -301l172 -254l172 254l213 301h203l-481 -695l516 -739h-203l-219 307l-203 293l-200 -293l-222 -307h-204z" />
    <glyph glyph-name="uni0426" unicode="&#x426;" horiz-adv-x="1628" 
d="M1407 -334v334h-1202v1434h170v-1272h801v1272h170v-1272h223v-496h-162z" />
    <glyph glyph-name="uni0427" unicode="&#x427;" horiz-adv-x="1404" 
d="M651 455q-253 0 -391.5 142.5t-138.5 403.5v433h170v-416q0 -400 364 -400q196 0 375 87v729h168v-1434h-168v535q-193 -80 -379 -80z" />
    <glyph glyph-name="uni0428" unicode="&#x428;" horiz-adv-x="2437" 
d="M205 0v1434h170v-1272h760v1272h170v-1272h757v1272h170v-1434h-2027z" />
    <glyph glyph-name="uni0429" unicode="&#x429;" horiz-adv-x="2514" 
d="M2292 -334v334h-2087v1434h170v-1272h760v1272h170v-1272h757v1272h170v-1272h224v-496h-164z" />
    <glyph glyph-name="uni042A" unicode="&#x42a;" horiz-adv-x="1566" 
d="M477 0v1272h-430v162h598v-527h365q226 0 358.5 -121.5t132.5 -330.5q0 -210 -132.5 -332.5t-358.5 -122.5h-533zM645 160h352q163 0 248.5 77t85.5 218t-85.5 217t-248.5 76h-352v-588z" />
    <glyph glyph-name="uni042B" unicode="&#x42b;" horiz-adv-x="1875" 
d="M205 0v1434h170v-527h362q227 0 359.5 -121.5t132.5 -330.5q0 -211 -132.5 -333t-359.5 -122h-532zM373 160h354q163 0 248.5 77t85.5 218t-85.5 217t-248.5 76h-354v-588zM1501 0v1434h170v-1434h-170z" />
    <glyph glyph-name="uni042C" unicode="&#x42c;" horiz-adv-x="1296" 
d="M205 0v1434h170v-527h362q227 0 359.5 -121.5t132.5 -330.5q0 -211 -132.5 -333t-359.5 -122h-532zM373 160h354q163 0 248.5 77t85.5 218t-85.5 217t-248.5 76h-354v-588z" />
    <glyph glyph-name="uni042D" unicode="&#x42d;" horiz-adv-x="1499" 
d="M678 -25q-364 0 -610 299l118 111q91 -119 218.5 -182.5t273.5 -63.5q222 0 369.5 139.5t169.5 366.5h-822v160h819q-26 219 -171 354t-357 135q-140 0 -261.5 -59.5t-205.5 -171.5l-119 111q110 138 261.5 211t328.5 73q201 0 361 -94.5t249 -264t89 -382.5
q0 -214 -90 -383t-252.5 -264t-368.5 -95z" />
    <glyph glyph-name="uni042E" unicode="&#x42e;" horiz-adv-x="2217" 
d="M1389 -25q-196 0 -354 85.5t-252.5 238.5t-108.5 350h-299v-649h-170v1434h170v-621h301q31 288 227.5 466.5t485.5 178.5q207 0 371 -94.5t255.5 -264t91.5 -382.5t-91.5 -382.5t-255.5 -264.5t-371 -95zM842 717q0 -254 153 -416t394 -162q239 0 392.5 162.5
t153.5 415.5t-153.5 415t-392.5 162q-241 0 -394 -161.5t-153 -415.5z" />
    <glyph glyph-name="uni042F" unicode="&#x42f;" horiz-adv-x="1372" 
d="M997 0v532h-368l-342 -532h-199l363 553q-149 42 -237.5 157t-88.5 273q0 198 134 324.5t345 126.5h563v-1434h-170zM295 981q0 -137 84 -216t231 -79h389v588h-389q-148 0 -231.5 -78t-83.5 -215z" />
    <glyph glyph-name="uni0430" unicode="&#x430;" horiz-adv-x="1196" 
d="M475 -14q-168 0 -271.5 88.5t-103.5 232.5q0 157 117 251.5t313 94.5q169 0 334 -61v76q0 121 -72 179t-223 58q-160 0 -344 -90l-49 137q113 56 207.5 80.5t196.5 24.5q215 0 329.5 -100.5t114.5 -286.5v-670h-156l-2 166q-60 -84 -164.5 -132t-226.5 -48zM264 315
q0 -87 63.5 -136.5t176.5 -49.5q157 0 259.5 89t102.5 222v15q-180 59 -317 59q-135 0 -210 -52.5t-75 -146.5z" />
    <glyph glyph-name="uni0431" unicode="&#x431;" horiz-adv-x="1290" 
d="M649 -25q-248 0 -395.5 165.5t-147.5 461.5q0 190 21.5 330.5t65 243.5t117 172t169.5 111t230 65q168 28 249 49t144 53l53 -141q-67 -37 -147 -59t-267 -54q-125 -22 -208.5 -59t-137.5 -99.5t-80 -145.5t-36 -204q66 92 167.5 141.5t227.5 49.5q227 0 371.5 -150.5
t144.5 -388.5q0 -236 -152.5 -388.5t-388.5 -152.5zM270 516q0 -170 106 -278.5t273 -108.5q166 0 271.5 108.5t105.5 278.5t-105.5 278.5t-271.5 108.5q-167 0 -273 -108.5t-106 -278.5z" />
    <glyph glyph-name="uni0432" unicode="&#x432;" horiz-adv-x="1148" 
d="M186 0v1040h498q151 0 242.5 -73.5t91.5 -196.5q0 -75 -34 -134.5t-97 -96.5q77 -31 121.5 -97.5t44.5 -152.5q0 -129 -98.5 -209t-256.5 -80h-512zM348 135h348q93 0 144 44t51 122t-51 122t-144 44h-348v-332zM348 596h334q83 0 128.5 41.5t45.5 114.5t-45.5 114
t-128.5 41h-334v-311z" />
    <glyph glyph-name="uni0433" unicode="&#x433;" horiz-adv-x="917" 
d="M186 0v1040h686v-151h-522v-889h-164z" />
    <glyph glyph-name="uni0434" unicode="&#x434;" horiz-adv-x="1372" 
d="M47 -307v461h139q51 51 76.5 122t34.5 199l45 565h778v-886h199v-461h-156v307h-960v-307h-156zM375 150h583v739h-462l-35 -428q-13 -201 -86 -311z" />
    <glyph glyph-name="uni0435" unicode="&#x435;" horiz-adv-x="1224" 
d="M635 -25q-238 0 -386.5 151.5t-148.5 393.5q0 238 148 391.5t375 153.5q165 0 291.5 -84t185.5 -227.5t35 -313.5h-873q20 -139 123.5 -227t251.5 -88q208 0 352 154l98 -107q-79 -93 -194 -145t-258 -52zM262 582h721q-15 147 -114 240t-246 93q-146 0 -245 -91.5
t-116 -241.5z" />
    <glyph glyph-name="uni0436" unicode="&#x436;" horiz-adv-x="1640" 
d="M1415 0l-356 463h-156v-463h-164v463h-155l-359 -463h-200l415 537l-391 503h197l332 -426h161v426h164v-426h162l330 426h198l-393 -503l418 -537h-203z" />
    <glyph glyph-name="uni0437" unicode="&#x437;" horiz-adv-x="1009" 
d="M492 -16q-250 0 -431 153l89 121q150 -119 337 -119q123 0 192 44t69 122q0 71 -59 113.5t-157 42.5h-233v147h227q84 0 134.5 40.5t50.5 107.5q0 74 -59.5 112.5t-170.5 38.5q-83 0 -157 -25.5t-156 -82.5l-84 119q184 141 410 141q185 0 282.5 -79t97.5 -206
q0 -145 -131 -229q81 -34 125.5 -100.5t44.5 -153.5q0 -140 -114.5 -223.5t-306.5 -83.5z" />
    <glyph glyph-name="uni0438" unicode="&#x438;" horiz-adv-x="1331" 
d="M186 0v1040h162v-790l645 790h152v-1040h-162v793l-645 -793h-152z" />
    <glyph glyph-name="uni0439" unicode="&#x439;" horiz-adv-x="1331" 
d="M186 0v1040h162v-790l645 790h152v-1040h-162v793l-645 -793h-152zM365 1499l127 23q9 -103 50.5 -150t123.5 -47t123.5 47t50.5 150l127 -23q-15 -151 -88 -222t-213 -71t-213 71t-88 222z" />
    <glyph glyph-name="uni043A" unicode="&#x43a;" horiz-adv-x="1105" 
d="M881 0l-375 463h-156v-463h-164v1040h164v-426h164l344 426h199l-412 -503l436 -537h-200z" />
    <glyph glyph-name="uni043B" unicode="&#x43b;" horiz-adv-x="1284" 
d="M23 129q95 25 143.5 57t73.5 92t34 171l48 591h776v-1040h-164v889h-461l-35 -457q-17 -213 -98 -310.5t-277 -137.5z" />
    <glyph glyph-name="uni043C" unicode="&#x43c;" horiz-adv-x="1499" 
d="M709 315l-361 473v-788h-162v1040h152l412 -542l411 542h152v-1040h-162v791l-360 -476h-82z" />
    <glyph glyph-name="uni043D" unicode="&#x43d;" horiz-adv-x="1314" 
d="M965 0v463h-615v-463h-164v1040h164v-426h615v426h163v-1040h-163z" />
    <glyph glyph-name="uni043E" unicode="&#x43e;" horiz-adv-x="1292" 
d="M645 -25q-239 0 -392 153t-153 392t153 392t392 153t393 -153t154 -392t-154 -392t-393 -153zM264 520q0 -173 106.5 -282t274.5 -109q169 0 276 109t107 282t-107 282t-276 109q-168 0 -274.5 -109t-106.5 -282z" />
    <glyph glyph-name="uni043F" unicode="&#x43f;" horiz-adv-x="1314" 
d="M965 0v889h-615v-889h-164v1040h942v-1040h-163z" />
    <glyph glyph-name="uni0440" unicode="&#x440;" horiz-adv-x="1372" 
d="M754 -25q-126 0 -231 51.5t-173 143.5v-641h-164v1511h162v-174q70 94 175 146.5t231 52.5q226 0 372 -153t146 -392t-146 -392t-372 -153zM348 520q0 -172 106.5 -281.5t272.5 -109.5q168 0 274.5 109t106.5 282t-106.5 282t-274.5 109q-166 0 -272.5 -109.5
t-106.5 -281.5z" />
    <glyph glyph-name="uni0441" unicode="&#x441;" horiz-adv-x="1134" 
d="M629 -25q-230 0 -379.5 153.5t-149.5 391.5t148.5 391.5t380.5 153.5q131 0 242 -50.5t184 -144.5l-103 -104q-60 69 -143.5 107t-177.5 38q-162 0 -264.5 -109.5t-102.5 -281.5q0 -174 101.5 -282.5t267.5 -108.5q101 0 188 41.5t146 118.5l110 -101
q-68 -100 -187.5 -156.5t-260.5 -56.5z" />
    <glyph glyph-name="uni0442" unicode="&#x442;" horiz-adv-x="1024" 
d="M430 0v889h-379v151h922v-151h-379v-889h-164z" />
    <glyph glyph-name="uni0443" unicode="&#x443;" horiz-adv-x="1148" 
d="M285 -481q-99 0 -183 37l45 141q59 -23 127 -23q75 0 120.5 36.5t84.5 133.5l43 111l-483 1085h178l387 -874l109 285l223 589h174l-481 -1249q-55 -141 -139 -206.5t-205 -65.5z" />
    <glyph glyph-name="uni0444" unicode="&#x444;" horiz-adv-x="1439" 
d="M639 -471v446q-242 12 -390.5 163t-148.5 382t148.5 382t390.5 163v451h164v-453q241 -12 388.5 -162t147.5 -381t-147.5 -381t-388.5 -162v-448h-164zM264 520q0 -164 103.5 -271.5t273.5 -117.5v778q-170 -10 -273.5 -117.5t-103.5 -271.5zM799 131q171 10 274 117
t103 272t-103 272t-274 117v-778z" />
    <glyph glyph-name="uni0445" unicode="&#x445;" horiz-adv-x="1048" 
d="M823 0l-299 406l-149 -201l-154 -205h-194l393 530l-371 510h193l153 -209l129 -178l129 178l150 209h194l-370 -510l395 -530h-199z" />
    <glyph glyph-name="uni0446" unicode="&#x446;" horiz-adv-x="1380" 
d="M1171 -307v307h-985v1040h164v-886h615v886h163v-886h199v-461h-156z" />
    <glyph glyph-name="uni0447" unicode="&#x447;" horiz-adv-x="1169" 
d="M530 311q-202 0 -310.5 111t-108.5 317v301h163v-286q0 -289 269 -289q131 0 276 63v512h164v-1040h-164v365q-142 -54 -289 -54z" />
    <glyph glyph-name="uni0448" unicode="&#x448;" horiz-adv-x="2035" 
d="M186 0v1040h164v-886h588v886h160v-886h588v886h163v-1040h-1663z" />
    <glyph glyph-name="uni0449" unicode="&#x449;" horiz-adv-x="2099" 
d="M1892 -307v307h-1706v1040h164v-886h588v886h160v-886h588v886h163v-886h197v-461h-154z" />
    <glyph glyph-name="uni044A" unicode="&#x44a;" horiz-adv-x="1290" 
d="M385 0v889h-342v151h506v-327h291q186 0 290.5 -95.5t104.5 -261.5q0 -167 -104 -261.5t-291 -94.5h-455zM547 150h291q112 0 172.5 54.5t60.5 153.5q0 98 -60.5 152.5t-172.5 54.5h-291v-415z" />
    <glyph glyph-name="uni044B" unicode="&#x44b;" horiz-adv-x="1630" 
d="M186 0v1040h164v-327h293q186 0 290.5 -95.5t104.5 -261.5q0 -167 -104 -261.5t-291 -94.5h-457zM348 150h295q112 0 171.5 54.5t59.5 153.5q0 98 -60 152.5t-171 54.5h-295v-415zM1280 0v1040h164v-1040h-164z" />
    <glyph glyph-name="uni044C" unicode="&#x44c;" horiz-adv-x="1093" 
d="M186 0v1040h164v-327h293q186 0 290.5 -95.5t104.5 -261.5q0 -167 -104 -261.5t-291 -94.5h-457zM348 150h295q112 0 171.5 54.5t59.5 153.5q0 98 -60 152.5t-171 54.5h-295v-415z" />
    <glyph glyph-name="uni044D" unicode="&#x44d;" horiz-adv-x="1138" 
d="M504 -25q-135 0 -252.5 53.5t-188.5 145.5l107 105q59 -71 146 -110.5t186 -39.5q150 0 249 87t119 235h-555v147h553q-23 142 -121 227.5t-243 85.5q-92 0 -176 -35t-144 -98l-98 113q72 83 183 128.5t239 45.5q233 0 381.5 -153t148.5 -392t-149.5 -392t-384.5 -153z
" />
    <glyph glyph-name="uni044E" unicode="&#x44e;" horiz-adv-x="1792" 
d="M1149 -25q-220 0 -368.5 132.5t-170.5 345.5h-260v-453h-164v1040h164v-434h262q28 205 175 332t362 127q239 0 391 -153t152 -392t-152 -392t-391 -153zM768 520q0 -173 106 -282t275 -109q167 0 273 109t106 282t-106 282t-273 109q-169 0 -275 -109t-106 -282z" />
    <glyph glyph-name="uni044F" unicode="&#x44f;" horiz-adv-x="1146" 
d="M797 0v369h-287l-242 -369h-188l258 391q-108 34 -167.5 116t-59.5 198q0 154 103 244.5t278 90.5h469v-1040h-164zM274 702q0 -92 60.5 -144t169.5 -52h295v391h-295q-108 0 -169 -52t-61 -143z" />
    <glyph glyph-name="uni0450" unicode="&#x450;" horiz-adv-x="1224" 
d="M635 -25q-238 0 -386.5 151.5t-148.5 393.5q0 238 148 391.5t375 153.5q165 0 291.5 -84t185.5 -227.5t35 -313.5h-873q20 -139 123.5 -227t251.5 -88q208 0 352 154l98 -107q-79 -93 -194 -145t-258 -52zM262 582h721q-15 147 -114 240t-246 93q-146 0 -245 -91.5
t-116 -241.5zM383 1516h197l133 -302h-150z" />
    <glyph glyph-name="uni0451" unicode="&#x451;" horiz-adv-x="1224" 
d="M635 -25q-238 0 -386.5 151.5t-148.5 393.5q0 238 148 391.5t375 153.5q165 0 291.5 -84t185.5 -227.5t35 -313.5h-873q20 -139 123.5 -227t251.5 -88q208 0 352 154l98 -107q-79 -93 -194 -145t-258 -52zM262 582h721q-15 147 -114 240t-246 93q-146 0 -245 -91.5
t-116 -241.5zM334 1319q0 49 30.5 80t77.5 31q48 0 79.5 -31t31.5 -80t-31.5 -81t-79.5 -32q-47 0 -77.5 32t-30.5 81zM694 1319q0 49 31.5 80t79.5 31q47 0 77.5 -31t30.5 -80t-30.5 -81t-77.5 -32q-48 0 -79.5 32t-31.5 81z" />
    <glyph glyph-name="uni0452" unicode="&#x452;" horiz-adv-x="1325" 
d="M864 -485q-88 0 -186 32l39 144q74 -23 131 -23q76 0 108.5 44t32.5 147v733q0 148 -74 228.5t-210 80.5q-156 0 -248 -96t-92 -258v-547h-164v1204h-191v123h191v189h164v-189h352v-123h-352v-327q134 178 366 178q191 0 306.5 -120t115.5 -317v-780q0 -158 -74 -240.5
t-215 -82.5z" />
    <glyph glyph-name="uni0453" unicode="&#x453;" horiz-adv-x="917" 
d="M186 0v1040h686v-151h-522v-889h-164zM426 1214l133 302h195l-179 -302h-149z" />
    <glyph glyph-name="uni0454" unicode="&#x454;" horiz-adv-x="1138" 
d="M635 -25q-235 0 -385 153t-150 392t149 392t382 153q128 0 239 -45.5t183 -128.5l-99 -113q-60 63 -143.5 98t-175.5 35q-145 0 -243.5 -85.5t-121.5 -227.5h553v-147h-555q20 -148 119.5 -235t249.5 -87q99 0 186 39.5t146 110.5l106 -105q-71 -93 -188 -146t-252 -53z
" />
    <glyph glyph-name="uni0455" unicode="&#x455;" horiz-adv-x="983" 
d="M506 -16q-243 0 -426 149l74 129q173 -125 352 -125q112 0 175.5 39t63.5 105q0 61 -59.5 103t-196.5 75q-193 49 -280.5 124.5t-87.5 192.5q0 129 98 205t268 76q233 0 404 -148l-80 -123q-63 56 -149.5 87.5t-176.5 31.5q-97 0 -149.5 -33.5t-52.5 -95.5t55.5 -99.5
t200.5 -74.5q191 -47 280.5 -124t89.5 -193q0 -137 -110 -219t-293 -82z" />
    <glyph glyph-name="uni0456" unicode="&#x456;" horiz-adv-x="536" 
d="M186 0v1040h164v-1040h-164zM141 1331q0 57 35.5 92t91.5 35t90.5 -35t34.5 -92t-35 -93t-90 -36q-56 0 -91.5 36t-35.5 93z" />
    <glyph glyph-name="uni0457" unicode="&#x457;" horiz-adv-x="536" 
d="M186 0v1040h164v-1040h-164zM-12 1319q0 49 30.5 80t77.5 31t77 -31t30 -80q0 -50 -30 -81.5t-77 -31.5t-77.5 32t-30.5 81zM332 1319q0 49 30.5 80t77.5 31t77 -31t30 -80q0 -50 -30 -81.5t-77 -31.5t-77.5 32t-30.5 81z" />
    <glyph glyph-name="uni0458" unicode="&#x458;" horiz-adv-x="536" 
d="M61 -485q-88 0 -186 32l37 146q77 -23 133 -23q76 0 108.5 44.5t32.5 148.5v1177h164v-1202q0 -158 -74.5 -240.5t-214.5 -82.5zM141 1331q0 57 35.5 92t91.5 35t90.5 -35t34.5 -92t-35 -93t-90 -36q-56 0 -91.5 36t-35.5 93z" />
    <glyph glyph-name="uni0459" unicode="&#x459;" horiz-adv-x="1810" 
d="M23 129q95 25 143.5 57t73.5 92t34 171l48 591h763v-327h289q178 0 279.5 -97t101.5 -260q0 -169 -100.5 -262.5t-280.5 -93.5h-452v889h-449l-35 -457q-17 -213 -98.5 -310.5t-276.5 -137.5zM1085 150h287q106 0 162.5 54t56.5 154q0 94 -57.5 150.5t-161.5 56.5h-287
v-415z" />
    <glyph glyph-name="uni045A" unicode="&#x45a;" horiz-adv-x="1830" 
d="M942 0v469h-592v-469h-164v1040h164v-417h592v417h164v-358h285q178 0 280.5 -91t102.5 -249q0 -159 -102.5 -250.5t-280.5 -91.5h-449zM1104 150h289q101 0 159 51.5t58 140.5q0 91 -58 142t-159 51h-289v-385z" />
    <glyph glyph-name="uni045B" unicode="&#x45b;" horiz-adv-x="1325" 
d="M201 0v1204h-191v123h191v189h164v-189h352v-123h-352v-330q134 181 366 181q191 0 306.5 -119t115.5 -315v-621h-164v594q0 147 -74 227t-210 80q-156 0 -248 -96t-92 -258v-547h-164z" />
    <glyph glyph-name="uni045C" unicode="&#x45c;" horiz-adv-x="1105" 
d="M881 0l-375 463h-156v-463h-164v1040h164v-426h164l344 426h199l-412 -503l436 -537h-200zM494 1214l135 302h194l-178 -302h-151z" />
    <glyph glyph-name="uni045D" unicode="&#x45d;" horiz-adv-x="1331" 
d="M186 0v1040h162v-790l645 790h152v-1040h-162v793l-645 -793h-152zM426 1516h197l133 -302h-150z" />
    <glyph glyph-name="uni045E" unicode="&#x45e;" horiz-adv-x="1148" 
d="M285 -481q-99 0 -183 37l45 141q59 -23 127 -23q75 0 120.5 36.5t84.5 133.5l43 111l-483 1085h178l387 -874l109 285l223 589h174l-481 -1249q-55 -141 -139 -206.5t-205 -65.5zM287 1499l127 23q9 -103 50.5 -150t123.5 -47t123.5 47t50.5 150l127 -23
q-15 -151 -88 -222t-213 -71t-213 71t-88 222z" />
    <glyph glyph-name="uni045F" unicode="&#x45f;" horiz-adv-x="1314" 
d="M737 0v-307h-157v307h-394v1040h164v-886h615v886h163v-1040h-391z" />
    <glyph glyph-name="uni0490" unicode="&#x490;" horiz-adv-x="1097" 
d="M205 0v1434h678v317h166v-479h-674v-1272h-170z" />
    <glyph glyph-name="uni0491" unicode="&#x491;" horiz-adv-x="917" 
d="M186 0v1040h525v326h161v-477h-522v-889h-164z" />
    <glyph glyph-name="uni04D4" unicode="&#x4d4;" horiz-adv-x="1927" 
d="M31 0l860 1434h903v-158h-657v-463h604v-154h-604v-501h682v-158h-846v326h-559l-195 -326h-188zM502 475h471v789z" />
    <glyph glyph-name="uni04D5" unicode="&#x4d5;" horiz-adv-x="1957" 
d="M1384 -25q-146 0 -259.5 63t-178.5 177q-64 -117 -187.5 -178.5t-275.5 -61.5q-173 0 -278 91t-105 239q0 158 117.5 253t312.5 95q163 0 328 -67v82q0 129 -74 187t-219 58q-164 0 -340 -98l-49 137q204 113 391 113q147 0 250 -52t150 -153q69 97 172.5 151t230.5 54
q161 0 284 -84t180 -227.5t34 -313.5h-852q22 -141 121.5 -228t242.5 -87q202 0 340 154l101 -107q-75 -93 -187 -145t-250 -52zM264 309q0 -88 62 -136t176 -48q154 0 256 88t102 221v15q-177 65 -311 65q-133 0 -209 -55t-76 -150zM1016 582h700q-15 147 -110.5 240
t-239.5 93q-141 0 -237 -91.5t-113 -241.5z" />
    <glyph glyph-name="uni04D8" unicode="&#x4d8;" horiz-adv-x="1556" 
d="M766 -25q-212 0 -375 111.5t-241 301.5t-52 415h1180q-20 219 -167 358t-363 139q-142 0 -266 -58.5t-218 -166.5l-102 111q105 129 256.5 200.5t333.5 71.5q204 0 362 -93t245 -261.5t87 -386.5q0 -213 -87 -382.5t-242.5 -264.5t-350.5 -95zM256 653
q14 -226 155.5 -372t354.5 -146q210 0 351.5 144t160.5 374h-1022z" />
    <glyph glyph-name="uni04D9" unicode="&#x4d9;" horiz-adv-x="1224" 
d="M590 1065q237 0 385.5 -151.5t148.5 -393.5q0 -238 -147.5 -391.5t-374.5 -153.5q-165 0 -291.5 84t-185.5 227.5t-35 313.5h873q-20 139 -123.5 227t-251.5 88q-209 0 -352 -153l-99 106q79 93 194.5 145t258.5 52zM242 459q15 -147 114 -240.5t246 -93.5q146 0 245 92
t116 242h-721z" />
    <glyph glyph-name="Wgrave" unicode="&#x1e80;" horiz-adv-x="2154" 
d="M506 0l-453 1434h178l172 -564l205 -661l385 1153h172l387 -1153l203 661l170 564h176l-446 -1434h-201l-375 1106l-178 -537l-194 -569h-201zM829 1841h197l133 -260h-147z" />
    <glyph glyph-name="wgrave" unicode="&#x1e81;" horiz-adv-x="1753" 
d="M410 0l-361 1040h174l121 -360l162 -473l293 788h155l293 -788l162 473l123 360h172l-363 -1040h-184l-280 764l-162 -440l-121 -324h-184zM637 1516h197l133 -302h-150z" />
    <glyph glyph-name="Wacute" unicode="&#x1e82;" horiz-adv-x="2154" 
d="M506 0l-453 1434h178l172 -564l205 -661l385 1153h172l387 -1153l203 661l170 564h176l-446 -1434h-201l-375 1106l-178 -537l-194 -569h-201zM999 1581l134 260h196l-180 -260h-150z" />
    <glyph glyph-name="wacute" unicode="&#x1e83;" horiz-adv-x="1753" 
d="M410 0l-361 1040h174l121 -360l162 -473l293 788h155l293 -788l162 473l123 360h172l-363 -1040h-184l-280 764l-162 -440l-121 -324h-184zM786 1214l136 302h194l-178 -302h-152z" />
    <glyph glyph-name="Wdieresis" unicode="&#x1e84;" horiz-adv-x="2154" 
d="M506 0l-453 1434h178l172 -564l205 -661l385 1153h172l387 -1153l203 661l170 564h176l-446 -1434h-201l-375 1106l-178 -537l-194 -569h-201zM786 1686q0 51 30.5 82.5t80.5 31.5q48 0 79.5 -32t31.5 -82q0 -49 -32 -82t-79 -33q-49 0 -80 32.5t-31 82.5zM1153 1686
q0 51 30.5 82.5t80.5 31.5q48 0 79 -31.5t31 -82.5q0 -49 -31.5 -82t-78.5 -33q-49 0 -80 32.5t-31 82.5z" />
    <glyph glyph-name="wdieresis" unicode="&#x1e85;" horiz-adv-x="1753" 
d="M410 0l-361 1040h174l121 -360l162 -473l293 788h155l293 -788l162 473l123 360h172l-363 -1040h-184l-280 764l-162 -440l-121 -324h-184zM588 1319q0 49 30.5 80t77.5 31q48 0 78.5 -31t30.5 -80t-31 -81t-78 -32t-77.5 32t-30.5 81zM948 1319q0 49 30.5 80t78.5 31
q47 0 77.5 -31t30.5 -80t-30.5 -81t-77.5 -32t-78 32t-31 81z" />
    <glyph glyph-name="uni1E9E" unicode="&#x1e9e;" horiz-adv-x="1452" 
d="M872 -18q-96 0 -190.5 25t-161.5 69l74 135q116 -72 262 -72q147 0 232.5 78.5t85.5 208.5q0 162 -125 237t-324 52l-47 106l346 457h-332q-164 0 -250 -97.5t-86 -281.5v-899h-168v893q0 255 128 398t384 143h533v-129l-332 -439q204 -15 323 -135t119 -311
q0 -196 -129 -317t-342 -121z" />
    <glyph glyph-name="Ygrave" unicode="&#x1ef2;" horiz-adv-x="1341" 
d="M588 0v549l-547 885h197l225 -367l209 -336l209 336l225 367h194l-544 -883v-551h-168zM422 1841h196l134 -260h-148z" />
    <glyph glyph-name="ygrave" unicode="&#x1ef3;" horiz-adv-x="1148" 
d="M285 -481q-99 0 -183 37l45 141q59 -23 127 -23q75 0 120.5 36.5t84.5 133.5l43 111l-483 1085h178l387 -874l109 285l223 589h174l-481 -1249q-55 -141 -139 -206.5t-205 -65.5zM346 1516h197l133 -302h-150z" />
    <glyph glyph-name="uni2009" unicode="&#x2009;" horiz-adv-x="397" 
 />
    <glyph glyph-name="uni200B" unicode="&#x200b;" 
 />
    <glyph glyph-name="endash" unicode="&#x2013;" horiz-adv-x="1105" 
d="M1010 485h-912v140h912v-140z" />
    <glyph glyph-name="emdash" unicode="&#x2014;" horiz-adv-x="1376" 
d="M1276 485h-1178v140h1178v-140z" />
    <glyph glyph-name="quoteleft" unicode="&#x2018;" horiz-adv-x="477" 
d="M344 1528q-52 -58 -75.5 -110t-28.5 -118h2q47 0 79.5 -31.5t32.5 -78.5q0 -46 -31.5 -77.5t-80.5 -31.5q-54 0 -85.5 43t-31.5 115q0 202 158 348z" />
    <glyph glyph-name="quoteright" unicode="&#x2019;" horiz-adv-x="477" 
d="M135 1128q51 59 75 111t28 117h-2q-48 0 -80.5 31.5t-32.5 78.5q0 45 32 77t81 32q54 0 86 -43.5t32 -116.5q0 -202 -159 -346z" />
    <glyph glyph-name="quotesinglbase" unicode="&#x201a;" horiz-adv-x="477" 
d="M135 -227q52 59 75.5 110.5t27.5 116.5h-2q-47 0 -80 32t-33 79q0 45 32 76.5t81 31.5q54 0 86 -43.5t32 -116.5q0 -202 -159 -346z" />
    <glyph glyph-name="quotedblleft" unicode="&#x201c;" horiz-adv-x="831" 
d="M698 1528q-52 -58 -75.5 -110t-28.5 -118h2q48 0 80.5 -31.5t32.5 -78.5q0 -46 -32 -77.5t-81 -31.5q-54 0 -85.5 43t-31.5 115q0 202 158 348zM125 1239q0 202 158 348l61 -59q-52 -58 -75.5 -110t-28.5 -118h2q47 0 79.5 -31.5t32.5 -78.5q0 -46 -31.5 -77.5
t-80.5 -31.5q-54 0 -85.5 43t-31.5 115z" />
    <glyph glyph-name="quotedblright" unicode="&#x201d;" horiz-adv-x="831" 
d="M135 1128q51 59 75 111t28 117h-2q-48 0 -80.5 31.5t-32.5 78.5q0 45 32 77t81 32q54 0 86 -43.5t32 -116.5q0 -202 -159 -346zM477 1466q0 45 32 77t81 32q54 0 86.5 -43.5t32.5 -116.5q0 -201 -160 -346l-60 59q51 59 75 111t28 117h-2q-48 0 -80.5 31.5t-32.5 78.5z
" />
    <glyph glyph-name="quotedblbase" unicode="&#x201e;" horiz-adv-x="831" 
d="M135 -227q52 59 75.5 110.5t27.5 116.5h-2q-47 0 -80 32t-33 79q0 45 32 76.5t81 31.5q54 0 86 -43.5t32 -116.5q0 -202 -159 -346zM477 111q0 45 32 76.5t81 31.5q54 0 86.5 -43.5t32.5 -116.5q0 -201 -160 -346l-60 60q52 59 75.5 110.5t27.5 116.5h-2q-47 0 -80 32
t-33 79z" />
    <glyph glyph-name="dagger" unicode="&#x2020;" horiz-adv-x="1089" 
d="M469 -471v1092h-352v141h352v510h152v-510h352v-141h-352v-1092h-152z" />
    <glyph glyph-name="daggerdbl" unicode="&#x2021;" horiz-adv-x="1089" 
d="M469 -471v539h-352v141h352v453h-352v141h352v469h152v-469h352v-141h-352v-453h352v-141h-352v-539h-152z" />
    <glyph glyph-name="bullet" unicode="&#x2022;" horiz-adv-x="692" 
d="M348 385q-86 0 -146.5 56.5t-60.5 144.5q0 87 60 142.5t147 55.5q85 0 144 -55.5t59 -142.5q0 -88 -59 -144.5t-144 -56.5z" />
    <glyph glyph-name="ellipsis" unicode="&#x2026;" horiz-adv-x="1300" 
d="M242 -20q-51 0 -86 32.5t-35 83.5t35 84t86 33q50 0 84 -32.5t34 -84.5t-34 -84t-84 -32zM530 96q0 51 35 84t86 33q50 0 84.5 -32.5t34.5 -84.5t-34 -84t-85 -32t-86 32.5t-35 83.5zM940 96q0 51 35 84t86 33q50 0 84.5 -32.5t34.5 -84.5t-34 -84t-85 -32t-86 32.5
t-35 83.5z" />
    <glyph glyph-name="perthousand" unicode="&#x2030;" horiz-adv-x="2355" 
d="M2007 -10q-138 0 -228.5 88.5t-90.5 224.5t90.5 225.5t228.5 89.5t226.5 -88.5t88.5 -226.5q0 -137 -88.5 -225t-226.5 -88zM53 1126q0 138 91 228t231 90q141 0 231 -90t90 -228q0 -140 -90 -229.5t-231 -89.5q-140 0 -231 90t-91 229zM176 1126q0 -88 56 -145t143 -57
q88 0 143 56.5t55 145.5q0 88 -54.5 144.5t-143.5 56.5q-88 0 -143.5 -56.5t-55.5 -144.5zM240 37l1013 1427l97 -67l-1012 -1428zM893 307q0 139 91.5 229.5t232.5 90.5q139 0 229 -90t90 -230q0 -138 -90 -227.5t-229 -89.5q-141 0 -232.5 89.5t-91.5 227.5zM1016 307
q0 -87 56 -144t145 -57q87 0 141.5 57t54.5 144q0 88 -54.5 145.5t-141.5 57.5q-89 0 -145 -57t-56 -146zM1804 303q0 -88 57 -145.5t146 -57.5t145 57t56 146q0 90 -56 147.5t-145 57.5t-146 -58t-57 -147z" />
    <glyph glyph-name="minute" unicode="&#x2032;" horiz-adv-x="425" 
d="M84 922l119 634h147l-133 -634h-133z" />
    <glyph glyph-name="second" unicode="&#x2033;" horiz-adv-x="755" 
d="M412 922l125 634h143l-139 -634h-129zM84 922l111 634h145l-125 -634h-131z" />
    <glyph glyph-name="guilsinglleft" unicode="&#x2039;" horiz-adv-x="798" 
d="M547 51l-434 524l434 519l112 -97l-352 -422l352 -428z" />
    <glyph glyph-name="guilsinglright" unicode="&#x203a;" horiz-adv-x="798" 
d="M252 1098l434 -525l-434 -518l-113 97l353 421l-353 428z" />
    <glyph glyph-name="uni203D" unicode="&#x203d;" horiz-adv-x="1015" 
d="M412 330l-9 583v205h154v-205l-2 -168q28 28 61 50q89 62 127.5 124.5t38.5 147.5q0 114 -76 179t-210 65q-107 0 -199 -56t-150 -157l-112 86q161 272 473 272q196 0 315 -104t119 -273q0 -109 -53.5 -196.5t-186.5 -194.5q-77 -62 -104 -113t-27 -137v-108h-159z
M371 96q0 50 34.5 83.5t86.5 33.5q51 0 84.5 -33.5t33.5 -83.5t-33.5 -83t-84.5 -33q-52 0 -86.5 33t-34.5 83z" />
    <glyph glyph-name="fraction" unicode="&#x2044;" horiz-adv-x="436" 
d="M-231 -70l-113 76l1012 1514l112 -78z" />
    <glyph glyph-name="uni2070" unicode="&#x2070;" horiz-adv-x="720" 
d="M360 954q-132 0 -209 96.5t-77 262.5t77 262t209 96t209.5 -96.5t77.5 -261.5q0 -166 -77.5 -262.5t-209.5 -96.5zM201 1313q0 -117 41 -179.5t118 -62.5t118.5 62.5t41.5 179.5t-41.5 179t-118.5 62t-118 -62t-41 -179z" />
    <glyph glyph-name="uni2074" unicode="&#x2074;" horiz-adv-x="636" 
d="M379 967v145h-350v102l356 445h113v-434h88v-113h-88v-145h-119zM176 1223h205v254z" />
    <glyph glyph-name="uni2075" unicode="&#x2075;" horiz-adv-x="581" 
d="M279 954q-136 0 -232 93l66 98q72 -72 157 -72q57 0 92 31.5t35 81.5q0 51 -36 82.5t-99 31.5q-62 0 -137 -20l-41 39l25 340h368v-117h-270l-10 -147q39 8 84 8q108 0 174.5 -59t66.5 -162q0 -102 -67.5 -165t-175.5 -63z" />
    <glyph glyph-name="uni2076" unicode="&#x2076;" horiz-adv-x="655" 
d="M342 954q-121 0 -194.5 85.5t-73.5 252.5q0 184 74 281.5t208 97.5q106 0 197 -65l-59 -86q-58 43 -129 43q-74 0 -117.5 -50.5t-52.5 -148.5q59 68 157 68q106 0 171 -68t65 -172q0 -106 -68 -172t-178 -66zM211 1192q0 -60 35 -95.5t94 -35.5q57 0 93 35.5t36 95.5
q0 59 -36.5 95t-92.5 36q-59 0 -94 -35.5t-35 -95.5z" />
    <glyph glyph-name="uni2077" unicode="&#x2077;" horiz-adv-x="540" 
d="M147 967l195 579h-299v113h440v-84l-207 -608h-129z" />
    <glyph glyph-name="uni2078" unicode="&#x2078;" horiz-adv-x="651" 
d="M328 954q-118 0 -189 57t-71 152q0 115 102 172q-80 56 -80 150q0 84 65.5 136t172.5 52q105 0 170 -52t65 -136q0 -94 -80 -150q103 -58 103 -172q0 -95 -70.5 -152t-187.5 -57zM190 1171q0 -50 38.5 -81t99.5 -31q60 0 97.5 31t37.5 81q0 49 -37.5 80t-97.5 31
q-62 0 -100 -31t-38 -80zM213 1475q0 -43 31.5 -69t83.5 -26q51 0 81.5 26t30.5 69q0 41 -30.5 66.5t-81.5 25.5q-52 0 -83.5 -25.5t-31.5 -66.5z" />
    <glyph glyph-name="uni2079" unicode="&#x2079;" horiz-adv-x="655" 
d="M313 1671q121 0 195 -85.5t74 -252.5q0 -184 -74.5 -281.5t-208.5 -97.5q-105 0 -197 66l60 86q58 -43 129 -43q74 0 117.5 50.5t52.5 148.5q-59 -68 -158 -68q-106 0 -170.5 68t-64.5 172q0 106 67.5 171.5t177.5 65.5zM186 1434q0 -59 36.5 -95t92.5 -36q59 0 94 35.5
t35 95.5t-35 95.5t-94 35.5q-57 0 -93 -35.5t-36 -95.5z" />
    <glyph glyph-name="uni2080" unicode="&#x2080;" horiz-adv-x="720" 
d="M360 -238q-132 0 -209 96.5t-77 262.5t77 262t209 96t209.5 -96.5t77.5 -261.5q0 -166 -77.5 -262.5t-209.5 -96.5zM201 121q0 -117 41 -179.5t118 -62.5t118.5 62.5t41.5 179.5t-41.5 179t-118.5 62t-118 -62t-41 -179z" />
    <glyph glyph-name="uni2081" unicode="&#x2081;" horiz-adv-x="430" 
d="M215 -225v536q-73 -43 -184 -43v103q68 0 114.5 22.5t83.5 73.5h107v-692h-121z" />
    <glyph glyph-name="uni2082" unicode="&#x2082;" horiz-adv-x="563" 
d="M43 -225v84l223 250q56 62 75 94t19 65q0 45 -28.5 71t-77.5 26q-91 0 -154 -84l-75 81q56 62 111.5 89.5t127.5 27.5q101 0 162 -56.5t61 -150.5q0 -60 -23.5 -104t-103.5 -137l-124 -140h282v-116h-475z" />
    <glyph glyph-name="uni2083" unicode="&#x2083;" horiz-adv-x="569" 
d="M279 -238q-141 0 -238 93l68 96q70 -70 159 -70q57 0 91 31.5t34 83.5q0 68 -52 97t-142 7l-31 60l143 192h-233v115h405v-66l-164 -200q90 -9 144.5 -67.5t54.5 -145.5q0 -100 -66 -163t-173 -63z" />
    <glyph glyph-name="uni2084" unicode="&#x2084;" horiz-adv-x="636" 
d="M379 -225v145h-350v103l356 444h113v-434h88v-113h-88v-145h-119zM176 31h205v254z" />
    <glyph glyph-name="uni2085" unicode="&#x2085;" horiz-adv-x="581" 
d="M279 -238q-136 0 -232 93l66 98q72 -72 157 -72q57 0 92 31.5t35 81.5q0 51 -36 83t-99 32q-58 0 -137 -21l-41 39l25 340h368v-117h-270l-10 -147q39 8 84 8q108 0 174.5 -59t66.5 -162q0 -102 -67.5 -165t-175.5 -63z" />
    <glyph glyph-name="uni2086" unicode="&#x2086;" horiz-adv-x="655" 
d="M342 -238q-121 0 -194.5 85.5t-73.5 252.5q0 184 74 281.5t208 97.5q106 0 197 -65l-59 -86q-58 43 -129 43q-74 0 -117.5 -50.5t-52.5 -148.5q59 68 157 68q106 0 171 -68t65 -172q0 -106 -68 -172t-178 -66zM211 0q0 -60 35 -95.5t94 -35.5q57 0 93 35.5t36 95.5
q0 59 -36.5 95t-92.5 36q-59 0 -94 -35.5t-35 -95.5z" />
    <glyph glyph-name="uni2087" unicode="&#x2087;" horiz-adv-x="540" 
d="M147 -225l195 579h-299v113h440v-84l-207 -608h-129z" />
    <glyph glyph-name="uni2088" unicode="&#x2088;" horiz-adv-x="651" 
d="M328 -238q-118 0 -189 57t-71 152q0 115 102 172q-80 56 -80 150q0 84 65.5 136t172.5 52q105 0 170 -52t65 -136q0 -94 -80 -150q103 -58 103 -172q0 -95 -70.5 -152t-187.5 -57zM190 -20q0 -50 38.5 -81.5t99.5 -31.5q60 0 97.5 31.5t37.5 81.5q0 49 -37.5 79.5
t-97.5 30.5q-62 0 -100 -30.5t-38 -79.5zM213 283q0 -43 31.5 -69t83.5 -26q51 0 81.5 26t30.5 69q0 41 -30.5 66.5t-81.5 25.5q-52 0 -83.5 -25.5t-31.5 -66.5z" />
    <glyph glyph-name="uni2089" unicode="&#x2089;" horiz-adv-x="655" 
d="M313 479q121 0 195 -85.5t74 -252.5q0 -184 -74.5 -281.5t-208.5 -97.5q-105 0 -197 66l60 86q58 -43 129 -43q74 0 117.5 50.5t52.5 148.5q-59 -68 -158 -68q-106 0 -170.5 68t-64.5 172q0 106 67.5 171.5t177.5 65.5zM186 242q0 -59 36.5 -95t92.5 -36q59 0 94 35.5
t35 95.5t-35 95.5t-94 35.5q-57 0 -93 -35.5t-36 -95.5z" />
    <glyph glyph-name="Euro" unicode="&#x20ac;" horiz-adv-x="1632" 
d="M965 -25q-264 0 -443.5 143.5t-236.5 385.5h-228v129h207q-4 54 -4 84q0 32 4 90h-207v131h230q60 239 238 379.5t438 140.5q175 0 327.5 -79t259.5 -226l-118 -96q-81 113 -211.5 177t-262.5 64q-183 0 -311 -96.5t-182 -263.5h555v-131h-584q-4 -58 -4 -90q0 -30 4 -84
h584v-129h-557q52 -171 183 -271t319 -100q141 0 270 68t213 188l123 -96q-112 -153 -269.5 -235.5t-336.5 -82.5z" />
    <glyph glyph-name="uni20B4" unicode="&#x20b4;" horiz-adv-x="1187" 
d="M602 -14q-200 0 -317 93t-117 249q0 100 43 178h-125v129h1016v-129h-717q-49 -61 -49 -152q0 -98 72 -156.5t194 -58.5q198 0 375 166l82 -125q-204 -194 -457 -194zM86 799v129h723q49 60 49 149q0 103 -64 163t-188 60q-84 0 -166 -38.5t-149 -108.5l-96 115
q177 186 426 186q183 0 294 -103t111 -251q0 -99 -49 -172h125v-129h-1016z" />
    <glyph glyph-name="uni20BA" unicode="&#x20ba;" horiz-adv-x="1374" 
d="M348 0v496l-246 -93l-45 123l295 111v182l-252 -96l-45 123l293 110v478h170v-414l379 143l43 -123l-426 -161v-181l383 146l45 -123l-424 -160v-399h227q97 0 166 20t114.5 63.5t72 101.5t43.5 142l147 -40q-41 -226 -169 -337.5t-374 -111.5h-397z" />
    <glyph glyph-name="uni20BD" unicode="&#x20bd;" horiz-adv-x="1288" 
d="M283 0v258h-228v135h228v162h-224v141h224v738h462q224 0 360 -122t136 -323t-139.5 -317.5t-380.5 -116.5h-268v-162h340v-135h-340v-258h-170zM449 696h282q160 0 250 76t90 211q0 137 -90 214t-250 77h-282v-578z" />
    <glyph glyph-name="uni2103" unicode="&#x2103;" horiz-adv-x="2211" 
d="M383 866q-131 0 -219 87.5t-88 217.5t88 218t219 88q129 0 217 -88t88 -218t-88 -217.5t-217 -87.5zM190 1171q0 -83 54 -137.5t139 -54.5q83 0 137.5 54.5t54.5 137.5t-54.5 138t-137.5 55q-84 0 -138.5 -54.5t-54.5 -138.5zM821 717q0 158 51.5 295t143 235.5
t222.5 154.5t284 56q183 0 334.5 -78.5t261.5 -226.5l-123 -104q-81 117 -206 181t-267 64q-154 0 -275 -74.5t-187.5 -206t-66.5 -296.5q0 -167 66.5 -298.5t189 -205.5t279.5 -74q151 0 281.5 68t218.5 192l122 -102q-116 -158 -274 -240t-348 -82q-207 0 -368.5 96
t-250 265t-88.5 381z" />
    <glyph glyph-name="uni2109" unicode="&#x2109;" horiz-adv-x="1828" 
d="M383 866q-131 0 -219 87.5t-88 217.5t88 218t219 88q129 0 217 -88t88 -218t-88 -217.5t-217 -87.5zM190 1171q0 -83 54 -137.5t139 -54.5q83 0 137.5 54.5t54.5 137.5t-54.5 138t-137.5 55q-84 0 -138.5 -54.5t-54.5 -138.5zM907 0v1434h848v-162h-678v-496h631v-160
h-631v-616h-170z" />
    <glyph glyph-name="uni2113" unicode="&#x2113;" horiz-adv-x="958" 
d="M596 -20q-162 0 -252 100.5t-90 281.5v107l-145 -57l-50 133l195 78v524q0 183 82.5 281t230.5 98q134 0 222 -99.5t88 -287.5q0 -94 -24 -177.5t-75 -162t-139.5 -145.5t-210.5 -115l-18 -9v-157q0 -118 51.5 -181t154.5 -63q96 0 193 68l47 -131q-109 -86 -260 -86z
M410 686q309 124 309 449q0 122 -43 181.5t-113 59.5q-68 0 -110.5 -53.5t-42.5 -177.5v-459z" />
    <glyph glyph-name="uni2116" unicode="&#x2116;" horiz-adv-x="2316" 
d="M1927 768q-147 0 -245.5 98.5t-98.5 241.5q0 145 98.5 242.5t245.5 97.5q149 0 245.5 -96t96.5 -244t-97 -244t-245 -96zM205 0v1434h151l850 -1143v1143h168v-1434h-153l-848 1141v-1141h-168zM1622 473v129h608v-129h-608zM1718 1108q0 -95 60 -151t149 -56
q88 0 147.5 56t59.5 151t-59.5 151t-147.5 56q-89 0 -149 -56t-60 -151z" />
    <glyph glyph-name="uni2117" unicode="&#x2117;" horiz-adv-x="1665" 
d="M834 -16q-207 0 -372.5 94.5t-258 262t-92.5 376.5t92.5 376.5t258 262t372.5 94.5q155 0 289 -55.5t229 -152t149.5 -232.5t54.5 -293t-54.5 -293t-149.5 -232.5t-229 -152t-289 -55.5zM246 717q0 -172 75 -310t209.5 -216t303.5 -78q168 0 302 78t208.5 216t74.5 310
t-74.5 310t-208.5 216t-302 78q-169 0 -303.5 -78t-209.5 -216t-75 -310zM614 313v789h263q131 0 206.5 -72t75.5 -188q0 -115 -75.5 -186.5t-206.5 -71.5h-146v-271h-117zM729 692h139q80 0 125 40.5t45 109.5q0 70 -44.5 110.5t-125.5 40.5h-139v-301z" />
    <glyph glyph-name="trademark" unicode="&#x2122;" horiz-adv-x="1179" 
d="M557 895v539h88l186 -269l185 269h90v-539h-102v352l-146 -213h-55l-144 209v-348h-102zM55 1339v95h424v-95h-162v-444h-102v444h-160z" />
    <glyph glyph-name="uni2126" unicode="&#x2126;" horiz-adv-x="1736" 
d="M102 0v150h308q-125 96 -197 246t-72 331q0 208 92 373.5t258 258.5t377 93t377 -93t258 -258.5t92 -373.5q0 -182 -71 -331.5t-197 -245.5h307v-150h-628v133q193 79 305 224.5t112 361.5q0 175 -76 307t-201 199t-278 67t-278 -67t-201 -199t-76 -307
q0 -216 112.5 -361.5t305.5 -224.5v-133h-629z" />
    <glyph glyph-name="estimated" unicode="&#x212e;" horiz-adv-x="1646" 
d="M838 -25q-217 0 -384 99.5t-255 268t-88 376.5q0 153 52.5 288.5t146 235t230.5 157.5t298 58q158 0 291 -57t225.5 -159t141.5 -249.5t42 -322.5h-1151v-414q77 -88 192.5 -137t258.5 -49q164 0 312.5 84t250.5 252l78 -54q-122 -187 -286 -282t-355 -95zM387 756h885
v430q-166 178 -434 178q-278 0 -451 -203v-405z" />
    <glyph glyph-name="uni2150" unicode="&#x2150;" horiz-adv-x="1404" 
d="M215 741v537q-73 -43 -184 -43v102q67 0 114 23t84 74h107v-693h-121zM86 6l1012 1514l112 -78l-1011 -1512zM907 580v112h441v-84l-207 -608h-129l194 580h-299z" />
    <glyph glyph-name="uni2151" unicode="&#x2151;" horiz-adv-x="1519" 
d="M215 741v537q-73 -43 -184 -43v102q67 0 114 23t84 74h107v-693h-121zM86 6l1012 1514l112 -78l-1011 -1512zM932 467q0 106 68 172t178 66q121 0 194.5 -85.5t73.5 -252.5q0 -184 -74.5 -281.5t-208.5 -97.5q-105 0 -196 65l59 86q58 -43 129 -43q74 0 117.5 50.5
t52.5 148.5q-59 -68 -158 -68q-106 0 -170.5 68t-64.5 172zM1051 467q0 -59 36.5 -95t92.5 -36q59 0 94 35.5t35 95.5t-35 95.5t-94 35.5q-57 0 -93 -35.5t-36 -95.5z" />
    <glyph glyph-name="uni2153" unicode="&#x2153;" horiz-adv-x="1433" 
d="M215 741v537q-73 -43 -184 -43v102q67 0 114 23t84 74h107v-693h-121zM86 6l1012 1514l112 -78l-1011 -1512zM905 80l68 96q70 -70 160 -70q57 0 90.5 31t33.5 84q0 68 -52 97.5t-142 7.5l-31 59l144 193h-234v114h406v-65l-164 -201q89 -9 143.5 -67t54.5 -146
q0 -100 -66 -162.5t-173 -62.5q-142 0 -238 92z" />
    <glyph glyph-name="uni2154" unicode="&#x2154;" horiz-adv-x="1568" 
d="M43 741v84l223 250q56 62 75 94.5t19 65.5q0 44 -28.5 70t-77.5 26q-91 0 -154 -84l-75 82q56 62 111.5 89.5t127.5 27.5q101 0 162 -56.5t61 -150.5q0 -60 -23.5 -104.5t-103.5 -137.5l-124 -139h282v-117h-475zM219 6l1012 1514l112 -78l-1011 -1512zM1040 80l68 96
q70 -70 160 -70q57 0 91 31.5t34 83.5q0 68 -52.5 97.5t-142.5 7.5l-31 59l144 193h-234v114h406v-65l-164 -201q90 -9 144.5 -67.5t54.5 -145.5q0 -100 -66.5 -162.5t-173.5 -62.5q-142 0 -238 92z" />
    <glyph glyph-name="uni2155" unicode="&#x2155;" horiz-adv-x="1445" 
d="M215 741v537q-73 -43 -184 -43v102q67 0 114 23t84 74h107v-693h-121zM86 6l1012 1514l112 -78l-1011 -1512zM911 80l66 98q72 -72 158 -72q57 0 92 31.5t35 81.5q0 51 -36.5 83t-99.5 32q-58 0 -137 -21l-41 39l25 340h368v-117h-270l-10 -147q39 8 84 8
q108 0 174.5 -59t66.5 -162q0 -102 -67.5 -164.5t-175.5 -62.5q-137 0 -232 92z" />
    <glyph glyph-name="uni2156" unicode="&#x2156;" horiz-adv-x="1581" 
d="M43 741v84l223 250q56 62 75 94.5t19 65.5q0 44 -28.5 70t-77.5 26q-91 0 -154 -84l-75 82q56 62 111.5 89.5t127.5 27.5q101 0 162 -56.5t61 -150.5q0 -60 -23.5 -104.5t-103.5 -137.5l-124 -139h282v-117h-475zM219 6l1012 1514l112 -78l-1011 -1512zM1047 80l65 98
q72 -72 158 -72q57 0 92 31.5t35 81.5q0 51 -36 83t-99 32q-59 0 -138 -21l-41 39l25 340h369v-117h-271l-10 -147q39 8 84 8q108 0 175 -59.5t67 -161.5t-68 -164.5t-176 -62.5q-136 0 -231 92z" />
    <glyph glyph-name="uni2157" unicode="&#x2157;" horiz-adv-x="1587" 
d="M279 729q-142 0 -238 92l68 97q70 -70 159 -70q57 0 91 31.5t34 83.5q0 68 -52 97t-142 7l-31 59l143 193h-233v115h405v-66l-164 -201q90 -9 144.5 -67.5t54.5 -145.5q0 -100 -66 -162.5t-173 -62.5zM225 6l1012 1514l113 -78l-1012 -1512zM1053 80l65 98
q72 -72 158 -72q57 0 92 31.5t35 81.5q0 51 -36 83t-99 32q-59 0 -138 -21l-40 39l24 340h369v-117h-271l-10 -147q39 8 84 8q108 0 175 -59.5t67 -161.5t-68 -164.5t-176 -62.5q-136 0 -231 92z" />
    <glyph glyph-name="uni2158" unicode="&#x2158;" horiz-adv-x="1652" 
d="M379 741v146h-350v102l356 445h113v-435h88v-112h-88v-146h-119zM176 997h205v254zM293 6l1012 1514l112 -78l-1011 -1512zM1118 80l66 98q72 -72 157 -72q57 0 92 31.5t35 81.5q0 51 -36 83t-99 32q-58 0 -137 -21l-41 39l25 340h368v-117h-270l-10 -147q39 8 84 8
q108 0 174.5 -59t66.5 -162q0 -102 -67.5 -164.5t-175.5 -62.5q-137 0 -232 92z" />
    <glyph glyph-name="uni2159" unicode="&#x2159;" horiz-adv-x="1519" 
d="M215 741v537q-73 -43 -184 -43v102q67 0 114 23t84 74h107v-693h-121zM86 6l1012 1514l112 -78l-1011 -1512zM938 326q0 184 74.5 281.5t208.5 97.5q104 0 196 -66l-59 -86q-58 43 -129 43q-74 0 -117.5 -50.5t-52.5 -148.5q59 68 158 68q106 0 170.5 -68t64.5 -172
q0 -106 -68 -171.5t-178 -65.5q-121 0 -194.5 85.5t-73.5 252.5zM1075 225q0 -60 35 -95.5t94 -35.5q57 0 93 35.5t36 95.5q0 59 -36.5 95t-92.5 36q-59 0 -94 -35.5t-35 -95.5z" />
    <glyph glyph-name="uni215A" unicode="&#x215a;" horiz-adv-x="1673" 
d="M279 729q-137 0 -232 92l66 99q72 -72 157 -72q57 0 92 31.5t35 81.5q0 51 -36 82.5t-99 31.5q-62 0 -137 -20l-41 39l25 340h368v-117h-270l-10 -148q43 9 84 9q108 0 174.5 -59.5t66.5 -162.5q0 -102 -67.5 -164.5t-175.5 -62.5zM238 6l1011 1514l113 -78l-1012 -1512z
M1092 326q0 184 74 281.5t208 97.5q105 0 197 -66l-60 -86q-58 43 -129 43q-74 0 -117.5 -50.5t-52.5 -148.5q59 68 158 68q106 0 171 -68t65 -172q0 -106 -68 -171.5t-178 -65.5q-121 0 -194.5 85.5t-73.5 252.5zM1229 225q0 -60 35 -95.5t94 -35.5q57 0 93 35.5t36 95.5
q0 59 -36.5 95t-92.5 36q-59 0 -94 -35.5t-35 -95.5z" />
    <glyph glyph-name="oneeighth" unicode="&#x215b;" horiz-adv-x="1515" 
d="M215 741v537q-73 -43 -184 -43v102q67 0 114 23t84 74h107v-693h-121zM86 6l1012 1514l112 -78l-1011 -1512zM932 197q0 115 102 172q-80 56 -80 149q0 84 65.5 136.5t172.5 52.5q105 0 170 -52.5t65 -136.5q0 -94 -79 -149q102 -57 102 -172q0 -95 -70.5 -152
t-187.5 -57q-118 0 -189 57t-71 152zM1055 205q0 -50 38 -81.5t99 -31.5q60 0 97.5 31.5t37.5 81.5q0 49 -37.5 79.5t-97.5 30.5q-62 0 -99.5 -30.5t-37.5 -79.5zM1077 508q0 -43 31.5 -68.5t83.5 -25.5q51 0 82 25.5t31 68.5q0 41 -31 66.5t-82 25.5q-52 0 -83.5 -25.5
t-31.5 -66.5z" />
    <glyph glyph-name="threeeighths" unicode="&#x215c;" horiz-adv-x="1656" 
d="M279 729q-142 0 -238 92l68 97q70 -70 159 -70q57 0 91 31.5t34 83.5q0 68 -52 97t-142 7l-31 59l143 193h-233v115h405v-66l-164 -201q90 -9 144.5 -67.5t54.5 -145.5q0 -100 -66 -162.5t-173 -62.5zM225 6l1012 1514l113 -78l-1012 -1512zM1073 197q0 114 103 172
q-80 56 -80 149q0 84 65 136.5t172 52.5q105 0 170.5 -52.5t65.5 -136.5q0 -93 -80 -149q102 -57 102 -172q0 -95 -70.5 -152t-187.5 -57q-118 0 -189 57t-71 152zM1196 205q0 -50 38 -81.5t99 -31.5q60 0 97.5 31.5t37.5 81.5q0 49 -37.5 79.5t-97.5 30.5
q-62 0 -99.5 -30.5t-37.5 -79.5zM1219 508q0 -43 31 -68.5t83 -25.5q51 0 82 25.5t31 68.5q0 41 -31 66.5t-82 25.5q-52 0 -83 -25t-31 -67z" />
    <glyph glyph-name="fiveeighths" unicode="&#x215d;" horiz-adv-x="1669" 
d="M279 729q-137 0 -232 92l66 99q72 -72 157 -72q57 0 92 31.5t35 81.5q0 51 -36 82.5t-99 31.5q-62 0 -137 -20l-41 39l25 340h368v-117h-270l-10 -148q43 9 84 9q108 0 174.5 -59.5t66.5 -162.5q0 -102 -67.5 -164.5t-175.5 -62.5zM238 6l1011 1514l113 -78l-1012 -1512z
M1085 197q0 114 103 172q-80 56 -80 149q0 84 65.5 136.5t172.5 52.5q105 0 170 -52.5t65 -136.5q0 -93 -80 -149q103 -58 103 -172q0 -95 -70.5 -152t-187.5 -57q-119 0 -190 57t-71 152zM1208 205q0 -50 38.5 -81.5t99.5 -31.5q60 0 97.5 31.5t37.5 81.5q0 49 -37.5 79.5
t-97.5 30.5q-62 0 -100 -30.5t-38 -79.5zM1231 508q0 -43 31.5 -68.5t83.5 -25.5q51 0 81.5 25.5t30.5 68.5q0 41 -30.5 66.5t-81.5 25.5q-52 0 -83.5 -25.5t-31.5 -66.5z" />
    <glyph glyph-name="seveneighths" unicode="&#x215e;" horiz-adv-x="1628" 
d="M147 741l195 580h-299v113h440v-84l-207 -609h-129zM197 6l1011 1514l113 -78l-1012 -1512zM1042 197q0 114 103 172q-80 56 -80 149q0 84 65.5 136.5t172.5 52.5q105 0 170 -52.5t65 -136.5q0 -93 -80 -149q103 -58 103 -172q0 -95 -70.5 -152t-187.5 -57
q-119 0 -190 57t-71 152zM1165 205q0 -50 38.5 -81.5t99.5 -31.5q60 0 97.5 31.5t37.5 81.5q0 49 -37.5 79.5t-97.5 30.5q-62 0 -100 -30.5t-38 -79.5zM1188 508q0 -43 31.5 -68.5t83.5 -25.5q51 0 81.5 25.5t30.5 68.5q0 41 -30.5 66.5t-81.5 25.5q-52 0 -83.5 -25.5
t-31.5 -66.5z" />
    <glyph glyph-name="arrowleft" unicode="&#x2190;" horiz-adv-x="1609" 
d="M715 1270l112 -113l-411 -414h1091v-151h-1091l411 -414l-112 -112l-600 602z" />
    <glyph glyph-name="arrowup" unicode="&#x2191;" horiz-adv-x="1413" 
d="M1309 788l-113 -112l-414 411v-1091h-151v1091l-414 -411l-113 112l603 601z" />
    <glyph glyph-name="arrowright" unicode="&#x2192;" horiz-adv-x="1609" 
d="M895 66l-113 112l412 414h-1092v151h1092l-412 414l113 113l600 -602z" />
    <glyph glyph-name="arrowdown" unicode="&#x2193;" horiz-adv-x="1413" 
d="M104 545l113 112l414 -411v1091h151v-1091l414 411l113 -112l-602 -600z" />
    <glyph glyph-name="arrowboth" unicode="&#x2194;" horiz-adv-x="2213" 
d="M1497 66l-113 112l414 414h-1382l411 -414l-112 -112l-600 602l600 602l112 -113l-411 -414h1382l-414 414l113 113l602 -602z" />
    <glyph glyph-name="arrowupdn" unicode="&#x2195;" horiz-adv-x="1413" 
d="M217 854l-113 113l603 602l602 -602l-113 -113l-414 414v-1385l414 412l113 -111l-602 -602l-603 602l113 111l414 -412v1385z" />
    <glyph glyph-name="uni2196" unicode="&#x2196;" horiz-adv-x="1302" 
d="M985 1169v-157l-584 -2l773 -772l-109 -107l-772 772v-584h-160l2 850h850z" />
    <glyph glyph-name="uni2197" unicode="&#x2197;" horiz-adv-x="1302" 
d="M1169 319h-159v584l-772 -772l-107 107l770 772l-584 2v157h852v-850z" />
    <glyph glyph-name="uni2198" unicode="&#x2198;" horiz-adv-x="1302" 
d="M317 209v160h586l-772 772l107 108l772 -772v584h159v-850z" />
    <glyph glyph-name="uni2199" unicode="&#x2199;" horiz-adv-x="1302" 
d="M133 1069h160v-584l772 772l109 -106l-773 -772l584 -2v-158h-850z" />
    <glyph glyph-name="uni21A9" unicode="&#x21a9;" horiz-adv-x="2260" 
d="M715 -182l-600 602l600 602l112 -113l-413 -415h1093q244 0 394.5 146t150.5 382t-150.5 382t-394.5 146h-94v154h94q205 0 366.5 -87t251 -242.5t89.5 -352.5q0 -196 -89.5 -351.5t-251 -243t-366.5 -87.5h-1087l407 -410z" />
    <glyph glyph-name="uni21AA" unicode="&#x21aa;" horiz-adv-x="2260" 
d="M754 340q-205 0 -366.5 87.5t-251 243t-89.5 351.5q0 197 89.5 352.5t251 242.5t366.5 87h94v-154h-94q-244 0 -394.5 -146t-150.5 -382t150.5 -382t394.5 -146h1093l-413 415l112 113l600 -602l-600 -602l-112 112l407 410h-1087z" />
    <glyph glyph-name="uni21B0" unicode="&#x21b0;" horiz-adv-x="1787" 
d="M715 537l-600 602l600 602l112 -113l-411 -414h1167v-1085h-158v934h-1009l411 -414z" />
    <glyph glyph-name="uni21B1" unicode="&#x21b1;" horiz-adv-x="1787" 
d="M1073 537l-112 112l411 414h-1010v-934h-157v1085h1167l-411 414l112 113l600 -602z" />
    <glyph glyph-name="uni21B3" unicode="&#x21b3;" horiz-adv-x="1787" 
d="M1073 1147l600 -602l-600 -602l-112 112l411 414h-1167v1085h157v-933h1010l-411 413z" />
    <glyph glyph-name="uni21B4" unicode="&#x21b4;" horiz-adv-x="1892" 
d="M584 698l112 113l414 -412v1010h-934v158h1086v-1168l413 412l113 -113l-602 -600z" />
    <glyph glyph-name="carriagereturn" unicode="&#x21b5;" horiz-adv-x="1787" 
d="M715 1147l112 -113l-411 -413h1009v933h158v-1085h-1167l411 -414l-112 -112l-600 602z" />
    <glyph glyph-name="uni21BA" unicode="&#x21ba;" horiz-adv-x="1781" 
d="M897 -283q-166 0 -310 58t-246 159t-160 243.5t-58 305.5h149q0 -131 48 -247.5t130.5 -199.5t199 -131t247.5 -48t247.5 48t199 131t130.5 199.5t48 247.5q0 176 -81.5 320.5t-225 226.5t-318.5 82h-106l296 -299l-102 -100l-463 461l461 460l104 -100l-282 -285h92
q166 0 310 -57.5t246 -158.5t160 -243.5t58 -306.5q0 -163 -58 -305.5t-160 -243.5t-246 -159t-310 -58z" />
    <glyph glyph-name="uni21BB" unicode="&#x21bb;" horiz-adv-x="1781" 
d="M885 -283q-166 0 -310 58t-246 159t-160 243.5t-58 305.5q0 164 58 306.5t160 243.5t246 158.5t310 57.5h92l-283 285l105 100l461 -460l-463 -461l-103 100l297 299h-106q-175 0 -318.5 -82t-225 -226.5t-81.5 -320.5q0 -131 48 -247.5t130.5 -199.5t199 -131t247.5 -48
t247 48t198.5 131t130.5 199.5t48 247.5h150q0 -163 -58 -305.5t-160 -243.5t-246 -159t-310 -58z" />
    <glyph glyph-name="uni21E4" unicode="&#x21e4;" horiz-adv-x="2115" 
d="M1016 63l-600 603l600 602l112 -113l-411 -414h1296v-151h-1296l411 -414zM205 43v1245h153v-1245h-153z" />
    <glyph glyph-name="uni21E5" unicode="&#x21e5;" horiz-adv-x="2115" 
d="M1100 63l-113 113l412 414h-1297v151h1297l-412 414l113 113l600 -602zM1757 43v1245h154v-1245h-154z" />
    <glyph glyph-name="uni21E7" unicode="&#x21e7;" horiz-adv-x="1722" 
d="M518 18v635h-414l758 858l756 -858h-414v-635h-686zM451 805h229v-635h362v635h230l-410 469z" />
    <glyph glyph-name="uni21EA" unicode="&#x21ea;" horiz-adv-x="1722" 
d="M518 334v319h-414l758 858l756 -858h-414v-319h-686zM451 805h229v-340h362v340h230l-410 469zM518 -178v399h686v-399h-686zM680 -47h362v135h-362v-135z" />
    <glyph glyph-name="partialdiff" unicode="&#x2202;" horiz-adv-x="1312" 
d="M582 -25q-217 0 -349.5 131t-132.5 345q0 162 75 299t208 218t295 81q233 0 352 -154q-37 193 -160.5 335.5t-369.5 248.5l57 123q175 -65 304 -166t202.5 -221.5t108 -247t34.5 -262.5q0 -170 -49.5 -309.5t-134.5 -230.5t-198 -140.5t-242 -49.5zM266 455
q0 -152 91 -239t237 -87q122 0 224.5 64t160 169t57.5 224q0 133 -91.5 221t-250.5 88q-177 0 -302.5 -125t-125.5 -315z" />
    <glyph glyph-name="emptyset" unicode="&#x2205;" horiz-adv-x="1585" 
d="M287 -70l-109 88l131 156q-89 92 -137.5 212.5t-48.5 258.5q0 187 87 340t241 240.5t344 87.5q211 0 379 -111l131 154l104 -86l-131 -154q89 -90 137.5 -211.5t48.5 -259.5q0 -140 -51 -264t-139.5 -212.5t-213 -140t-265.5 -51.5q-214 0 -379 109zM279 645
q0 -213 131 -360l673 800q-127 84 -288 84q-222 0 -369 -148t-147 -376zM508 203q124 -82 287 -82q222 0 368 148t146 376q0 210 -127 356z" />
    <glyph glyph-name="uni2206" unicode="&#x2206;" horiz-adv-x="1439" 
d="M43 0l580 1434h200l574 -1434h-1354zM279 152h882l-440 1105z" />
    <glyph glyph-name="product" unicode="&#x220f;" horiz-adv-x="1431" 
d="M1014 -225v1509h-596v-1509h-160v1509h-186v150h1288v-150h-186v-1509h-160z" />
    <glyph glyph-name="summation" unicode="&#x2211;" horiz-adv-x="1071" 
d="M84 -225v129l465 706l-459 695v129h889v-150h-684l444 -670l-456 -690h731v-149h-930z" />
    <glyph glyph-name="minus" unicode="&#x2212;" horiz-adv-x="1042" 
d="M109 555v145h823v-145h-823z" />
    <glyph glyph-name="uni2215" unicode="&#x2215;" horiz-adv-x="436" 
d="M-231 -70l-113 76l1012 1514l112 -78z" />
    <glyph glyph-name="uni2219" unicode="&#x2219;" horiz-adv-x="587" 
d="M295 395q-72 0 -123 47.5t-51 120.5t51 120.5t123 47.5t122 -47t50 -121t-50 -121t-122 -47z" />
    <glyph glyph-name="radical" unicode="&#x221a;" horiz-adv-x="1398" 
d="M707 0l-351 918h-299v122h410l213 -563l117 -315l100 315l440 1366h158l-604 -1843h-184z" />
    <glyph glyph-name="infinity" unicode="&#x221e;" horiz-adv-x="1714" 
d="M1278 258q-236 0 -406 240q-170 -240 -409 -240q-158 0 -258.5 101t-100.5 259t100.5 259.5t258.5 101.5q239 0 409 -240q167 240 406 240q159 0 258.5 -101t99.5 -260t-99.5 -259.5t-258.5 -100.5zM248 618q0 -101 60.5 -164t158.5 -63q167 0 297 189l27 38l-27 39
q-130 189 -297 189q-98 0 -158.5 -63.5t-60.5 -164.5zM952 618l27 -38q62 -91 139 -140t156 -49q99 0 160 62.5t61 164.5t-61 165t-160 63q-80 0 -156.5 -48t-138.5 -141z" />
    <glyph glyph-name="integral" unicode="&#x222b;" horiz-adv-x="774" 
d="M166 -485q-108 0 -223 53l55 131q81 -35 149 -35q74 0 113 48.5t39 140.5v1339q0 155 80 244.5t219 89.5q108 0 223 -53l-55 -132q-81 35 -150 35q-74 0 -113.5 -48.5t-39.5 -139.5v-1340q0 -157 -78.5 -245t-218.5 -88z" />
    <glyph glyph-name="approxequal" unicode="&#x2248;" horiz-adv-x="1206" 
d="M119 311q14 137 87.5 211t196.5 74q58 0 108 -20t114 -68q62 -45 97.5 -60.5t74.5 -15.5q117 0 155 156l135 -56q-38 -124 -107.5 -183.5t-174.5 -59.5q-63 0 -116.5 20.5t-119.5 71.5q-51 40 -86 56t-71 16q-120 0 -138 -162zM119 690q13 138 87 211.5t197 73.5
q58 0 108 -20t114 -68q62 -45 97.5 -60.5t74.5 -15.5q117 0 155 156l135 -54q-75 -245 -282 -245q-62 0 -115.5 20.5t-120.5 71.5q-50 40 -84.5 55.5t-72.5 15.5q-120 0 -138 -159z" />
    <glyph glyph-name="notequal" unicode="&#x2260;" horiz-adv-x="1038" 
d="M414 145l-135 54l63 163h-233v142h288l90 229h-378v144h434l84 219l131 -52l-64 -167h236v-144h-291l-90 -229h381v-142h-434z" />
    <glyph glyph-name="lessequal" unicode="&#x2264;" horiz-adv-x="1021" 
d="M924 494l-842 311v98l842 301v-155l-408 -144l-164 -53l572 -201v-157zM78 158v141h854v-141h-854z" />
    <glyph glyph-name="greaterequal" unicode="&#x2265;" horiz-adv-x="1021" 
d="M96 494v157l576 201l-168 53l-408 144v155l844 -301v-98zM88 158v141h854v-141h-854z" />
    <glyph glyph-name="uni2303" unicode="&#x2303;" horiz-adv-x="1501" 
d="M195 354l-113 113l670 670l667 -670l-112 -113l-555 557z" />
    <glyph glyph-name="uni2305" unicode="&#x2305;" horiz-adv-x="1515" 
d="M135 1124v152h1247v-152h-612l655 -657l-110 -113l-557 557l-557 -557l-113 113l657 657h-610z" />
    <glyph glyph-name="uni2318" unicode="&#x2318;" horiz-adv-x="1705" 
d="M422 -33q-138 0 -229 91t-91 229q0 134 91 223.5t229 89.5h153v238h-153q-138 0 -229 89.5t-91 223.5q0 138 91 228.5t229 90.5q134 0 222.5 -90.5t88.5 -228.5v-156h240v156q0 138 88.5 228.5t222.5 90.5q138 0 229 -90.5t91 -228.5q0 -134 -91 -223.5t-229 -89.5h-154
v-238h154q138 0 229 -89.5t91 -223.5q0 -138 -91 -229t-229 -91q-134 0 -222.5 91t-88.5 229v155h-240v-155q0 -138 -88.5 -229t-222.5 -91zM266 287q0 -66 44.5 -111t111.5 -45q66 0 109.5 45t43.5 111v155h-153q-67 0 -111.5 -44.5t-44.5 -110.5zM266 1151
q0 -66 44.5 -111t111.5 -45h153v156q0 66 -43.5 111t-109.5 45q-67 0 -111.5 -45t-44.5 -111zM733 600h240v238h-240v-238zM1130 287q0 -66 44 -111t110 -45t111 45t45 111t-45 110.5t-111 44.5h-154v-155zM1130 995h154q66 0 111 45t45 111t-45 111t-111 45t-110 -45
t-44 -111v-156z" />
    <glyph glyph-name="uni2325" unicode="&#x2325;" horiz-adv-x="1767" 
d="M1145 0l-629 1290h-434v144h532l627 -1291h445v-143h-541zM1147 1290v144h539v-144h-539z" />
    <glyph glyph-name="uni2326" unicode="&#x2326;" horiz-adv-x="2349" 
d="M1544 0h-1337v1434h1337l690 -717zM350 139h1120l558 578l-558 577h-1120v-1155zM698 467l254 252l-250 250l97 94l248 -248l249 248l97 -94l-250 -250l254 -254l-99 -94l-249 252l-252 -252z" />
    <glyph glyph-name="uni2327" unicode="&#x2327;" horiz-adv-x="1880" 
d="M205 0v1434h1470v-1434h-1470zM350 139h1180v1155h-1180v-1155zM580 461l254 254l-252 250l98 94l250 -248l248 248l96 -94l-250 -250l252 -252l-96 -96l-252 251l-252 -251z" />
    <glyph glyph-name="uni232B" unicode="&#x232b;" horiz-adv-x="2349" 
d="M805 0l-690 717l690 717h1337v-1434h-1337zM322 717l557 -578h1120v1155h-1120zM952 465l254 254l-250 250l97 94l250 -248l247 248l97 -94l-250 -250l254 -252l-99 -96l-249 252l-252 -252z" />
    <glyph glyph-name="uni2387" unicode="&#x2387;" horiz-adv-x="1767" 
d="M82 0v143h442l629 1291h533v-144h-435l-628 -1290h-541zM1147 0v143h539v-143h-539z" />
    <glyph glyph-name="uni238B" unicode="&#x238b;" horiz-adv-x="1806" 
d="M905 -281q-163 0 -307 58.5t-246.5 160t-161.5 243.5t-59 304h145q0 -176 82 -319.5t226 -225t321 -81.5q174 0 315 81.5t221.5 225t80.5 319.5t-84.5 318.5t-233.5 222.5t-332 80v143q226 0 409.5 -99.5t287.5 -274.5t104 -390q0 -162 -58.5 -304t-160 -243.5
t-244.5 -160t-305 -58.5zM131 627v622h627v-145h-373l557 -555l-104 -103l-559 560v-379h-148z" />
    <glyph glyph-name="uni23CE" unicode="&#x23ce;" horiz-adv-x="2318" 
d="M715 -57l-600 602l600 602l112 -113l-407 -409h1536v659h-502v152h660v-965h-1700l413 -416z" />
    <glyph glyph-name="uni23CF" unicode="&#x23cf;" horiz-adv-x="1740" 
d="M82 608l788 885l789 -885h-1577zM145 -106v514h1450v-514h-1450zM307 25h1127v251h-1127v-251zM428 762h885l-443 495z" />
    <glyph glyph-name="uni2423" unicode="&#x2423;" horiz-adv-x="808" 
d="M35 -170v297h129v-180h483v180h127v-297h-739z" />
    <glyph glyph-name="uni2460" unicode="&#x2460;" horiz-adv-x="1888" 
d="M926 369v536q-73 -43 -185 -43v103q68 0 115 22.5t84 73.5h107v-692h-121zM133 709q0 230 101 413.5t287 288.5t423 105t423.5 -105t288 -288.5t101.5 -413.5q0 -172 -59.5 -321t-165 -256t-257.5 -168.5t-331 -61.5q-237 0 -423 105t-287 288.5t-101 413.5zM274 709
q0 -191 83.5 -344.5t237 -241.5t349.5 -88t349.5 88t237 241.5t83.5 344.5t-83.5 344.5t-237 241t-349.5 87.5t-349.5 -87.5t-237 -241t-83.5 -344.5z" />
    <glyph glyph-name="uni2461" unicode="&#x2461;" horiz-adv-x="1888" 
d="M944 -98q-237 0 -423 105t-287 288.5t-101 413.5t101 413.5t287 288.5t423 105t423.5 -105t288 -288.5t101.5 -413.5q0 -172 -59.5 -321t-165 -256t-257.5 -168.5t-331 -61.5zM274 709q0 -191 83.5 -344.5t237 -241.5t349.5 -88t349.5 88t237 241.5t83.5 344.5
t-83.5 344.5t-237 241t-349.5 87.5t-349.5 -87.5t-237 -241t-83.5 -344.5zM692 956q56 62 112 89.5t128 27.5q101 0 162 -56.5t61 -150.5q0 -60 -23.5 -104t-103.5 -137l-125 -140h283v-116h-475v84l223 249q56 62 75 94.5t19 65.5q0 44 -28.5 70t-77.5 26q-91 0 -154 -84z
" />
    <glyph glyph-name="uni2462" unicode="&#x2462;" horiz-adv-x="1888" 
d="M944 356q-140 0 -237 93l67 96q70 -70 160 -70q57 0 91 31.5t34 83.5q0 68 -52.5 97t-142.5 7l-30 60l143 192h-234v115h406v-66l-164 -200q90 -9 144.5 -67.5t54.5 -145.5q0 -100 -66.5 -163t-173.5 -63zM133 709q0 230 101 413.5t287 288.5t423 105t423.5 -105
t288 -288.5t101.5 -413.5q0 -172 -59.5 -321t-165 -256t-257.5 -168.5t-331 -61.5q-237 0 -423 105t-287 288.5t-101 413.5zM274 709q0 -191 83.5 -344.5t237 -241.5t349.5 -88t349.5 88t237 241.5t83.5 344.5t-83.5 344.5t-237 241t-349.5 87.5t-349.5 -87.5t-237 -241
t-83.5 -344.5z" />
    <glyph glyph-name="uni2463" unicode="&#x2463;" horiz-adv-x="1888" 
d="M961 369v145h-351v102l357 445h112v-434h88v-113h-88v-145h-118zM133 709q0 230 101 413.5t287 288.5t423 105t423.5 -105t288 -288.5t101.5 -413.5q0 -172 -59.5 -321t-165 -256t-257.5 -168.5t-331 -61.5q-237 0 -423 105t-287 288.5t-101 413.5zM274 709
q0 -191 83.5 -344.5t237 -241.5t349.5 -88t349.5 88t237 241.5t83.5 344.5t-83.5 344.5t-237 241t-349.5 87.5t-349.5 -87.5t-237 -241t-83.5 -344.5zM758 625h205v254z" />
    <glyph glyph-name="uni2464" unicode="&#x2464;" horiz-adv-x="1888" 
d="M928 356q-136 0 -232 93l66 98q72 -72 158 -72q57 0 92 31.5t35 81.5q0 51 -36.5 82.5t-99.5 31.5q-62 0 -137 -20l-41 39l25 340h368v-117h-270l-10 -147q39 8 84 8q108 0 174.5 -59t66.5 -162q0 -102 -67.5 -165t-175.5 -63zM133 711q0 230 101 413.5t287 288.5
t423 105t423.5 -105t288 -288.5t101.5 -413.5q0 -172 -59.5 -321t-165 -256t-257.5 -168.5t-331 -61.5q-237 0 -423 105t-287 288.5t-101 413.5zM274 711q0 -191 83.5 -344.5t237 -241.5t349.5 -88t349.5 88t237 241.5t83.5 344.5t-83.5 344.5t-237 241t-349.5 87.5
t-349.5 -87.5t-237 -241t-83.5 -344.5z" />
    <glyph glyph-name="uni2465" unicode="&#x2465;" horiz-adv-x="1888" 
d="M948 356q-121 0 -194.5 85.5t-73.5 252.5q0 184 74.5 281.5t208.5 97.5q105 0 196 -65l-59 -86q-58 43 -129 43q-74 0 -117.5 -50.5t-52.5 -148.5q59 68 157 68q106 0 171 -68t65 -172q0 -106 -68 -172t-178 -66zM133 709q0 230 101 413.5t287 288.5t423 105t423.5 -105
t288 -288.5t101.5 -413.5q0 -172 -59.5 -321t-165 -256t-257.5 -168.5t-331 -61.5q-237 0 -423 105t-287 288.5t-101 413.5zM274 709q0 -191 83.5 -344.5t237 -241.5t349.5 -88t349.5 88t237 241.5t83.5 344.5t-83.5 344.5t-237 241t-349.5 87.5t-349.5 -87.5t-237 -241
t-83.5 -344.5zM817 594q0 -60 35 -95.5t94 -35.5q57 0 93 35.5t36 95.5q0 59 -36.5 95t-92.5 36q-59 0 -94 -35.5t-35 -95.5z" />
    <glyph glyph-name="uni2466" unicode="&#x2466;" horiz-adv-x="1888" 
d="M825 369l195 579h-299v113h440v-84l-207 -608h-129zM133 709q0 230 101 413.5t287 288.5t423 105t423.5 -105t288 -288.5t101.5 -413.5q0 -172 -59.5 -321t-165 -256t-257.5 -168.5t-331 -61.5q-237 0 -423 105t-287 288.5t-101 413.5zM274 709q0 -191 83.5 -344.5
t237 -241.5t349.5 -88t349.5 88t237 241.5t83.5 344.5t-83.5 344.5t-237 241t-349.5 87.5t-349.5 -87.5t-237 -241t-83.5 -344.5z" />
    <glyph glyph-name="uni2467" unicode="&#x2467;" horiz-adv-x="1888" 
d="M946 354q-118 0 -189 57t-71 152q0 115 102 172q-79 55 -79 150q0 84 65 136t172 52q105 0 170.5 -52.5t65.5 -135.5q0 -94 -80 -150q102 -57 102 -172q0 -95 -70.5 -152t-187.5 -57zM133 709q0 230 101 413.5t287 288.5t423 105t423.5 -105t288 -288.5t101.5 -413.5
q0 -172 -59.5 -321t-165 -256t-257.5 -168.5t-331 -61.5q-237 0 -423 105t-287 288.5t-101 413.5zM274 709q0 -191 83.5 -344.5t237 -241.5t349.5 -88t349.5 88t237 241.5t83.5 344.5t-83.5 344.5t-237 241t-349.5 87.5t-349.5 -87.5t-237 -241t-83.5 -344.5zM809 571
q0 -50 38 -81t99 -31q60 0 97.5 31t37.5 81q0 49 -37.5 80t-97.5 31q-61 0 -99 -30.5t-38 -80.5zM831 874q0 -43 31.5 -68.5t83.5 -25.5q51 0 82 25.5t31 68.5q0 41 -31 67t-82 26q-52 0 -83.5 -25.5t-31.5 -67.5z" />
    <glyph glyph-name="uni2468" unicode="&#x2468;" horiz-adv-x="1888" 
d="M934 1071q121 0 194.5 -85.5t73.5 -252.5q0 -184 -74 -281.5t-208 -97.5q-105 0 -197 66l59 86q58 -43 129 -43q74 0 117.5 50.5t52.5 148.5q-59 -68 -157 -68q-106 0 -171 68t-65 172q0 106 68 171.5t178 65.5zM133 709q0 230 101 413.5t287 288.5t423 105t423.5 -105
t288 -288.5t101.5 -413.5q0 -172 -59.5 -321t-165 -256t-257.5 -168.5t-331 -61.5q-237 0 -423 105t-287 288.5t-101 413.5zM274 709q0 -191 83.5 -344.5t237 -241.5t349.5 -88t349.5 88t237 241.5t83.5 344.5t-83.5 344.5t-237 241t-349.5 87.5t-349.5 -87.5t-237 -241
t-83.5 -344.5zM807 834q0 -59 36.5 -95.5t92.5 -36.5q59 0 94 36t35 96t-35 95.5t-94 35.5q-57 0 -93 -35.5t-36 -95.5z" />
    <glyph glyph-name="uni2469" unicode="&#x2469;" horiz-adv-x="1888" 
d="M649 367v536q-73 -43 -184 -43v103q68 0 115 22.5t84 73.5h106v-692h-121zM133 709q0 230 101 413.5t287 288.5t423 105t423.5 -105t288 -288.5t101.5 -413.5q0 -172 -59.5 -321t-165 -256t-257.5 -168.5t-331 -61.5q-237 0 -423 105t-287 288.5t-101 413.5zM274 709
q0 -191 83.5 -344.5t237 -241.5t349.5 -88t349.5 88t237 241.5t83.5 344.5t-83.5 344.5t-237 241t-349.5 87.5t-349.5 -87.5t-237 -241t-83.5 -344.5zM872 713q0 165 77.5 261.5t209.5 96.5t209.5 -96.5t77.5 -261.5q0 -166 -77.5 -262.5t-209.5 -96.5t-209.5 96.5
t-77.5 262.5zM999 713q0 -117 41.5 -179.5t118.5 -62.5t118.5 62.5t41.5 179.5t-41.5 179t-118.5 62t-118.5 -62t-41.5 -179z" />
    <glyph glyph-name="uni24EA" unicode="&#x24ea;" horiz-adv-x="1888" 
d="M944 350q-132 0 -209.5 96.5t-77.5 262.5q0 165 77.5 261.5t209.5 96.5t209.5 -96.5t77.5 -261.5q0 -166 -77.5 -262.5t-209.5 -96.5zM133 709q0 230 101 413.5t287 288.5t423 105t423.5 -105t288 -288.5t101.5 -413.5q0 -172 -59.5 -321t-165 -256t-257.5 -168.5
t-331 -61.5q-237 0 -423 105t-287 288.5t-101 413.5zM274 709q0 -191 83.5 -344.5t237 -241.5t349.5 -88t349.5 88t237 241.5t83.5 344.5t-83.5 344.5t-237 241t-349.5 87.5t-349.5 -87.5t-237 -241t-83.5 -344.5zM784 709q0 -117 41.5 -179.5t118.5 -62.5t118.5 62.5
t41.5 179.5t-41.5 179t-118.5 62t-118.5 -62t-41.5 -179z" />
    <glyph glyph-name="uni24FF" unicode="&#x24ff;" horiz-adv-x="1873" 
d="M938 -98q-237 0 -421.5 105.5t-284 289t-99.5 412.5q0 228 100 411.5t284.5 289.5t420.5 106t420.5 -106t284.5 -289.5t100 -411.5t-100 -411.5t-284.5 -289.5t-420.5 -106zM651 709q0 -166 77.5 -262.5t209.5 -96.5q131 0 208 97t77 262t-77 261.5t-208 96.5
q-132 0 -209.5 -96.5t-77.5 -261.5zM778 709q0 117 41.5 179t118.5 62q75 0 116.5 -62.5t41.5 -178.5t-41.5 -179t-116.5 -63q-77 0 -118.5 62.5t-41.5 179.5z" />
    <glyph glyph-name="filledbox" unicode="&#x25a0;" horiz-adv-x="1728" 
d="M205 53v1317h1317v-1317h-1317z" />
    <glyph glyph-name="uni25A1" unicode="&#x25a1;" horiz-adv-x="1728" 
d="M205 53v1317h1317v-1317h-1317zM350 193h1028v1038h-1028v-1038z" />
    <glyph glyph-name="triagup" unicode="&#x25b2;" horiz-adv-x="1748" 
d="M43 27l831 1499l832 -1499h-1663z" />
    <glyph glyph-name="uni25B3" unicode="&#x25b3;" horiz-adv-x="1748" 
d="M43 27l831 1499l832 -1499h-1663zM301 178h1147l-574 1032z" />
    <glyph glyph-name="uni25B6" unicode="&#x25b6;" horiz-adv-x="1818" 
d="M205 1589l1499 -831l-1499 -832v1663z" />
    <glyph glyph-name="uni25BB" unicode="&#x25bb;" horiz-adv-x="1818" 
d="M205 1589l1499 -831l-1499 -832v1663zM356 184l1033 574l-1033 573v-1147z" />
    <glyph glyph-name="triagdn" unicode="&#x25bc;" horiz-adv-x="1748" 
d="M1706 1458l-832 -1499l-831 1499h1663z" />
    <glyph glyph-name="uni25BD" unicode="&#x25bd;" horiz-adv-x="1748" 
d="M1706 1458l-832 -1499l-831 1499h1663zM301 1307l573 -1033l574 1033h-1147z" />
    <glyph glyph-name="triaglf" unicode="&#x25c4;" horiz-adv-x="1818" 
d="M1614 1589v-1663l-1499 832z" />
    <glyph glyph-name="uni25C5" unicode="&#x25c5;" horiz-adv-x="1818" 
d="M1614 -74l-1499 832l1499 831v-1663zM430 758l1032 -574v1147z" />
    <glyph glyph-name="uni25C6" unicode="&#x25c6;" horiz-adv-x="1996" 
d="M997 -190l-882 882l882 883l885 -883z" />
    <glyph glyph-name="uni25C7" unicode="&#x25c7;" horiz-adv-x="1996" 
d="M999 -190l-884 882l884 881l883 -881zM313 692l686 -684l684 684l-684 684z" />
    <glyph glyph-name="lozenge" unicode="&#x25ca;" horiz-adv-x="1169" 
d="M506 6l-406 651l406 652h156l405 -652l-405 -651h-156zM281 657l303 -493l303 493l-303 494z" />
    <glyph glyph-name="circle" unicode="&#x25cb;" horiz-adv-x="1753" 
d="M877 -25q-128 0 -243.5 36t-206 103.5t-157 158.5t-102 205.5t-35.5 240.5q0 157 56 294t153.5 235t236.5 154t298 56q214 0 384.5 -96t265.5 -264.5t95 -378.5q0 -158 -56 -296t-153.5 -236.5t-236.5 -155t-299 -56.5zM285 719q0 -258 168 -429t424 -171q169 0 304 78
t211 215t76 307q0 168 -76 304.5t-211.5 214t-303.5 77.5t-304 -77.5t-212 -214t-76 -304.5z" />
    <glyph glyph-name="uni25CF" unicode="&#x25cf;" horiz-adv-x="1753" 
d="M877 -25q-160 0 -299 56.5t-236.5 155t-153 236t-55.5 294.5q0 158 56 295.5t153.5 235.5t236 154t298.5 56t299 -56t236.5 -154t153.5 -235.5t56 -295.5q0 -157 -56 -294.5t-153.5 -236t-236.5 -155t-299 -56.5z" />
    <glyph glyph-name="uni261C" unicode="&#x261c;" horiz-adv-x="2265" 
d="M2060 115h-485v102q-87 -102 -260 -102h-608q-74 0 -117 42.5t-43 106.5q0 47 24 78q-42 17 -68 53t-26 78q0 48 31 82q-88 39 -88 131q0 33 16 62h-176q-70 0 -115 42t-45 107q0 63 45 105t115 42h402q-41 36 -41 117v96h694q173 0 260 -114v114h485v-1142zM193 897
q0 -27 18.5 -44t48.5 -17h621q64 0 107.5 -43.5t43.5 -104.5q0 -70 -49 -108q49 -40 49 -105q0 -67 -51 -106q51 -39 51 -101q0 -37 -22 -65h307q113 0 185.5 66.5t72.5 185.5v460q0 117 -74.5 186.5t-183.5 69.5h-604v-20q0 -48 27 -77.5t79 -29.5h324q0 -118 35.5 -179
t132.5 -89l-25 -82q-102 28 -157.5 92t-67.5 172h-801q-29 0 -48 -17.5t-19 -43.5zM512 686q0 -26 17.5 -43.5t45.5 -17.5h306q29 0 47 17.5t18 45.5q0 25 -18 42.5t-47 17.5h-306q-27 0 -45 -18t-18 -44zM569 477q0 -28 17.5 -45.5t46.5 -17.5h248q29 0 47 16.5t18 44.5
q0 24 -18.5 43t-46.5 19h-248q-28 0 -46 -18t-18 -42zM639 264q0 -25 18.5 -43t44.5 -18h179q27 0 46 18t19 43q0 26 -18 44t-47 18h-179q-26 0 -44.5 -18.5t-18.5 -43.5zM1669 203h297v968h-297v-968z" />
    <glyph glyph-name="uni261D" unicode="&#x261d;" horiz-adv-x="1552" 
d="M1348 -123h-1143v485h114q-114 87 -114 261v694h96q81 0 117 -41v401q0 70 42 115t105 45q65 0 107.5 -45t42.5 -115v-176q31 17 61 17q92 0 131 -88q33 30 82 30q42 0 78 -26t53 -68q32 25 78 25q64 0 107 -43t43 -117v-608q0 -173 -103 -261h103v-485zM291 -29h969v297
h-969v-297zM291 621q0 -110 70 -184.5t186 -74.5h461q119 0 185.5 73t66.5 186v307q-30 -23 -66 -23q-61 0 -100 51q-39 -51 -107 -51q-64 0 -104 49q-38 -49 -109 -49q-61 0 -104 44t-43 108v620q0 30 -17.5 49t-44.5 19q-26 0 -43.5 -19.5t-17.5 -48.5v-800
q108 -12 172 -68t92 -158l-82 -24q-28 97 -89 132.5t-179 35.5v323q0 52 -29.5 79.5t-77.5 27.5h-20v-604zM715 1057q0 -29 17 -47.5t42 -18.5q28 0 46 18.5t18 47.5v305q0 28 -18 45.5t-44 17.5t-43.5 -17.5t-17.5 -45.5v-305zM926 1057q0 -28 18.5 -47t42.5 -19
q28 0 45 18.5t17 47.5v248q0 29 -18 46t-46 17q-24 0 -41.5 -17.5t-17.5 -45.5v-248zM1137 1057q0 -29 18 -47.5t43 -18.5t43.5 19.5t18.5 46.5v178q0 26 -18.5 44.5t-43.5 18.5t-43 -18.5t-18 -44.5v-178z" />
    <glyph glyph-name="uni261E" unicode="&#x261e;" horiz-adv-x="2265" 
d="M205 115v1142h485v-114q87 114 260 114h695v-96q0 -81 -41 -117h401q70 0 115 -42t45 -105q0 -65 -45 -107t-115 -42h-176q16 -29 16 -62q0 -92 -88 -131q31 -34 31 -82q0 -42 -26 -78t-68 -53q24 -31 24 -78q0 -64 -42.5 -106.5t-116.5 -42.5h-609q-173 0 -260 102v-102
h-485zM299 203h297v968h-297v-968zM690 455q0 -119 72.5 -185.5t185.5 -66.5h307q-22 28 -22 65q0 62 51 101q-51 39 -51 106q0 65 49 105q-49 38 -49 108q0 61 43.5 104.5t107.5 43.5h621q30 0 49 17t19 44q0 26 -19.5 43.5t-48.5 17.5h-801q-12 -108 -67.5 -172
t-157.5 -92l-25 82q97 28 132.5 89t35.5 179h324q52 0 79 29.5t27 77.5v20h-604q-109 0 -183.5 -69.5t-74.5 -186.5v-460zM1319 264q0 -25 19 -43t46 -18h179q26 0 44.5 18t18.5 43t-18.5 43.5t-44.5 18.5h-179q-28 0 -46.5 -18t-18.5 -44zM1319 475q0 -28 18 -44.5
t47 -16.5h248q29 0 46.5 17.5t17.5 45.5q0 24 -18 42t-46 18h-248q-28 0 -46.5 -19t-18.5 -43zM1319 688q0 -28 18 -45.5t47 -17.5h306q28 0 45.5 17.5t17.5 43.5t-17.5 44t-45.5 18h-306q-29 0 -47 -17.5t-18 -42.5z" />
    <glyph glyph-name="uni261F" unicode="&#x261f;" horiz-adv-x="1552" 
d="M1348 1378v-485h-103q103 -88 103 -260v-608q0 -74 -43 -117t-107 -43q-47 0 -78 24q-17 -42 -53 -68t-78 -26q-48 0 -82 31q-39 -88 -131 -88q-32 0 -61 16v-176q0 -70 -42.5 -115t-107.5 -45q-63 0 -105 45t-42 115v402q-36 -41 -117 -41h-96v694q0 173 114 260h-114
v485h1143zM291 31h20q48 0 77.5 27t29.5 79v324q118 0 179 35.5t89 132.5l82 -25q-28 -102 -92 -157.5t-172 -67.5v-801q0 -29 17.5 -48t43.5 -19q28 0 45 19t17 48v621q0 64 43 107.5t104 43.5q71 0 109 -49q40 49 104 49q68 0 107 -51q39 51 100 51q38 0 66 -22v307
q0 113 -66.5 185.5t-185.5 72.5h-461q-117 0 -186.5 -74.5t-69.5 -183.5v-604zM291 987h969v297h-969v-297zM715 -106q0 -28 17.5 -46t43.5 -18t44 18t18 46v305q0 29 -18 47t-46 18q-25 0 -42 -18t-17 -47v-305zM926 -49q0 -28 17.5 -46t41.5 -18q28 0 46 17.5t18 46.5v248
q0 29 -17 47t-45 18q-24 0 -42.5 -18.5t-18.5 -46.5v-248zM1137 20q0 -26 18 -44.5t43 -18.5t43.5 18.5t18.5 44.5v179q0 27 -18.5 46t-43.5 19t-43 -18t-18 -47v-179z" />
    <glyph glyph-name="uni2661" unicode="&#x2661;" horiz-adv-x="1767" 
d="M885 -8q-179 170 -298 288t-211 219t-142 167.5t-81.5 131t-41 114t-9.5 112.5q0 167 119.5 276t308.5 109q202 0 355 -156q153 156 352 156q189 0 308.5 -109t119.5 -276q0 -77 -16.5 -138t-59.5 -138t-134.5 -181t-223.5 -238t-346 -337zM264 1012q0 -88 44 -174
t177.5 -234.5t397.5 -396.5q201 188 323 313.5t188.5 216.5t88.5 150.5t22 124.5q0 108 -72 175.5t-192 67.5q-202 0 -356 -208q-82 107 -168.5 157.5t-190.5 50.5q-120 0 -191 -67t-71 -176z" />
    <glyph glyph-name="heart" unicode="&#x2665;" horiz-adv-x="1767" 
d="M885 -10q-312 288 -480 473t-235.5 312.5t-67.5 246.5q0 176 115 281.5t303 105.5q210 0 365 -158q155 158 364 158q188 0 302 -105.5t114 -281.5q0 -119 -67.5 -246.5t-234.5 -312.5t-478 -473z" />
    <glyph glyph-name="uni26A0" unicode="&#x26a0;" horiz-adv-x="1890" 
d="M43 12l903 1555l903 -1555h-1806zM825 207q0 -50 35.5 -82.5t85.5 -32.5t84.5 32.5t34.5 82.5t-34.5 82.5t-84.5 32.5t-85.5 -32.5t-35.5 -82.5zM860 1114l6 -346l11 -342h137l10 342l6 346h-170z" />
    <glyph glyph-name="uni2713" unicode="&#x2713;" horiz-adv-x="1794" 
d="M627 68l-545 542l100 105l445 -443l1020 1090l104 -100z" />
    <glyph glyph-name="uni2717" unicode="&#x2717;" horiz-adv-x="1402" 
d="M1274 45l-572 571l-573 -571l-100 105l569 569l-569 567l100 105l573 -572l572 572l100 -105l-569 -567l569 -569z" />
    <glyph glyph-name="uni2776" unicode="&#x2776;" horiz-adv-x="1873" 
d="M938 -98q-236 0 -420.5 105t-284.5 288.5t-100 413.5t100.5 413.5t285 288.5t419.5 105q234 0 418.5 -105.5t285.5 -289t101 -412.5t-101 -412.5t-285.5 -289t-418.5 -105.5zM721 862q107 0 184 41v-534h121v692h-106q-36 -52 -83 -74t-116 -22v-103z" />
    <glyph glyph-name="uni2777" unicode="&#x2777;" horiz-adv-x="1873" 
d="M938 -98q-233 0 -416.5 102.5t-286 286.5t-102.5 418q0 233 103 417t286.5 287t415.5 103t415.5 -103t286.5 -287t103 -417t-103 -417t-286.5 -287t-415.5 -103zM692 956l76 -82q66 84 156 84q49 0 76.5 -25.5t27.5 -70.5q0 -33 -18.5 -66t-73.5 -94l-223 -249v-84h473
v116h-283l127 140q75 89 100 140t25 107q0 90 -61 145.5t-162 55.5q-72 0 -128 -27.5t-112 -89.5z" />
    <glyph glyph-name="uni2778" unicode="&#x2778;" horiz-adv-x="1873" 
d="M938 -98q-233 0 -416.5 102.5t-286 286.5t-102.5 418q0 233 103 417t286.5 287t415.5 103t415.5 -103t286.5 -287t103 -417t-103 -417t-286.5 -287t-415.5 -103zM707 449q49 -49 105.5 -71t131.5 -22q107 0 173.5 63t66.5 163q0 87 -54.5 144.5t-144.5 64.5l164 202v68
h-406v-115h236l-145 -192l30 -60q89 20 142 -8t53 -96q0 -54 -33 -84.5t-92 -30.5q-90 0 -160 70z" />
    <glyph glyph-name="uni2779" unicode="&#x2779;" horiz-adv-x="1873" 
d="M938 -98q-236 0 -420.5 105t-284.5 288.5t-100 413.5t100.5 413.5t285 288.5t419.5 105q234 0 418.5 -105.5t285.5 -289t101 -412.5t-101 -412.5t-285.5 -289t-418.5 -105.5zM608 514h353v-145h118v145h88v111h-88v436h-114l-357 -445v-102zM756 625l205 254v-254h-205z
" />
    <glyph glyph-name="uni277A" unicode="&#x277a;" horiz-adv-x="1873" 
d="M938 -98q-236 0 -420.5 105.5t-284.5 289.5t-100 414q0 229 100.5 412.5t285 289t419.5 105.5q234 0 418.5 -105.5t285.5 -289t101 -412.5t-101 -413t-285.5 -290t-418.5 -106zM696 449q93 -93 232 -93q108 0 175.5 62.5t67.5 163.5q0 104 -66.5 163.5t-174.5 59.5
q-45 0 -84 -10l10 149h270v117h-368l-25 -340l39 -41q67 20 139 20q63 0 99.5 -31t36.5 -81q0 -51 -35 -82t-92 -31q-85 0 -158 70z" />
    <glyph glyph-name="uni277B" unicode="&#x277b;" horiz-adv-x="1873" 
d="M938 -98q-236 0 -420.5 105t-284.5 288.5t-100 413.5t100.5 413.5t285 288.5t419.5 105q234 0 418.5 -105.5t285.5 -289t101 -412.5t-101 -412.5t-285.5 -289t-418.5 -105.5zM680 694q0 -167 73 -252.5t195 -85.5q110 0 178 66t68 172q0 104 -65 172t-171 68
q-99 0 -157 -74q9 99 52.5 151t117.5 52t129 -41l59 84q-90 67 -196 67q-133 0 -208 -98t-75 -281zM817 594q0 60 35 95.5t94 35.5q56 0 92.5 -36t36.5 -95q0 -60 -36 -95.5t-93 -35.5q-59 0 -94 35.5t-35 95.5z" />
    <glyph glyph-name="uni277C" unicode="&#x277c;" horiz-adv-x="1873" 
d="M938 -98q-236 0 -420.5 105t-284.5 288.5t-100 413.5t100.5 413.5t285 288.5t419.5 105q234 0 418.5 -105.5t285.5 -289t101 -412.5t-101 -412.5t-285.5 -289t-418.5 -105.5zM721 946h301l-197 -577h129l207 608v84h-440v-115z" />
    <glyph glyph-name="uni277D" unicode="&#x277d;" horiz-adv-x="1873" 
d="M938 -98q-237 0 -421.5 105.5t-284 289t-99.5 412.5q0 228 100 411.5t284.5 289.5t420.5 106t420.5 -106t284.5 -289.5t100 -411.5t-100 -411.5t-284.5 -289.5t-420.5 -106zM678 563q0 -95 71 -152t189 -57q117 0 187.5 57t70.5 152q0 56 -27.5 100.5t-76.5 69.5
q84 57 84 152q0 83 -66 135.5t-172 52.5t-172 -52.5t-66 -135.5q0 -97 84 -152q-51 -25 -78.5 -69.5t-27.5 -100.5zM803 571q0 50 37 80.5t98 30.5t98 -30.5t37 -80.5t-37 -81t-98 -31t-98 31t-37 81zM823 874q0 42 31.5 67.5t83.5 25.5t82.5 -25.5t30.5 -67.5
q0 -43 -30.5 -68.5t-82.5 -25.5t-83.5 25.5t-31.5 68.5z" />
    <glyph glyph-name="uni277E" unicode="&#x277e;" horiz-adv-x="1873" 
d="M938 -98q-236 0 -420.5 105t-284.5 288.5t-100 413.5t100.5 413.5t285 288.5t419.5 105q234 0 418.5 -105.5t285.5 -289t101 -412.5t-101 -412.5t-285.5 -289t-418.5 -105.5zM684 834q0 -104 65 -172t171 -68q101 0 157 72q-7 -99 -51.5 -151t-118.5 -52q-71 0 -129 43
l-59 -86q92 -66 199 -66q132 0 206 97.5t74 281.5q0 167 -73.5 252.5t-194.5 85.5q-110 0 -178 -65.5t-68 -171.5zM803 834q0 60 36.5 95.5t92.5 35.5q59 0 95 -35.5t36 -95.5t-35.5 -96t-95.5 -36q-55 0 -92 36.5t-37 95.5z" />
    <glyph glyph-name="uni277F" unicode="&#x277f;" horiz-adv-x="1873" 
d="M938 -98q-236 0 -420.5 105t-284.5 288.5t-100 413.5t100.5 413.5t285 288.5t419.5 105q234 0 418.5 -105.5t285.5 -289t101 -412.5t-101 -412.5t-285.5 -289t-418.5 -105.5zM446 862q109 0 183 41v-534h123v692h-109q-36 -52 -83 -74t-114 -22v-103zM872 713
q0 -169 78.5 -264t208.5 -95q127 0 206 95.5t79 263.5q0 169 -78.5 263.5t-206.5 94.5q-130 0 -208.5 -94t-78.5 -264zM999 713q0 114 41 177.5t119 63.5q76 0 117 -63t41 -178q0 -114 -41 -178t-117 -64q-78 0 -119 64t-41 178z" />
    <glyph glyph-name="uni27F5" unicode="&#x27f5;" horiz-adv-x="2428" 
d="M715 63l-600 603l600 602l112 -113l-411 -414h1911v-151h-1911l411 -414z" />
    <glyph glyph-name="uni27F6" unicode="&#x27f6;" horiz-adv-x="2428" 
d="M1714 63l-112 113l411 414h-1911v151h1911l-411 414l112 113l600 -602z" />
    <glyph glyph-name="uni2B06" unicode="&#x2b06;" horiz-adv-x="1722" 
d="M518 18v635h-414l758 858l756 -858h-414v-635h-686z" />
    <glyph glyph-name="uniF8FF" unicode="&#xf8ff;" horiz-adv-x="2961" 
d="M303 279q-56 0 -85.5 29.5t-29.5 84.5v277h-96v75h96v132h80v-132h320v97q0 112 114 112h125v-75h-157v-134h225l121 -337l131 337h76l133 -342l121 342h88l-168 -466h-80l-131 346l-131 -346h-82l-137 391h-166v-391h-82v391h-320v-316h160v-75h-125zM1616 512
q0 106 65.5 176t167.5 70q106 0 172 -76v240h80v-643h-65l-11 65q-68 -78 -176 -78q-102 0 -167.5 69t-65.5 177zM1696 512q0 -76 46 -123t118 -47t117.5 47t45.5 123t-45 122t-118 46t-118.5 -46t-45.5 -122zM2302 315v420l262 -180v180l305 -209l-305 -211v183z" />
    <glyph glyph-name="u1F4E7" unicode="&#x1f4e7;" horiz-adv-x="2289" 
d="M205 0v1434h1880v-1434h-1880zM350 139h1589v1084l-794 -760l-795 756v-1080zM469 1294l676 -643l674 643h-1350z" />
    <glyph glyph-name="uni004A0301" horiz-adv-x="960" 
d="M332 -25q-141 0 -307 72l67 143q117 -53 240 -53q137 0 203.5 88t66.5 269v940h170v-957q0 -244 -113 -373t-327 -129zM608 1581l133 260h197l-180 -260h-150z" />
    <glyph glyph-name="Adieresis.ss01" horiz-adv-x="1439" 
d="M43 0l580 1434h200l574 -1434h-176l-136 340h-729l-137 -340h-176zM264 1458q0 50 32 81.5t81 31.5q51 0 83 -31.5t32 -81.5t-32 -82.5t-83 -32.5q-49 0 -81 32.5t-32 82.5zM414 494h614l-307 763zM954 1458q0 50 32 81.5t81 31.5t81 -31.5t32 -81.5t-32 -82.5t-81 -32.5
t-81 32.5t-32 82.5z" />
    <glyph glyph-name="Aring.ss01" horiz-adv-x="1439" 
d="M43 0l551 1360q-55 31 -86 84t-31 117q0 100 70.5 167.5t173.5 67.5t173.5 -67.5t70.5 -167.5q0 -62 -30.5 -115t-82.5 -84l545 -1362h-176l-136 340h-729l-137 -340h-176zM414 494h614l-307 763zM598 1561q0 -53 34.5 -88t88.5 -35t88.5 35t34.5 88q0 54 -34.5 89.5
t-88.5 35.5t-88.5 -35.5t-34.5 -89.5z" />
    <glyph glyph-name="Ccedilla.ss01" horiz-adv-x="1501" 
d="M709 -311l45 288q-190 15 -336.5 114t-226.5 262t-80 364q0 211 88 380t248 265t364 96q183 0 334.5 -78.5t261.5 -226.5l-123 -104q-81 117 -206 181t-267 64q-233 0 -380.5 -162.5t-147.5 -414.5q0 -167 66.5 -298.5t188.5 -205.5t279 -74q151 0 281.5 68t218.5 192
l123 -102q-212 -289 -553 -320l-15 -288h-163z" />
    <glyph glyph-name="G.ss01" horiz-adv-x="1630" 
d="M829 -25q-157 0 -290.5 54.5t-227.5 151.5t-147 235.5t-53 300.5q0 160 54 298t149 235t229.5 152.5t290.5 55.5q165 0 310 -59.5t255 -173.5l-105 -119q-86 89 -207.5 138.5t-252.5 49.5q-243 0 -397 -161t-154 -416q0 -260 149 -419t393 -159q224 0 367 130.5
t154 344.5h-598v160h772q8 -375 -175 -587t-516 -212z" />
    <glyph glyph-name="Gbreve.ss01" horiz-adv-x="1630" 
d="M829 -25q-157 0 -290.5 54.5t-227.5 151.5t-147 235.5t-53 300.5q0 160 54 298t149 235t229.5 152.5t290.5 55.5q165 0 310 -59.5t255 -173.5l-105 -119q-86 89 -207.5 138.5t-252.5 49.5q-243 0 -397 -161t-154 -416q0 -260 149 -419t393 -159q224 0 367 130.5
t154 344.5h-598v160h772q8 -375 -175 -587t-516 -212zM535 1825l133 24q15 -157 166 -157q76 0 117 38.5t50 118.5l134 -24q-30 -254 -301 -254q-269 0 -299 254z" />
    <glyph glyph-name="Gcircumflex.ss01" horiz-adv-x="1630" 
d="M829 -25q-157 0 -290.5 54.5t-227.5 151.5t-147 235.5t-53 300.5q0 160 54 298t149 235t229.5 152.5t290.5 55.5q165 0 310 -59.5t255 -173.5l-105 -119q-86 89 -207.5 138.5t-252.5 49.5q-243 0 -397 -161t-154 -416q0 -260 149 -419t393 -159q224 0 367 130.5
t154 344.5h-598v160h772q8 -375 -175 -587t-516 -212zM514 1581l256 260h129l256 -260h-172l-147 154l-148 -154h-174z" />
    <glyph glyph-name="uni0122.ss01" horiz-adv-x="1630" 
d="M829 -25q-157 0 -290.5 54.5t-227.5 151.5t-147 235.5t-53 300.5q0 160 54 298t149 235t229.5 152.5t290.5 55.5q165 0 310 -59.5t255 -173.5l-105 -119q-86 89 -207.5 138.5t-252.5 49.5q-243 0 -397 -161t-154 -416q0 -260 149 -419t393 -159q224 0 367 130.5
t154 344.5h-598v160h772q8 -375 -175 -587t-516 -212zM733 -215q0 48 29 78.5t74 30.5q55 0 85.5 -38.5t30.5 -103.5q0 -141 -131 -266l-57 53q62 72 78 148h-2q-44 0 -75.5 28.5t-31.5 69.5z" />
    <glyph glyph-name="Gdotaccent.ss01" horiz-adv-x="1630" 
d="M829 -25q-157 0 -290.5 54.5t-227.5 151.5t-147 235.5t-53 300.5q0 160 54 298t149 235t229.5 152.5t290.5 55.5q165 0 310 -59.5t255 -173.5l-105 -119q-86 89 -207.5 138.5t-252.5 49.5q-243 0 -397 -161t-154 -416q0 -260 149 -419t393 -159q224 0 367 130.5
t154 344.5h-598v160h772q8 -375 -175 -587t-516 -212zM709 1698q0 57 35.5 93t89.5 36q56 0 91.5 -36t35.5 -93q0 -56 -35.5 -91.5t-91.5 -35.5q-54 0 -89.5 36t-35.5 91z" />
    <glyph glyph-name="K.ss01" horiz-adv-x="1345" 
d="M1106 0l-610 680v86l589 668h209l-626 -709l651 -725h-213zM205 0v1434h170v-1434h-170z" />
    </font>
</defs>
</svg>
