<?xml version="1.0" standalone="no"?>
<!DOCTYPE svg PUBLIC "-//W3C//DTD SVG 1.1//EN" "http://www.w3.org/Graphics/SVG/1.1/DTD/svg11.dtd" >
<svg xmlns="http://www.w3.org/2000/svg" xmlns:xlink="http://www.w3.org/1999/xlink" version="1.1">
<metadata>
Created by FontForge 20170731 at Fri Jul 29 23:56:14 2022
 By Aleksey,,,
Copyright (c) 2022 by Type Forward. All rights reserved.
</metadata>
<defs>
<font id="Gogh-Medium" horiz-adv-x="0" >
  <font-face 
    font-family="Gogh Medium"
    font-weight="500"
    font-stretch="normal"
    units-per-em="2048"
    panose-1="0 0 0 0 0 0 0 0 0 0"
    ascent="1638"
    descent="-410"
    x-height="1044"
    cap-height="1434"
    bbox="-362 -715 2869 2001"
    underline-thickness="102"
    underline-position="-460"
    unicode-range="U+000D-1F4E7"
  />
<missing-glyph horiz-adv-x="1605" 
d="M174 -82v1598h1258v-1598h-1258zM350 82h905v1270h-905v-1270zM461 1012q128 194 342 194q143 0 231 -72t88 -198q0 -82 -40.5 -141.5t-116.5 -124.5q-56 -46 -74.5 -80t-18.5 -92v-37h-159v55q0 85 32 138t113 118q98 79 98 152q0 55 -42.5 93t-120.5 38
q-70 0 -122.5 -35.5t-97.5 -101.5zM690 276q0 43 30.5 71t72.5 28t72 -28t30 -71t-30 -70.5t-72 -27.5q-43 0 -73 27.5t-30 70.5z" />
    <glyph glyph-name="fi" unicode="fi" horiz-adv-x="1388" 
d="M281 1112q0 198 114 307t310 109q109 0 223 -35t211 -98l-97 -172q-172 104 -315 104q-106 0 -165.5 -58t-59.5 -165v-60h729v-1044h-221v848h-508v-848h-221v848h-213v196h213v68z" />
    <glyph glyph-name="fl" unicode="fl" horiz-adv-x="1390" 
d="M281 1114q0 220 124 336.5t359 116.5t469 -94v-1473h-221v1329q-98 31 -240 31q-149 0 -209.5 -59t-60.5 -205v-52h313v-196h-313v-848h-221v848h-213v196h213v70z" />
    <glyph glyph-name="f_f.liga" unicode="ff" horiz-adv-x="1589" 
d="M1018 1174q0 164 88 258t242 94q129 0 241 -62l-71 -174q-64 35 -142 35q-67 0 -102 -41t-35 -119v-121h328v-196h-328v-848h-221v848h-516v-848h-221v848h-213v196h213v130q0 164 86.5 258t238.5 94q128 0 238 -62l-72 -174q-61 35 -137 35q-133 0 -133 -160v-121h516
v130z" />
    <glyph glyph-name="f_f_i.liga" unicode="ffi" horiz-adv-x="2125" 
d="M1018 1112q0 198 114 307t310 109q109 0 223 -35t211 -98l-96 -172q-172 104 -316 104q-106 0 -165.5 -58.5t-59.5 -164.5v-60h729v-1044h-221v848h-508v-848h-221v848h-516v-848h-221v848h-213v196h213v130q0 164 86.5 258t238.5 94q128 0 238 -62l-72 -174
q-61 35 -137 35q-133 0 -133 -160v-121h516v68z" />
    <glyph glyph-name="f_f_j.liga" unicode="ffj" horiz-adv-x="2125" 
d="M1018 1112q0 195 112.5 305.5t311.5 110.5q109 0 223 -35t211 -98l-96 -172q-170 104 -316 104q-106 0 -165.5 -58.5t-59.5 -164.5v-60h729v-1198q0 -158 -85.5 -244.5t-240.5 -86.5q-94 0 -186 28l47 197q69 -16 115 -16q70 0 99.5 36.5t29.5 122.5v965h-508v-848h-221
v848h-516v-848h-221v848h-213v196h213v130q0 164 86.5 258t238.5 94q127 0 238 -62l-72 -174q-57 35 -137 35q-133 0 -133 -160v-121h516v68z" />
    <glyph glyph-name="f_f_l.liga" unicode="ffl" horiz-adv-x="2129" 
d="M1020 1114q0 220 124 336.5t359 116.5q238 0 469 -94v-1473h-221v1329q-102 31 -240 31q-149 0 -209.5 -59t-60.5 -205v-52h313v-196h-313v-848h-221v848h-518v-848h-221v848h-213v196h213v127q0 165 86.5 259t238.5 94q127 0 238 -62l-72 -174q-57 35 -137 35
q-133 0 -133 -160v-119h518v70z" />
    <glyph glyph-name="uni00660066013C.liga" unicode="ff&#x13c;" horiz-adv-x="2129" 
d="M1020 1114q0 220 124 336.5t359 116.5q238 0 469 -94v-1473h-221v1329q-102 31 -240 31q-149 0 -209.5 -59t-60.5 -205v-52h313v-196h-313v-848h-221v848h-518v-848h-221v848h-213v196h213v127q0 165 86.5 259t238.5 94q127 0 238 -62l-72 -174q-57 35 -137 35
q-133 0 -133 -160v-119h518v70zM1731 -231q0 57 33 93t87 36q66 0 104 -44.5t38 -119.5q0 -145 -154 -287l-72 68q35 38 53.5 68.5t28.5 68.5q-52 4 -85 37.5t-33 79.5z" />
    <glyph glyph-name="f_f_t.liga" unicode="fft" horiz-adv-x="2340" 
d="M1018 1174q0 164 88 258t242 94q129 0 241 -62l-71 -174q-64 35 -142 35q-67 0 -102 -41t-35 -119v-121h496v244h221v-244h295v-196h-295v-496q0 -77 35.5 -118t103.5 -41q61 0 139 34l70 -188q-109 -53 -231 -53q-157 0 -247.5 96.5t-90.5 259.5v506h-496v-848h-221v848
h-516v-848h-221v848h-213v196h213v130q0 164 87.5 258t241.5 94q130 0 242 -62l-72 -174q-64 35 -141 35q-67 0 -102 -41t-35 -119v-121h516v130z" />
    <glyph glyph-name="f_f_tcaron.liga" unicode="ff&#x165;" horiz-adv-x="2340" 
d="M1018 1174q0 164 88 258t242 94q129 0 241 -62l-71 -174q-64 35 -142 35q-67 0 -102 -41t-35 -119v-121h496v244h221v-244h295v-196h-295v-496q0 -77 35.5 -118t103.5 -41q61 0 139 34l70 -188q-109 -53 -231 -53q-157 0 -247.5 96.5t-90.5 259.5v506h-496v-848h-221v848
h-516v-848h-221v848h-213v196h213v130q0 164 87.5 258t241.5 94q130 0 242 -62l-72 -174q-64 35 -141 35q-67 0 -102 -41t-35 -119v-121h516v130zM2128 1153l65 363h226l-119 -363h-172z" />
    <glyph glyph-name="uni006600660163.liga" unicode="ff&#x163;" horiz-adv-x="2340" 
d="M1018 1174q0 164 88 258t242 94q129 0 241 -62l-71 -174q-64 35 -142 35q-67 0 -102 -41t-35 -119v-121h496v244h221v-244h295v-196h-295v-496q0 -77 35.5 -118t103.5 -41q61 0 139 34l70 -188q-83 -41 -178 -51l-15 -76q94 2 150.5 -50.5t56.5 -142.5q0 -99 -75 -157
t-191 -58q-126 0 -227 78l76 117q59 -47 139 -47q104 0 104 72q0 35 -24 51t-60 15t-78 -5l-38 37l36 174q-116 26 -180.5 117.5t-64.5 228.5v506h-496v-848h-221v848h-516v-848h-221v848h-213v196h213v130q0 164 87.5 258t241.5 94q130 0 242 -62l-72 -174q-64 35 -141 35
q-67 0 -102 -41t-35 -119v-121h516v130z" />
    <glyph glyph-name="uni00660066021B.liga" unicode="ff&#x21b;" horiz-adv-x="2340" 
d="M1018 1174q0 164 88 258t242 94q129 0 241 -62l-71 -174q-64 35 -142 35q-67 0 -102 -41t-35 -119v-121h496v244h221v-244h295v-196h-295v-496q0 -77 35.5 -118t103.5 -41q61 0 139 34l70 -188q-109 -53 -231 -53q-157 0 -247.5 96.5t-90.5 259.5v506h-496v-848h-221v848
h-516v-848h-221v848h-213v196h213v130q0 164 87.5 258t241.5 94q130 0 242 -62l-72 -174q-64 35 -141 35q-67 0 -102 -41t-35 -119v-121h516v130zM1919 -231q0 57 33.5 93t87.5 36q66 0 103.5 -44.5t37.5 -119.5q0 -146 -153 -287l-72 68q35 38 53.5 68.5t28.5 68.5
q-52 4 -85.5 37.5t-33.5 79.5z" />
    <glyph glyph-name="f_j.liga" unicode="fj" horiz-adv-x="1388" 
d="M281 1112q0 198 114 307t310 109q109 0 223 -35t211 -98l-97 -172q-172 104 -315 104q-106 0 -165.5 -58.5t-59.5 -164.5v-60h729v-1198q0 -156 -84 -243.5t-242 -87.5q-94 0 -186 28l47 197q66 -16 115 -16q72 0 100.5 38t28.5 121v965h-508v-848h-221v848h-213v196h213
v68z" />
    <glyph glyph-name="uni0066013C.liga" unicode="f&#x13c;" horiz-adv-x="1390" 
d="M281 1114q0 220 124 336.5t359 116.5t469 -94v-1473h-221v1329q-98 31 -240 31q-149 0 -209.5 -59t-60.5 -205v-52h313v-196h-313v-848h-221v848h-213v196h213v70zM991 -231q0 57 33.5 93t87.5 36q66 0 103.5 -44.5t37.5 -119.5q0 -146 -153 -287l-72 68q35 38 53.5 68.5
t28.5 68.5q-52 4 -85.5 37.5t-33.5 79.5z" />
    <glyph glyph-name="f_t.liga" unicode="ft" horiz-adv-x="1603" 
d="M281 1174q0 164 87.5 258t241.5 94q130 0 242 -62l-72 -174q-64 35 -141 35q-67 0 -102 -41t-35 -119v-121h495v244h222v-244h294v-196h-294v-496q0 -77 35.5 -118t103.5 -41q61 0 139 34l70 -188q-109 -53 -232 -53q-157 0 -247.5 96.5t-90.5 259.5v506h-495v-848h-221
v848h-213v196h213v130z" />
    <glyph glyph-name="f_tcaron.liga" unicode="f&#x165;" horiz-adv-x="1603" 
d="M281 1174q0 164 87.5 258t241.5 94q130 0 242 -62l-72 -174q-64 35 -141 35q-67 0 -102 -41t-35 -119v-121h495v244h222v-244h294v-196h-294v-496q0 -77 35.5 -118t103.5 -41q61 0 139 34l70 -188q-109 -53 -232 -53q-157 0 -247.5 96.5t-90.5 259.5v506h-495v-848h-221
v848h-213v196h213v130zM1391 1153l65 363h225l-118 -363h-172z" />
    <glyph glyph-name="uni00660163.liga" unicode="f&#x163;" horiz-adv-x="1603" 
d="M281 1174q0 164 87.5 258t241.5 94q130 0 242 -62l-72 -174q-64 35 -141 35q-67 0 -102 -41t-35 -119v-121h495v244h222v-244h294v-196h-294v-496q0 -77 35.5 -118t103.5 -41q61 0 139 34l70 -188q-83 -41 -178 -51l-15 -76q94 2 150.5 -50.5t56.5 -142.5q0 -99 -75 -157
t-191 -58q-127 0 -228 78l76 117q59 -47 140 -47q104 0 104 72q0 35 -24 51t-60 15t-78 -5l-39 37l37 174q-117 26 -181.5 117.5t-64.5 228.5v506h-495v-848h-221v848h-213v196h213v130z" />
    <glyph glyph-name="uni0066021B.liga" unicode="f&#x21b;" horiz-adv-x="1603" 
d="M281 1174q0 164 87.5 258t241.5 94q130 0 242 -62l-72 -174q-64 35 -141 35q-67 0 -102 -41t-35 -119v-121h495v244h222v-244h294v-196h-294v-496q0 -77 35.5 -118t103.5 -41q61 0 139 34l70 -188q-109 -53 -232 -53q-157 0 -247.5 96.5t-90.5 259.5v506h-495v-848h-221
v848h-213v196h213v130zM1182 -231q0 57 33.5 93t87.5 36q66 0 103.5 -44.5t37.5 -119.5q0 -145 -154 -287l-71 68q62 67 81 137q-52 4 -85 37.5t-33 79.5z" />
    <glyph glyph-name=".notdef" horiz-adv-x="1605" 
d="M174 -82v1598h1258v-1598h-1258zM350 82h905v1270h-905v-1270zM461 1012q128 194 342 194q143 0 231 -72t88 -198q0 -82 -40.5 -141.5t-116.5 -124.5q-56 -46 -74.5 -80t-18.5 -92v-37h-159v55q0 85 32 138t113 118q98 79 98 152q0 55 -42.5 93t-120.5 38
q-70 0 -122.5 -35.5t-97.5 -101.5zM690 276q0 43 30.5 71t72.5 28t72 -28t30 -71t-30 -70.5t-72 -27.5q-43 0 -73 27.5t-30 70.5z" />
    <glyph glyph-name=".null" horiz-adv-x="1228" 
 />
    <glyph glyph-name="nonmarkingreturn" horiz-adv-x="682" 
 />
    <glyph glyph-name="CR" unicode="&#xd;" horiz-adv-x="491" 
 />
    <glyph glyph-name="space" unicode=" " horiz-adv-x="491" 
 />
    <glyph glyph-name="exclam" unicode="!" horiz-adv-x="548" 
d="M184 350l-18 563l-6 521h229l-6 -521l-18 -563h-181zM129 121q0 62 42 101.5t103 39.5t103.5 -39.5t42.5 -101.5t-42.5 -101.5t-103.5 -39.5t-103 39.5t-42 101.5z" />
    <glyph glyph-name="quotedbl" unicode="&#x22;" horiz-adv-x="694" 
d="M418 1059l-10 491h192l-10 -491h-172zM94 1550h193l-11 -491h-172z" />
    <glyph glyph-name="numbersign" unicode="#" horiz-adv-x="1456" 
d="M692 0l84 311h-311l-84 -311h-225l84 311h-215v199h270l117 434h-213v199h266l80 291h225l-78 -291h312l77 291h226l-80 -291h205v-199h-258l-117 -434h200v-199h-256l-83 -311h-226zM512 506h324l120 442h-323z" />
    <glyph glyph-name="dollar" unicode="$" horiz-adv-x="1230" 
d="M549 -199v185q-131 11 -254 58t-215 122l113 186q166 -129 362 -147v430q-225 70 -328.5 173t-103.5 253q0 157 117 262.5t309 124.5v178h184v-186q212 -36 379 -174l-119 -181q-113 99 -266 134v-404q224 -78 327 -180.5t103 -247.5q0 -152 -116.5 -259.5t-307.5 -135.5
v-191h-184zM354 1071q0 -60 44 -104t157 -90v352q-93 -11 -147 -53t-54 -105zM727 211q93 15 144 58.5t51 109.5q0 59 -46.5 105t-148.5 89v-362z" />
    <glyph glyph-name="percent" unicode="%" horiz-adv-x="1613" 
d="M367 -33l-127 90l1001 1409l125 -90zM51 1122q0 141 93 232.5t237 91.5t236 -91.5t92 -232.5t-92 -232t-236 -91q-145 0 -237.5 91t-92.5 232zM213 1122q0 -74 47 -122t121 -48t120 48t46 122t-46 122t-120 48t-121 -48t-47 -122zM897 311q0 141 93 232.5t237 91.5
t235.5 -91t91.5 -233q0 -141 -91.5 -232t-235.5 -91q-145 0 -237.5 91t-92.5 232zM1059 311q0 -74 47 -122t121 -48t120 48t46 122t-46 122t-120 48t-121 -48t-47 -122z" />
    <glyph glyph-name="ampersand" unicode="&#x26;" horiz-adv-x="1411" 
d="M352 786q-79 81 -116 151.5t-37 160.5q0 158 115.5 255t303.5 97t304 -93.5t116 -246.5q0 -227 -299 -403l273 -273q71 102 121 289l200 -53q-59 -232 -168 -389l162 -162l-158 -162l-155 158q-173 -135 -422 -135q-223 0 -358.5 106t-135.5 279q0 117 76 218t213 169z
M328 385q0 -92 73 -142t203 -50q157 0 260 73l-342 348q-103 -55 -148.5 -107.5t-45.5 -121.5zM426 1102q0 -44 23.5 -87t82.5 -102l70 -69q108 70 158.5 129.5t50.5 120.5q0 70 -53.5 112.5t-141.5 42.5t-139 -39.5t-51 -107.5z" />
    <glyph glyph-name="quotesingle" unicode="'" horiz-adv-x="385" 
d="M104 1059l-10 491h197l-10 -491h-177z" />
    <glyph glyph-name="parenleft" unicode="(" horiz-adv-x="671" 
d="M496 -350q-418 415 -418 954q0 540 418 955l139 -136q-165 -186 -248.5 -384t-83.5 -435t83.5 -435t248.5 -384z" />
    <glyph glyph-name="parenright" unicode=")" horiz-adv-x="671" 
d="M37 -215q165 186 248.5 384t83.5 435t-83.5 435t-248.5 384l139 136q418 -415 418 -955q0 -539 -418 -954z" />
    <glyph glyph-name="asterisk" unicode="*" horiz-adv-x="745" 
d="M293 901l8 182l-156 -100l-79 141l165 84l-165 82l79 142l156 -101l-8 185h160l-9 -185l156 101l80 -142l-166 -82l166 -84l-80 -141l-156 100l9 -182h-160z" />
    <glyph glyph-name="plus" unicode="+" horiz-adv-x="1069" 
d="M434 184v340h-332v197h332v340h201v-340h332v-197h-332v-340h-201z" />
    <glyph glyph-name="comma" unicode="," horiz-adv-x="522" 
d="M129 -252q58 61 84.5 113t32.5 119q-59 3 -98 44t-39 101t41 100.5t104 40.5q72 0 114 -56t42 -151q0 -109 -53 -212.5t-148 -178.5z" />
    <glyph glyph-name="hyphen" unicode="-" horiz-adv-x="919" 
d="M827 461h-735v186h735v-186z" />
    <glyph glyph-name="period" unicode="." horiz-adv-x="507" 
d="M254 -20q-61 0 -103 39.5t-42 101.5t42 101.5t103 39.5t103 -39.5t42 -101.5t-42 -101.5t-103 -39.5z" />
    <glyph glyph-name="slash" unicode="/" horiz-adv-x="942" 
d="M55 -96l641 1612h191l-641 -1612h-191z" />
    <glyph glyph-name="zero" unicode="0" horiz-adv-x="1372" 
d="M686 -25q-272 0 -428 198t-156 544q0 345 156 543t428 198t428 -198t156 -543q0 -344 -156.5 -543t-427.5 -199zM332 717q0 -241 95.5 -382.5t258.5 -141.5q164 0 259 140.5t95 383.5t-95 383.5t-259 140.5q-163 0 -258.5 -141.5t-95.5 -382.5z" />
    <glyph glyph-name="one" unicode="1" horiz-adv-x="823" 
d="M424 0v1128q-155 -92 -367 -92v201q130 0 224.5 47t179.5 150h188v-1434h-225z" />
    <glyph glyph-name="two" unicode="2" horiz-adv-x="1200" 
d="M84 0v184l510 471q229 210 229 379q0 90 -67 148.5t-172 58.5q-180 0 -318 -203l-170 138q94 146 212 214t278 68q204 0 334.5 -117t130.5 -301q0 -148 -71 -271t-235 -271l-307 -281h654v-217h-1008z" />
    <glyph glyph-name="three" unicode="3" horiz-adv-x="1140" 
d="M549 -25q-152 0 -279 63.5t-213 182.5l156 141q136 -174 332 -174q122 0 197 69.5t75 180.5q0 61 -23.5 108t-63.5 74t-94 43t-115.5 15.5t-127.5 -10.5l-67 125l368 426h-567v215h858v-183l-334 -383q169 -20 280 -141.5t111 -294.5q0 -200 -137.5 -328.5t-355.5 -128.5
z" />
    <glyph glyph-name="four" unicode="4" horiz-adv-x="1277" 
d="M809 0v276h-752v211l768 947h209v-942h170v-216h-170v-276h-225zM334 487h479v588z" />
    <glyph glyph-name="five" unicode="5" horiz-adv-x="1144" 
d="M553 -25q-153 0 -281.5 63.5t-214.5 182.5l156 144q138 -177 332 -177q130 0 205 71.5t75 193.5q0 118 -84.5 190t-220.5 72q-133 0 -272 -51l-113 81l58 689h786v-215h-590l-27 -320q92 29 189 29q215 0 357.5 -133.5t142.5 -341.5q0 -214 -137.5 -346t-360.5 -132z" />
    <glyph glyph-name="six" unicode="6" horiz-adv-x="1245" 
d="M637 -25q-249 0 -392 187t-143 522q0 362 156.5 566t433.5 204q238 0 408 -156l-127 -163q-55 48 -128.5 77t-146.5 29q-160 0 -258.5 -113.5t-107.5 -310.5q69 74 160.5 112t191.5 38q201 0 338 -143.5t137 -352.5q0 -220 -145 -358t-377 -138zM352 471
q0 -128 79.5 -205.5t209.5 -77.5q131 0 212 78t81 205t-81 205t-212 78q-130 0 -209.5 -77.5t-79.5 -205.5z" />
    <glyph glyph-name="seven" unicode="7" horiz-adv-x="1026" 
d="M207 0l522 1219h-672v215h932v-183l-538 -1251h-244z" />
    <glyph glyph-name="eight" unicode="8" horiz-adv-x="1253" 
d="M627 -25q-236 0 -382.5 120t-146.5 313q0 111 54.5 200t156.5 146q-168 110 -168 305q0 175 136 287t350 112q213 0 349 -112t136 -287q0 -195 -168 -305q102 -59 156.5 -147.5t54.5 -198.5q0 -194 -146 -313.5t-382 -119.5zM324 414q0 -103 84 -166.5t219 -63.5
t219 63.5t84 166.5t-84 166t-219 63t-219 -63t-84 -166zM365 1047q0 -91 72.5 -147t189.5 -56t189.5 56t72.5 147t-72.5 146.5t-189.5 55.5t-189.5 -55.5t-72.5 -146.5z" />
    <glyph glyph-name="nine" unicode="9" horiz-adv-x="1241" 
d="M551 -23q-223 0 -406 140l113 180q129 -100 291 -100q160 0 253.5 107t104.5 296q-140 -143 -346 -143q-202 0 -338.5 144t-136.5 355q0 221 143.5 360.5t370.5 139.5q258 0 398.5 -183.5t140.5 -524.5q0 -364 -155 -567.5t-433 -203.5zM311 956q0 -129 81 -207.5
t212 -78.5t212 78.5t81 207.5t-81 208t-212 79t-212 -79t-81 -208z" />
    <glyph glyph-name="colon" unicode=":" horiz-adv-x="548" 
d="M274 -20q-61 0 -103 39.5t-42 101.5t42 101.5t103 39.5t103.5 -39.5t42.5 -101.5t-42.5 -101.5t-103.5 -39.5zM129 715q0 62 42 101.5t103 39.5t103.5 -39.5t42.5 -101.5t-42.5 -102t-103.5 -40t-103 40t-42 102z" />
    <glyph glyph-name="semicolon" unicode=";" horiz-adv-x="557" 
d="M150 -252q57 60 83.5 112.5t32.5 119.5q-59 3 -98 44t-39 101t41 100.5t104 40.5q72 0 114 -56t42 -151q0 -109 -53 -212.5t-148 -178.5zM129 715q0 62 42 101.5t103 39.5t103.5 -39.5t42.5 -101.5t-42.5 -102t-103.5 -40t-103 40t-42 102z" />
    <glyph glyph-name="less" unicode="&#x3c;" horiz-adv-x="1042" 
d="M961 1104v-221l-580 -271l580 -270v-219l-889 426v127z" />
    <glyph glyph-name="equal" unicode="=" horiz-adv-x="1038" 
d="M102 711v188h834v-188h-834zM102 344v188h834v-188h-834z" />
    <glyph glyph-name="greater" unicode="&#x3e;" horiz-adv-x="1042" 
d="M82 123v221l580 270l-580 271v219l889 -426v-127z" />
    <glyph glyph-name="question" unicode="?" horiz-adv-x="1034" 
d="M410 455q0 123 41 198t147 162q89 73 117 124t28 116q0 87 -61.5 141.5t-175.5 54.5q-182 0 -316 -192l-159 125q181 272 483 272q208 0 333.5 -105.5t125.5 -275.5q0 -119 -59.5 -212t-182.5 -195q-59 -49 -82.5 -95.5t-23.5 -130.5v-92h-215v105zM371 121
q0 62 42 101.5t103 39.5t103.5 -39.5t42.5 -101.5t-42.5 -101.5t-103.5 -39.5t-103 39.5t-42 101.5z" />
    <glyph glyph-name="at" unicode="@" horiz-adv-x="2093" 
d="M1047 -475q-203 0 -379.5 72t-301.5 197.5t-196.5 303.5t-71.5 383q0 206 72 384.5t197 304.5t301.5 198t378.5 72q209 0 386.5 -68t300.5 -187t192 -284.5t69 -355.5q0 -108 -23.5 -194.5t-61 -139.5t-87 -88t-98 -48.5t-97.5 -13.5q-102 0 -181.5 46t-119.5 126
q-123 -178 -323 -178q-176 0 -294 120.5t-118 305.5q0 184 117.5 305t294.5 121q168 0 286 -131v109h205v-369q0 -143 34 -204.5t103 -61.5q73 0 115.5 75t42.5 224q0 199 -90 356.5t-260 248.5t-393 91q-214 0 -384 -98t-265 -272.5t-95 -393.5q0 -218 95 -392.5t265 -273
t384 -98.5q295 0 495 181l123 -162q-256 -211 -618 -211zM807 481q0 -99 64.5 -165t160.5 -66q97 0 160 65.5t63 165.5t-63 166t-160 66q-96 0 -160.5 -66.5t-64.5 -165.5z" />
    <glyph glyph-name="A" unicode="A" horiz-adv-x="1468" 
d="M41 0l559 1434h274l553 -1434h-237l-115 303h-680l-116 -303h-238zM473 510h526l-262 688z" />
    <glyph glyph-name="B" unicode="B" horiz-adv-x="1333" 
d="M174 0v1434h588q189 0 307.5 -109.5t118.5 -284.5q0 -189 -146 -299q90 -52 141.5 -141.5t51.5 -200.5q0 -175 -124 -287t-318 -112h-619zM401 211h371q107 0 169.5 56.5t62.5 152.5t-62.5 152.5t-169.5 56.5h-371v-418zM401 829h349q96 0 152 54t56 143t-56 143t-152 54
h-349v-394z" />
    <glyph glyph-name="C" unicode="C" horiz-adv-x="1492" 
d="M815 -25q-210 0 -374.5 96.5t-253.5 265t-89 380.5q0 211 88.5 379.5t251 265t369.5 96.5q182 0 333.5 -79t266.5 -226l-164 -143q-78 108 -193 167.5t-243 59.5q-140 0 -248.5 -67.5t-167.5 -185.5t-59 -267q0 -229 132 -374.5t351 -145.5q141 0 262 62t203 175
l164 -139q-239 -320 -629 -320z" />
    <glyph glyph-name="D" unicode="D" horiz-adv-x="1511" 
d="M174 0v1434h510q217 0 382.5 -88.5t256 -251.5t90.5 -377t-90.5 -377t-256 -251.5t-382.5 -88.5h-510zM403 219h267q238 0 374 133t136 365t-136 364.5t-374 132.5h-267v-995z" />
    <glyph glyph-name="E" unicode="E" horiz-adv-x="1212" 
d="M174 0v1434h907v-213h-678v-392h625v-206h-625v-408h703v-215h-932z" />
    <glyph glyph-name="F" unicode="F" horiz-adv-x="1110" 
d="M174 0v1434h870v-220h-641v-411h594v-215h-594v-588h-229z" />
    <glyph glyph-name="G" unicode="G" horiz-adv-x="1566" 
d="M844 -25q-224 0 -394.5 95.5t-261 263.5t-90.5 383q0 158 53.5 294.5t148.5 235t232.5 155t298.5 56.5q163 0 305 -59t250 -170l-147 -156q-71 76 -180 120t-228 44q-222 0 -360.5 -146t-138.5 -374q0 -231 137.5 -375.5t370.5 -144.5q108 0 214.5 32t180.5 90v246h-461
v215h680v-559q-114 -121 -274.5 -183.5t-335.5 -62.5z" />
    <glyph glyph-name="H" unicode="H" horiz-adv-x="1513" 
d="M1110 0v621h-707v-621h-229v1434h229v-594h707v594h229v-1434h-229z" />
    <glyph glyph-name="I" unicode="I" horiz-adv-x="577" 
d="M174 0v1434h229v-1434h-229z" />
    <glyph glyph-name="J" unicode="J" horiz-adv-x="950" 
d="M338 -25q-83 0 -158 19.5t-168 62.5l90 193q117 -57 236 -57q116 0 170.5 78.5t54.5 246.5v916h230v-938q0 -254 -117.5 -387.5t-337.5 -133.5z" />
    <glyph glyph-name="K" unicode="K" horiz-adv-x="1314" 
d="M1004 0l-467 616h-134v-616h-229v1434h229v-605h129l453 605h287l-535 -705l555 -729h-288z" />
    <glyph glyph-name="L" unicode="L" horiz-adv-x="1128" 
d="M174 0v1434h229v-1215h654v-219h-883z" />
    <glyph glyph-name="M" unicode="M" horiz-adv-x="1789" 
d="M834 459l-431 583v-1042h-229v1434h205l516 -705l516 705h205v-1434h-230v1042l-430 -583h-122z" />
    <glyph glyph-name="N" unicode="N" horiz-adv-x="1546" 
d="M174 0v1434h205l766 -1031v1031h227v-1434h-207l-764 1030v-1030h-227z" />
    <glyph glyph-name="O" unicode="O" horiz-adv-x="1675" 
d="M838 -25q-212 0 -381.5 95.5t-264 265t-94.5 381.5q0 159 56 297t153.5 235.5t235 153t295.5 55.5q211 0 380 -95.5t264 -265t95 -380.5t-95 -381t-264 -265.5t-380 -95.5zM332 717q0 -226 142.5 -373t363.5 -147t363 147t142 373t-142 373t-363 147t-363.5 -147
t-142.5 -373z" />
    <glyph glyph-name="P" unicode="P" horiz-adv-x="1243" 
d="M174 0v1434h522q226 0 364 -134t138 -354t-138 -353.5t-364 -133.5h-293v-459h-229zM401 674h279q133 0 211 73.5t78 198.5q0 126 -78 199.5t-211 73.5h-279v-545z" />
    <glyph glyph-name="Q" unicode="Q" horiz-adv-x="1675" 
d="M838 -25q-212 0 -381.5 95.5t-264 265t-94.5 381.5q0 159 56 297t153.5 235.5t235 153t295.5 55.5q211 0 380 -95.5t264 -265t95 -380.5q0 -171 -64 -316.5t-180 -246.5l164 -242l-168 -117l-166 248q-155 -68 -325 -68zM332 717q0 -226 142.5 -373t363.5 -147
q112 0 200 36l-221 328l160 113l223 -332q143 146 143 375q0 226 -142 373t-363 147t-363.5 -147t-142.5 -373z" />
    <glyph glyph-name="R" unicode="R" horiz-adv-x="1355" 
d="M174 0v1434h571q142 0 256 -62t176 -167.5t62 -233.5q0 -147 -82 -263t-221 -167l344 -541h-258l-317 508h-302v-508h-229zM399 715h338q128 0 200.5 68t72.5 184t-72.5 184t-200.5 68h-338v-504z" />
    <glyph glyph-name="S" unicode="S" horiz-adv-x="1234" 
d="M623 -16q-150 0 -293.5 50t-249.5 138l117 180q194 -149 432 -149q140 0 218.5 46.5t78.5 129.5q0 78 -83 136t-278 118q-228 70 -333 173.5t-105 254.5q0 172 138 280.5t356 108.5q132 0 264 -48.5t237 -137.5l-125 -179q-74 66 -177.5 106t-205.5 40q-117 0 -186.5 -44
t-69.5 -116q0 -74 72 -127.5t264 -116.5q244 -79 355.5 -184t111.5 -256q0 -175 -152 -289t-386 -114z" />
    <glyph glyph-name="T" unicode="T" horiz-adv-x="1220" 
d="M496 0v1214h-443v220h1114v-220h-442v-1214h-229z" />
    <glyph glyph-name="U" unicode="U" horiz-adv-x="1474" 
d="M737 -25q-258 0 -418.5 162t-160.5 432v865h229v-850q0 -188 91 -287.5t259 -99.5t259 99.5t91 287.5v850h230v-865q0 -269 -160.5 -431.5t-419.5 -162.5z" />
    <glyph glyph-name="V" unicode="V" horiz-adv-x="1427" 
d="M580 0l-539 1434h246l430 -1166l162 441l264 725h243l-532 -1434h-274z" />
    <glyph glyph-name="W" unicode="W" horiz-adv-x="2189" 
d="M492 0l-441 1434h240l342 -1153l344 1101h237l349 -1103l338 1155h237l-434 -1434h-277l-184 571l-147 467l-144 -467l-184 -571h-276z" />
    <glyph glyph-name="X" unicode="X" horiz-adv-x="1339" 
d="M25 0l505 743l-462 691h274l172 -256l162 -246l158 246l170 256h272l-461 -695l500 -739h-275l-161 240l-207 311l-207 -311l-164 -240h-276z" />
    <glyph glyph-name="Y" unicode="Y" horiz-adv-x="1361" 
d="M567 0v545l-532 889h266l383 -646l381 646h262l-530 -887v-547h-230z" />
    <glyph glyph-name="Z" unicode="Z" horiz-adv-x="1226" 
d="M104 0v184l717 1035h-694v215h989v-183l-719 -1034h748v-217h-1041z" />
    <glyph glyph-name="bracketleft" unicode="[" horiz-adv-x="718" 
d="M164 -289v1786h477v-184h-268v-1417h268v-185h-477z" />
    <glyph glyph-name="backslash" unicode="\" horiz-adv-x="942" 
d="M887 -96h-191l-641 1612h191z" />
    <glyph glyph-name="bracketright" unicode="]" horiz-adv-x="718" 
d="M555 -289h-477v185h268v1417h-268v184h477v-1786z" />
    <glyph glyph-name="asciicircum" unicode="^" horiz-adv-x="1019" 
d="M76 897l340 584h188l340 -584h-225l-211 375l-213 -375h-219z" />
    <glyph glyph-name="underscore" unicode="_" horiz-adv-x="1386" 
d="M1292 -350h-1200v149h1200v-149z" />
    <glyph glyph-name="grave" unicode="`" horiz-adv-x="806" 
d="M602 1217h-199l-198 299h266z" />
    <glyph glyph-name="a" unicode="a" horiz-adv-x="1173" 
d="M455 -14q-167 0 -270 89.5t-103 235.5q0 158 116 253t308 95q153 0 307 -53v53q0 103 -62 150t-198 47q-147 0 -326 -78l-63 185q116 51 210 73.5t195 22.5q223 0 342 -102.5t119 -294.5v-662h-211l-2 133q-64 -70 -158.5 -108.5t-203.5 -38.5zM303 322q0 -68 50.5 -107
t144.5 -39q131 0 218 70t99 178q-159 51 -283 51q-110 0 -169.5 -39.5t-59.5 -113.5z" />
    <glyph glyph-name="b" unicode="b" horiz-adv-x="1349" 
d="M745 -25q-227 0 -370 162v-137h-217v1516h221v-605q142 158 366 158t369.5 -154t145.5 -393t-145.5 -393t-369.5 -154zM375 522q0 -151 93 -245.5t239 -94.5t238.5 94.5t92.5 245.5t-92.5 245.5t-238.5 94.5t-239 -94.5t-93 -245.5z" />
    <glyph glyph-name="c" unicode="c" horiz-adv-x="1126" 
d="M627 -25q-232 0 -384.5 155.5t-152.5 391.5q0 237 152.5 392t386.5 155q131 0 243 -49.5t185 -140.5l-135 -142q-57 60 -133 92.5t-156 32.5q-141 0 -231.5 -95.5t-90.5 -244.5q0 -151 88 -245.5t236 -94.5q90 0 167.5 36.5t131.5 105.5l147 -136q-70 -102 -189 -157.5
t-265 -55.5z" />
    <glyph glyph-name="d" unicode="d" horiz-adv-x="1349" 
d="M604 -25q-224 0 -369 154t-145 393t145 393t369 154q225 0 367 -158v605h221v-1516h-217v137q-143 -162 -371 -162zM311 522q0 -151 93 -245.5t239 -94.5t239 94.5t93 245.5t-93 245.5t-239 94.5t-239 -94.5t-93 -245.5z" />
    <glyph glyph-name="e" unicode="e" horiz-adv-x="1228" 
d="M637 -25q-244 0 -395.5 152.5t-151.5 394.5q0 239 150.5 393t382.5 154q173 0 303.5 -89t188.5 -239.5t28 -326.5h-830q28 -104 118 -171t210 -67q188 0 326 135l131 -143q-78 -91 -195 -142t-266 -51zM311 602h627q-22 119 -106.5 192.5t-208.5 73.5
q-121 0 -205.5 -72.5t-106.5 -193.5z" />
    <glyph glyph-name="f" unicode="f" horiz-adv-x="851" 
d="M281 1174q0 164 87.5 258t241.5 94q130 0 242 -62l-72 -174q-64 35 -141 35q-67 0 -102 -41t-35 -119v-121h327v-196h-327v-848h-221v848h-213v196h213v130z" />
    <glyph glyph-name="g" unicode="g" horiz-adv-x="1294" 
d="M674 -684q-294 0 -450 85t-156 245q0 68 28.5 126.5t77.5 92.5q-80 68 -80 172q0 147 150 242q-97 124 -97 296q0 209 136 339t356 130h604v-192h-227q114 -114 114 -287q0 -200 -138.5 -329.5t-352.5 -129.5q-143 0 -256 58q-76 -36 -76 -96t83.5 -85.5t316.5 -35.5
q273 -12 397.5 -83t124.5 -214q0 -158 -146 -246t-409 -88zM285 -334q0 -79 89 -114t290 -35q348 0 348 121q0 55 -73.5 80t-242.5 28q-207 3 -340 37q-30 -21 -50.5 -54t-20.5 -63zM365 575q0 -120 76 -195t198 -75q121 0 197.5 75.5t76.5 194.5t-76.5 195t-197.5 76
t-197.5 -76t-76.5 -195z" />
    <glyph glyph-name="h" unicode="h" horiz-adv-x="1273" 
d="M158 0v1516h221v-596q133 139 330 139q189 0 305 -118.5t116 -311.5v-629h-221v590q0 128 -61.5 195t-179.5 67q-134 0 -211.5 -80t-77.5 -217v-555h-221z" />
    <glyph glyph-name="i" unicode="i" horiz-adv-x="536" 
d="M158 0v1044h221v-1044h-221zM109 1341q0 72 44 117t115 45t115.5 -45t44.5 -117t-44.5 -116.5t-115.5 -44.5t-115 44.5t-44 116.5z" />
    <glyph glyph-name="j" unicode="j" horiz-adv-x="536" 
d="M53 -485q-94 0 -186 28l47 197q69 -16 115 -16q70 0 99.5 36.5t29.5 122.5v1161h221v-1198q0 -158 -85.5 -244.5t-240.5 -86.5zM109 1341q0 72 44 117t115 45t115.5 -45t44.5 -117t-44.5 -116.5t-115.5 -44.5t-115 44.5t-44 116.5z" />
    <glyph glyph-name="k" unicode="k" horiz-adv-x="1105" 
d="M815 0l-323 438h-113v-438h-221v1516h221v-877h121l301 405h264l-381 -509l401 -535h-270z" />
    <glyph glyph-name="l" unicode="l" horiz-adv-x="536" 
d="M158 0v1516h221v-1516h-221z" />
    <glyph glyph-name="m" unicode="m" horiz-adv-x="1984" 
d="M158 0v1044h217v-129q135 144 317 144q107 0 190 -45.5t134 -130.5q150 176 387 176q199 0 318.5 -117.5t119.5 -314.5v-627h-221v590q0 122 -65 192t-177 70q-117 0 -192.5 -84t-75.5 -213v-555h-221v590q0 122 -65 192t-177 70q-117 0 -192.5 -84t-75.5 -213v-555h-221
z" />
    <glyph glyph-name="n" unicode="n" horiz-adv-x="1273" 
d="M158 0v1044h217v-131q71 76 150 111t184 35q190 0 305.5 -119.5t115.5 -314.5v-625h-221v586q0 129 -61.5 197.5t-179.5 68.5q-134 0 -211.5 -81t-77.5 -220v-551h-221z" />
    <glyph glyph-name="o" unicode="o" horiz-adv-x="1290" 
d="M645 -25q-245 0 -400 153t-155 394t155 394t400 153t400 -153t155 -394t-155 -394t-400 -153zM311 522q0 -151 93.5 -245.5t240.5 -94.5t240.5 94.5t93.5 245.5t-93.5 245.5t-240.5 94.5t-240.5 -94.5t-93.5 -245.5z" />
    <glyph glyph-name="p" unicode="p" horiz-adv-x="1349" 
d="M745 -25q-224 0 -366 158v-604h-221v1515h217v-139q145 164 370 164q224 0 369.5 -154t145.5 -393t-145.5 -393t-369.5 -154zM375 522q0 -149 93.5 -244.5t238.5 -95.5q146 0 238.5 94.5t92.5 245.5t-92.5 245.5t-238.5 94.5q-145 0 -238.5 -95.5t-93.5 -244.5z" />
    <glyph glyph-name="q" unicode="q" horiz-adv-x="1349" 
d="M604 -25q-224 0 -369 154t-145 393t145 393t369 154q226 0 371 -164v139h217v-1515h-221v604q-142 -158 -367 -158zM311 522q0 -151 93 -245.5t239 -94.5q145 0 238.5 95.5t93.5 244.5t-93.5 244.5t-238.5 95.5q-146 0 -239 -94.5t-93 -245.5z" />
    <glyph glyph-name="r" unicode="r" horiz-adv-x="849" 
d="M158 0v1044h217v-139q135 154 321 154q71 0 142 -25l-58 -221q-70 23 -131 23q-135 0 -202.5 -94t-67.5 -242v-500h-221z" />
    <glyph glyph-name="s" unicode="s" horiz-adv-x="993" 
d="M508 -16q-246 0 -436 143l96 176q175 -113 342 -113q92 0 143.5 27.5t51.5 77.5q0 45 -50.5 78t-167.5 63q-195 51 -282.5 129.5t-87.5 200.5q0 137 100.5 216t278.5 79q114 0 221 -36.5t190 -104.5l-104 -168q-57 48 -141.5 77t-167.5 29q-160 0 -160 -94q0 -46 47 -75
t170 -60q191 -47 283 -128t92 -200q0 -144 -114.5 -230.5t-303.5 -86.5z" />
    <glyph glyph-name="t" unicode="t" horiz-adv-x="843" 
d="M575 -14q-157 0 -247 96.5t-90 259.5v510h-189v192h189v244h221v-244h295v-192h-295v-500q0 -77 35.5 -118t103.5 -41q61 0 139 34l70 -188q-109 -53 -232 -53z" />
    <glyph glyph-name="u" unicode="u" horiz-adv-x="1273" 
d="M1116 1044v-1044h-217v131q-71 -76 -150 -110.5t-184 -34.5q-190 0 -306 119.5t-116 314.5v624h222v-585q0 -129 61.5 -197.5t179.5 -68.5q134 0 211.5 81t77.5 220v550h221z" />
    <glyph glyph-name="v" unicode="v" horiz-adv-x="1169" 
d="M457 0l-420 1044h237l312 -788l311 788h236l-420 -1044h-256z" />
    <glyph glyph-name="w" unicode="w" horiz-adv-x="1763" 
d="M391 0l-344 1044h234l110 -348l133 -420l252 736h213l250 -740l135 424l111 348h231l-346 -1044h-254l-96 289l-137 407l-238 -696h-254z" />
    <glyph glyph-name="x" unicode="x" horiz-adv-x="1077" 
d="M788 0l-137 197l-112 159l-254 -356h-262l376 526l-358 518h260l139 -200l99 -148l98 148l137 200h260l-358 -518l379 -526h-267z" />
    <glyph glyph-name="y" unicode="y" horiz-adv-x="1167" 
d="M297 -479q-98 0 -188 35l57 190q52 -18 117 -18q74 0 117 33.5t77 125.5l23 62l-463 1095h242l231 -563l98 -243l86 243l201 563h235l-450 -1226q-109 -297 -383 -297z" />
    <glyph glyph-name="z" unicode="z" horiz-adv-x="1007" 
d="M94 0v158l537 694h-516v192h798v-155l-538 -696h559v-193h-840z" />
    <glyph glyph-name="braceleft" unicode="{" horiz-adv-x="778" 
d="M506 -289q-147 0 -223 84.5t-76 233.5v309q0 93 -39 133.5t-119 40.5v184q83 0 120.5 40t37.5 134v310q0 149 76 233t223 84h219v-184h-193q-116 0 -116 -133v-351q0 -160 -117 -225q117 -65 117 -225v-350q0 -133 116 -133h193v-185h-219z" />
    <glyph glyph-name="bar" unicode="|" horiz-adv-x="483" 
d="M139 -289v1805h205v-1805h-205z" />
    <glyph glyph-name="braceright" unicode="}" horiz-adv-x="778" 
d="M272 -289h-219v185h193q116 0 116 133v350q0 160 117 225q-117 65 -117 225v351q0 133 -116 133h-193v184h219q147 0 223 -84t76 -233v-310q0 -94 37.5 -134t120.5 -40v-184q-80 0 -119 -40.5t-39 -133.5v-309q0 -149 -76 -233.5t-223 -84.5z" />
    <glyph glyph-name="asciitilde" unicode="~" horiz-adv-x="1232" 
d="M106 489q14 158 99.5 250t220.5 92q149 0 242 -98q37 -38 67 -51.5t64 -13.5q99 0 114 163l211 -26q-14 -159 -99 -250.5t-220 -91.5q-149 0 -242 98q-37 39 -67 52.5t-64 13.5q-100 0 -115 -164z" />
    <glyph glyph-name="uni00A0" unicode="&#xa0;" horiz-adv-x="491" 
 />
    <glyph glyph-name="exclamdown" unicode="&#xa1;" horiz-adv-x="548" 
d="M365 750l18 -564l6 -520h-229l6 520l18 564h181zM129 979q0 62 42 101.5t103 39.5t103.5 -39.5t42.5 -101.5t-42.5 -101.5t-103.5 -39.5t-103 39.5t-42 101.5z" />
    <glyph glyph-name="cent" unicode="&#xa2;" horiz-adv-x="1126" 
d="M528 -209v193q-195 32 -316.5 180.5t-121.5 357.5q0 210 121 358.5t317 180.5v182h185v-180q104 -13 193 -61t151 -123l-135 -142q-91 94 -217 119v-668q141 22 229 136l147 -136q-59 -87 -154.5 -139.5t-213.5 -66.5v-191h-185zM311 522q0 -123 60 -210.5t166 -116.5
v653q-102 -30 -164 -118t-62 -208z" />
    <glyph glyph-name="sterling" unicode="&#xa3;" horiz-adv-x="1157" 
d="M143 170q109 106 148 192t39 179q0 25 -4 61h-260v180h202q-2 4 -10.5 23t-11 24t-9.5 23t-10 25t-8.5 24t-8 27t-6 26t-5 29t-3 29t-1.5 32q0 180 125.5 296t326.5 116q127 0 239 -52t173 -142l-156 -138q-92 119 -246 119q-111 0 -170 -54t-59 -145q0 -38 8.5 -76.5
t16.5 -60t28 -65.5t27 -60h420v-180h-375q4 -46 4 -74q0 -164 -111 -309h637v-219h-940v170z" />
    <glyph glyph-name="currency" unicode="&#xa4;" horiz-adv-x="1263" 
d="M633 94q-144 0 -262 72l-156 -156l-133 133l154 154q-78 118 -78 264q0 151 75 264l-145 146l133 133l148 -148q118 72 264 72q149 0 264 -70l152 152l133 -133l-150 -150q76 -115 76 -266q0 -153 -76 -268l144 -143l-134 -134l-147 148q-115 -70 -262 -70zM340 561
q0 -130 82 -212.5t211 -82.5t211 82t82 213t-82 213t-211 82t-211 -82.5t-82 -212.5z" />
    <glyph glyph-name="yen" unicode="&#xa5;" horiz-adv-x="1361" 
d="M225 240v180h342v112h-342v189h260l-450 713h268l381 -607l377 607h266l-450 -713h260v-189h-340v-112h340v-180h-340v-240h-230v240h-342z" />
    <glyph glyph-name="brokenbar" unicode="&#xa6;" horiz-adv-x="475" 
d="M340 420v-709h-205v709h205zM135 813v703h205v-703h-205z" />
    <glyph glyph-name="section" unicode="&#xa7;" horiz-adv-x="1071" 
d="M543 -180q-241 0 -445 143l97 166q175 -115 342 -115q93 0 146.5 31.5t53.5 89.5q0 56 -51 91.5t-172 66.5q-416 106 -416 362q0 81 43.5 147t122.5 109q-121 89 -121 236q0 136 105 223.5t274 87.5q114 0 223.5 -37t196.5 -104l-102 -162q-64 46 -150 77.5t-160 31.5
q-84 0 -129 -30.5t-45 -86.5q0 -61 49 -95.5t173 -66.5q203 -53 299 -136t96 -212q0 -76 -44.5 -145t-125.5 -113q149 -94 149 -244q0 -142 -113 -228.5t-296 -86.5zM307 664q0 -67 64.5 -111t206.5 -82q22 -7 38 -10q148 61 148 166q0 59 -58.5 102t-191.5 78q-14 3 -37 10
t-33 10q-68 -27 -102.5 -70t-34.5 -93z" />
    <glyph glyph-name="dieresis" unicode="&#xa8;" horiz-adv-x="1056" 
d="M719 1186q-58 0 -95.5 38.5t-37.5 98.5t37.5 98.5t95.5 38.5t95.5 -38.5t37.5 -98.5t-37.5 -98.5t-95.5 -38.5zM205 1323q0 60 37.5 98.5t95.5 38.5t95.5 -38.5t37.5 -98.5t-37.5 -98.5t-95.5 -38.5t-95.5 38.5t-37.5 98.5z" />
    <glyph glyph-name="copyright" unicode="&#xa9;" horiz-adv-x="1662" 
d="M831 -23q-157 0 -293 56t-232.5 154t-152 235t-55.5 295q0 210 94 379t262 264.5t377 95.5t377 -95.5t262.5 -264.5t94.5 -379t-94.5 -379.5t-262.5 -265t-377 -95.5zM279 717q0 -161 70.5 -290.5t196.5 -203t285 -73.5q241 0 397 161t156 406t-156 406t-397 161
q-159 0 -285 -73.5t-196.5 -203t-70.5 -290.5zM436 715q0 175 113 291t289 116q209 0 329 -170l-118 -98q-37 54 -92.5 83.5t-118.5 29.5q-105 0 -172.5 -72.5t-67.5 -181.5q0 -110 66 -181t174 -71q142 0 221 114l119 -92q-127 -178 -340 -178q-177 0 -289.5 117
t-112.5 293z" />
    <glyph glyph-name="ordfeminine" unicode="&#xaa;" horiz-adv-x="718" 
d="M264 745q-105 0 -168 61.5t-63 160.5q0 101 76 164t206 63q87 0 179 -27q0 63 -36 94t-116 31q-115 0 -217 -47l-39 141q128 60 264 60q151 0 231.5 -72t80.5 -207v-409h-164v73q-92 -86 -234 -86zM205 967q0 -39 29.5 -59.5t82.5 -20.5q66 0 114.5 42.5t60.5 104.5
q-88 21 -150 21q-137 0 -137 -88z" />
    <glyph glyph-name="guillemotleft" unicode="&#xab;" horiz-adv-x="1366" 
d="M561 29l-455 546l455 541l150 -129l-342 -412l342 -417zM629 575l454 541l150 -129l-342 -412l342 -417l-150 -129z" />
    <glyph glyph-name="logicalnot" unicode="&#xac;" horiz-adv-x="1073" 
d="M737 307v279h-635v196h836v-475h-201z" />
    <glyph glyph-name="uni00AD" unicode="&#xad;" horiz-adv-x="919" 
d="M827 461h-735v186h735v-186z" />
    <glyph glyph-name="registered" unicode="&#xae;" horiz-adv-x="1105" 
d="M553 510q-206 0 -340.5 131t-134.5 332q0 199 134.5 330t340.5 131q211 0 343 -128.5t132 -332.5q0 -205 -132 -334t-343 -129zM231 973q0 -138 92 -230t230 -92t229.5 92.5t91.5 229.5q0 141 -89.5 230t-231.5 89q-143 0 -232.5 -88.5t-89.5 -230.5zM393 762v418h174
q73 0 118.5 -42t45.5 -108q0 -84 -72 -121l89 -147h-127l-72 127h-47v-127h-109zM500 985h61q28 0 44 12.5t16 34.5q0 20 -17 32.5t-43 12.5h-61v-92z" />
    <glyph glyph-name="macron" unicode="&#xaf;" horiz-adv-x="978" 
d="M205 1235v162h569v-162h-569z" />
    <glyph glyph-name="degree" unicode="&#xb0;" horiz-adv-x="770" 
d="M385 866q-132 0 -221.5 87.5t-89.5 217.5t89.5 218t221.5 88t221.5 -88t89.5 -218t-89.5 -217.5t-221.5 -87.5zM221 1171q0 -69 46 -114t118 -45t118 45t46 114t-46 114.5t-118 45.5t-118 -45.5t-46 -114.5z" />
    <glyph glyph-name="plusminus" unicode="&#xb1;" horiz-adv-x="1069" 
d="M102 778v197h332v270h201v-270h332v-197h-332v-258h-201v258h-332zM102 123v188h865v-188h-865z" />
    <glyph glyph-name="uni00B2" unicode="&#xb2;" horiz-adv-x="575" 
d="M49 967v106l207 250q50 60 64 84t14 49q0 31 -20.5 48.5t-57.5 17.5q-78 0 -139 -70l-94 109q63 61 118 85.5t129 24.5q105 0 168.5 -57t63.5 -152q0 -58 -20 -97.5t-101 -143.5l-80 -103h229v-151h-481z" />
    <glyph glyph-name="uni00B3" unicode="&#xb3;" horiz-adv-x="575" 
d="M281 954q-76 0 -133 18.5t-111 61.5l82 131q72 -55 145 -55q46 0 74.5 23.5t28.5 62.5q0 55 -44 76.5t-118 1.5l-41 69l115 166h-203v150h418v-86l-138 -178q77 -15 125.5 -72.5t48.5 -136.5q0 -102 -69.5 -167t-179.5 -65z" />
    <glyph glyph-name="acute" unicode="&#xb4;" horiz-adv-x="806" 
d="M205 1217l131 299h266l-199 -299h-198z" />
    <glyph glyph-name="uni00B5" unicode="&#xb5;" horiz-adv-x="1288" 
d="M158 -471v1515h221v-569q0 -133 68.5 -207.5t191.5 -74.5q125 0 197.5 76t72.5 206v569h221v-1044h-217v115q-107 -119 -280 -119q-149 0 -262 92v-559h-213z" />
    <glyph glyph-name="paragraph" unicode="&#xb6;" horiz-adv-x="1366" 
d="M510 575q-118 0 -221.5 53.5t-167.5 153t-64 222.5q0 129 64.5 229t166.5 150.5t222 50.5h790v-185h-172v-1474h-200v1474h-201v-1474h-201v800h-16z" />
    <glyph glyph-name="periodcentered" unicode="&#xb7;" horiz-adv-x="507" 
d="M254 434q-61 0 -103 39.5t-42 101.5t42 102t103 40t103 -40t42 -102t-42 -101.5t-103 -39.5z" />
    <glyph glyph-name="cedilla" unicode="&#xb8;" horiz-adv-x="903" 
d="M432 -496q-126 0 -227 78l76 117q59 -47 139 -47q104 0 104 72q0 35 -24 51t-60 15t-78 -5l-38 37l49 229h145l-26 -139q94 2 150 -50.5t56 -142.5q0 -99 -75 -157t-191 -58z" />
    <glyph glyph-name="uni00B9" unicode="&#xb9;" horiz-adv-x="440" 
d="M211 967v493q-74 -39 -180 -39v131q66 0 112 25t84 82h144v-692h-160z" />
    <glyph glyph-name="ordmasculine" unicode="&#xba;" horiz-adv-x="796" 
d="M399 745q-159 0 -260.5 99t-101.5 252q0 152 101.5 251t260.5 99q161 0 261 -98t100 -252t-100 -252.5t-261 -98.5zM215 1096q0 -82 52 -134.5t132 -52.5q81 0 132 52.5t51 134.5t-51 134t-132 52q-80 0 -132 -52.5t-52 -133.5z" />
    <glyph glyph-name="guillemotright" unicode="&#xbb;" horiz-adv-x="1366" 
d="M805 29l-150 129l342 417l-342 412l150 129l455 -541zM133 158l342 417l-342 412l150 129l454 -541l-454 -546z" />
    <glyph glyph-name="onequarter" unicode="&#xbc;" horiz-adv-x="1515" 
d="M211 741v494q-74 -39 -180 -39v131q66 0 112 25t84 82h144v-693h-160zM78 20l1012 1514l149 -102l-1012 -1512zM901 129v131l342 432h148v-418h79v-145h-79v-129h-156v129h-334zM1094 272h143v183z" />
    <glyph glyph-name="onehalf" unicode="&#xbd;" horiz-adv-x="1452" 
d="M211 741v494q-74 -39 -180 -39v131q66 0 112 25t84 82h144v-693h-160zM78 20l1012 1514l149 -102l-1012 -1512zM899 594q63 61 118.5 86t129.5 25q104 0 167.5 -57t63.5 -152q0 -58 -20.5 -98t-100.5 -144l-79 -102h229v-152h-481v106l207 250q49 59 63 83.5t14 49.5
q0 31 -20 48.5t-57 17.5q-79 0 -140 -70z" />
    <glyph glyph-name="threequarters" unicode="&#xbe;" horiz-adv-x="1650" 
d="M281 729q-76 0 -133 18.5t-111 61.5l82 131q72 -55 145 -55q46 0 74.5 23.5t28.5 62.5q0 55 -44 76.5t-118 1.5l-41 69l115 166h-203v150h418v-86l-138 -179q77 -15 125.5 -72t48.5 -136q0 -102 -69.5 -167t-179.5 -65zM213 20l1012 1514l149 -102l-1012 -1512zM1036 129
v131l342 432h148v-418h80v-145h-80v-129h-156v129h-334zM1229 272h143v183z" />
    <glyph glyph-name="questiondown" unicode="&#xbf;" horiz-adv-x="1034" 
d="M625 645q0 -123 -41.5 -198t-147.5 -162q-89 -73 -117 -124t-28 -116q0 -87 61.5 -142t175.5 -55q182 0 316 193l160 -125q-181 -272 -484 -272q-208 0 -333.5 105.5t-125.5 275.5q0 119 59.5 212t182.5 195q59 49 83 95.5t24 129.5v93h215v-105zM373 979q0 62 42 101.5
t103 39.5t103.5 -39.5t42.5 -101.5t-42.5 -101.5t-103.5 -39.5t-103 39.5t-42 101.5z" />
    <glyph glyph-name="Agrave" unicode="&#xc0;" horiz-adv-x="1468" 
d="M41 0l559 1434h274l553 -1434h-237l-115 303h-680l-116 -303h-238zM444 1839h267l131 -258h-197zM473 510h526l-262 688z" />
    <glyph glyph-name="Aacute" unicode="&#xc1;" horiz-adv-x="1468" 
d="M41 0l559 1434h274l553 -1434h-237l-115 303h-680l-116 -303h-238zM473 510h526l-262 688zM633 1581l131 258h266l-201 -258h-196z" />
    <glyph glyph-name="Acircumflex" unicode="&#xc2;" horiz-adv-x="1468" 
d="M41 0l559 1434h274l553 -1434h-237l-115 303h-680l-116 -303h-238zM397 1581l254 258h172l254 -258h-227l-111 121l-112 -121h-230zM473 510h526l-262 688z" />
    <glyph glyph-name="Atilde" unicode="&#xc3;" horiz-adv-x="1468" 
d="M41 0l559 1434h274l553 -1434h-237l-115 303h-680l-116 -303h-238zM393 1640q70 187 213 187q39 0 77 -15.5t62.5 -33.5t54.5 -33.5t56 -15.5q56 0 102 94l125 -72q-70 -186 -213 -186q-39 0 -77 15.5t-62.5 33.5t-54 33.5t-55.5 15.5q-57 0 -103 -94zM473 510h526
l-262 688z" />
    <glyph glyph-name="Adieresis" unicode="&#xc4;" horiz-adv-x="1468" 
d="M41 0l559 1434h274l553 -1434h-237l-115 303h-680l-116 -303h-238zM408 1698q0 62 37.5 101.5t97.5 39.5t97.5 -39.5t37.5 -101.5t-37.5 -102t-97.5 -40t-97.5 40t-37.5 102zM473 510h526l-262 688zM797 1698q0 62 37.5 101.5t97.5 39.5t97.5 -39.5t37.5 -101.5
t-37.5 -102t-97.5 -40t-97.5 40t-37.5 102z" />
    <glyph glyph-name="Aring" unicode="&#xc5;" horiz-adv-x="1468" 
d="M41 0l559 1434h274l553 -1434h-237l-115 303h-680l-116 -303h-238zM473 510h526l-262 688zM481 1759q0 102 74 172t182 70t182 -70t74 -172t-74 -171.5t-182 -69.5t-182 69.5t-74 171.5zM639 1759q0 -43 27.5 -70.5t70.5 -27.5t71 27.5t28 70.5t-28 71t-71 28t-70.5 -28
t-27.5 -71z" />
    <glyph glyph-name="AE" unicode="&#xc6;" horiz-adv-x="1945" 
d="M29 0l829 1434h957v-211h-615v-383h561v-207h-561v-420h639v-213h-860v301h-524l-172 -301h-254zM567 502h412v712z" />
    <glyph glyph-name="Ccedilla" unicode="&#xc7;" horiz-adv-x="1492" 
d="M817 -496q-129 0 -233 78l75 119q62 -45 146 -45q106 0 106 70q0 34 -25 49.5t-61.5 14.5t-79.5 -5l-40 37l34 158q-190 17 -336 116t-225.5 260.5t-79.5 360.5q0 211 88.5 379.5t251 265t369.5 96.5q182 0 333.5 -79t266.5 -226l-164 -143q-78 108 -193 167.5t-243 59.5
q-140 0 -248.5 -67.5t-167.5 -185.5t-59 -267q0 -229 132 -374.5t351 -145.5q141 0 262 62t203 175l164 -139q-213 -288 -553 -315l-12 -66q94 0 152.5 -53t58.5 -142q0 -99 -77 -157t-196 -58z" />
    <glyph glyph-name="Egrave" unicode="&#xc8;" horiz-adv-x="1212" 
d="M174 0v1434h907v-213h-678v-392h625v-206h-625v-408h703v-215h-932zM354 1839h267l131 -258h-197z" />
    <glyph glyph-name="Eacute" unicode="&#xc9;" horiz-adv-x="1212" 
d="M174 0v1434h907v-213h-678v-392h625v-206h-625v-408h703v-215h-932zM543 1581l131 258h266l-201 -258h-196z" />
    <glyph glyph-name="Ecircumflex" unicode="&#xca;" horiz-adv-x="1212" 
d="M174 0v1434h907v-213h-678v-392h625v-206h-625v-408h703v-215h-932zM307 1581l254 258h172l254 -258h-227l-111 121l-112 -121h-230z" />
    <glyph glyph-name="Edieresis" unicode="&#xcb;" horiz-adv-x="1212" 
d="M174 0v1434h907v-213h-678v-392h625v-206h-625v-408h703v-215h-932zM317 1698q0 62 38 101.5t98 39.5t97.5 -39.5t37.5 -101.5t-37.5 -102t-97.5 -40t-98 40t-38 102zM707 1698q0 62 37.5 101.5t97.5 39.5t97.5 -39.5t37.5 -101.5t-37.5 -102t-97.5 -40t-97.5 40
t-37.5 102z" />
    <glyph glyph-name="Igrave" unicode="&#xcc;" horiz-adv-x="577" 
d="M174 0v1434h229v-1434h-229zM-4 1839h266l131 -258h-196z" />
    <glyph glyph-name="Iacute" unicode="&#xcd;" horiz-adv-x="577" 
d="M174 0v1434h229v-1434h-229zM184 1581l131 258h267l-201 -258h-197z" />
    <glyph glyph-name="Icircumflex" unicode="&#xce;" horiz-adv-x="577" 
d="M174 0v1434h229v-1434h-229zM-51 1581l254 258h172l254 -258h-228l-110 121l-113 -121h-229z" />
    <glyph glyph-name="Idieresis" unicode="&#xcf;" horiz-adv-x="577" 
d="M174 0v1434h229v-1434h-229zM-41 1698q0 62 37.5 101.5t97.5 39.5t97.5 -39.5t37.5 -101.5t-37.5 -102t-97.5 -40t-97.5 40t-37.5 102zM348 1698q0 62 37.5 101.5t97.5 39.5t97.5 -39.5t37.5 -101.5t-37.5 -102t-97.5 -40t-97.5 40t-37.5 102z" />
    <glyph glyph-name="Eth" unicode="&#xd0;" horiz-adv-x="1562" 
d="M33 635v188h192v611h510q217 0 382.5 -88.5t256 -251.5t90.5 -377t-90.5 -377t-256 -251.5t-382.5 -88.5h-510v635h-192zM455 219h266q238 0 374 133t136 365t-136 364.5t-374 132.5h-266v-395h321v-180h-321v-420z" />
    <glyph glyph-name="Ntilde" unicode="&#xd1;" horiz-adv-x="1546" 
d="M174 0v1434h205l766 -1031v1031h227v-1434h-207l-764 1030v-1030h-227zM440 1640q70 187 213 187q39 0 77 -15.5t62.5 -33.5t54.5 -33.5t56 -15.5q57 0 103 94l124 -72q-70 -186 -212 -186q-39 0 -77 15.5t-62.5 33.5t-54.5 33.5t-56 15.5q-57 0 -103 -94z" />
    <glyph glyph-name="Ograve" unicode="&#xd2;" horiz-adv-x="1675" 
d="M838 -25q-212 0 -381.5 95.5t-264 265t-94.5 381.5q0 159 56 297t153.5 235.5t235 153t295.5 55.5q211 0 380 -95.5t264 -265t95 -380.5t-95 -381t-264 -265.5t-380 -95.5zM332 717q0 -226 142.5 -373t363.5 -147t363 147t142 373t-142 373t-363 147t-363.5 -147
t-142.5 -373zM545 1839h266l131 -258h-197z" />
    <glyph glyph-name="Oacute" unicode="&#xd3;" horiz-adv-x="1675" 
d="M838 -25q-212 0 -381.5 95.5t-264 265t-94.5 381.5q0 159 56 297t153.5 235.5t235 153t295.5 55.5q211 0 380 -95.5t264 -265t95 -380.5t-95 -381t-264 -265.5t-380 -95.5zM332 717q0 -226 142.5 -373t363.5 -147t363 147t142 373t-142 373t-363 147t-363.5 -147
t-142.5 -373zM733 1581l131 258h266l-200 -258h-197z" />
    <glyph glyph-name="Ocircumflex" unicode="&#xd4;" horiz-adv-x="1675" 
d="M838 -25q-212 0 -381.5 95.5t-264 265t-94.5 381.5q0 159 56 297t153.5 235.5t235 153t295.5 55.5q211 0 380 -95.5t264 -265t95 -380.5t-95 -381t-264 -265.5t-380 -95.5zM332 717q0 -226 142.5 -373t363.5 -147t363 147t142 373t-142 373t-363 147t-363.5 -147
t-142.5 -373zM498 1581l254 258h172l254 -258h-228l-110 121l-113 -121h-229z" />
    <glyph glyph-name="Otilde" unicode="&#xd5;" horiz-adv-x="1675" 
d="M838 -25q-212 0 -381.5 95.5t-264 265t-94.5 381.5q0 159 56 297t153.5 235.5t235 153t295.5 55.5q211 0 380 -95.5t264 -265t95 -380.5t-95 -381t-264 -265.5t-380 -95.5zM332 717q0 -226 142.5 -373t363.5 -147t363 147t142 373t-142 373t-363 147t-363.5 -147
t-142.5 -373zM494 1640q70 187 213 187q39 0 77 -15.5t62.5 -33.5t54 -33.5t55.5 -15.5q57 0 103 94l125 -72q-70 -186 -213 -186q-39 0 -77 15.5t-62.5 33.5t-54.5 33.5t-56 15.5q-57 0 -103 -94z" />
    <glyph glyph-name="Odieresis" unicode="&#xd6;" horiz-adv-x="1675" 
d="M838 -25q-212 0 -381.5 95.5t-264 265t-94.5 381.5q0 159 56 297t153.5 235.5t235 153t295.5 55.5q211 0 380 -95.5t264 -265t95 -380.5t-95 -381t-264 -265.5t-380 -95.5zM332 717q0 -226 142.5 -373t363.5 -147t363 147t142 373t-142 373t-363 147t-363.5 -147
t-142.5 -373zM508 1698q0 62 37.5 101.5t97.5 39.5t97.5 -39.5t37.5 -101.5t-37.5 -102t-97.5 -40t-97.5 40t-37.5 102zM897 1698q0 62 37.5 101.5t97.5 39.5t97.5 -39.5t37.5 -101.5t-37.5 -102t-97.5 -40t-97.5 40t-37.5 102z" />
    <glyph glyph-name="multiply" unicode="&#xd7;" horiz-adv-x="966" 
d="M731 238l-248 247l-247 -247l-136 139l246 246l-246 245l138 140l247 -246l246 246l137 -138l-245 -245l245 -248z" />
    <glyph glyph-name="Oslash" unicode="&#xd8;" horiz-adv-x="1675" 
d="M838 -25q-151 0 -287 52l-131 -226l-168 97l129 223q-134 100 -208.5 254.5t-74.5 341.5q0 159 56 297t153.5 235.5t235 153t295.5 55.5q153 0 286 -51l131 225l168 -96l-129 -223q134 -101 208.5 -255.5t74.5 -340.5q0 -211 -95 -381t-264 -265.5t-380 -95.5zM332 717
q0 -124 45 -227.5t127 -174.5l508 893q-85 29 -174 29q-221 0 -363.5 -147t-142.5 -373zM662 225q82 -28 176 -28q221 0 363 147t142 373q0 123 -45.5 227t-126.5 174z" />
    <glyph glyph-name="Ugrave" unicode="&#xd9;" horiz-adv-x="1474" 
d="M737 -25q-258 0 -418.5 162t-160.5 432v865h229v-850q0 -188 91 -287.5t259 -99.5t259 99.5t91 287.5v850h230v-865q0 -269 -160.5 -431.5t-419.5 -162.5zM444 1839h267l131 -258h-197z" />
    <glyph glyph-name="Uacute" unicode="&#xda;" horiz-adv-x="1474" 
d="M737 -25q-258 0 -418.5 162t-160.5 432v865h229v-850q0 -188 91 -287.5t259 -99.5t259 99.5t91 287.5v850h230v-865q0 -269 -160.5 -431.5t-419.5 -162.5zM633 1581l131 258h266l-201 -258h-196z" />
    <glyph glyph-name="Ucircumflex" unicode="&#xdb;" horiz-adv-x="1474" 
d="M737 -25q-258 0 -418.5 162t-160.5 432v865h229v-850q0 -188 91 -287.5t259 -99.5t259 99.5t91 287.5v850h230v-865q0 -269 -160.5 -431.5t-419.5 -162.5zM397 1581l254 258h172l254 -258h-227l-111 121l-112 -121h-230z" />
    <glyph glyph-name="Udieresis" unicode="&#xdc;" horiz-adv-x="1474" 
d="M737 -25q-258 0 -418.5 162t-160.5 432v865h229v-850q0 -188 91 -287.5t259 -99.5t259 99.5t91 287.5v850h230v-865q0 -269 -160.5 -431.5t-419.5 -162.5zM408 1698q0 62 37.5 101.5t97.5 39.5t97.5 -39.5t37.5 -101.5t-37.5 -102t-97.5 -40t-97.5 40t-37.5 102z
M797 1698q0 62 37.5 101.5t97.5 39.5t97.5 -39.5t37.5 -101.5t-37.5 -102t-97.5 -40t-97.5 40t-37.5 102z" />
    <glyph glyph-name="Yacute" unicode="&#xdd;" horiz-adv-x="1361" 
d="M567 0v545l-532 889h266l383 -646l381 646h262l-530 -887v-547h-230zM580 1581l131 258h266l-201 -258h-196z" />
    <glyph glyph-name="Thorn" unicode="&#xde;" horiz-adv-x="1243" 
d="M174 0v1434h229v-222h293q232 0 367 -137t135 -350t-135 -350t-367 -137h-293v-238h-229zM401 453h279q136 0 212.5 74t76.5 198t-76.5 198t-212.5 74h-279v-544z" />
    <glyph glyph-name="germandbls" unicode="&#xdf;" horiz-adv-x="1335" 
d="M842 -18q-185 0 -305 94l94 170q53 -32 96.5 -45t103.5 -13q83 0 138 42.5t55 105.5q0 64 -37 115t-129 118q-95 69 -132.5 122.5t-37.5 119.5q0 53 16.5 95.5t65.5 101.5q42 52 59 89t17 79q0 72 -56.5 115.5t-150.5 43.5q-126 0 -197 -77.5t-71 -215.5v-1042h-213v1042
q0 226 131.5 362t349.5 136q192 0 310 -94t118 -246q0 -72 -23.5 -132t-78.5 -130q-56 -72 -56 -111q0 -31 24.5 -59.5t90.5 -75.5q115 -83 168 -168.5t53 -187.5q0 -158 -111.5 -256t-291.5 -98z" />
    <glyph glyph-name="agrave" unicode="&#xe0;" horiz-adv-x="1173" 
d="M455 -14q-167 0 -270 89.5t-103 235.5q0 158 116 253t308 95q153 0 307 -53v53q0 103 -62 150t-198 47q-147 0 -326 -78l-63 185q116 51 210 73.5t195 22.5q223 0 342 -102.5t119 -294.5v-662h-211l-2 133q-64 -70 -158.5 -108.5t-203.5 -38.5zM279 1516h266l131 -299
h-199zM303 322q0 -68 50.5 -107t144.5 -39q131 0 218 70t99 178q-159 51 -283 51q-110 0 -169.5 -39.5t-59.5 -113.5z" />
    <glyph glyph-name="aacute" unicode="&#xe1;" horiz-adv-x="1173" 
d="M455 -14q-167 0 -270 89.5t-103 235.5q0 158 116 253t308 95q153 0 307 -53v53q0 103 -62 150t-198 47q-147 0 -326 -78l-63 185q116 51 210 73.5t195 22.5q223 0 342 -102.5t119 -294.5v-662h-211l-2 133q-64 -70 -158.5 -108.5t-203.5 -38.5zM303 322q0 -68 50.5 -107
t144.5 -39q131 0 218 70t99 178q-159 51 -283 51q-110 0 -169.5 -39.5t-59.5 -113.5zM459 1217l131 299h266l-199 -299h-198z" />
    <glyph glyph-name="acircumflex" unicode="&#xe2;" horiz-adv-x="1173" 
d="M455 -14q-167 0 -270 89.5t-103 235.5q0 158 116 253t308 95q153 0 307 -53v53q0 103 -62 150t-198 47q-147 0 -326 -78l-63 185q116 51 210 73.5t195 22.5q223 0 342 -102.5t119 -294.5v-662h-211l-2 133q-64 -70 -158.5 -108.5t-203.5 -38.5zM227 1217l254 299h172
l254 -299h-227l-111 143l-112 -143h-230zM303 322q0 -68 50.5 -107t144.5 -39q131 0 218 70t99 178q-159 51 -283 51q-110 0 -169.5 -39.5t-59.5 -113.5z" />
    <glyph glyph-name="atilde" unicode="&#xe3;" horiz-adv-x="1173" 
d="M455 -14q-167 0 -270 89.5t-103 235.5q0 158 116 253t308 95q153 0 307 -53v53q0 103 -62 150t-198 47q-147 0 -326 -78l-63 185q116 51 210 73.5t195 22.5q223 0 342 -102.5t119 -294.5v-662h-211l-2 133q-64 -70 -158.5 -108.5t-203.5 -38.5zM225 1268q71 186 211 186
q33 0 65 -12.5t85 -44.5q40 -25 58.5 -33t37.5 -8q29 0 52 21.5t48 72.5l125 -72q-71 -186 -211 -186q-33 0 -64.5 12.5t-84.5 44.5q-40 25 -58.5 33t-37.5 8q-29 0 -52.5 -21.5t-48.5 -72.5zM303 322q0 -68 50.5 -107t144.5 -39q131 0 218 70t99 178q-159 51 -283 51
q-110 0 -169.5 -39.5t-59.5 -113.5z" />
    <glyph glyph-name="adieresis" unicode="&#xe4;" horiz-adv-x="1173" 
d="M455 -14q-167 0 -270 89.5t-103 235.5q0 158 116 253t308 95q153 0 307 -53v53q0 103 -62 150t-198 47q-147 0 -326 -78l-63 185q116 51 210 73.5t195 22.5q223 0 342 -102.5t119 -294.5v-662h-211l-2 133q-64 -70 -158.5 -108.5t-203.5 -38.5zM244 1323q0 60 37.5 98.5
t95.5 38.5t95.5 -38.5t37.5 -98.5t-37.5 -98.5t-95.5 -38.5t-95.5 38.5t-37.5 98.5zM303 322q0 -68 50.5 -107t144.5 -39q131 0 218 70t99 178q-159 51 -283 51q-110 0 -169.5 -39.5t-59.5 -113.5zM625 1323q0 60 37.5 98.5t95.5 38.5t95.5 -38.5t37.5 -98.5t-37.5 -98.5
t-95.5 -38.5t-95.5 38.5t-37.5 98.5z" />
    <glyph glyph-name="aring" unicode="&#xe5;" horiz-adv-x="1173" 
d="M455 -14q-167 0 -270 89.5t-103 235.5q0 158 116 253t308 95q153 0 307 -53v53q0 103 -62 150t-198 47q-147 0 -326 -78l-63 185q116 51 210 73.5t195 22.5q223 0 342 -102.5t119 -294.5v-662h-211l-2 133q-64 -70 -158.5 -108.5t-203.5 -38.5zM303 322q0 -68 50.5 -107
t144.5 -39q131 0 218 70t99 178q-159 51 -283 51q-110 0 -169.5 -39.5t-59.5 -113.5zM311 1407q0 102 74 172t182 70t182 -70t74 -172t-74 -172t-182 -70t-182 70t-74 172zM469 1407q0 -42 27 -70t71 -28t71.5 28t27.5 70t-27.5 70t-71.5 28t-71 -28t-27 -70z" />
    <glyph glyph-name="ae" unicode="&#xe6;" horiz-adv-x="1916" 
d="M1346 -25q-134 0 -244 54t-180 151q-142 -205 -455 -205q-174 0 -279.5 92.5t-105.5 243.5q0 158 114.5 253t305.5 95q149 0 303 -53v53q0 114 -63.5 160.5t-192.5 46.5q-153 0 -322 -88l-63 185q207 106 387 106q280 0 391 -176q68 84 167 130t218 46q168 0 294.5 -89
t182.5 -239.5t27 -326.5h-809q28 -107 114.5 -172.5t202.5 -65.5q181 0 316 135l131 -143q-158 -193 -440 -193zM303 317q0 -69 48.5 -105t142.5 -36q132 0 220 69t95 179q-159 51 -281 51q-107 0 -166 -41.5t-59 -116.5zM1018 602h606q-21 119 -102 192.5t-201 73.5
q-116 0 -198 -72.5t-105 -193.5z" />
    <glyph glyph-name="ccedilla" unicode="&#xe7;" horiz-adv-x="1126" 
d="M625 -496q-127 0 -228 78l76 117q59 -47 139 -47q105 0 105 72q0 35 -24 51t-60 15t-78 -5l-39 37l35 158q-204 26 -332.5 176t-128.5 366q0 237 152.5 392t386.5 155q131 0 243 -49.5t185 -140.5l-135 -142q-57 60 -133 92.5t-156 32.5q-141 0 -231.5 -95.5
t-90.5 -244.5q0 -151 88 -245.5t236 -94.5q90 0 167.5 36.5t131.5 105.5l147 -136q-61 -90 -160.5 -143t-224.5 -65l-12 -68q94 2 150.5 -50.5t56.5 -142.5q0 -99 -75 -157t-191 -58z" />
    <glyph glyph-name="egrave" unicode="&#xe8;" horiz-adv-x="1228" 
d="M637 -25q-244 0 -395.5 152.5t-151.5 394.5q0 239 150.5 393t382.5 154q173 0 303.5 -89t188.5 -239.5t28 -326.5h-830q28 -104 118 -171t210 -67q188 0 326 135l131 -143q-78 -91 -195 -142t-266 -51zM311 602h627q-22 119 -106.5 192.5t-208.5 73.5
q-121 0 -205.5 -72.5t-106.5 -193.5zM336 1516h266l131 -299h-198z" />
    <glyph glyph-name="eacute" unicode="&#xe9;" horiz-adv-x="1228" 
d="M637 -25q-244 0 -395.5 152.5t-151.5 394.5q0 239 150.5 393t382.5 154q173 0 303.5 -89t188.5 -239.5t28 -326.5h-830q28 -104 118 -171t210 -67q188 0 326 135l131 -143q-78 -91 -195 -142t-266 -51zM311 602h627q-22 119 -106.5 192.5t-208.5 73.5
q-121 0 -205.5 -72.5t-106.5 -193.5zM516 1217l131 299h266l-198 -299h-199z" />
    <glyph glyph-name="ecircumflex" unicode="&#xea;" horiz-adv-x="1228" 
d="M637 -25q-244 0 -395.5 152.5t-151.5 394.5q0 239 150.5 393t382.5 154q173 0 303.5 -89t188.5 -239.5t28 -326.5h-830q28 -104 118 -171t210 -67q188 0 326 135l131 -143q-78 -91 -195 -142t-266 -51zM285 1217l254 299h172l254 -299h-228l-110 143l-113 -143h-229z
M311 602h627q-22 119 -106.5 192.5t-208.5 73.5q-121 0 -205.5 -72.5t-106.5 -193.5z" />
    <glyph glyph-name="edieresis" unicode="&#xeb;" horiz-adv-x="1228" 
d="M637 -25q-244 0 -395.5 152.5t-151.5 394.5q0 239 150.5 393t382.5 154q173 0 303.5 -89t188.5 -239.5t28 -326.5h-830q28 -104 118 -171t210 -67q188 0 326 135l131 -143q-78 -91 -195 -142t-266 -51zM301 1323q0 60 37.5 98.5t95.5 38.5t95.5 -38.5t37.5 -98.5
t-37.5 -98.5t-95.5 -38.5t-95.5 38.5t-37.5 98.5zM311 602h627q-22 119 -106.5 192.5t-208.5 73.5q-121 0 -205.5 -72.5t-106.5 -193.5zM682 1323q0 60 37.5 98.5t95.5 38.5t95.5 -38.5t37.5 -98.5t-37.5 -98.5t-95.5 -38.5t-95.5 38.5t-37.5 98.5z" />
    <glyph glyph-name="igrave" unicode="&#xec;" horiz-adv-x="536" 
d="M158 0v1044h221v-1044h-221zM0 1516h266l115 -299h-199z" />
    <glyph glyph-name="iacute" unicode="&#xed;" horiz-adv-x="536" 
d="M158 0v1044h221v-1044h-221zM156 1217l114 299h267l-183 -299h-198z" />
    <glyph glyph-name="icircumflex" unicode="&#xee;" horiz-adv-x="536" 
d="M158 0v1044h221v-1044h-221zM-27 1217l209 299h172l209 -299h-217l-76 131l-77 -131h-220z" />
    <glyph glyph-name="idieresis" unicode="&#xef;" horiz-adv-x="536" 
d="M158 0v1044h221v-1044h-221zM-45 1323q0 60 36.5 98.5t94.5 38.5t94.5 -38.5t36.5 -98.5t-36.5 -98.5t-94.5 -38.5t-94.5 38.5t-36.5 98.5zM319 1323q0 60 37 98.5t95 38.5t94.5 -38.5t36.5 -98.5t-36.5 -98.5t-94.5 -38.5t-95 38.5t-37 98.5z" />
    <glyph glyph-name="eth" unicode="&#xf0;" horiz-adv-x="1290" 
d="M645 -25q-244 0 -399.5 150.5t-155.5 386.5q0 233 145.5 385t368.5 152q144 0 256 -68q-113 153 -260 266l-223 -155l-94 133l176 123q-72 45 -168 92l104 178q131 -66 242 -145l180 126l94 -135l-139 -98q203 -176 315.5 -389.5t112.5 -429.5q0 -255 -154 -413.5
t-401 -158.5zM311 512q0 -146 93 -238t241 -92t241 92t93 238t-93 238t-241 92t-241 -92t-93 -238z" />
    <glyph glyph-name="ntilde" unicode="&#xf1;" horiz-adv-x="1273" 
d="M158 0v1044h217v-131q71 76 150 111t184 35q190 0 305.5 -119.5t115.5 -314.5v-625h-221v586q0 129 -61.5 197.5t-179.5 68.5q-134 0 -211.5 -81t-77.5 -220v-551h-221zM309 1268q71 186 211 186q33 0 65 -12.5t85 -44.5q40 -25 58.5 -33t37.5 -8q29 0 52 21.5t48 72.5
l125 -72q-71 -186 -211 -186q-33 0 -64.5 12.5t-84.5 44.5q-40 25 -58.5 33t-37.5 8q-29 0 -52.5 -21.5t-48.5 -72.5z" />
    <glyph glyph-name="ograve" unicode="&#xf2;" horiz-adv-x="1290" 
d="M645 -25q-245 0 -400 153t-155 394t155 394t400 153t400 -153t155 -394t-155 -394t-400 -153zM311 522q0 -151 93.5 -245.5t240.5 -94.5t240.5 94.5t93.5 245.5t-93.5 245.5t-240.5 94.5t-240.5 -94.5t-93.5 -245.5zM356 1516h267l131 -299h-199z" />
    <glyph glyph-name="oacute" unicode="&#xf3;" horiz-adv-x="1290" 
d="M645 -25q-245 0 -400 153t-155 394t155 394t400 153t400 -153t155 -394t-155 -394t-400 -153zM311 522q0 -151 93.5 -245.5t240.5 -94.5t240.5 94.5t93.5 245.5t-93.5 245.5t-240.5 94.5t-240.5 -94.5t-93.5 -245.5zM537 1217l131 299h266l-199 -299h-198z" />
    <glyph glyph-name="ocircumflex" unicode="&#xf4;" horiz-adv-x="1290" 
d="M645 -25q-245 0 -400 153t-155 394t155 394t400 153t400 -153t155 -394t-155 -394t-400 -153zM305 1217l254 299h172l254 -299h-227l-111 143l-112 -143h-230zM311 522q0 -151 93.5 -245.5t240.5 -94.5t240.5 94.5t93.5 245.5t-93.5 245.5t-240.5 94.5t-240.5 -94.5
t-93.5 -245.5z" />
    <glyph glyph-name="otilde" unicode="&#xf5;" horiz-adv-x="1290" 
d="M645 -25q-245 0 -400 153t-155 394t155 394t400 153t400 -153t155 -394t-155 -394t-400 -153zM303 1268q71 186 211 186q33 0 65 -12.5t85 -44.5q40 -25 58.5 -33t37.5 -8q29 0 52 21.5t48 72.5l125 -72q-71 -186 -211 -186q-33 0 -64.5 12.5t-84.5 44.5q-66 41 -97 41
q-29 0 -52 -21.5t-48 -72.5zM311 522q0 -151 93.5 -245.5t240.5 -94.5t240.5 94.5t93.5 245.5t-93.5 245.5t-240.5 94.5t-240.5 -94.5t-93.5 -245.5z" />
    <glyph glyph-name="odieresis" unicode="&#xf6;" horiz-adv-x="1290" 
d="M645 -25q-245 0 -400 153t-155 394t155 394t400 153t400 -153t155 -394t-155 -394t-400 -153zM311 522q0 -151 93.5 -245.5t240.5 -94.5t240.5 94.5t93.5 245.5t-93.5 245.5t-240.5 94.5t-240.5 -94.5t-93.5 -245.5zM322 1323q0 60 37.5 98.5t95.5 38.5t95.5 -38.5
t37.5 -98.5t-37.5 -98.5t-95.5 -38.5t-95.5 38.5t-37.5 98.5zM702 1323q0 60 37.5 98.5t96.5 38.5q58 0 95.5 -38.5t37.5 -98.5t-37.5 -98.5t-95.5 -38.5q-59 0 -96.5 38.5t-37.5 98.5z" />
    <glyph glyph-name="divide" unicode="&#xf7;" horiz-adv-x="1038" 
d="M102 526v193h834v-193h-834zM381 289q0 58 40 94.5t97 36.5t97 -36.5t40 -94.5q0 -59 -40 -96t-97 -37t-97 37t-40 96zM381 956q0 59 40 96.5t97 37.5t97 -37.5t40 -96.5q0 -58 -40 -94.5t-97 -36.5t-97 36.5t-40 94.5z" />
    <glyph glyph-name="oslash" unicode="&#xf8;" horiz-adv-x="1290" 
d="M334 -156l-156 93l101 161q-90 74 -139.5 183t-49.5 241q0 241 155 394t400 153q113 0 209 -35l100 166l156 -92l-100 -162q90 -73 140 -182.5t50 -241.5q0 -241 -155 -394t-400 -153q-113 0 -209 35zM311 522q0 -148 90 -241l342 569q-47 12 -98 12q-147 0 -240.5 -94.5
t-93.5 -245.5zM545 195q54 -13 100 -13q147 0 240.5 94.5t93.5 245.5q0 149 -90 242z" />
    <glyph glyph-name="ugrave" unicode="&#xf9;" horiz-adv-x="1273" 
d="M1116 1044v-1044h-217v131q-71 -76 -150 -110.5t-184 -34.5q-190 0 -306 119.5t-116 314.5v624h222v-585q0 -129 61.5 -197.5t179.5 -68.5q134 0 211.5 81t77.5 220v550h221zM342 1516h266l131 -299h-198z" />
    <glyph glyph-name="uacute" unicode="&#xfa;" horiz-adv-x="1273" 
d="M1116 1044v-1044h-217v131q-71 -76 -150 -110.5t-184 -34.5q-190 0 -306 119.5t-116 314.5v624h222v-585q0 -129 61.5 -197.5t179.5 -68.5q134 0 211.5 81t77.5 220v550h221zM522 1217l131 299h267l-199 -299h-199z" />
    <glyph glyph-name="ucircumflex" unicode="&#xfb;" horiz-adv-x="1273" 
d="M1116 1044v-1044h-217v131q-71 -76 -150 -110.5t-184 -34.5q-190 0 -306 119.5t-116 314.5v624h222v-585q0 -129 61.5 -197.5t179.5 -68.5q134 0 211.5 81t77.5 220v550h221zM291 1217l254 299h172l254 -299h-228l-110 143l-113 -143h-229z" />
    <glyph glyph-name="udieresis" unicode="&#xfc;" horiz-adv-x="1273" 
d="M1116 1044v-1044h-217v131q-71 -76 -150 -110.5t-184 -34.5q-190 0 -306 119.5t-116 314.5v624h222v-585q0 -129 61.5 -197.5t179.5 -68.5q134 0 211.5 81t77.5 220v550h221zM307 1323q0 60 37.5 98.5t95.5 38.5t95.5 -38.5t37.5 -98.5t-37.5 -98.5t-95.5 -38.5
t-95.5 38.5t-37.5 98.5zM688 1323q0 60 37.5 98.5t95.5 38.5t95.5 -38.5t37.5 -98.5t-37.5 -98.5t-95.5 -38.5t-95.5 38.5t-37.5 98.5z" />
    <glyph glyph-name="yacute" unicode="&#xfd;" horiz-adv-x="1167" 
d="M297 -479q-98 0 -188 35l57 190q52 -18 117 -18q74 0 117 33.5t77 125.5l23 62l-463 1095h242l231 -563l98 -243l86 243l201 563h235l-450 -1226q-109 -297 -383 -297zM485 1217l131 299h267l-199 -299h-199z" />
    <glyph glyph-name="thorn" unicode="&#xfe;" horiz-adv-x="1349" 
d="M745 -25q-224 0 -366 158v-604h-221v1987h221v-605q145 158 366 158q224 0 369.5 -154t145.5 -393t-145.5 -393t-369.5 -154zM375 522q0 -149 93.5 -244.5t238.5 -95.5q146 0 238.5 94.5t92.5 245.5t-92.5 245.5t-238.5 94.5q-145 0 -238.5 -95.5t-93.5 -244.5z" />
    <glyph glyph-name="ydieresis" unicode="&#xff;" horiz-adv-x="1167" 
d="M297 -479q-98 0 -188 35l57 190q52 -18 117 -18q74 0 117 33.5t77 125.5l23 62l-463 1095h242l231 -563l98 -243l86 243l201 563h235l-450 -1226q-109 -297 -383 -297zM270 1323q0 60 37.5 98.5t95.5 38.5q59 0 96.5 -38.5t37.5 -98.5t-37.5 -98.5t-96.5 -38.5
q-58 0 -95.5 38.5t-37.5 98.5zM651 1323q0 60 37.5 98.5t95.5 38.5q59 0 96.5 -38.5t37.5 -98.5t-37.5 -98.5t-96.5 -38.5q-58 0 -95.5 38.5t-37.5 98.5z" />
    <glyph glyph-name="Amacron" unicode="&#x100;" horiz-adv-x="1468" 
d="M41 0l559 1434h274l553 -1434h-237l-115 303h-680l-116 -303h-238zM444 1599v168h586v-168h-586zM473 510h526l-262 688z" />
    <glyph glyph-name="amacron" unicode="&#x101;" horiz-adv-x="1173" 
d="M455 -14q-167 0 -270 89.5t-103 235.5q0 158 116 253t308 95q153 0 307 -53v53q0 103 -62 150t-198 47q-147 0 -326 -78l-63 185q116 51 210 73.5t195 22.5q223 0 342 -102.5t119 -294.5v-662h-211l-2 133q-64 -70 -158.5 -108.5t-203.5 -38.5zM283 1235v162h569v-162
h-569zM303 322q0 -68 50.5 -107t144.5 -39q131 0 218 70t99 178q-159 51 -283 51q-110 0 -169.5 -39.5t-59.5 -113.5z" />
    <glyph glyph-name="Abreve" unicode="&#x102;" horiz-adv-x="1468" 
d="M41 0l559 1434h274l553 -1434h-237l-115 303h-680l-116 -303h-238zM428 1819l176 32q17 -122 133 -122t133 122l177 -32q-19 -126 -95 -187t-215 -61t-214.5 61t-94.5 187zM473 510h526l-262 688z" />
    <glyph glyph-name="abreve" unicode="&#x103;" horiz-adv-x="1173" 
d="M455 -14q-167 0 -270 89.5t-103 235.5q0 158 116 253t308 95q153 0 307 -53v53q0 103 -62 150t-198 47q-147 0 -326 -78l-63 185q116 51 210 73.5t195 22.5q223 0 342 -102.5t119 -294.5v-662h-211l-2 133q-64 -70 -158.5 -108.5t-203.5 -38.5zM252 1491l166 33
q10 -84 46.5 -123t102.5 -39q67 0 103.5 39t46.5 123l166 -33q-19 -146 -96 -215.5t-220 -69.5t-219.5 69.5t-95.5 215.5zM303 322q0 -68 50.5 -107t144.5 -39q131 0 218 70t99 178q-159 51 -283 51q-110 0 -169.5 -39.5t-59.5 -113.5z" />
    <glyph glyph-name="Aogonek" unicode="&#x104;" horiz-adv-x="1468" 
d="M41 0l559 1434h274l553 -1434q-143 -88 -143 -195q0 -75 72 -75q45 0 98 39l78 -127q-98 -88 -209 -88q-98 0 -157.5 57t-59.5 151q0 132 121 238h-37l-115 303h-680l-116 -303h-238zM473 510h526l-262 688z" />
    <glyph glyph-name="aogonek" unicode="&#x105;" horiz-adv-x="1173" 
d="M455 -14q-167 0 -270 89.5t-103 235.5q0 158 116 253t308 95q153 0 307 -53v53q0 103 -62 150t-198 47q-147 0 -326 -78l-63 185q116 51 210 73.5t195 22.5q223 0 342 -102.5t119 -294.5v-662q-143 -91 -143 -199q0 -75 71 -75q45 0 97 38l75 -124q-95 -86 -206 -86
q-95 0 -153 56t-58 148q0 134 129 242h-23l-2 133q-64 -70 -158.5 -108.5t-203.5 -38.5zM303 322q0 -68 50.5 -107t144.5 -39q131 0 218 70t99 178q-159 51 -283 51q-110 0 -169.5 -39.5t-59.5 -113.5z" />
    <glyph glyph-name="Cacute" unicode="&#x106;" horiz-adv-x="1492" 
d="M815 -25q-210 0 -374.5 96.5t-253.5 265t-89 380.5q0 211 88.5 379.5t251 265t369.5 96.5q182 0 333.5 -79t266.5 -226l-164 -143q-78 108 -193 167.5t-243 59.5q-140 0 -248.5 -67.5t-167.5 -185.5t-59 -267q0 -229 132 -374.5t351 -145.5q141 0 262 62t203 175
l164 -139q-239 -320 -629 -320zM702 1581l132 258h266l-201 -258h-197z" />
    <glyph glyph-name="cacute" unicode="&#x107;" horiz-adv-x="1126" 
d="M627 -25q-232 0 -384.5 155.5t-152.5 391.5q0 237 152.5 392t386.5 155q131 0 243 -49.5t185 -140.5l-135 -142q-57 60 -133 92.5t-156 32.5q-141 0 -231.5 -95.5t-90.5 -244.5q0 -151 88 -245.5t236 -94.5q90 0 167.5 36.5t131.5 105.5l147 -136q-70 -102 -189 -157.5
t-265 -55.5zM512 1217l131 299h266l-198 -299h-199z" />
    <glyph glyph-name="Ccircumflex" unicode="&#x108;" horiz-adv-x="1492" 
d="M815 -25q-210 0 -374.5 96.5t-253.5 265t-89 380.5q0 211 88.5 379.5t251 265t369.5 96.5q182 0 333.5 -79t266.5 -226l-164 -143q-78 108 -193 167.5t-243 59.5q-140 0 -248.5 -67.5t-167.5 -185.5t-59 -267q0 -229 132 -374.5t351 -145.5q141 0 262 62t203 175
l164 -139q-239 -320 -629 -320zM467 1581l254 258h172l254 -258h-227l-111 121l-113 -121h-229z" />
    <glyph glyph-name="ccircumflex" unicode="&#x109;" horiz-adv-x="1126" 
d="M627 -25q-232 0 -384.5 155.5t-152.5 391.5q0 237 152.5 392t386.5 155q131 0 243 -49.5t185 -140.5l-135 -142q-57 60 -133 92.5t-156 32.5q-141 0 -231.5 -95.5t-90.5 -244.5q0 -151 88 -245.5t236 -94.5q90 0 167.5 36.5t131.5 105.5l147 -136q-70 -102 -189 -157.5
t-265 -55.5zM281 1217l254 299h172l254 -299h-228l-110 143l-113 -143h-229z" />
    <glyph glyph-name="Cdotaccent" unicode="&#x10a;" horiz-adv-x="1492" 
d="M815 -25q-210 0 -374.5 96.5t-253.5 265t-89 380.5q0 211 88.5 379.5t251 265t369.5 96.5q182 0 333.5 -79t266.5 -226l-164 -143q-78 108 -193 167.5t-243 59.5q-140 0 -248.5 -67.5t-167.5 -185.5t-59 -267q0 -229 132 -374.5t351 -145.5q141 0 262 62t203 175
l164 -139q-239 -320 -629 -320zM649 1716q0 70 44.5 115t113.5 45t113.5 -45t44.5 -115t-44.5 -115t-113.5 -45t-113.5 45t-44.5 115z" />
    <glyph glyph-name="cdotaccent" unicode="&#x10b;" horiz-adv-x="1126" 
d="M627 -25q-232 0 -384.5 155.5t-152.5 391.5q0 237 152.5 392t386.5 155q131 0 243 -49.5t185 -140.5l-135 -142q-57 60 -133 92.5t-156 32.5q-141 0 -231.5 -95.5t-90.5 -244.5q0 -151 88 -245.5t236 -94.5q90 0 167.5 36.5t131.5 105.5l147 -136q-70 -102 -189 -157.5
t-265 -55.5zM467 1329q0 69 43 112.5t111 43.5t110.5 -43.5t42.5 -112.5t-42.5 -112t-110.5 -43t-111 43t-43 112z" />
    <glyph glyph-name="Ccaron" unicode="&#x10c;" horiz-adv-x="1492" 
d="M815 -25q-210 0 -374.5 96.5t-253.5 265t-89 380.5q0 211 88.5 379.5t251 265t369.5 96.5q182 0 333.5 -79t266.5 -226l-164 -143q-78 108 -193 167.5t-243 59.5q-140 0 -248.5 -67.5t-167.5 -185.5t-59 -267q0 -229 132 -374.5t351 -145.5q141 0 262 62t203 175
l164 -139q-239 -320 -629 -320zM467 1839h229l113 -121l111 121h227l-254 -258h-172z" />
    <glyph glyph-name="ccaron" unicode="&#x10d;" horiz-adv-x="1126" 
d="M627 -25q-232 0 -384.5 155.5t-152.5 391.5q0 237 152.5 392t386.5 155q131 0 243 -49.5t185 -140.5l-135 -142q-57 60 -133 92.5t-156 32.5q-141 0 -231.5 -95.5t-90.5 -244.5q0 -151 88 -245.5t236 -94.5q90 0 167.5 36.5t131.5 105.5l147 -136q-70 -102 -189 -157.5
t-265 -55.5zM281 1516h229l113 -144l110 144h228l-254 -299h-172z" />
    <glyph glyph-name="Dcaron" unicode="&#x10e;" horiz-adv-x="1511" 
d="M174 0v1434h510q217 0 382.5 -88.5t256 -251.5t90.5 -377t-90.5 -377t-256 -251.5t-382.5 -88.5h-510zM350 1839h230l112 -121l111 121h227l-254 -258h-172zM403 219h267q238 0 374 133t136 365t-136 364.5t-374 132.5h-267v-995z" />
    <glyph glyph-name="dcaron" unicode="&#x10f;" horiz-adv-x="1441" 
d="M604 -25q-224 0 -369 154t-145 393t145 393t369 154q225 0 367 -158v605h221v-1516h-217v137q-143 -162 -371 -162zM311 522q0 -151 93 -245.5t239 -94.5t239 94.5t93 245.5t-93 245.5t-239 94.5t-239 -94.5t-93 -245.5zM1278 1094l70 422h235l-135 -422h-170z" />
    <glyph glyph-name="Dcroat" unicode="&#x110;" horiz-adv-x="1562" 
d="M33 635v188h192v611h510q217 0 382.5 -88.5t256 -251.5t90.5 -377t-90.5 -377t-256 -251.5t-382.5 -88.5h-510v635h-192zM455 219h266q238 0 374 133t136 365t-136 364.5t-374 132.5h-266v-395h321v-180h-321v-420z" />
    <glyph glyph-name="dcroat" unicode="&#x111;" horiz-adv-x="1431" 
d="M604 -25q-224 0 -369 153t-145 388t145 388t369 153t367 -156v283h-305v164h305v168h221v-168h190v-164h-190v-1184h-217v135q-144 -160 -371 -160zM311 516q0 -146 93 -240t239 -94q145 0 238.5 94.5t93.5 239.5t-93.5 239.5t-238.5 94.5q-146 0 -239 -94t-93 -240z" />
    <glyph glyph-name="Emacron" unicode="&#x112;" horiz-adv-x="1212" 
d="M174 0v1434h907v-213h-678v-392h625v-206h-625v-408h703v-215h-932zM354 1599v168h586v-168h-586z" />
    <glyph glyph-name="emacron" unicode="&#x113;" horiz-adv-x="1228" 
d="M637 -25q-244 0 -395.5 152.5t-151.5 394.5q0 239 150.5 393t382.5 154q173 0 303.5 -89t188.5 -239.5t28 -326.5h-830q28 -104 118 -171t210 -67q188 0 326 135l131 -143q-78 -91 -195 -142t-266 -51zM311 602h627q-22 119 -106.5 192.5t-208.5 73.5
q-121 0 -205.5 -72.5t-106.5 -193.5zM340 1235v162h569v-162h-569z" />
    <glyph glyph-name="Ebreve" unicode="&#x114;" horiz-adv-x="1212" 
d="M174 0v1434h907v-213h-678v-392h625v-206h-625v-408h703v-215h-932zM338 1819l176 32q17 -122 133 -122t133 122l176 -32q-19 -126 -94.5 -187t-214.5 -61t-214.5 61t-94.5 187z" />
    <glyph glyph-name="ebreve" unicode="&#x115;" horiz-adv-x="1228" 
d="M637 -25q-244 0 -395.5 152.5t-151.5 394.5q0 239 150.5 393t382.5 154q173 0 303.5 -89t188.5 -239.5t28 -326.5h-830q28 -104 118 -171t210 -67q188 0 326 135l131 -143q-78 -91 -195 -142t-266 -51zM309 1491l166 33q10 -84 46.5 -123t103.5 -39q66 0 102.5 39
t46.5 123l166 -33q-19 -146 -95.5 -215.5t-219.5 -69.5t-220 69.5t-96 215.5zM311 602h627q-22 119 -106.5 192.5t-208.5 73.5q-121 0 -205.5 -72.5t-106.5 -193.5z" />
    <glyph glyph-name="Edotaccent" unicode="&#x116;" horiz-adv-x="1212" 
d="M174 0v1434h907v-213h-678v-392h625v-206h-625v-408h703v-215h-932zM489 1716q0 70 44.5 115t113.5 45t113.5 -45t44.5 -115t-44.5 -115t-113.5 -45t-113.5 45t-44.5 115z" />
    <glyph glyph-name="edotaccent" unicode="&#x117;" horiz-adv-x="1228" 
d="M637 -25q-244 0 -395.5 152.5t-151.5 394.5q0 239 150.5 393t382.5 154q173 0 303.5 -89t188.5 -239.5t28 -326.5h-830q28 -104 118 -171t210 -67q188 0 326 135l131 -143q-78 -91 -195 -142t-266 -51zM311 602h627q-22 119 -106.5 192.5t-208.5 73.5
q-121 0 -205.5 -72.5t-106.5 -193.5zM471 1329q0 69 43 112.5t111 43.5t110.5 -43.5t42.5 -112.5t-42.5 -112t-110.5 -43t-111 43t-43 112z" />
    <glyph glyph-name="Eogonek" unicode="&#x118;" horiz-adv-x="1212" 
d="M174 0v1434h907v-213h-678v-392h625v-206h-625v-408h703v-215q-143 -88 -143 -195q0 -75 71 -75q46 0 99 39l77 -127q-98 -88 -209 -88q-98 0 -157.5 57t-59.5 151q0 132 121 238h-731z" />
    <glyph glyph-name="eogonek" unicode="&#x119;" horiz-adv-x="1253" 
d="M784 -446q-97 0 -157 58t-60 150q0 107 95 213h-19q-246 0 -399.5 152t-153.5 395q0 239 150.5 393t382.5 154q173 0 303.5 -89t189 -239.5t29.5 -326.5h-832q26 -105 116.5 -171.5t211.5 -66.5q185 0 326 135l131 -143q-60 -69 -203 -160q-80 -52 -118 -99t-38 -97
q0 -38 21 -62t55 -24q48 0 94 38l76 -124q-96 -86 -201 -86zM311 602h627q-20 119 -106.5 192.5t-208.5 73.5q-121 0 -205.5 -72.5t-106.5 -193.5z" />
    <glyph glyph-name="Ecaron" unicode="&#x11a;" horiz-adv-x="1212" 
d="M174 0v1434h907v-213h-678v-392h625v-206h-625v-408h703v-215h-932zM307 1839h230l112 -121l111 121h227l-254 -258h-172z" />
    <glyph glyph-name="ecaron" unicode="&#x11b;" horiz-adv-x="1228" 
d="M637 -25q-244 0 -395.5 152.5t-151.5 394.5q0 239 150.5 393t382.5 154q173 0 303.5 -89t188.5 -239.5t28 -326.5h-830q28 -104 118 -171t210 -67q188 0 326 135l131 -143q-78 -91 -195 -142t-266 -51zM285 1516h229l113 -144l110 144h228l-254 -299h-172zM311 602h627
q-22 119 -106.5 192.5t-208.5 73.5q-121 0 -205.5 -72.5t-106.5 -193.5z" />
    <glyph glyph-name="Gcircumflex" unicode="&#x11c;" horiz-adv-x="1566" 
d="M844 -25q-224 0 -394.5 95.5t-261 263.5t-90.5 383q0 158 53.5 294.5t148.5 235t232.5 155t298.5 56.5q163 0 305 -59t250 -170l-147 -156q-71 76 -180 120t-228 44q-222 0 -360.5 -146t-138.5 -374q0 -231 137.5 -375.5t370.5 -144.5q108 0 214.5 32t180.5 90v246h-461
v215h680v-559q-114 -121 -274.5 -183.5t-335.5 -62.5zM492 1581l253 258h173l253 -258h-227l-110 121l-113 -121h-229z" />
    <glyph glyph-name="gcircumflex" unicode="&#x11d;" horiz-adv-x="1294" 
d="M674 -684q-294 0 -450 85t-156 245q0 68 28.5 126.5t77.5 92.5q-80 68 -80 172q0 147 150 242q-97 124 -97 296q0 209 136 339t356 130h604v-192h-227q114 -114 114 -287q0 -200 -138.5 -329.5t-352.5 -129.5q-143 0 -256 58q-76 -36 -76 -96t83.5 -85.5t316.5 -35.5
q273 -12 397.5 -83t124.5 -214q0 -158 -146 -246t-409 -88zM285 -334q0 -79 89 -114t290 -35q348 0 348 121q0 55 -73.5 80t-242.5 28q-207 3 -340 37q-30 -21 -50.5 -54t-20.5 -63zM315 1217l254 299h172l254 -299h-227l-111 143l-112 -143h-230zM365 575q0 -120 76 -195
t198 -75q121 0 197.5 75.5t76.5 194.5t-76.5 195t-197.5 76t-197.5 -76t-76.5 -195z" />
    <glyph glyph-name="Gbreve" unicode="&#x11e;" horiz-adv-x="1566" 
d="M844 -25q-224 0 -394.5 95.5t-261 263.5t-90.5 383q0 158 53.5 294.5t148.5 235t232.5 155t298.5 56.5q163 0 305 -59t250 -170l-147 -156q-71 76 -180 120t-228 44q-222 0 -360.5 -146t-138.5 -374q0 -231 137.5 -375.5t370.5 -144.5q108 0 214.5 32t180.5 90v246h-461
v215h680v-559q-114 -121 -274.5 -183.5t-335.5 -62.5zM522 1819l176 32q17 -122 133 -122q117 0 134 122l176 -32q-19 -126 -95 -187t-215 -61t-214.5 61t-94.5 187z" />
    <glyph glyph-name="gbreve" unicode="&#x11f;" horiz-adv-x="1294" 
d="M674 -684q-294 0 -450 85t-156 245q0 68 28.5 126.5t77.5 92.5q-80 68 -80 172q0 147 150 242q-97 124 -97 296q0 209 136 339t356 130h604v-192h-227q114 -114 114 -287q0 -200 -138.5 -329.5t-352.5 -129.5q-143 0 -256 58q-76 -36 -76 -96t83.5 -85.5t316.5 -35.5
q273 -12 397.5 -83t124.5 -214q0 -158 -146 -246t-409 -88zM285 -334q0 -79 89 -114t290 -35q348 0 348 121q0 55 -73.5 80t-242.5 28q-207 3 -340 37q-30 -21 -50.5 -54t-20.5 -63zM340 1491l166 33q10 -84 46.5 -123t102.5 -39q67 0 103.5 39t46.5 123l166 -33
q-19 -146 -96 -215.5t-220 -69.5t-219.5 69.5t-95.5 215.5zM365 575q0 -120 76 -195t198 -75q121 0 197.5 75.5t76.5 194.5t-76.5 195t-197.5 76t-197.5 -76t-76.5 -195z" />
    <glyph glyph-name="Gdotaccent" unicode="&#x120;" horiz-adv-x="1566" 
d="M844 -25q-224 0 -394.5 95.5t-261 263.5t-90.5 383q0 158 53.5 294.5t148.5 235t232.5 155t298.5 56.5q163 0 305 -59t250 -170l-147 -156q-71 76 -180 120t-228 44q-222 0 -360.5 -146t-138.5 -374q0 -231 137.5 -375.5t370.5 -144.5q108 0 214.5 32t180.5 90v246h-461
v215h680v-559q-114 -121 -274.5 -183.5t-335.5 -62.5zM674 1716q0 70 44 115t113 45t113.5 -45t44.5 -115t-44.5 -115t-113.5 -45t-113 45t-44 115z" />
    <glyph glyph-name="gdotaccent" unicode="&#x121;" horiz-adv-x="1294" 
d="M674 -684q-294 0 -450 85t-156 245q0 68 28.5 126.5t77.5 92.5q-80 68 -80 172q0 147 150 242q-97 124 -97 296q0 209 136 339t356 130h604v-192h-227q114 -114 114 -287q0 -200 -138.5 -329.5t-352.5 -129.5q-143 0 -256 58q-76 -36 -76 -96t83.5 -85.5t316.5 -35.5
q273 -12 397.5 -83t124.5 -214q0 -158 -146 -246t-409 -88zM285 -334q0 -79 89 -114t290 -35q348 0 348 121q0 55 -73.5 80t-242.5 28q-207 3 -340 37q-30 -21 -50.5 -54t-20.5 -63zM365 575q0 -120 76 -195t198 -75q121 0 197.5 75.5t76.5 194.5t-76.5 195t-197.5 76
t-197.5 -76t-76.5 -195zM502 1329q0 69 42.5 112.5t110.5 43.5t111 -43.5t43 -112.5t-43 -112t-111 -43t-110.5 43t-42.5 112z" />
    <glyph glyph-name="uni0122" unicode="&#x122;" horiz-adv-x="1566" 
d="M844 -25q-224 0 -394.5 95.5t-261 263.5t-90.5 383q0 158 53.5 294.5t148.5 235t232.5 155t298.5 56.5q163 0 305 -59t250 -170l-147 -156q-71 76 -180 120t-228 44q-222 0 -360.5 -146t-138.5 -374q0 -231 137.5 -375.5t370.5 -144.5q108 0 214.5 32t180.5 90v246h-461
v215h680v-559q-114 -121 -274.5 -183.5t-335.5 -62.5zM725 -231q0 57 33.5 93t87.5 36q66 0 103.5 -44.5t37.5 -119.5q0 -146 -153 -287l-72 68q35 38 53.5 68.5t28.5 68.5q-52 4 -85.5 37.5t-33.5 79.5z" />
    <glyph glyph-name="uni0123" unicode="&#x123;" horiz-adv-x="1294" 
d="M674 -684q-294 0 -450 85t-156 245q0 68 28.5 126.5t77.5 92.5q-80 68 -80 172q0 147 150 242q-97 124 -97 296q0 209 136 339t356 130h604v-192h-227q114 -114 114 -287q0 -200 -138.5 -329.5t-352.5 -129.5q-143 0 -256 58q-76 -36 -76 -96t83.5 -85.5t316.5 -35.5
q273 -12 397.5 -83t124.5 -214q0 -158 -146 -246t-409 -88zM285 -334q0 -79 89 -114t290 -35q348 0 348 121q0 55 -73.5 80t-242.5 28q-207 3 -340 37q-30 -21 -50.5 -54t-20.5 -63zM365 575q0 -120 76 -195t198 -75q121 0 197.5 75.5t76.5 194.5t-76.5 195t-197.5 76
t-197.5 -76t-76.5 -195zM524 1333q0 145 154 287l72 -68q-35 -38 -53.5 -68.5t-28.5 -68.5q52 -4 85 -37.5t33 -79.5q0 -57 -33 -93t-87 -36q-66 0 -104 44.5t-38 119.5z" />
    <glyph glyph-name="Hcircumflex" unicode="&#x124;" horiz-adv-x="1513" 
d="M1110 0v621h-707v-621h-229v1434h229v-594h707v594h229v-1434h-229zM418 1581l254 258h172l254 -258h-228l-110 121l-113 -121h-229z" />
    <glyph glyph-name="hcircumflex" unicode="&#x125;" horiz-adv-x="1273" 
d="M158 0v1516h221v-596q133 139 330 139q189 0 305 -118.5t116 -311.5v-629h-221v590q0 128 -61.5 195t-179.5 67q-134 0 -211.5 -80t-77.5 -217v-555h-221zM-72 1663l254 258h172l254 -258h-227l-111 121l-112 -121h-230z" />
    <glyph glyph-name="Hbar" unicode="&#x126;" horiz-adv-x="1566" 
d="M1137 0v625h-707v-625h-229v1047h-156v188h156v199h229v-199h707v199h229v-199h156v-188h-156v-1047h-229zM430 829h707v222h-707v-222z" />
    <glyph glyph-name="hbar" unicode="&#x127;" horiz-adv-x="1294" 
d="M178 0v1184h-190v164h190v168h221v-168h306v-164h-306v-264q130 139 330 139q189 0 305.5 -118.5t116.5 -311.5v-629h-221v590q0 128 -62 195t-180 67q-134 0 -211.5 -80t-77.5 -217v-555h-221z" />
    <glyph glyph-name="Itilde" unicode="&#x128;" horiz-adv-x="577" 
d="M174 0v1434h229v-1434h-229zM-55 1640q70 187 213 187q39 0 77 -15.5t62.5 -33.5t54.5 -33.5t56 -15.5q56 0 102 94l125 -72q-70 -186 -213 -186q-39 0 -77 15.5t-62.5 33.5t-54.5 33.5t-56 15.5q-56 0 -102 -94z" />
    <glyph glyph-name="itilde" unicode="&#x129;" horiz-adv-x="536" 
d="M158 0v1044h221v-1044h-221zM-55 1249q67 187 200 187q36 0 70.5 -15.5t57 -34t50 -34t50.5 -15.5q58 0 90 95l125 -72q-67 -186 -201 -186q-36 0 -70.5 15.5t-57 33.5t-49.5 33.5t-50 15.5q-58 0 -90 -94z" />
    <glyph glyph-name="Imacron" unicode="&#x12a;" horiz-adv-x="577" 
d="M174 0v1434h229v-1434h-229zM16 1599v168h545v-168h-545z" />
    <glyph glyph-name="imacron" unicode="&#x12b;" horiz-adv-x="536" 
d="M158 0v1044h221v-1044h-221zM12 1235v162h512v-162h-512z" />
    <glyph glyph-name="Ibreve" unicode="&#x12c;" horiz-adv-x="577" 
d="M174 0v1434h229v-1434h-229zM-20 1819l176 32q17 -122 133 -122t133 122l176 -32q-19 -126 -94.5 -187t-214.5 -61t-214.5 61t-94.5 187z" />
    <glyph glyph-name="ibreve" unicode="&#x12d;" horiz-adv-x="536" 
d="M158 0v1044h221v-1044h-221zM-27 1491l166 33q9 -84 40.5 -123t88.5 -39t88.5 39t40.5 123l166 -33q-17 -146 -89 -215.5t-206 -69.5t-206 69.5t-89 215.5z" />
    <glyph glyph-name="Iogonek" unicode="&#x12e;" horiz-adv-x="577" 
d="M174 0v1434h229v-1434q-143 -88 -143 -195q0 -75 72 -75q45 0 98 39l78 -127q-98 -88 -209 -88q-98 0 -157.5 57t-59.5 151q0 132 121 238h-29z" />
    <glyph glyph-name="iogonek" unicode="&#x12f;" horiz-adv-x="536" 
d="M158 0v1044h221v-1044q-129 -89 -129 -199q0 -75 69 -75q47 0 93 38l75 -124q-92 -86 -202 -86q-95 0 -152 56t-57 148q0 136 121 242h-39zM109 1341q0 72 44 117t115 45t115.5 -45t44.5 -117t-44.5 -116.5t-115.5 -44.5t-115 44.5t-44 116.5z" />
    <glyph glyph-name="Idotaccent" unicode="&#x130;" horiz-adv-x="577" 
d="M174 0v1434h229v-1434h-229zM131 1716q0 70 44.5 115t113.5 45t113 -45t44 -115t-44 -115t-113 -45t-113.5 45t-44.5 115z" />
    <glyph glyph-name="dotlessi" unicode="&#x131;" horiz-adv-x="536" 
d="M158 0v1044h221v-1044h-221z" />
    <glyph glyph-name="IJ" unicode="&#x132;" horiz-adv-x="1527" 
d="M174 0v1434h229v-1434h-229zM590 57l90 193q117 -57 235 -57q116 0 171 78.5t55 246.5v916h229v-938q0 -254 -117.5 -387.5t-337.5 -133.5q-83 0 -157.5 19.5t-167.5 62.5z" />
    <glyph glyph-name="ij" unicode="&#x133;" horiz-adv-x="1073" 
d="M158 0v1044h221v-1044h-221zM109 1341q0 72 44 117t115 45t115.5 -45t44.5 -117t-44.5 -116.5t-115.5 -44.5t-115 44.5t-44 116.5zM403 -457l48 197q69 -16 114 -16q70 0 99.5 36.5t29.5 122.5v1161h221v-1198q0 -158 -85 -244.5t-240 -86.5q-95 0 -187 28zM645 1341
q0 72 44.5 117t115.5 45t115.5 -45t44.5 -117t-44.5 -116.5t-115.5 -44.5t-115.5 44.5t-44.5 116.5z" />
    <glyph glyph-name="Jcircumflex" unicode="&#x134;" horiz-adv-x="950" 
d="M338 -25q-83 0 -158 19.5t-168 62.5l90 193q117 -57 236 -57q116 0 170.5 78.5t54.5 246.5v916h230v-938q0 -254 -117.5 -387.5t-337.5 -133.5zM338 1581l254 258h172l254 -258h-227l-111 121l-113 -121h-229z" />
    <glyph glyph-name="jcircumflex" unicode="&#x135;" horiz-adv-x="536" 
d="M53 -485q-94 0 -186 28l47 197q69 -16 115 -16q70 0 99.5 36.5t29.5 122.5v1161h221v-1198q0 -158 -85.5 -244.5t-240.5 -86.5zM-27 1217l209 299h172l209 -299h-217l-76 131l-77 -131h-220z" />
    <glyph glyph-name="uni0136" unicode="&#x136;" horiz-adv-x="1314" 
d="M1004 0l-467 616h-134v-616h-229v1434h229v-605h129l453 605h287l-535 -705l555 -729h-288zM559 -231q0 57 33.5 93t87.5 36q66 0 103.5 -44.5t37.5 -119.5q0 -146 -153 -287l-72 68q35 38 53.5 68.5t28.5 68.5q-52 4 -85.5 37.5t-33.5 79.5z" />
    <glyph glyph-name="uni0137" unicode="&#x137;" horiz-adv-x="1105" 
d="M815 0l-323 438h-113v-438h-221v1516h221v-877h121l301 405h264l-381 -509l401 -535h-270zM451 -231q0 57 33 93t87 36q66 0 104 -44.5t38 -119.5q0 -145 -154 -287l-72 68q35 38 53.5 68.5t28.5 68.5q-52 4 -85 37.5t-33 79.5z" />
    <glyph glyph-name="kgreenlandic" unicode="&#x138;" horiz-adv-x="1105" 
d="M815 0l-323 438h-113v-438h-221v1044h221v-405h121l301 405h264l-381 -509l401 -535h-270z" />
    <glyph glyph-name="Lacute" unicode="&#x139;" horiz-adv-x="1128" 
d="M184 1581l131 258h267l-201 -258h-197zM174 0v1434h229v-1215h654v-219h-883z" />
    <glyph glyph-name="lacute" unicode="&#x13a;" horiz-adv-x="536" 
d="M158 0v1516h221v-1516h-221zM164 1663l131 258h266l-201 -258h-196z" />
    <glyph glyph-name="uni013B" unicode="&#x13b;" horiz-adv-x="1128" 
d="M541 -485q35 38 53.5 68.5t28.5 68.5q-52 4 -85.5 37.5t-33.5 79.5q0 57 33.5 93t87.5 36q66 0 103.5 -44.5t37.5 -119.5q0 -145 -154 -287zM174 0v1434h229v-1215h654v-219h-883z" />
    <glyph glyph-name="uni013C" unicode="&#x13c;" horiz-adv-x="536" 
d="M158 0v1516h221v-1516h-221zM137 -231q0 57 33.5 93t87.5 36q66 0 103.5 -44.5t37.5 -119.5q0 -146 -153 -287l-72 68q35 38 53.5 68.5t28.5 68.5q-52 4 -85.5 37.5t-33.5 79.5z" />
    <glyph glyph-name="Lcaron" unicode="&#x13d;" horiz-adv-x="1128" 
d="M727 1012l61 422h248l-127 -422h-182zM174 0v1434h229v-1215h654v-219h-883z" />
    <glyph glyph-name="lcaron" unicode="&#x13e;" horiz-adv-x="628" 
d="M158 0v1516h221v-1516h-221zM465 1094l70 422h235l-135 -422h-170z" />
    <glyph glyph-name="Ldot" unicode="&#x13f;" horiz-adv-x="1128" 
d="M842 659q-61 0 -103.5 40t-42.5 102t42.5 101.5t103.5 39.5t103 -39.5t42 -101.5t-42 -102t-103 -40zM174 0v1434h229v-1215h654v-219h-883z" />
    <glyph glyph-name="ldot" unicode="&#x140;" horiz-adv-x="886" 
d="M158 0v1516h221v-1516h-221zM508 651q0 62 42 102t103 40t103.5 -40t42.5 -102t-42.5 -101.5t-103.5 -39.5t-103 39.5t-42 101.5z" />
    <glyph glyph-name="Lslash" unicode="&#x141;" horiz-adv-x="1167" 
d="M16 457v207l197 84v686h229v-588l418 180v-207l-418 -180v-420h654v-219h-883v541z" />
    <glyph glyph-name="lslash" unicode="&#x142;" horiz-adv-x="593" 
d="M186 0v602l-186 -90v205l186 90v709h222v-603l186 91v-205l-186 -90v-709h-222z" />
    <glyph glyph-name="Nacute" unicode="&#x143;" horiz-adv-x="1546" 
d="M174 0v1434h205l766 -1031v1031h227v-1434h-207l-764 1030v-1030h-227zM680 1581l131 258h266l-200 -258h-197z" />
    <glyph glyph-name="nacute" unicode="&#x144;" horiz-adv-x="1273" 
d="M158 0v1044h217v-131q71 76 150 111t184 35q190 0 305.5 -119.5t115.5 -314.5v-625h-221v586q0 129 -61.5 197.5t-179.5 68.5q-134 0 -211.5 -81t-77.5 -220v-551h-221zM543 1217l131 299h266l-199 -299h-198z" />
    <glyph glyph-name="uni0145" unicode="&#x145;" horiz-adv-x="1546" 
d="M174 0v1434h205l766 -1031v1031h227v-1434h-207l-764 1030v-1030h-227zM655 -231q0 57 33.5 93t87.5 36q66 0 104 -44.5t38 -119.5q0 -145 -154 -287l-72 68q35 38 53.5 68.5t28.5 68.5q-52 4 -85.5 37.5t-33.5 79.5z" />
    <glyph glyph-name="uni0146" unicode="&#x146;" horiz-adv-x="1273" 
d="M158 0v1044h217v-131q71 76 150 111t184 35q190 0 305.5 -119.5t115.5 -314.5v-625h-221v586q0 129 -61.5 197.5t-179.5 68.5q-134 0 -211.5 -81t-77.5 -220v-551h-221zM514 -231q0 57 33.5 93t87.5 36q66 0 103.5 -44.5t37.5 -119.5q0 -146 -153 -287l-72 68
q35 38 53.5 68.5t28.5 68.5q-52 4 -85.5 37.5t-33.5 79.5z" />
    <glyph glyph-name="Ncaron" unicode="&#x147;" horiz-adv-x="1546" 
d="M174 0v1434h205l766 -1031v1031h227v-1434h-207l-764 1030v-1030h-227zM444 1839h230l112 -121l111 121h227l-254 -258h-172z" />
    <glyph glyph-name="ncaron" unicode="&#x148;" horiz-adv-x="1273" 
d="M158 0v1044h217v-131q71 76 150 111t184 35q190 0 305.5 -119.5t115.5 -314.5v-625h-221v586q0 129 -61.5 197.5t-179.5 68.5q-134 0 -211.5 -81t-77.5 -220v-551h-221zM311 1516h230l112 -144l111 144h227l-254 -299h-172z" />
    <glyph glyph-name="napostrophe" unicode="&#x149;" horiz-adv-x="1439" 
d="M324 2v1045h217v-132q71 76 150 111t183 35q190 0 306 -119.5t116 -314.5v-625h-221v586q0 129 -61.5 197.5t-179.5 68.5q-134 0 -211.5 -81t-77.5 -220v-551h-221zM-12 1376q0 62 37 102t96 40q72 0 113.5 -49t41.5 -132t-41.5 -159t-128.5 -156l-77 74q40 45 59.5 77.5
t28.5 73.5q-56 5 -92.5 41t-36.5 88z" />
    <glyph glyph-name="Eng" unicode="&#x14a;" horiz-adv-x="1546" 
d="M174 0v1434h205l766 -1039v1039h227v-1588q0 -158 -85 -244.5t-240 -86.5q-89 0 -185 28l47 197q62 -16 115 -16q69 0 98 36.5t29 122.5v135l-750 1018v-1036h-227z" />
    <glyph glyph-name="eng" unicode="&#x14b;" horiz-adv-x="1273" 
d="M805 -485q-95 0 -187 28l48 193q73 -17 114 -17q70 0 99.5 36.5t29.5 123.5v707q0 129 -61.5 197.5t-179.5 68.5q-134 0 -211.5 -81t-77.5 -220v-551h-221v1044h217v-131q71 76 150 111t184 35q190 0 305.5 -119.5t115.5 -314.5v-779q0 -158 -85 -244.5t-240 -86.5z" />
    <glyph glyph-name="Omacron" unicode="&#x14c;" horiz-adv-x="1675" 
d="M838 -25q-212 0 -381.5 95.5t-264 265t-94.5 381.5q0 159 56 297t153.5 235.5t235 153t295.5 55.5q211 0 380 -95.5t264 -265t95 -380.5t-95 -381t-264 -265.5t-380 -95.5zM332 717q0 -226 142.5 -373t363.5 -147t363 147t142 373t-142 373t-363 147t-363.5 -147
t-142.5 -373zM545 1599v168h585v-168h-585z" />
    <glyph glyph-name="omacron" unicode="&#x14d;" horiz-adv-x="1290" 
d="M645 -25q-245 0 -400 153t-155 394t155 394t400 153t400 -153t155 -394t-155 -394t-400 -153zM311 522q0 -151 93.5 -245.5t240.5 -94.5t240.5 94.5t93.5 245.5t-93.5 245.5t-240.5 94.5t-240.5 -94.5t-93.5 -245.5zM360 1235v162h570v-162h-570z" />
    <glyph glyph-name="Obreve" unicode="&#x14e;" horiz-adv-x="1675" 
d="M838 -25q-212 0 -381.5 95.5t-264 265t-94.5 381.5q0 159 56 297t153.5 235.5t235 153t295.5 55.5q211 0 380 -95.5t264 -265t95 -380.5t-95 -381t-264 -265.5t-380 -95.5zM332 717q0 -226 142.5 -373t363.5 -147t363 147t142 373t-142 373t-363 147t-363.5 -147
t-142.5 -373zM528 1819l177 32q17 -122 133 -122t133 122l176 -32q-19 -126 -94.5 -187t-214.5 -61t-215 61t-95 187z" />
    <glyph glyph-name="obreve" unicode="&#x14f;" horiz-adv-x="1290" 
d="M645 -25q-245 0 -400 153t-155 394t155 394t400 153t400 -153t155 -394t-155 -394t-400 -153zM311 522q0 -151 93.5 -245.5t240.5 -94.5t240.5 94.5t93.5 245.5t-93.5 245.5t-240.5 94.5t-240.5 -94.5t-93.5 -245.5zM330 1491l166 33q10 -84 46.5 -123t102.5 -39
q67 0 103.5 39t46.5 123l166 -33q-19 -146 -96 -215.5t-220 -69.5t-219.5 69.5t-95.5 215.5z" />
    <glyph glyph-name="Ohungarumlaut" unicode="&#x150;" horiz-adv-x="1675" 
d="M838 -25q-212 0 -381.5 95.5t-264 265t-94.5 381.5q0 159 56 297t153.5 235.5t235 153t295.5 55.5q211 0 380 -95.5t264 -265t95 -380.5t-95 -381t-264 -265.5t-380 -95.5zM332 717q0 -226 142.5 -373t363.5 -147t363 147t142 373t-142 373t-363 147t-363.5 -147
t-142.5 -373zM559 1581l119 258h242l-179 -258h-182zM885 1581l147 258h242l-199 -258h-190z" />
    <glyph glyph-name="ohungarumlaut" unicode="&#x151;" horiz-adv-x="1290" 
d="M645 -25q-245 0 -400 153t-155 394t155 394t400 153t400 -153t155 -394t-155 -394t-400 -153zM311 522q0 -151 93.5 -245.5t240.5 -94.5t240.5 94.5t93.5 245.5t-93.5 245.5t-240.5 94.5t-240.5 -94.5t-93.5 -245.5zM369 1217l118 299h242l-178 -299h-182zM694 1217
l148 299h241l-198 -299h-191z" />
    <glyph glyph-name="OE" unicode="&#x152;" horiz-adv-x="2039" 
d="M858 -25q-346 0 -553 202t-207 540q0 337 205.5 539t544.5 202q122 0 227 -24h834v-213h-611v-387h557v-207h-557v-412h635v-215h-858q-106 -25 -217 -25zM332 717q0 -251 146.5 -390t410.5 -139q79 0 184 19v1018q-92 18 -186 18q-263 0 -409 -138t-146 -388z" />
    <glyph glyph-name="oe" unicode="&#x153;" horiz-adv-x="2056" 
d="M618 -25q-232 0 -380 153t-148 394t148 394t380 153q140 0 253.5 -59t183.5 -164q70 105 180 164t242 59q164 0 288 -89t179 -239.5t26 -326.5h-809q28 -109 114.5 -173.5t203.5 -64.5q180 0 315 135l131 -143q-73 -91 -183.5 -142t-250.5 -51q-144 0 -256.5 58.5
t-181.5 163.5q-70 -104 -183.5 -163t-251.5 -59zM311 522q0 -151 91 -245.5t233 -94.5t232.5 94.5t90.5 245.5t-90.5 245.5t-232.5 94.5t-233 -94.5t-91 -245.5zM1157 602h606q-21 119 -102 192.5t-201 73.5q-116 0 -198 -72.5t-105 -193.5z" />
    <glyph glyph-name="Racute" unicode="&#x154;" horiz-adv-x="1355" 
d="M174 0v1434h571q142 0 256 -62t176 -167.5t62 -233.5q0 -147 -82 -263t-221 -167l344 -541h-258l-317 508h-302v-508h-229zM399 715h338q128 0 200.5 68t72.5 184t-72.5 184t-200.5 68h-338v-504zM547 1581l131 258h266l-201 -258h-196z" />
    <glyph glyph-name="racute" unicode="&#x155;" horiz-adv-x="849" 
d="M158 0v1044h217v-139q135 154 321 154q71 0 142 -25l-58 -221q-70 23 -131 23q-135 0 -202.5 -94t-67.5 -242v-500h-221zM389 1217l131 299h266l-198 -299h-199z" />
    <glyph glyph-name="uni0156" unicode="&#x156;" horiz-adv-x="1355" 
d="M174 0v1434h571q142 0 256 -62t176 -167.5t62 -233.5q0 -147 -82 -263t-221 -167l344 -541h-258l-317 508h-302v-508h-229zM399 715h338q128 0 200.5 68t72.5 184t-72.5 184t-200.5 68h-338v-504zM569 -231q0 57 33.5 93t87.5 36q66 0 103.5 -44.5t37.5 -119.5
q0 -146 -153 -287l-72 68q35 38 53.5 68.5t28.5 68.5q-52 4 -85.5 37.5t-33.5 79.5z" />
    <glyph glyph-name="uni0157" unicode="&#x157;" horiz-adv-x="849" 
d="M158 0v1044h217v-139q135 154 321 154q71 0 142 -25l-58 -221q-70 23 -131 23q-135 0 -202.5 -94t-67.5 -242v-500h-221zM137 -231q0 57 33.5 93t87.5 36q66 0 103.5 -44.5t37.5 -119.5q0 -146 -153 -287l-72 68q35 38 53.5 68.5t28.5 68.5q-52 4 -85.5 37.5t-33.5 79.5z
" />
    <glyph glyph-name="Rcaron" unicode="&#x158;" horiz-adv-x="1355" 
d="M174 0v1434h571q142 0 256 -62t176 -167.5t62 -233.5q0 -147 -82 -263t-221 -167l344 -541h-258l-317 508h-302v-508h-229zM311 1839h230l112 -121l111 121h227l-254 -258h-172zM399 715h338q128 0 200.5 68t72.5 184t-72.5 184t-200.5 68h-338v-504z" />
    <glyph glyph-name="rcaron" unicode="&#x159;" horiz-adv-x="849" 
d="M158 0v1044h217v-139q135 154 321 154q71 0 142 -25l-58 -221q-70 23 -131 23q-135 0 -202.5 -94t-67.5 -242v-500h-221zM158 1516h229l113 -144l110 144h228l-254 -299h-172z" />
    <glyph glyph-name="Sacute" unicode="&#x15a;" horiz-adv-x="1234" 
d="M623 -16q-150 0 -293.5 50t-249.5 138l117 180q194 -149 432 -149q140 0 218.5 46.5t78.5 129.5q0 78 -83 136t-278 118q-228 70 -333 173.5t-105 254.5q0 172 138 280.5t356 108.5q132 0 264 -48.5t237 -137.5l-125 -179q-74 66 -177.5 106t-205.5 40q-117 0 -186.5 -44
t-69.5 -116q0 -74 72 -127.5t264 -116.5q244 -79 355.5 -184t111.5 -256q0 -175 -152 -289t-386 -114zM520 1581l131 258h267l-201 -258h-197z" />
    <glyph glyph-name="sacute" unicode="&#x15b;" horiz-adv-x="993" 
d="M508 -16q-246 0 -436 143l96 176q175 -113 342 -113q92 0 143.5 27.5t51.5 77.5q0 45 -50.5 78t-167.5 63q-195 51 -282.5 129.5t-87.5 200.5q0 137 100.5 216t278.5 79q114 0 221 -36.5t190 -104.5l-104 -168q-57 48 -141.5 77t-167.5 29q-160 0 -160 -94q0 -46 47 -75
t170 -60q191 -47 283 -128t92 -200q0 -144 -114.5 -230.5t-303.5 -86.5zM397 1217l131 299h267l-199 -299h-199z" />
    <glyph glyph-name="Scircumflex" unicode="&#x15c;" horiz-adv-x="1234" 
d="M623 -16q-150 0 -293.5 50t-249.5 138l117 180q194 -149 432 -149q140 0 218.5 46.5t78.5 129.5q0 78 -83 136t-278 118q-228 70 -333 173.5t-105 254.5q0 172 138 280.5t356 108.5q132 0 264 -48.5t237 -137.5l-125 -179q-74 66 -177.5 106t-205.5 40q-117 0 -186.5 -44
t-69.5 -116q0 -74 72 -127.5t264 -116.5q244 -79 355.5 -184t111.5 -256q0 -175 -152 -289t-386 -114zM285 1581l254 258h172l254 -258h-228l-110 121l-113 -121h-229z" />
    <glyph glyph-name="scircumflex" unicode="&#x15d;" horiz-adv-x="993" 
d="M508 -16q-246 0 -436 143l96 176q175 -113 342 -113q92 0 143.5 27.5t51.5 77.5q0 45 -50.5 78t-167.5 63q-195 51 -282.5 129.5t-87.5 200.5q0 137 100.5 216t278.5 79q114 0 221 -36.5t190 -104.5l-104 -168q-57 48 -141.5 77t-167.5 29q-160 0 -160 -94q0 -46 47 -75
t170 -60q191 -47 283 -128t92 -200q0 -144 -114.5 -230.5t-303.5 -86.5zM166 1217l254 299h172l254 -299h-228l-110 143l-113 -143h-229z" />
    <glyph glyph-name="Scedilla" unicode="&#x15e;" horiz-adv-x="1234" 
d="M633 -496q-130 0 -234 78l76 119q62 -45 146 -45q106 0 106 70q0 34 -25 49.5t-61.5 14.5t-79.5 -5l-41 37l37 164q-133 10 -258 59t-219 127l117 180q194 -149 432 -149q140 0 218.5 46.5t78.5 129.5q0 78 -83 136t-278 118q-228 70 -333 173.5t-105 254.5
q0 172 138 280.5t356 108.5q132 0 264 -48.5t237 -137.5l-125 -179q-74 66 -177.5 106t-205.5 40q-117 0 -186.5 -44t-69.5 -116q0 -74 72 -127.5t264 -116.5q244 -79 355.5 -184t111.5 -256q0 -158 -125 -267.5t-327 -131.5l-15 -74q94 0 152.5 -53t58.5 -142
q0 -99 -76.5 -157t-195.5 -58z" />
    <glyph glyph-name="scedilla" unicode="&#x15f;" horiz-adv-x="993" 
d="M518 -496q-126 0 -227 78l76 117q59 -47 139 -47q104 0 104 72q0 35 -24 51t-59.5 15t-77.5 -5l-39 37l34 164q-209 18 -372 141l96 176q175 -113 342 -113q92 0 143.5 27.5t51.5 77.5q0 45 -50.5 78t-167.5 63q-195 51 -282.5 129.5t-87.5 200.5q0 137 100.5 216
t278.5 79q114 0 221 -36.5t190 -104.5l-104 -168q-57 48 -141.5 77t-167.5 29q-160 0 -160 -94q0 -46 47 -75t170 -60q191 -47 283 -128t92 -200q0 -127 -89.5 -210t-244.5 -103l-14 -76q94 2 150 -50.5t56 -142.5q0 -99 -75 -157t-191 -58z" />
    <glyph glyph-name="Scaron" unicode="&#x160;" horiz-adv-x="1234" 
d="M623 -16q-150 0 -293.5 50t-249.5 138l117 180q194 -149 432 -149q140 0 218.5 46.5t78.5 129.5q0 78 -83 136t-278 118q-228 70 -333 173.5t-105 254.5q0 172 138 280.5t356 108.5q132 0 264 -48.5t237 -137.5l-125 -179q-74 66 -177.5 106t-205.5 40q-117 0 -186.5 -44
t-69.5 -116q0 -74 72 -127.5t264 -116.5q244 -79 355.5 -184t111.5 -256q0 -175 -152 -289t-386 -114zM285 1839h229l113 -121l110 121h228l-254 -258h-172z" />
    <glyph glyph-name="scaron" unicode="&#x161;" horiz-adv-x="993" 
d="M508 -16q-246 0 -436 143l96 176q175 -113 342 -113q92 0 143.5 27.5t51.5 77.5q0 45 -50.5 78t-167.5 63q-195 51 -282.5 129.5t-87.5 200.5q0 137 100.5 216t278.5 79q114 0 221 -36.5t190 -104.5l-104 -168q-57 48 -141.5 77t-167.5 29q-160 0 -160 -94q0 -46 47 -75
t170 -60q191 -47 283 -128t92 -200q0 -144 -114.5 -230.5t-303.5 -86.5zM166 1516h229l113 -144l110 144h228l-254 -299h-172z" />
    <glyph glyph-name="uni0162" unicode="&#x162;" horiz-adv-x="1220" 
d="M496 0v1214h-443v220h1114v-220h-442v-1214h-35l-16 -86q94 0 152.5 -53t58.5 -142q0 -99 -77 -157t-196 -58q-129 0 -233 78l76 119q62 -45 145 -45q107 0 107 70q0 34 -25 49.5t-61.5 14.5t-79.5 -5l-41 37l39 178h-43z" />
    <glyph glyph-name="uni0163" unicode="&#x163;" horiz-adv-x="843" 
d="M49 852v192h189v244h221v-244h295v-192h-295v-500q0 -77 35.5 -118t103.5 -41q61 0 139 34l70 -188q-83 -41 -178 -51l-15 -76q94 2 150.5 -50.5t56.5 -142.5q0 -99 -75 -157t-191 -58q-126 0 -227 78l75 117q59 -47 140 -47q104 0 104 72q0 35 -24 51t-60 15t-78 -5
l-39 37l37 174q-116 26 -180.5 117.5t-64.5 228.5v510h-189z" />
    <glyph glyph-name="Tcaron" unicode="&#x164;" horiz-adv-x="1220" 
d="M496 0v1214h-443v220h1114v-220h-442v-1214h-229zM270 1839h230l112 -121l111 121h227l-254 -258h-172z" />
    <glyph glyph-name="tcaron" unicode="&#x165;" horiz-adv-x="843" 
d="M575 -14q-157 0 -247 96.5t-90 259.5v510h-189v192h189v244h221v-244h295v-192h-295v-500q0 -77 35.5 -118t103.5 -41q61 0 139 34l70 -188q-109 -53 -232 -53zM631 1153l65 363h226l-119 -363h-172z" />
    <glyph glyph-name="Tbar" unicode="&#x166;" horiz-adv-x="1220" 
d="M221 623v188h275v403h-443v220h1114v-220h-442v-403h274v-188h-274v-623h-229v623h-275z" />
    <glyph glyph-name="tbar" unicode="&#x167;" horiz-adv-x="843" 
d="M575 -14q-157 0 -247 96.5t-90 259.5v135h-168v172h168v203h-189v192h189v244h221v-244h295v-192h-295v-203h266v-172h-266v-129q0 -77 35.5 -118.5t103.5 -41.5q58 0 143 31l66 -182q-110 -51 -232 -51z" />
    <glyph glyph-name="Utilde" unicode="&#x168;" horiz-adv-x="1474" 
d="M737 -25q-258 0 -418.5 162t-160.5 432v865h229v-850q0 -188 91 -287.5t259 -99.5t259 99.5t91 287.5v850h230v-865q0 -269 -160.5 -431.5t-419.5 -162.5zM393 1640q70 187 213 187q39 0 77 -15.5t62.5 -33.5t54.5 -33.5t56 -15.5q56 0 102 94l125 -72
q-70 -186 -213 -186q-39 0 -77 15.5t-62.5 33.5t-54 33.5t-55.5 15.5q-57 0 -103 -94z" />
    <glyph glyph-name="utilde" unicode="&#x169;" horiz-adv-x="1273" 
d="M1116 1044v-1044h-217v131q-71 -76 -150 -110.5t-184 -34.5q-190 0 -306 119.5t-116 314.5v624h222v-585q0 -129 61.5 -197.5t179.5 -68.5q134 0 211.5 81t77.5 220v550h221zM289 1268q71 186 211 186q33 0 64.5 -12.5t84.5 -44.5q40 -25 58.5 -33t37.5 -8
q29 0 52.5 21.5t48.5 72.5l125 -72q-71 -186 -211 -186q-33 0 -65 12.5t-85 44.5q-40 25 -58.5 33t-37.5 8q-29 0 -52 -21.5t-48 -72.5z" />
    <glyph glyph-name="Umacron" unicode="&#x16a;" horiz-adv-x="1474" 
d="M737 -25q-258 0 -418.5 162t-160.5 432v865h229v-850q0 -188 91 -287.5t259 -99.5t259 99.5t91 287.5v850h230v-865q0 -269 -160.5 -431.5t-419.5 -162.5zM444 1599v168h586v-168h-586z" />
    <glyph glyph-name="umacron" unicode="&#x16b;" horiz-adv-x="1273" 
d="M1116 1044v-1044h-217v131q-71 -76 -150 -110.5t-184 -34.5q-190 0 -306 119.5t-116 314.5v624h222v-585q0 -129 61.5 -197.5t179.5 -68.5q134 0 211.5 81t77.5 220v550h221zM346 1235v162h569v-162h-569z" />
    <glyph glyph-name="Ubreve" unicode="&#x16c;" horiz-adv-x="1474" 
d="M737 -25q-258 0 -418.5 162t-160.5 432v865h229v-850q0 -188 91 -287.5t259 -99.5t259 99.5t91 287.5v850h230v-865q0 -269 -160.5 -431.5t-419.5 -162.5zM428 1819l176 32q17 -122 133 -122t133 122l177 -32q-19 -126 -95 -187t-215 -61t-214.5 61t-94.5 187z" />
    <glyph glyph-name="ubreve" unicode="&#x16d;" horiz-adv-x="1273" 
d="M1116 1044v-1044h-217v131q-71 -76 -150 -110.5t-184 -34.5q-190 0 -306 119.5t-116 314.5v624h222v-585q0 -129 61.5 -197.5t179.5 -68.5q134 0 211.5 81t77.5 220v550h221zM315 1491l166 33q10 -84 46.5 -123t103.5 -39q66 0 102.5 39t46.5 123l166 -33
q-19 -146 -95.5 -215.5t-219.5 -69.5t-220 69.5t-96 215.5z" />
    <glyph glyph-name="Uring" unicode="&#x16e;" horiz-adv-x="1474" 
d="M737 -25q-258 0 -418.5 162t-160.5 432v865h229v-850q0 -188 91 -287.5t259 -99.5t259 99.5t91 287.5v850h230v-865q0 -269 -160.5 -431.5t-419.5 -162.5zM481 1759q0 102 74 172t182 70t182 -70t74 -172t-74 -171.5t-182 -69.5t-182 69.5t-74 171.5zM639 1759
q0 -43 27.5 -70.5t70.5 -27.5t71 27.5t28 70.5t-28 71t-71 28t-70.5 -28t-27.5 -71z" />
    <glyph glyph-name="uring" unicode="&#x16f;" horiz-adv-x="1273" 
d="M1116 1044v-1044h-217v131q-71 -76 -150 -110.5t-184 -34.5q-190 0 -306 119.5t-116 314.5v624h222v-585q0 -129 61.5 -197.5t179.5 -68.5q134 0 211.5 81t77.5 220v550h221zM375 1407q0 102 74 172t182 70t182 -70t74 -172t-74 -172t-182 -70t-182 70t-74 172zM532 1407
q0 -42 27.5 -70t71.5 -28t71 28t27 70t-27 70t-71 28t-71.5 -28t-27.5 -70z" />
    <glyph glyph-name="Uhungarumlaut" unicode="&#x170;" horiz-adv-x="1474" 
d="M737 -25q-258 0 -418.5 162t-160.5 432v865h229v-850q0 -188 91 -287.5t259 -99.5t259 99.5t91 287.5v850h230v-865q0 -269 -160.5 -431.5t-419.5 -162.5zM459 1581l119 258h241l-178 -258h-182zM784 1581l148 258h242l-199 -258h-191z" />
    <glyph glyph-name="uhungarumlaut" unicode="&#x171;" horiz-adv-x="1273" 
d="M1116 1044v-1044h-217v131q-71 -76 -150 -110.5t-184 -34.5q-190 0 -306 119.5t-116 314.5v624h222v-585q0 -129 61.5 -197.5t179.5 -68.5q134 0 211.5 81t77.5 220v550h221zM354 1217l119 299h242l-178 -299h-183zM680 1217l147 299h242l-199 -299h-190z" />
    <glyph glyph-name="Uogonek" unicode="&#x172;" horiz-adv-x="1474" 
d="M846 -446q-95 0 -153 56t-58 148q0 55 23.5 113t66.5 104q-254 5 -410.5 167t-156.5 427v865h229v-850q0 -188 91 -287.5t259 -99.5q172 0 261 99t89 288v850h230v-865q0 -186 -85.5 -325t-246.5 -217q-82 -40 -129 -100.5t-47 -125.5q0 -75 72 -75q44 0 96 38l76 -124
q-95 -86 -207 -86z" />
    <glyph glyph-name="uogonek" unicode="&#x173;" horiz-adv-x="1273" 
d="M1116 1044v-1044q-143 -91 -143 -199q0 -75 71 -75q45 0 97 38l76 -124q-95 -86 -207 -86q-95 0 -153 56t-58 148q0 134 129 242h-29v131q-71 -76 -150 -110.5t-184 -34.5q-190 0 -306 119.5t-116 314.5v624h222v-585q0 -129 61.5 -197.5t179.5 -68.5q134 0 211.5 81
t77.5 220v550h221z" />
    <glyph glyph-name="Wcircumflex" unicode="&#x174;" horiz-adv-x="2189" 
d="M492 0l-441 1434h240l342 -1153l344 1101h237l349 -1103l338 1155h237l-434 -1434h-277l-184 571l-147 467l-144 -467l-184 -571h-276zM756 1581l254 258h172l254 -258h-228l-110 121l-113 -121h-229z" />
    <glyph glyph-name="wcircumflex" unicode="&#x175;" horiz-adv-x="1763" 
d="M391 0l-344 1044h234l110 -348l133 -420l252 736h213l250 -740l135 424l111 348h231l-346 -1044h-254l-96 289l-137 407l-238 -696h-254zM543 1217l254 299h172l254 -299h-228l-110 143l-113 -143h-229z" />
    <glyph glyph-name="Ycircumflex" unicode="&#x176;" horiz-adv-x="1361" 
d="M567 0v545l-532 889h266l383 -646l381 646h262l-530 -887v-547h-230zM344 1581l254 258h172l254 -258h-227l-111 121l-113 -121h-229z" />
    <glyph glyph-name="ycircumflex" unicode="&#x177;" horiz-adv-x="1167" 
d="M297 -479q-98 0 -188 35l57 190q52 -18 117 -18q74 0 117 33.5t77 125.5l23 62l-463 1095h242l231 -563l98 -243l86 243l201 563h235l-450 -1226q-109 -297 -383 -297zM254 1217l254 299h172l254 -299h-227l-111 143l-113 -143h-229z" />
    <glyph glyph-name="Ydieresis" unicode="&#x178;" horiz-adv-x="1361" 
d="M567 0v545l-532 889h266l383 -646l381 646h262l-530 -887v-547h-230zM354 1698q0 62 37.5 101.5t97.5 39.5t98 -39.5t38 -101.5t-38 -102t-98 -40t-97.5 40t-37.5 102zM743 1698q0 62 38 101.5t98 39.5t97.5 -39.5t37.5 -101.5t-37.5 -102t-97.5 -40t-98 40t-38 102z" />
    <glyph glyph-name="Zacute" unicode="&#x179;" horiz-adv-x="1226" 
d="M518 1581l131 258h266l-200 -258h-197zM104 0v184l717 1035h-694v215h989v-183l-719 -1034h748v-217h-1041z" />
    <glyph glyph-name="zacute" unicode="&#x17a;" horiz-adv-x="1007" 
d="M395 1217l131 299h267l-199 -299h-199zM94 0v158l537 694h-516v192h798v-155l-538 -696h559v-193h-840z" />
    <glyph glyph-name="Zdotaccent" unicode="&#x17b;" horiz-adv-x="1226" 
d="M623 1556q-69 0 -113.5 45t-44.5 115t44.5 115t113.5 45t113 -45t44 -115t-44 -115t-113 -45zM104 0v184l717 1035h-694v215h989v-183l-719 -1034h748v-217h-1041z" />
    <glyph glyph-name="zdotaccent" unicode="&#x17c;" horiz-adv-x="1007" 
d="M504 1174q-68 0 -111 43t-43 112t43 112.5t111 43.5t110.5 -43.5t42.5 -112.5t-42.5 -112t-110.5 -43zM94 0v158l537 694h-516v192h798v-155l-538 -696h559v-193h-840z" />
    <glyph glyph-name="Zcaron" unicode="&#x17d;" horiz-adv-x="1226" 
d="M283 1839h229l113 -121l110 121h228l-254 -258h-172zM104 0v184l717 1035h-694v215h989v-183l-719 -1034h748v-217h-1041z" />
    <glyph glyph-name="zcaron" unicode="&#x17e;" horiz-adv-x="1007" 
d="M164 1516h229l113 -144l110 144h228l-254 -299h-172zM94 0v158l537 694h-516v192h798v-155l-538 -696h559v-193h-840z" />
    <glyph glyph-name="longs" unicode="&#x17f;" horiz-adv-x="831" 
d="M281 1174q0 169 82 260.5t237 91.5q117 0 231 -51l-71 -177q-76 27 -131 27q-61 0 -94 -41.5t-33 -118.5v-1165h-221v848h-213v196h213v130z" />
    <glyph glyph-name="uni018F" unicode="&#x18f;" horiz-adv-x="1546" 
d="M762 -25q-163 0 -300 69t-225.5 184.5t-128 273t-16.5 329.5h1125q-28 183 -160 298.5t-320 115.5q-261 0 -450 -205l-135 152q106 126 256 196t335 70q207 0 367.5 -93.5t249 -262t88.5 -385.5q0 -213 -88 -382.5t-245 -264.5t-353 -95zM305 631q22 -195 146.5 -319
t310.5 -124q181 0 306.5 123t150.5 320h-914z" />
    <glyph glyph-name="florin" unicode="&#x192;" horiz-adv-x="872" 
d="M29 -481q-117 0 -222 45l78 182q64 -27 119 -27q74 0 118 38t52 102l131 993h-231v192h258l16 130q23 172 117.5 262t251.5 90q116 0 221 -45l-78 -183q-64 27 -119 27q-75 0 -119.5 -38t-52.5 -101l-18 -142h293v-192h-320l-129 -981q-23 -172 -116.5 -262t-249.5 -90z
" />
    <glyph glyph-name="uni01CD" unicode="&#x1cd;" horiz-adv-x="1468" 
d="M41 0l559 1434h274l553 -1434h-237l-115 303h-680l-116 -303h-238zM397 1839h230l112 -121l111 121h227l-254 -258h-172zM473 510h526l-262 688z" />
    <glyph glyph-name="uni01CE" unicode="&#x1ce;" horiz-adv-x="1173" 
d="M455 -14q-167 0 -270 89.5t-103 235.5q0 158 116 253t308 95q153 0 307 -53v53q0 103 -62 150t-198 47q-147 0 -326 -78l-63 185q116 51 210 73.5t195 22.5q223 0 342 -102.5t119 -294.5v-662h-211l-2 133q-64 -70 -158.5 -108.5t-203.5 -38.5zM227 1516h230l112 -144
l111 144h227l-254 -299h-172zM303 322q0 -68 50.5 -107t144.5 -39q131 0 218 70t99 178q-159 51 -283 51q-110 0 -169.5 -39.5t-59.5 -113.5z" />
    <glyph glyph-name="Gcaron" unicode="&#x1e6;" horiz-adv-x="1566" 
d="M844 -25q-224 0 -394.5 95.5t-261 263.5t-90.5 383q0 158 53.5 294.5t148.5 235t232.5 155t298.5 56.5q163 0 305 -59t250 -170l-147 -156q-71 76 -180 120t-228 44q-222 0 -360.5 -146t-138.5 -374q0 -231 137.5 -375.5t370.5 -144.5q108 0 214.5 32t180.5 90v246h-461
v215h680v-559q-114 -121 -274.5 -183.5t-335.5 -62.5zM492 1839h229l113 -121l110 121h227l-253 -258h-173z" />
    <glyph glyph-name="gcaron" unicode="&#x1e7;" horiz-adv-x="1294" 
d="M674 -684q-294 0 -450 85t-156 245q0 68 28.5 126.5t77.5 92.5q-80 68 -80 172q0 147 150 242q-97 124 -97 296q0 209 136 339t356 130h604v-192h-227q114 -114 114 -287q0 -200 -138.5 -329.5t-352.5 -129.5q-143 0 -256 58q-76 -36 -76 -96t83.5 -85.5t316.5 -35.5
q273 -12 397.5 -83t124.5 -214q0 -158 -146 -246t-409 -88zM285 -334q0 -79 89 -114t290 -35q348 0 348 121q0 55 -73.5 80t-242.5 28q-207 3 -340 37q-30 -21 -50.5 -54t-20.5 -63zM315 1516h230l112 -144l111 144h227l-254 -299h-172zM365 575q0 -120 76 -195t198 -75
q121 0 197.5 75.5t76.5 194.5t-76.5 195t-197.5 76t-197.5 -76t-76.5 -195z" />
    <glyph glyph-name="AEacute" unicode="&#x1fc;" horiz-adv-x="1945" 
d="M29 0l829 1434h957v-211h-615v-383h561v-207h-561v-420h639v-213h-860v301h-524l-172 -301h-254zM567 502h412v712zM1004 1581l131 258h266l-201 -258h-196z" />
    <glyph glyph-name="aeacute" unicode="&#x1fd;" horiz-adv-x="1916" 
d="M1346 -25q-134 0 -244 54t-180 151q-142 -205 -455 -205q-174 0 -279.5 92.5t-105.5 243.5q0 158 114.5 253t305.5 95q149 0 303 -53v53q0 114 -63.5 160.5t-192.5 46.5q-153 0 -322 -88l-63 185q207 106 387 106q280 0 391 -176q68 84 167 130t218 46q168 0 294.5 -89
t182.5 -239.5t27 -326.5h-809q28 -107 114.5 -172.5t202.5 -65.5q181 0 316 135l131 -143q-158 -193 -440 -193zM303 317q0 -69 48.5 -105t142.5 -36q132 0 220 69t95 179q-159 51 -281 51q-107 0 -166 -41.5t-59 -116.5zM836 1217l131 299h266l-199 -299h-198zM1018 602
h606q-21 119 -102 192.5t-201 73.5q-116 0 -198 -72.5t-105 -193.5z" />
    <glyph glyph-name="Oslashacute" unicode="&#x1fe;" horiz-adv-x="1675" 
d="M838 -25q-151 0 -287 52l-131 -226l-168 97l129 223q-134 100 -208.5 254.5t-74.5 341.5q0 159 56 297t153.5 235.5t235 153t295.5 55.5q153 0 286 -51l131 225l168 -96l-129 -223q134 -101 208.5 -255.5t74.5 -340.5q0 -211 -95 -381t-264 -265.5t-380 -95.5zM332 717
q0 -124 45 -227.5t127 -174.5l508 893q-85 29 -174 29q-221 0 -363.5 -147t-142.5 -373zM662 225q82 -28 176 -28q221 0 363 147t142 373q0 123 -45.5 227t-126.5 174zM733 1581l131 258h266l-200 -258h-197z" />
    <glyph glyph-name="oslashacute" unicode="&#x1ff;" horiz-adv-x="1290" 
d="M334 -156l-156 93l101 161q-90 74 -139.5 183t-49.5 241q0 241 155 394t400 153q113 0 209 -35l100 166l156 -92l-100 -162q90 -73 140 -182.5t50 -241.5q0 -241 -155 -394t-400 -153q-113 0 -209 35zM311 522q0 -148 90 -241l342 569q-47 12 -98 12q-147 0 -240.5 -94.5
t-93.5 -245.5zM537 1217l131 299h266l-199 -299h-198zM545 195q54 -13 100 -13q147 0 240.5 94.5t93.5 245.5q0 149 -90 242z" />
    <glyph glyph-name="uni0218" unicode="&#x218;" horiz-adv-x="1234" 
d="M623 -16q-150 0 -293.5 50t-249.5 138l117 180q194 -149 432 -149q140 0 218.5 46.5t78.5 129.5q0 78 -83 136t-278 118q-228 70 -333 173.5t-105 254.5q0 172 138 280.5t356 108.5q132 0 264 -48.5t237 -137.5l-125 -179q-74 66 -177.5 106t-205.5 40q-117 0 -186.5 -44
t-69.5 -116q0 -74 72 -127.5t264 -116.5q244 -79 355.5 -184t111.5 -256q0 -175 -152 -289t-386 -114zM500 -231q0 57 33.5 93t87.5 36q66 0 103.5 -44.5t37.5 -119.5q0 -145 -154 -287l-71 68q62 67 81 137q-52 4 -85 37.5t-33 79.5z" />
    <glyph glyph-name="uni0219" unicode="&#x219;" horiz-adv-x="993" 
d="M508 -16q-246 0 -436 143l96 176q175 -113 342 -113q92 0 143.5 27.5t51.5 77.5q0 45 -50.5 78t-167.5 63q-195 51 -282.5 129.5t-87.5 200.5q0 137 100.5 216t278.5 79q114 0 221 -36.5t190 -104.5l-104 -168q-57 48 -141.5 77t-167.5 29q-160 0 -160 -94q0 -46 47 -75
t170 -60q191 -47 283 -128t92 -200q0 -144 -114.5 -230.5t-303.5 -86.5zM385 -231q0 57 33.5 93t87.5 36q66 0 103.5 -44.5t37.5 -119.5q0 -146 -153 -287l-72 68q35 38 53.5 68.5t28.5 68.5q-52 4 -85.5 37.5t-33.5 79.5z" />
    <glyph glyph-name="uni021A" unicode="&#x21a;" horiz-adv-x="1220" 
d="M496 0v1214h-443v220h1114v-220h-442v-1214h-229zM479 -231q0 57 33.5 93t87.5 36q66 0 103.5 -44.5t37.5 -119.5q0 -146 -153 -287l-72 68q35 38 53.5 68.5t28.5 68.5q-52 4 -85.5 37.5t-33.5 79.5z" />
    <glyph glyph-name="uni021B" unicode="&#x21b;" horiz-adv-x="843" 
d="M575 -14q-157 0 -247 96.5t-90 259.5v510h-189v192h189v244h221v-244h295v-192h-295v-500q0 -77 35.5 -118t103.5 -41q61 0 139 34l70 -188q-109 -53 -232 -53zM422 -231q0 57 33.5 93t87.5 36q66 0 103.5 -44.5t37.5 -119.5q0 -145 -154 -287l-71 68q35 38 53.5 68.5
t28.5 68.5q-52 4 -85.5 37.5t-33.5 79.5z" />
    <glyph glyph-name="uni0237" unicode="&#x237;" horiz-adv-x="536" 
d="M53 -485q-94 0 -186 28l47 197q69 -16 115 -16q70 0 99.5 36.5t29.5 122.5v1161h221v-1198q0 -158 -85.5 -244.5t-240.5 -86.5z" />
    <glyph glyph-name="uni0259" unicode="&#x259;" horiz-adv-x="1228" 
d="M592 1069q244 0 395.5 -152.5t151.5 -394.5q0 -239 -150.5 -393t-382.5 -154q-129 0 -237.5 53t-177.5 141.5t-98.5 209.5t-6.5 252h829q-28 104 -117.5 170.5t-209.5 66.5q-188 0 -326 -135l-131 144q78 91 195 141.5t266 50.5zM291 442q22 -119 106.5 -192.5
t208.5 -73.5q121 0 205.5 72.5t106.5 193.5h-627z" />
    <glyph glyph-name="uni02BC" unicode="&#x2bc;" horiz-adv-x="501" 
d="M129 1100q53 56 77.5 104t31.5 111q-56 3 -92.5 41.5t-36.5 93.5q0 56 38.5 93.5t96.5 37.5q67 0 106 -51.5t39 -140.5q0 -102 -48.5 -198.5t-137.5 -166.5z" />
    <glyph glyph-name="circumflex" unicode="&#x2c6;" horiz-adv-x="1089" 
d="M205 1217l254 299h172l254 -299h-228l-110 143l-113 -143h-229z" />
    <glyph glyph-name="caron" unicode="&#x2c7;" horiz-adv-x="1089" 
d="M205 1516h229l113 -144l110 144h228l-254 -299h-172z" />
    <glyph glyph-name="breve" unicode="&#x2d8;" horiz-adv-x="1040" 
d="M520 1206q-143 0 -219.5 69.5t-95.5 215.5l166 33q10 -84 46.5 -123t102.5 -39q67 0 103.5 39t46.5 123l166 -33q-19 -146 -96 -215.5t-220 -69.5z" />
    <glyph glyph-name="dotaccent" unicode="&#x2d9;" horiz-adv-x="716" 
d="M358 1174q-68 0 -110.5 43t-42.5 112t42.5 112.5t110.5 43.5t111 -43.5t43 -112.5t-43 -112t-111 -43z" />
    <glyph glyph-name="ring" unicode="&#x2da;" horiz-adv-x="921" 
d="M461 1165q-108 0 -182 70t-74 172t74 172t182 70t182 -70t74 -172t-74 -172t-182 -70zM362 1407q0 -42 27.5 -70t71.5 -28t71 28t27 70t-27 70t-71 28t-71.5 -28t-27.5 -70z" />
    <glyph glyph-name="ogonek" unicode="&#x2db;" horiz-adv-x="827" 
d="M416 -446q-95 0 -153 56t-58 148q0 88 56 165.5t163 135.5l98 -59q-143 -91 -143 -199q0 -75 72 -75q44 0 96 38l76 -124q-95 -86 -207 -86z" />
    <glyph glyph-name="tilde" unicode="&#x2dc;" horiz-adv-x="1091" 
d="M676 1192q-33 0 -65 12.5t-85 44.5q-40 25 -58.5 33t-37.5 8q-29 0 -52 -21.5t-48 -72.5l-125 72q71 186 211 186q33 0 64.5 -12.5t84.5 -44.5q66 -41 97 -41q29 0 52 21.5t48 72.5l125 -72q-71 -186 -211 -186z" />
    <glyph glyph-name="hungarumlaut" unicode="&#x2dd;" horiz-adv-x="1124" 
d="M530 1217l148 299h242l-199 -299h-191zM205 1217l119 299h241l-178 -299h-182z" />
    <glyph glyph-name="gravecomb" unicode="&#x300;" 
d="M602 1217h-199l-198 299h266z" />
    <glyph glyph-name="acutecomb" unicode="&#x301;" 
d="M205 1217l131 299h266l-199 -299h-198z" />
    <glyph glyph-name="uni0302" unicode="&#x302;" 
d="M205 1217l254 299h172l254 -299h-228l-110 143l-113 -143h-229z" />
    <glyph glyph-name="tildecomb" unicode="&#x303;" 
d="M676 1192q-33 0 -65 12.5t-85 44.5q-40 25 -58.5 33t-37.5 8q-29 0 -52 -21.5t-48 -72.5l-125 72q71 186 211 186q33 0 64.5 -12.5t84.5 -44.5q66 -41 97 -41q29 0 52 21.5t48 72.5l125 -72q-71 -186 -211 -186z" />
    <glyph glyph-name="uni0304" unicode="&#x304;" 
d="M205 1235v162h569v-162h-569z" />
    <glyph glyph-name="uni0306" unicode="&#x306;" 
d="M520 1206q-143 0 -219.5 69.5t-95.5 215.5l166 33q10 -84 46.5 -123t102.5 -39q67 0 103.5 39t46.5 123l166 -33q-19 -146 -96 -215.5t-220 -69.5z" />
    <glyph glyph-name="uni0307" unicode="&#x307;" 
d="M358 1174q-68 0 -110.5 43t-42.5 112t42.5 112.5t110.5 43.5t111 -43.5t43 -112.5t-43 -112t-111 -43z" />
    <glyph glyph-name="uni0308" unicode="&#x308;" 
d="M719 1186q-58 0 -95.5 38.5t-37.5 98.5t37.5 98.5t95.5 38.5t95.5 -38.5t37.5 -98.5t-37.5 -98.5t-95.5 -38.5zM205 1323q0 60 37.5 98.5t95.5 38.5t95.5 -38.5t37.5 -98.5t-37.5 -98.5t-95.5 -38.5t-95.5 38.5t-37.5 98.5z" />
    <glyph glyph-name="uni030A" unicode="&#x30a;" 
d="M461 1165q-108 0 -182 70t-74 172t74 172t182 70t182 -70t74 -172t-74 -172t-182 -70zM362 1407q0 -42 27.5 -70t71.5 -28t71 28t27 70t-27 70t-71 28t-71.5 -28t-27.5 -70z" />
    <glyph glyph-name="uni030B" unicode="&#x30b;" 
d="M530 1217l148 299h242l-199 -299h-191zM205 1217l119 299h241l-178 -299h-182z" />
    <glyph glyph-name="uni030C" unicode="&#x30c;" 
d="M205 1516h229l113 -144l110 144h228l-254 -299h-172z" />
    <glyph glyph-name="uni0312" unicode="&#x312;" 
d="M430 1552q-35 -38 -53.5 -68.5t-28.5 -68.5q52 -4 85.5 -37.5t33.5 -79.5q0 -57 -33.5 -93t-87.5 -36q-66 0 -103.5 44.5t-37.5 119.5q0 146 153 287z" />
    <glyph glyph-name="uni0326" unicode="&#x326;" 
d="M242 -485q35 38 53.5 68.5t28.5 68.5q-52 4 -85.5 37.5t-33.5 79.5q0 57 33.5 93t87.5 36q66 0 103.5 -44.5t37.5 -119.5q0 -145 -154 -287z" />
    <glyph glyph-name="uni0327" unicode="&#x327;" 
d="M432 -496q-126 0 -227 78l76 117q59 -47 139 -47q104 0 104 72q0 35 -24 51t-60 15t-78 -5l-38 37l49 229h145l-26 -139q94 2 150 -50.5t56 -142.5q0 -99 -75 -157t-191 -58z" />
    <glyph glyph-name="uni0328" unicode="&#x328;" 
d="M416 -446q-95 0 -153 56t-58 148q0 88 56 165.5t163 135.5l98 -59q-143 -91 -143 -199q0 -75 72 -75q44 0 96 38l76 -124q-95 -86 -207 -86z" />
    <glyph glyph-name="uni0394" unicode="&#x394;" horiz-adv-x="1468" 
d="M41 0l559 1434h274l553 -1434h-1386zM356 203h756l-375 995z" />
    <glyph glyph-name="uni03A9" unicode="&#x3a9;" horiz-adv-x="1744" 
d="M94 0v201h242q-95 87 -149 223t-54 291q0 212 95.5 382t264.5 265.5t379 95.5t379.5 -95.5t265 -265.5t95.5 -382q0 -155 -54 -291t-149 -223h242v-201h-654v184q383 142 383 518q0 237 -142 388t-366 151t-365.5 -151t-141.5 -388q0 -376 383 -518v-184h-654z" />
    <glyph glyph-name="uni03BC" unicode="&#x3bc;" horiz-adv-x="1288" 
d="M158 -471v1515h221v-569q0 -133 68.5 -207.5t191.5 -74.5q125 0 197.5 76t72.5 206v569h221v-1044h-217v115q-107 -119 -280 -119q-149 0 -262 92v-559h-213z" />
    <glyph glyph-name="pi" unicode="&#x3c0;" horiz-adv-x="1286" 
d="M1112 -23q-58 0 -109 17t-95 52t-69.5 98.5t-25.5 148.5v538h-381v-831h-221v831h-158v213h1141v-213h-160v-503q0 -73 28 -105.5t85 -32.5q26 0 61 7l39 -203q-77 -17 -135 -17z" />
    <glyph glyph-name="uni0400" unicode="&#x400;" horiz-adv-x="1212" 
d="M174 0v1434h907v-213h-678v-392h625v-206h-625v-408h703v-215h-932zM354 1839h267l131 -258h-197z" />
    <glyph glyph-name="uni0401" unicode="&#x401;" horiz-adv-x="1212" 
d="M174 0v1434h907v-213h-678v-392h625v-206h-625v-408h703v-215h-932zM317 1698q0 62 38 101.5t98 39.5t97.5 -39.5t37.5 -101.5t-37.5 -102t-97.5 -40t-98 40t-38 102zM707 1698q0 62 37.5 101.5t97.5 39.5t97.5 -39.5t37.5 -101.5t-37.5 -102t-97.5 -40t-97.5 40
t-37.5 102z" />
    <glyph glyph-name="uni0402" unicode="&#x402;" horiz-adv-x="1679" 
d="M1130 -14q-131 0 -288 65l80 201q112 -47 202 -47q110 0 170 65t60 174q0 124 -81.5 190t-230.5 66q-167 0 -321 -77v-623h-229v1214h-439v220h1211v-217h-543v-369q173 72 342 72q239 0 381.5 -126.5t142.5 -340.5q0 -205 -127.5 -336t-329.5 -131z" />
    <glyph glyph-name="uni0403" unicode="&#x403;" horiz-adv-x="1087" 
d="M174 0v1434h868v-220h-639v-1214h-229zM500 1581l131 258h266l-201 -258h-196z" />
    <glyph glyph-name="uni0404" unicode="&#x404;" horiz-adv-x="1488" 
d="M819 -25q-157 0 -291.5 55t-228.5 152.5t-147.5 235.5t-53.5 299q0 213 90.5 382.5t252 264t364.5 94.5q173 0 325.5 -71t268.5 -205l-160 -152q-82 100 -193 153.5t-235 53.5q-183 0 -312 -111.5t-161 -294.5h768v-215h-770q29 -191 159.5 -305t323.5 -114
q133 0 252 56.5t205 160.5l160 -152q-256 -287 -617 -287z" />
    <glyph glyph-name="uni0405" unicode="&#x405;" horiz-adv-x="1234" 
d="M623 -16q-150 0 -293.5 50t-249.5 138l117 180q194 -149 432 -149q140 0 218.5 46.5t78.5 129.5q0 78 -83 136t-278 118q-228 70 -333 173.5t-105 254.5q0 172 138 280.5t356 108.5q132 0 264 -48.5t237 -137.5l-125 -179q-74 66 -177.5 106t-205.5 40q-117 0 -186.5 -44
t-69.5 -116q0 -74 72 -127.5t264 -116.5q244 -79 355.5 -184t111.5 -256q0 -175 -152 -289t-386 -114z" />
    <glyph glyph-name="uni0406" unicode="&#x406;" horiz-adv-x="577" 
d="M174 0v1434h229v-1434h-229z" />
    <glyph glyph-name="uni0407" unicode="&#x407;" horiz-adv-x="577" 
d="M174 0v1434h229v-1434h-229zM-41 1698q0 62 37.5 101.5t97.5 39.5t97.5 -39.5t37.5 -101.5t-37.5 -102t-97.5 -40t-97.5 40t-37.5 102zM348 1698q0 62 37.5 101.5t97.5 39.5t97.5 -39.5t37.5 -101.5t-37.5 -102t-97.5 -40t-97.5 40t-37.5 102z" />
    <glyph glyph-name="uni0408" unicode="&#x408;" horiz-adv-x="950" 
d="M338 -25q-83 0 -158 19.5t-168 62.5l90 193q117 -57 236 -57q116 0 170.5 78.5t54.5 246.5v916h230v-938q0 -254 -117.5 -387.5t-337.5 -133.5z" />
    <glyph glyph-name="uni0409" unicode="&#x409;" horiz-adv-x="2222" 
d="M23 199q87 17 139 41t87 69t50.5 108.5t22.5 166.5l61 850h965v-500h315q223 0 359.5 -128t136.5 -339t-136.5 -339t-359.5 -128h-545v1214h-520l-47 -647q-20 -269 -129.5 -403t-341.5 -174zM1346 215h301q135 0 208.5 65.5t73.5 186.5t-73.5 186.5t-208.5 65.5h-301
v-504z" />
    <glyph glyph-name="uni040A" unicode="&#x40a;" horiz-adv-x="2193" 
d="M1090 0v621h-687v-621h-229v1434h229v-594h687v594h229v-500h315q223 0 359.5 -128t136.5 -339t-136.5 -339t-359.5 -128h-544zM1317 215h301q138 0 210.5 66.5t72.5 185.5t-72.5 185.5t-210.5 66.5h-301v-504z" />
    <glyph glyph-name="uni040B" unicode="&#x40b;" horiz-adv-x="1703" 
d="M1352 367q0 348 -303 348q-175 0 -328 -72v-643h-229v1214h-439v220h1202v-217h-534v-349q168 68 334 68q248 0 387 -144.5t139 -402.5v-389h-229v367z" />
    <glyph glyph-name="uni040C" unicode="&#x40c;" horiz-adv-x="1314" 
d="M1004 0l-467 616h-134v-616h-229v1434h229v-605h129l453 605h287l-535 -705l555 -729h-288zM586 1581l131 258h266l-201 -258h-196z" />
    <glyph glyph-name="uni040D" unicode="&#x40d;" horiz-adv-x="1546" 
d="M174 0v1434h229v-1047l760 1047h209v-1434h-229v1047l-760 -1047h-209zM489 1839h267l131 -258h-197z" />
    <glyph glyph-name="uni040E" unicode="&#x40e;" horiz-adv-x="1363" 
d="M393 -25q-124 0 -217 41l64 207q70 -26 135 -26q69 0 116 32.5t82 106.5l11 22l-543 1076h258l172 -347l238 -471l372 818h252l-563 -1203q-63 -135 -152.5 -195.5t-224.5 -60.5zM381 1819l176 32q17 -122 133 -122t133 122l176 -32q-19 -126 -94.5 -187t-214.5 -61
t-214.5 61t-94.5 187z" />
    <glyph glyph-name="uni040F" unicode="&#x40f;" horiz-adv-x="1513" 
d="M868 0v-330h-221v330h-473v1434h229v-1215h707v1215h229v-1434h-471z" />
    <glyph glyph-name="uni0410" unicode="&#x410;" horiz-adv-x="1468" 
d="M41 0l559 1434h274l553 -1434h-237l-115 303h-680l-116 -303h-238zM473 510h526l-262 688z" />
    <glyph glyph-name="uni0411" unicode="&#x411;" horiz-adv-x="1298" 
d="M174 0v1434h944v-215h-715v-316h318q223 0 359.5 -123t136.5 -327t-136.5 -328.5t-359.5 -124.5h-547zM403 215h302q131 0 206.5 64t75.5 174q0 109 -76 173t-206 64h-302v-475z" />
    <glyph glyph-name="uni0412" unicode="&#x412;" horiz-adv-x="1333" 
d="M174 0v1434h588q189 0 307.5 -109.5t118.5 -284.5q0 -189 -146 -299q90 -52 141.5 -141.5t51.5 -200.5q0 -175 -124 -287t-318 -112h-619zM401 211h371q107 0 169.5 56.5t62.5 152.5t-62.5 152.5t-169.5 56.5h-371v-418zM401 829h349q96 0 152 54t56 143t-56 143t-152 54
h-349v-394z" />
    <glyph glyph-name="uni0413" unicode="&#x413;" horiz-adv-x="1087" 
d="M174 0v1434h868v-220h-639v-1214h-229z" />
    <glyph glyph-name="uni0414" unicode="&#x414;" horiz-adv-x="1622" 
d="M45 -330v549h170q64 53 98 143t45 263l58 809h940v-1215h209v-549h-219v330h-1082v-330h-219zM483 213h643v1006h-495l-43 -615q-17 -250 -105 -391z" />
    <glyph glyph-name="uni0415" unicode="&#x415;" horiz-adv-x="1212" 
d="M174 0v1434h907v-213h-678v-392h625v-206h-625v-408h703v-215h-932z" />
    <glyph glyph-name="uni0416" unicode="&#x416;" horiz-adv-x="2002" 
d="M1698 0l-445 616h-139v-616h-225v616h-139l-445 -616h-282l530 729l-510 705h281l432 -605h133v605h225v-605h133l432 605h281l-510 -705l530 -729h-282z" />
    <glyph glyph-name="uni0417" unicode="&#x417;" horiz-adv-x="1259" 
d="M635 -16q-152 0 -290.5 52t-248.5 148l131 168q180 -149 404 -149q148 0 223.5 55.5t75.5 159.5q0 96 -67.5 150.5t-186.5 54.5h-295v213h278q103 0 164.5 54.5t61.5 147.5q0 91 -69.5 142t-192.5 51q-201 0 -381 -150l-129 168q213 201 510 201q227 0 358 -104.5
t131 -286.5q0 -98 -40 -179t-114 -137q94 -53 148.5 -145.5t54.5 -204.5q0 -188 -140 -298.5t-386 -110.5z" />
    <glyph glyph-name="uni0418" unicode="&#x418;" horiz-adv-x="1546" 
d="M174 0v1434h229v-1047l760 1047h209v-1434h-229v1047l-760 -1047h-209z" />
    <glyph glyph-name="uni0419" unicode="&#x419;" horiz-adv-x="1546" 
d="M174 0v1434h229v-1047l760 1047h209v-1434h-229v1047l-760 -1047h-209zM473 1819l176 32q17 -122 133 -122t133 122l177 -32q-19 -126 -95 -187t-215 -61t-214.5 61t-94.5 187z" />
    <glyph glyph-name="uni041A" unicode="&#x41a;" horiz-adv-x="1314" 
d="M1004 0l-467 616h-134v-616h-229v1434h229v-605h129l453 605h287l-535 -705l555 -729h-288z" />
    <glyph glyph-name="uni041B" unicode="&#x41b;" horiz-adv-x="1550" 
d="M23 188q95 26 148.5 52t88.5 72.5t49 107t21 164.5l61 850h985v-1434h-229v1214h-541l-47 -647q-20 -273 -133.5 -405.5t-345.5 -171.5z" />
    <glyph glyph-name="uni041C" unicode="&#x41c;" horiz-adv-x="1789" 
d="M834 459l-431 583v-1042h-229v1434h205l516 -705l516 705h205v-1434h-230v1042l-430 -583h-122z" />
    <glyph glyph-name="uni041D" unicode="&#x41d;" horiz-adv-x="1513" 
d="M1110 0v621h-707v-621h-229v1434h229v-594h707v594h229v-1434h-229z" />
    <glyph glyph-name="uni041E" unicode="&#x41e;" horiz-adv-x="1675" 
d="M838 -25q-212 0 -381.5 95.5t-264 265t-94.5 381.5q0 159 56 297t153.5 235.5t235 153t295.5 55.5q211 0 380 -95.5t264 -265t95 -380.5t-95 -381t-264 -265.5t-380 -95.5zM332 717q0 -226 142.5 -373t363.5 -147t363 147t142 373t-142 373t-363 147t-363.5 -147
t-142.5 -373z" />
    <glyph glyph-name="uni041F" unicode="&#x41f;" horiz-adv-x="1513" 
d="M1110 0v1214h-707v-1214h-229v1434h1165v-1434h-229z" />
    <glyph glyph-name="uni0420" unicode="&#x420;" horiz-adv-x="1243" 
d="M174 0v1434h522q226 0 364 -134t138 -354t-138 -353.5t-364 -133.5h-293v-459h-229zM401 674h279q133 0 211 73.5t78 198.5q0 126 -78 199.5t-211 73.5h-279v-545z" />
    <glyph glyph-name="uni0421" unicode="&#x421;" horiz-adv-x="1492" 
d="M815 -25q-210 0 -374.5 96.5t-253.5 265t-89 380.5q0 211 88.5 379.5t251 265t369.5 96.5q182 0 333.5 -79t266.5 -226l-164 -143q-78 108 -193 167.5t-243 59.5q-140 0 -248.5 -67.5t-167.5 -185.5t-59 -267q0 -229 132 -374.5t351 -145.5q141 0 262 62t203 175
l164 -139q-239 -320 -629 -320z" />
    <glyph glyph-name="uni0422" unicode="&#x422;" horiz-adv-x="1220" 
d="M496 0v1214h-443v220h1114v-220h-442v-1214h-229z" />
    <glyph glyph-name="uni0423" unicode="&#x423;" horiz-adv-x="1363" 
d="M393 -25q-124 0 -217 41l64 207q70 -26 135 -26q69 0 116 32.5t82 106.5l11 22l-543 1076h258l172 -347l238 -471l372 818h252l-563 -1203q-63 -135 -152.5 -195.5t-224.5 -60.5z" />
    <glyph glyph-name="uni0424" unicode="&#x424;" horiz-adv-x="1708" 
d="M739 -125v215q-286 18 -463.5 187t-177.5 440t177.5 439.5t463.5 186.5v211h230v-211q286 -18 463.5 -186.5t177.5 -439.5t-177.5 -440t-463.5 -187v-215h-230zM332 717q0 -175 112 -283t297 -123v811q-185 -15 -297 -122.5t-112 -282.5zM967 311q185 15 297 123t112 283
t-112 282.5t-297 122.5v-811z" />
    <glyph glyph-name="uni0425" unicode="&#x425;" horiz-adv-x="1339" 
d="M25 0l505 743l-462 691h274l172 -256l162 -246l158 246l170 256h272l-461 -695l500 -739h-275l-161 240l-207 311l-207 -311l-164 -240h-276z" />
    <glyph glyph-name="uni0426" unicode="&#x426;" horiz-adv-x="1605" 
d="M1329 -330v330h-1155v1434h229v-1215h707v1215h229v-1215h209v-549h-219z" />
    <glyph glyph-name="uni0427" unicode="&#x427;" horiz-adv-x="1388" 
d="M641 446q-252 0 -394.5 144.5t-142.5 402.5v441h230v-418q0 -348 313 -348q184 0 338 71v695h229v-1434h-229v514q-176 -68 -344 -68z" />
    <glyph glyph-name="uni0428" unicode="&#x428;" horiz-adv-x="2367" 
d="M174 0v1434h229v-1215h666v1215h229v-1215h666v1215h229v-1434h-2019z" />
    <glyph glyph-name="uni0429" unicode="&#x429;" horiz-adv-x="2459" 
d="M2181 -330v330h-2007v1434h229v-1215h666v1215h229v-1215h666v1215h229v-1215h209v-549h-221z" />
    <glyph glyph-name="uni042A" unicode="&#x42a;" horiz-adv-x="1583" 
d="M459 0v1214h-410v220h639v-500h336q223 0 359.5 -128t136.5 -339t-136.5 -339t-359.5 -128h-565zM686 215h322q137 0 209.5 66.5t72.5 185.5t-72.5 185.5t-209.5 66.5h-322v-504z" />
    <glyph glyph-name="uni042B" unicode="&#x42b;" horiz-adv-x="1875" 
d="M174 0v1434h229v-500h336q223 0 359.5 -128t136.5 -339t-136.5 -339t-359.5 -128h-565zM401 215h322q138 0 210.5 66.5t72.5 185.5t-72.5 185.5t-210.5 66.5h-322v-504zM1473 0v1434h229v-1434h-229z" />
    <glyph glyph-name="uni042C" unicode="&#x42c;" horiz-adv-x="1298" 
d="M174 0v1434h229v-500h336q223 0 359.5 -128t136.5 -339t-136.5 -339t-359.5 -128h-565zM401 215h322q138 0 210.5 66.5t72.5 185.5t-72.5 185.5t-210.5 66.5h-322v-504z" />
    <glyph glyph-name="uni042D" unicode="&#x42d;" horiz-adv-x="1488" 
d="M670 -25q-361 0 -617 287l160 152q86 -104 205 -160.5t252 -56.5q193 0 323.5 114t159.5 305h-770v215h768q-32 183 -161 294.5t-312 111.5q-124 0 -235 -53.5t-193 -153.5l-160 152q116 134 268.5 205t325.5 71q203 0 364.5 -94.5t252 -264t90.5 -382.5
q0 -161 -53.5 -299t-147.5 -235.5t-228.5 -152.5t-291.5 -55z" />
    <glyph glyph-name="uni042E" unicode="&#x42e;" horiz-adv-x="2187" 
d="M1362 -25q-145 0 -272 48t-220.5 133t-153.5 204.5t-75 260.5h-238v-621h-229v1434h229v-594h240q40 275 237.5 446.5t481.5 171.5q208 0 374.5 -95.5t259.5 -265t93 -380.5q0 -158 -54.5 -296t-150 -236t-231 -154t-291.5 -56zM864 717q0 -226 140 -373t356 -147
t355.5 147t139.5 373t-139.5 373t-355.5 147t-356 -147t-140 -373z" />
    <glyph glyph-name="uni042F" unicode="&#x42f;" horiz-adv-x="1355" 
d="M952 0v508h-301l-309 -508h-266l338 543q-135 52 -216 166.5t-81 261.5q0 199 140.5 331t352.5 132h572v-1434h-230zM346 967q0 -117 72.5 -184.5t199.5 -67.5h338v504h-338q-127 0 -199.5 -67.5t-72.5 -184.5z" />
    <glyph glyph-name="uni0430" unicode="&#x430;" horiz-adv-x="1173" 
d="M455 -14q-167 0 -270 89.5t-103 235.5q0 158 116 253t308 95q153 0 307 -53v53q0 103 -62 150t-198 47q-147 0 -326 -78l-63 185q116 51 210 73.5t195 22.5q223 0 342 -102.5t119 -294.5v-662h-211l-2 133q-64 -70 -158.5 -108.5t-203.5 -38.5zM303 322q0 -68 50.5 -107
t144.5 -39q131 0 218 70t99 178q-159 51 -283 51q-110 0 -169.5 -39.5t-59.5 -113.5z" />
    <glyph glyph-name="uni0431" unicode="&#x431;" horiz-adv-x="1282" 
d="M643 -25q-256 0 -402.5 172t-146.5 496q0 223 35 379.5t111.5 260t186.5 160.5t271 85q174 30 254 50t142 50l71 -188q-70 -38 -149 -60t-273 -55q-113 -19 -189.5 -52t-125 -85.5t-73 -120t-33.5 -162.5q135 150 358 150q227 0 369.5 -150.5t142.5 -388.5
q0 -235 -155 -388t-394 -153zM315 516q0 -148 91.5 -241t236.5 -93t236.5 93t91.5 241t-91.5 241t-236.5 93t-236.5 -93t-91.5 -241z" />
    <glyph glyph-name="uni0432" unicode="&#x432;" horiz-adv-x="1134" 
d="M158 0v1044h499q161 0 259 -74.5t98 -197.5q0 -71 -32.5 -131t-90.5 -98q71 -33 113.5 -99.5t42.5 -148.5q0 -131 -102.5 -213t-266.5 -82h-520zM377 178h297q76 0 115.5 35t39.5 100t-39.5 100.5t-115.5 35.5h-297v-271zM377 618h276q70 0 107 33t37 92t-37 92t-107 33
h-276v-250z" />
    <glyph glyph-name="uni0433" unicode="&#x433;" horiz-adv-x="901" 
d="M158 0v1044h702v-204h-481v-840h-221z" />
    <glyph glyph-name="uni0434" unicode="&#x434;" horiz-adv-x="1361" 
d="M41 -301v506h129q49 46 75 118.5t36 204.5l43 516h804v-839h183v-506h-209v301h-852v-301h-209zM422 201h487v639h-381l-26 -332q-13 -193 -80 -307z" />
    <glyph glyph-name="uni0435" unicode="&#x435;" horiz-adv-x="1228" 
d="M637 -25q-244 0 -395.5 152.5t-151.5 394.5q0 239 150.5 393t382.5 154q173 0 303.5 -89t188.5 -239.5t28 -326.5h-830q28 -104 118 -171t210 -67q188 0 326 135l131 -143q-78 -91 -195 -142t-266 -51zM311 602h627q-22 119 -106.5 192.5t-208.5 73.5
q-121 0 -205.5 -72.5t-106.5 -193.5z" />
    <glyph glyph-name="uni0436" unicode="&#x436;" horiz-adv-x="1646" 
d="M1356 0l-309 438h-113v-438h-221v438h-113l-309 -438h-271l383 537l-362 507h264l285 -405h123v405h221v-405h123l284 405h265l-363 -507l383 -537h-270z" />
    <glyph glyph-name="uni0437" unicode="&#x437;" horiz-adv-x="1021" 
d="M498 -16q-263 0 -441 159l117 162q147 -115 320 -115q103 0 160 34t57 95q0 55 -48.5 85t-132.5 30h-215v197h207q70 0 111 29t41 81q0 115 -187 115q-147 0 -294 -102l-113 159q195 148 424 148q192 0 291.5 -82.5t99.5 -210.5q0 -134 -117 -219q75 -37 115.5 -101.5
t40.5 -146.5q0 -145 -118.5 -231t-317.5 -86z" />
    <glyph glyph-name="uni0438" unicode="&#x438;" horiz-adv-x="1302" 
d="M158 0v1044h219v-708l563 708h205v-1044h-219v709l-564 -709h-204z" />
    <glyph glyph-name="uni0439" unicode="&#x439;" horiz-adv-x="1302" 
d="M158 0v1044h219v-708l563 708h205v-1044h-219v709l-564 -709h-204zM336 1491l166 33q10 -84 46.5 -123t102.5 -39q67 0 103.5 39t46.5 123l166 -33q-19 -146 -96 -215.5t-220 -69.5t-219.5 69.5t-95.5 215.5z" />
    <glyph glyph-name="uni043A" unicode="&#x43a;" horiz-adv-x="1105" 
d="M815 0l-323 438h-113v-438h-221v1044h221v-405h121l301 405h264l-381 -509l401 -535h-270z" />
    <glyph glyph-name="uni043B" unicode="&#x43b;" horiz-adv-x="1277" 
d="M20 178q74 20 116 39t72 52t43 78.5t19 121.5l47 575h803v-1044h-221v840h-377l-30 -391q-17 -216 -108 -318t-308 -145z" />
    <glyph glyph-name="uni043C" unicode="&#x43c;" horiz-adv-x="1480" 
d="M686 291l-309 418v-709h-219v1044h204l379 -512l377 512h205v-1044h-219v709l-307 -418h-111z" />
    <glyph glyph-name="uni043D" unicode="&#x43d;" horiz-adv-x="1277" 
d="M899 0v436h-520v-436h-221v1044h221v-403h520v403h221v-1044h-221z" />
    <glyph glyph-name="uni043E" unicode="&#x43e;" horiz-adv-x="1290" 
d="M645 -25q-245 0 -400 153t-155 394t155 394t400 153t400 -153t155 -394t-155 -394t-400 -153zM311 522q0 -151 93.5 -245.5t240.5 -94.5t240.5 94.5t93.5 245.5t-93.5 245.5t-240.5 94.5t-240.5 -94.5t-93.5 -245.5z" />
    <glyph glyph-name="uni043F" unicode="&#x43f;" horiz-adv-x="1277" 
d="M899 0v840h-520v-840h-221v1044h962v-1044h-221z" />
    <glyph glyph-name="uni0440" unicode="&#x440;" horiz-adv-x="1349" 
d="M745 -25q-224 0 -366 158v-604h-221v1515h217v-139q145 164 370 164q224 0 369.5 -154t145.5 -393t-145.5 -393t-369.5 -154zM375 522q0 -149 93.5 -244.5t238.5 -95.5q146 0 238.5 94.5t92.5 245.5t-92.5 245.5t-238.5 94.5q-145 0 -238.5 -95.5t-93.5 -244.5z" />
    <glyph glyph-name="uni0441" unicode="&#x441;" horiz-adv-x="1126" 
d="M627 -25q-232 0 -384.5 155.5t-152.5 391.5q0 237 152.5 392t386.5 155q131 0 243 -49.5t185 -140.5l-135 -142q-57 60 -133 92.5t-156 32.5q-141 0 -231.5 -95.5t-90.5 -244.5q0 -151 88 -245.5t236 -94.5q90 0 167.5 36.5t131.5 105.5l147 -136q-70 -102 -189 -157.5
t-265 -55.5z" />
    <glyph glyph-name="uni0442" unicode="&#x442;" horiz-adv-x="1032" 
d="M408 0v840h-361v204h938v-204h-356v-840h-221z" />
    <glyph glyph-name="uni0443" unicode="&#x443;" horiz-adv-x="1167" 
d="M297 -479q-98 0 -188 35l57 190q52 -18 117 -18q74 0 117 33.5t77 125.5l23 62l-463 1095h242l231 -563l98 -243l86 243l201 563h235l-450 -1226q-109 -297 -383 -297z" />
    <glyph glyph-name="uni0444" unicode="&#x444;" horiz-adv-x="1474" 
d="M627 -471v448q-242 15 -389.5 165.5t-147.5 379.5t147.5 379.5t389.5 165.5v449h221v-449q242 -15 389 -165t147 -380t-147 -380t-389 -165v-448h-221zM311 522q0 -140 87 -232.5t233 -105.5v676q-146 -13 -233 -105.5t-87 -232.5zM844 184q146 13 232.5 105.5
t86.5 232.5t-86.5 232.5t-232.5 105.5v-676z" />
    <glyph glyph-name="uni0445" unicode="&#x445;" horiz-adv-x="1077" 
d="M788 0l-137 197l-112 159l-254 -356h-262l376 526l-358 518h260l139 -200l99 -148l98 148l137 200h260l-358 -518l379 -526h-267z" />
    <glyph glyph-name="uni0446" unicode="&#x446;" horiz-adv-x="1351" 
d="M1092 -301v301h-934v1044h221v-839h520v839h221v-839h180v-506h-208z" />
    <glyph glyph-name="uni0447" unicode="&#x447;" horiz-adv-x="1159" 
d="M524 297q-207 0 -318.5 115.5t-111.5 326.5v305h221v-284q0 -256 228 -256q113 0 237 53v487h221v-1044h-221v340q-134 -43 -256 -43z" />
    <glyph glyph-name="uni0448" unicode="&#x448;" horiz-adv-x="1970" 
d="M158 0v1044h221v-839h498v839h217v-839h497v839h221v-1044h-1654z" />
    <glyph glyph-name="uni0449" unicode="&#x449;" horiz-adv-x="2043" 
d="M1784 -301v301h-1626v1044h221v-839h498v839h217v-839h497v839h221v-839h181v-506h-209z" />
    <glyph glyph-name="uni044A" unicode="&#x44a;" horiz-adv-x="1300" 
d="M365 0v840h-320v204h541v-315h245q198 0 307 -96.5t109 -267.5t-109 -268t-307 -97h-466zM584 201h245q97 0 147 43.5t50 122.5t-50 122t-147 43h-245v-331z" />
    <glyph glyph-name="uni044B" unicode="&#x44b;" horiz-adv-x="1632" 
d="M158 0v1044h221v-315h248q198 0 306.5 -96.5t108.5 -267.5q0 -172 -108.5 -268.5t-306.5 -96.5h-469zM377 201h248q97 0 146.5 43.5t49.5 122.5t-49.5 122t-146.5 43h-248v-331zM1253 0v1044h222v-1044h-222z" />
    <glyph glyph-name="uni044C" unicode="&#x44c;" horiz-adv-x="1095" 
d="M158 0v1044h221v-315h248q198 0 306.5 -96.5t108.5 -267.5q0 -172 -108.5 -268.5t-306.5 -96.5h-469zM377 201h248q97 0 146.5 43.5t49.5 122.5t-49.5 122t-146.5 43h-248v-331z" />
    <glyph glyph-name="uni044D" unicode="&#x44d;" horiz-adv-x="1128" 
d="M492 -25q-136 0 -253.5 51t-189.5 142l144 143q53 -62 129.5 -95.5t164.5 -33.5q124 0 209 65.5t111 178.5h-494v199h492q-30 108 -114.5 172.5t-201.5 64.5q-78 0 -152.5 -29t-131.5 -83l-131 153q73 78 185 122t237 44q237 0 389.5 -154.5t152.5 -392.5t-153.5 -392.5
t-392.5 -154.5z" />
    <glyph glyph-name="uni044E" unicode="&#x44e;" horiz-adv-x="1785" 
d="M1145 -25q-217 0 -365.5 124.5t-179.5 328.5h-221v-428h-221v1044h221v-411h225q34 197 181 316.5t360 119.5q243 0 397 -153t154 -394t-154 -394t-397 -153zM811 522q0 -151 93 -245.5t239 -94.5t239 94.5t93 245.5t-93 245.5t-239 94.5t-239 -94.5t-93 -245.5z" />
    <glyph glyph-name="uni044F" unicode="&#x44f;" horiz-adv-x="1140" 
d="M762 0v346h-234l-209 -346h-251l235 383q-97 40 -150 120.5t-53 192.5q0 160 108 254t292 94h483v-1044h-221zM322 692q0 -75 51 -118.5t143 -43.5h250v324h-250q-92 0 -143 -43.5t-51 -118.5z" />
    <glyph glyph-name="uni0450" unicode="&#x450;" horiz-adv-x="1228" 
d="M637 -25q-244 0 -395.5 152.5t-151.5 394.5q0 239 150.5 393t382.5 154q173 0 303.5 -89t188.5 -239.5t28 -326.5h-830q28 -104 118 -171t210 -67q188 0 326 135l131 -143q-78 -91 -195 -142t-266 -51zM311 602h627q-22 119 -106.5 192.5t-208.5 73.5
q-121 0 -205.5 -72.5t-106.5 -193.5zM336 1516h266l131 -299h-198z" />
    <glyph glyph-name="uni0451" unicode="&#x451;" horiz-adv-x="1228" 
d="M637 -25q-244 0 -395.5 152.5t-151.5 394.5q0 239 150.5 393t382.5 154q173 0 303.5 -89t188.5 -239.5t28 -326.5h-830q28 -104 118 -171t210 -67q188 0 326 135l131 -143q-78 -91 -195 -142t-266 -51zM301 1323q0 60 37.5 98.5t95.5 38.5t95.5 -38.5t37.5 -98.5
t-37.5 -98.5t-95.5 -38.5t-95.5 38.5t-37.5 98.5zM311 602h627q-22 119 -106.5 192.5t-208.5 73.5q-121 0 -205.5 -72.5t-106.5 -193.5zM682 1323q0 60 37.5 98.5t95.5 38.5t95.5 -38.5t37.5 -98.5t-37.5 -98.5t-95.5 -38.5t-95.5 38.5t-37.5 98.5z" />
    <glyph glyph-name="uni0452" unicode="&#x452;" horiz-adv-x="1294" 
d="M825 -485q-94 0 -186 28l47 193q73 -17 115 -17q70 0 99.5 36.5t29.5 123.5v707q0 129 -62 197.5t-180 68.5q-134 0 -211.5 -80t-77.5 -217v-555h-221v1184h-190v164h190v168h221v-168h306v-164h-306v-264q130 139 330 139q190 0 306 -119.5t116 -314.5v-779
q0 -158 -85.5 -244.5t-240.5 -86.5z" />
    <glyph glyph-name="uni0453" unicode="&#x453;" horiz-adv-x="901" 
d="M158 0v1044h702v-204h-481v-840h-221zM391 1217l131 299h266l-198 -299h-199z" />
    <glyph glyph-name="uni0454" unicode="&#x454;" horiz-adv-x="1128" 
d="M637 -25q-239 0 -393 154.5t-154 392.5t153 392.5t390 154.5q125 0 237 -44t185 -122l-131 -153q-57 54 -131.5 83t-153.5 29q-117 0 -201 -64.5t-114 -172.5h491v-199h-493q26 -113 110.5 -178.5t208.5 -65.5q88 0 165.5 34t129.5 95l143 -143q-72 -91 -189 -142
t-253 -51z" />
    <glyph glyph-name="uni0455" unicode="&#x455;" horiz-adv-x="993" 
d="M508 -16q-246 0 -436 143l96 176q175 -113 342 -113q92 0 143.5 27.5t51.5 77.5q0 45 -50.5 78t-167.5 63q-195 51 -282.5 129.5t-87.5 200.5q0 137 100.5 216t278.5 79q114 0 221 -36.5t190 -104.5l-104 -168q-57 48 -141.5 77t-167.5 29q-160 0 -160 -94q0 -46 47 -75
t170 -60q191 -47 283 -128t92 -200q0 -144 -114.5 -230.5t-303.5 -86.5z" />
    <glyph glyph-name="uni0456" unicode="&#x456;" horiz-adv-x="536" 
d="M158 0v1044h221v-1044h-221zM109 1341q0 72 44 117t115 45t115.5 -45t44.5 -117t-44.5 -116.5t-115.5 -44.5t-115 44.5t-44 116.5z" />
    <glyph glyph-name="uni0457" unicode="&#x457;" horiz-adv-x="536" 
d="M158 0v1044h221v-1044h-221zM-45 1323q0 60 36.5 98.5t94.5 38.5t94.5 -38.5t36.5 -98.5t-36.5 -98.5t-94.5 -38.5t-94.5 38.5t-36.5 98.5zM319 1323q0 60 37 98.5t95 38.5t94.5 -38.5t36.5 -98.5t-36.5 -98.5t-94.5 -38.5t-95 38.5t-37 98.5z" />
    <glyph glyph-name="uni0458" unicode="&#x458;" horiz-adv-x="536" 
d="M53 -485q-94 0 -186 28l47 197q69 -16 115 -16q70 0 99.5 36.5t29.5 122.5v1161h221v-1198q0 -158 -85.5 -244.5t-240.5 -86.5zM109 1341q0 72 44 117t115 45t115.5 -45t44.5 -117t-44.5 -116.5t-115.5 -44.5t-115 44.5t-44 116.5z" />
    <glyph glyph-name="uni0459" unicode="&#x459;" horiz-adv-x="1812" 
d="M20 178q74 20 116 39t72 52t43 78.5t19 121.5l47 575h797v-315h250q185 0 290 -97t105 -267t-105.5 -267.5t-289.5 -97.5h-471v840h-371l-30 -391q-17 -216 -108.5 -318t-307.5 -145zM1112 201h250q83 0 129.5 44t46.5 122t-46.5 121.5t-129.5 43.5h-250v-331z" />
    <glyph glyph-name="uni045A" unicode="&#x45a;" horiz-adv-x="1812" 
d="M893 0v436h-514v-436h-221v1044h221v-403h514v403h221v-315h246q187 0 293 -97t106 -267q0 -171 -106 -268t-293 -97h-467zM1112 201h250q83 0 129.5 44t46.5 122t-46.5 121.5t-129.5 43.5h-250v-331z" />
    <glyph glyph-name="uni045B" unicode="&#x45b;" horiz-adv-x="1294" 
d="M178 0v1184h-190v164h190v168h221v-168h306v-164h-306v-264q130 139 330 139q189 0 305.5 -118.5t116.5 -311.5v-629h-221v590q0 128 -62 195t-180 67q-134 0 -211.5 -80t-77.5 -217v-555h-221z" />
    <glyph glyph-name="uni045C" unicode="&#x45c;" horiz-adv-x="1105" 
d="M815 0l-323 438h-113v-438h-221v1044h221v-405h121l301 405h264l-381 -509l401 -535h-270zM471 1217l131 299h266l-198 -299h-199z" />
    <glyph glyph-name="uni045D" unicode="&#x45d;" horiz-adv-x="1302" 
d="M158 0v1044h219v-708l563 708h205v-1044h-219v709l-564 -709h-204zM362 1516h267l131 -299h-199z" />
    <glyph glyph-name="uni045E" unicode="&#x45e;" horiz-adv-x="1167" 
d="M297 -479q-98 0 -188 35l57 190q52 -18 117 -18q74 0 117 33.5t77 125.5l23 62l-463 1095h242l231 -563l98 -243l86 243l201 563h235l-450 -1226q-109 -297 -383 -297zM279 1491l165 33q10 -84 46.5 -123t103.5 -39q66 0 102.5 39t46.5 123l166 -33
q-19 -146 -95.5 -215.5t-219.5 -69.5t-219.5 69.5t-95.5 215.5z" />
    <glyph glyph-name="uni045F" unicode="&#x45f;" horiz-adv-x="1277" 
d="M745 0v-301h-213v301h-374v1044h221v-839h520v839h221v-1044h-375z" />
    <glyph glyph-name="uni0490" unicode="&#x490;" horiz-adv-x="1087" 
d="M174 0v1434h643v317h225v-537h-639v-1214h-229z" />
    <glyph glyph-name="uni0491" unicode="&#x491;" horiz-adv-x="901" 
d="M158 0v1044h485v322h217v-526h-481v-840h-221z" />
    <glyph glyph-name="uni04D4" unicode="&#x4d4;" horiz-adv-x="1945" 
d="M29 0l829 1434h957v-211h-615v-383h561v-207h-561v-420h639v-213h-860v301h-524l-172 -301h-254zM567 502h412v712z" />
    <glyph glyph-name="uni04D5" unicode="&#x4d5;" horiz-adv-x="1916" 
d="M1346 -25q-134 0 -244 54t-180 151q-142 -205 -455 -205q-174 0 -279.5 92.5t-105.5 243.5q0 158 114.5 253t305.5 95q149 0 303 -53v53q0 114 -63.5 160.5t-192.5 46.5q-153 0 -322 -88l-63 185q207 106 387 106q280 0 391 -176q68 84 167 130t218 46q168 0 294.5 -89
t182.5 -239.5t27 -326.5h-809q28 -107 114.5 -172.5t202.5 -65.5q181 0 316 135l131 -143q-158 -193 -440 -193zM303 317q0 -69 48.5 -105t142.5 -36q132 0 220 69t95 179q-159 51 -281 51q-107 0 -166 -41.5t-59 -116.5zM1018 602h606q-21 119 -102 192.5t-201 73.5
q-116 0 -198 -72.5t-105 -193.5z" />
    <glyph glyph-name="uni04D8" unicode="&#x4d8;" horiz-adv-x="1546" 
d="M762 -25q-163 0 -300 69t-225.5 184.5t-128 273t-16.5 329.5h1125q-28 183 -160 298.5t-320 115.5q-261 0 -450 -205l-135 152q106 126 256 196t335 70q207 0 367.5 -93.5t249 -262t88.5 -385.5q0 -213 -88 -382.5t-245 -264.5t-353 -95zM305 631q22 -195 146.5 -319
t310.5 -124q181 0 306.5 123t150.5 320h-914z" />
    <glyph glyph-name="uni04D9" unicode="&#x4d9;" horiz-adv-x="1228" 
d="M592 1069q244 0 395.5 -152.5t151.5 -394.5q0 -239 -150.5 -393t-382.5 -154q-129 0 -237.5 53t-177.5 141.5t-98.5 209.5t-6.5 252h829q-28 104 -117.5 170.5t-209.5 66.5q-188 0 -326 -135l-131 144q78 91 195 141.5t266 50.5zM291 442q22 -119 106.5 -192.5
t208.5 -73.5q121 0 205.5 72.5t106.5 193.5h-627z" />
    <glyph glyph-name="Wgrave" unicode="&#x1e80;" horiz-adv-x="2189" 
d="M492 0l-441 1434h240l342 -1153l344 1101h237l349 -1103l338 1155h237l-434 -1434h-277l-184 571l-147 467l-144 -467l-184 -571h-276zM803 1839h266l131 -258h-196z" />
    <glyph glyph-name="wgrave" unicode="&#x1e81;" horiz-adv-x="1763" 
d="M391 0l-344 1044h234l110 -348l133 -420l252 736h213l250 -740l135 424l111 348h231l-346 -1044h-254l-96 289l-137 407l-238 -696h-254zM594 1516h266l131 -299h-198z" />
    <glyph glyph-name="Wacute" unicode="&#x1e82;" horiz-adv-x="2189" 
d="M492 0l-441 1434h240l342 -1153l344 1101h237l349 -1103l338 1155h237l-434 -1434h-277l-184 571l-147 467l-144 -467l-184 -571h-276zM991 1581l131 258h267l-201 -258h-197z" />
    <glyph glyph-name="wacute" unicode="&#x1e83;" horiz-adv-x="1763" 
d="M391 0l-344 1044h234l110 -348l133 -420l252 736h213l250 -740l135 424l111 348h231l-346 -1044h-254l-96 289l-137 407l-238 -696h-254zM774 1217l131 299h266l-198 -299h-199z" />
    <glyph glyph-name="Wdieresis" unicode="&#x1e84;" horiz-adv-x="2189" 
d="M492 0l-441 1434h240l342 -1153l344 1101h237l349 -1103l338 1155h237l-434 -1434h-277l-184 571l-147 467l-144 -467l-184 -571h-276zM766 1698q0 62 37.5 101.5t97.5 39.5t97.5 -39.5t37.5 -101.5t-37.5 -102t-97.5 -40t-97.5 40t-37.5 102zM1155 1698q0 62 37.5 101.5
t97.5 39.5t97.5 -39.5t37.5 -101.5t-37.5 -102t-97.5 -40t-97.5 40t-37.5 102z" />
    <glyph glyph-name="wdieresis" unicode="&#x1e85;" horiz-adv-x="1763" 
d="M391 0l-344 1044h234l110 -348l133 -420l252 736h213l250 -740l135 424l111 348h231l-346 -1044h-254l-96 289l-137 407l-238 -696h-254zM559 1323q0 60 37.5 98.5t95.5 38.5t95.5 -38.5t37.5 -98.5t-37.5 -98.5t-95.5 -38.5t-95.5 38.5t-37.5 98.5zM940 1323
q0 60 37.5 98.5t95.5 38.5t95.5 -38.5t37.5 -98.5t-37.5 -98.5t-95.5 -38.5t-95.5 38.5t-37.5 98.5z" />
    <glyph glyph-name="uni1E9E" unicode="&#x1e9e;" horiz-adv-x="1437" 
d="M860 -16q-99 0 -194 25t-164 69l100 182q109 -65 236 -65q128 0 199 63.5t71 171.5q0 73 -32.5 125.5t-88.5 78t-131 34.5t-160 -4l-63 145l319 416h-276q-140 0 -214.5 -90.5t-74.5 -255.5v-879h-229v868q0 263 130.5 414.5t397.5 151.5h547v-174l-305 -396
q191 -23 301 -142t110 -302q0 -197 -129.5 -316.5t-349.5 -119.5z" />
    <glyph glyph-name="Ygrave" unicode="&#x1ef2;" horiz-adv-x="1361" 
d="M567 0v545l-532 889h266l383 -646l381 646h262l-530 -887v-547h-230zM391 1839h266l131 -258h-196z" />
    <glyph glyph-name="ygrave" unicode="&#x1ef3;" horiz-adv-x="1167" 
d="M297 -479q-98 0 -188 35l57 190q52 -18 117 -18q74 0 117 33.5t77 125.5l23 62l-463 1095h242l231 -563l98 -243l86 243l201 563h235l-450 -1226q-109 -297 -383 -297zM305 1516h266l131 -299h-198z" />
    <glyph glyph-name="uni2009" unicode="&#x2009;" horiz-adv-x="409" 
 />
    <glyph glyph-name="uni200B" unicode="&#x200b;" 
 />
    <glyph glyph-name="endash" unicode="&#x2013;" horiz-adv-x="1110" 
d="M1018 461h-926v186h926v-186z" />
    <glyph glyph-name="emdash" unicode="&#x2014;" horiz-adv-x="1384" 
d="M1292 461h-1200v186h1200v-186z" />
    <glyph glyph-name="quoteleft" unicode="&#x2018;" horiz-adv-x="501" 
d="M373 1516q-52 -55 -76.5 -104t-32.5 -112q56 -3 92.5 -41.5t36.5 -93.5q0 -56 -38.5 -93.5t-96.5 -37.5q-67 0 -106 52t-39 141q0 102 48.5 198t137.5 166z" />
    <glyph glyph-name="quoteright" unicode="&#x2019;" horiz-adv-x="501" 
d="M129 1100q53 56 77.5 104t31.5 111q-56 3 -92.5 41.5t-36.5 93.5q0 56 38.5 93.5t96.5 37.5q67 0 106 -51.5t39 -140.5q0 -102 -48.5 -198.5t-137.5 -166.5z" />
    <glyph glyph-name="quotesinglbase" unicode="&#x201a;" horiz-adv-x="501" 
d="M129 -217q53 56 77.5 104t31.5 111q-56 3 -92.5 41.5t-36.5 93.5q0 56 38.5 93.5t96.5 37.5q67 0 106 -51.5t39 -140.5q0 -102 -48.5 -198.5t-137.5 -166.5z" />
    <glyph glyph-name="quotedblleft" unicode="&#x201c;" horiz-adv-x="856" 
d="M727 1516q-52 -55 -76.5 -104t-32.5 -112q56 -3 93 -41.5t37 -93.5q0 -56 -39 -93.5t-97 -37.5q-67 0 -106 52t-39 141q0 102 48.5 198t137.5 166zM113 1227q0 102 48.5 198t137.5 166l74 -75q-52 -55 -76.5 -104t-32.5 -112q56 -3 92.5 -41.5t36.5 -93.5
q0 -56 -38.5 -93.5t-96.5 -37.5q-67 0 -106 52t-39 141z" />
    <glyph glyph-name="quotedblright" unicode="&#x201d;" horiz-adv-x="856" 
d="M129 1100q53 56 77.5 104t31.5 111q-56 3 -92.5 41.5t-36.5 93.5q0 56 38.5 93.5t96.5 37.5q67 0 106 -51.5t39 -140.5q0 -102 -48.5 -198.5t-137.5 -166.5zM463 1450q0 56 38.5 93.5t96.5 37.5q67 0 106 -51.5t39 -140.5q0 -102 -48.5 -198.5t-137.5 -166.5l-74 76
q53 56 77.5 104t31.5 111q-56 3 -92.5 41.5t-36.5 93.5z" />
    <glyph glyph-name="quotedblbase" unicode="&#x201e;" horiz-adv-x="856" 
d="M129 -217q53 56 77.5 104t31.5 111q-56 3 -92.5 41.5t-36.5 93.5q0 56 38.5 93.5t96.5 37.5q67 0 106 -51.5t39 -140.5q0 -102 -48.5 -198.5t-137.5 -166.5zM463 133q0 56 38.5 93.5t96.5 37.5q67 0 106 -51.5t39 -140.5q0 -102 -48.5 -198.5t-137.5 -166.5l-74 76
q53 56 77.5 104t31.5 111q-56 3 -92.5 41.5t-36.5 93.5z" />
    <glyph glyph-name="dagger" unicode="&#x2020;" horiz-adv-x="1105" 
d="M451 -471v1065h-338v188h338v490h204v-490h338v-188h-338v-1065h-204z" />
    <glyph glyph-name="daggerdbl" unicode="&#x2021;" horiz-adv-x="1105" 
d="M451 -471v512h-338v188h338v406h-338v188h338v449h204v-449h338v-188h-338v-406h338v-188h-338v-512h-204z" />
    <glyph glyph-name="bullet" unicode="&#x2022;" horiz-adv-x="753" 
d="M377 344q-104 0 -176 68t-72 174t71.5 173.5t176.5 67.5t176.5 -67.5t71.5 -173.5t-72 -174t-176 -68z" />
    <glyph glyph-name="ellipsis" unicode="&#x2026;" horiz-adv-x="1327" 
d="M254 -20q-61 0 -103 39.5t-42 101.5t42 101.5t103 39.5t103 -39.5t42 -101.5t-42 -101.5t-103 -39.5zM518 121q0 62 42.5 101.5t103.5 39.5t103 -39.5t42 -101.5t-42 -101.5t-103 -39.5t-103.5 39.5t-42.5 101.5zM928 121q0 62 42 101.5t103 39.5t103.5 -39.5
t42.5 -101.5t-42.5 -101.5t-103.5 -39.5t-103 39.5t-42 101.5z" />
    <glyph glyph-name="perthousand" unicode="&#x2030;" horiz-adv-x="2355" 
d="M2003 -12q-141 0 -232.5 89.5t-91.5 227.5t91.5 228t232.5 90t231 -90t90 -228t-90 -227.5t-231 -89.5zM51 1122q0 141 93 232.5t237 91.5t236 -91.5t92 -232.5t-92 -232t-236 -91q-145 0 -237.5 91t-92.5 232zM213 1122q0 -74 47 -122t121 -48t120 48t46 122t-46 122
t-120 48t-121 -48t-47 -122zM240 57l1001 1409l125 -90l-999 -1409zM897 311q0 141 93 232.5t237 91.5t235.5 -91t91.5 -233q0 -141 -91.5 -232t-235.5 -91q-145 0 -237.5 91t-92.5 232zM1059 311q0 -74 47 -122t121 -48t120 48t46 122t-46 122t-120 48t-121 -48t-47 -122z
M1831 305q0 -76 48 -125t124 -49t123 49t47 125t-47 125t-123 49t-124 -49t-48 -125z" />
    <glyph glyph-name="minute" unicode="&#x2032;" horiz-adv-x="456" 
d="M78 922l112 634h197l-133 -634h-176z" />
    <glyph glyph-name="second" unicode="&#x2033;" horiz-adv-x="768" 
d="M385 922l121 634h192l-141 -634h-172zM78 922l100 634h193l-121 -634h-172z" />
    <glyph glyph-name="guilsinglleft" unicode="&#x2039;" horiz-adv-x="843" 
d="M561 29l-455 546l455 541l150 -129l-342 -412l342 -417z" />
    <glyph glyph-name="guilsinglright" unicode="&#x203a;" horiz-adv-x="843" 
d="M283 1120l454 -547l-454 -540l-150 129l342 411l-342 418z" />
    <glyph glyph-name="uni203D" unicode="&#x203d;" horiz-adv-x="1032" 
d="M403 350l-12 563v205h207v-205l-2 -110q4 4 8 6q82 53 117 109.5t35 138.5q0 97 -66 151t-184 54q-95 0 -183 -52t-143 -143l-149 117q88 140 207.5 206t285.5 66q201 0 324 -105t123 -276q0 -114 -54.5 -202t-195.5 -205q-63 -52 -83 -97.5t-20 -134.5v-86h-215z
M365 121q0 60 41 100.5t104 40.5t104 -40.5t41 -100.5t-41 -100.5t-104 -40.5t-104 40.5t-41 100.5z" />
    <glyph glyph-name="fraction" unicode="&#x2044;" horiz-adv-x="436" 
d="M-213 -80l-149 100l1011 1514l150 -102z" />
    <glyph glyph-name="uni2070" unicode="&#x2070;" horiz-adv-x="720" 
d="M360 954q-137 0 -218 97.5t-81 261.5t81 261t218 97t218 -97t81 -261t-81 -261.5t-218 -97.5zM227 1313q0 -101 34 -154t99 -53t99.5 53t34.5 154t-34.5 154t-99.5 53t-99 -53t-34 -154z" />
    <glyph glyph-name="uni2074" unicode="&#x2074;" horiz-adv-x="638" 
d="M358 967v129h-333v131l342 432h147v-418h80v-145h-80v-129h-156zM217 1239h143v182z" />
    <glyph glyph-name="uni2075" unicode="&#x2075;" horiz-adv-x="583" 
d="M281 954q-76 0 -132 19.5t-108 60.5l82 131q76 -55 145 -55q43 0 71 22.5t28 57.5q0 37 -30 59.5t-77 22.5q-61 0 -129 -19l-53 52l26 354h379v-152h-252l-8 -108q35 6 64 6q106 0 174.5 -59t68.5 -164q0 -104 -70 -166t-179 -62z" />
    <glyph glyph-name="uni2076" unicode="&#x2076;" horiz-adv-x="634" 
d="M334 954q-123 0 -198 88t-75 256q0 180 76.5 276.5t212.5 96.5q104 0 199 -61l-74 -111q-50 31 -110 31q-125 0 -146 -141q51 45 129 45q105 0 169.5 -68.5t64.5 -171.5q0 -106 -69 -173t-179 -67zM233 1194q0 -47 27 -74.5t70 -27.5q40 0 68 28t28 74q0 44 -28 72
t-68 28q-43 0 -70 -27.5t-27 -72.5z" />
    <glyph glyph-name="uni2077" unicode="&#x2077;" horiz-adv-x="544" 
d="M152 967l155 544h-266v148h451v-107l-173 -585h-167z" />
    <glyph glyph-name="uni2078" unicode="&#x2078;" horiz-adv-x="641" 
d="M322 954q-120 0 -192.5 58t-72.5 155q0 107 93 166q-70 59 -70 146q0 85 67.5 138.5t174.5 53.5t174 -53.5t67 -138.5q0 -88 -69 -146q92 -59 92 -166q0 -97 -72 -155t-192 -58zM219 1178q0 -38 28.5 -63t74.5 -25q45 0 73.5 24.5t28.5 63.5t-28.5 63.5t-73.5 24.5
q-46 0 -74.5 -25t-28.5 -63zM242 1464q0 -32 21.5 -51.5t58.5 -19.5t58 19.5t21 51.5q0 33 -21.5 52.5t-57.5 19.5q-37 0 -58.5 -20t-21.5 -52z" />
    <glyph glyph-name="uni2079" unicode="&#x2079;" horiz-adv-x="634" 
d="M301 1671q123 0 197.5 -88t74.5 -256q0 -181 -76.5 -277t-211.5 -96q-103 0 -199 62l74 110q48 -30 110 -30q125 0 146 141q-51 -45 -129 -45q-105 0 -169.5 68.5t-64.5 171.5q0 106 69 172.5t179 66.5zM209 1432q0 -44 28.5 -72.5t67.5 -28.5q43 0 69.5 27.5t26.5 73.5
q0 47 -26.5 74.5t-69.5 27.5q-40 0 -68 -28t-28 -74z" />
    <glyph glyph-name="uni2080" unicode="&#x2080;" horiz-adv-x="720" 
d="M360 -238q-137 0 -218 97.5t-81 261.5t81 261t218 97t218 -97t81 -261t-81 -261.5t-218 -97.5zM227 121q0 -101 34 -154t99 -53t99.5 53t34.5 154t-34.5 154t-99.5 53t-99 -53t-34 -154z" />
    <glyph glyph-name="uni2081" unicode="&#x2081;" horiz-adv-x="440" 
d="M211 -225v493q-74 -39 -180 -39v131q66 0 112 25t84 82h144v-692h-160z" />
    <glyph glyph-name="uni2082" unicode="&#x2082;" horiz-adv-x="575" 
d="M49 -225v106l207 250q50 60 64 84t14 49q0 31 -20.5 48.5t-57.5 17.5q-78 0 -139 -70l-94 109q63 61 118 85.5t129 24.5q105 0 168.5 -57t63.5 -152q0 -58 -20 -97.5t-101 -143.5l-80 -103h229v-151h-481z" />
    <glyph glyph-name="uni2083" unicode="&#x2083;" horiz-adv-x="575" 
d="M281 -238q-76 0 -133 18.5t-111 61.5l82 131q72 -55 145 -55q46 0 74.5 23.5t28.5 62.5q0 55 -44 76.5t-118 1.5l-41 70l115 165h-203v150h418v-86l-138 -178q77 -15 125.5 -72.5t48.5 -136.5q0 -102 -69.5 -167t-179.5 -65z" />
    <glyph glyph-name="uni2084" unicode="&#x2084;" horiz-adv-x="638" 
d="M358 -225v129h-333v131l342 432h147v-418h80v-145h-80v-129h-156zM217 47h143v182z" />
    <glyph glyph-name="uni2085" unicode="&#x2085;" horiz-adv-x="583" 
d="M281 -238q-76 0 -132 19.5t-108 60.5l82 131q76 -55 145 -55q43 0 71 22.5t28 57.5q0 37 -30 59.5t-77 22.5q-61 0 -129 -19l-53 52l26 354h379v-152h-252l-8 -108q35 6 64 6q106 0 174.5 -59t68.5 -164q0 -104 -70 -166t-179 -62z" />
    <glyph glyph-name="uni2086" unicode="&#x2086;" horiz-adv-x="634" 
d="M334 -238q-123 0 -198 88t-75 256q0 180 76.5 276.5t212.5 96.5q104 0 199 -61l-74 -111q-50 31 -110 31q-125 0 -146 -141q51 45 129 45q105 0 169.5 -68.5t64.5 -171.5q0 -106 -69 -173t-179 -67zM233 2q0 -47 27 -74.5t70 -27.5q40 0 68 28t28 74q0 44 -28 72t-68 28
q-43 0 -70 -27.5t-27 -72.5z" />
    <glyph glyph-name="uni2087" unicode="&#x2087;" horiz-adv-x="544" 
d="M152 -225l155 544h-266v148h451v-107l-173 -585h-167z" />
    <glyph glyph-name="uni2088" unicode="&#x2088;" horiz-adv-x="641" 
d="M322 -238q-120 0 -192.5 58t-72.5 155q0 107 93 166q-70 59 -70 146q0 85 67.5 138.5t174.5 53.5t174 -53.5t67 -138.5q0 -88 -69 -146q92 -59 92 -166q0 -97 -72 -155t-192 -58zM219 -14q0 -38 28.5 -63t74.5 -25q45 0 73.5 24.5t28.5 63.5t-28.5 63.5t-73.5 24.5
q-46 0 -74.5 -25t-28.5 -63zM242 272q0 -32 21.5 -51.5t58.5 -19.5t58 19.5t21 51.5q0 33 -21.5 52.5t-57.5 19.5q-37 0 -58.5 -20t-21.5 -52z" />
    <glyph glyph-name="uni2089" unicode="&#x2089;" horiz-adv-x="634" 
d="M301 479q123 0 197.5 -88t74.5 -256q0 -181 -76.5 -277t-211.5 -96q-103 0 -199 62l74 110q48 -30 110 -30q125 0 146 141q-51 -45 -129 -45q-105 0 -169.5 68.5t-64.5 171.5q0 106 69 172.5t179 66.5zM209 240q0 -44 28.5 -72.5t67.5 -28.5q43 0 69.5 27.5t26.5 73.5
q0 47 -26.5 74.5t-69.5 27.5q-40 0 -68 -28t-28 -74z" />
    <glyph glyph-name="Euro" unicode="&#x20ac;" horiz-adv-x="1626" 
d="M965 -25q-264 0 -446 137t-245 371h-229v172h203q-2 20 -2 62q0 41 2 61h-203v172h229q64 234 245.5 371t443.5 137q348 0 593 -305l-157 -131q-88 106 -205.5 163.5t-237.5 57.5q-155 0 -268 -78t-168 -215h518v-172h-557q-2 -20 -2 -61q0 -42 2 -62h557v-172h-518
q54 -138 169.5 -216.5t275.5 -78.5q264 0 448 236l164 -131q-251 -318 -612 -318z" />
    <glyph glyph-name="uni20B4" unicode="&#x20b4;" horiz-adv-x="1210" 
d="M614 -14q-211 0 -332.5 92t-121.5 254q0 84 28 151h-110v172h1055v-172h-717q-29 -47 -29 -110q0 -85 62 -134t165 -49q185 0 369 148l104 -174q-99 -82 -224 -130t-249 -48zM78 778v172h725q28 43 28 111q0 88 -53.5 137t-163.5 49q-71 0 -151 -35t-150 -96l-125 158
q191 178 447 178q189 0 306.5 -106t117.5 -254q0 -83 -33 -142h107v-172h-1055z" />
    <glyph glyph-name="uni20BA" unicode="&#x20ba;" horiz-adv-x="1409" 
d="M342 0v467l-227 -86l-60 162l293 110v131l-235 -90l-60 162l289 109v469h229v-381l361 135l57 -162l-424 -160v-131l369 139l57 -161l-420 -160v-334h201q92 0 156 19t105 60t64 90.5t42 125.5l198 -59q-48 -227 -179 -341t-386 -114h-430z" />
    <glyph glyph-name="uni20BD" unicode="&#x20bd;" horiz-adv-x="1306" 
d="M287 0v240h-234v180h234v112h-228v189h228v713h477q220 0 359 -128t139 -331t-144.5 -323t-390.5 -120h-211v-112h305v-180h-305v-240h-229zM512 721h231q134 0 211.5 66t77.5 180q0 115 -78.5 183.5t-210.5 68.5h-231v-498z" />
    <glyph glyph-name="uni2103" unicode="&#x2103;" horiz-adv-x="2230" 
d="M385 866q-132 0 -221.5 87.5t-89.5 217.5t89.5 218t221.5 88t221.5 -88t89.5 -218t-89.5 -217.5t-221.5 -87.5zM221 1171q0 -69 46 -114t118 -45t118 45t46 114t-46 114.5t-118 45.5t-118 -45.5t-46 -114.5zM836 717q0 158 51.5 294.5t143.5 235t224.5 155t288.5 56.5
q182 0 333.5 -79t266.5 -226l-164 -143q-78 108 -193 167.5t-243 59.5q-140 0 -248.5 -67.5t-167.5 -185.5t-59 -267q0 -229 132 -374.5t351 -145.5q141 0 262 62t203 175l164 -139q-239 -320 -629 -320q-210 0 -374 96.5t-253 265t-89 380.5z" />
    <glyph glyph-name="uni2109" unicode="&#x2109;" horiz-adv-x="1855" 
d="M385 866q-132 0 -221.5 87.5t-89.5 217.5t89.5 218t221.5 88t221.5 -88t89.5 -218t-89.5 -217.5t-221.5 -87.5zM221 1171q0 -69 46 -114t118 -45t118 45t46 114t-46 114.5t-118 45.5t-118 -45.5t-46 -114.5zM920 0v1434h870v-220h-641v-411h594v-215h-594v-588h-229z" />
    <glyph glyph-name="uni2113" unicode="&#x2113;" horiz-adv-x="964" 
d="M604 -20q-169 0 -263.5 98t-94.5 284v80l-129 -51l-66 178l195 78v496q0 179 88.5 281t243.5 102q137 0 231 -103.5t94 -300.5q0 -412 -448 -598v-145q0 -104 43.5 -151.5t134.5 -47.5q83 0 174 37l53 -182q-116 -55 -256 -55zM455 733q128 62 182.5 156t54.5 225
q0 112 -33 161.5t-86 49.5q-54 0 -86 -44.5t-32 -135.5v-412z" />
    <glyph glyph-name="uni2116" unicode="&#x2116;" horiz-adv-x="2295" 
d="M1909 768q-147 0 -247.5 99t-100.5 241q0 143 100.5 241.5t247.5 98.5q151 0 249.5 -97t98.5 -243q0 -145 -99 -242.5t-249 -97.5zM174 0v1434h205l766 -1039v1039h227v-1434h-207l-764 1038v-1038h-227zM1602 446v168h614v-168h-614zM1741 1108q0 -76 48 -120t120 -44
t120 44t48 120t-48 120t-120 44t-120 -44t-48 -120z" />
    <glyph glyph-name="uni2117" unicode="&#x2117;" horiz-adv-x="1662" 
d="M831 -23q-157 0 -293 56t-232.5 154t-152 235t-55.5 295q0 210 94 379t262 264.5t377 95.5t377 -95.5t262.5 -264.5t94.5 -379t-94.5 -379.5t-262.5 -265t-377 -95.5zM279 717q0 -161 70.5 -290.5t196.5 -203t285 -73.5q241 0 397 161t156 406t-156 406t-397 161
q-159 0 -285 -73.5t-196.5 -203t-70.5 -290.5zM600 313v789h287q132 0 208 -75.5t76 -192.5t-76 -193t-208 -76h-135v-252h-152zM750 705h124q65 0 101.5 35.5t36.5 93.5t-36.5 93.5t-101.5 35.5h-124v-258z" />
    <glyph glyph-name="trademark" unicode="&#x2122;" horiz-adv-x="1187" 
d="M553 895v539h117l166 -242l165 242h117v-539h-131v305l-115 -174h-75l-113 168v-299h-131zM53 1315v119h443v-119h-156v-420h-131v420h-156z" />
    <glyph glyph-name="uni2126" unicode="&#x2126;" horiz-adv-x="1744" 
d="M94 0v201h242q-95 87 -149 223t-54 291q0 212 95.5 382t264.5 265.5t379 95.5t379.5 -95.5t265 -265.5t95.5 -382q0 -155 -54 -291t-149 -223h242v-201h-654v184q383 142 383 518q0 237 -142 388t-366 151t-365.5 -151t-141.5 -388q0 -376 383 -518v-184h-654z" />
    <glyph glyph-name="estimated" unicode="&#x212e;" horiz-adv-x="1624" 
d="M825 -25q-217 0 -384 99.5t-255 268t-88 376.5q0 153 52.5 288.5t146 235t230.5 157.5t298 58q158 0 291.5 -57t226 -159t141.5 -249.5t42 -322.5h-1151v-414q77 -88 192 -137t258 -49q165 0 313.5 84t250.5 252l77 -54q-122 -187 -286 -282t-355 -95zM375 756h885v430
q-166 178 -435 178q-277 0 -450 -203v-405z" />
    <glyph glyph-name="uni2150" unicode="&#x2150;" horiz-adv-x="1421" 
d="M211 741v494q-74 -39 -180 -39v131q66 0 112 25t84 82h144v-693h-160zM78 20l1012 1514l149 -102l-1012 -1512zM918 545v147h450v-106l-172 -586h-168l156 545h-266z" />
    <glyph glyph-name="uni2151" unicode="&#x2151;" horiz-adv-x="1511" 
d="M211 741v494q-74 -39 -180 -39v131q66 0 112 25t84 82h144v-693h-160zM78 20l1012 1514l149 -102l-1012 -1512zM930 465q0 106 69 173t179 67q123 0 197.5 -88.5t74.5 -256.5q0 -180 -76.5 -276t-212.5 -96q-103 0 -198 61l73 111q50 -31 111 -31q124 0 145 141
q-51 -45 -129 -45q-105 0 -169 68.5t-64 171.5zM1085 465q0 -44 28.5 -72t68.5 -28q43 0 69.5 27.5t26.5 72.5q0 47 -26.5 74.5t-69.5 27.5q-40 0 -68.5 -28t-28.5 -74z" />
    <glyph glyph-name="uni2153" unicode="&#x2153;" horiz-adv-x="1452" 
d="M211 741v494q-74 -39 -180 -39v131q66 0 112 25t84 82h144v-693h-160zM78 20l1012 1514l149 -102l-1012 -1512zM913 68l82 131q73 -56 146 -56q46 0 74 23.5t28 62.5q0 55 -44 76.5t-118 1.5l-41 70l115 166h-203v149h418v-86l-137 -178q77 -15 125.5 -72.5t48.5 -136.5
q0 -101 -70 -166t-180 -65q-76 0 -133 18.5t-111 61.5z" />
    <glyph glyph-name="uni2154" unicode="&#x2154;" horiz-adv-x="1587" 
d="M49 741v107l207 250q50 60 64 84t14 49q0 31 -20.5 48t-57.5 17q-42 0 -74.5 -16t-64.5 -53l-94 108q63 61 118 86t129 25q105 0 168.5 -57t63.5 -152q0 -58 -20.5 -98t-100.5 -144l-80 -102h229v-152h-481zM213 20l1012 1514l149 -102l-1012 -1512zM1049 68l81 131
q73 -56 146 -56q46 0 74 23.5t28 62.5q0 55 -43.5 76.5t-117.5 1.5l-41 70l114 166h-203v149h418v-86l-137 -178q77 -15 125.5 -72.5t48.5 -136.5q0 -101 -70 -166t-180 -65q-76 0 -132.5 18.5t-110.5 61.5z" />
    <glyph glyph-name="uni2155" unicode="&#x2155;" horiz-adv-x="1460" 
d="M211 741v494q-74 -39 -180 -39v131q66 0 112 25t84 82h144v-693h-160zM78 20l1012 1514l149 -102l-1012 -1512zM918 68l81 131q77 -56 146 -56q43 0 70.5 22.5t27.5 57.5q0 37 -29.5 59.5t-76.5 22.5q-65 0 -129 -18l-54 51l27 354h379v-151h-252l-8 -109q34 6 63 6
q106 0 175 -59t69 -164q0 -104 -70.5 -165.5t-179.5 -61.5q-76 0 -131 19.5t-108 60.5z" />
    <glyph glyph-name="uni2156" unicode="&#x2156;" horiz-adv-x="1595" 
d="M49 741v107l207 250q50 60 64 84t14 49q0 31 -20.5 48t-57.5 17q-42 0 -74.5 -16t-64.5 -53l-94 108q63 61 118 86t129 25q105 0 168.5 -57t63.5 -152q0 -58 -20.5 -98t-100.5 -144l-80 -102h229v-152h-481zM213 20l1012 1514l149 -102l-1012 -1512zM1053 68l82 131
q77 -56 145 -56q43 0 70.5 22.5t27.5 57.5q0 37 -29.5 59.5t-76.5 22.5q-64 0 -129 -18l-53 51l26 354h379v-151h-252l-8 -109q35 6 63 6q106 0 175 -59t69 -164q0 -104 -70.5 -165.5t-179.5 -61.5q-76 0 -131 19.5t-108 60.5z" />
    <glyph glyph-name="uni2157" unicode="&#x2157;" horiz-adv-x="1595" 
d="M281 729q-76 0 -133 18.5t-111 61.5l82 131q72 -55 145 -55q46 0 74.5 23.5t28.5 62.5q0 55 -44 76.5t-118 1.5l-41 69l115 166h-203v150h418v-86l-138 -179q77 -15 125.5 -72t48.5 -136q0 -102 -69.5 -167t-179.5 -65zM213 20l1012 1514l149 -102l-1012 -1512zM1053 68
l82 131q77 -56 145 -56q43 0 70.5 22.5t27.5 57.5q0 37 -29.5 59.5t-76.5 22.5q-64 0 -129 -18l-53 51l26 354h379v-151h-252l-8 -109q35 6 63 6q106 0 175 -59t69 -164q0 -104 -70.5 -165.5t-179.5 -61.5q-76 0 -131 19.5t-108 60.5z" />
    <glyph glyph-name="uni2158" unicode="&#x2158;" horiz-adv-x="1658" 
d="M358 741v129h-333v131l342 433h147v-418h80v-146h-80v-129h-156zM217 1014h143v182zM276 20l1012 1514l150 -102l-1012 -1512zM1116 68l82 131q77 -56 145 -56q43 0 71 22.5t28 57.5q0 37 -30 59.5t-77 22.5q-65 0 -129 -18l-53 51l27 354h379v-151h-252l-9 -109
q34 6 64 6q106 0 175 -59t69 -164q0 -104 -70.5 -165.5t-179.5 -61.5q-76 0 -132 19.5t-108 60.5z" />
    <glyph glyph-name="uni2159" unicode="&#x2159;" horiz-adv-x="1511" 
d="M211 741v494q-74 -39 -180 -39v131q66 0 112 25t84 82h144v-693h-160zM78 20l1012 1514l149 -102l-1012 -1512zM938 332q0 180 76.5 276.5t212.5 96.5q102 0 198 -62l-73 -111q-50 31 -111 31q-124 0 -145 -141q51 45 129 45q105 0 169 -68.5t64 -171.5
q0 -106 -69 -172.5t-179 -66.5q-123 0 -197.5 88t-74.5 256zM1110 227q0 -47 26.5 -74.5t69.5 -27.5q40 0 68.5 28t28.5 74q0 44 -28.5 72.5t-68.5 28.5q-43 0 -69.5 -27.5t-26.5 -73.5z" />
    <glyph glyph-name="uni215A" unicode="&#x215a;" horiz-adv-x="1654" 
d="M281 729q-76 0 -132 19.5t-108 60.5l82 131q76 -55 145 -55q43 0 71 22.5t28 57.5q0 37 -30 59.5t-77 22.5q-61 0 -129 -19l-53 51l26 355h379v-152h-252l-8 -108q35 6 64 6q105 0 174 -59.5t69 -164.5q0 -104 -70 -165.5t-179 -61.5zM221 20l1012 1514l149 -102
l-1011 -1512zM1081 332q0 180 76.5 276.5t212.5 96.5q103 0 199 -62l-74 -111q-50 31 -111 31q-124 0 -145 -141q51 45 129 45q105 0 169.5 -68.5t64.5 -171.5q0 -106 -69 -172.5t-179 -66.5q-123 0 -198 88t-75 256zM1253 227q0 -47 27 -74.5t70 -27.5q40 0 68 28t28 74
q0 45 -28 73t-68 28q-43 0 -70 -28t-27 -73z" />
    <glyph glyph-name="oneeighth" unicode="&#x215b;" horiz-adv-x="1517" 
d="M211 741v494q-74 -39 -180 -39v131q66 0 112 25t84 82h144v-693h-160zM78 20l1012 1514l149 -102l-1012 -1512zM934 201q0 107 92 166q-70 59 -70 145q0 85 67.5 139t174.5 54t174.5 -54t67.5 -139q0 -86 -70 -145q92 -59 92 -166q0 -97 -72 -155t-192 -58t-192 58
t-72 155zM1096 211q0 -39 28.5 -63.5t73.5 -24.5t73.5 24.5t28.5 63.5t-28.5 63.5t-73.5 24.5t-73.5 -24.5t-28.5 -63.5zM1118 498q0 -32 21.5 -52t58.5 -20t58.5 20t21.5 52t-21.5 51.5t-58.5 19.5t-58.5 -19.5t-21.5 -51.5z" />
    <glyph glyph-name="threeeighths" unicode="&#x215c;" horiz-adv-x="1652" 
d="M281 729q-76 0 -133 18.5t-111 61.5l82 131q72 -55 145 -55q46 0 74.5 23.5t28.5 62.5q0 55 -44 76.5t-118 1.5l-41 69l115 166h-203v150h418v-86l-138 -179q77 -15 125.5 -72t48.5 -136q0 -102 -69.5 -167t-179.5 -65zM213 20l1012 1514l149 -102l-1012 -1512zM1069 201
q0 107 92 166q-69 58 -69 145q0 85 67 139t174 54t174.5 -54t67.5 -139q0 -86 -70 -145q92 -59 92 -166q0 -97 -72 -155t-192 -58t-192 58t-72 155zM1231 211q0 -39 28.5 -63.5t73.5 -24.5q46 0 74.5 25t28.5 63t-28.5 63t-74.5 25q-45 0 -73.5 -24.5t-28.5 -63.5zM1253 498
q0 -32 21.5 -52t58.5 -20t58.5 20t21.5 52t-21.5 51.5t-58.5 19.5t-58.5 -19.5t-21.5 -51.5z" />
    <glyph glyph-name="fiveeighths" unicode="&#x215d;" horiz-adv-x="1660" 
d="M281 729q-76 0 -132 19.5t-108 60.5l82 131q76 -55 145 -55q43 0 71 22.5t28 57.5q0 37 -30 59.5t-77 22.5q-61 0 -129 -19l-53 51l26 355h379v-152h-252l-8 -108q35 6 64 6q105 0 174 -59.5t69 -164.5q0 -104 -70 -165.5t-179 -61.5zM221 20l1012 1514l149 -102
l-1011 -1512zM1077 201q0 107 92 166q-69 58 -69 145q0 85 67 139t174 54t174.5 -54t67.5 -139q0 -86 -70 -145q93 -59 93 -166q0 -97 -72.5 -155t-192.5 -58t-192 58t-72 155zM1239 211q0 -39 28.5 -63.5t73.5 -24.5q46 0 74.5 25t28.5 63t-28.5 63t-74.5 25
q-45 0 -73.5 -24.5t-28.5 -63.5zM1262 498q0 -33 21.5 -52.5t57.5 -19.5q37 0 58.5 20t21.5 52t-21.5 51.5t-58.5 19.5t-58 -19.5t-21 -51.5z" />
    <glyph glyph-name="seveneighths" unicode="&#x215e;" horiz-adv-x="1622" 
d="M152 741l155 545h-266v148h451v-107l-173 -586h-167zM182 20l1012 1514l149 -102l-1011 -1512zM1038 201q0 107 92 166q-69 58 -69 145q0 85 67.5 139t174.5 54t174 -54t67 -139q0 -87 -69 -145q92 -59 92 -166q0 -97 -72 -155t-192 -58t-192.5 58t-72.5 155zM1200 211
q0 -38 28.5 -63t74.5 -25q45 0 73.5 24.5t28.5 63.5t-28.5 63.5t-73.5 24.5q-46 0 -74.5 -25t-28.5 -63zM1223 498q0 -32 21.5 -52t58.5 -20q36 0 57.5 19.5t21.5 52.5q0 32 -21 51.5t-58 19.5t-58.5 -19.5t-21.5 -51.5z" />
    <glyph glyph-name="arrowleft" unicode="&#x2190;" horiz-adv-x="1609" 
d="M707 1292l151 -151l-371 -371h1041v-205h-1041l371 -370l-151 -152l-625 625z" />
    <glyph glyph-name="arrowup" unicode="&#x2191;" horiz-adv-x="1413" 
d="M1331 797l-151 -152l-371 371v-1041h-205v1041l-371 -371l-151 152l625 624z" />
    <glyph glyph-name="arrowright" unicode="&#x2192;" horiz-adv-x="1609" 
d="M903 43l-151 152l370 370h-1040v205h1040l-370 371l151 151l625 -624z" />
    <glyph glyph-name="arrowdown" unicode="&#x2193;" horiz-adv-x="1413" 
d="M82 537l151 151l371 -371v1041h205v-1041l371 371l151 -151l-624 -625z" />
    <glyph glyph-name="arrowboth" unicode="&#x2194;" horiz-adv-x="2230" 
d="M1524 43l-152 152l371 370h-1256l371 -370l-151 -152l-625 625l625 624l151 -151l-371 -371h1256l-371 371l152 151l624 -624z" />
    <glyph glyph-name="arrowupdn" unicode="&#x2195;" horiz-adv-x="1413" 
d="M233 831l-151 152l625 625l624 -625l-151 -152l-371 371v-1257l371 370l151 -151l-624 -625l-625 625l151 151l371 -370v1257z" />
    <glyph glyph-name="uni2196" unicode="&#x2196;" horiz-adv-x="1312" 
d="M995 1192v-215h-522l735 -735l-145 -146l-735 735v-522h-215v883h882z" />
    <glyph glyph-name="uni2197" unicode="&#x2197;" horiz-adv-x="1312" 
d="M1200 309h-215v522l-735 -735l-146 146l736 735h-523v215h883v-883z" />
    <glyph glyph-name="uni2198" unicode="&#x2198;" horiz-adv-x="1312" 
d="M317 182v215h523l-736 736l146 145l735 -735v522h215v-883h-883z" />
    <glyph glyph-name="uni2199" unicode="&#x2199;" horiz-adv-x="1312" 
d="M113 1079h215v-522l735 735l145 -145l-735 -735h522v-215h-882v882z" />
    <glyph glyph-name="uni21A9" unicode="&#x21a9;" horiz-adv-x="2312" 
d="M707 -205l-625 625l625 624l151 -151l-375 -375h1045q235 0 378.5 140.5t143.5 369.5q0 228 -144 368t-378 140h-103v205h103q213 0 382 -90.5t263 -253.5t94 -369t-94 -369.5t-263 -254.5t-382 -91h-1036l366 -366z" />
    <glyph glyph-name="uni21AA" unicode="&#x21aa;" horiz-adv-x="2312" 
d="M784 313q-213 0 -382 91t-263 254.5t-94 369.5t94 369t263 253.5t382 90.5h103v-205h-103q-234 0 -378 -140t-144 -368q0 -229 143.5 -369.5t378.5 -140.5h1045l-375 375l152 151l624 -624l-624 -625l-152 152l367 366h-1037z" />
    <glyph glyph-name="uni21B0" unicode="&#x21b0;" horiz-adv-x="1792" 
d="M707 514l-625 625l625 624l151 -151l-371 -371h1131v-1118h-213v913h-918l371 -370z" />
    <glyph glyph-name="uni21B1" unicode="&#x21b1;" horiz-adv-x="1792" 
d="M1085 514l-151 152l371 370h-918v-913h-213v1118h1131l-371 371l151 151l625 -624z" />
    <glyph glyph-name="uni21B3" unicode="&#x21b3;" horiz-adv-x="1792" 
d="M1085 1169l625 -624l-625 -625l-151 152l371 370h-1131v1119h213v-914h918l-371 371z" />
    <glyph glyph-name="uni21B4" unicode="&#x21b4;" horiz-adv-x="1886" 
d="M555 655l152 152l370 -371v918h-913v213h1118v-1131l371 371l151 -152l-624 -624z" />
    <glyph glyph-name="carriagereturn" unicode="&#x21b5;" horiz-adv-x="1792" 
d="M707 1169l151 -151l-371 -371h918v914h213v-1119h-1131l371 -370l-151 -152l-625 625z" />
    <glyph glyph-name="uni21BA" unicode="&#x21ba;" horiz-adv-x="1826" 
d="M926 -309q-232 0 -415 101.5t-285.5 282.5t-102.5 410h201q0 -129 46 -242t125.5 -194t191.5 -127.5t239 -46.5t239 46.5t191.5 127.5t125.5 194t46 242t-46 242t-125.5 194t-191.5 128t-239 47h-64l268 -269l-139 -135l-487 486l487 485l139 -135l-247 -248h43
q232 0 415 -101.5t285.5 -283t102.5 -410.5t-102.5 -410t-285.5 -282.5t-415 -101.5z" />
    <glyph glyph-name="uni21BB" unicode="&#x21bb;" horiz-adv-x="1826" 
d="M901 -309q-232 0 -415 101.5t-285.5 282.5t-102.5 410t102.5 410.5t285.5 283t415 101.5h43l-248 248l140 135l487 -485l-487 -486l-140 135l269 269h-64q-127 0 -239 -47t-191.5 -128t-125.5 -194t-46 -242t46 -242t125.5 -194t191.5 -127.5t239 -46.5t239 46.5
t191.5 127.5t125.5 194t46 242h201q0 -229 -102.5 -410t-285.5 -282.5t-415 -101.5z" />
    <glyph glyph-name="uni21E4" unicode="&#x21e4;" horiz-adv-x="2168" 
d="M1061 41l-625 625l625 624l151 -151l-370 -371h1245v-205h-1245l370 -370zM174 20v1291h205v-1291h-205z" />
    <glyph glyph-name="uni21E5" unicode="&#x21e5;" horiz-adv-x="2168" 
d="M1108 41l-152 152l371 370h-1245v205h1245l-371 371l152 151l625 -624zM1790 20v1291h205v-1291h-205z" />
    <glyph glyph-name="uni21E7" unicode="&#x21e7;" horiz-adv-x="1822" 
d="M535 -14v635h-453l829 942l830 -942h-453v-635h-753zM545 825h207v-635h319v635h207l-367 418z" />
    <glyph glyph-name="uni21EA" unicode="&#x21ea;" horiz-adv-x="1822" 
d="M535 334v287h-453l829 942l830 -942h-453v-287h-753zM535 -246v471h753v-471h-753zM545 825h207v-317h319v317h207l-367 418zM752 -72h319v123h-319v-123z" />
    <glyph glyph-name="partialdiff" unicode="&#x2202;" horiz-adv-x="1320" 
d="M584 -25q-222 0 -358 133.5t-136 348.5q0 121 45 230.5t122 189t186 126t231 46.5q203 0 317 -111q-29 166 -144 292.5t-353 229.5l79 162q146 -53 260.5 -130.5t187 -163.5t120 -187.5t67 -199t19.5 -200.5q0 -184 -50 -331.5t-137.5 -241.5t-203.5 -143.5t-252 -49.5z
M315 461q0 -127 79 -203t210 -76q107 0 198 55.5t142 144t51 185.5q0 122 -77.5 198.5t-219.5 76.5q-160 0 -271.5 -107t-111.5 -274z" />
    <glyph glyph-name="emptyset" unicode="&#x2205;" horiz-adv-x="1583" 
d="M293 -96l-143 119l139 165q-178 191 -178 459q0 140 52.5 264.5t143 214t217 141.5t269.5 52q197 0 364 -98l139 163l140 -114l-140 -164q179 -189 179 -459q0 -140 -52.5 -264.5t-143 -214t-217 -141.5t-269.5 -52q-196 0 -361 97zM319 647q0 -182 107 -311l608 727
q-108 63 -241 63q-202 0 -338 -135.5t-136 -343.5zM553 229q109 -61 240 -61q202 0 337.5 135.5t135.5 343.5q0 175 -101 303z" />
    <glyph glyph-name="uni2206" unicode="&#x2206;" horiz-adv-x="1468" 
d="M41 0l559 1434h274l553 -1434h-1386zM356 203h756l-375 995z" />
    <glyph glyph-name="product" unicode="&#x220f;" horiz-adv-x="1460" 
d="M991 -225v1458h-522v-1458h-217v1458h-186v201h1329v-201h-187v-1458h-217z" />
    <glyph glyph-name="summation" unicode="&#x2211;" horiz-adv-x="1083" 
d="M78 -225v172l446 659l-440 656v172h915v-201h-639l418 -619l-432 -639h688v-200h-956z" />
    <glyph glyph-name="minus" unicode="&#x2212;" horiz-adv-x="1038" 
d="M102 524v197h834v-197h-834z" />
    <glyph glyph-name="uni2215" unicode="&#x2215;" horiz-adv-x="436" 
d="M-213 -80l-149 100l1011 1514l150 -102z" />
    <glyph glyph-name="uni2219" unicode="&#x2219;" horiz-adv-x="636" 
d="M317 395q-88 0 -148 57t-60 146t60 147t148 58t149.5 -58t61.5 -147t-61.5 -146t-149.5 -57z" />
    <glyph glyph-name="radical" unicode="&#x221a;" horiz-adv-x="1382" 
d="M641 0l-319 881h-271v163h422l180 -516l113 -319l100 319l410 1315h209l-588 -1843h-256z" />
    <glyph glyph-name="infinity" unicode="&#x221e;" horiz-adv-x="1720" 
d="M1284 248q-237 0 -403 209q-162 -209 -404 -209q-166 0 -272.5 104.5t-106.5 265.5t106.5 266t272.5 105q242 0 404 -209q166 209 403 209q166 0 272.5 -105t106.5 -266t-106.5 -265.5t-272.5 -104.5zM289 618q0 -85 54.5 -139.5t139.5 -54.5q75 0 150 46t127 126l14 22
l-14 23q-52 80 -127 126t-150 46q-85 0 -139.5 -55t-54.5 -140zM989 618l15 -22q51 -79 125.5 -125.5t148.5 -46.5q86 0 140.5 54.5t54.5 139.5t-54.5 140t-140.5 55q-74 0 -148.5 -46.5t-125.5 -125.5z" />
    <glyph glyph-name="integral" unicode="&#x222b;" horiz-adv-x="782" 
d="M174 -481q-118 0 -235 51l71 176q79 -27 135 -27q63 0 97 41.5t34 118.5v1295q0 161 87.5 256.5t236.5 95.5q119 0 236 -51l-72 -177q-79 27 -135 27q-63 0 -97 -41.5t-34 -118.5v-1294q0 -161 -87.5 -256.5t-236.5 -95.5z" />
    <glyph glyph-name="approxequal" unicode="&#x2248;" horiz-adv-x="1236" 
d="M106 299q13 144 94.5 221.5t217.5 77.5q56 0 106 -15.5t117 -52.5q67 -38 100.5 -50.5t67.5 -12.5q96 0 143 129l178 -78q-51 -126 -125 -184t-182 -58q-64 0 -120 17t-128 61q-90 54 -143 54q-103 0 -115 -136zM106 682q13 144 94.5 221.5t217.5 77.5q56 0 106 -15.5
t117 -52.5q67 -38 100.5 -50.5t67.5 -12.5q96 0 143 129l178 -78q-51 -126 -125 -184t-182 -58q-64 0 -120 17t-128 61q-90 54 -143 54q-103 0 -115 -136z" />
    <glyph glyph-name="notequal" unicode="&#x2260;" horiz-adv-x="1038" 
d="M432 131l-178 70l55 143h-207v188h281l70 179h-351v188h422l82 213l176 -68l-55 -145h209v-188h-281l-69 -179h350v-188h-424z" />
    <glyph glyph-name="lessequal" unicode="&#x2264;" horiz-adv-x="1028" 
d="M942 471l-868 326v127l868 303v-209l-504 -162l504 -176v-209zM72 123v188h874v-188h-874z" />
    <glyph glyph-name="greaterequal" unicode="&#x2265;" horiz-adv-x="1028" 
d="M86 471v209l506 176l-506 162v209l868 -303v-127zM82 123v188h874v-188h-874z" />
    <glyph glyph-name="uni2303" unicode="&#x2303;" horiz-adv-x="1556" 
d="M233 289l-151 151l696 697l697 -697l-152 -151l-545 545z" />
    <glyph glyph-name="uni2305" unicode="&#x2305;" horiz-adv-x="1556" 
d="M129 1122v205h1301v-205h-637l682 -682l-152 -151l-545 545l-545 -545l-151 151l682 682h-635z" />
    <glyph glyph-name="uni2318" unicode="&#x2318;" horiz-adv-x="1753" 
d="M444 -55q-149 0 -245.5 96.5t-96.5 245.5q0 143 97 238.5t245 95.5h121v196h-121q-148 0 -245 95.5t-97 238.5q0 149 96.5 245.5t245.5 96.5q143 0 238.5 -97t95.5 -245v-121h197v121q0 149 94.5 245.5t237.5 96.5q151 0 247.5 -96.5t96.5 -245.5q0 -143 -97 -238.5
t-247 -95.5h-119v-196h119q150 0 247 -95.5t97 -238.5q0 -149 -96.5 -245.5t-247.5 -96.5q-143 0 -237.5 96.5t-94.5 245.5v121h-197v-121q0 -148 -95.5 -245t-238.5 -97zM324 287q0 -53 34 -87t86 -34t86.5 34t34.5 87v121h-121q-52 0 -86 -34t-34 -87zM324 1151
q0 -53 34 -87t86 -34h121v121q0 53 -34.5 87t-86.5 34t-86 -34t-34 -87zM778 621h197v196h-197v-196zM1188 287q0 -52 34 -86.5t85 -34.5q53 0 88 34.5t35 86.5t-35 86.5t-88 34.5h-119v-121zM1188 1030h119q53 0 88 34.5t35 86.5t-35 86.5t-88 34.5q-51 0 -85 -34.5
t-34 -86.5v-121z" />
    <glyph glyph-name="uni2325" unicode="&#x2325;" horiz-adv-x="1773" 
d="M1130 0l-618 1241h-430v193h561l619 -1241h430v-193h-562zM1145 1241v193h547v-193h-547z" />
    <glyph glyph-name="uni2326" unicode="&#x2326;" horiz-adv-x="2291" 
d="M1513 0h-1339v1434h1339l697 -717zM367 184h1046l518 533l-518 532h-1046v-1065zM651 483l236 236l-232 231l129 125l230 -229l229 229l129 -125l-231 -231l235 -236l-129 -125l-233 234l-234 -234z" />
    <glyph glyph-name="uni2327" unicode="&#x2327;" horiz-adv-x="1830" 
d="M174 0v1434h1483v-1434h-1483zM367 184h1097v1065h-1097v-1065zM537 477l235 236l-231 231l129 125l229 -229l229 229l129 -125l-231 -231l236 -236l-129 -125l-234 234l-233 -234z" />
    <glyph glyph-name="uni232B" unicode="&#x232b;" horiz-adv-x="2291" 
d="M778 0l-696 717l696 717h1340v-1434h-1340zM360 717l519 -533h1046v1065h-1046zM915 483l236 236l-231 231l129 125l229 -229l229 229l129 -125l-231 -231l235 -236l-129 -125l-233 234l-234 -234z" />
    <glyph glyph-name="uni2387" unicode="&#x2387;" horiz-adv-x="1773" 
d="M82 0v193h430l618 1241h562v-193h-430l-619 -1241h-561zM1145 0v193h547v-193h-547z" />
    <glyph glyph-name="uni238B" unicode="&#x238b;" horiz-adv-x="1859" 
d="M942 -307q-227 0 -412 103t-290 285t-105 406h193q0 -171 80.5 -311t221 -219.5t312.5 -79.5q168 0 304 79.5t213 219t77 311.5q0 171 -82.5 308.5t-228.5 214.5t-326 77v193q178 0 334 -60.5t267.5 -165.5t176 -252.5t64.5 -314.5q0 -224 -104 -406t-287 -285t-408 -103
zM135 637v643h647v-195h-307l535 -534l-138 -137l-542 542v-319h-195z" />
    <glyph glyph-name="uni23CE" unicode="&#x23ce;" horiz-adv-x="2283" 
d="M707 -80l-625 625l625 624l151 -151l-366 -367h1404v615h-481v204h694v-1024h-1626l375 -374z" />
    <glyph glyph-name="uni23CF" unicode="&#x23cf;" horiz-adv-x="1822" 
d="M82 600l829 942l830 -942h-1659zM145 -190v573h1532v-573h-1532zM362 -16h1098v225h-1098v-225zM545 805h733l-367 418z" />
    <glyph glyph-name="uni2423" unicode="&#x2423;" horiz-adv-x="839" 
d="M33 -193v320h168v-168h438v168h168v-320h-774z" />
    <glyph glyph-name="uni2460" unicode="&#x2460;" horiz-adv-x="1900" 
d="M913 369v493q-74 -39 -180 -39v131q66 0 112.5 25t84.5 82h143v-692h-160zM119 707q0 170 60.5 320.5t167.5 260.5t263.5 174t339.5 64q244 0 435 -109.5t294 -295.5t103 -414q0 -170 -60.5 -320.5t-167.5 -261t-263.5 -174.5t-340.5 -64t-340.5 64t-263.5 174.5
t-167 261t-60 320.5zM309 707q0 -177 78.5 -323t226 -233.5t336.5 -87.5t336.5 87.5t226 233.5t78.5 323t-78.5 323t-226 233t-336.5 87t-336.5 -87t-226 -233t-78.5 -323z" />
    <glyph glyph-name="uni2461" unicode="&#x2461;" horiz-adv-x="1900" 
d="M950 -113q-184 0 -340.5 64t-263.5 174.5t-167 261t-60 320.5t60.5 320.5t167.5 260.5t263.5 174t339.5 64q244 0 435 -109.5t294 -295.5t103 -414q0 -170 -60.5 -320.5t-167.5 -261t-263.5 -174.5t-340.5 -64zM309 707q0 -177 78.5 -323t226 -233.5t336.5 -87.5
t336.5 87.5t226 233.5t78.5 323t-78.5 323t-226 233t-336.5 87t-336.5 -87t-226 -233t-78.5 -323zM688 963q63 61 118.5 85.5t129.5 24.5q104 0 167.5 -57t63.5 -152q0 -58 -20 -97.5t-100 -143.5l-80 -103h229v-151h-481v106l207 250q49 59 63 83.5t14 49.5q0 31 -20 48.5
t-57 17.5q-79 0 -140 -70z" />
    <glyph glyph-name="uni2462" unicode="&#x2462;" horiz-adv-x="1900" 
d="M946 356q-76 0 -133 18.5t-111 61.5l82 131q72 -55 146 -55q46 0 74 23.5t28 62.5q0 55 -44 76.5t-118 1.5l-41 69l115 166h-203v150h418v-86l-137 -178q77 -15 125.5 -72.5t48.5 -136.5q0 -102 -70 -167t-180 -65zM119 707q0 170 60.5 320.5t167.5 260.5t263.5 174
t339.5 64q244 0 435 -109.5t294 -295.5t103 -414q0 -170 -60.5 -320.5t-167.5 -261t-263.5 -174.5t-340.5 -64t-340.5 64t-263.5 174.5t-167 261t-60 320.5zM309 707q0 -177 78.5 -323t226 -233.5t336.5 -87.5t336.5 87.5t226 233.5t78.5 323t-78.5 323t-226 233t-336.5 87
t-336.5 -87t-226 -233t-78.5 -323z" />
    <glyph glyph-name="uni2463" unicode="&#x2463;" horiz-adv-x="1900" 
d="M946 369v129h-334v131l342 432h148v-418h80v-145h-80v-129h-156zM119 707q0 170 60.5 320.5t167.5 260.5t263.5 174t339.5 64q244 0 435 -109.5t294 -295.5t103 -414q0 -170 -60.5 -320.5t-167.5 -261t-263.5 -174.5t-340.5 -64t-340.5 64t-263.5 174.5t-167 261
t-60 320.5zM309 707q0 -177 78.5 -323t226 -233.5t336.5 -87.5t336.5 87.5t226 233.5t78.5 323t-78.5 323t-226 233t-336.5 87t-336.5 -87t-226 -233t-78.5 -323zM805 641h143v182z" />
    <glyph glyph-name="uni2464" unicode="&#x2464;" horiz-adv-x="1900" 
d="M930 356q-76 0 -132 19.5t-108 60.5l82 131q76 -55 146 -55q43 0 70.5 22.5t27.5 57.5q0 37 -30 59.5t-77 22.5q-61 0 -129 -19l-53 52l27 354h379v-152h-252l-9 -108q35 6 64 6q106 0 175 -59t69 -164q0 -104 -70.5 -166t-179.5 -62zM119 709q0 170 60.5 320.5
t167.5 260.5t263.5 174t339.5 64q244 0 435 -109.5t294 -295.5t103 -414q0 -170 -60.5 -320.5t-167.5 -261t-263.5 -174.5t-340.5 -64t-340.5 64t-263.5 174.5t-167 261t-60 320.5zM309 709q0 -177 78.5 -323t226 -233t336.5 -87t336.5 87t226 233t78.5 323t-78.5 323
t-226 233t-336.5 87t-336.5 -87t-226 -233t-78.5 -323z" />
    <glyph glyph-name="uni2465" unicode="&#x2465;" horiz-adv-x="1900" 
d="M952 356q-123 0 -197.5 88t-74.5 256q0 180 76.5 276.5t212.5 96.5q103 0 198 -61l-73 -111q-50 31 -111 31q-124 0 -145 -141q51 45 129 45q105 0 169 -68.5t64 -171.5q0 -106 -69 -173t-179 -67zM119 707q0 170 60.5 320.5t167.5 260.5t263.5 174t339.5 64
q244 0 435 -109.5t294 -295.5t103 -414q0 -170 -60.5 -320.5t-167.5 -261t-263.5 -174.5t-340.5 -64t-340.5 64t-263.5 174.5t-167 261t-60 320.5zM309 707q0 -177 78.5 -323t226 -233.5t336.5 -87.5t336.5 87.5t226 233.5t78.5 323t-78.5 323t-226 233t-336.5 87
t-336.5 -87t-226 -233t-78.5 -323zM852 596q0 -47 26.5 -74.5t69.5 -27.5q40 0 68 28t28 74q0 44 -28 72t-68 28q-43 0 -69.5 -27.5t-26.5 -72.5z" />
    <glyph glyph-name="uni2466" unicode="&#x2466;" horiz-adv-x="1900" 
d="M829 369l156 544h-266v148h450v-107l-172 -585h-168zM119 707q0 170 60.5 320.5t167.5 260.5t263.5 174t339.5 64q244 0 435 -109.5t294 -295.5t103 -414q0 -170 -60.5 -320.5t-167.5 -261t-263.5 -174.5t-340.5 -64t-340.5 64t-263.5 174.5t-167 261t-60 320.5zM309 707
q0 -177 78.5 -323t226 -233.5t336.5 -87.5t336.5 87.5t226 233.5t78.5 323t-78.5 323t-226 233t-336.5 87t-336.5 -87t-226 -233t-78.5 -323z" />
    <glyph glyph-name="uni2467" unicode="&#x2467;" horiz-adv-x="1900" 
d="M950 354q-120 0 -192 58t-72 155q0 107 92 166q-69 58 -69 146q0 85 67 138.5t174 53.5t174.5 -53.5t67.5 -138.5q0 -87 -70 -146q92 -59 92 -166q0 -97 -72 -155t-192 -58zM119 707q0 170 60.5 320.5t167.5 260.5t263.5 174t339.5 64q244 0 435 -109.5t294 -295.5
t103 -414q0 -170 -60.5 -320.5t-167.5 -261t-263.5 -174.5t-340.5 -64t-340.5 64t-263.5 174.5t-167 261t-60 320.5zM309 707q0 -177 78.5 -323t226 -233.5t336.5 -87.5t336.5 87.5t226 233.5t78.5 323t-78.5 323t-226 233t-336.5 87t-336.5 -87t-226 -233t-78.5 -323z
M848 578q0 -39 28.5 -64t73.5 -25t74 25t29 64q0 38 -28.5 63t-74.5 25q-45 0 -73.5 -24.5t-28.5 -63.5zM870 864q0 -32 21.5 -51.5t58.5 -19.5t58.5 19.5t21.5 51.5t-21.5 52t-58.5 20t-58.5 -20t-21.5 -52z" />
    <glyph glyph-name="uni2468" unicode="&#x2468;" horiz-adv-x="1900" 
d="M938 1071q123 0 197.5 -88t74.5 -256q0 -181 -76.5 -277t-211.5 -96q-103 0 -199 62l74 110q48 -30 110 -30q125 0 146 141q-51 -45 -129 -45q-105 0 -169.5 68t-64.5 171q0 106 69 173t179 67zM119 707q0 170 60.5 320.5t167.5 260.5t263.5 174t339.5 64
q244 0 435 -109.5t294 -295.5t103 -414q0 -170 -60.5 -320.5t-167.5 -261t-263.5 -174.5t-340.5 -64t-340.5 64t-263.5 174.5t-167 261t-60 320.5zM309 707q0 -177 78.5 -323t226 -233.5t336.5 -87.5t336.5 87.5t226 233.5t78.5 323t-78.5 323t-226 233t-336.5 87
t-336.5 -87t-226 -233t-78.5 -323zM846 831q0 -44 28 -72t68 -28q43 0 69.5 27.5t26.5 72.5q0 47 -26.5 75t-69.5 28q-40 0 -68 -28.5t-28 -74.5z" />
    <glyph glyph-name="uni2469" unicode="&#x2469;" horiz-adv-x="1900" 
d="M645 367v493q-74 -39 -180 -39v131q66 0 112.5 25t84.5 82h143v-692h-160zM119 707q0 170 60.5 320.5t167.5 260.5t263.5 174t339.5 64q244 0 435 -109.5t294 -295.5t103 -414q0 -170 -60.5 -320.5t-167.5 -261t-263.5 -174.5t-340.5 -64t-340.5 64t-263.5 174.5
t-167 261t-60 320.5zM309 707q0 -177 78.5 -323t226 -233.5t336.5 -87.5t336.5 87.5t226 233.5t78.5 323t-78.5 323t-226 233t-336.5 87t-336.5 -87t-226 -233t-78.5 -323zM868 713q0 164 81 261t218 97t218 -97t81 -261t-81 -261.5t-218 -97.5t-218 97.5t-81 261.5z
M1034 713q0 -101 34 -154t99 -53t99 53t34 154t-34 154t-99 53t-99 -53t-34 -154z" />
    <glyph glyph-name="uni24EA" unicode="&#x24ea;" horiz-adv-x="1900" 
d="M950 348q-137 0 -218 97.5t-81 261.5t81 261t218 97t218 -97t81 -261t-81 -261.5t-218 -97.5zM119 707q0 170 60.5 320.5t167.5 260.5t263.5 174t339.5 64q244 0 435 -109.5t294 -295.5t103 -414q0 -170 -60.5 -320.5t-167.5 -261t-263.5 -174.5t-340.5 -64t-340.5 64
t-263.5 174.5t-167 261t-60 320.5zM309 707q0 -177 78.5 -323t226 -233.5t336.5 -87.5t336.5 87.5t226 233.5t78.5 323t-78.5 323t-226 233t-336.5 87t-336.5 -87t-226 -233t-78.5 -323zM817 707q0 -101 34 -154t99 -53t99 53t34 154t-34 153.5t-99 52.5t-99 -52.5
t-34 -153.5z" />
    <glyph glyph-name="uni24FF" unicode="&#x24ff;" horiz-adv-x="1880" 
d="M940 -113q-181 0 -336 64t-260.5 174.5t-165 261t-59.5 320.5q0 228 101.5 414t290 295.5t429.5 109.5q240 0 429 -110t290.5 -296t101.5 -413q0 -169 -59.5 -319.5t-165.5 -261t-260.5 -175t-335.5 -64.5zM641 707q0 -164 81 -261.5t218 -97.5t218 97.5t81 261.5
t-81 261t-218 97t-218 -97t-81 -261zM807 707q0 101 34 153.5t99 52.5t99 -52.5t34 -153.5t-34 -154t-99 -53t-99 53t-34 154z" />
    <glyph glyph-name="filledbox" unicode="&#x25a0;" horiz-adv-x="1665" 
d="M174 53v1317h1317v-1317h-1317z" />
    <glyph glyph-name="uni25A1" unicode="&#x25a1;" horiz-adv-x="1665" 
d="M174 53v1317h1317v-1317h-1317zM367 238h931v948h-931v-948z" />
    <glyph glyph-name="triagup" unicode="&#x25b2;" horiz-adv-x="1773" 
d="M41 20l846 1524l846 -1524h-1692z" />
    <glyph glyph-name="uni25B3" unicode="&#x25b3;" horiz-adv-x="1773" 
d="M41 20l846 1524l846 -1524h-1692zM389 225h995l-497 895z" />
    <glyph glyph-name="uni25B6" unicode="&#x25b6;" horiz-adv-x="1779" 
d="M174 1614l1524 -846l-1524 -846v1692z" />
    <glyph glyph-name="uni25BB" unicode="&#x25bb;" horiz-adv-x="1779" 
d="M174 1614l1524 -846l-1524 -846v1692zM379 270l895 498l-895 498v-996z" />
    <glyph glyph-name="triagdn" unicode="&#x25bc;" horiz-adv-x="1773" 
d="M1733 1464l-846 -1523l-846 1523h1692z" />
    <glyph glyph-name="uni25BD" unicode="&#x25bd;" horiz-adv-x="1773" 
d="M1733 1464l-846 -1523l-846 1523h1692zM389 1260l498 -895l497 895h-995z" />
    <glyph glyph-name="triaglf" unicode="&#x25c4;" horiz-adv-x="1779" 
d="M1606 1614v-1692l-1524 846z" />
    <glyph glyph-name="uni25C5" unicode="&#x25c5;" horiz-adv-x="1779" 
d="M1606 -78l-1524 846l1524 846v-1692zM506 768l895 -498v996z" />
    <glyph glyph-name="uni25C6" unicode="&#x25c6;" horiz-adv-x="1933" 
d="M967 -190l-885 884l885 883l884 -883z" />
    <glyph glyph-name="uni25C7" unicode="&#x25c7;" horiz-adv-x="1933" 
d="M967 -190l-885 882l885 883l884 -883zM346 692l621 -620l620 620l-620 621z" />
    <glyph glyph-name="lozenge" unicode="&#x25ca;" horiz-adv-x="1191" 
d="M487 0l-401 657l401 658h218l401 -658l-401 -657h-218zM324 657l272 -448l272 448l-272 449z" />
    <glyph glyph-name="circle" unicode="&#x25cb;" horiz-adv-x="1740" 
d="M870 -25q-215 0 -388 99.5t-268 269t-95 375.5q0 204 95.5 373t268 267.5t387.5 98.5q161 0 301.5 -58t239 -157t155 -235t56.5 -289q0 -154 -56 -291t-154.5 -236.5t-239 -158t-302.5 -58.5zM324 719q0 -150 70 -276t196 -200.5t280 -74.5t280 74.5t196.5 200.5
t70.5 276q0 148 -70.5 273.5t-196.5 199.5t-280 74t-280 -74t-196 -199.5t-70 -273.5z" />
    <glyph glyph-name="uni25CF" unicode="&#x25cf;" horiz-adv-x="1740" 
d="M870 -25q-215 0 -388 99.5t-268 268.5t-95 374q0 154 56.5 290.5t154.5 235.5t238.5 157t301.5 58t301.5 -58t239 -157t155 -236t56.5 -290t-56 -289.5t-154.5 -236t-239 -158t-302.5 -58.5z" />
    <glyph glyph-name="uni261C" unicode="&#x261c;" horiz-adv-x="2238" 
d="M2064 113h-495v84q-87 -84 -236 -84h-633q-77 0 -120 44t-43 113q0 40 18 70q-40 20 -64 57t-24 76q0 44 27 78q-84 40 -84 135q0 24 10 47h-166q-70 0 -117 46t-47 112q0 65 47 111.5t117 46.5h399q-37 37 -37 112v96h717q149 0 236 -100v100h495v-1144zM207 891
q0 -20 13.5 -34.5t33.5 -14.5h627q65 0 111 -46t46 -110q0 -68 -45 -104q45 -39 45 -103q0 -68 -47 -106q47 -38 47 -97q0 -29 -16 -55h311q102 0 169 64.5t67 169.5v458q0 97 -68.5 166.5t-167.5 69.5h-600v-4q0 -42 25.5 -69t75.5 -27h319q0 -122 36.5 -181.5t135.5 -83.5
l-29 -102q-106 24 -166 87t-73 171h-803q-20 0 -33.5 -14.5t-13.5 -34.5zM526 686q0 -22 14.5 -36.5t34.5 -14.5h306q20 0 34.5 14.5t14.5 36.5q0 20 -14.5 33.5t-34.5 13.5h-306q-20 0 -34.5 -13.5t-14.5 -33.5zM584 479q0 -23 13 -37t34 -14h250q21 0 35 14t14 37
q0 19 -14.5 33t-34.5 14h-250q-20 0 -33.5 -14t-13.5 -33zM653 270q0 -20 14.5 -34.5t32.5 -14.5h181q20 0 34.5 14.5t14.5 34.5t-14.5 34.5t-34.5 14.5h-181q-18 0 -32.5 -14.5t-14.5 -34.5zM1686 221h262v928h-262v-928z" />
    <glyph glyph-name="uni261D" unicode="&#x261d;" horiz-adv-x="1492" 
d="M1319 -133h-1145v495h100q-100 87 -100 236v717h96q76 0 113 -37v399q0 70 46.5 117t111.5 47q66 0 111.5 -47t45.5 -117v-166q26 11 47 11q96 0 136 -84q33 26 77 26q39 0 76.5 -24t57.5 -64q32 19 69 19q69 0 113.5 -43.5t44.5 -120.5v-633q0 -149 -84 -236h84v-495z
M283 -16h927v262h-927v-262zM283 598q0 -99 69 -167.5t166 -68.5h459q105 0 169 67t64 169v311q-26 -16 -55 -16q-58 0 -96 47q-38 -47 -107 -47q-63 0 -102 45q-36 -45 -105 -45q-64 0 -109.5 46.5t-45.5 111.5v626q0 20 -14.5 33.5t-34.5 13.5t-34.5 -13.5t-14.5 -33.5
v-803q108 -13 171 -73t87 -166l-103 -29q-24 100 -83.5 136t-180.5 36v320q0 50 -27 75t-69 25h-4v-600zM698 1051q0 -21 13.5 -35.5t33.5 -14.5q22 0 37 15t15 35v305q0 20 -15 34.5t-37 14.5q-20 0 -33.5 -14.5t-13.5 -34.5v-305zM905 1051q0 -20 14 -35t33 -15
q23 0 37.5 14.5t14.5 35.5v249q0 21 -14.5 34.5t-37.5 13.5q-19 0 -33 -14t-14 -34v-249zM1112 1051q0 -20 14.5 -35t34.5 -15t34.5 15t14.5 35v180q0 18 -14.5 32.5t-34.5 14.5t-34.5 -14.5t-14.5 -32.5v-180z" />
    <glyph glyph-name="uni261E" unicode="&#x261e;" horiz-adv-x="2238" 
d="M174 113v1144h496v-100q87 100 235 100h717v-96q0 -75 -37 -112h400q70 0 116.5 -46.5t46.5 -111.5q0 -67 -46.5 -112.5t-116.5 -45.5h-166q10 -23 10 -47q0 -95 -84 -135q27 -34 27 -78q0 -39 -24 -76t-65 -57q19 -32 19 -70q0 -68 -43.5 -112.5t-120.5 -44.5h-633
q-148 0 -235 84v-84h-496zM291 221h262v928h-262v-928zM670 455q0 -105 66.5 -169.5t168.5 -64.5h312q-17 27 -17 55q0 59 47 97q-47 38 -47 106q0 64 45 103q-45 36 -45 104q0 64 46.5 110t111.5 46h627q20 0 33.5 14.5t13.5 34.5t-13.5 34.5t-33.5 14.5h-803
q-26 -210 -240 -258l-29 102q99 24 135.5 83.5t36.5 181.5h320q50 0 75 27t25 69v4h-600q-99 0 -167 -69t-68 -167v-458zM1309 270q0 -20 14.5 -34.5t34.5 -14.5h180q18 0 32.5 14.5t14.5 34.5t-14.5 34.5t-32.5 14.5h-180q-20 0 -34.5 -14.5t-14.5 -34.5zM1309 479
q0 -23 14 -37t35 -14h250q21 0 34 14t13 37q0 19 -13.5 33t-33.5 14h-250q-20 0 -34.5 -14t-14.5 -33zM1309 686q0 -22 14.5 -36.5t34.5 -14.5h305q20 0 34.5 14.5t14.5 36.5q0 20 -14.5 33.5t-34.5 13.5h-305q-20 0 -34.5 -13.5t-14.5 -33.5z" />
    <glyph glyph-name="uni261F" unicode="&#x261f;" horiz-adv-x="1492" 
d="M1319 1382v-495h-84q84 -87 84 -236v-633q0 -77 -44.5 -120t-113.5 -43q-39 0 -69 18q-20 -40 -57.5 -64t-76.5 -24q-43 0 -77 27q-40 -84 -136 -84q-24 0 -47 10v-166q0 -70 -45.5 -117t-111.5 -47q-65 0 -111.5 47t-46.5 117v399q-37 -37 -113 -37h-96v717
q0 149 100 236h-100v495h1145zM283 51h4q42 0 69 25.5t27 75.5v319q121 0 180.5 36t83.5 136l103 -29q-24 -106 -87 -166t-171 -73v-803q0 -20 14.5 -33.5t34.5 -13.5t34.5 13.5t14.5 33.5v627q0 65 45.5 111t109.5 46q69 0 105 -45q39 45 102 45q69 0 107 -47q38 47 96 47
q29 0 55 -16v311q0 102 -64 169t-169 67h-459q-97 0 -166 -68.5t-69 -167.5v-600zM283 1004h927v262h-927v-262zM698 -106q0 -21 13.5 -35.5t33.5 -14.5q22 0 37 15t15 35v305q0 20 -15 34.5t-37 14.5q-20 0 -33.5 -14.5t-13.5 -34.5v-305zM905 -51q0 -20 14 -33.5t33 -13.5
q23 0 37.5 13.5t14.5 33.5v250q0 21 -14.5 35t-37.5 14q-19 0 -33 -14.5t-14 -34.5v-250zM1112 18q0 -18 14.5 -32.5t34.5 -14.5t34.5 14.5t14.5 32.5v181q0 20 -14.5 34.5t-34.5 14.5t-34.5 -14.5t-14.5 -34.5v-181z" />
    <glyph glyph-name="uni2661" unicode="&#x2661;" horiz-adv-x="1802" 
d="M901 -41q-185 176 -308.5 298t-216.5 225t-144 170.5t-81.5 134t-39.5 116t-9 115.5q0 177 128.5 290t328.5 113q193 0 342 -143q149 143 342 143q200 0 328.5 -113t128.5 -290q0 -67 -9 -117t-40 -116.5t-82 -134t-144 -170.5t-216 -224.5t-308 -296.5zM319 1001
q0 -59 20 -113.5t80.5 -139t176.5 -204.5t305 -296q189 176 305 296t176.5 204.5t80.5 139t20 113.5q0 98 -64 157t-170 59q-198 0 -348 -207q-150 207 -348 207q-106 0 -170 -59t-64 -157z" />
    <glyph glyph-name="heart" unicode="&#x2665;" horiz-adv-x="1802" 
d="M901 -43q-321 299 -492.5 488.5t-239 318t-67.5 250.5q0 186 122 296.5t321 110.5q207 0 356 -143q149 143 356 143q199 0 321 -110.5t122 -296.5q0 -122 -67.5 -250.5t-239 -318t-492.5 -488.5z" />
    <glyph glyph-name="uni26A0" unicode="&#x26a0;" horiz-adv-x="1888" 
d="M41 12l903 1555l903 -1555h-1806zM799 225q0 -60 42 -98.5t103 -38.5t103.5 38.5t42.5 98.5q0 62 -42.5 101t-103.5 39t-103 -39t-42 -101zM829 1100l9 -332l16 -326h180l17 326l8 332h-230z" />
    <glyph glyph-name="uni2713" unicode="&#x2713;" horiz-adv-x="1824" 
d="M657 41l-575 573l135 138l438 -437l990 1071l139 -133z" />
    <glyph glyph-name="uni2717" unicode="&#x2717;" horiz-adv-x="1427" 
d="M1270 27l-555 555l-557 -555l-133 139l553 551l-553 551l133 139l557 -555l555 555l133 -139l-553 -551l553 -551z" />
    <glyph glyph-name="uni2776" unicode="&#x2776;" horiz-adv-x="1880" 
d="M940 -113q-181 0 -336 64t-260.5 174.5t-165 261t-59.5 320.5q0 228 101.5 414t290 295.5t429.5 109.5q240 0 429 -110t290.5 -296t101.5 -413q0 -169 -59.5 -319.5t-165.5 -261t-260.5 -175t-335.5 -64.5zM705 823q106 0 180 39v-493h159v692h-143q-38 -57 -84 -82
t-112 -25v-131z" />
    <glyph glyph-name="uni2777" unicode="&#x2777;" horiz-adv-x="1880" 
d="M940 -113q-234 0 -422 105.5t-293.5 293t-105.5 421.5q0 233 105.5 420.5t293.5 293t422 105.5q233 0 421 -105.5t294 -293t106 -420.5q0 -175 -62 -327.5t-170.5 -260.5t-261 -170t-327.5 -62zM688 963l94 -109q61 70 140 70q37 0 57 -17.5t20 -48.5q0 -26 -14 -50.5
t-63 -82.5l-207 -250v-106h481v151h-229l80 103q75 98 97.5 147t22.5 104q0 88 -63.5 143.5t-167.5 55.5q-74 0 -129.5 -24.5t-118.5 -85.5z" />
    <glyph glyph-name="uni2778" unicode="&#x2778;" horiz-adv-x="1880" 
d="M940 -113q-234 0 -422 105.5t-293.5 293t-105.5 421.5q0 233 105.5 420.5t293.5 293t422 105.5q233 0 421 -105.5t294 -293t106 -420.5q0 -175 -62 -327.5t-170.5 -260.5t-261 -170t-327.5 -62zM702 436q54 -43 111 -61.5t133 -18.5q110 0 180 65t70 167q0 78 -48 136
t-126 73l137 178v86h-418v-150h203l-115 -166l41 -69q73 20 117.5 -1t44.5 -77q0 -40 -27.5 -63t-74.5 -23q-74 0 -146 55z" />
    <glyph glyph-name="uni2779" unicode="&#x2779;" horiz-adv-x="1880" 
d="M940 -113q-181 0 -336 64t-260.5 174.5t-165 261t-59.5 320.5q0 228 101.5 414t290 295.5t429.5 109.5q240 0 429 -110t290.5 -296t101.5 -413q0 -169 -59.5 -319.5t-165.5 -261t-260.5 -175t-335.5 -64.5zM612 498h334v-129h156v129h80v145h-80v418h-148l-342 -432v-131
zM805 641l143 182v-182h-143z" />
    <glyph glyph-name="uni277A" unicode="&#x277a;" horiz-adv-x="1880" 
d="M940 -111q-181 0 -336 64t-260.5 174.5t-165 261t-59.5 320.5q0 228 101.5 414t290 295.5t429.5 109.5q240 0 429 -110t290.5 -296t101.5 -413q0 -169 -59.5 -319.5t-165.5 -261t-260.5 -175t-335.5 -64.5zM690 436q52 -41 108 -60.5t132 -19.5q109 0 179.5 62t70.5 166
q0 105 -69 164t-175 59q-30 0 -64 -6l9 108h252v152h-379l-27 -354l53 -52q68 19 129 19q47 0 77 -22.5t30 -59.5q0 -35 -27.5 -57.5t-70.5 -22.5q-70 0 -146 55z" />
    <glyph glyph-name="uni277B" unicode="&#x277b;" horiz-adv-x="1880" 
d="M940 -113q-181 0 -336 64t-260.5 174.5t-165 261t-59.5 320.5q0 228 101.5 414t290 295.5t429.5 109.5q240 0 429 -110t290.5 -296t101.5 -413q0 -169 -59.5 -319.5t-165.5 -261t-260.5 -175t-335.5 -64.5zM680 700q0 -168 74.5 -256t197.5 -88q110 0 179 67t69 173
q0 103 -64 171.5t-169 68.5q-78 0 -129 -45q21 141 145 141q61 0 111 -31l73 111q-95 61 -198 61q-136 0 -212.5 -96.5t-76.5 -276.5zM852 596q0 45 26.5 72.5t69.5 27.5q40 0 68 -28t28 -72q0 -46 -28 -74t-68 -28q-43 0 -69.5 27.5t-26.5 74.5z" />
    <glyph glyph-name="uni277C" unicode="&#x277c;" horiz-adv-x="1880" 
d="M940 -113q-181 0 -336 64t-260.5 174.5t-165 261t-59.5 320.5q0 228 101.5 414t290 295.5t429.5 109.5q240 0 429 -110t290.5 -296t101.5 -413q0 -169 -59.5 -319.5t-165.5 -261t-260.5 -175t-335.5 -64.5zM719 913h266l-156 -544h168l172 585v107h-450v-148z" />
    <glyph glyph-name="uni277D" unicode="&#x277d;" horiz-adv-x="1880" 
d="M940 -113q-181 0 -336 64t-260.5 174.5t-165 261t-59.5 320.5q0 228 101.5 414t290 295.5t429.5 109.5q240 0 429 -110t290.5 -296t101.5 -413q0 -169 -59.5 -319.5t-165.5 -261t-260.5 -175t-335.5 -64.5zM676 567q0 -97 72 -155t192 -58t192 58t72 155q0 107 -92 166
q70 59 70 146q0 85 -67.5 138.5t-174.5 53.5t-174.5 -53.5t-67.5 -138.5q0 -87 70 -146q-92 -59 -92 -166zM838 578q0 39 28.5 63.5t73.5 24.5t73.5 -24.5t28.5 -63.5t-28.5 -64t-73.5 -25t-73.5 25t-28.5 64zM860 864q0 32 21.5 52t58.5 20t58.5 -20t21.5 -52t-21.5 -51.5
t-58.5 -19.5t-58.5 19.5t-21.5 51.5z" />
    <glyph glyph-name="uni277E" unicode="&#x277e;" horiz-adv-x="1880" 
d="M940 -113q-181 0 -336 64t-260.5 174.5t-165 261t-59.5 320.5q0 228 101.5 414t290 295.5t429.5 109.5q240 0 429 -110t290.5 -296t101.5 -413q0 -169 -59.5 -319.5t-165.5 -261t-260.5 -175t-335.5 -64.5zM684 831q0 -103 64.5 -171t169.5 -68q78 0 129 45
q-21 -141 -146 -141q-62 0 -110 30l-74 -110q96 -62 198 -62q136 0 212.5 96.5t76.5 276.5q0 168 -74.5 256t-197.5 88q-110 0 -179 -67t-69 -173zM840 831q0 46 28 74.5t68 28.5q43 0 69.5 -28t26.5 -75q0 -45 -26.5 -72.5t-69.5 -27.5q-40 0 -68 28t-28 72z" />
    <glyph glyph-name="uni277F" unicode="&#x277f;" horiz-adv-x="1880" 
d="M940 -113q-181 0 -336 64t-260.5 174.5t-165 261t-59.5 320.5q0 228 101.5 414t290 295.5t429.5 109.5q240 0 429 -110t290.5 -296t101.5 -413q0 -169 -59.5 -319.5t-165.5 -261t-260.5 -175t-335.5 -64.5zM436 823q106 0 180 39v-493h160v692h-143q-38 -57 -84.5 -82
t-112.5 -25v-131zM868 713q0 -167 82 -263t217 -96q134 0 215.5 97t81.5 262q0 168 -81.5 263t-215.5 95q-136 0 -217.5 -95t-81.5 -263zM1034 713q0 95 32 151t101 56q67 0 99 -55.5t32 -151.5q0 -95 -32 -151t-99 -56q-69 0 -101 56t-32 151z" />
    <glyph glyph-name="uni27F5" unicode="&#x27f5;" horiz-adv-x="2428" 
d="M707 41l-625 625l625 624l151 -151l-371 -371h1860v-205h-1860l371 -370z" />
    <glyph glyph-name="uni27F6" unicode="&#x27f6;" horiz-adv-x="2428" 
d="M1722 41l-151 152l371 370h-1860v205h1860l-371 371l151 151l625 -624z" />
    <glyph glyph-name="uni2B06" unicode="&#x2b06;" horiz-adv-x="1822" 
d="M535 -14v635h-453l829 942l830 -942h-453v-635h-753z" />
    <glyph glyph-name="uniF8FF" unicode="&#xf8ff;" horiz-adv-x="2961" 
d="M303 279q-56 0 -85.5 29.5t-29.5 84.5v277h-96v75h96v132h80v-132h320v97q0 112 114 112h125v-75h-157v-134h225l121 -337l131 337h76l133 -342l121 342h88l-168 -466h-80l-131 346l-131 -346h-82l-137 391h-166v-391h-82v391h-320v-316h160v-75h-125zM1616 512
q0 106 65.5 176t167.5 70q106 0 172 -76v240h80v-643h-65l-11 65q-68 -78 -176 -78q-102 0 -167.5 69t-65.5 177zM1696 512q0 -76 46 -123t118 -47t117.5 47t45.5 123t-45 122t-118 46t-118.5 -46t-45.5 -122zM2302 315v420l262 -180v180l305 -209l-305 -211v183z" />
    <glyph glyph-name="u1F4E7" unicode="&#x1f4e7;" horiz-adv-x="2240" 
d="M174 0v1434h1892v-1434h-1892zM367 184h1507v969l-754 -719l-753 719v-969zM526 1249l594 -565l594 565h-1188z" />
    <glyph glyph-name="uni004A0301" horiz-adv-x="950" 
d="M338 -25q-83 0 -158 19.5t-168 62.5l90 193q117 -57 236 -57q116 0 170.5 78.5t54.5 246.5v916h230v-938q0 -254 -117.5 -387.5t-337.5 -133.5zM573 1581l132 258h266l-201 -258h-197z" />
    <glyph glyph-name="Adieresis.ss01" horiz-adv-x="1468" 
d="M41 0l559 1434h274l553 -1434h-237l-115 303h-680l-116 -303h-238zM233 1475q0 60 39.5 99.5t100.5 39.5t100 -39.5t39 -99.5t-39 -100t-100 -40t-100.5 40t-39.5 100zM473 510h526l-262 688zM963 1475q0 60 39 99.5t100 39.5t100 -39.5t39 -99.5t-39 -100t-100 -40
t-100 40t-39 100z" />
    <glyph glyph-name="Aring.ss01" horiz-adv-x="1468" 
d="M41 0l528 1354q-88 69 -88 184q0 102 74 172t182 70t182 -70t74 -172q0 -113 -88 -184l522 -1354h-237l-115 303h-680l-116 -303h-238zM473 510h526l-262 688zM639 1538q0 -43 27.5 -70.5t70.5 -27.5t71 27.5t28 70.5t-28 70.5t-71 27.5t-70.5 -27.5t-27.5 -70.5z" />
    <glyph glyph-name="Ccedilla.ss01" horiz-adv-x="1492" 
d="M680 -311l55 291q-286 28 -461.5 232t-175.5 505q0 211 88.5 379.5t251 265t369.5 96.5q182 0 333.5 -79t266.5 -226l-164 -143q-78 108 -193 167.5t-243 59.5q-140 0 -248.5 -67.5t-167.5 -185.5t-59 -267q0 -229 132 -374.5t351 -145.5q141 0 262 62t203 175l164 -139
q-206 -278 -533 -313l-10 -293h-221z" />
    <glyph glyph-name="G.ss01" horiz-adv-x="1622" 
d="M831 -25q-160 0 -296.5 54.5t-232.5 151.5t-150 235.5t-54 300.5q0 212 94.5 381.5t263 264.5t378.5 95q338 0 567 -229l-141 -160q-77 78 -191 123t-235 45q-220 0 -361 -146.5t-141 -373.5q0 -234 135.5 -377t357.5 -143q191 0 319 108t142 277h-536v215h774
q11 -388 -171.5 -605t-521.5 -217z" />
    <glyph glyph-name="Gbreve.ss01" horiz-adv-x="1622" 
d="M831 -25q-160 0 -296.5 54.5t-232.5 151.5t-150 235.5t-54 300.5q0 212 94.5 381.5t263 264.5t378.5 95q338 0 567 -229l-141 -160q-77 78 -191 123t-235 45q-220 0 -361 -146.5t-141 -373.5q0 -234 135.5 -377t357.5 -143q191 0 319 108t142 277h-536v215h774
q11 -388 -171.5 -605t-521.5 -217zM524 1819l176 32q17 -122 134 -122q116 0 133 122l176 -32q-19 -126 -94.5 -187t-214.5 -61t-215 61t-95 187z" />
    <glyph glyph-name="Gcircumflex.ss01" horiz-adv-x="1622" 
d="M831 -25q-160 0 -296.5 54.5t-232.5 151.5t-150 235.5t-54 300.5q0 212 94.5 381.5t263 264.5t378.5 95q338 0 567 -229l-141 -160q-77 78 -191 123t-235 45q-220 0 -361 -146.5t-141 -373.5q0 -234 135.5 -377t357.5 -143q191 0 319 108t142 277h-536v215h774
q11 -388 -171.5 -605t-521.5 -217zM494 1581l254 258h172l254 -258h-228l-110 121l-113 -121h-229z" />
    <glyph glyph-name="uni0122.ss01" horiz-adv-x="1622" 
d="M831 -25q-160 0 -296.5 54.5t-232.5 151.5t-150 235.5t-54 300.5q0 212 94.5 381.5t263 264.5t378.5 95q338 0 567 -229l-141 -160q-77 78 -191 123t-235 45q-220 0 -361 -146.5t-141 -373.5q0 -234 135.5 -377t357.5 -143q191 0 319 108t142 277h-536v215h774
q11 -388 -171.5 -605t-521.5 -217zM725 -231q0 57 33.5 93t87.5 36q66 0 103.5 -44.5t37.5 -119.5q0 -146 -153 -287l-72 68q35 38 53.5 68.5t28.5 68.5q-52 4 -85.5 37.5t-33.5 79.5z" />
    <glyph glyph-name="Gdotaccent.ss01" horiz-adv-x="1622" 
d="M831 -25q-160 0 -296.5 54.5t-232.5 151.5t-150 235.5t-54 300.5q0 212 94.5 381.5t263 264.5t378.5 95q338 0 567 -229l-141 -160q-77 78 -191 123t-235 45q-220 0 -361 -146.5t-141 -373.5q0 -234 135.5 -377t357.5 -143q191 0 319 108t142 277h-536v215h774
q11 -388 -171.5 -605t-521.5 -217zM676 1716q0 70 44.5 115t113.5 45t113 -45t44 -115t-44 -115t-113 -45t-113.5 45t-44.5 115z" />
    <glyph glyph-name="K.ss01" horiz-adv-x="1345" 
d="M1040 0l-546 668v114l524 652h280l-575 -707l600 -727h-283zM174 0v1434h229v-1434h-229z" />
    <glyph glyph-name="uni0136.ss01" horiz-adv-x="1345" 
d="M1040 0l-546 668v114l524 652h280l-575 -707l600 -727h-283zM174 0v1434h229v-1434h-229zM559 -231q0 57 33.5 93t87.5 36q66 0 103.5 -44.5t37.5 -119.5q0 -146 -153 -287l-72 68q35 38 53.5 68.5t28.5 68.5q-52 4 -85.5 37.5t-33.5 79.5z" />
    </font>
</defs>
</svg>
