<?xml version="1.0" standalone="no"?>
<!DOCTYPE svg PUBLIC "-//W3C//DTD SVG 1.1//EN" "http://www.w3.org/Graphics/SVG/1.1/DTD/svg11.dtd" >
<svg xmlns="http://www.w3.org/2000/svg" xmlns:xlink="http://www.w3.org/1999/xlink" version="1.1">
<metadata>
Created by FontForge 20170731 at Fri Jul 29 23:56:09 2022
 By Aleksey,,,
Copyright (c) 2022 by Type Forward. All rights reserved.
</metadata>
<defs>
<font id="Gogh-Bold" horiz-adv-x="0" >
  <font-face 
    font-family="Gogh"
    font-weight="700"
    font-stretch="normal"
    units-per-em="2048"
    panose-1="0 0 0 0 0 0 0 0 0 0"
    ascent="1638"
    descent="-410"
    x-height="1051"
    cap-height="1434"
    bbox="-377 -713 2869 2019"
    underline-thickness="102"
    underline-position="-460"
    unicode-range="U+000D-1F4E7"
  />
<missing-glyph horiz-adv-x="1570" 
d="M158 -82v1598h1257v-1598h-1257zM334 82h905v1270h-905v-1270zM444 1012q128 194 342 194q143 0 231.5 -72.5t88.5 -197.5q0 -82 -41 -141.5t-117 -124.5q-56 -46 -74 -80t-18 -92v-37h-160v55q0 85 32 137.5t114 118.5q98 79 98 152q0 55 -43 93t-121 38
q-70 0 -121.5 -35.5t-97.5 -101.5zM674 276q0 43 30 71t72 28t72.5 -28t30.5 -71t-30 -70.5t-73 -27.5q-42 0 -72 27.5t-30 70.5z" />
    <glyph glyph-name="fi" unicode="fi" horiz-adv-x="1423" 
d="M258 1110q0 210 118 323t339 113q121 0 243 -35.5t222 -97.5l-105 -205q-167 97 -313 97q-106 0 -161.5 -54t-55.5 -155v-45h735v-1051h-287v815h-448v-815h-287v815h-199v236h199v59z" />
    <glyph glyph-name="fl" unicode="fl" horiz-adv-x="1429" 
d="M258 1112q0 229 130.5 348t383.5 119q273 0 516 -104v-1475h-287v1309q-91 26 -210 26q-135 0 -190.5 -53t-55.5 -182v-49h282v-236h-282v-815h-287v815h-199v236h199v61z" />
    <glyph glyph-name="f_f.liga" unicode="ff" horiz-adv-x="1622" 
d="M1001 1180q0 169 95 264.5t264 95.5q146 0 262 -61l-82 -207q-50 28 -125 28q-127 0 -127 -147v-102h307v-236h-307v-815h-287v815h-456v-815h-287v815h-199v236h199v129q0 169 93.5 264.5t260.5 95.5q145 0 258 -61l-79 -207q-50 28 -123 28q-123 0 -123 -147v-102h456
v129z" />
    <glyph glyph-name="f_f_i.liga" unicode="ffi" horiz-adv-x="2162" 
d="M1001 1110q0 210 117 323t338 113q121 0 243 -35.5t222 -97.5l-102 -205q-167 97 -314 97q-107 0 -162 -53.5t-55 -155.5v-45h735v-1051h-286v815h-449v-815h-287v815h-456v-815h-287v815h-199v236h199v129q0 169 93.5 264.5t260.5 95.5q145 0 258 -61l-79 -207
q-50 28 -123 28q-123 0 -123 -147v-102h456v59z" />
    <glyph glyph-name="f_f_j.liga" unicode="ffj" horiz-adv-x="2162" 
d="M1001 1110q0 207 116 321.5t339 114.5q121 0 243 -35.5t222 -97.5l-102 -205q-168 97 -314 97q-107 0 -162 -53.5t-55 -155.5v-45h735v-1182q0 -175 -93 -266.5t-271 -91.5q-114 0 -209 32l55 236q70 -17 111 -17q65 0 93 34.5t28 113.5v905h-449v-815h-287v815h-456
v-815h-287v815h-199v236h199v129q0 169 93.5 264.5t260.5 95.5q139 0 258 -61l-79 -207q-52 28 -123 28q-123 0 -123 -147v-102h456v59z" />
    <glyph glyph-name="f_f_l.liga" unicode="ffl" horiz-adv-x="2174" 
d="M1001 1112q0 231 133.5 349t383.5 118q131 0 266.5 -27.5t247.5 -76.5v-1475h-287v1311q-95 24 -211 24q-135 0 -190.5 -53t-55.5 -182v-49h285v-236h-285v-815h-287v815h-456v-815h-287v815h-199v236h199v127q0 169 93.5 264.5t260.5 95.5q145 0 258 -61l-79 -207
q-55 30 -123 30q-123 0 -123 -147v-102h456v61z" />
    <glyph glyph-name="uni00660066013C.liga" unicode="ff&#x13c;" horiz-adv-x="2174" 
d="M1001 1112q0 231 133.5 349t383.5 118q131 0 266.5 -27.5t247.5 -76.5v-1475h-287v1311q-95 24 -211 24q-135 0 -190.5 -53t-55.5 -182v-49h285v-236h-285v-815h-287v815h-456v-815h-287v815h-199v236h199v127q0 169 93.5 264.5t260.5 95.5q145 0 258 -61l-79 -207
q-55 30 -123 30q-123 0 -123 -147v-102h456v61zM1743 -242q0 62 37.5 103t101.5 41q74 0 116 -49t42 -127q0 -163 -170 -308l-84 74q68 74 86 137q-58 4 -93.5 40.5t-35.5 88.5z" />
    <glyph glyph-name="f_f_t.liga" unicode="fft" horiz-adv-x="2379" 
d="M1001 1180q0 169 95 264.5t262 95.5q146 0 262 -61l-82 -207q-50 28 -125 28q-125 0 -125 -147v-102h443l4 249h280v-249h275v-236h-275v-424q0 -145 127 -145q58 0 131 30l72 -239q-117 -53 -250 -53q-177 0 -271.5 100.5t-94.5 284.5v446h-441v-815h-287v815h-456v-815
h-287v815h-199v236h199v129q0 169 94.5 264.5t261.5 95.5q147 0 263 -61l-80 -207q-52 28 -127 28q-125 0 -125 -147v-102h456v129z" />
    <glyph glyph-name="f_f_tcaron.liga" unicode="ff&#x165;" horiz-adv-x="2379" 
d="M1001 1180q0 169 95 264.5t262 95.5q146 0 262 -61l-82 -207q-50 28 -125 28q-125 0 -125 -147v-102h443l4 249h280v-249h275v-236h-275v-424q0 -145 127 -145q58 0 131 30l72 -239q-117 -53 -250 -53q-177 0 -271.5 100.5t-94.5 284.5v446h-441v-815h-287v815h-456v-815
h-287v815h-199v236h199v129q0 169 94.5 264.5t261.5 95.5q147 0 263 -61l-80 -207q-52 28 -127 28q-125 0 -125 -147v-102h456v129zM2171 1153l55 363h246l-113 -363h-188z" />
    <glyph glyph-name="uni006600660163.liga" unicode="ff&#x163;" horiz-adv-x="2379" 
d="M1001 1180q0 169 95 264.5t262 95.5q146 0 262 -61l-82 -207q-50 28 -125 28q-125 0 -125 -147v-102h443l4 249h280v-249h275v-236h-275v-424q0 -145 127 -145q58 0 131 30l72 -239q-81 -39 -191 -49l-12 -68q91 -3 148 -57.5t57 -141.5q0 -100 -76 -159.5t-200 -59.5
q-131 0 -244 76l82 139q65 -45 141 -45q94 0 94 62q0 76 -155 51l-43 43l39 168q-124 28 -190 124t-66 249v446h-441v-815h-287v815h-456v-815h-287v815h-199v236h199v129q0 169 94.5 264.5t261.5 95.5q147 0 263 -61l-80 -207q-52 28 -127 28q-125 0 -125 -147v-102h456
v129z" />
    <glyph glyph-name="uni00660066021B.liga" unicode="ff&#x21b;" horiz-adv-x="2379" 
d="M1001 1180q0 169 95 264.5t262 95.5q146 0 262 -61l-82 -207q-50 28 -125 28q-125 0 -125 -147v-102h443l4 249h280v-249h275v-236h-275v-424q0 -145 127 -145q58 0 131 30l72 -239q-117 -53 -250 -53q-177 0 -271.5 100.5t-94.5 284.5v446h-441v-815h-287v815h-456v-815
h-287v815h-199v236h199v129q0 169 94.5 264.5t261.5 95.5q147 0 263 -61l-80 -207q-52 28 -127 28q-125 0 -125 -147v-102h456v129zM1921 -242q0 62 38 103t101 41q74 0 117 -49t43 -127q0 -160 -170 -308l-84 74q66 75 84 137q-57 3 -93 40t-36 89z" />
    <glyph glyph-name="f_j.liga" unicode="fj" horiz-adv-x="1421" 
d="M258 1110q0 210 117 323t338 113q122 0 244.5 -35.5t220.5 -97.5l-103 -205q-167 97 -313 97q-106 0 -161.5 -54t-55.5 -155v-45h735v-1182q0 -174 -91 -266t-271 -92q-116 0 -211 32l55 236q66 -17 110 -17q67 0 94 35t27 113v905h-448v-815h-287v815h-199v236h199v59z
" />
    <glyph glyph-name="uni0066013C.liga" unicode="f&#x13c;" horiz-adv-x="1429" 
d="M258 1112q0 229 130.5 348t383.5 119q273 0 516 -104v-1475h-287v1309q-91 26 -210 26q-135 0 -190.5 -53t-55.5 -182v-49h282v-236h-282v-815h-287v815h-199v236h199v61zM997 -242q0 62 38 103t102 41q74 0 116.5 -49t42.5 -127q0 -160 -170 -308l-84 74q66 75 84 137
q-57 3 -93 40t-36 89z" />
    <glyph glyph-name="f_t.liga" unicode="ft" horiz-adv-x="1636" 
d="M258 1180q0 169 94.5 264.5t261.5 95.5q147 0 263 -61l-80 -207q-52 28 -127 28q-125 0 -125 -147v-102h442l4 249h281v-249h274v-236h-274v-424q0 -145 127 -145q60 0 131 30l72 -239q-115 -53 -250 -53q-178 0 -272.5 100.5t-94.5 284.5v446h-440v-815h-287v815h-199
v236h199v129z" />
    <glyph glyph-name="f_tcaron.liga" unicode="f&#x165;" horiz-adv-x="1636" 
d="M258 1180q0 169 94.5 264.5t261.5 95.5q147 0 263 -61l-80 -207q-52 28 -127 28q-125 0 -125 -147v-102h442l4 249h281v-249h274v-236h-274v-424q0 -145 127 -145q60 0 131 30l72 -239q-115 -53 -250 -53q-178 0 -272.5 100.5t-94.5 284.5v446h-440v-815h-287v815h-199
v236h199v129zM1427 1153l56 363h246l-113 -363h-189z" />
    <glyph glyph-name="uni00660163.liga" unicode="f&#x163;" horiz-adv-x="1636" 
d="M258 1180q0 169 94.5 264.5t261.5 95.5q147 0 263 -61l-80 -207q-52 28 -127 28q-125 0 -125 -147v-102h442l4 249h281v-249h274v-236h-274v-424q0 -145 127 -145q60 0 131 30l72 -239q-78 -38 -191 -49l-12 -68q92 -3 148.5 -57t56.5 -142q0 -101 -76 -160t-201 -59
q-131 0 -244 76l82 139q65 -45 142 -45q94 0 94 62q0 76 -156 51l-43 43l39 168q-124 28 -190 124t-66 249v446h-440v-815h-287v815h-199v236h199v129z" />
    <glyph glyph-name="uni0066021B.liga" unicode="f&#x21b;" horiz-adv-x="1636" 
d="M258 1180q0 169 94.5 264.5t261.5 95.5q147 0 263 -61l-80 -207q-52 28 -127 28q-125 0 -125 -147v-102h442l4 249h281v-249h274v-236h-274v-424q0 -145 127 -145q60 0 131 30l72 -239q-115 -53 -250 -53q-178 0 -272.5 100.5t-94.5 284.5v446h-440v-815h-287v815h-199
v236h199v129zM1180 -242q0 62 37.5 103t101.5 41q74 0 116 -49t42 -127q0 -163 -170 -308l-84 74q69 75 84 137q-56 3 -91.5 40t-35.5 89z" />
    <glyph glyph-name=".notdef" horiz-adv-x="1570" 
d="M158 -82v1598h1257v-1598h-1257zM334 82h905v1270h-905v-1270zM444 1012q128 194 342 194q143 0 231.5 -72.5t88.5 -197.5q0 -82 -41 -141.5t-117 -124.5q-56 -46 -74 -80t-18 -92v-37h-160v55q0 85 32 137.5t114 118.5q98 79 98 152q0 55 -43 93t-121 38
q-70 0 -121.5 -35.5t-97.5 -101.5zM674 276q0 43 30 71t72 28t72.5 -28t30.5 -71t-30 -70.5t-73 -27.5q-42 0 -72 27.5t-30 70.5z" />
    <glyph glyph-name=".null" horiz-adv-x="1228" 
 />
    <glyph glyph-name="nonmarkingreturn" horiz-adv-x="682" 
 />
    <glyph glyph-name="CR" unicode="&#xd;" horiz-adv-x="477" 
 />
    <glyph glyph-name="space" unicode=" " horiz-adv-x="477" 
 />
    <glyph glyph-name="exclam" unicode="!" horiz-adv-x="581" 
d="M174 387l-22 539l-9 508h293l-6 -508l-22 -539h-234zM119 143q0 72 49.5 118t122.5 46t122.5 -46t49.5 -118t-49.5 -117.5t-122.5 -45.5t-122.5 45.5t-49.5 117.5z" />
    <glyph glyph-name="quotedbl" unicode="&#x22;" horiz-adv-x="751" 
d="M446 1059l-10 491h230l-11 -491h-209zM86 1550h229l-10 -491h-209z" />
    <glyph glyph-name="numbersign" unicode="#" horiz-adv-x="1476" 
d="M686 0l84 311h-278l-84 -311h-265l84 311h-204v228h266l106 389h-198v227h260l75 279h265l-76 -279h278l76 279h264l-75 -279h190v-227h-252l-106 -389h184v-228h-246l-84 -311h-264zM547 532h291l108 402h-291z" />
    <glyph glyph-name="dollar" unicode="$" horiz-adv-x="1263" 
d="M539 -199v187q-272 28 -471 182l135 225q169 -119 342 -139v360q-220 66 -323 170t-103 263t113 267t307 130v180h227v-184q219 -38 389 -170l-137 -219q-111 90 -258 121v-334q227 -74 332.5 -179t105.5 -258q0 -161 -117.5 -272t-314.5 -141v-189h-227zM418 1055
q0 -42 29 -75.5t98 -64.5v263q-60 -14 -93.5 -46t-33.5 -77zM760 262q133 36 133 133q0 45 -31.5 80.5t-101.5 67.5v-281z" />
    <glyph glyph-name="percent" unicode="%" horiz-adv-x="1638" 
d="M395 -37l-151 109l993 1398l152 -108zM45 1116q0 146 95.5 239t246.5 93q152 0 247 -92.5t95 -239.5t-95 -239.5t-247 -92.5q-151 0 -246.5 93t-95.5 239zM240 1116q0 -65 41.5 -107t105.5 -42q66 0 107 42t41 107t-41.5 107.5t-106.5 42.5q-64 0 -105.5 -42.5
t-41.5 -107.5zM903 317q0 146 96.5 239t247.5 93t245.5 -93t94.5 -239t-94.5 -238.5t-245.5 -92.5t-247.5 92.5t-96.5 238.5zM1100 317q0 -65 41 -107t106 -42q64 0 105 42t41 107t-41 107.5t-105 42.5q-65 0 -106 -42.5t-41 -107.5z" />
    <glyph glyph-name="ampersand" unicode="&#x26;" horiz-adv-x="1431" 
d="M340 774q-78 78 -115 150.5t-37 162.5q0 165 123.5 266t323.5 101q193 0 314.5 -95.5t121.5 -248.5q0 -232 -293 -410l240 -233q67 100 115 264l233 -67q-55 -213 -166 -373l150 -146l-187 -188l-145 145q-172 -125 -414 -125q-234 0 -374 105.5t-140 282.5
q0 117 72.5 216.5t202.5 168.5zM365 393q0 -82 68 -127t185 -45q129 0 222 58l-314 311q-84 -43 -122.5 -89.5t-38.5 -107.5zM463 1090q0 -79 100 -179l53 -53q94 60 138.5 114t44.5 109q0 63 -47.5 102.5t-122.5 39.5q-77 0 -121.5 -36t-44.5 -97z" />
    <glyph glyph-name="quotesingle" unicode="'" horiz-adv-x="411" 
d="M96 1059l-10 491h242l-11 -491h-221z" />
    <glyph glyph-name="parenleft" unicode="(" horiz-adv-x="710" 
d="M504 -369q-430 410 -430 973t430 973l176 -160q-160 -187 -242 -384t-82 -429t82 -428t242 -385z" />
    <glyph glyph-name="parenright" unicode=")" horiz-adv-x="710" 
d="M31 -209q160 189 241.5 385t81.5 428q0 233 -82 429.5t-241 383.5l176 160q430 -410 430 -973t-430 -973z" />
    <glyph glyph-name="asterisk" unicode="*" horiz-adv-x="774" 
d="M295 874l12 185l-153 -105l-93 162l168 80l-168 78l93 162l153 -105l-12 185h184l-14 -185l153 105l93 -162l-168 -78l168 -80l-93 -162l-153 105l14 -185h-184z" />
    <glyph glyph-name="plus" unicode="+" horiz-adv-x="1077" 
d="M412 172v328h-318v245h318v328h254v-328h317v-245h-317v-328h-254z" />
    <glyph glyph-name="comma" unicode="," horiz-adv-x="544" 
d="M131 -266q59 63 87.5 119.5t35.5 126.5q-69 5 -114.5 51.5t-45.5 113.5q0 72 47.5 119t120.5 47q86 0 135 -63t49 -172q0 -118 -58.5 -231.5t-162.5 -198.5z" />
    <glyph glyph-name="hyphen" unicode="-" horiz-adv-x="925" 
d="M844 434h-764v240h764v-240z" />
    <glyph glyph-name="period" unicode="." horiz-adv-x="532" 
d="M266 -20q-73 0 -122.5 45.5t-49.5 117.5q0 74 49.5 120t122.5 46t122.5 -46t49.5 -120q0 -72 -49.5 -117.5t-122.5 -45.5z" />
    <glyph glyph-name="slash" unicode="/" horiz-adv-x="985" 
d="M51 -96l641 1612h242l-641 -1612h-242z" />
    <glyph glyph-name="zero" unicode="0" horiz-adv-x="1404" 
d="M702 -25q-284 0 -446 198t-162 544t162 543.5t446 197.5t447.5 -197.5t163.5 -543.5q0 -344 -163.5 -543t-447.5 -199zM391 717q0 -218 84 -345.5t227 -127.5q145 0 228.5 126.5t83.5 346.5t-83.5 346.5t-228.5 126.5q-143 0 -227 -127.5t-84 -345.5z" />
    <glyph glyph-name="one" unicode="1" horiz-adv-x="860" 
d="M414 0v1053q-149 -60 -353 -60v238q139 0 233 49t171 154h240v-1434h-291z" />
    <glyph glyph-name="two" unicode="2" horiz-adv-x="1220" 
d="M86 0v223l516 473q193 178 193 316q0 77 -56.5 126.5t-148.5 49.5q-167 0 -303 -191l-199 179q104 147 228 214.5t286 67.5q217 0 351 -118.5t134 -311.5q0 -147 -70.5 -270t-232.5 -262l-268 -234l254 4h356v-266h-1040z" />
    <glyph glyph-name="three" unicode="3" horiz-adv-x="1173" 
d="M555 -25q-152 0 -283 59t-221 167l166 196q65 -76 149.5 -115.5t176.5 -39.5q112 0 180 58.5t68 154.5q0 64 -32 109t-86 65.5t-125 26t-149 -10.5l-75 156l342 379l-541 -2v256h893v-213l-328 -357q172 -20 281.5 -138.5t109.5 -291.5q0 -205 -145 -332t-381 -127z" />
    <glyph glyph-name="four" unicode="4" horiz-adv-x="1314" 
d="M801 0v258h-748v244l760 932h268v-918h170v-258h-170v-258h-280zM385 510h426v217l4 309l-211 -260z" />
    <glyph glyph-name="five" unicode="5" horiz-adv-x="1175" 
d="M565 -25q-156 0 -290 59t-224 167l166 196q137 -159 326 -159q119 0 186.5 61t67.5 166q0 104 -76.5 165.5t-204.5 61.5q-126 0 -256 -49l-127 86l53 705h830v-258h-584l-22 -277q89 27 190 27q213 0 350 -130.5t137 -338.5q0 -219 -142.5 -350.5t-379.5 -131.5z" />
    <glyph glyph-name="six" unicode="6" horiz-adv-x="1267" 
d="M653 -25q-261 0 -410 188t-149 521q0 362 162 566t451 204q239 0 419 -141l-125 -213q-57 45 -131 71.5t-151 26.5q-152 0 -245.5 -101t-102.5 -278q65 71 154.5 108.5t187.5 37.5q203 0 340 -141.5t137 -350.5q0 -221 -149.5 -359.5t-387.5 -138.5zM403 473
q0 -112 69 -180t183 -68q113 0 183.5 69t70.5 179q0 112 -70.5 181t-183.5 69q-114 0 -183 -68.5t-69 -181.5z" />
    <glyph glyph-name="seven" unicode="7" horiz-adv-x="1064" 
d="M186 0l512 1163h-649v271h983v-220l-530 -1214h-316z" />
    <glyph glyph-name="eight" unicode="8" horiz-adv-x="1273" 
d="M637 -25q-252 0 -404.5 117t-152.5 309q0 112 56.5 201t162.5 146q-174 116 -174 313q0 177 141 287t371 110t371 -110t141 -287q0 -198 -176 -313q108 -57 164.5 -146t56.5 -201q0 -192 -152.5 -309t-404.5 -117zM373 420q0 -93 73 -150t191 -57t191 57t73 150
t-73.5 151t-190.5 58t-190.5 -58t-73.5 -151zM410 1038q0 -82 63 -132t164 -50t164 50t63 132q0 83 -63 134t-164 51t-164 -51t-63 -134z" />
    <glyph glyph-name="nine" unicode="9" horiz-adv-x="1263" 
d="M557 -25q-229 0 -422 129l115 226q130 -92 297 -92q154 0 243 95.5t101 266.5q-65 -67 -153 -102t-185 -35q-204 0 -339.5 140t-135.5 351q0 223 147.5 362.5t382.5 139.5q267 0 415 -185t148 -523q0 -366 -162.5 -569.5t-451.5 -203.5zM358 954q0 -113 70.5 -182.5
t183.5 -69.5q114 0 185 69t71 183t-71 183t-185 69q-113 0 -183.5 -70t-70.5 -182z" />
    <glyph glyph-name="colon" unicode=":" horiz-adv-x="573" 
d="M287 -20q-73 0 -122.5 45.5t-49.5 117.5q0 74 49.5 120t122.5 46t122.5 -46t49.5 -120q0 -72 -49.5 -117.5t-122.5 -45.5zM115 737q0 74 49.5 120t122.5 46t122.5 -46t49.5 -120q0 -72 -49.5 -118t-122.5 -46t-122.5 46t-49.5 118z" />
    <glyph glyph-name="semicolon" unicode=";" horiz-adv-x="581" 
d="M154 -266q59 63 87 119.5t35 126.5q-69 5 -114 51.5t-45 113.5q0 72 47.5 119t120.5 47q86 0 135 -63t49 -172q0 -118 -58.5 -231.5t-162.5 -198.5zM117 737q0 74 49.5 120t122.5 46t122.5 -46t49.5 -120q0 -72 -49.5 -118t-122.5 -46t-122.5 46t-49.5 118z" />
    <glyph glyph-name="less" unicode="&#x3c;" horiz-adv-x="1071" 
d="M991 1122v-276l-364 -162l-170 -70l170 -71l364 -164v-275l-921 426v166z" />
    <glyph glyph-name="equal" unicode="=" horiz-adv-x="1048" 
d="M94 705v235h860v-235h-860zM94 303v236h860v-236h-860z" />
    <glyph glyph-name="greater" unicode="&#x3e;" horiz-adv-x="1071" 
d="M80 104v277l364 162l170 71l-170 70l-364 164v274l921 -426v-166z" />
    <glyph glyph-name="question" unicode="?" horiz-adv-x="1083" 
d="M401 483q0 120 43 196t146 152q77 61 103 105.5t26 99.5q0 74 -54 120t-155 46q-177 0 -313 -172l-168 178q203 250 503 250q216 0 347 -108t131 -285q0 -117 -58 -208.5t-174 -180.5q-62 -46 -87 -91t-25 -122v-76h-265v96zM362 143q0 72 50 118t123 46t122.5 -46
t49.5 -118t-49.5 -117.5t-122.5 -45.5t-123 45.5t-50 117.5z" />
    <glyph glyph-name="at" unicode="@" horiz-adv-x="2101" 
d="M1051 -479q-209 0 -388.5 71.5t-306 197.5t-198.5 305t-72 388q0 207 72.5 386.5t200 306t307 198.5t387.5 72q212 0 392 -67.5t305 -186.5t195 -285.5t70 -359.5q0 -104 -23 -188.5t-61 -140.5t-88.5 -94t-104 -54.5t-110.5 -16.5q-104 0 -184 44t-121 124
q-123 -164 -322 -164q-178 0 -294.5 119.5t-116.5 306.5q0 186 116 306t295 120q171 0 283 -118l2 96h221v-387q0 -120 29.5 -174t89.5 -54q68 0 105.5 69.5t37.5 205.5q0 193 -87.5 343t-252 235t-380.5 85q-207 0 -371 -93t-255 -258.5t-91 -375.5t91.5 -376.5
t256.5 -259.5t373 -93q278 0 469 152l120 -199q-247 -186 -591 -186zM840 483q0 -90 57.5 -150.5t142.5 -60.5q86 0 142.5 60t56.5 151q0 89 -56.5 148t-142.5 59q-85 0 -142.5 -59t-57.5 -148z" />
    <glyph glyph-name="A" unicode="A" horiz-adv-x="1507" 
d="M33 0l557 1434h334l551 -1434h-312l-100 272h-614l-103 -272h-313zM524 506h463l-229 620z" />
    <glyph glyph-name="B" unicode="B" horiz-adv-x="1339" 
d="M158 0v1434h624q194 0 312 -106t118 -279q0 -191 -157 -306q95 -52 150 -143.5t55 -204.5q0 -174 -125 -284.5t-322 -110.5h-655zM449 240h303q101 0 158 49.5t57 136.5q0 86 -57 135t-158 49h-303v-370zM449 842h282q90 0 142.5 48t52.5 128t-52.5 128t-142.5 48h-282
v-352z" />
    <glyph glyph-name="C" unicode="C" horiz-adv-x="1484" 
d="M813 -27q-215 0 -381.5 96.5t-256 265.5t-89.5 382q0 156 52 293t145 236.5t228.5 156.5t295.5 57q354 0 604 -293l-194 -192q-73 98 -177 151.5t-221 53.5q-190 0 -308 -129.5t-118 -333.5q0 -206 119 -334.5t315 -128.5q128 0 236.5 55.5t187.5 159.5l193 -190
q-117 -151 -279.5 -228.5t-351.5 -77.5z" />
    <glyph glyph-name="D" unicode="D" horiz-adv-x="1525" 
d="M158 0v1434h547q333 0 534 -196t201 -521t-201 -521t-534 -196h-547zM459 279h219q215 0 336 115.5t121 322.5t-121 322.5t-336 115.5h-219v-876z" />
    <glyph glyph-name="E" unicode="E" horiz-adv-x="1220" 
d="M158 0v1434h946v-252h-651v-334h598v-248h-598v-344h675v-256h-970z" />
    <glyph glyph-name="F" unicode="F" horiz-adv-x="1132" 
d="M158 0v1434h915v-263h-616v-366h563v-256h-561v-549h-301z" />
    <glyph glyph-name="G" unicode="G" horiz-adv-x="1568" 
d="M846 -27q-170 0 -312 55t-240.5 153t-153 236t-54.5 300q0 212 93 381t263.5 265.5t388.5 96.5q332 0 568 -225l-170 -199q-72 71 -176 111.5t-213 40.5q-201 0 -327 -132t-126 -339q0 -210 126.5 -340.5t340.5 -130.5q200 0 346 98v213h-428v246h692v-592
q-116 -116 -279 -177t-339 -61z" />
    <glyph glyph-name="H" unicode="H" horiz-adv-x="1521" 
d="M1063 0v590h-604v-590h-301v1434h301v-564h604v564h301v-1434h-301z" />
    <glyph glyph-name="I" unicode="I" horiz-adv-x="614" 
d="M158 0v1434h301v-1434h-301z" />
    <glyph glyph-name="J" unicode="J" horiz-adv-x="989" 
d="M356 -25q-171 0 -346 88l109 240q106 -53 215 -53t160 72t51 223v889h301v-912q0 -268 -122.5 -407.5t-367.5 -139.5z" />
    <glyph glyph-name="K" unicode="K" horiz-adv-x="1361" 
d="M979 0l-397 588h-123v-588h-301v1434h301v-576h119l385 576h358l-481 -703l499 -731h-360z" />
    <glyph glyph-name="L" unicode="L" horiz-adv-x="1146" 
d="M158 0v1434h301v-1153h626v-281h-927z" />
    <glyph glyph-name="M" unicode="M" horiz-adv-x="1802" 
d="M827 436l-370 512v-948h-299v1434h266l475 -650l477 650h269v-1434h-299v950l-373 -514h-146z" />
    <glyph glyph-name="N" unicode="N" horiz-adv-x="1550" 
d="M158 0v1434h252l690 -924v924h293v-1434h-254l-690 926v-926h-291z" />
    <glyph glyph-name="O" unicode="O" horiz-adv-x="1679" 
d="M840 -27q-216 0 -388.5 96t-269 266t-96.5 382t97 382t269.5 265.5t387.5 95.5q161 0 301 -56t239.5 -154t156 -236t56.5 -297t-56.5 -297.5t-156 -236.5t-239.5 -154t-301 -56zM393 717q0 -203 125.5 -333t321.5 -130q195 0 320.5 130.5t125.5 332.5t-125.5 332.5
t-320.5 130.5q-196 0 -321.5 -130t-125.5 -333z" />
    <glyph glyph-name="P" unicode="P" horiz-adv-x="1284" 
d="M158 0v1434h551q244 0 388 -136.5t144 -367.5q0 -228 -144 -365t-388 -137h-250v-428h-301zM455 688h225q122 0 191 64t69 176q0 114 -69 177.5t-191 63.5h-225v-481z" />
    <glyph glyph-name="Q" unicode="Q" horiz-adv-x="1679" 
d="M840 -27q-216 0 -388.5 96t-269 266t-96.5 382t97 382t269.5 265.5t387.5 95.5q161 0 301 -56t239.5 -154t156 -236t56.5 -297q0 -160 -57 -298.5t-160 -238.5l195 -278l-248 -172l-201 293q-130 -50 -282 -50zM393 717q0 -203 125.5 -333t321.5 -130q195 0 320.5 130.5
t125.5 332.5t-125.5 332.5t-320.5 130.5q-196 0 -321.5 -130t-125.5 -333z" />
    <glyph glyph-name="R" unicode="R" horiz-adv-x="1376" 
d="M158 0v1434h590q233 0 378.5 -134t145.5 -342q0 -151 -75 -264.5t-208 -167.5l326 -526h-330l-289 481h-237v-481h-301zM453 723h270q119 0 183.5 60t64.5 165q0 107 -64.5 167.5t-183.5 60.5h-270v-453z" />
    <glyph glyph-name="S" unicode="S" horiz-adv-x="1265" 
d="M643 -18q-159 0 -309 50.5t-266 141.5l137 221q203 -145 436 -145q121 0 187.5 38t66.5 107q0 66 -72.5 114t-247.5 99q-234 66 -343 171.5t-109 269.5q0 180 139.5 291.5t372.5 111.5q143 0 279.5 -47t248.5 -133l-143 -219q-72 61 -176 98t-205 37q-100 0 -158.5 -36
t-58.5 -97t64 -105.5t235 -97.5q249 -74 364 -181.5t115 -269.5q0 -186 -154 -302.5t-403 -116.5z" />
    <glyph glyph-name="T" unicode="T" horiz-adv-x="1255" 
d="M477 0v1155h-428v279h1155v-279h-426v-1155h-301z" />
    <glyph glyph-name="U" unicode="U" horiz-adv-x="1486" 
d="M743 -25q-275 0 -437.5 159t-162.5 433v867h301v-844q0 -164 77 -249t222 -85t222 85t77 249v844h301v-867q0 -274 -162.5 -433t-437.5 -159z" />
    <glyph glyph-name="V" unicode="V" horiz-adv-x="1462" 
d="M569 0l-536 1434h321l230 -633l151 -447l152 447l223 633h320l-529 -1434h-332z" />
    <glyph glyph-name="W" unicode="W" horiz-adv-x="2226" 
d="M481 0l-440 1434h313l162 -555l143 -504l310 1005h291l311 -1005l143 504l162 555h309l-434 -1434h-334l-174 543l-129 413l-125 -413l-174 -543h-334z" />
    <glyph glyph-name="X" unicode="X" horiz-adv-x="1388" 
d="M23 0l489 739l-453 695h349l155 -240l137 -221l136 221l151 240h346l-450 -697l481 -737h-348l-150 236l-170 272l-170 -272l-151 -236h-352z" />
    <glyph glyph-name="Y" unicode="Y" horiz-adv-x="1400" 
d="M551 0v537l-522 897h344l182 -322l147 -270l152 270l184 322h336l-522 -895v-539h-301z" />
    <glyph glyph-name="Z" unicode="Z" horiz-adv-x="1257" 
d="M98 0v223l676 946l-651 -2v267h1028v-222l-676 -946l703 2v-268h-1080z" />
    <glyph glyph-name="bracketleft" unicode="[" horiz-adv-x="761" 
d="M158 -289v1786h530v-229h-268v-1327h268v-230h-530z" />
    <glyph glyph-name="backslash" unicode="\" horiz-adv-x="985" 
d="M934 -96h-242l-641 1612h242z" />
    <glyph glyph-name="bracketright" unicode="]" horiz-adv-x="761" 
d="M604 -289h-530v230h268v1327h-268v229h530v-1786z" />
    <glyph glyph-name="asciicircum" unicode="^" horiz-adv-x="1028" 
d="M66 897l348 584h200l349 -584h-265l-186 330l-188 -330h-258z" />
    <glyph glyph-name="underscore" unicode="_" horiz-adv-x="1384" 
d="M1305 -365h-1229v181h1229v-181z" />
    <glyph glyph-name="grave" unicode="`" horiz-adv-x="847" 
d="M643 1217h-231l-207 299h307z" />
    <glyph glyph-name="a" unicode="a" horiz-adv-x="1191" 
d="M440 -14q-165 0 -265.5 90t-100.5 237q0 163 120 258t326 95q143 0 273 -41v37q0 92 -58 134t-184 42q-143 0 -328 -78l-73 211q119 54 219 77t217 23q229 0 353 -107t124 -305v-659h-258l-4 129q-65 -67 -160.5 -105t-200.5 -38zM352 328q0 -61 42.5 -94t123.5 -33
q114 0 191 62.5t88 160.5q-140 41 -240 41t-152.5 -35.5t-52.5 -101.5z" />
    <glyph glyph-name="b" unicode="b" horiz-adv-x="1363" 
d="M782 -25q-232 0 -368 164l-2 -139h-271v1516h287v-592q138 151 354 151q220 0 362 -154t142 -395q0 -242 -142 -396.5t-362 -154.5zM424 526q0 -133 81 -216t208 -83q128 0 208 83t80 216q0 132 -80 214.5t-208 82.5t-208.5 -82.5t-80.5 -214.5z" />
    <glyph glyph-name="c" unicode="c" horiz-adv-x="1132" 
d="M631 -27q-241 0 -397 155.5t-156 397.5q0 240 155.5 395.5t399.5 155.5q134 0 248 -48.5t190 -137.5l-164 -180q-50 53 -119.5 82.5t-142.5 29.5q-124 0 -203.5 -83t-79.5 -214q0 -133 78 -216t207 -83q82 0 154 34t121 97l174 -170q-79 -105 -198.5 -160t-266.5 -55z
" />
    <glyph glyph-name="d" unicode="d" horiz-adv-x="1363" 
d="M582 -25q-220 0 -362 154.5t-142 396.5q0 241 142 395t362 154q216 0 354 -151v592h287v-1516h-271l-2 139q-136 -164 -368 -164zM362 526q0 -133 80.5 -216t208.5 -83q127 0 208 83t81 216q0 132 -80.5 214.5t-208.5 82.5t-208.5 -82.5t-80.5 -214.5z" />
    <glyph glyph-name="e" unicode="e" horiz-adv-x="1241" 
d="M653 -27q-260 0 -417.5 152.5t-157.5 398.5q0 243 154 398t397 155q179 0 312.5 -89t192.5 -242t29 -336h-805q27 -92 110.5 -147.5t201.5 -55.5q182 0 321 117l129 -183q-183 -168 -467 -168zM356 612h549q-22 106 -94.5 170t-179.5 64q-105 0 -180 -64t-95 -170z" />
    <glyph glyph-name="f" unicode="f" horiz-adv-x="878" 
d="M258 1180q0 169 94.5 264.5t263.5 95.5q147 0 263 -61l-80 -207q-52 28 -127 28q-127 0 -127 -147v-102h307v-236h-307v-815h-287v815h-199v236h199v129z" />
    <glyph glyph-name="g" unicode="g" horiz-adv-x="1306" 
d="M676 -690q-304 0 -463.5 88.5t-159.5 255.5q0 135 97 219q-72 66 -72 170q0 153 147 252q-96 120 -96 289q0 212 139.5 339.5t372.5 127.5h621v-228h-207q96 -107 96 -260q0 -197 -141.5 -319.5t-368.5 -122.5q-136 0 -240 43q-57 -31 -57 -82q0 -37 32 -57.5t108 -32
t223 -17.5q283 -10 414.5 -86t131.5 -227q0 -166 -152.5 -259t-424.5 -93zM309 -319q0 -72 84.5 -105t268.5 -33q323 0 323 105q0 49 -67.5 71t-229.5 25q-188 3 -330 35q-49 -46 -49 -98zM401 582q0 -103 67 -168.5t171 -65.5q105 0 172.5 66t67.5 168q0 103 -67 169
t-173 66q-104 0 -171 -66t-67 -169z" />
    <glyph glyph-name="h" unicode="h" horiz-adv-x="1290" 
d="M141 0v1516h287v-594q133 145 330 145q182 0 292.5 -116.5t110.5 -303.5v-647h-287v580q0 229 -204 229q-114 0 -178 -68.5t-64 -187.5v-553h-287z" />
    <glyph glyph-name="i" unicode="i" horiz-adv-x="571" 
d="M141 0v1051h287v-1051h-287zM100 1360q0 82 51 131t134 49q84 0 135 -49.5t51 -130.5q0 -82 -51.5 -132t-134.5 -50t-134 50t-51 132z" />
    <glyph glyph-name="j" unicode="j" horiz-adv-x="569" 
d="M63 -489q-115 0 -210 32l55 236q70 -17 112 -17q64 0 91.5 34.5t27.5 113.5v1141h287v-1182q0 -175 -93 -266.5t-270 -91.5zM98 1360q0 82 51 131t134 49t133.5 -49t50.5 -131t-50.5 -132t-133.5 -50t-134 50t-51 132z" />
    <glyph glyph-name="k" unicode="k" horiz-adv-x="1167" 
d="M809 0l-277 418h-104v-418h-287v1516h287v-850h111l256 385h333l-352 -508l373 -543h-340z" />
    <glyph glyph-name="l" unicode="l" horiz-adv-x="571" 
d="M141 0v1516h287v-1516h-287z" />
    <glyph glyph-name="m" unicode="m" horiz-adv-x="1986" 
d="M141 0v1051h271l2 -138q136 154 327 154q105 0 187.5 -45.5t132.5 -130.5q147 176 379 176q189 0 303.5 -115t114.5 -307v-645h-287v580q0 107 -54 168t-151 61q-100 0 -162.5 -71t-62.5 -185v-553h-283v580q0 107 -54 168t-149 61q-100 0 -163.5 -71t-63.5 -185v-553
h-287z" />
    <glyph glyph-name="n" unicode="n" horiz-adv-x="1290" 
d="M141 0v1051h271l2 -138q71 79 153.5 116.5t188.5 37.5q185 0 295 -116.5t110 -305.5v-645h-287v578q0 113 -51.5 172t-152.5 59q-113 0 -177.5 -69.5t-64.5 -188.5v-551h-287z" />
    <glyph glyph-name="o" unicode="o" horiz-adv-x="1306" 
d="M653 -27q-255 0 -415 153.5t-160 399.5q0 244 160 397.5t415 153.5t414.5 -153t159.5 -398q0 -246 -159.5 -399.5t-414.5 -153.5zM362 526q0 -133 81.5 -216t209.5 -83t209.5 83t81.5 216t-81.5 215t-209.5 82t-209.5 -82t-81.5 -215z" />
    <glyph glyph-name="p" unicode="p" horiz-adv-x="1363" 
d="M782 -25q-219 0 -354 148v-594h-287v1522h271l2 -146q67 81 161.5 125.5t206.5 44.5q220 0 362 -154t142 -395q0 -242 -142 -396.5t-362 -154.5zM424 526q0 -132 81.5 -215.5t207.5 -83.5q128 0 208 83t80 216q0 132 -80 214.5t-208 82.5q-126 0 -207.5 -83.5
t-81.5 -213.5z" />
    <glyph glyph-name="q" unicode="q" horiz-adv-x="1363" 
d="M582 -25q-220 0 -362 154.5t-142 396.5q0 241 142 395t362 154q112 0 206.5 -44.5t161.5 -125.5l2 146h271v-1522h-287v594q-135 -148 -354 -148zM362 526q0 -133 80.5 -216t208.5 -83q126 0 207.5 83.5t81.5 215.5q0 130 -81.5 213.5t-207.5 83.5q-128 0 -208.5 -82.5
t-80.5 -214.5z" />
    <glyph glyph-name="r" unicode="r" horiz-adv-x="892" 
d="M141 0v1051h271l2 -140q125 154 321 154q75 0 146 -25l-66 -272q-68 23 -131 23q-129 0 -192.5 -85t-63.5 -229v-477h-287z" />
    <glyph glyph-name="s" unicode="s" horiz-adv-x="1017" 
d="M520 -18q-252 0 -459 141l109 207q180 -111 348 -111q77 0 119.5 22.5t42.5 63.5q0 39 -43.5 66t-149.5 55q-198 47 -288 128t-90 210q0 140 104 222.5t293 82.5q239 0 432 -133l-113 -199q-57 44 -144 72.5t-165 28.5q-137 0 -137 -78q0 -39 42 -64.5t154 -52.5
q196 -45 289.5 -128t93.5 -206q0 -150 -119.5 -238.5t-318.5 -88.5z" />
    <glyph glyph-name="t" unicode="t" horiz-adv-x="876" 
d="M592 -16q-178 0 -272.5 100.5t-94.5 284.5v448h-178v234h180l4 249h281v-249h274v-234h-274v-426q0 -145 127 -145q57 0 131 30l72 -239q-117 -53 -250 -53z" />
    <glyph glyph-name="u" unicode="u" horiz-adv-x="1286" 
d="M1145 1051v-1051h-268l-3 137q-71 -79 -153.5 -116t-188.5 -37q-184 0 -294.5 117.5t-110.5 306.5v643h287v-576q0 -114 51.5 -173.5t152.5 -59.5q113 0 176.5 69.5t63.5 188.5v551h287z" />
    <glyph glyph-name="v" unicode="v" horiz-adv-x="1202" 
d="M451 0l-422 1051h309l178 -486l88 -241l86 241l178 486h306l-422 -1051h-301z" />
    <glyph glyph-name="w" unicode="w" horiz-adv-x="1806" 
d="M387 0l-348 1051h299l98 -328l113 -391l231 684h248l232 -686l114 393l96 328h297l-348 -1051h-293l-98 293l-123 364l-125 -364l-98 -293h-295z" />
    <glyph glyph-name="x" unicode="x" horiz-adv-x="1118" 
d="M776 0l-123 184l-94 150l-96 -150l-125 -184h-318l363 530l-344 521h315l123 -187l82 -133l82 133l121 187h315l-342 -521l363 -530h-322z" />
    <glyph glyph-name="y" unicode="y" horiz-adv-x="1202" 
d="M313 -481q-106 0 -202 35l59 241q52 -18 117 -18q74 0 120.5 34.5t77.5 118.5l9 19l-465 1102h313l197 -510l84 -232l73 232l172 510h306l-447 -1227q-114 -305 -414 -305z" />
    <glyph glyph-name="z" unicode="z" horiz-adv-x="1036" 
d="M88 0v195l502 622l-238 -2h-243v236h833v-187l-496 -624l205 2h312v-242h-875z" />
    <glyph glyph-name="braceleft" unicode="{" horiz-adv-x="825" 
d="M545 -303q-154 0 -238 92t-84 252v276q0 94 -40 134.5t-128 40.5v227q90 0 129 39.5t39 134.5v289q0 157 83.5 243t238.5 86h229v-229h-164q-125 0 -125 -139v-295q0 -166 -125 -244q125 -75 125 -244v-294q0 -138 125 -138h164v-231h-229z" />
    <glyph glyph-name="bar" unicode="|" horiz-adv-x="495" 
d="M127 -289v1805h240v-1805h-240z" />
    <glyph glyph-name="braceright" unicode="}" horiz-adv-x="825" 
d="M281 -303h-230v231h164q125 0 125 138v294q0 169 125 244q-125 78 -125 244v295q0 139 -125 139h-164v229h230q155 0 238 -86t83 -243v-289q0 -95 39 -134.5t129 -39.5v-227q-88 0 -128 -40.5t-40 -134.5v-276q0 -160 -84 -252t-237 -92z" />
    <glyph glyph-name="asciitilde" unicode="~" horiz-adv-x="1269" 
d="M98 473q17 180 105 280.5t229 100.5q136 0 244 -92q74 -62 139 -62q98 0 113 154l248 -37q-19 -181 -107 -281t-229 -100q-139 0 -244 92q-72 60 -137 60q-101 0 -113 -152z" />
    <glyph glyph-name="uni00A0" unicode="&#xa0;" horiz-adv-x="477" 
 />
    <glyph glyph-name="exclamdown" unicode="&#xa1;" horiz-adv-x="581" 
d="M408 713l22 -539l8 -508h-293l7 508l22 539h234zM119 956q0 72 49.5 118t122.5 46t122.5 -46t49.5 -118t-49.5 -117.5t-122.5 -45.5t-122.5 45.5t-49.5 117.5z" />
    <glyph glyph-name="cent" unicode="&#xa2;" horiz-adv-x="1132" 
d="M514 -209v193q-196 37 -316 184.5t-120 357.5q0 209 119.5 356.5t316.5 184.5v176h242v-176q196 -39 315 -176l-164 -180q-63 69 -159 98v-567q104 28 174 116l174 -170q-119 -161 -340 -204v-193h-242zM362 526q0 -96 42.5 -168t117.5 -106v545q-74 -33 -117 -104.5
t-43 -166.5z" />
    <glyph glyph-name="sterling" unicode="&#xa3;" horiz-adv-x="1185" 
d="M137 205q105 96 142.5 178t37.5 172q0 21 -2 31h-249v219h184q-20 46 -30.5 73.5t-21 73.5t-10.5 92q0 184 128 299t343 115q133 0 249 -49t192 -139l-166 -183q-96 113 -246 113q-104 0 -158.5 -48.5t-54.5 -129.5q0 -21 3 -41.5t6.5 -35.5t11.5 -36.5t13 -32.5t16 -36
t16 -35h415v-219h-362q2 -16 2 -51q0 -142 -88 -269h608v-266h-979v205z" />
    <glyph glyph-name="currency" unicode="&#xa4;" horiz-adv-x="1263" 
d="M633 82q-143 0 -260 68l-152 -152l-151 152l149 149q-74 117 -74 262q0 140 72 262l-141 142l151 151l144 -143q118 67 262 67q142 0 262 -65l147 147l152 -151l-145 -146q71 -117 71 -264q0 -149 -73 -264l141 -141l-152 -152l-143 143q-112 -65 -260 -65zM369 561
q0 -119 73.5 -193.5t190.5 -74.5t190.5 74t73.5 194t-73.5 194t-190.5 74t-190.5 -74.5t-73.5 -193.5z" />
    <glyph glyph-name="yen" unicode="&#xa5;" horiz-adv-x="1404" 
d="M227 225v195h326v100h-326v203h236l-434 711h346l225 -375l105 -182l106 182l227 375h338l-434 -711h236v-203h-324v-100h324v-195h-324v-225h-301v225h-326z" />
    <glyph glyph-name="brokenbar" unicode="&#xa6;" horiz-adv-x="487" 
d="M362 430v-719h-239v719h239zM123 801v715h239v-715h-239z" />
    <glyph glyph-name="section" unicode="&#xa7;" horiz-adv-x="1091" 
d="M553 -180q-248 0 -467 139l107 195q181 -109 350 -109q80 0 126 25.5t46 72.5q0 49 -47 79.5t-160 58.5q-416 93 -416 368q0 78 41 146t115 114q-117 89 -117 232q0 142 109.5 229.5t294.5 87.5q119 0 232 -35.5t202 -99.5l-107 -184q-70 43 -154 70.5t-155 27.5
q-77 0 -117.5 -25t-40.5 -71q0 -53 44.5 -82t158.5 -58q209 -50 308.5 -135.5t99.5 -222.5q0 -74 -40.5 -142.5t-115.5 -117.5q135 -92 135 -238q0 -147 -119 -236t-313 -89zM342 664q0 -65 61.5 -107t192.5 -72l45 -12q115 60 115 156q0 59 -55.5 99t-182.5 71l-67 18
q-109 -56 -109 -153z" />
    <glyph glyph-name="dieresis" unicode="&#xa8;" horiz-adv-x="1126" 
d="M768 1182q-66 0 -110 43t-44 110t44 110.5t110 43.5q68 0 111 -43.5t43 -110.5t-43 -110t-111 -43zM205 1335q0 68 43 111t110 43q66 0 109 -43.5t43 -110.5t-43 -110t-109 -43q-68 0 -110.5 43t-42.5 110z" />
    <glyph glyph-name="copyright" unicode="&#xa9;" horiz-adv-x="1667" 
d="M834 -31q-213 0 -384 96.5t-267.5 267.5t-96.5 384t96.5 384.5t267.5 268t384 96.5q160 0 299 -56.5t237.5 -155.5t154.5 -238t56 -299q0 -213 -95.5 -384t-266.5 -267.5t-385 -96.5zM293 717q0 -158 69 -284t193 -197.5t279 -71.5q236 0 389 156.5t153 396.5
q0 242 -153 398.5t-389 156.5t-388.5 -156.5t-152.5 -398.5zM434 717q0 178 113.5 292.5t294.5 114.5q211 0 338 -170l-138 -108q-74 102 -196 102q-99 0 -161 -65.5t-62 -167.5t61.5 -167t161.5 -65q130 0 207 105l131 -103q-129 -180 -342 -180q-182 0 -295 116t-113 296z
" />
    <glyph glyph-name="ordfeminine" unicode="&#xaa;" horiz-adv-x="727" 
d="M262 745q-105 0 -169 60.5t-64 159.5q0 102 75.5 164.5t204.5 62.5q87 0 170 -27q0 113 -147 113q-109 0 -211 -47l-45 153q138 62 276 62q158 0 241 -74.5t83 -216.5v-397h-187l-4 76q-86 -89 -223 -89zM229 969q0 -33 26 -51.5t71 -18.5q58 0 98 37t51 94
q-69 17 -127 17q-119 0 -119 -78z" />
    <glyph glyph-name="guillemotleft" unicode="&#xab;" horiz-adv-x="1458" 
d="M578 4l-478 571l478 568l180 -160l-338 -408l338 -413zM672 575l477 568l180 -160l-338 -408l338 -413l-180 -158z" />
    <glyph glyph-name="logicalnot" unicode="&#xac;" horiz-adv-x="1081" 
d="M700 289v272h-606v248h864v-520h-258z" />
    <glyph glyph-name="uni00AD" unicode="&#xad;" horiz-adv-x="925" 
d="M844 434h-764v240h764v-240z" />
    <glyph glyph-name="registered" unicode="&#xae;" horiz-adv-x="1101" 
d="M551 510q-209 0 -344 131t-135 332q0 200 135 330.5t344 130.5q212 0 345.5 -128.5t133.5 -332.5q0 -205 -133.5 -334t-345.5 -129zM236 973q0 -135 88.5 -223t226.5 -88q136 0 225.5 88.5t89.5 222.5q0 138 -87 223.5t-228 85.5q-142 0 -228.5 -84.5t-86.5 -224.5z
M387 762v418h178q75 0 121.5 -42t46.5 -108q0 -83 -74 -121l84 -147h-135l-65 127h-37v-127h-119zM504 987h51q57 0 57 45q0 19 -15.5 31t-41.5 12h-51v-88z" />
    <glyph glyph-name="macron" unicode="&#xaf;" horiz-adv-x="1007" 
d="M205 1227v186h598v-186h-598z" />
    <glyph glyph-name="degree" unicode="&#xb0;" horiz-adv-x="774" 
d="M387 866q-136 0 -226.5 87t-90.5 218t90.5 218.5t226.5 87.5t227 -87.5t91 -218.5t-91 -218t-227 -87zM238 1171q0 -65 41.5 -106t107.5 -41t109 41.5t43 105.5t-43 106t-109 42t-107.5 -41.5t-41.5 -106.5z" />
    <glyph glyph-name="plusminus" unicode="&#xb1;" horiz-adv-x="1077" 
d="M94 766v246h318v270h254v-270h317v-246h-317v-262h-254v262h-318zM94 88v240h889v-240h-889z" />
    <glyph glyph-name="uni00B2" unicode="&#xb2;" horiz-adv-x="600" 
d="M51 967v120l209 236q48 56 62 79t14 46q0 28 -19 43.5t-53 15.5q-75 0 -139 -67l-100 119q64 61 123.5 86.5t136.5 25.5q109 0 175 -58t66 -153q0 -59 -24 -104t-105 -142l-69 -84h223v-163h-500z" />
    <glyph glyph-name="uni00B3" unicode="&#xb3;" horiz-adv-x="593" 
d="M283 954q-147 0 -248 82l86 142q71 -56 145 -56q44 0 70 20.5t26 55.5q0 48 -42.5 67.5t-116.5 2.5l-41 84l119 145h-205v162h436v-107l-141 -159q80 -15 129 -72.5t49 -136.5q0 -102 -73.5 -166t-192.5 -64z" />
    <glyph glyph-name="acute" unicode="&#xb4;" horiz-adv-x="847" 
d="M205 1217l131 299h307l-207 -299h-231z" />
    <glyph glyph-name="uni00B5" unicode="&#xb5;" horiz-adv-x="1300" 
d="M141 -471v1522h287v-566q0 -116 57.5 -179.5t161.5 -63.5t165.5 65.5t61.5 177.5v566h287v-1051h-266l-2 113q-92 -111 -250 -111q-132 0 -223 78v-551h-279z" />
    <glyph glyph-name="paragraph" unicode="&#xb6;" horiz-adv-x="1413" 
d="M518 563q-126 0 -231 53t-168.5 153t-63.5 228q0 133 63.5 234t168 152t231.5 51h840v-213h-172v-1446h-234v1446h-194v-1446h-234v788h-6z" />
    <glyph glyph-name="periodcentered" unicode="&#xb7;" horiz-adv-x="532" 
d="M266 412q-73 0 -122.5 45.5t-49.5 117.5q0 74 49.5 120t122.5 46t122.5 -46t49.5 -120q0 -72 -49.5 -117.5t-122.5 -45.5z" />
    <glyph glyph-name="cedilla" unicode="&#xb8;" horiz-adv-x="929" 
d="M449 -498q-131 0 -244 76l82 139q65 -45 141 -45q94 0 94 62q0 76 -155 51l-45 43l53 223h172l-27 -131q91 -3 148 -57.5t57 -141.5q0 -100 -76 -159.5t-200 -59.5z" />
    <glyph glyph-name="uni00B9" unicode="&#xb9;" horiz-adv-x="456" 
d="M209 967v463q-80 -27 -178 -27v149q74 0 120 25t82 82h156v-692h-180z" />
    <glyph glyph-name="ordmasculine" unicode="&#xba;" horiz-adv-x="804" 
d="M403 745q-163 0 -266.5 99t-103.5 252q0 152 103.5 251t266.5 99q165 0 267 -97.5t102 -252.5t-102 -253t-267 -98zM242 1096q0 -72 45.5 -119t115.5 -47q71 0 115.5 46.5t44.5 119.5t-44.5 119.5t-115.5 46.5q-70 0 -115.5 -47t-45.5 -119z" />
    <glyph glyph-name="guillemotright" unicode="&#xbb;" horiz-adv-x="1458" 
d="M881 4l-181 158l338 413l-338 408l181 160l477 -568zM129 162l338 413l-338 408l180 160l477 -568l-477 -571z" />
    <glyph glyph-name="onequarter" unicode="&#xbc;" horiz-adv-x="1527" 
d="M209 741v463q-77 -26 -178 -26v149q74 0 120 25t82 82h156v-693h-180zM80 16l1022 1528l160 -108l-1024 -1528zM905 119v141l338 432h170v-418h74v-155h-74v-119h-172v119h-336zM1106 270h141v185z" />
    <glyph glyph-name="onehalf" unicode="&#xbd;" horiz-adv-x="1482" 
d="M209 741v463q-77 -26 -178 -26v149q74 0 120 25t82 82h156v-693h-180zM80 16l1022 1528l160 -108l-1024 -1528zM907 592q64 61 123.5 87t136.5 26q109 0 175.5 -58t66.5 -153q0 -59 -24 -104t-105 -142l-70 -84h224v-164h-500v121l209 235q48 56 62 79t14 46q0 28 -19 44
t-53 16q-74 0 -139 -68z" />
    <glyph glyph-name="threequarters" unicode="&#xbe;" horiz-adv-x="1665" 
d="M283 729q-147 0 -248 82l86 141q70 -55 145 -55q44 0 70 20.5t26 55.5q0 48 -42.5 67t-116.5 2l-41 84l119 146h-205v162h436v-107l-141 -160q80 -15 129 -72.5t49 -136.5q0 -102 -73.5 -165.5t-192.5 -63.5zM217 16l1022 1528l160 -108l-1024 -1528zM1042 119v141
l338 432h170v-418h74v-155h-74v-119h-172v119h-336zM1243 270h141v185z" />
    <glyph glyph-name="questiondown" unicode="&#xbf;" horiz-adv-x="1083" 
d="M682 616q0 -120 -42.5 -196t-145.5 -152q-77 -61 -103 -105.5t-26 -99.5q0 -74 53.5 -119.5t154.5 -45.5q178 0 314 172l168 -179q-202 -249 -504 -249q-216 0 -346.5 108t-130.5 285q0 117 57.5 209t173.5 180q63 46 88 91t25 122v76h264v-97zM377 956q0 72 49.5 118
t122.5 46t122.5 -46t49.5 -118t-49.5 -117.5t-122.5 -45.5t-122.5 45.5t-49.5 117.5z" />
    <glyph glyph-name="Agrave" unicode="&#xc0;" horiz-adv-x="1507" 
d="M33 0l557 1434h334l551 -1434h-312l-100 272h-614l-103 -272h-313zM440 1851h312l129 -268h-236zM524 506h463l-229 620z" />
    <glyph glyph-name="Aacute" unicode="&#xc1;" horiz-adv-x="1507" 
d="M33 0l557 1434h334l551 -1434h-312l-100 272h-614l-103 -272h-313zM524 506h463l-229 620zM631 1583l131 268h311l-205 -268h-237z" />
    <glyph glyph-name="Acircumflex" unicode="&#xc2;" horiz-adv-x="1507" 
d="M33 0l557 1434h334l551 -1434h-312l-100 272h-614l-103 -272h-313zM395 1583l248 268h227l246 -268h-260l-98 117l-101 -117h-262zM524 506h463l-229 620z" />
    <glyph glyph-name="Atilde" unicode="&#xc3;" horiz-adv-x="1507" 
d="M33 0l557 1434h334l551 -1434h-312l-100 272h-614l-103 -272h-313zM399 1659q78 190 224 190q48 0 93 -23.5t84.5 -47t73.5 -23.5q57 0 103 88l139 -90q-78 -190 -223 -190q-49 0 -94 23.5t-84.5 47t-73.5 23.5q-30 0 -54 -21t-50 -65zM524 506h463l-229 620z" />
    <glyph glyph-name="Adieresis" unicode="&#xc4;" horiz-adv-x="1507" 
d="M33 0l557 1434h334l551 -1434h-312l-100 272h-614l-103 -272h-313zM391 1714q0 69 43.5 113.5t112.5 44.5t112 -44.5t43 -113.5t-43 -113.5t-112 -44.5t-112.5 44.5t-43.5 113.5zM524 506h463l-229 620zM811 1714q0 69 43.5 113.5t112.5 44.5t112 -44.5t43 -113.5
t-43 -113.5t-112 -44.5t-112.5 44.5t-43.5 113.5z" />
    <glyph glyph-name="Aring" unicode="&#xc5;" horiz-adv-x="1507" 
d="M33 0l557 1434h334l551 -1434h-312l-100 272h-614l-103 -272h-313zM487 1769q0 107 77 178.5t192 71.5q116 0 193 -71.5t77 -178.5q0 -108 -77 -179.5t-193 -71.5t-192.5 71t-76.5 180zM524 506h463l-229 620zM662 1769q0 -41 27 -67.5t67 -26.5q41 0 68.5 26.5
t27.5 67.5t-27.5 68t-68.5 27q-40 0 -67 -27t-27 -68z" />
    <glyph glyph-name="AE" unicode="&#xc6;" horiz-adv-x="1994" 
d="M23 0l845 1434h1010v-250h-586v-330h533v-244h-533v-358h611v-252h-895v279h-484l-157 -279h-344zM645 504h363v641z" />
    <glyph glyph-name="Ccedilla" unicode="&#xc7;" horiz-adv-x="1484" 
d="M821 -498q-135 0 -248 76l80 141q71 -45 148 -45q96 0 96 62q0 74 -160 49l-45 43l37 149q-291 28 -467 233t-176 507q0 156 52 293t145 236.5t228.5 156.5t295.5 57q354 0 604 -293l-194 -192q-73 98 -177 151.5t-221 53.5q-190 0 -308 -129.5t-118 -333.5
q0 -206 119 -334.5t315 -128.5q128 0 236.5 55.5t187.5 159.5l193 -190q-101 -132 -239.5 -208t-299.5 -94l-10 -55q93 -3 151 -58.5t58 -142.5q0 -100 -78 -159.5t-205 -59.5z" />
    <glyph glyph-name="Egrave" unicode="&#xc8;" horiz-adv-x="1220" 
d="M158 0v1434h946v-252h-651v-334h598v-248h-598v-344h675v-256h-970zM330 1851h311l129 -268h-235z" />
    <glyph glyph-name="Eacute" unicode="&#xc9;" horiz-adv-x="1220" 
d="M158 0v1434h946v-252h-651v-334h598v-248h-598v-344h675v-256h-970zM520 1583l129 268h312l-205 -268h-236z" />
    <glyph glyph-name="Ecircumflex" unicode="&#xca;" horiz-adv-x="1220" 
d="M158 0v1434h946v-252h-651v-334h598v-248h-598v-344h675v-256h-970zM285 1583l247 268h226l248 -268h-263l-98 115l-100 -115h-260z" />
    <glyph glyph-name="Edieresis" unicode="&#xcb;" horiz-adv-x="1220" 
d="M158 0v1434h946v-252h-651v-334h598v-248h-598v-344h675v-256h-970zM279 1714q0 69 43.5 113.5t111.5 44.5q69 0 112.5 -44.5t43.5 -113.5t-43.5 -113.5t-112.5 -44.5q-68 0 -111.5 44.5t-43.5 113.5zM698 1714q0 69 43.5 113.5t112.5 44.5t112.5 -44.5t43.5 -113.5
t-43.5 -113.5t-112.5 -44.5t-112.5 44.5t-43.5 113.5z" />
    <glyph glyph-name="Igrave" unicode="&#xcc;" horiz-adv-x="614" 
d="M158 0v1434h301v-1434h-301zM-8 1851h311l129 -268h-235z" />
    <glyph glyph-name="Iacute" unicode="&#xcd;" horiz-adv-x="614" 
d="M158 0v1434h301v-1434h-301zM182 1583l131 268h312l-205 -268h-238z" />
    <glyph glyph-name="Icircumflex" unicode="&#xce;" horiz-adv-x="614" 
d="M158 0v1434h301v-1434h-301zM-53 1583l248 268h225l248 -268h-260l-101 115l-98 -115h-262z" />
    <glyph glyph-name="Idieresis" unicode="&#xcf;" horiz-adv-x="614" 
d="M158 0v1434h301v-1434h-301zM-57 1714q0 69 43 113.5t112 44.5t112.5 -44.5t43.5 -113.5t-43.5 -113.5t-112.5 -44.5t-112 44.5t-43 113.5zM360 1714q0 69 44 113.5t112 44.5q69 0 112.5 -44.5t43.5 -113.5t-43.5 -113.5t-112.5 -44.5q-68 0 -112 44.5t-44 113.5z" />
    <glyph glyph-name="Eth" unicode="&#xd0;" horiz-adv-x="1587" 
d="M35 608v236h184v590h547q333 0 534 -196t201 -521t-201 -521t-534 -196h-547v608h-184zM518 276h221q216 0 337.5 117t121.5 324t-121 323.5t-338 116.5h-221v-321h287v-220h-287v-340z" />
    <glyph glyph-name="Ntilde" unicode="&#xd1;" horiz-adv-x="1550" 
d="M158 0v1434h252l690 -924v924h293v-1434h-254l-690 926v-926h-291zM422 1659q37 95 94.5 142.5t126.5 47.5q49 0 94 -23.5t84.5 -47t73.5 -23.5q58 0 104 88l138 -90q-78 -190 -222 -190q-39 0 -77 14.5t-62 32.5t-55 32.5t-59 14.5q-56 0 -103 -86z" />
    <glyph glyph-name="Ograve" unicode="&#xd2;" horiz-adv-x="1679" 
d="M840 -27q-216 0 -388.5 96t-269 266t-96.5 382t97 382t269.5 265.5t387.5 95.5q161 0 301 -56t239.5 -154t156 -236t56.5 -297t-56.5 -297.5t-156 -236.5t-239.5 -154t-301 -56zM393 717q0 -203 125.5 -333t321.5 -130q195 0 320.5 130.5t125.5 332.5t-125.5 332.5
t-320.5 130.5q-196 0 -321.5 -130t-125.5 -333zM524 1851h312l129 -268h-236z" />
    <glyph glyph-name="Oacute" unicode="&#xd3;" horiz-adv-x="1679" 
d="M840 -27q-216 0 -388.5 96t-269 266t-96.5 382t97 382t269.5 265.5t387.5 95.5q161 0 301 -56t239.5 -154t156 -236t56.5 -297t-56.5 -297.5t-156 -236.5t-239.5 -154t-301 -56zM393 717q0 -203 125.5 -333t321.5 -130q195 0 320.5 130.5t125.5 332.5t-125.5 332.5
t-320.5 130.5q-196 0 -321.5 -130t-125.5 -333zM715 1583l129 268h311l-205 -268h-235z" />
    <glyph glyph-name="Ocircumflex" unicode="&#xd4;" horiz-adv-x="1679" 
d="M840 -27q-216 0 -388.5 96t-269 266t-96.5 382t97 382t269.5 265.5t387.5 95.5q161 0 301 -56t239.5 -154t156 -236t56.5 -297t-56.5 -297.5t-156 -236.5t-239.5 -154t-301 -56zM393 717q0 -203 125.5 -333t321.5 -130q195 0 320.5 130.5t125.5 332.5t-125.5 332.5
t-320.5 130.5q-196 0 -321.5 -130t-125.5 -333zM479 1583l248 268h225l248 -268h-262l-98 115l-99 -115h-262z" />
    <glyph glyph-name="Otilde" unicode="&#xd5;" horiz-adv-x="1679" 
d="M840 -27q-216 0 -388.5 96t-269 266t-96.5 382t97 382t269.5 265.5t387.5 95.5q161 0 301 -56t239.5 -154t156 -236t56.5 -297t-56.5 -297.5t-156 -236.5t-239.5 -154t-301 -56zM393 717q0 -203 125.5 -333t321.5 -130q195 0 320.5 130.5t125.5 332.5t-125.5 332.5
t-320.5 130.5q-196 0 -321.5 -130t-125.5 -333zM483 1659q37 94 95 142t127 48q39 0 76 -14.5t61 -32.5t55 -32.5t59 -14.5q59 0 105 88l137 -90q-78 -190 -221 -190q-49 0 -94.5 23.5t-85.5 47t-74 23.5q-55 0 -102 -86z" />
    <glyph glyph-name="Odieresis" unicode="&#xd6;" horiz-adv-x="1679" 
d="M840 -27q-216 0 -388.5 96t-269 266t-96.5 382t97 382t269.5 265.5t387.5 95.5q161 0 301 -56t239.5 -154t156 -236t56.5 -297t-56.5 -297.5t-156 -236.5t-239.5 -154t-301 -56zM393 717q0 -203 125.5 -333t321.5 -130q195 0 320.5 130.5t125.5 332.5t-125.5 332.5
t-320.5 130.5q-196 0 -321.5 -130t-125.5 -333zM475 1714q0 69 43.5 113.5t112.5 44.5q68 0 111.5 -44.5t43.5 -113.5t-43.5 -113.5t-111.5 -44.5q-69 0 -112.5 44.5t-43.5 113.5zM893 1714q0 69 43.5 113.5t112.5 44.5t112 -44.5t43 -113.5t-43 -113.5t-112 -44.5
t-112.5 44.5t-43.5 113.5z" />
    <glyph glyph-name="multiply" unicode="&#xd7;" horiz-adv-x="1003" 
d="M737 211l-235 235l-236 -235l-174 176l234 234l-234 233l176 176l234 -233l235 233l174 -174l-233 -233l233 -236z" />
    <glyph glyph-name="Oslash" unicode="&#xd8;" horiz-adv-x="1679" 
d="M840 -27q-146 0 -271 43l-131 -225l-202 117l126 219q-131 101 -203.5 253.5t-72.5 336.5q0 212 97 382t269.5 265.5t387.5 95.5q146 0 268 -43l131 225l203 -116l-127 -219q131 -101 204.5 -254t73.5 -336q0 -158 -57 -296.5t-156 -236.5t-239 -154.5t-301 -56.5z
M387 717q0 -214 133 -344l457 796q-68 19 -137 19q-198 0 -325.5 -132.5t-127.5 -338.5zM698 266q64 -20 142 -20q195 0 323.5 133.5t128.5 337.5q0 211 -135 346z" />
    <glyph glyph-name="Ugrave" unicode="&#xd9;" horiz-adv-x="1486" 
d="M743 -25q-275 0 -437.5 159t-162.5 433v867h301v-844q0 -164 77 -249t222 -85t222 85t77 249v844h301v-867q0 -274 -162.5 -433t-437.5 -159zM428 1851h311l129 -268h-235z" />
    <glyph glyph-name="Uacute" unicode="&#xda;" horiz-adv-x="1486" 
d="M743 -25q-275 0 -437.5 159t-162.5 433v867h301v-844q0 -164 77 -249t222 -85t222 85t77 249v844h301v-867q0 -274 -162.5 -433t-437.5 -159zM618 1583l130 268h311l-205 -268h-236z" />
    <glyph glyph-name="Ucircumflex" unicode="&#xdb;" horiz-adv-x="1486" 
d="M743 -25q-275 0 -437.5 159t-162.5 433v867h301v-844q0 -164 77 -249t222 -85t222 85t77 249v844h301v-867q0 -274 -162.5 -433t-437.5 -159zM383 1583l248 268h225l248 -268h-262l-99 115l-98 -115h-262z" />
    <glyph glyph-name="Udieresis" unicode="&#xdc;" horiz-adv-x="1486" 
d="M743 -25q-275 0 -437.5 159t-162.5 433v867h301v-844q0 -164 77 -249t222 -85t222 85t77 249v844h301v-867q0 -274 -162.5 -433t-437.5 -159zM379 1714q0 69 43.5 113.5t112.5 44.5q68 0 111.5 -44.5t43.5 -113.5t-43.5 -113.5t-111.5 -44.5q-69 0 -112.5 44.5
t-43.5 113.5zM797 1714q0 69 43 113.5t112 44.5t112.5 -44.5t43.5 -113.5t-43.5 -113.5t-112.5 -44.5t-112 44.5t-43 113.5z" />
    <glyph glyph-name="Yacute" unicode="&#xdd;" horiz-adv-x="1400" 
d="M551 0v537l-522 897h344l182 -322l147 -270l152 270l184 322h336l-522 -895v-539h-301zM582 1583l129 268h311l-205 -268h-235z" />
    <glyph glyph-name="Thorn" unicode="&#xde;" horiz-adv-x="1271" 
d="M158 0v1434h301v-207h256q238 0 377 -140.5t139 -363.5q0 -224 -138.5 -363t-377.5 -139h-256v-221h-301zM455 481h223q124 0 193 65t69 177q0 111 -69 176.5t-193 65.5h-223v-484z" />
    <glyph glyph-name="germandbls" unicode="&#xdf;" horiz-adv-x="1374" 
d="M881 -23q-179 0 -316 95l103 204q82 -51 182 -51q71 0 116.5 36t45.5 93t-33 104t-115 107q-94 71 -132 123.5t-38 120.5q0 48 16 88.5t58 93.5q66 83 66 154q0 65 -49 104t-132 39q-109 0 -169 -67.5t-60 -190.5v-1030h-283v1026q0 244 137 380t379 136q209 0 337 -98
t128 -256q0 -70 -21.5 -125.5t-70.5 -120.5q-30 -39 -41.5 -62.5t-11.5 -48.5q0 -34 26 -66t91 -79q204 -148 204 -346q0 -163 -112.5 -263t-304.5 -100z" />
    <glyph glyph-name="agrave" unicode="&#xe0;" horiz-adv-x="1191" 
d="M440 -14q-165 0 -265.5 90t-100.5 237q0 163 120 258t326 95q143 0 273 -41v37q0 92 -58 134t-184 42q-143 0 -328 -78l-73 211q119 54 219 77t217 23q229 0 353 -107t124 -305v-659h-258l-4 129q-65 -67 -160.5 -105t-200.5 -38zM276 1516h308l131 -299h-232zM352 328
q0 -61 42.5 -94t123.5 -33q114 0 191 62.5t88 160.5q-140 41 -240 41t-152.5 -35.5t-52.5 -101.5z" />
    <glyph glyph-name="aacute" unicode="&#xe1;" horiz-adv-x="1191" 
d="M440 -14q-165 0 -265.5 90t-100.5 237q0 163 120 258t326 95q143 0 273 -41v37q0 92 -58 134t-184 42q-143 0 -328 -78l-73 211q119 54 219 77t217 23q229 0 353 -107t124 -305v-659h-258l-4 129q-65 -67 -160.5 -105t-200.5 -38zM352 328q0 -61 42.5 -94t123.5 -33
q114 0 191 62.5t88 160.5q-140 41 -240 41t-152.5 -35.5t-52.5 -101.5zM453 1217l131 299h305l-205 -299h-231z" />
    <glyph glyph-name="acircumflex" unicode="&#xe2;" horiz-adv-x="1191" 
d="M440 -14q-165 0 -265.5 90t-100.5 237q0 163 120 258t326 95q143 0 273 -41v37q0 92 -58 134t-184 42q-143 0 -328 -78l-73 211q119 54 219 77t217 23q229 0 353 -107t124 -305v-659h-258l-4 129q-65 -67 -160.5 -105t-200.5 -38zM223 1217l250 299h221l250 -299h-262
l-98 133l-99 -133h-262zM352 328q0 -61 42.5 -94t123.5 -33q114 0 191 62.5t88 160.5q-140 41 -240 41t-152.5 -35.5t-52.5 -101.5z" />
    <glyph glyph-name="atilde" unicode="&#xe3;" horiz-adv-x="1191" 
d="M440 -14q-165 0 -265.5 90t-100.5 237q0 163 120 258t326 95q143 0 273 -41v37q0 92 -58 134t-184 42q-143 0 -328 -78l-73 211q119 54 219 77t217 23q229 0 353 -107t124 -305v-659h-258l-4 129q-65 -67 -160.5 -105t-200.5 -38zM233 1284q76 193 216 193q32 0 61 -11.5
t84 -42.5q66 -41 102 -41q56 0 103 86l133 -86q-75 -192 -217 -192q-55 0 -144 55q-44 25 -63.5 33t-38.5 8q-31 0 -54 -20t-48 -68zM352 328q0 -61 42.5 -94t123.5 -33q114 0 191 62.5t88 160.5q-140 41 -240 41t-152.5 -35.5t-52.5 -101.5z" />
    <glyph glyph-name="adieresis" unicode="&#xe4;" horiz-adv-x="1191" 
d="M440 -14q-165 0 -265.5 90t-100.5 237q0 163 120 258t326 95q143 0 273 -41v37q0 92 -58 134t-184 42q-143 0 -328 -78l-73 211q119 54 219 77t217 23q229 0 353 -107t124 -305v-659h-258l-4 129q-65 -67 -160.5 -105t-200.5 -38zM225 1335q0 67 43.5 110.5t110.5 43.5
q66 0 108.5 -43.5t42.5 -110.5t-42.5 -110t-108.5 -43q-68 0 -111 43t-43 110zM352 328q0 -61 42.5 -94t123.5 -33q114 0 191 62.5t88 160.5q-140 41 -240 41t-152.5 -35.5t-52.5 -101.5zM635 1335q0 68 43 111t110 43q68 0 111 -43.5t43 -110.5t-43 -110t-111 -43
t-110.5 43t-42.5 110z" />
    <glyph glyph-name="aring" unicode="&#xe5;" horiz-adv-x="1191" 
d="M440 -14q-165 0 -265.5 90t-100.5 237q0 163 120 258t326 95q143 0 273 -41v37q0 92 -58 134t-184 42q-143 0 -328 -78l-73 211q119 54 219 77t217 23q229 0 353 -107t124 -305v-659h-258l-4 129q-65 -67 -160.5 -105t-200.5 -38zM313 1421q0 108 77.5 180t193.5 72
t192 -71.5t76 -180.5q0 -107 -76.5 -178.5t-191.5 -71.5q-116 0 -193.5 71.5t-77.5 178.5zM352 328q0 -61 42.5 -94t123.5 -33q114 0 191 62.5t88 160.5q-140 41 -240 41t-152.5 -35.5t-52.5 -101.5zM489 1421q0 -40 26.5 -67t68.5 -27q41 0 67.5 27t26.5 67t-26.5 67.5
t-67.5 27.5q-42 0 -68.5 -27.5t-26.5 -67.5z" />
    <glyph glyph-name="ae" unicode="&#xe6;" horiz-adv-x="1918" 
d="M1364 -27q-141 0 -253 52.5t-185 148.5q-152 -201 -455 -201q-185 0 -291 93.5t-106 246.5q0 163 120 258t324 95q138 0 268 -41v37q0 100 -58.5 142t-178.5 42q-142 0 -326 -86l-76 211q111 56 208.5 81t209.5 25q265 0 385 -168q68 80 167 124t218 44q170 0 297 -89
t183.5 -242t27.5 -336h-786q26 -93 106.5 -148t190.5 -55q177 0 317 117l129 -183q-81 -79 -192 -123.5t-244 -44.5zM352 326q0 -61 42 -93t122 -32q115 0 193 63t84 160q-140 41 -240 41q-97 0 -149 -36t-52 -103zM1051 612h534q-22 107 -92 170.5t-174 63.5
q-102 0 -174 -63.5t-94 -170.5z" />
    <glyph glyph-name="ccedilla" unicode="&#xe7;" horiz-adv-x="1132" 
d="M627 -498q-131 0 -244 76l82 139q65 -45 141 -45q94 0 94 62q0 76 -155 51l-45 43l37 152q-205 31 -332 180.5t-127 365.5q0 240 155.5 395.5t399.5 155.5q134 0 248 -48.5t190 -137.5l-164 -180q-50 53 -119.5 82.5t-142.5 29.5q-124 0 -203.5 -83t-79.5 -214
q0 -133 78 -216t207 -83q82 0 154 34t121 97l174 -170q-139 -183 -385 -211l-13 -57q91 -3 148 -57.5t57 -141.5q0 -100 -76 -159.5t-200 -59.5z" />
    <glyph glyph-name="egrave" unicode="&#xe8;" horiz-adv-x="1241" 
d="M653 -27q-260 0 -417.5 152.5t-157.5 398.5q0 243 154 398t397 155q179 0 312.5 -89t192.5 -242t29 -336h-805q27 -92 110.5 -147.5t201.5 -55.5q182 0 321 117l129 -183q-183 -168 -467 -168zM324 1516h307l131 -299h-232zM356 612h549q-22 106 -94.5 170t-179.5 64
q-105 0 -180 -64t-95 -170z" />
    <glyph glyph-name="eacute" unicode="&#xe9;" horiz-adv-x="1241" 
d="M653 -27q-260 0 -417.5 152.5t-157.5 398.5q0 243 154 398t397 155q179 0 312.5 -89t192.5 -242t29 -336h-805q27 -92 110.5 -147.5t201.5 -55.5q182 0 321 117l129 -183q-183 -168 -467 -168zM356 612h549q-22 106 -94.5 170t-179.5 64q-105 0 -180 -64t-95 -170z
M500 1217l131 299h305l-205 -299h-231z" />
    <glyph glyph-name="ecircumflex" unicode="&#xea;" horiz-adv-x="1241" 
d="M653 -27q-260 0 -417.5 152.5t-157.5 398.5q0 243 154 398t397 155q179 0 312.5 -89t192.5 -242t29 -336h-805q27 -92 110.5 -147.5t201.5 -55.5q182 0 321 117l129 -183q-183 -168 -467 -168zM270 1217l250 299h221l250 -299h-262l-98 133l-99 -133h-262zM356 612h549
q-22 106 -94.5 170t-179.5 64q-105 0 -180 -64t-95 -170z" />
    <glyph glyph-name="edieresis" unicode="&#xeb;" horiz-adv-x="1241" 
d="M653 -27q-260 0 -417.5 152.5t-157.5 398.5q0 243 154 398t397 155q179 0 312.5 -89t192.5 -242t29 -336h-805q27 -92 110.5 -147.5t201.5 -55.5q182 0 321 117l129 -183q-183 -168 -467 -168zM272 1335q0 67 43 110.5t111 43.5q66 0 109 -43.5t43 -110.5t-43 -110
t-109 -43q-68 0 -111 43t-43 110zM356 612h549q-22 106 -94.5 170t-179.5 64q-105 0 -180 -64t-95 -170zM682 1335q0 67 43 110.5t111 43.5q67 0 110 -43t43 -111q0 -67 -42.5 -110t-110.5 -43t-111 43t-43 110z" />
    <glyph glyph-name="igrave" unicode="&#xec;" horiz-adv-x="571" 
d="M141 0v1051h287v-1051h-287zM4 1516h303l109 -299h-234z" />
    <glyph glyph-name="iacute" unicode="&#xed;" horiz-adv-x="571" 
d="M141 0v1051h287v-1051h-287zM156 1217l110 299h301l-178 -299h-233z" />
    <glyph glyph-name="icircumflex" unicode="&#xee;" horiz-adv-x="571" 
d="M141 0v1051h287v-1051h-287zM-37 1217l211 299h223l211 -299h-248l-73 124l-76 -124h-248z" />
    <glyph glyph-name="idieresis" unicode="&#xef;" horiz-adv-x="571" 
d="M141 0v1051h287v-1051h-287zM-57 1335q0 68 41.5 111t107.5 43q65 0 106.5 -43.5t41.5 -110.5q0 -66 -42 -109.5t-106 -43.5q-66 0 -107.5 43.5t-41.5 109.5zM334 1335q0 68 41.5 111t105.5 43q65 0 107.5 -43.5t42.5 -110.5q0 -66 -42.5 -109.5t-107.5 -43.5
q-64 0 -105.5 43.5t-41.5 109.5z" />
    <glyph glyph-name="eth" unicode="&#xf0;" horiz-adv-x="1304" 
d="M653 -27q-255 0 -415 150t-160 389q0 236 146.5 387.5t375.5 151.5q120 0 227 -52q-106 136 -237 238l-225 -158l-107 148l168 119q-34 20 -158 81l125 213q139 -68 248 -141l188 133l109 -149l-143 -101q208 -176 320 -386.5t112 -432.5q0 -268 -156.5 -429t-417.5 -161
zM362 518q0 -129 81 -210t210 -81q128 0 208.5 81t80.5 210t-80.5 210t-208.5 81q-129 0 -210 -81t-81 -210z" />
    <glyph glyph-name="ntilde" unicode="&#xf1;" horiz-adv-x="1290" 
d="M141 0v1051h271l2 -138q71 79 153.5 116.5t188.5 37.5q185 0 295 -116.5t110 -305.5v-645h-287v578q0 113 -51.5 172t-152.5 59q-113 0 -177.5 -69.5t-64.5 -188.5v-551h-287zM315 1284q76 193 217 193q30 0 60 -12t84 -42q68 -41 102 -41q31 0 54.5 20t48.5 66l133 -86
q-75 -192 -215 -192q-32 0 -63 12t-83 43q-70 41 -102 41q-29 0 -52 -20.5t-48 -67.5z" />
    <glyph glyph-name="ograve" unicode="&#xf2;" horiz-adv-x="1306" 
d="M653 -27q-255 0 -415 153.5t-160 399.5q0 244 160 397.5t415 153.5t414.5 -153t159.5 -398q0 -246 -159.5 -399.5t-414.5 -153.5zM346 1516h307l131 -299h-231zM362 526q0 -133 81.5 -216t209.5 -83t209.5 83t81.5 216t-81.5 215t-209.5 82t-209.5 -82t-81.5 -215z" />
    <glyph glyph-name="oacute" unicode="&#xf3;" horiz-adv-x="1306" 
d="M653 -27q-255 0 -415 153.5t-160 399.5q0 244 160 397.5t415 153.5t414.5 -153t159.5 -398q0 -246 -159.5 -399.5t-414.5 -153.5zM362 526q0 -133 81.5 -216t209.5 -83t209.5 83t81.5 216t-81.5 215t-209.5 82t-209.5 -82t-81.5 -215zM522 1217l131 299h308l-207 -299
h-232z" />
    <glyph glyph-name="ocircumflex" unicode="&#xf4;" horiz-adv-x="1306" 
d="M653 -27q-255 0 -415 153.5t-160 399.5q0 244 160 397.5t415 153.5t414.5 -153t159.5 -398q0 -246 -159.5 -399.5t-414.5 -153.5zM293 1217l250 299h221l250 -299h-262l-99 133l-98 -133h-262zM362 526q0 -133 81.5 -216t209.5 -83t209.5 83t81.5 216t-81.5 215
t-209.5 82t-209.5 -82t-81.5 -215z" />
    <glyph glyph-name="otilde" unicode="&#xf5;" horiz-adv-x="1306" 
d="M653 -27q-255 0 -415 153.5t-160 399.5q0 244 160 397.5t415 153.5t414.5 -153t159.5 -398q0 -246 -159.5 -399.5t-414.5 -153.5zM303 1284q76 193 215 193q32 0 62 -12t84 -42q68 -41 102 -41q29 0 53 20t49 66l133 -86q-75 -192 -215 -192q-56 0 -145 55
q-44 25 -63.5 33t-38.5 8q-31 0 -54.5 -20.5t-48.5 -67.5zM362 526q0 -133 81.5 -216t209.5 -83t209.5 83t81.5 216t-81.5 215t-209.5 82t-209.5 -82t-81.5 -215z" />
    <glyph glyph-name="odieresis" unicode="&#xf6;" horiz-adv-x="1306" 
d="M653 -27q-255 0 -415 153.5t-160 399.5q0 244 160 397.5t415 153.5t414.5 -153t159.5 -398q0 -246 -159.5 -399.5t-414.5 -153.5zM295 1335q0 67 43.5 110.5t110.5 43.5q66 0 108.5 -43.5t42.5 -110.5t-42.5 -110t-108.5 -43q-68 0 -111 43t-43 110zM362 526
q0 -133 81.5 -216t209.5 -83t209.5 83t81.5 216t-81.5 215t-209.5 82t-209.5 -82t-81.5 -215zM705 1335q0 67 43.5 110.5t109.5 43.5q68 0 111 -43.5t43 -110.5t-43 -110t-111 -43q-66 0 -109.5 43t-43.5 110z" />
    <glyph glyph-name="divide" unicode="&#xf7;" horiz-adv-x="1048" 
d="M94 506v233h860v-233h-860zM360 264q0 68 47 111t117 43q69 0 115.5 -43t46.5 -111t-46.5 -110.5t-115.5 -42.5q-70 0 -117 42.5t-47 110.5zM360 979q0 69 47 112.5t117 43.5q69 0 115.5 -43.5t46.5 -112.5q0 -68 -46.5 -110t-115.5 -42q-70 0 -117 42t-47 110z" />
    <glyph glyph-name="oslash" unicode="&#xf8;" horiz-adv-x="1306" 
d="M342 -162l-174 103l100 159q-92 74 -141 183t-49 243q0 244 160 397.5t415 153.5q113 0 205 -30l105 167l174 -104l-101 -160q91 -73 141 -182t50 -242q0 -246 -159.5 -399.5t-414.5 -153.5q-109 0 -207 31zM358 526q0 -117 66 -202l305 497q-33 8 -76 8q-131 0 -213 -84
t-82 -219zM575 229q33 -8 78 -8q131 0 213 84.5t82 220.5q0 124 -67 203z" />
    <glyph glyph-name="ugrave" unicode="&#xf9;" horiz-adv-x="1286" 
d="M1145 1051v-1051h-268l-3 137q-71 -79 -153.5 -116t-188.5 -37q-184 0 -294.5 117.5t-110.5 306.5v643h287v-576q0 -114 51.5 -173.5t152.5 -59.5q113 0 176.5 69.5t63.5 188.5v551h287zM330 1516h307l131 -299h-231z" />
    <glyph glyph-name="uacute" unicode="&#xfa;" horiz-adv-x="1286" 
d="M1145 1051v-1051h-268l-3 137q-71 -79 -153.5 -116t-188.5 -37q-184 0 -294.5 117.5t-110.5 306.5v643h287v-576q0 -114 51.5 -173.5t152.5 -59.5q113 0 176.5 69.5t63.5 188.5v551h287zM506 1217l131 299h307l-207 -299h-231z" />
    <glyph glyph-name="ucircumflex" unicode="&#xfb;" horiz-adv-x="1286" 
d="M1145 1051v-1051h-268l-3 137q-71 -79 -153.5 -116t-188.5 -37q-184 0 -294.5 117.5t-110.5 306.5v643h287v-576q0 -114 51.5 -173.5t152.5 -59.5q113 0 176.5 69.5t63.5 188.5v551h287zM276 1217l250 299h222l249 -299h-260l-98 135l-100 -135h-263z" />
    <glyph glyph-name="udieresis" unicode="&#xfc;" horiz-adv-x="1286" 
d="M1145 1051v-1051h-268l-3 137q-71 -79 -153.5 -116t-188.5 -37q-184 0 -294.5 117.5t-110.5 306.5v643h287v-576q0 -114 51.5 -173.5t152.5 -59.5q113 0 176.5 69.5t63.5 188.5v551h287zM279 1335q0 67 43.5 110.5t109.5 43.5q68 0 111 -43.5t43 -110.5t-43 -110
t-111 -43q-66 0 -109.5 43t-43.5 110zM690 1335q0 67 43 110.5t111 43.5q66 0 108.5 -43.5t42.5 -110.5t-42.5 -110t-108.5 -43q-68 0 -111 43t-43 110z" />
    <glyph glyph-name="yacute" unicode="&#xfd;" horiz-adv-x="1202" 
d="M313 -481q-106 0 -202 35l59 241q52 -18 117 -18q74 0 120.5 34.5t77.5 118.5l9 19l-465 1102h313l197 -510l84 -232l73 232l172 510h306l-447 -1227q-114 -305 -414 -305zM481 1217l131 299h308l-207 -299h-232z" />
    <glyph glyph-name="thorn" unicode="&#xfe;" horiz-adv-x="1363" 
d="M782 -25q-213 0 -354 154v-600h-287v1987h287v-594q140 153 354 153q221 0 362.5 -154t141.5 -395q0 -242 -141.5 -396.5t-362.5 -154.5zM424 526q0 -132 81.5 -215.5t207.5 -83.5q127 0 207.5 83.5t80.5 215.5t-80 214.5t-208 82.5q-126 0 -207.5 -83.5t-81.5 -213.5z
" />
    <glyph glyph-name="ydieresis" unicode="&#xff;" horiz-adv-x="1202" 
d="M313 -481q-106 0 -202 35l59 241q52 -18 117 -18q74 0 120.5 34.5t77.5 118.5l9 19l-465 1102h313l197 -510l84 -232l73 232l172 510h306l-447 -1227q-114 -305 -414 -305zM254 1335q0 67 43 110.5t111 43.5q66 0 108.5 -43.5t42.5 -110.5t-42.5 -110t-108.5 -43
q-68 0 -111 43t-43 110zM664 1335q0 67 43.5 110.5t109.5 43.5q67 0 110.5 -43.5t43.5 -110.5t-43 -110t-111 -43q-66 0 -109.5 43t-43.5 110z" />
    <glyph glyph-name="Amacron" unicode="&#x100;" horiz-adv-x="1507" 
d="M33 0l557 1434h334l551 -1434h-312l-100 272h-614l-103 -272h-313zM449 1599v191h616v-191h-616zM524 506h463l-229 620z" />
    <glyph glyph-name="amacron" unicode="&#x101;" horiz-adv-x="1191" 
d="M440 -14q-165 0 -265.5 90t-100.5 237q0 163 120 258t326 95q143 0 273 -41v37q0 92 -58 134t-184 42q-143 0 -328 -78l-73 211q119 54 219 77t217 23q229 0 353 -107t124 -305v-659h-258l-4 129q-65 -67 -160.5 -105t-200.5 -38zM285 1227v186h598v-186h-598zM352 328
q0 -61 42.5 -94t123.5 -33q114 0 191 62.5t88 160.5q-140 41 -240 41t-152.5 -35.5t-52.5 -101.5z" />
    <glyph glyph-name="Abreve" unicode="&#x102;" horiz-adv-x="1507" 
d="M33 0l557 1434h334l551 -1434h-312l-100 272h-614l-103 -272h-313zM434 1827l199 39q15 -119 123 -119q110 0 125 119l198 -39q-19 -129 -98 -192.5t-225 -63.5q-145 0 -224 63.5t-98 192.5zM524 506h463l-229 620z" />
    <glyph glyph-name="abreve" unicode="&#x103;" horiz-adv-x="1191" 
d="M440 -14q-165 0 -265.5 90t-100.5 237q0 163 120 258t326 95q143 0 273 -41v37q0 92 -58 134t-184 42q-143 0 -328 -78l-73 211q119 54 219 77t217 23q229 0 353 -107t124 -305v-659h-258l-4 129q-65 -67 -160.5 -105t-200.5 -38zM258 1489l186 37q18 -152 140 -152
q61 0 94.5 37t44.5 115l184 -37q-17 -145 -97 -215t-226 -70q-148 0 -227.5 70t-98.5 215zM352 328q0 -61 42.5 -94t123.5 -33q114 0 191 62.5t88 160.5q-140 41 -240 41t-152.5 -35.5t-52.5 -101.5z" />
    <glyph glyph-name="Aogonek" unicode="&#x104;" horiz-adv-x="1507" 
d="M33 0l557 1434h334l551 -1434q-154 -92 -154 -195q0 -73 70 -73q42 0 94 35l84 -144q-106 -86 -228 -86q-110 0 -174.5 59.5t-64.5 159.5q0 135 131 244h-70l-100 272h-614l-103 -272h-313zM524 506h463l-229 620z" />
    <glyph glyph-name="aogonek" unicode="&#x105;" horiz-adv-x="1191" 
d="M440 -14q-165 0 -265.5 90t-100.5 237q0 163 120 258t326 95q143 0 273 -41v37q0 92 -58 134t-184 42q-143 0 -328 -78l-73 211q119 54 219 77t217 23q229 0 353 -107t124 -305v-659q-156 -96 -156 -199q0 -73 70 -73q44 0 92 34l84 -141q-104 -84 -223 -84
q-109 0 -172.5 58.5t-63.5 156.5q0 139 140 248h-29l-4 129q-65 -67 -160.5 -105t-200.5 -38zM352 328q0 -61 42.5 -94t123.5 -33q114 0 191 62.5t88 160.5q-140 41 -240 41t-152.5 -35.5t-52.5 -101.5z" />
    <glyph glyph-name="Cacute" unicode="&#x106;" horiz-adv-x="1484" 
d="M813 -27q-215 0 -381.5 96.5t-256 265.5t-89.5 382q0 156 52 293t145 236.5t228.5 156.5t295.5 57q354 0 604 -293l-194 -192q-73 98 -177 151.5t-221 53.5q-190 0 -308 -129.5t-118 -333.5q0 -206 119 -334.5t315 -128.5q128 0 236.5 55.5t187.5 159.5l193 -190
q-117 -151 -279.5 -228.5t-351.5 -77.5zM680 1583l131 268h311l-204 -268h-238z" />
    <glyph glyph-name="cacute" unicode="&#x107;" horiz-adv-x="1132" 
d="M631 -27q-241 0 -397 155.5t-156 397.5q0 240 155.5 395.5t399.5 155.5q134 0 248 -48.5t190 -137.5l-164 -180q-50 53 -119.5 82.5t-142.5 29.5q-124 0 -203.5 -83t-79.5 -214q0 -133 78 -216t207 -83q82 0 154 34t121 97l174 -170q-79 -105 -198.5 -160t-266.5 -55z
M496 1217l131 299h305l-205 -299h-231z" />
    <glyph glyph-name="Ccircumflex" unicode="&#x108;" horiz-adv-x="1484" 
d="M813 -27q-215 0 -381.5 96.5t-256 265.5t-89.5 382q0 156 52 293t145 236.5t228.5 156.5t295.5 57q354 0 604 -293l-194 -192q-73 98 -177 151.5t-221 53.5q-190 0 -308 -129.5t-118 -333.5q0 -206 119 -334.5t315 -128.5q128 0 236.5 55.5t187.5 159.5l193 -190
q-117 -151 -279.5 -228.5t-351.5 -77.5zM444 1583l248 268h228l245 -268h-260l-98 117l-100 -117h-263z" />
    <glyph glyph-name="ccircumflex" unicode="&#x109;" horiz-adv-x="1132" 
d="M631 -27q-241 0 -397 155.5t-156 397.5q0 240 155.5 395.5t399.5 155.5q134 0 248 -48.5t190 -137.5l-164 -180q-50 53 -119.5 82.5t-142.5 29.5q-124 0 -203.5 -83t-79.5 -214q0 -133 78 -216t207 -83q82 0 154 34t121 97l174 -170q-79 -105 -198.5 -160t-266.5 -55z
M266 1217l250 299h221l250 -299h-262l-98 133l-99 -133h-262z" />
    <glyph glyph-name="Cdotaccent" unicode="&#x10a;" horiz-adv-x="1484" 
d="M813 -27q-215 0 -381.5 96.5t-256 265.5t-89.5 382q0 156 52 293t145 236.5t228.5 156.5t295.5 57q354 0 604 -293l-194 -192q-73 98 -177 151.5t-221 53.5q-190 0 -308 -129.5t-118 -333.5q0 -206 119 -334.5t315 -128.5q128 0 236.5 55.5t187.5 159.5l193 -190
q-117 -151 -279.5 -228.5t-351.5 -77.5zM631 1729q0 77 48 124.5t126 47.5t127 -48t49 -124q0 -77 -49 -125t-127 -48t-126 48t-48 125z" />
    <glyph glyph-name="cdotaccent" unicode="&#x10b;" horiz-adv-x="1132" 
d="M631 -27q-241 0 -397 155.5t-156 397.5q0 240 155.5 395.5t399.5 155.5q134 0 248 -48.5t190 -137.5l-164 -180q-50 53 -119.5 82.5t-142.5 29.5q-124 0 -203.5 -83t-79.5 -214q0 -133 78 -216t207 -83q82 0 154 34t121 97l174 -170q-79 -105 -198.5 -160t-266.5 -55z
M451 1343q0 78 49 125.5t127 47.5t127 -47.5t49 -125.5q0 -76 -49 -124t-127 -48t-127 48t-49 124z" />
    <glyph glyph-name="Ccaron" unicode="&#x10c;" horiz-adv-x="1484" 
d="M813 -27q-215 0 -381.5 96.5t-256 265.5t-89.5 382q0 156 52 293t145 236.5t228.5 156.5t295.5 57q354 0 604 -293l-194 -192q-73 98 -177 151.5t-221 53.5q-190 0 -308 -129.5t-118 -333.5q0 -206 119 -334.5t315 -128.5q128 0 236.5 55.5t187.5 159.5l193 -190
q-117 -151 -279.5 -228.5t-351.5 -77.5zM444 1849h263l98 -114l98 114h262l-247 -268h-226z" />
    <glyph glyph-name="ccaron" unicode="&#x10d;" horiz-adv-x="1132" 
d="M631 -27q-241 0 -397 155.5t-156 397.5q0 240 155.5 395.5t399.5 155.5q134 0 248 -48.5t190 -137.5l-164 -180q-50 53 -119.5 82.5t-142.5 29.5q-124 0 -203.5 -83t-79.5 -214q0 -133 78 -216t207 -83q82 0 154 34t121 97l174 -170q-79 -105 -198.5 -160t-266.5 -55z
M266 1516h262l99 -134l98 134h262l-250 -299h-221z" />
    <glyph glyph-name="Dcaron" unicode="&#x10e;" horiz-adv-x="1525" 
d="M158 0v1434h547q333 0 534 -196t201 -521t-201 -521t-534 -196h-547zM338 1849h262l98 -114l99 114h262l-248 -268h-225zM459 279h219q215 0 336 115.5t121 322.5t-121 322.5t-336 115.5h-219v-876z" />
    <glyph glyph-name="dcaron" unicode="&#x10f;" horiz-adv-x="1472" 
d="M582 -25q-220 0 -362 154.5t-142 396.5q0 241 142 395t362 154q216 0 354 -151v592h287v-1516h-271l-2 139q-136 -164 -368 -164zM362 526q0 -133 80.5 -216t208.5 -83q127 0 208 83t81 216q0 132 -80.5 214.5t-208.5 82.5t-208.5 -82.5t-80.5 -214.5zM1307 1100l69 416
h258l-135 -416h-192z" />
    <glyph glyph-name="Dcroat" unicode="&#x110;" horiz-adv-x="1587" 
d="M35 608v236h184v590h547q333 0 534 -196t201 -521t-201 -521t-534 -196h-547v608h-184zM518 276h221q216 0 337.5 117t121.5 324t-121 323.5t-338 116.5h-221v-321h287v-220h-287v-340z" />
    <glyph glyph-name="dcroat" unicode="&#x111;" horiz-adv-x="1415" 
d="M584 -25q-222 0 -364 152.5t-142 390.5t142.5 390.5t363.5 152.5q212 0 352 -146v252h-297v185h297v164h285v-164h188v-187h-188v-1165h-269l-2 135q-141 -160 -366 -160zM362 518q0 -128 81 -209.5t208 -81.5q126 0 207.5 82t81.5 209q0 128 -81.5 210.5t-207.5 82.5
q-127 0 -208 -82t-81 -211z" />
    <glyph glyph-name="Emacron" unicode="&#x112;" horiz-adv-x="1220" 
d="M158 0v1434h946v-252h-651v-334h598v-248h-598v-344h675v-256h-970zM336 1599v191h616v-191h-616z" />
    <glyph glyph-name="emacron" unicode="&#x113;" horiz-adv-x="1241" 
d="M653 -27q-260 0 -417.5 152.5t-157.5 398.5q0 243 154 398t397 155q179 0 312.5 -89t192.5 -242t29 -336h-805q27 -92 110.5 -147.5t201.5 -55.5q182 0 321 117l129 -183q-183 -168 -467 -168zM332 1227v186h598v-186h-598zM356 612h549q-22 106 -94.5 170t-179.5 64
q-105 0 -180 -64t-95 -170z" />
    <glyph glyph-name="Ebreve" unicode="&#x114;" horiz-adv-x="1220" 
d="M158 0v1434h946v-252h-651v-334h598v-248h-598v-344h675v-256h-970zM322 1827l198 39q18 -119 125 -119q108 0 123 119l199 -39q-19 -129 -98 -192.5t-224 -63.5q-146 0 -225 63.5t-98 192.5z" />
    <glyph glyph-name="ebreve" unicode="&#x115;" horiz-adv-x="1241" 
d="M653 -27q-260 0 -417.5 152.5t-157.5 398.5q0 243 154 398t397 155q179 0 312.5 -89t192.5 -242t29 -336h-805q27 -92 110.5 -147.5t201.5 -55.5q182 0 321 117l129 -183q-183 -168 -467 -168zM305 1489l187 37q9 -78 43 -115t96 -37q61 0 94.5 37t44.5 115l184 -37
q-17 -145 -97 -215t-226 -70q-148 0 -227.5 70t-98.5 215zM356 612h549q-22 106 -94.5 170t-179.5 64q-105 0 -180 -64t-95 -170z" />
    <glyph glyph-name="Edotaccent" unicode="&#x116;" horiz-adv-x="1220" 
d="M158 0v1434h946v-252h-651v-334h598v-248h-598v-344h675v-256h-970zM469 1729q0 77 48 124.5t126 47.5t127 -48t49 -124q0 -77 -49 -125t-127 -48t-126 48t-48 125z" />
    <glyph glyph-name="edotaccent" unicode="&#x117;" horiz-adv-x="1241" 
d="M653 -27q-260 0 -417.5 152.5t-157.5 398.5q0 243 154 398t397 155q179 0 312.5 -89t192.5 -242t29 -336h-805q27 -92 110.5 -147.5t201.5 -55.5q182 0 321 117l129 -183q-183 -168 -467 -168zM356 612h549q-22 106 -94.5 170t-179.5 64q-105 0 -180 -64t-95 -170z
M455 1343q0 78 49 125.5t127 47.5t127 -47.5t49 -125.5q0 -76 -49 -124t-127 -48t-127 48t-49 124z" />
    <glyph glyph-name="Eogonek" unicode="&#x118;" horiz-adv-x="1220" 
d="M158 0v1434h946v-252h-651v-334h598v-248h-598v-344h675v-256q-153 -92 -153 -195q0 -73 69 -73q43 0 95 35l84 -144q-106 -86 -228 -86q-110 0 -174.5 59.5t-64.5 159.5q0 135 131 244h-729z" />
    <glyph glyph-name="eogonek" unicode="&#x119;" horiz-adv-x="1259" 
d="M827 -457q-109 0 -174 59.5t-65 157.5q0 112 94 213h-23q-261 0 -420 151.5t-159 399.5q0 243 154 398t395 155q179 0 313 -89t193.5 -242t29.5 -336h-807q27 -92 111 -147.5t201 -55.5q180 0 321 117l129 -183q-74 -71 -184 -143q-137 -92 -137 -180q0 -38 19.5 -61
t53.5 -23q46 0 91 35l84 -142q-103 -84 -220 -84zM356 612h551q-20 106 -95.5 170t-180.5 64t-180 -64t-95 -170z" />
    <glyph glyph-name="Ecaron" unicode="&#x11a;" horiz-adv-x="1220" 
d="M158 0v1434h946v-252h-651v-334h598v-248h-598v-344h675v-256h-970zM285 1849h262l98 -114l98 114h263l-248 -268h-226z" />
    <glyph glyph-name="ecaron" unicode="&#x11b;" horiz-adv-x="1241" 
d="M653 -27q-260 0 -417.5 152.5t-157.5 398.5q0 243 154 398t397 155q179 0 312.5 -89t192.5 -242t29 -336h-805q27 -92 110.5 -147.5t201.5 -55.5q182 0 321 117l129 -183q-183 -168 -467 -168zM270 1516h262l99 -134l98 134h262l-250 -299h-221zM356 612h549
q-22 106 -94.5 170t-179.5 64q-105 0 -180 -64t-95 -170z" />
    <glyph glyph-name="Gcircumflex" unicode="&#x11c;" horiz-adv-x="1568" 
d="M846 -27q-170 0 -312 55t-240.5 153t-153 236t-54.5 300q0 212 93 381t263.5 265.5t388.5 96.5q332 0 568 -225l-170 -199q-72 71 -176 111.5t-213 40.5q-201 0 -327 -132t-126 -339q0 -210 126.5 -340.5t340.5 -130.5q200 0 346 98v213h-428v246h692v-592
q-116 -116 -279 -177t-339 -61zM471 1583l248 268h225l248 -268h-260l-98 117l-101 -117h-262z" />
    <glyph glyph-name="gcircumflex" unicode="&#x11d;" horiz-adv-x="1306" 
d="M676 -690q-304 0 -463.5 88.5t-159.5 255.5q0 135 97 219q-72 66 -72 170q0 153 147 252q-96 120 -96 289q0 212 139.5 339.5t372.5 127.5h621v-228h-207q96 -107 96 -260q0 -197 -141.5 -319.5t-368.5 -122.5q-136 0 -240 43q-57 -31 -57 -82q0 -37 32 -57.5t108 -32
t223 -17.5q283 -10 414.5 -86t131.5 -227q0 -166 -152.5 -259t-424.5 -93zM295 1217l250 299h221l250 -299h-262l-99 133l-98 -133h-262zM309 -319q0 -72 84.5 -105t268.5 -33q323 0 323 105q0 49 -67.5 71t-229.5 25q-188 3 -330 35q-49 -46 -49 -98zM401 582
q0 -103 67 -168.5t171 -65.5q105 0 172.5 66t67.5 168q0 103 -67 169t-173 66q-104 0 -171 -66t-67 -169z" />
    <glyph glyph-name="Gbreve" unicode="&#x11e;" horiz-adv-x="1568" 
d="M846 -27q-170 0 -312 55t-240.5 153t-153 236t-54.5 300q0 212 93 381t263.5 265.5t388.5 96.5q332 0 568 -225l-170 -199q-72 71 -176 111.5t-213 40.5q-201 0 -327 -132t-126 -339q0 -210 126.5 -340.5t340.5 -130.5q200 0 346 98v213h-428v246h692v-592
q-116 -116 -279 -177t-339 -61zM510 1827l199 39q15 -119 122 -119t125 119l197 -39q-17 -129 -96 -192.5t-226 -63.5q-145 0 -223.5 63.5t-97.5 192.5z" />
    <glyph glyph-name="gbreve" unicode="&#x11f;" horiz-adv-x="1306" 
d="M676 -690q-304 0 -463.5 88.5t-159.5 255.5q0 135 97 219q-72 66 -72 170q0 153 147 252q-96 120 -96 289q0 212 139.5 339.5t372.5 127.5h621v-228h-207q96 -107 96 -260q0 -197 -141.5 -319.5t-368.5 -122.5q-136 0 -240 43q-57 -31 -57 -82q0 -37 32 -57.5t108 -32
t223 -17.5q283 -10 414.5 -86t131.5 -227q0 -166 -152.5 -259t-424.5 -93zM309 -319q0 -72 84.5 -105t268.5 -33q323 0 323 105q0 49 -67.5 71t-229.5 25q-188 3 -330 35q-49 -46 -49 -98zM332 1489l184 37q9 -78 43 -115t96 -37q122 0 140 152l184 -37q-17 -145 -96.5 -215
t-227.5 -70t-227 70t-96 215zM401 582q0 -103 67 -168.5t171 -65.5q105 0 172.5 66t67.5 168q0 103 -67 169t-173 66q-104 0 -171 -66t-67 -169z" />
    <glyph glyph-name="Gdotaccent" unicode="&#x120;" horiz-adv-x="1568" 
d="M846 -27q-170 0 -312 55t-240.5 153t-153 236t-54.5 300q0 212 93 381t263.5 265.5t388.5 96.5q332 0 568 -225l-170 -199q-72 71 -176 111.5t-213 40.5q-201 0 -327 -132t-126 -339q0 -210 126.5 -340.5t340.5 -130.5q200 0 346 98v213h-428v246h692v-592
q-116 -116 -279 -177t-339 -61zM657 1729q0 77 48 124.5t126 47.5t126.5 -47.5t48.5 -124.5t-48.5 -125t-126.5 -48t-126 48t-48 125z" />
    <glyph glyph-name="gdotaccent" unicode="&#x121;" horiz-adv-x="1306" 
d="M676 -690q-304 0 -463.5 88.5t-159.5 255.5q0 135 97 219q-72 66 -72 170q0 153 147 252q-96 120 -96 289q0 212 139.5 339.5t372.5 127.5h621v-228h-207q96 -107 96 -260q0 -197 -141.5 -319.5t-368.5 -122.5q-136 0 -240 43q-57 -31 -57 -82q0 -37 32 -57.5t108 -32
t223 -17.5q283 -10 414.5 -86t131.5 -227q0 -166 -152.5 -259t-424.5 -93zM309 -319q0 -72 84.5 -105t268.5 -33q323 0 323 105q0 49 -67.5 71t-229.5 25q-188 3 -330 35q-49 -46 -49 -98zM401 582q0 -103 67 -168.5t171 -65.5q105 0 172.5 66t67.5 168q0 103 -67 169
t-173 66q-104 0 -171 -66t-67 -169zM479 1343q0 78 49 125.5t127 47.5t127 -47.5t49 -125.5q0 -76 -49 -124t-127 -48t-127 48t-49 124z" />
    <glyph glyph-name="uni0122" unicode="&#x122;" horiz-adv-x="1568" 
d="M846 -27q-170 0 -312 55t-240.5 153t-153 236t-54.5 300q0 212 93 381t263.5 265.5t388.5 96.5q332 0 568 -225l-170 -199q-72 71 -176 111.5t-213 40.5q-201 0 -327 -132t-126 -339q0 -210 126.5 -340.5t340.5 -130.5q200 0 346 98v213h-428v246h692v-592
q-116 -116 -279 -177t-339 -61zM711 -242q0 62 37.5 103t101.5 41q74 0 117 -49t43 -127q0 -160 -170 -308l-84 74q66 75 84 137q-57 3 -93 40t-36 89z" />
    <glyph glyph-name="uni0123" unicode="&#x123;" horiz-adv-x="1306" 
d="M676 -690q-304 0 -463.5 88.5t-159.5 255.5q0 135 97 219q-72 66 -72 170q0 153 147 252q-96 120 -96 289q0 212 139.5 339.5t372.5 127.5h621v-228h-207q96 -107 96 -260q0 -197 -141.5 -319.5t-368.5 -122.5q-136 0 -240 43q-57 -31 -57 -82q0 -37 32 -57.5t108 -32
t223 -17.5q283 -10 414.5 -86t131.5 -227q0 -166 -152.5 -259t-424.5 -93zM309 -319q0 -72 84.5 -105t268.5 -33q323 0 323 105q0 49 -67.5 71t-229.5 25q-188 3 -330 35q-49 -46 -49 -98zM401 582q0 -103 67 -168.5t171 -65.5q105 0 172.5 66t67.5 168q0 103 -67 169
t-173 66q-104 0 -171 -66t-67 -169zM508 1341q0 163 170 308l82 -74q-66 -75 -84 -137q57 -3 93 -40t36 -89q0 -62 -37.5 -103t-101.5 -41q-74 0 -116 49t-42 127z" />
    <glyph glyph-name="Hcircumflex" unicode="&#x124;" horiz-adv-x="1521" 
d="M1063 0v590h-604v-590h-301v1434h301v-564h604v564h301v-1434h-301zM401 1583l248 268h225l248 -268h-262l-98 115l-98 -115h-263z" />
    <glyph glyph-name="hcircumflex" unicode="&#x125;" horiz-adv-x="1290" 
d="M141 0v1516h287v-594q133 145 330 145q182 0 292.5 -116.5t110.5 -303.5v-647h-287v580q0 229 -204 229q-114 0 -178 -68.5t-64 -187.5v-553h-287zM-74 1665l248 268h225l248 -268h-262l-98 115l-101 -115h-260z" />
    <glyph glyph-name="Hbar" unicode="&#x126;" horiz-adv-x="1591" 
d="M1098 0v594h-604v-594h-301v1032h-154v217h154v185h301v-185h604v185h301v-185h153v-217h-153v-1032h-301zM494 842h604v200h-604v-200z" />
    <glyph glyph-name="hbar" unicode="&#x127;" horiz-adv-x="1316" 
d="M170 0v1165h-186v187h186v164h287v-164h295v-185h-295v-247q132 141 329 141q181 0 291.5 -116t110.5 -304v-641h-287v573q0 113 -51.5 171.5t-151.5 58.5q-113 0 -177 -68t-64 -186v-549h-287z" />
    <glyph glyph-name="Itilde" unicode="&#x128;" horiz-adv-x="614" 
d="M158 0v1434h301v-1434h-301zM-49 1659q78 190 221 190q49 0 94.5 -23.5t85.5 -47t74 -23.5q56 0 102 88l138 -90q-37 -94 -95 -142t-127 -48q-39 0 -76 14.5t-61 32.5t-55 32.5t-59 14.5q-58 0 -105 -86z" />
    <glyph glyph-name="itilde" unicode="&#x129;" horiz-adv-x="571" 
d="M141 0v1051h287v-1051h-287zM-49 1272q72 190 207 190q45 0 87 -23.5t78.5 -47t67.5 -23.5q55 0 92 88l133 -88q-69 -190 -206 -190q-44 0 -86 23.5t-78.5 47t-67.5 23.5q-57 0 -92 -86z" />
    <glyph glyph-name="Imacron" unicode="&#x12a;" horiz-adv-x="614" 
d="M158 0v1434h301v-1434h-301zM14 1599v191h586v-191h-586z" />
    <glyph glyph-name="imacron" unicode="&#x12b;" horiz-adv-x="571" 
d="M141 0v1051h287v-1051h-287zM12 1227v186h545v-186h-545z" />
    <glyph glyph-name="Ibreve" unicode="&#x12c;" horiz-adv-x="614" 
d="M158 0v1434h301v-1434h-301zM-14 1827l198 39q15 -119 123 -119q107 0 125 119l197 -39q-17 -129 -96 -192.5t-226 -63.5q-145 0 -223.5 63.5t-97.5 192.5z" />
    <glyph glyph-name="ibreve" unicode="&#x12d;" horiz-adv-x="571" 
d="M141 0v1051h287v-1051h-287zM-20 1489l184 37q9 -78 39 -115t84 -37q103 0 121 152l184 -37q-17 -145 -92 -215t-213 -70q-139 0 -214.5 70t-92.5 215z" />
    <glyph glyph-name="Iogonek" unicode="&#x12e;" horiz-adv-x="614" 
d="M158 0v1434h301v-1434q-156 -93 -156 -195q0 -73 72 -73q42 0 94 35l84 -144q-106 -86 -227 -86q-110 0 -175 59.5t-65 159.5q0 135 131 244h-59z" />
    <glyph glyph-name="iogonek" unicode="&#x12f;" horiz-adv-x="571" 
d="M141 0v1051h287v-1051q-137 -94 -137 -199q0 -73 65 -73q43 0 88 34l82 -141q-101 -84 -217 -84q-107 0 -169 58t-62 157q0 141 131 248h-68zM100 1360q0 82 51 131t134 49q84 0 135 -49.5t51 -130.5q0 -82 -51.5 -132t-134.5 -50t-134 50t-51 132z" />
    <glyph glyph-name="Idotaccent" unicode="&#x130;" horiz-adv-x="614" 
d="M158 0v1434h301v-1434h-301zM133 1729q0 77 48 124.5t126 47.5t126 -47.5t48 -124.5t-48 -125t-126 -48t-126 48t-48 125z" />
    <glyph glyph-name="dotlessi" unicode="&#x131;" horiz-adv-x="571" 
d="M141 0v1051h287v-1051h-287z" />
    <glyph glyph-name="IJ" unicode="&#x132;" horiz-adv-x="1603" 
d="M158 0v1434h301v-1434h-301zM625 63l108 240q106 -53 215 -53t160 72t51 223v889h301v-912q0 -268 -122 -407.5t-367 -139.5q-171 0 -346 88z" />
    <glyph glyph-name="ij" unicode="&#x133;" horiz-adv-x="1140" 
d="M141 0v1051h287v-1051h-287zM100 1360q0 82 51 131t134 49q84 0 135 -49.5t51 -130.5q0 -82 -51.5 -132t-134.5 -50t-134 50t-51 132zM424 -457l55 236q70 -17 113 -17q64 0 91.5 34.5t27.5 113.5v1141h286v-1182q0 -175 -92.5 -266.5t-269.5 -91.5q-116 0 -211 32z
M670 1360q0 81 51 130.5t133 49.5q84 0 135 -49.5t51 -130.5q0 -82 -51.5 -132t-134.5 -50q-82 0 -133 50t-51 132z" />
    <glyph glyph-name="Jcircumflex" unicode="&#x134;" horiz-adv-x="989" 
d="M356 -25q-171 0 -346 88l109 240q106 -53 215 -53t160 72t51 223v889h301v-912q0 -268 -122.5 -407.5t-367.5 -139.5zM334 1583l248 268h225l248 -268h-260l-99 117l-100 -117h-262z" />
    <glyph glyph-name="jcircumflex" unicode="&#x135;" horiz-adv-x="569" 
d="M63 -489q-115 0 -210 32l55 236q70 -17 112 -17q64 0 91.5 34.5t27.5 113.5v1141h287v-1182q0 -175 -93 -266.5t-270 -91.5zM-39 1217l211 299h223l211 -299h-248l-73 124l-76 -124h-248z" />
    <glyph glyph-name="uni0136" unicode="&#x136;" horiz-adv-x="1361" 
d="M979 0l-397 588h-123v-588h-301v1434h301v-576h119l385 576h358l-481 -703l499 -731h-360zM561 -242q0 62 37 103t100 41q75 0 117.5 -49t42.5 -127q0 -163 -170 -308l-84 74q69 75 84 137q-56 3 -91.5 40t-35.5 89z" />
    <glyph glyph-name="uni0137" unicode="&#x137;" horiz-adv-x="1167" 
d="M809 0l-277 418h-104v-418h-287v1516h287v-850h111l256 385h333l-352 -508l373 -543h-340zM461 -242q0 62 37.5 103t101.5 41q74 0 116 -49t42 -127q0 -163 -170 -308l-82 74q66 75 84 137q-57 3 -93 40t-36 89z" />
    <glyph glyph-name="kgreenlandic" unicode="&#x138;" horiz-adv-x="1167" 
d="M809 0l-277 418h-104v-418h-287v1051h287v-385h111l256 385h333l-352 -508l373 -543h-340z" />
    <glyph glyph-name="Lacute" unicode="&#x139;" horiz-adv-x="1146" 
d="M182 1583l131 268h312l-205 -268h-238zM158 0v1434h301v-1153h626v-281h-927z" />
    <glyph glyph-name="lacute" unicode="&#x13a;" horiz-adv-x="571" 
d="M141 0v1516h287v-1516h-287zM162 1665l129 268h311l-205 -268h-235z" />
    <glyph glyph-name="uni013B" unicode="&#x13b;" horiz-adv-x="1146" 
d="M535 -508q68 74 86 137q-58 4 -93.5 40.5t-35.5 88.5q0 62 37.5 103t101.5 41q73 0 115 -49t42 -127q0 -163 -170 -308zM158 0v1434h301v-1153h626v-281h-927z" />
    <glyph glyph-name="uni013C" unicode="&#x13c;" horiz-adv-x="571" 
d="M141 0v1516h287v-1516h-287zM139 -242q0 62 38 103t102 41q73 0 115 -49t42 -127q0 -163 -170 -308l-84 74q68 74 86 137q-58 4 -93.5 40.5t-35.5 88.5z" />
    <glyph glyph-name="Lcaron" unicode="&#x13d;" horiz-adv-x="1146" 
d="M727 1018l64 416h278l-129 -416h-213zM158 0v1434h301v-1153h626v-281h-927z" />
    <glyph glyph-name="lcaron" unicode="&#x13e;" horiz-adv-x="679" 
d="M141 0v1516h287v-1516h-287zM514 1100l70 416h258l-135 -416h-193z" />
    <glyph glyph-name="Ldot" unicode="&#x13f;" horiz-adv-x="1146" 
d="M864 649q-72 0 -121 45.5t-49 116.5q0 72 49 118t121 46t120 -46t48 -118q0 -71 -48.5 -116.5t-119.5 -45.5zM158 0v1434h301v-1153h626v-281h-927z" />
    <glyph glyph-name="ldot" unicode="&#x140;" horiz-adv-x="960" 
d="M141 0v1516h287v-1516h-287zM541 649q0 71 48.5 116.5t119.5 45.5q73 0 121.5 -45.5t48.5 -116.5q0 -73 -48.5 -118.5t-121.5 -45.5q-72 0 -120 46t-48 118z" />
    <glyph glyph-name="Lslash" unicode="&#x141;" horiz-adv-x="1202" 
d="M16 434v240l195 84v676h301v-545l379 164v-240l-379 -164v-368h627v-281h-928v518z" />
    <glyph glyph-name="lslash" unicode="&#x142;" horiz-adv-x="636" 
d="M176 0v569l-174 -77v251l174 78v695h287v-570l174 78v-250l-174 -78v-696h-287z" />
    <glyph glyph-name="Nacute" unicode="&#x143;" horiz-adv-x="1550" 
d="M158 0v1434h252l690 -924v924h293v-1434h-254l-690 926v-926h-291zM653 1583l129 268h312l-205 -268h-236z" />
    <glyph glyph-name="nacute" unicode="&#x144;" horiz-adv-x="1290" 
d="M141 0v1051h271l2 -138q71 79 153.5 116.5t188.5 37.5q185 0 295 -116.5t110 -305.5v-645h-287v578q0 113 -51.5 172t-152.5 59q-113 0 -177.5 -69.5t-64.5 -188.5v-551h-287zM535 1217l131 299h307l-207 -299h-231z" />
    <glyph glyph-name="uni0145" unicode="&#x145;" horiz-adv-x="1550" 
d="M158 0v1434h252l690 -924v924h293v-1434h-254l-690 926v-926h-291zM643 -242q0 62 37.5 103t101.5 41q74 0 116 -49t42 -127q0 -162 -168 -308l-84 74q66 75 84 137q-57 3 -93 40t-36 89z" />
    <glyph glyph-name="uni0146" unicode="&#x146;" horiz-adv-x="1290" 
d="M141 0v1051h271l2 -138q71 79 153.5 116.5t188.5 37.5q185 0 295 -116.5t110 -305.5v-645h-287v578q0 113 -51.5 172t-152.5 59q-113 0 -177.5 -69.5t-64.5 -188.5v-551h-287zM506 -242q0 62 37.5 103t101.5 41q74 0 116 -49t42 -127q0 -163 -170 -308l-84 74
q68 74 86 137q-58 4 -93.5 40.5t-35.5 88.5z" />
    <glyph glyph-name="Ncaron" unicode="&#x147;" horiz-adv-x="1550" 
d="M158 0v1434h252l690 -924v924h293v-1434h-254l-690 926v-926h-291zM418 1849h262l98 -114l99 114h262l-248 -268h-225z" />
    <glyph glyph-name="ncaron" unicode="&#x148;" horiz-adv-x="1290" 
d="M141 0v1051h271l2 -138q71 79 153.5 116.5t188.5 37.5q185 0 295 -116.5t110 -305.5v-645h-287v578q0 113 -51.5 172t-152.5 59q-113 0 -177.5 -69.5t-64.5 -188.5v-551h-287zM305 1516h262l99 -134l98 134h262l-250 -299h-221z" />
    <glyph glyph-name="napostrophe" unicode="&#x149;" horiz-adv-x="1497" 
d="M348 2v1051h270l3 -138q71 79 153.5 116.5t188.5 37.5q185 0 295 -116.5t110 -305.5v-645h-287v578q0 113 -51.5 172t-152.5 59q-113 0 -177.5 -69.5t-64.5 -188.5v-551h-287zM-18 1362q0 67 40 110.5t109 43.5q80 0 125 -52.5t45 -136.5q0 -89 -44 -168.5t-138 -161.5
l-88 80q72 78 90 148q-62 3 -100.5 42.5t-38.5 94.5z" />
    <glyph glyph-name="Eng" unicode="&#x14a;" horiz-adv-x="1550" 
d="M158 0v1434h252l690 -928v928h293v-1551q0 -181 -93 -276.5t-270 -95.5q-101 0 -207 34l56 234q66 -17 110 -17q64 0 91.5 33.5t27.5 110.5v135l-659 887v-928h-291z" />
    <glyph glyph-name="eng" unicode="&#x14b;" horiz-adv-x="1286" 
d="M797 -489q-115 0 -207 32l55 230q61 -15 109 -15q64 0 91 34t27 112v674q0 113 -51.5 172t-152.5 59q-113 0 -177.5 -69.5t-64.5 -188.5v-551h-287v1051h269l2 -138q139 154 342 154q186 0 296.5 -116.5t110.5 -305.5v-776q0 -175 -92.5 -266.5t-269.5 -91.5z" />
    <glyph glyph-name="Omacron" unicode="&#x14c;" horiz-adv-x="1679" 
d="M840 -27q-216 0 -388.5 96t-269 266t-96.5 382t97 382t269.5 265.5t387.5 95.5q161 0 301 -56t239.5 -154t156 -236t56.5 -297t-56.5 -297.5t-156 -236.5t-239.5 -154t-301 -56zM393 717q0 -203 125.5 -333t321.5 -130q195 0 320.5 130.5t125.5 332.5t-125.5 332.5
t-320.5 130.5q-196 0 -321.5 -130t-125.5 -333zM530 1599v191h617v-191h-617z" />
    <glyph glyph-name="omacron" unicode="&#x14d;" horiz-adv-x="1306" 
d="M653 -27q-255 0 -415 153.5t-160 399.5q0 244 160 397.5t415 153.5t414.5 -153t159.5 -398q0 -246 -159.5 -399.5t-414.5 -153.5zM354 1227v186h598v-186h-598zM362 526q0 -133 81.5 -216t209.5 -83t209.5 83t81.5 216t-81.5 215t-209.5 82t-209.5 -82t-81.5 -215z" />
    <glyph glyph-name="Obreve" unicode="&#x14e;" horiz-adv-x="1679" 
d="M840 -27q-216 0 -388.5 96t-269 266t-96.5 382t97 382t269.5 265.5t387.5 95.5q161 0 301 -56t239.5 -154t156 -236t56.5 -297t-56.5 -297.5t-156 -236.5t-239.5 -154t-301 -56zM393 717q0 -203 125.5 -333t321.5 -130q195 0 320.5 130.5t125.5 332.5t-125.5 332.5
t-320.5 130.5q-196 0 -321.5 -130t-125.5 -333zM518 1827l197 39q18 -119 125 -119q108 0 123 119l198 -39q-19 -129 -97.5 -192.5t-223.5 -63.5q-147 0 -226 63.5t-96 192.5z" />
    <glyph glyph-name="obreve" unicode="&#x14f;" horiz-adv-x="1306" 
d="M653 -27q-255 0 -415 153.5t-160 399.5q0 244 160 397.5t415 153.5t414.5 -153t159.5 -398q0 -246 -159.5 -399.5t-414.5 -153.5zM328 1489l186 37q9 -78 43 -115t96 -37q61 0 95 37t45 115l184 -37q-17 -144 -97 -214.5t-227 -70.5t-226.5 70t-98.5 215zM362 526
q0 -133 81.5 -216t209.5 -83t209.5 83t81.5 216t-81.5 215t-209.5 82t-209.5 -82t-81.5 -215z" />
    <glyph glyph-name="Ohungarumlaut" unicode="&#x150;" horiz-adv-x="1679" 
d="M840 -27q-216 0 -388.5 96t-269 266t-96.5 382t97 382t269.5 265.5t387.5 95.5q161 0 301 -56t239.5 -154t156 -236t56.5 -297t-56.5 -297.5t-156 -236.5t-239.5 -154t-301 -56zM393 717q0 -203 125.5 -333t321.5 -130q195 0 320.5 130.5t125.5 332.5t-125.5 332.5
t-320.5 130.5q-196 0 -321.5 -130t-125.5 -333zM526 1583l113 268h276l-172 -268h-217zM879 1583l145 268h276l-198 -268h-223z" />
    <glyph glyph-name="ohungarumlaut" unicode="&#x151;" horiz-adv-x="1306" 
d="M653 -27q-255 0 -415 153.5t-160 399.5q0 244 160 397.5t415 153.5t414.5 -153t159.5 -398q0 -246 -159.5 -399.5t-414.5 -153.5zM346 1217l113 299h278l-172 -299h-219zM362 526q0 -133 81.5 -216t209.5 -83t209.5 83t81.5 216t-81.5 215t-209.5 82t-209.5 -82
t-81.5 -215zM698 1217l146 299h276l-198 -299h-224z" />
    <glyph glyph-name="OE" unicode="&#x152;" horiz-adv-x="2037" 
d="M844 -25q-344 0 -551 202.5t-207 539.5q0 336 205.5 538.5t544.5 202.5q115 0 217 -24h868v-250h-584v-334h531v-244h-531v-352h609v-254h-891q-106 -25 -211 -25zM393 717q0 -221 129 -346t359 -125q83 0 172 18v903q-86 21 -174 21q-230 0 -358 -124.5t-128 -346.5z
" />
    <glyph glyph-name="oe" unicode="&#x153;" horiz-adv-x="2037" 
d="M621 -27q-242 0 -392.5 153.5t-150.5 399.5q0 245 151 398t392 153q135 0 245 -51t183 -145q71 93 177 144.5t234 51.5q168 0 294 -89t181.5 -242t26.5 -336h-782q26 -95 105.5 -149t189.5 -54q175 0 315 117l129 -183q-171 -168 -432 -168q-140 0 -253.5 51.5
t-186.5 145.5q-73 -94 -183 -145.5t-243 -51.5zM362 526q0 -133 78.5 -216t202.5 -83t202.5 83t78.5 216t-78.5 215t-202.5 82t-202.5 -82t-78.5 -215zM1176 612h528q-22 106 -92 170t-172 64q-101 0 -172.5 -64t-91.5 -170z" />
    <glyph glyph-name="Racute" unicode="&#x154;" horiz-adv-x="1376" 
d="M158 0v1434h590q233 0 378.5 -134t145.5 -342q0 -151 -75 -264.5t-208 -167.5l326 -526h-330l-289 481h-237v-481h-301zM453 723h270q119 0 183.5 60t64.5 165q0 107 -64.5 167.5t-183.5 60.5h-270v-453zM528 1583l129 268h312l-205 -268h-236z" />
    <glyph glyph-name="racute" unicode="&#x155;" horiz-adv-x="892" 
d="M141 0v1051h271l2 -140q125 154 321 154q75 0 146 -25l-66 -272q-68 23 -131 23q-129 0 -192.5 -85t-63.5 -229v-477h-287zM377 1217l131 299h305l-205 -299h-231z" />
    <glyph glyph-name="uni0156" unicode="&#x156;" horiz-adv-x="1376" 
d="M158 0v1434h590q233 0 378.5 -134t145.5 -342q0 -151 -75 -264.5t-208 -167.5l326 -526h-330l-289 481h-237v-481h-301zM453 723h270q119 0 183.5 60t64.5 165q0 107 -64.5 167.5t-183.5 60.5h-270v-453zM563 -242q0 62 38 103t101 41q75 0 117.5 -49t42.5 -127
q0 -163 -170 -308l-84 74q69 75 84 137q-57 3 -93 40t-36 89z" />
    <glyph glyph-name="uni0157" unicode="&#x157;" horiz-adv-x="892" 
d="M141 0v1051h271l2 -140q125 154 321 154q75 0 146 -25l-66 -272q-68 23 -131 23q-129 0 -192.5 -85t-63.5 -229v-477h-287zM139 -242q0 62 38 103t102 41q73 0 115 -49t42 -127q0 -163 -170 -308l-84 74q68 74 86 137q-58 4 -93.5 40.5t-35.5 88.5z" />
    <glyph glyph-name="Rcaron" unicode="&#x158;" horiz-adv-x="1376" 
d="M158 0v1434h590q233 0 378.5 -134t145.5 -342q0 -151 -75 -264.5t-208 -167.5l326 -526h-330l-289 481h-237v-481h-301zM293 1849h262l98 -114l99 114h262l-248 -268h-225zM453 723h270q119 0 183.5 60t64.5 165q0 107 -64.5 167.5t-183.5 60.5h-270v-453z" />
    <glyph glyph-name="rcaron" unicode="&#x159;" horiz-adv-x="892" 
d="M141 0v1051h271l2 -140q125 154 321 154q75 0 146 -25l-66 -272q-68 23 -131 23q-129 0 -192.5 -85t-63.5 -229v-477h-287zM147 1516h263l98 -134l98 134h262l-250 -299h-221z" />
    <glyph glyph-name="Sacute" unicode="&#x15a;" horiz-adv-x="1265" 
d="M643 -18q-159 0 -309 50.5t-266 141.5l137 221q203 -145 436 -145q121 0 187.5 38t66.5 107q0 66 -72.5 114t-247.5 99q-234 66 -343 171.5t-109 269.5q0 180 139.5 291.5t372.5 111.5q143 0 279.5 -47t248.5 -133l-143 -219q-72 61 -176 98t-205 37q-100 0 -158.5 -36
t-58.5 -97t64 -105.5t235 -97.5q249 -74 364 -181.5t115 -269.5q0 -186 -154 -302.5t-403 -116.5zM516 1583l129 268h311l-202 -268h-238z" />
    <glyph glyph-name="sacute" unicode="&#x15b;" horiz-adv-x="1017" 
d="M520 -18q-252 0 -459 141l109 207q180 -111 348 -111q77 0 119.5 22.5t42.5 63.5q0 39 -43.5 66t-149.5 55q-198 47 -288 128t-90 210q0 140 104 222.5t293 82.5q239 0 432 -133l-113 -199q-57 44 -144 72.5t-165 28.5q-137 0 -137 -78q0 -39 42 -64.5t154 -52.5
q196 -45 289.5 -128t93.5 -206q0 -150 -119.5 -238.5t-318.5 -88.5zM385 1217l131 299h307l-207 -299h-231z" />
    <glyph glyph-name="Scircumflex" unicode="&#x15c;" horiz-adv-x="1265" 
d="M643 -18q-159 0 -309 50.5t-266 141.5l137 221q203 -145 436 -145q121 0 187.5 38t66.5 107q0 66 -72.5 114t-247.5 99q-234 66 -343 171.5t-109 269.5q0 180 139.5 291.5t372.5 111.5q143 0 279.5 -47t248.5 -133l-143 -219q-72 61 -176 98t-205 37q-100 0 -158.5 -36
t-58.5 -97t64 -105.5t235 -97.5q249 -74 364 -181.5t115 -269.5q0 -186 -154 -302.5t-403 -116.5zM281 1583l247 268h226l247 -268h-262l-98 115l-98 -115h-262z" />
    <glyph glyph-name="scircumflex" unicode="&#x15d;" horiz-adv-x="1017" 
d="M520 -18q-252 0 -459 141l109 207q180 -111 348 -111q77 0 119.5 22.5t42.5 63.5q0 39 -43.5 66t-149.5 55q-198 47 -288 128t-90 210q0 140 104 222.5t293 82.5q239 0 432 -133l-113 -199q-57 44 -144 72.5t-165 28.5q-137 0 -137 -78q0 -39 42 -64.5t154 -52.5
q196 -45 289.5 -128t93.5 -206q0 -150 -119.5 -238.5t-318.5 -88.5zM156 1217l250 299h221l250 -299h-261l-98 135l-100 -135h-262z" />
    <glyph glyph-name="Scedilla" unicode="&#x15e;" horiz-adv-x="1265" 
d="M649 -498q-135 0 -248 76l80 141q71 -45 148 -45q45 0 70.5 16t25.5 46q0 74 -160 49l-45 43l39 158q-282 25 -491 188l137 221q203 -145 436 -145q121 0 187.5 38t66.5 107q0 66 -72.5 114t-247.5 99q-234 66 -343 171.5t-109 269.5q0 180 139.5 291.5t372.5 111.5
q143 0 279.5 -47t248.5 -133l-143 -219q-72 61 -176 98t-205 37q-100 0 -158.5 -36t-58.5 -97t64 -105.5t235 -97.5q249 -74 364 -181.5t115 -269.5q0 -167 -127 -279.5t-338 -135.5l-12 -64q93 -3 151 -58.5t58 -142.5q0 -100 -78 -159.5t-205 -59.5z" />
    <glyph glyph-name="scedilla" unicode="&#x15f;" horiz-adv-x="1017" 
d="M530 -498q-130 0 -243 76l82 139q65 -45 141 -45q94 0 94 62q0 76 -155 51l-46 43l37 158q-207 18 -379 137l109 207q180 -111 348 -111q77 0 119.5 22.5t42.5 63.5q0 39 -43.5 66t-149.5 55q-198 47 -288 128t-90 210q0 140 104 222.5t293 82.5q239 0 432 -133
l-113 -199q-57 44 -144 72.5t-165 28.5q-137 0 -137 -78q0 -39 42 -64.5t154 -52.5q196 -45 289.5 -128t93.5 -206q0 -131 -92 -216t-250 -105l-14 -68q91 -3 148 -57.5t57 -141.5q0 -100 -76.5 -159.5t-200.5 -59.5z" />
    <glyph glyph-name="Scaron" unicode="&#x160;" horiz-adv-x="1265" 
d="M643 -18q-159 0 -309 50.5t-266 141.5l137 221q203 -145 436 -145q121 0 187.5 38t66.5 107q0 66 -72.5 114t-247.5 99q-234 66 -343 171.5t-109 269.5q0 180 139.5 291.5t372.5 111.5q143 0 279.5 -47t248.5 -133l-143 -219q-72 61 -176 98t-205 37q-100 0 -158.5 -36
t-58.5 -97t64 -105.5t235 -97.5q249 -74 364 -181.5t115 -269.5q0 -186 -154 -302.5t-403 -116.5zM281 1849h262l98 -114l98 114h262l-247 -268h-226z" />
    <glyph glyph-name="scaron" unicode="&#x161;" horiz-adv-x="1017" 
d="M520 -18q-252 0 -459 141l109 207q180 -111 348 -111q77 0 119.5 22.5t42.5 63.5q0 39 -43.5 66t-149.5 55q-198 47 -288 128t-90 210q0 140 104 222.5t293 82.5q239 0 432 -133l-113 -199q-57 44 -144 72.5t-165 28.5q-137 0 -137 -78q0 -39 42 -64.5t154 -52.5
q196 -45 289.5 -128t93.5 -206q0 -150 -119.5 -238.5t-318.5 -88.5zM156 1516h262l98 -134l98 134h263l-250 -299h-221z" />
    <glyph glyph-name="uni0162" unicode="&#x162;" horiz-adv-x="1255" 
d="M477 0v1155h-428v279h1155v-279h-426v-1155h-57l-16 -78q93 -3 150.5 -58.5t57.5 -142.5q0 -100 -77.5 -159.5t-204.5 -59.5q-135 0 -248 76l80 141q71 -45 147 -45q97 0 97 62q0 74 -160 49l-45 43l43 172h-68z" />
    <glyph glyph-name="uni0163" unicode="&#x163;" horiz-adv-x="876" 
d="M47 817v234h180l4 249h281v-249h274v-234h-274v-426q0 -145 127 -145q57 0 131 30l72 -239q-81 -39 -191 -49l-12 -68q91 -3 148 -57.5t57 -141.5q0 -100 -76.5 -159.5t-200.5 -59.5q-130 0 -243 76l82 139q65 -45 141 -45q94 0 94 62q0 76 -156 51l-45 43l41 168
q-126 29 -191 124.5t-65 248.5v448h-178z" />
    <glyph glyph-name="Tcaron" unicode="&#x164;" horiz-adv-x="1255" 
d="M477 0v1155h-428v279h1155v-279h-426v-1155h-301zM266 1849h262l99 -114l98 114h262l-248 -268h-225z" />
    <glyph glyph-name="tcaron" unicode="&#x165;" horiz-adv-x="876" 
d="M592 -16q-178 0 -272.5 100.5t-94.5 284.5v448h-178v234h180l4 249h281v-249h274v-234h-274v-426q0 -145 127 -145q57 0 131 30l72 -239q-117 -53 -250 -53zM668 1153l55 363h246l-113 -363h-188z" />
    <glyph glyph-name="Tbar" unicode="&#x166;" horiz-adv-x="1255" 
d="M215 588v219h262v348h-428v279h1155v-279h-426v-348h262v-219h-262v-588h-301v588h-262z" />
    <glyph glyph-name="tbar" unicode="&#x167;" horiz-adv-x="878" 
d="M590 -16q-176 0 -270.5 100.5t-94.5 284.5v102h-157v193h157v174h-178v213h180l4 249h281v-249h274v-213h-274v-174h250v-189h-250v-92q0 -147 131 -147q59 0 133 30l68 -227q-121 -55 -254 -55z" />
    <glyph glyph-name="Utilde" unicode="&#x168;" horiz-adv-x="1486" 
d="M743 -25q-275 0 -437.5 159t-162.5 433v867h301v-844q0 -164 77 -249t222 -85t222 85t77 249v844h301v-867q0 -274 -162.5 -433t-437.5 -159zM387 1659q37 95 94.5 142.5t126.5 47.5q49 0 94 -23.5t84.5 -47t73.5 -23.5q59 0 105 88l137 -90q-78 -190 -221 -190
q-49 0 -94.5 23.5t-85.5 47t-74 23.5q-56 0 -103 -86z" />
    <glyph glyph-name="utilde" unicode="&#x169;" horiz-adv-x="1286" 
d="M1145 1051v-1051h-268l-3 137q-71 -79 -153.5 -116t-188.5 -37q-184 0 -294.5 117.5t-110.5 306.5v643h287v-576q0 -114 51.5 -173.5t152.5 -59.5q113 0 176.5 69.5t63.5 188.5v551h287zM287 1284q76 193 217 193q30 0 59 -11.5t84 -42.5q68 -41 105 -41q29 0 52 20
t48 66l135 -86q-78 -192 -217 -192q-31 0 -62 12t-83 43q-42 24 -62 32.5t-41 8.5q-29 0 -52 -20.5t-48 -67.5z" />
    <glyph glyph-name="Umacron" unicode="&#x16a;" horiz-adv-x="1486" 
d="M743 -25q-275 0 -437.5 159t-162.5 433v867h301v-844q0 -164 77 -249t222 -85t222 85t77 249v844h301v-867q0 -274 -162.5 -433t-437.5 -159zM434 1599v191h617v-191h-617z" />
    <glyph glyph-name="umacron" unicode="&#x16b;" horiz-adv-x="1286" 
d="M1145 1051v-1051h-268l-3 137q-71 -79 -153.5 -116t-188.5 -37q-184 0 -294.5 117.5t-110.5 306.5v643h287v-576q0 -114 51.5 -173.5t152.5 -59.5q113 0 176.5 69.5t63.5 188.5v551h287zM340 1227v186h596v-186h-596z" />
    <glyph glyph-name="Ubreve" unicode="&#x16c;" horiz-adv-x="1486" 
d="M743 -25q-275 0 -437.5 159t-162.5 433v867h301v-844q0 -164 77 -249t222 -85t222 85t77 249v844h301v-867q0 -274 -162.5 -433t-437.5 -159zM422 1827l196 39q18 -119 125 -119q108 0 123 119l199 -39q-19 -129 -98 -192.5t-224 -63.5q-146 0 -225 63.5t-96 192.5z" />
    <glyph glyph-name="ubreve" unicode="&#x16d;" horiz-adv-x="1286" 
d="M1145 1051v-1051h-268l-3 137q-71 -79 -153.5 -116t-188.5 -37q-184 0 -294.5 117.5t-110.5 306.5v643h287v-576q0 -114 51.5 -173.5t152.5 -59.5q113 0 176.5 69.5t63.5 188.5v551h287zM313 1489l185 37q11 -78 44.5 -115t94.5 -37q62 0 96 37t43 115l187 -37
q-19 -145 -98.5 -215t-227.5 -70q-146 0 -225.5 70t-98.5 215z" />
    <glyph glyph-name="Uring" unicode="&#x16e;" horiz-adv-x="1486" 
d="M743 -25q-275 0 -437.5 159t-162.5 433v867h301v-844q0 -164 77 -249t222 -85t222 85t77 249v844h301v-867q0 -274 -162.5 -433t-437.5 -159zM473 1769q0 107 77 178.5t193 71.5q115 0 192 -71.5t77 -178.5q0 -109 -76.5 -180t-192.5 -71t-193 71.5t-77 179.5zM649 1769
q0 -41 26.5 -67.5t67.5 -26.5t68 26.5t27 67.5t-27 68t-68 27t-67.5 -27t-26.5 -68z" />
    <glyph glyph-name="uring" unicode="&#x16f;" horiz-adv-x="1286" 
d="M1145 1051v-1051h-268l-3 137q-71 -79 -153.5 -116t-188.5 -37q-184 0 -294.5 117.5t-110.5 306.5v643h287v-576q0 -114 51.5 -173.5t152.5 -59.5q113 0 176.5 69.5t63.5 188.5v551h287zM369 1421q0 109 76 180.5t192 71.5t193 -71.5t77 -180.5q0 -107 -77 -178.5
t-193 -71.5q-115 0 -191.5 71.5t-76.5 178.5zM543 1421q0 -40 26.5 -67t67.5 -27q42 0 68 27t26 67q0 41 -26 68t-68 27q-41 0 -67.5 -27.5t-26.5 -67.5z" />
    <glyph glyph-name="Uhungarumlaut" unicode="&#x170;" horiz-adv-x="1486" 
d="M743 -25q-275 0 -437.5 159t-162.5 433v867h301v-844q0 -164 77 -249t222 -85t222 85t77 249v844h301v-867q0 -274 -162.5 -433t-437.5 -159zM430 1583l113 268h276l-172 -268h-217zM782 1583l146 268h276l-200 -268h-222z" />
    <glyph glyph-name="uhungarumlaut" unicode="&#x171;" horiz-adv-x="1286" 
d="M1145 1051v-1051h-268l-3 137q-71 -79 -153.5 -116t-188.5 -37q-184 0 -294.5 117.5t-110.5 306.5v643h287v-576q0 -114 51.5 -173.5t152.5 -59.5q113 0 176.5 69.5t63.5 188.5v551h287zM330 1217l114 299h277l-172 -299h-219zM682 1217l147 299h277l-201 -299h-223z" />
    <glyph glyph-name="Uogonek" unicode="&#x172;" horiz-adv-x="1486" 
d="M860 -463q-107 0 -170 58.5t-63 156.5q0 58 24 117t68 106q-263 6 -419.5 165t-156.5 427v867h301v-844q0 -164 77 -249t222 -85q148 0 223.5 85t75.5 249v844h301v-867q0 -189 -82 -323t-235 -209q-90 -46 -138 -106t-48 -126q0 -75 71 -75q42 0 90 34l84 -141
q-107 -84 -225 -84z" />
    <glyph glyph-name="uogonek" unicode="&#x173;" horiz-adv-x="1286" 
d="M1145 1051v-1051q-154 -95 -154 -199q0 -73 70 -73q42 0 92 34l84 -141q-104 -84 -225 -84q-107 0 -170.5 58.5t-63.5 156.5q0 139 140 248h-41l-3 137q-71 -79 -153.5 -116t-188.5 -37q-184 0 -294.5 117.5t-110.5 306.5v643h287v-576q0 -114 51.5 -173.5t152.5 -59.5
q113 0 176.5 69.5t63.5 188.5v551h287z" />
    <glyph glyph-name="Wcircumflex" unicode="&#x174;" horiz-adv-x="2226" 
d="M481 0l-440 1434h313l162 -555l143 -504l310 1005h291l311 -1005l143 504l162 555h309l-434 -1434h-334l-174 543l-129 413l-125 -413l-174 -543h-334zM754 1583l247 268h226l248 -268h-261l-100 115l-98 -115h-262z" />
    <glyph glyph-name="wcircumflex" unicode="&#x175;" horiz-adv-x="1806" 
d="M387 0l-348 1051h299l98 -328l113 -391l231 684h248l232 -686l114 393l96 328h297l-348 -1051h-293l-98 293l-123 364l-125 -364l-98 -293h-295zM543 1217l250 299h221l250 -299h-260l-99 135l-100 -135h-262z" />
    <glyph glyph-name="Ycircumflex" unicode="&#x176;" horiz-adv-x="1400" 
d="M551 0v537l-522 897h344l182 -322l147 -270l152 270l184 322h336l-522 -895v-539h-301zM346 1583l248 268h225l248 -268h-262l-98 115l-99 -115h-262z" />
    <glyph glyph-name="ycircumflex" unicode="&#x177;" horiz-adv-x="1202" 
d="M313 -481q-106 0 -202 35l59 241q52 -18 117 -18q74 0 120.5 34.5t77.5 118.5l9 19l-465 1102h313l197 -510l84 -232l73 232l172 510h306l-447 -1227q-114 -305 -414 -305zM252 1217l250 299h221l250 -299h-262l-99 133l-98 -133h-262z" />
    <glyph glyph-name="Ydieresis" unicode="&#x178;" horiz-adv-x="1400" 
d="M551 0v537l-522 897h344l182 -322l147 -270l152 270l184 322h336l-522 -895v-539h-301zM342 1714q0 69 43.5 113.5t112.5 44.5q68 0 111.5 -44.5t43.5 -113.5t-43.5 -113.5t-111.5 -44.5q-69 0 -112.5 44.5t-43.5 113.5zM760 1714q0 69 43 113.5t112 44.5t112.5 -44.5
t43.5 -113.5t-43.5 -113.5t-112.5 -44.5t-112 44.5t-43 113.5z" />
    <glyph glyph-name="Zacute" unicode="&#x179;" horiz-adv-x="1257" 
d="M512 1583l131 268h311l-204 -268h-238zM98 0v223l676 946l-651 -2v267h1028v-222l-676 -946l703 2v-268h-1080z" />
    <glyph glyph-name="zacute" unicode="&#x17a;" horiz-adv-x="1036" 
d="M385 1217l131 299h305l-205 -299h-231zM88 0v195l502 622l-238 -2h-243v236h833v-187l-496 -624l205 2h312v-242h-875z" />
    <glyph glyph-name="Zdotaccent" unicode="&#x17b;" horiz-adv-x="1257" 
d="M637 1556q-78 0 -126 48t-48 125t48 124.5t126 47.5t126 -47.5t48 -124.5t-48 -125t-126 -48zM98 0v223l676 946l-651 -2v267h1028v-222l-676 -946l703 2v-268h-1080z" />
    <glyph glyph-name="zdotaccent" unicode="&#x17c;" horiz-adv-x="1036" 
d="M516 1171q-78 0 -127 48t-49 124q0 78 49 125.5t127 47.5t127 -47.5t49 -125.5q0 -76 -49 -124t-127 -48zM88 0v195l502 622l-238 -2h-243v236h833v-187l-496 -624l205 2h312v-242h-875z" />
    <glyph glyph-name="Zcaron" unicode="&#x17d;" horiz-adv-x="1257" 
d="M276 1849h263l98 -114l98 114h262l-247 -268h-226zM98 0v223l676 946l-651 -2v267h1028v-222l-676 -946l703 2v-268h-1080z" />
    <glyph glyph-name="zcaron" unicode="&#x17e;" horiz-adv-x="1036" 
d="M156 1516h262l98 -134l98 134h263l-250 -299h-221zM88 0v195l502 622l-238 -2h-243v236h833v-187l-496 -624l205 2h312v-242h-875z" />
    <glyph glyph-name="longs" unicode="&#x17f;" horiz-adv-x="862" 
d="M258 1180q0 172 91 266t259 94q136 0 254 -53l-82 -209q-61 22 -116 22q-119 0 -119 -147v-1153h-287v815h-199v236h199v129z" />
    <glyph glyph-name="uni018F" unicode="&#x18f;" horiz-adv-x="1540" 
d="M760 -27q-223 0 -391 117.5t-244.5 317t-42.5 436.5h1075q-28 163 -147.5 261.5t-296.5 98.5q-245 0 -434 -180l-140 195q113 115 264 178t328 63q214 0 379.5 -93.5t255.5 -262.5t90 -387q0 -215 -88.5 -384.5t-247.5 -264.5t-360 -95zM358 614q25 -171 132 -277
t268 -106q157 0 266.5 105t134.5 278h-801z" />
    <glyph glyph-name="florin" unicode="&#x192;" horiz-adv-x="909" 
d="M55 -489q-134 0 -250 55l93 209q58 -27 110 -27q68 0 108 36t48 99l125 940h-219v228h249l17 129q23 175 123 267.5t268 92.5q136 0 250 -51l-92 -211q-61 25 -111 25q-67 0 -107.5 -36t-48.5 -98l-16 -118h266v-228h-297l-127 -950q-23 -176 -122 -269t-267 -93z" />
    <glyph glyph-name="uni01CD" unicode="&#x1cd;" horiz-adv-x="1507" 
d="M33 0l557 1434h334l551 -1434h-312l-100 272h-614l-103 -272h-313zM395 1849h262l99 -114l98 114h262l-248 -268h-225zM524 506h463l-229 620z" />
    <glyph glyph-name="uni01CE" unicode="&#x1ce;" horiz-adv-x="1191" 
d="M440 -14q-165 0 -265.5 90t-100.5 237q0 163 120 258t326 95q143 0 273 -41v37q0 92 -58 134t-184 42q-143 0 -328 -78l-73 211q119 54 219 77t217 23q229 0 353 -107t124 -305v-659h-258l-4 129q-65 -67 -160.5 -105t-200.5 -38zM223 1516h262l99 -134l98 134h262
l-250 -299h-221zM352 328q0 -61 42.5 -94t123.5 -33q114 0 191 62.5t88 160.5q-140 41 -240 41t-152.5 -35.5t-52.5 -101.5z" />
    <glyph glyph-name="Gcaron" unicode="&#x1e6;" horiz-adv-x="1568" 
d="M846 -27q-170 0 -312 55t-240.5 153t-153 236t-54.5 300q0 212 93 381t263.5 265.5t388.5 96.5q332 0 568 -225l-170 -199q-72 71 -176 111.5t-213 40.5q-201 0 -327 -132t-126 -339q0 -210 126.5 -340.5t340.5 -130.5q200 0 346 98v213h-428v246h692v-592
q-116 -116 -279 -177t-339 -61zM471 1849h262l98 -114l99 114h262l-248 -268h-225z" />
    <glyph glyph-name="gcaron" unicode="&#x1e7;" horiz-adv-x="1306" 
d="M676 -690q-304 0 -463.5 88.5t-159.5 255.5q0 135 97 219q-72 66 -72 170q0 153 147 252q-96 120 -96 289q0 212 139.5 339.5t372.5 127.5h621v-228h-207q96 -107 96 -260q0 -197 -141.5 -319.5t-368.5 -122.5q-136 0 -240 43q-57 -31 -57 -82q0 -37 32 -57.5t108 -32
t223 -17.5q283 -10 414.5 -86t131.5 -227q0 -166 -152.5 -259t-424.5 -93zM295 1516h262l98 -134l99 134h262l-250 -299h-221zM309 -319q0 -72 84.5 -105t268.5 -33q323 0 323 105q0 49 -67.5 71t-229.5 25q-188 3 -330 35q-49 -46 -49 -98zM401 582q0 -103 67 -168.5
t171 -65.5q105 0 172.5 66t67.5 168q0 103 -67 169t-173 66q-104 0 -171 -66t-67 -169z" />
    <glyph glyph-name="AEacute" unicode="&#x1fc;" horiz-adv-x="1994" 
d="M23 0l845 1434h1010v-250h-586v-330h533v-244h-533v-358h611v-252h-895v279h-484l-157 -279h-344zM645 504h363v641zM1047 1583l131 268h311l-205 -268h-237z" />
    <glyph glyph-name="aeacute" unicode="&#x1fd;" horiz-adv-x="1918" 
d="M1364 -27q-141 0 -253 52.5t-185 148.5q-152 -201 -455 -201q-185 0 -291 93.5t-106 246.5q0 163 120 258t324 95q138 0 268 -41v37q0 100 -58.5 142t-178.5 42q-142 0 -326 -86l-76 211q111 56 208.5 81t209.5 25q265 0 385 -168q68 80 167 124t218 44q170 0 297 -89
t183.5 -242t27.5 -336h-786q26 -93 106.5 -148t190.5 -55q177 0 317 117l129 -183q-81 -79 -192 -123.5t-244 -44.5zM352 326q0 -61 42 -93t122 -32q115 0 193 63t84 160q-140 41 -240 41q-97 0 -149 -36t-52 -103zM825 1217l133 299h306l-207 -299h-232zM1051 612h534
q-22 107 -92 170.5t-174 63.5q-102 0 -174 -63.5t-94 -170.5z" />
    <glyph glyph-name="Oslashacute" unicode="&#x1fe;" horiz-adv-x="1679" 
d="M840 -27q-146 0 -271 43l-131 -225l-202 117l126 219q-131 101 -203.5 253.5t-72.5 336.5q0 212 97 382t269.5 265.5t387.5 95.5q146 0 268 -43l131 225l203 -116l-127 -219q131 -101 204.5 -254t73.5 -336q0 -158 -57 -296.5t-156 -236.5t-239 -154.5t-301 -56.5z
M387 717q0 -214 133 -344l457 796q-68 19 -137 19q-198 0 -325.5 -132.5t-127.5 -338.5zM698 266q64 -20 142 -20q195 0 323.5 133.5t128.5 337.5q0 211 -135 346zM715 1583l129 268h311l-205 -268h-235z" />
    <glyph glyph-name="oslashacute" unicode="&#x1ff;" horiz-adv-x="1306" 
d="M342 -162l-174 103l100 159q-92 74 -141 183t-49 243q0 244 160 397.5t415 153.5q113 0 205 -30l105 167l174 -104l-101 -160q91 -73 141 -182t50 -242q0 -246 -159.5 -399.5t-414.5 -153.5q-109 0 -207 31zM358 526q0 -117 66 -202l305 497q-33 8 -76 8q-131 0 -213 -84
t-82 -219zM522 1217l131 299h308l-207 -299h-232zM575 229q33 -8 78 -8q131 0 213 84.5t82 220.5q0 124 -67 203z" />
    <glyph glyph-name="uni0218" unicode="&#x218;" horiz-adv-x="1265" 
d="M643 -18q-159 0 -309 50.5t-266 141.5l137 221q203 -145 436 -145q121 0 187.5 38t66.5 107q0 66 -72.5 114t-247.5 99q-234 66 -343 171.5t-109 269.5q0 180 139.5 291.5t372.5 111.5q143 0 279.5 -47t248.5 -133l-143 -219q-72 61 -176 98t-205 37q-100 0 -158.5 -36
t-58.5 -97t64 -105.5t235 -97.5q249 -74 364 -181.5t115 -269.5q0 -186 -154 -302.5t-403 -116.5zM498 -242q0 62 38 103t101 41q74 0 117 -49t43 -127q0 -160 -170 -308l-84 74q66 75 84 137q-57 3 -93 40t-36 89z" />
    <glyph glyph-name="uni0219" unicode="&#x219;" horiz-adv-x="1017" 
d="M520 -18q-252 0 -459 141l109 207q180 -111 348 -111q77 0 119.5 22.5t42.5 63.5q0 39 -43.5 66t-149.5 55q-198 47 -288 128t-90 210q0 140 104 222.5t293 82.5q239 0 432 -133l-113 -199q-57 44 -144 72.5t-165 28.5q-137 0 -137 -78q0 -39 42 -64.5t154 -52.5
q196 -45 289.5 -128t93.5 -206q0 -150 -119.5 -238.5t-318.5 -88.5zM381 -242q0 62 37.5 103t101.5 41q74 0 117 -49t43 -127q0 -160 -170 -308l-84 74q66 75 84 137q-57 3 -93 40t-36 89z" />
    <glyph glyph-name="uni021A" unicode="&#x21a;" horiz-adv-x="1255" 
d="M477 0v1155h-428v279h1155v-279h-426v-1155h-301zM481 -242q0 62 37 103t100 41q75 0 117.5 -49t42.5 -127q0 -163 -170 -308l-84 74q69 75 84 137q-56 3 -91.5 40t-35.5 89z" />
    <glyph glyph-name="uni021B" unicode="&#x21b;" horiz-adv-x="876" 
d="M592 -16q-178 0 -272.5 100.5t-94.5 284.5v448h-178v234h180l4 249h281v-249h274v-234h-274v-426q0 -145 127 -145q57 0 131 30l72 -239q-117 -53 -250 -53zM418 -242q0 62 37.5 103t101.5 41q74 0 117 -49t43 -127q0 -160 -170 -308l-84 74q66 75 84 137q-57 3 -93 40
t-36 89z" />
    <glyph glyph-name="uni0237" unicode="&#x237;" horiz-adv-x="569" 
d="M63 -489q-115 0 -210 32l55 236q70 -17 112 -17q64 0 91.5 34.5t27.5 113.5v1141h287v-1182q0 -175 -93 -266.5t-270 -91.5z" />
    <glyph glyph-name="uni0259" unicode="&#x259;" horiz-adv-x="1241" 
d="M588 1077q260 0 417.5 -152.5t157.5 -398.5q0 -243 -154 -398t-397 -155q-179 0 -312.5 89t-192.5 242.5t-29 336.5h805q-27 92 -110.5 147.5t-201.5 55.5q-182 0 -321 -117l-129 182q183 168 467 168zM336 438q22 -106 94 -169.5t180 -63.5q105 0 180 63.5t95 169.5
h-549z" />
    <glyph glyph-name="uni02BC" unicode="&#x2bc;" horiz-adv-x="520" 
d="M129 1081q55 59 81.5 111t33.5 117q-64 3 -107 47t-43 108q0 66 44.5 110t111.5 44q81 0 126.5 -58.5t45.5 -160.5q0 -110 -54 -216t-151 -184z" />
    <glyph glyph-name="circumflex" unicode="&#x2c6;" horiz-adv-x="1130" 
d="M205 1217l250 299h221l250 -299h-262l-99 133l-98 -133h-262z" />
    <glyph glyph-name="caron" unicode="&#x2c7;" horiz-adv-x="1130" 
d="M205 1516h262l98 -134l99 134h262l-250 -299h-221z" />
    <glyph glyph-name="breve" unicode="&#x2d8;" horiz-adv-x="1058" 
d="M528 1204q-146 0 -225 70t-98 215l184 37q20 -152 139 -152q122 0 140 152l186 -37q-19 -145 -98.5 -215t-227.5 -70z" />
    <glyph glyph-name="dotaccent" unicode="&#x2d9;" horiz-adv-x="745" 
d="M375 1163q-75 0 -122.5 46.5t-47.5 119.5q0 76 47 122t123 46q77 0 123.5 -46t46.5 -122q0 -74 -47 -120t-123 -46z" />
    <glyph glyph-name="ring" unicode="&#x2da;" horiz-adv-x="948" 
d="M475 1171q-116 0 -193 71.5t-77 178.5q0 109 77 180.5t193 71.5t192 -71.5t76 -180.5q0 -107 -76.5 -178.5t-191.5 -71.5zM381 1421q0 -40 26 -67t68 -27q41 0 67.5 27t26.5 67t-26.5 67.5t-67.5 27.5q-42 0 -68 -27t-26 -68z" />
    <glyph glyph-name="ogonek" unicode="&#x2db;" horiz-adv-x="868" 
d="M440 -463q-108 0 -171.5 58t-63.5 157q0 97 69.5 181.5t196.5 142.5l102 -76q-155 -96 -155 -199q0 -73 71 -73q43 0 91 34l84 -141q-104 -84 -224 -84z" />
    <glyph glyph-name="tilde" unicode="&#x2dc;" horiz-adv-x="1107" 
d="M688 1190q-32 0 -62 12t-83 43q-70 41 -103 41q-56 0 -102 -88l-133 86q76 193 217 193q30 0 59 -11.5t84 -42.5q68 -41 103 -41q30 0 53.5 20t48.5 66l133 -86q-75 -192 -215 -192z" />
    <glyph glyph-name="hungarumlaut" unicode="&#x2dd;" horiz-adv-x="1183" 
d="M557 1217l145 299h277l-199 -299h-223zM205 1217l112 299h279l-172 -299h-219z" />
    <glyph glyph-name="gravecomb" unicode="&#x300;" 
d="M643 1217h-231l-207 299h307z" />
    <glyph glyph-name="acutecomb" unicode="&#x301;" 
d="M205 1217l131 299h307l-207 -299h-231z" />
    <glyph glyph-name="uni0302" unicode="&#x302;" 
d="M205 1217l250 299h221l250 -299h-262l-99 133l-98 -133h-262z" />
    <glyph glyph-name="tildecomb" unicode="&#x303;" 
d="M688 1190q-32 0 -62 12t-83 43q-70 41 -103 41q-56 0 -102 -88l-133 86q76 193 217 193q30 0 59 -11.5t84 -42.5q68 -41 103 -41q30 0 53.5 20t48.5 66l133 -86q-75 -192 -215 -192z" />
    <glyph glyph-name="uni0304" unicode="&#x304;" 
d="M205 1227v186h598v-186h-598z" />
    <glyph glyph-name="uni0306" unicode="&#x306;" 
d="M528 1204q-146 0 -225 70t-98 215l184 37q20 -152 139 -152q122 0 140 152l186 -37q-19 -145 -98.5 -215t-227.5 -70z" />
    <glyph glyph-name="uni0307" unicode="&#x307;" 
d="M381 1171q-78 0 -127 48t-49 124q0 78 49 125.5t127 47.5t127 -47.5t49 -125.5q0 -76 -49 -124t-127 -48z" />
    <glyph glyph-name="uni0308" unicode="&#x308;" 
d="M768 1182q-66 0 -110 43t-44 110t44 110.5t110 43.5q68 0 111 -43.5t43 -110.5t-43 -110t-111 -43zM205 1335q0 68 43 111t110 43q66 0 109 -43.5t43 -110.5t-43 -110t-109 -43q-68 0 -110.5 43t-42.5 110z" />
    <glyph glyph-name="uni030A" unicode="&#x30a;" 
d="M475 1171q-116 0 -193 71.5t-77 178.5q0 109 77 180.5t193 71.5t192 -71.5t76 -180.5q0 -107 -76.5 -178.5t-191.5 -71.5zM381 1421q0 -40 26 -67t68 -27q41 0 67.5 27t26.5 67t-26.5 67.5t-67.5 27.5q-42 0 -68 -27t-26 -68z" />
    <glyph glyph-name="uni030B" unicode="&#x30b;" 
d="M557 1217l145 299h277l-199 -299h-223zM205 1217l112 299h279l-172 -299h-219z" />
    <glyph glyph-name="uni030C" unicode="&#x30c;" 
d="M205 1516h262l98 -134l99 134h262l-250 -299h-221z" />
    <glyph glyph-name="uni0312" unicode="&#x312;" 
d="M457 1575q-66 -75 -84 -137q57 -3 93 -40t36 -89q0 -62 -38 -103t-102 -41q-73 0 -115 49t-42 127q0 163 170 308z" />
    <glyph glyph-name="uni0326" unicode="&#x326;" 
d="M250 -508q66 75 84 137q-57 3 -93 40t-36 89q0 62 37.5 103t101.5 41q74 0 116 -49t42 -127q0 -163 -170 -308z" />
    <glyph glyph-name="uni0327" unicode="&#x327;" 
d="M449 -498q-131 0 -244 76l82 139q65 -45 141 -45q94 0 94 62q0 76 -155 51l-45 43l53 223h172l-27 -131q91 -3 148 -57.5t57 -141.5q0 -100 -76 -159.5t-200 -59.5z" />
    <glyph glyph-name="uni0328" unicode="&#x328;" 
d="M440 -463q-108 0 -171.5 58t-63.5 157q0 97 69.5 181.5t196.5 142.5l102 -76q-155 -96 -155 -199q0 -73 71 -73q43 0 91 34l84 -141q-104 -84 -224 -84z" />
    <glyph glyph-name="uni0394" unicode="&#x394;" horiz-adv-x="1511" 
d="M33 0l559 1434h334l553 -1434h-1446zM422 236h665l-331 905z" />
    <glyph glyph-name="uni03A9" unicode="&#x3a9;" horiz-adv-x="1742" 
d="M88 0v246h231q-93 87 -143.5 212t-50.5 273q0 155 56 290.5t153.5 232t236.5 151.5t299 55q161 0 300.5 -55t238 -151.5t155 -232t56.5 -290.5q0 -146 -51.5 -271.5t-143.5 -213.5h230v-246h-676v229q165 64 251.5 186t86.5 290q0 213 -125 346t-322 133
q-196 0 -320 -133t-124 -346q0 -168 86.5 -290t251.5 -186v-229h-676z" />
    <glyph glyph-name="uni03BC" unicode="&#x3bc;" horiz-adv-x="1300" 
d="M141 -471v1522h287v-566q0 -116 57.5 -179.5t161.5 -63.5t165.5 65.5t61.5 177.5v566h287v-1051h-266l-2 113q-92 -111 -250 -111q-132 0 -223 78v-551h-279z" />
    <glyph glyph-name="pi" unicode="&#x3c0;" horiz-adv-x="1361" 
d="M1167 -23q-159 0 -250.5 88t-91.5 267v459h-331v-791h-287v791h-160v260h1225v-260h-162v-424q0 -73 28.5 -105.5t86.5 -32.5q26 0 61 7l39 -238q-86 -21 -158 -21z" />
    <glyph glyph-name="uni0400" unicode="&#x400;" horiz-adv-x="1220" 
d="M158 0v1434h946v-252h-651v-334h598v-248h-598v-344h675v-256h-970zM330 1851h311l129 -268h-235z" />
    <glyph glyph-name="uni0401" unicode="&#x401;" horiz-adv-x="1220" 
d="M158 0v1434h946v-252h-651v-334h598v-248h-598v-344h675v-256h-970zM279 1714q0 69 43.5 113.5t111.5 44.5q69 0 112.5 -44.5t43.5 -113.5t-43.5 -113.5t-112.5 -44.5q-68 0 -111.5 44.5t-43.5 113.5zM698 1714q0 69 43.5 113.5t112.5 44.5t112.5 -44.5t43.5 -113.5
t-43.5 -113.5t-112.5 -44.5t-112.5 44.5t-43.5 113.5z" />
    <glyph glyph-name="uni0402" unicode="&#x402;" horiz-adv-x="1705" 
d="M1165 -16q-140 0 -291 65l89 240q102 -45 176 -45q91 0 140.5 55t49.5 147q0 105 -68.5 160.5t-195.5 55.5q-141 0 -293 -70v-592h-299v1161h-424v273h1262v-263h-541v-315q162 64 330 64q246 0 387 -124.5t141 -342.5q0 -213 -125.5 -341t-337.5 -128z" />
    <glyph glyph-name="uni0403" unicode="&#x403;" horiz-adv-x="1099" 
d="M158 0v1434h899v-279h-598v-1155h-301zM479 1583l131 268h312l-205 -268h-238z" />
    <glyph glyph-name="uni0404" unicode="&#x404;" horiz-adv-x="1484" 
d="M819 -27q-161 0 -297.5 55t-232 152.5t-149.5 236t-54 300.5q0 161 53.5 299t148 235.5t229 153t290.5 55.5q174 0 328 -68t274 -198l-182 -193q-79 92 -183 140.5t-219 48.5q-162 0 -277 -94t-151 -250h693v-248h-695q32 -162 149.5 -258t286.5 -96q125 0 234.5 50.5
t194.5 147.5l182 -192q-122 -134 -281.5 -205.5t-341.5 -71.5z" />
    <glyph glyph-name="uni0405" unicode="&#x405;" horiz-adv-x="1265" 
d="M643 -18q-159 0 -309 50.5t-266 141.5l137 221q203 -145 436 -145q121 0 187.5 38t66.5 107q0 66 -72.5 114t-247.5 99q-234 66 -343 171.5t-109 269.5q0 180 139.5 291.5t372.5 111.5q143 0 279.5 -47t248.5 -133l-143 -219q-72 61 -176 98t-205 37q-100 0 -158.5 -36
t-58.5 -97t64 -105.5t235 -97.5q249 -74 364 -181.5t115 -269.5q0 -186 -154 -302.5t-403 -116.5z" />
    <glyph glyph-name="uni0406" unicode="&#x406;" horiz-adv-x="614" 
d="M158 0v1434h301v-1434h-301z" />
    <glyph glyph-name="uni0407" unicode="&#x407;" horiz-adv-x="614" 
d="M158 0v1434h301v-1434h-301zM-57 1714q0 69 43 113.5t112 44.5t112.5 -44.5t43.5 -113.5t-43.5 -113.5t-112.5 -44.5t-112 44.5t-43 113.5zM360 1714q0 69 44 113.5t112 44.5q69 0 112.5 -44.5t43.5 -113.5t-43.5 -113.5t-112.5 -44.5q-68 0 -112 44.5t-44 113.5z" />
    <glyph glyph-name="uni0408" unicode="&#x408;" horiz-adv-x="989" 
d="M356 -25q-171 0 -346 88l109 240q106 -53 215 -53t160 72t51 223v889h301v-912q0 -268 -122.5 -407.5t-367.5 -139.5z" />
    <glyph glyph-name="uni0409" unicode="&#x409;" horiz-adv-x="2234" 
d="M25 262q161 32 218.5 104t69.5 255l60 813h1016v-469h264q241 0 383.5 -131t142.5 -351q0 -223 -141.5 -353t-384.5 -130h-566v1153h-436l-41 -573q-19 -275 -139.5 -414.5t-374.5 -179.5zM1384 262h240q124 0 190 57.5t66 165.5q0 107 -66 164.5t-190 57.5h-240v-445z
" />
    <glyph glyph-name="uni040A" unicode="&#x40a;" horiz-adv-x="2195" 
d="M1047 0v590h-588v-590h-301v1434h301v-564h588v564h301v-469h264q241 0 383.5 -131t142.5 -351q0 -223 -141.5 -353t-384.5 -130h-565zM1346 262h237q127 0 191.5 58.5t64.5 164.5t-64.5 164t-191.5 58h-237v-445z" />
    <glyph glyph-name="uni040B" unicode="&#x40b;" horiz-adv-x="1716" 
d="M1305 348q0 149 -63.5 221t-192.5 72q-144 0 -275 -61v-580h-301v1161h-424v273h1237v-269h-514v-313q148 59 311 59q247 0 385 -138t138 -386v-387h-301v348z" />
    <glyph glyph-name="uni040C" unicode="&#x40c;" horiz-adv-x="1361" 
d="M979 0l-397 588h-123v-588h-301v1434h301v-576h119l385 576h358l-481 -703l499 -731h-360zM582 1583l131 268h311l-205 -268h-237z" />
    <glyph glyph-name="uni040D" unicode="&#x40d;" horiz-adv-x="1550" 
d="M158 0v1434h295v-940l680 940h260v-1434h-297v938l-678 -938h-260zM471 1851h311l129 -268h-235z" />
    <glyph glyph-name="uni040E" unicode="&#x40e;" horiz-adv-x="1396" 
d="M401 -25q-131 0 -229 39l66 265q73 -25 135 -25q68 0 113.5 30t74.5 95l-528 1055h334l153 -318l201 -418l182 418l139 318h328l-549 -1178q-69 -149 -167.5 -215t-252.5 -66zM383 1827l199 39q15 -119 123 -119q55 0 85 29t39 90l197 -39q-17 -129 -96 -192.5
t-225 -63.5q-145 0 -224 63.5t-98 192.5z" />
    <glyph glyph-name="uni040F" unicode="&#x40f;" horiz-adv-x="1521" 
d="M901 0v-326h-278v326h-465v1434h301v-1153h604v1153h301v-1434h-463z" />
    <glyph glyph-name="uni0410" unicode="&#x410;" horiz-adv-x="1507" 
d="M33 0l557 1434h334l551 -1434h-312l-100 272h-614l-103 -272h-313zM524 506h463l-229 620z" />
    <glyph glyph-name="uni0411" unicode="&#x411;" horiz-adv-x="1312" 
d="M158 0v1434h981v-260h-686v-271h286q229 0 366.5 -122.5t137.5 -327.5q0 -207 -137 -330t-367 -123h-581zM453 248h252q116 0 180.5 54t64.5 151q0 95 -65 149.5t-180 54.5h-252v-409z" />
    <glyph glyph-name="uni0412" unicode="&#x412;" horiz-adv-x="1339" 
d="M158 0v1434h624q194 0 312 -106t118 -279q0 -191 -157 -306q95 -52 150 -143.5t55 -204.5q0 -174 -125 -284.5t-322 -110.5h-655zM449 240h303q101 0 158 49.5t57 136.5q0 86 -57 135t-158 49h-303v-370zM449 842h282q90 0 142.5 48t52.5 128t-52.5 128t-142.5 48h-282
v-352z" />
    <glyph glyph-name="uni0413" unicode="&#x413;" horiz-adv-x="1099" 
d="M158 0v1434h899v-279h-598v-1155h-301z" />
    <glyph glyph-name="uni0414" unicode="&#x414;" horiz-adv-x="1673" 
d="M43 -326v607h172q62 54 94.5 148.5t44.5 275.5l52 729h995v-1153h219v-607h-279v326h-1017v-326h-281zM551 270h551v889h-416l-33 -481q-17 -264 -102 -408z" />
    <glyph glyph-name="uni0415" unicode="&#x415;" horiz-adv-x="1220" 
d="M158 0v1434h946v-252h-651v-334h598v-248h-598v-344h675v-256h-970z" />
    <glyph glyph-name="uni0416" unicode="&#x416;" horiz-adv-x="2056" 
d="M1681 0l-376 588h-129v-588h-295v588h-127l-377 -588h-357l480 731l-461 703h352l367 -576h123v576h295v-576h122l367 576h352l-461 -705l480 -729h-355z" />
    <glyph glyph-name="uni0417" unicode="&#x417;" horiz-adv-x="1265" 
d="M637 -18q-311 0 -559 196l149 213q177 -139 396 -139q133 0 200.5 46t67.5 132q0 81 -59 126.5t-164 45.5h-287v254h266q92 0 144.5 45t52.5 123q0 76 -61.5 119t-172.5 43q-194 0 -366 -135l-148 206q233 195 531 195q240 0 375 -105t135 -284q0 -199 -162 -324
q100 -54 155.5 -146t55.5 -202q0 -186 -143 -297.5t-406 -111.5z" />
    <glyph glyph-name="uni0418" unicode="&#x418;" horiz-adv-x="1550" 
d="M158 0v1434h295v-940l680 940h260v-1434h-297v938l-678 -938h-260z" />
    <glyph glyph-name="uni0419" unicode="&#x419;" horiz-adv-x="1550" 
d="M158 0v1434h295v-940l680 940h260v-1434h-297v938l-678 -938h-260zM465 1827l199 39q15 -119 122 -119t125 119l197 -39q-17 -129 -96 -192.5t-226 -63.5q-145 0 -223.5 63.5t-97.5 192.5z" />
    <glyph glyph-name="uni041A" unicode="&#x41a;" horiz-adv-x="1361" 
d="M979 0l-397 588h-123v-588h-301v1434h301v-576h119l385 576h358l-481 -703l499 -731h-360z" />
    <glyph glyph-name="uni041B" unicode="&#x41b;" horiz-adv-x="1566" 
d="M25 254q88 23 140 47.5t86.5 67.5t49 100t21.5 152l57 813h1032v-1434h-301v1153h-453l-39 -573q-20 -278 -144 -416.5t-378 -177.5z" />
    <glyph glyph-name="uni041C" unicode="&#x41c;" horiz-adv-x="1802" 
d="M827 436l-370 512v-948h-299v1434h266l475 -650l477 650h269v-1434h-299v950l-373 -514h-146z" />
    <glyph glyph-name="uni041D" unicode="&#x41d;" horiz-adv-x="1521" 
d="M1063 0v590h-604v-590h-301v1434h301v-564h604v564h301v-1434h-301z" />
    <glyph glyph-name="uni041E" unicode="&#x41e;" horiz-adv-x="1679" 
d="M840 -27q-216 0 -388.5 96t-269 266t-96.5 382t97 382t269.5 265.5t387.5 95.5q161 0 301 -56t239.5 -154t156 -236t56.5 -297t-56.5 -297.5t-156 -236.5t-239.5 -154t-301 -56zM393 717q0 -203 125.5 -333t321.5 -130q195 0 320.5 130.5t125.5 332.5t-125.5 332.5
t-320.5 130.5q-196 0 -321.5 -130t-125.5 -333z" />
    <glyph glyph-name="uni041F" unicode="&#x41f;" horiz-adv-x="1521" 
d="M1063 0v1153h-604v-1153h-301v1434h1206v-1434h-301z" />
    <glyph glyph-name="uni0420" unicode="&#x420;" horiz-adv-x="1284" 
d="M158 0v1434h551q244 0 388 -136.5t144 -367.5q0 -228 -144 -365t-388 -137h-250v-428h-301zM455 688h225q122 0 191 64t69 176q0 114 -69 177.5t-191 63.5h-225v-481z" />
    <glyph glyph-name="uni0421" unicode="&#x421;" horiz-adv-x="1484" 
d="M813 -27q-215 0 -381.5 96.5t-256 265.5t-89.5 382q0 156 52 293t145 236.5t228.5 156.5t295.5 57q354 0 604 -293l-194 -192q-73 98 -177 151.5t-221 53.5q-190 0 -308 -129.5t-118 -333.5q0 -206 119 -334.5t315 -128.5q128 0 236.5 55.5t187.5 159.5l193 -190
q-117 -151 -279.5 -228.5t-351.5 -77.5z" />
    <glyph glyph-name="uni0422" unicode="&#x422;" horiz-adv-x="1255" 
d="M477 0v1155h-428v279h1155v-279h-426v-1155h-301z" />
    <glyph glyph-name="uni0423" unicode="&#x423;" horiz-adv-x="1396" 
d="M401 -25q-131 0 -229 39l66 265q73 -25 135 -25q68 0 113.5 30t74.5 95l-528 1055h334l153 -318l201 -418l182 418l139 318h328l-549 -1178q-69 -149 -167.5 -215t-252.5 -66z" />
    <glyph glyph-name="uni0424" unicode="&#x424;" horiz-adv-x="1761" 
d="M733 -131v209q-289 20 -468 193.5t-179 445.5t179 445.5t470 193.5v205h291v-205q291 -21 470 -193.5t179 -445.5q0 -272 -179 -445.5t-468 -193.5v-209h-295zM381 717q0 -156 97.5 -253.5t260.5 -115.5v737q-163 -18 -260.5 -115t-97.5 -253zM1022 348q164 18 261 115.5
t97 253.5t-97 253t-261 115v-737z" />
    <glyph glyph-name="uni0425" unicode="&#x425;" horiz-adv-x="1388" 
d="M23 0l489 739l-453 695h349l155 -240l137 -221l136 221l151 240h346l-450 -697l481 -737h-348l-150 236l-170 272l-170 -272l-151 -236h-352z" />
    <glyph glyph-name="uni0426" unicode="&#x426;" horiz-adv-x="1634" 
d="M1303 -326v326h-1145v1434h301v-1155h604v1155h301v-1153h219v-607h-280z" />
    <glyph glyph-name="uni0427" unicode="&#x427;" horiz-adv-x="1406" 
d="M637 436q-257 0 -401 143t-144 398v457h301v-420q0 -151 67.5 -224t203.5 -73q145 0 284 59v658h303v-1434h-303v492q-163 -56 -311 -56z" />
    <glyph glyph-name="uni0428" unicode="&#x428;" horiz-adv-x="2363" 
d="M158 0v1434h301v-1153h573v1153h299v-1153h576v1153h301v-1434h-2050z" />
    <glyph glyph-name="uni0429" unicode="&#x429;" horiz-adv-x="2478" 
d="M2144 -326v326h-1986v1434h301v-1155h573v1155h299v-1155h576v1155h301v-1153h217v-607h-281z" />
    <glyph glyph-name="uni042A" unicode="&#x42a;" horiz-adv-x="1595" 
d="M434 0v1157h-387v277h688v-469h279q239 0 382.5 -131t143.5 -351q0 -223 -142 -353t-384 -130h-580zM731 262h252q127 0 192.5 58.5t65.5 164.5t-65.5 164t-192.5 58h-252v-445z" />
    <glyph glyph-name="uni042B" unicode="&#x42b;" horiz-adv-x="1933" 
d="M158 0v1434h301v-469h278q239 0 383 -131t144 -351q0 -222 -142.5 -352.5t-384.5 -130.5h-579zM455 262h252q127 0 192.5 58.5t65.5 164.5t-65.5 164t-192.5 58h-252v-445zM1477 0v1434h301v-1434h-301z" />
    <glyph glyph-name="uni042C" unicode="&#x42c;" horiz-adv-x="1318" 
d="M158 0v1434h301v-469h278q239 0 383 -131t144 -351q0 -222 -142.5 -352.5t-384.5 -130.5h-579zM455 262h252q127 0 192.5 58.5t65.5 164.5t-65.5 164t-192.5 58h-252v-445z" />
    <glyph glyph-name="uni042D" unicode="&#x42d;" horiz-adv-x="1484" 
d="M666 -27q-182 0 -341.5 71.5t-281.5 205.5l182 192q173 -198 428 -198q169 0 287 96t150 258h-695v248h692q-36 156 -151 250t-277 94q-115 0 -218.5 -48.5t-182.5 -140.5l-182 193q120 130 274 198t328 68q156 0 290.5 -55.5t229 -153t148 -235.5t53.5 -299
q0 -162 -54 -300.5t-149.5 -236t-232 -152.5t-297.5 -55z" />
    <glyph glyph-name="uni042E" unicode="&#x42e;" horiz-adv-x="2211" 
d="M1389 -27q-287 0 -487 172t-240 445h-203v-590h-301v1434h301v-564h207q48 263 246 426.5t477 163.5q211 0 379.5 -95.5t263 -265.5t94.5 -382t-94.5 -382t-263 -266t-379.5 -96zM942 717q0 -203 123 -333t315 -130t315.5 130.5t123.5 332.5t-123.5 332.5t-315.5 130.5
t-315 -130t-123 -333z" />
    <glyph glyph-name="uni042F" unicode="&#x42f;" horiz-adv-x="1376" 
d="M920 0v481h-238l-279 -481h-342l320 530q-130 56 -203.5 168t-73.5 260q0 211 146.5 343.5t378.5 132.5h592v-1434h-301zM406 948q0 -106 64.5 -165.5t182.5 -59.5h273v453h-273q-118 0 -182.5 -60t-64.5 -168z" />
    <glyph glyph-name="uni0430" unicode="&#x430;" horiz-adv-x="1191" 
d="M440 -14q-165 0 -265.5 90t-100.5 237q0 163 120 258t326 95q143 0 273 -41v37q0 92 -58 134t-184 42q-143 0 -328 -78l-73 211q119 54 219 77t217 23q229 0 353 -107t124 -305v-659h-258l-4 129q-65 -67 -160.5 -105t-200.5 -38zM352 328q0 -61 42.5 -94t123.5 -33
q114 0 191 62.5t88 160.5q-140 41 -240 41t-152.5 -35.5t-52.5 -101.5z" />
    <glyph glyph-name="uni0431" unicode="&#x431;" horiz-adv-x="1302" 
d="M659 -27q-272 0 -424.5 178t-152.5 515q0 216 36 367.5t116 254t196.5 161t288.5 89.5q166 29 246.5 49.5t144.5 50.5l90 -233q-78 -43 -163 -68t-265 -55q-214 -36 -303.5 -121t-108.5 -258q138 150 361 150q224 0 364 -149t140 -386q0 -239 -159 -392t-407 -153z
M367 520q0 -129 80.5 -211t207.5 -82q126 0 206.5 82t80.5 211q0 130 -80.5 211.5t-206.5 81.5q-128 0 -208 -81.5t-80 -211.5z" />
    <glyph glyph-name="uni0432" unicode="&#x432;" horiz-adv-x="1148" 
d="M141 0v1051h553q158 0 253 -74t95 -197q0 -72 -33.5 -133t-93.5 -98q74 -33 118 -101t44 -153q0 -132 -100.5 -213.5t-263.5 -81.5h-572zM416 199h250q68 0 103.5 31t35.5 89q0 121 -139 121h-250v-241zM416 629h231q64 0 97.5 29.5t33.5 82.5q0 54 -33.5 83.5
t-97.5 29.5h-231v-225z" />
    <glyph glyph-name="uni0433" unicode="&#x433;" horiz-adv-x="921" 
d="M141 0v1051h742v-260h-455v-791h-287z" />
    <glyph glyph-name="uni0434" unicode="&#x434;" horiz-adv-x="1404" 
d="M39 -299v559h133q43 42 66.5 108t33.5 181l39 502h865v-791h182v-559h-264v299h-787v-299h-268zM485 254h412v549h-324l-22 -279q-14 -162 -66 -270z" />
    <glyph glyph-name="uni0435" unicode="&#x435;" horiz-adv-x="1241" 
d="M653 -27q-260 0 -417.5 152.5t-157.5 398.5q0 243 154 398t397 155q179 0 312.5 -89t192.5 -242t29 -336h-805q27 -92 110.5 -147.5t201.5 -55.5q182 0 321 117l129 -183q-183 -168 -467 -168zM356 612h549q-22 106 -94.5 170t-179.5 64q-105 0 -180 -64t-95 -170z" />
    <glyph glyph-name="uni0436" unicode="&#x436;" horiz-adv-x="1726" 
d="M1370 0l-262 418h-104v-418h-281v418h-105l-262 -418h-338l355 543l-334 508h332l241 -385h111v385h281v-385h110l242 385h332l-334 -508l354 -543h-338z" />
    <glyph glyph-name="uni0437" unicode="&#x437;" horiz-adv-x="1036" 
d="M504 -20q-279 0 -459 155l127 189q144 -107 315 -107q96 0 146.5 28t50.5 81q0 47 -43 72.5t-119 25.5h-213v221h197q67 0 104 25t37 69q0 99 -168 99q-150 0 -291 -97l-120 187q197 143 444 143q200 0 307 -83.5t107 -211.5q0 -136 -125 -225q78 -35 121 -99.5
t43 -146.5q0 -150 -124 -237.5t-337 -87.5z" />
    <glyph glyph-name="uni0438" unicode="&#x438;" horiz-adv-x="1314" 
d="M141 0v1051h283v-635l500 635h250v-1051h-281v637l-502 -637h-250z" />
    <glyph glyph-name="uni0439" unicode="&#x439;" horiz-adv-x="1314" 
d="M141 0v1051h283v-635l500 635h250v-1051h-281v637l-502 -637h-250zM334 1489l184 37q20 -152 139 -152q122 0 140 152l186 -37q-19 -145 -98.5 -215t-227.5 -70q-146 0 -225 70t-98 215z" />
    <glyph glyph-name="uni043A" unicode="&#x43a;" horiz-adv-x="1167" 
d="M809 0l-277 418h-104v-418h-287v1051h287v-385h111l256 385h333l-352 -508l373 -543h-340z" />
    <glyph glyph-name="uni043B" unicode="&#x43b;" horiz-adv-x="1300" 
d="M23 236q92 23 137 49t68 74.5t30 140.5l47 551h856v-1051h-287v793h-307l-26 -334q-19 -221 -120.5 -327.5t-334.5 -147.5z" />
    <glyph glyph-name="uni043C" unicode="&#x43c;" horiz-adv-x="1509" 
d="M692 279l-268 354v-633h-283v1051h260l353 -469l354 469h258v-1051h-283v629l-264 -350h-127z" />
    <glyph glyph-name="uni043D" unicode="&#x43d;" horiz-adv-x="1296" 
d="M866 0v410h-438v-410h-287v1051h287v-379h438v379h287v-1051h-287z" />
    <glyph glyph-name="uni043E" unicode="&#x43e;" horiz-adv-x="1306" 
d="M653 -27q-255 0 -415 153.5t-160 399.5q0 244 160 397.5t415 153.5t414.5 -153t159.5 -398q0 -246 -159.5 -399.5t-414.5 -153.5zM362 526q0 -133 81.5 -216t209.5 -83t209.5 83t81.5 216t-81.5 215t-209.5 82t-209.5 -82t-81.5 -215z" />
    <glyph glyph-name="uni043F" unicode="&#x43f;" horiz-adv-x="1296" 
d="M866 0v793h-438v-793h-287v1051h1012v-1051h-287z" />
    <glyph glyph-name="uni0440" unicode="&#x440;" horiz-adv-x="1363" 
d="M782 -25q-219 0 -354 148v-594h-287v1522h271l2 -146q67 81 161.5 125.5t206.5 44.5q220 0 362 -154t142 -395q0 -242 -142 -396.5t-362 -154.5zM424 526q0 -132 81.5 -215.5t207.5 -83.5q128 0 208 83t80 216q0 132 -80 214.5t-208 82.5q-126 0 -207.5 -83.5
t-81.5 -213.5z" />
    <glyph glyph-name="uni0441" unicode="&#x441;" horiz-adv-x="1132" 
d="M631 -27q-241 0 -397 155.5t-156 397.5q0 240 155.5 395.5t399.5 155.5q134 0 248 -48.5t190 -137.5l-164 -180q-50 53 -119.5 82.5t-142.5 29.5q-124 0 -203.5 -83t-79.5 -214q0 -133 78 -216t207 -83q82 0 154 34t121 97l174 -170q-79 -105 -198.5 -160t-266.5 -55z
" />
    <glyph glyph-name="uni0442" unicode="&#x442;" horiz-adv-x="1071" 
d="M393 0v791h-348v260h983v-260h-348v-791h-287z" />
    <glyph glyph-name="uni0443" unicode="&#x443;" horiz-adv-x="1202" 
d="M313 -481q-106 0 -202 35l59 241q52 -18 117 -18q74 0 120.5 34.5t77.5 118.5l9 19l-465 1102h313l197 -510l84 -232l73 232l172 510h306l-447 -1227q-114 -305 -414 -305z" />
    <glyph glyph-name="uni0444" unicode="&#x444;" horiz-adv-x="1533" 
d="M625 -471v446q-248 19 -397.5 169.5t-149.5 381.5t149.5 380.5t397.5 168.5v441h282v-441q248 -19 398.5 -168.5t150.5 -380.5t-150.5 -381.5t-398.5 -169.5v-446h-282zM358 526q0 -122 74.5 -203t200.5 -96v598q-126 -15 -200.5 -96t-74.5 -203zM901 227
q126 15 200.5 96t74.5 203t-74.5 203t-200.5 96v-598z" />
    <glyph glyph-name="uni0445" unicode="&#x445;" horiz-adv-x="1118" 
d="M776 0l-123 184l-94 150l-96 -150l-125 -184h-318l363 530l-344 521h315l123 -187l82 -133l82 133l121 187h315l-342 -521l363 -530h-322z" />
    <glyph glyph-name="uni0446" unicode="&#x446;" horiz-adv-x="1388" 
d="M1077 -299v299h-936v1051h287v-793h438v793h287v-791h186v-559h-262z" />
    <glyph glyph-name="uni0447" unicode="&#x447;" horiz-adv-x="1191" 
d="M530 291q-216 0 -331 115t-115 331v314h287v-281q0 -112 48.5 -165.5t149.5 -53.5q94 0 197 41v459h287v-1051h-287v330q-110 -39 -236 -39z" />
    <glyph glyph-name="uni0448" unicode="&#x448;" horiz-adv-x="1978" 
d="M141 0v1051h287v-793h422v793h280v-793h420v793h287v-1051h-1696z" />
    <glyph glyph-name="uni0449" unicode="&#x449;" horiz-adv-x="2070" 
d="M1759 -299v299h-1618v1051h287v-793h422v793h280v-793h420v793h287v-791h186v-559h-264z" />
    <glyph glyph-name="uni044A" unicode="&#x44a;" horiz-adv-x="1333" 
d="M344 0v791h-301v260h588v-293h225q205 0 317.5 -100t112.5 -279q0 -180 -112.5 -279.5t-317.5 -99.5h-512zM627 229h204q84 0 128.5 39.5t44.5 112.5q0 72 -44.5 111.5t-128.5 39.5h-204v-303z" />
    <glyph glyph-name="uni044B" unicode="&#x44b;" horiz-adv-x="1703" 
d="M141 0v1051h287v-293h227q204 0 317 -100.5t113 -278.5q0 -180 -112.5 -279.5t-317.5 -99.5h-514zM426 229h201q87 0 131.5 39.5t44.5 112.5t-44.5 112t-131.5 39h-201v-303zM1274 0v1051h287v-1051h-287z" />
    <glyph glyph-name="uni044C" unicode="&#x44c;" horiz-adv-x="1132" 
d="M141 0v1051h287v-293h227q204 0 317 -100.5t113 -278.5q0 -180 -112.5 -279.5t-317.5 -99.5h-514zM426 229h201q87 0 131.5 39.5t44.5 112.5t-44.5 112t-131.5 39h-201v-303z" />
    <glyph glyph-name="uni044D" unicode="&#x44d;" horiz-adv-x="1134" 
d="M502 -27q-290 0 -463 197l162 168q50 -58 123 -90.5t155 -32.5q112 0 188.5 55t102.5 152h-446v211h446q-30 95 -105.5 149t-181.5 54q-74 0 -144 -27.5t-122 -77.5l-149 178q174 168 434 168q245 0 400 -154.5t155 -396.5t-156 -397.5t-399 -155.5z" />
    <glyph glyph-name="uni044E" unicode="&#x44e;" horiz-adv-x="1806" 
d="M1165 -27q-217 0 -364.5 117t-184.5 313h-188v-403h-287v1051h287v-385h190q42 189 188.5 300t358.5 111q250 0 407 -153t157 -398q0 -246 -156.5 -399.5t-407.5 -153.5zM868 526q0 -133 80.5 -216t208.5 -83t208.5 83t80.5 216q0 132 -80.5 214.5t-208.5 82.5
t-208.5 -82.5t-80.5 -214.5z" />
    <glyph glyph-name="uni044F" unicode="&#x44f;" horiz-adv-x="1177" 
d="M748 0v328h-185l-188 -328h-320l228 375q-92 45 -141.5 125.5t-49.5 189.5q0 166 114.5 263.5t311.5 97.5h516v-1051h-286zM373 682q0 -68 45.5 -106.5t126.5 -38.5h207v290h-207q-81 0 -126.5 -38.5t-45.5 -106.5z" />
    <glyph glyph-name="uni0450" unicode="&#x450;" horiz-adv-x="1241" 
d="M653 -27q-260 0 -417.5 152.5t-157.5 398.5q0 243 154 398t397 155q179 0 312.5 -89t192.5 -242t29 -336h-805q27 -92 110.5 -147.5t201.5 -55.5q182 0 321 117l129 -183q-183 -168 -467 -168zM324 1516h307l131 -299h-232zM356 612h549q-22 106 -94.5 170t-179.5 64
q-105 0 -180 -64t-95 -170z" />
    <glyph glyph-name="uni0451" unicode="&#x451;" horiz-adv-x="1241" 
d="M653 -27q-260 0 -417.5 152.5t-157.5 398.5q0 243 154 398t397 155q179 0 312.5 -89t192.5 -242t29 -336h-805q27 -92 110.5 -147.5t201.5 -55.5q182 0 321 117l129 -183q-183 -168 -467 -168zM272 1335q0 67 43 110.5t111 43.5q66 0 109 -43.5t43 -110.5t-43 -110
t-109 -43q-68 0 -111 43t-43 110zM356 612h549q-22 106 -94.5 170t-179.5 64q-105 0 -180 -64t-95 -170zM682 1335q0 67 43 110.5t111 43.5q67 0 110 -43t43 -111q0 -67 -42.5 -110t-110.5 -43t-111 43t-43 110z" />
    <glyph glyph-name="uni0452" unicode="&#x452;" horiz-adv-x="1316" 
d="M827 -489q-114 0 -206 32l55 230q58 -15 108 -15q63 0 90 34t27 112v667q0 113 -52 172.5t-151 59.5q-113 0 -177 -68t-64 -186v-549h-287v1165h-186v187h186v164h287v-164h295v-185h-295v-247q132 141 329 141q182 0 292 -116.5t110 -305.5v-770q0 -175 -92 -266.5
t-269 -91.5z" />
    <glyph glyph-name="uni0453" unicode="&#x453;" horiz-adv-x="921" 
d="M141 0v1051h742v-260h-455v-791h-287zM373 1217l131 299h307l-207 -299h-231z" />
    <glyph glyph-name="uni0454" unicode="&#x454;" horiz-adv-x="1134" 
d="M633 -27q-243 0 -399 155.5t-156 397.5t155 396.5t400 154.5q260 0 434 -168l-149 -178q-52 50 -122.5 77.5t-144.5 27.5q-106 0 -181 -54t-105 -149h446v-211h-446q26 -97 102 -152t188 -55q82 0 155.5 32.5t123.5 90.5l162 -168q-173 -197 -463 -197z" />
    <glyph glyph-name="uni0455" unicode="&#x455;" horiz-adv-x="1017" 
d="M520 -18q-252 0 -459 141l109 207q180 -111 348 -111q77 0 119.5 22.5t42.5 63.5q0 39 -43.5 66t-149.5 55q-198 47 -288 128t-90 210q0 140 104 222.5t293 82.5q239 0 432 -133l-113 -199q-57 44 -144 72.5t-165 28.5q-137 0 -137 -78q0 -39 42 -64.5t154 -52.5
q196 -45 289.5 -128t93.5 -206q0 -150 -119.5 -238.5t-318.5 -88.5z" />
    <glyph glyph-name="uni0456" unicode="&#x456;" horiz-adv-x="571" 
d="M141 0v1051h287v-1051h-287zM100 1360q0 82 51 131t134 49q84 0 135 -49.5t51 -130.5q0 -82 -51.5 -132t-134.5 -50t-134 50t-51 132z" />
    <glyph glyph-name="uni0457" unicode="&#x457;" horiz-adv-x="571" 
d="M141 0v1051h287v-1051h-287zM-57 1335q0 68 41.5 111t107.5 43q65 0 106.5 -43.5t41.5 -110.5q0 -66 -42 -109.5t-106 -43.5q-66 0 -107.5 43.5t-41.5 109.5zM334 1335q0 68 41.5 111t105.5 43q65 0 107.5 -43.5t42.5 -110.5q0 -66 -42.5 -109.5t-107.5 -43.5
q-64 0 -105.5 43.5t-41.5 109.5z" />
    <glyph glyph-name="uni0458" unicode="&#x458;" horiz-adv-x="569" 
d="M63 -489q-115 0 -210 32l55 236q70 -17 112 -17q64 0 91.5 34.5t27.5 113.5v1141h287v-1182q0 -175 -93 -266.5t-270 -91.5zM98 1360q0 82 51 131t134 49t133.5 -49t50.5 -131t-50.5 -132t-133.5 -50t-134 50t-51 132z" />
    <glyph glyph-name="uni0459" unicode="&#x459;" horiz-adv-x="1845" 
d="M23 236q67 16 106 32.5t68 46t42 71t19 108.5l47 557h852v-293h225q195 0 305.5 -100.5t110.5 -278.5q0 -179 -110 -279t-306 -100h-512v793h-303l-26 -334q-19 -221 -121 -327.5t-334 -147.5zM1153 229h201q77 0 119.5 40t42.5 112t-42.5 111.5t-119.5 39.5h-201v-303z
" />
    <glyph glyph-name="uni045A" unicode="&#x45a;" horiz-adv-x="1837" 
d="M862 0v410h-434v-410h-287v1051h287v-379h434v379h287v-293h223q197 0 307.5 -100.5t110.5 -278.5q0 -180 -110.5 -279.5t-307.5 -99.5h-510zM1145 229h203q75 0 117 40t42 112t-42 111.5t-117 39.5h-203v-303z" />
    <glyph glyph-name="uni045B" unicode="&#x45b;" horiz-adv-x="1316" 
d="M170 0v1165h-186v187h186v164h287v-164h295v-185h-295v-247q132 141 329 141q181 0 291.5 -116t110.5 -304v-641h-287v573q0 113 -51.5 171.5t-151.5 58.5q-113 0 -177 -68t-64 -186v-549h-287z" />
    <glyph glyph-name="uni045C" unicode="&#x45c;" horiz-adv-x="1167" 
d="M809 0l-277 418h-104v-418h-287v1051h287v-385h111l256 385h333l-352 -508l373 -543h-340zM471 1217l131 299h305l-205 -299h-231z" />
    <glyph glyph-name="uni045D" unicode="&#x45d;" horiz-adv-x="1314" 
d="M141 0v1051h283v-635l500 635h250v-1051h-281v637l-502 -637h-250zM350 1516h307l131 -299h-231z" />
    <glyph glyph-name="uni045E" unicode="&#x45e;" horiz-adv-x="1202" 
d="M313 -481q-106 0 -202 35l59 241q52 -18 117 -18q74 0 120.5 34.5t77.5 118.5l9 19l-465 1102h313l197 -510l84 -232l73 232l172 510h306l-447 -1227q-114 -305 -414 -305zM287 1489l184 37q20 -152 139 -152q122 0 140 152l186 -37q-19 -145 -98.5 -215t-227.5 -70
q-146 0 -225 70t-98 215z" />
    <glyph glyph-name="uni045F" unicode="&#x45f;" horiz-adv-x="1296" 
d="M782 0v-299h-268v299h-373v1051h287v-793h438v793h287v-1051h-371z" />
    <glyph glyph-name="uni0490" unicode="&#x490;" horiz-adv-x="1099" 
d="M158 0v1434h614v311h285v-590h-598v-1155h-301z" />
    <glyph glyph-name="uni0491" unicode="&#x491;" horiz-adv-x="927" 
d="M141 0v1051h475v311h273v-571h-461v-791h-287z" />
    <glyph glyph-name="uni04D4" unicode="&#x4d4;" horiz-adv-x="1994" 
d="M23 0l845 1434h1010v-250h-586v-330h533v-244h-533v-358h611v-252h-895v279h-484l-157 -279h-344zM645 504h363v641z" />
    <glyph glyph-name="uni04D5" unicode="&#x4d5;" horiz-adv-x="1918" 
d="M1364 -27q-141 0 -253 52.5t-185 148.5q-152 -201 -455 -201q-185 0 -291 93.5t-106 246.5q0 163 120 258t324 95q138 0 268 -41v37q0 100 -58.5 142t-178.5 42q-142 0 -326 -86l-76 211q111 56 208.5 81t209.5 25q265 0 385 -168q68 80 167 124t218 44q170 0 297 -89
t183.5 -242t27.5 -336h-786q26 -93 106.5 -148t190.5 -55q177 0 317 117l129 -183q-81 -79 -192 -123.5t-244 -44.5zM352 326q0 -61 42 -93t122 -32q115 0 193 63t84 160q-140 41 -240 41q-97 0 -149 -36t-52 -103zM1051 612h534q-22 107 -92 170.5t-174 63.5
q-102 0 -174 -63.5t-94 -170.5z" />
    <glyph glyph-name="uni04D8" unicode="&#x4d8;" horiz-adv-x="1540" 
d="M760 -27q-223 0 -391 117.5t-244.5 317t-42.5 436.5h1075q-28 163 -147.5 261.5t-296.5 98.5q-245 0 -434 -180l-140 195q113 115 264 178t328 63q214 0 379.5 -93.5t255.5 -262.5t90 -387q0 -215 -88.5 -384.5t-247.5 -264.5t-360 -95zM358 614q25 -171 132 -277
t268 -106q157 0 266.5 105t134.5 278h-801z" />
    <glyph glyph-name="uni04D9" unicode="&#x4d9;" horiz-adv-x="1241" 
d="M588 1077q260 0 417.5 -152.5t157.5 -398.5q0 -243 -154 -398t-397 -155q-179 0 -312.5 89t-192.5 242.5t-29 336.5h805q-27 92 -110.5 147.5t-201.5 55.5q-182 0 -321 -117l-129 182q183 168 467 168zM336 438q22 -106 94 -169.5t180 -63.5q105 0 180 63.5t95 169.5
h-549z" />
    <glyph glyph-name="Wgrave" unicode="&#x1e80;" horiz-adv-x="2226" 
d="M481 0l-440 1434h313l162 -555l143 -504l310 1005h291l311 -1005l143 504l162 555h309l-434 -1434h-334l-174 543l-129 413l-125 -413l-174 -543h-334zM799 1851h311l129 -268h-235z" />
    <glyph glyph-name="wgrave" unicode="&#x1e81;" horiz-adv-x="1806" 
d="M387 0l-348 1051h299l98 -328l113 -391l231 684h248l232 -686l114 393l96 328h297l-348 -1051h-293l-98 293l-123 364l-125 -364l-98 -293h-295zM596 1516h307l131 -299h-231z" />
    <glyph glyph-name="Wacute" unicode="&#x1e82;" horiz-adv-x="2226" 
d="M481 0l-440 1434h313l162 -555l143 -504l310 1005h291l311 -1005l143 504l162 555h309l-434 -1434h-334l-174 543l-129 413l-125 -413l-174 -543h-334zM989 1583l131 268h312l-205 -268h-238z" />
    <glyph glyph-name="wacute" unicode="&#x1e83;" horiz-adv-x="1806" 
d="M387 0l-348 1051h299l98 -328l113 -391l231 684h248l232 -686l114 393l96 328h297l-348 -1051h-293l-98 293l-123 364l-125 -364l-98 -293h-295zM772 1217l131 299h307l-206 -299h-232z" />
    <glyph glyph-name="Wdieresis" unicode="&#x1e84;" horiz-adv-x="2226" 
d="M481 0l-440 1434h313l162 -555l143 -504l310 1005h291l311 -1005l143 504l162 555h309l-434 -1434h-334l-174 543l-129 413l-125 -413l-174 -543h-334zM750 1714q0 69 43 113.5t112 44.5t112.5 -44.5t43.5 -113.5t-43.5 -113.5t-112.5 -44.5t-112 44.5t-43 113.5z
M1167 1714q0 69 44 113.5t112 44.5q69 0 112.5 -44.5t43.5 -113.5t-43.5 -113.5t-112.5 -44.5q-68 0 -112 44.5t-44 113.5z" />
    <glyph glyph-name="wdieresis" unicode="&#x1e85;" horiz-adv-x="1806" 
d="M387 0l-348 1051h299l98 -328l113 -391l231 684h248l232 -686l114 393l96 328h297l-348 -1051h-293l-98 293l-123 364l-125 -364l-98 -293h-295zM545 1335q0 68 43 111t110 43q68 0 111 -43.5t43 -110.5t-43 -110t-111 -43t-110.5 43t-42.5 110zM956 1335q0 67 43 110.5
t111 43.5q66 0 109 -43.5t43 -110.5t-43 -110t-109 -43q-68 0 -111 43t-43 110z" />
    <glyph glyph-name="uni1E9E" unicode="&#x1e9e;" horiz-adv-x="1464" 
d="M897 -20q-196 0 -352 86l102 231q108 -57 213 -57q107 0 168.5 55t61.5 147q0 125 -103.5 174t-267.5 23l-62 164l295 379h-237q-134 0 -202.5 -80.5t-68.5 -235.5v-866h-301v854q0 276 134.5 428t408.5 152h588v-213l-281 -361q178 -26 283.5 -144t105.5 -294
q0 -202 -130 -322t-355 -120z" />
    <glyph glyph-name="Ygrave" unicode="&#x1ef2;" horiz-adv-x="1400" 
d="M551 0v537l-522 897h344l182 -322l147 -270l152 270l184 322h336l-522 -895v-539h-301zM391 1851h311l129 -268h-235z" />
    <glyph glyph-name="ygrave" unicode="&#x1ef3;" horiz-adv-x="1202" 
d="M313 -481q-106 0 -202 35l59 241q52 -18 117 -18q74 0 120.5 34.5t77.5 118.5l9 19l-465 1102h313l197 -510l84 -232l73 232l172 510h306l-447 -1227q-114 -305 -414 -305zM305 1516h307l131 -299h-231z" />
    <glyph glyph-name="uni2009" unicode="&#x2009;" horiz-adv-x="387" 
 />
    <glyph glyph-name="uni200B" unicode="&#x200b;" 
 />
    <glyph glyph-name="endash" unicode="&#x2013;" horiz-adv-x="1114" 
d="M1032 434h-954v240h954v-240z" />
    <glyph glyph-name="emdash" unicode="&#x2014;" horiz-adv-x="1388" 
d="M1307 434h-1227v240h1227v-240z" />
    <glyph glyph-name="quoteleft" unicode="&#x2018;" horiz-adv-x="520" 
d="M391 1548q-54 -60 -79.5 -111.5t-32.5 -117.5q62 -3 104.5 -47t42.5 -107q0 -67 -44 -110t-112 -43q-80 0 -126 58t-46 159q0 110 54 216.5t151 184.5z" />
    <glyph glyph-name="quoteright" unicode="&#x2019;" horiz-adv-x="520" 
d="M129 1081q55 59 81.5 111t33.5 117q-64 3 -107 47t-43 108q0 66 44.5 110t111.5 44q81 0 126.5 -58.5t45.5 -160.5q0 -110 -54 -216t-151 -184z" />
    <glyph glyph-name="quotesinglbase" unicode="&#x201a;" horiz-adv-x="520" 
d="M129 -231q55 61 81.5 112.5t33.5 116.5q-64 3 -107 46.5t-43 107.5q0 67 44 110t112 43q81 0 126.5 -58.5t45.5 -160.5q0 -109 -54.5 -215t-150.5 -184z" />
    <glyph glyph-name="quotedblleft" unicode="&#x201c;" horiz-adv-x="923" 
d="M795 1548q-55 -61 -81.5 -112.5t-33.5 -116.5q65 -5 107 -48t42 -106q0 -67 -44 -110t-113 -43q-79 0 -124.5 58t-45.5 159q0 110 54 216.5t151 184.5zM98 1229q0 110 54 216.5t151 184.5l88 -82q-54 -60 -79.5 -111.5t-32.5 -117.5q62 -3 104.5 -47t42.5 -107
q0 -67 -44 -110t-112 -43q-80 0 -126 58t-46 159z" />
    <glyph glyph-name="quotedblright" unicode="&#x201d;" horiz-adv-x="921" 
d="M129 1081q55 59 81.5 111t33.5 117q-64 3 -107 47t-43 108q0 66 44.5 110t111.5 44q81 0 126.5 -58.5t45.5 -160.5q0 -110 -54 -216t-151 -184zM496 1464q0 66 44 110t111 44q80 0 126 -59t46 -160q0 -110 -54 -216t-151 -184l-88 82q54 60 80 111.5t33 116.5
q-63 3 -105 47.5t-42 107.5z" />
    <glyph glyph-name="quotedblbase" unicode="&#x201e;" horiz-adv-x="923" 
d="M129 -231q55 61 81.5 112.5t33.5 116.5q-64 3 -107 46.5t-43 107.5q0 67 44 110t112 43q81 0 126.5 -58.5t45.5 -160.5q0 -109 -54.5 -215t-150.5 -184zM498 152q0 68 43 110.5t112 42.5q80 0 126 -59t46 -160q0 -109 -54.5 -215t-152.5 -184l-86 82q54 60 80 111.5
t33 117.5q-64 4 -105.5 47.5t-41.5 106.5z" />
    <glyph glyph-name="dagger" unicode="&#x2020;" horiz-adv-x="1128" 
d="M444 -471v1044h-342v222h342v477h240v-477h342v-222h-342v-1044h-240z" />
    <glyph glyph-name="daggerdbl" unicode="&#x2021;" horiz-adv-x="1128" 
d="M444 -471v494h-342v219h342v374h-342v220h342v436h240v-436h342v-220h-342v-374h342v-219h-342v-494h-240z" />
    <glyph glyph-name="bullet" unicode="&#x2022;" horiz-adv-x="778" 
d="M391 326q-119 0 -199.5 74t-80.5 192q0 121 80 195.5t200 74.5q121 0 201 -74.5t80 -195.5q0 -118 -80.5 -192t-200.5 -74z" />
    <glyph glyph-name="ellipsis" unicode="&#x2026;" horiz-adv-x="1447" 
d="M266 -20q-73 0 -122.5 45.5t-49.5 117.5q0 74 49.5 120t122.5 46t122.5 -46t49.5 -120q0 -72 -49.5 -117.5t-122.5 -45.5zM553 143q0 74 49.5 120t122.5 46t122.5 -46t49.5 -120q0 -72 -49.5 -117.5t-122.5 -45.5t-122.5 45.5t-49.5 117.5zM1010 143q0 74 49.5 120
t122.5 46t122.5 -46t49.5 -120q0 -72 -49.5 -117.5t-122.5 -45.5t-122.5 45.5t-49.5 117.5z" />
    <glyph glyph-name="perthousand" unicode="&#x2030;" horiz-adv-x="2404" 
d="M2040 -14q-149 0 -243.5 91t-94.5 236q0 143 94.5 235.5t243.5 92.5q148 0 242 -92.5t94 -235.5q0 -145 -93.5 -236t-242.5 -91zM49 1116q0 146 95.5 239t246.5 93t246.5 -93t95.5 -239t-95.5 -239t-246.5 -93t-246.5 93t-95.5 239zM244 1116q0 -65 41 -107t106 -42
t105.5 42t40.5 107t-40.5 107.5t-105.5 42.5t-106 -42.5t-41 -107.5zM248 72l993 1398l152 -108l-994 -1399zM907 317q0 146 95.5 239t246.5 93q152 0 247 -92.5t95 -239.5t-95 -239t-247 -92q-151 0 -246.5 92.5t-95.5 238.5zM1102 317q0 -65 41.5 -107t105.5 -42
q66 0 107 42t41 107t-41.5 107.5t-106.5 42.5q-64 0 -105.5 -42.5t-41.5 -107.5zM1888 313q0 -68 42.5 -110.5t109.5 -42.5q66 0 107.5 42.5t41.5 110.5q0 66 -41.5 109t-107.5 43q-67 0 -109.5 -43t-42.5 -109z" />
    <glyph glyph-name="minute" unicode="&#x2032;" horiz-adv-x="495" 
d="M72 922l110 634h250l-129 -634h-231z" />
    <glyph glyph-name="second" unicode="&#x2033;" horiz-adv-x="851" 
d="M428 922l121 634h239l-141 -634h-219zM72 922l100 634h242l-121 -634h-221z" />
    <glyph glyph-name="guilsinglleft" unicode="&#x2039;" horiz-adv-x="886" 
d="M578 4l-478 571l478 568l180 -160l-338 -408l338 -413z" />
    <glyph glyph-name="guilsinglright" unicode="&#x203a;" horiz-adv-x="886" 
d="M309 1145l477 -572l-477 -567l-180 160l338 407l-338 414z" />
    <glyph glyph-name="uni203D" unicode="&#x203d;" horiz-adv-x="1081" 
d="M401 387l-12 494v215h242v-193l-2 -61q61 44 87.5 92t26.5 110q0 85 -60.5 132t-170.5 47q-93 0 -179 -45.5t-147 -128.5l-157 161q101 129 225 188.5t287 59.5q213 0 340 -110t127 -283q0 -112 -53 -200.5t-185 -188.5q-67 -51 -89 -93.5t-22 -121.5v-74h-258zM358 143
q0 70 49 117t123 47t123 -47t49 -117q0 -71 -49 -117t-123 -46t-123 46t-49 117z" />
    <glyph glyph-name="fraction" unicode="&#x2044;" horiz-adv-x="425" 
d="M-219 -92l-158 108l1022 1528l160 -108z" />
    <glyph glyph-name="uni2070" unicode="&#x2070;" horiz-adv-x="731" 
d="M367 954q-143 0 -226.5 96.5t-83.5 262.5q0 165 83.5 261.5t226.5 96.5q141 0 224 -96.5t83 -261.5q0 -166 -83 -262.5t-224 -96.5zM242 1313q0 -193 125 -193q122 0 122 193q0 192 -122 192q-125 0 -125 -192z" />
    <glyph glyph-name="uni2074" unicode="&#x2074;" horiz-adv-x="645" 
d="M358 967v118h-335v142l337 432h170v-418h74v-156h-74v-118h-172zM223 1237h142v184z" />
    <glyph glyph-name="uni2075" unicode="&#x2075;" horiz-adv-x="598" 
d="M287 954q-144 0 -250 82l86 142q76 -54 147 -54q39 0 64.5 19t25.5 51q0 35 -27.5 54.5t-72.5 19.5q-51 0 -121 -17l-61 56l24 352h402v-162h-256l-8 -94q50 4 69 4q105 0 172.5 -58.5t67.5 -162.5q0 -106 -72.5 -169t-189.5 -63z" />
    <glyph glyph-name="uni2076" unicode="&#x2076;" horiz-adv-x="645" 
d="M340 954q-130 0 -206.5 89.5t-76.5 254.5q0 180 79 276.5t220 96.5q109 0 205 -59l-69 -121q-57 31 -119 31q-61 0 -100 -36.5t-48 -105.5q52 52 140 52q104 0 167.5 -66t63.5 -168q0 -108 -70.5 -176t-185.5 -68zM242 1196q0 -43 25.5 -68.5t66.5 -25.5q38 0 64 26
t26 68q0 40 -26 66t-64 26q-41 0 -66.5 -25.5t-25.5 -66.5z" />
    <glyph glyph-name="uni2077" unicode="&#x2077;" horiz-adv-x="563" 
d="M145 967l164 528h-270v164h475v-121l-176 -571h-193z" />
    <glyph glyph-name="uni2078" unicode="&#x2078;" horiz-adv-x="657" 
d="M330 954q-127 0 -202 57t-75 152q0 107 94 168q-71 59 -71 146q0 88 69.5 141t184.5 53q114 0 183 -53t69 -141q0 -86 -72 -146q94 -61 94 -168q0 -95 -74 -152t-200 -57zM233 1178q0 -37 27 -59.5t70 -22.5t68.5 22.5t25.5 59.5t-26 60.5t-68 23.5q-43 0 -70 -23.5
t-27 -60.5zM252 1462q0 -31 21.5 -49t56.5 -18q34 0 55 18t21 49t-21 49.5t-55 18.5q-35 0 -56.5 -18.5t-21.5 -49.5z" />
    <glyph glyph-name="uni2079" unicode="&#x2079;" horiz-adv-x="645" 
d="M305 1671q130 0 206.5 -89.5t76.5 -254.5q0 -180 -79 -276.5t-220 -96.5q-107 0 -205 60l70 121q57 -31 118 -31t100 36t48 105q-51 -51 -139 -51q-104 0 -168 66t-64 167q0 108 70.5 176t185.5 68zM221 1430q0 -40 26.5 -66.5t63.5 -26.5q41 0 66.5 26t25.5 67
q0 43 -25.5 68.5t-66.5 25.5q-38 0 -64 -26t-26 -68z" />
    <glyph glyph-name="uni2080" unicode="&#x2080;" horiz-adv-x="731" 
d="M367 -238q-143 0 -226.5 96.5t-83.5 262.5q0 165 83.5 261.5t226.5 96.5q141 0 224 -96.5t83 -261.5q0 -166 -83 -262.5t-224 -96.5zM242 121q0 -193 125 -193q122 0 122 193q0 192 -122 192q-125 0 -125 -192z" />
    <glyph glyph-name="uni2081" unicode="&#x2081;" horiz-adv-x="456" 
d="M209 -225v463q-79 -27 -178 -27v149q74 0 120 25t82 82h156v-692h-180z" />
    <glyph glyph-name="uni2082" unicode="&#x2082;" horiz-adv-x="600" 
d="M51 -225v121l209 235q48 56 62 79t14 46q0 28 -19 43.5t-53 15.5q-75 0 -139 -67l-100 119q64 61 123.5 86.5t136.5 25.5q109 0 175 -58t66 -153q0 -59 -24 -103.5t-105 -141.5l-69 -84h223v-164h-500z" />
    <glyph glyph-name="uni2083" unicode="&#x2083;" horiz-adv-x="593" 
d="M283 -238q-147 0 -248 82l86 142q71 -56 145 -56q44 0 70 20.5t26 55.5q0 48 -42.5 67.5t-116.5 2.5l-41 84l119 145h-205v162h436v-107l-141 -159q80 -15 129 -72.5t49 -136.5q0 -102 -73.5 -166t-192.5 -64z" />
    <glyph glyph-name="uni2084" unicode="&#x2084;" horiz-adv-x="645" 
d="M358 -225v119h-335v141l337 432h170v-418h74v-155h-74v-119h-172zM223 45h142v184z" />
    <glyph glyph-name="uni2085" unicode="&#x2085;" horiz-adv-x="598" 
d="M287 -238q-144 0 -250 82l86 142q76 -54 147 -54q39 0 64.5 19t25.5 51q0 35 -27.5 54.5t-72.5 19.5q-51 0 -121 -17l-61 56l24 352h402v-162h-256l-8 -94q50 4 69 4q105 0 172.5 -58.5t67.5 -162.5q0 -106 -72.5 -169t-189.5 -63z" />
    <glyph glyph-name="uni2086" unicode="&#x2086;" horiz-adv-x="645" 
d="M340 -238q-130 0 -206.5 89.5t-76.5 254.5q0 180 79 276.5t220 96.5q109 0 205 -59l-69 -121q-57 31 -119 31q-61 0 -100 -36.5t-48 -105.5q52 52 140 52q104 0 167.5 -66t63.5 -168q0 -108 -70.5 -176t-185.5 -68zM242 4q0 -43 25.5 -68.5t66.5 -25.5q38 0 64 26t26 68
q0 40 -26 66t-64 26q-41 0 -66.5 -25.5t-25.5 -66.5z" />
    <glyph glyph-name="uni2087" unicode="&#x2087;" horiz-adv-x="563" 
d="M145 -225l164 528h-270v164h475v-121l-176 -571h-193z" />
    <glyph glyph-name="uni2088" unicode="&#x2088;" horiz-adv-x="657" 
d="M330 -238q-127 0 -202 57t-75 152q0 107 94 168q-71 59 -71 146q0 88 69.5 141t184.5 53q114 0 183 -53t69 -141q0 -86 -72 -146q94 -61 94 -168q0 -95 -74 -152t-200 -57zM233 -14q0 -37 27 -59.5t70 -22.5t68.5 22.5t25.5 59.5t-26 60.5t-68 23.5q-43 0 -70 -23.5
t-27 -60.5zM252 270q0 -31 21.5 -49t56.5 -18q34 0 55 18t21 49t-21 49.5t-55 18.5q-35 0 -56.5 -18.5t-21.5 -49.5z" />
    <glyph glyph-name="uni2089" unicode="&#x2089;" horiz-adv-x="645" 
d="M305 479q130 0 206.5 -89.5t76.5 -254.5q0 -180 -79 -276.5t-220 -96.5q-107 0 -205 60l70 121q57 -31 118 -31t100 36t48 105q-51 -51 -139 -51q-104 0 -168 66.5t-64 167.5q0 108 70.5 175.5t185.5 67.5zM221 238q0 -40 26.5 -66.5t63.5 -26.5q41 0 66.5 26t25.5 67
q0 43 -25.5 68.5t-66.5 25.5q-38 0 -64 -26t-26 -68z" />
    <glyph glyph-name="Euro" unicode="&#x20ac;" horiz-adv-x="1622" 
d="M969 -27q-266 0 -448.5 133t-248.5 361h-233v197h203q-2 16 -2 51q0 39 2 57h-203v195h235q66 226 246.5 359.5t440.5 133.5q350 0 604 -291l-183 -176q-179 203 -413 203q-133 0 -234.5 -64t-154.5 -176h487v-184h-535q-2 -18 -2 -55t2 -53h535v-185h-487
q53 -115 156.5 -179t240.5 -64q243 0 416 213l190 -173q-248 -303 -614 -303z" />
    <glyph glyph-name="uni20B4" unicode="&#x20b4;" horiz-adv-x="1259" 
d="M645 -18q-220 0 -349.5 92.5t-129.5 255.5q0 76 29 145h-125v189h1122v-189h-713q-24 -41 -24 -94q0 -75 56 -116.5t153 -41.5q170 0 356 131l121 -207q-99 -75 -230.5 -120t-265.5 -45zM70 772v186h729q26 39 26 95q0 77 -49 119t-147 42q-147 0 -305 -120l-136 194
q199 168 465 168q201 0 327 -104.5t126 -259.5q0 -68 -29 -134h115v-186h-1122z" />
    <glyph glyph-name="uni20BA" unicode="&#x20ba;" horiz-adv-x="1439" 
d="M317 0v455l-202 -76l-66 178l279 105v116l-215 -82l-66 178l270 103v457h301v-342l343 129l61 -179l-414 -157v-117l355 133l63 -178l-408 -154v-301h179q83 0 140.5 17t96 54.5t61 83.5t42.5 118l239 -88q-26 -112 -68.5 -193t-108.5 -141t-162.5 -89.5t-225.5 -29.5
h-494z" />
    <glyph glyph-name="uni20BD" unicode="&#x20bd;" horiz-adv-x="1347" 
d="M270 0v223h-219v193h219v100h-215v223h215v695h521q229 0 371.5 -129t142.5 -336q0 -206 -147 -329.5t-394 -123.5h-193v-100h293v-193h-293v-223h-301zM565 739h199q115 0 182.5 57.5t67.5 155.5q0 100 -67.5 158.5t-182.5 58.5h-199v-430z" />
    <glyph glyph-name="uni2103" unicode="&#x2103;" horiz-adv-x="2224" 
d="M387 866q-136 0 -226.5 87t-90.5 218t90.5 218.5t226.5 87.5t227 -87.5t91 -218.5t-91 -218t-227 -87zM238 1171q0 -65 41.5 -106t107.5 -41t109 41.5t43 105.5t-43 106t-109 42t-107.5 -41.5t-41.5 -106.5zM827 717q0 156 52 293t145 236.5t228.5 156.5t295.5 57
q354 0 604 -293l-194 -192q-74 98 -177 151.5t-220 53.5q-190 0 -308 -129.5t-118 -333.5q0 -206 119 -334.5t315 -128.5q128 0 236.5 55.5t187.5 159.5l192 -190q-117 -151 -279.5 -228.5t-351.5 -77.5q-215 0 -381.5 96.5t-256 265.5t-89.5 382z" />
    <glyph glyph-name="uni2109" unicode="&#x2109;" horiz-adv-x="1890" 
d="M387 866q-136 0 -226.5 87t-90.5 218t90.5 218.5t226.5 87.5t227 -87.5t91 -218.5t-91 -218t-227 -87zM238 1171q0 -65 41.5 -106t107.5 -41t109 41.5t43 105.5t-43 106t-109 42t-107.5 -41.5t-41.5 -106.5zM915 0v1434h916v-263h-617v-366h564v-256h-561v-549h-302z" />
    <glyph glyph-name="uni2113" unicode="&#x2113;" horiz-adv-x="1005" 
d="M627 -23q-184 0 -283.5 105.5t-99.5 312.5v27l-119 -47l-78 207l197 80v471q0 186 96 291.5t260 105.5q150 0 249 -105.5t99 -302.5q0 -411 -461 -604v-117q0 -101 43.5 -148.5t133.5 -47.5q79 0 172 35l63 -203q-129 -60 -272 -60zM487 762q215 113 215 354
q0 96 -28.5 141.5t-77.5 45.5q-51 0 -80 -41.5t-29 -122.5v-377z" />
    <glyph glyph-name="uni2116" unicode="&#x2116;" horiz-adv-x="2308" 
d="M1917 768q-152 0 -253 98.5t-101 241.5q0 144 100.5 242t253.5 98q157 0 255.5 -96t98.5 -244q0 -146 -99 -243t-255 -97zM158 0v1434h252l690 -928v928h293v-1434h-254l-690 930v-930h-291zM1606 424v197h622v-197h-622zM1765 1108q0 -69 43.5 -109.5t108.5 -40.5
t108 40.5t43 109.5t-43 109t-108 40t-108.5 -40.5t-43.5 -108.5z" />
    <glyph glyph-name="uni2117" unicode="&#x2117;" horiz-adv-x="1667" 
d="M834 -31q-213 0 -384 96.5t-267.5 267.5t-96.5 384t96 384.5t267 268t385 96.5q160 0 299 -56.5t237.5 -155.5t154.5 -238t56 -299q0 -213 -96 -384t-267 -267.5t-384 -96.5zM293 717q0 -158 69 -284t193 -197.5t279 -71.5q235 0 388.5 157t153.5 396q0 240 -152.5 397.5
t-389.5 157.5q-155 0 -279 -72t-193 -198.5t-69 -284.5zM592 313v789h297q136 0 213.5 -75.5t77.5 -199.5q0 -122 -77.5 -198t-213.5 -76h-119v-240h-178zM768 711h102q59 0 92 31.5t33 84.5q0 55 -33 87t-92 32h-102v-235z" />
    <glyph glyph-name="trademark" unicode="&#x2122;" horiz-adv-x="1196" 
d="M549 895v539h133l158 -224l159 224h131v-539h-149v283l-104 -154h-76l-103 150v-279h-149zM47 1298v136h447v-136h-148v-403h-151v403h-148z" />
    <glyph glyph-name="uni2126" unicode="&#x2126;" horiz-adv-x="1742" 
d="M88 0v246h231q-93 87 -143.5 212t-50.5 273q0 155 56 290.5t153.5 232t236.5 151.5t299 55q161 0 300.5 -55t238 -151.5t155 -232t56.5 -290.5q0 -146 -51.5 -271.5t-143.5 -213.5h230v-246h-676v229q165 64 251.5 186t86.5 290q0 213 -125 346t-322 133
q-196 0 -320 -133t-124 -346q0 -168 86.5 -290t251.5 -186v-229h-676z" />
    <glyph glyph-name="estimated" unicode="&#x212e;" horiz-adv-x="1599" 
d="M813 -25q-217 0 -384 99.5t-255 268t-88 376.5q0 153 52.5 288.5t146 235t230.5 157.5t298 58q158 0 291 -57t225.5 -159t141.5 -249.5t42 -322.5h-1151v-414q77 -88 192.5 -137t258.5 -49q164 0 312.5 84t250.5 252l78 -54q-122 -187 -286 -282t-355 -95zM362 756h885
v430q-166 178 -434 178q-278 0 -451 -203v-405z" />
    <glyph glyph-name="uni2150" unicode="&#x2150;" horiz-adv-x="1445" 
d="M209 741v463q-77 -26 -178 -26v149q74 0 120 25t82 82h156v-693h-180zM80 16l1022 1528l160 -108l-1024 -1528zM922 528v164h475v-121l-176 -571h-193l164 528h-270z" />
    <glyph glyph-name="uni2151" unicode="&#x2151;" horiz-adv-x="1527" 
d="M209 741v463q-77 -26 -178 -26v149q74 0 120 25t82 82h156v-693h-180zM80 16l1022 1528l160 -108l-1024 -1528zM932 461q0 108 70.5 176t185.5 68q130 0 206 -89.5t76 -255.5q0 -180 -79 -276t-220 -96q-108 0 -204 59l69 121q57 -31 119 -31q61 0 100 36.5t48 105.5
q-52 -52 -140 -52q-104 0 -167.5 66t-63.5 168zM1104 463q0 -40 26 -66t64 -26q41 0 66.5 25.5t25.5 66.5q0 43 -25.5 68.5t-66.5 25.5q-38 0 -64 -26t-26 -68z" />
    <glyph glyph-name="uni2153" unicode="&#x2153;" horiz-adv-x="1476" 
d="M209 741v463q-77 -26 -178 -26v149q74 0 120 25t82 82h156v-693h-180zM80 16l1022 1528l160 -108l-1024 -1528zM918 70l86 141q70 -55 145 -55q44 0 70 20t26 55q0 48 -43 67.5t-117 2.5l-41 84l119 145h-205v162h437v-106l-142 -160q80 -15 129.5 -72.5t49.5 -136.5
q0 -102 -73.5 -165.5t-193.5 -63.5q-146 0 -247 82z" />
    <glyph glyph-name="uni2154" unicode="&#x2154;" horiz-adv-x="1619" 
d="M51 741v121l209 236q48 56 62 79t14 46q0 28 -19 43.5t-53 15.5q-74 0 -139 -68l-100 119q64 61 123.5 87t136.5 26q109 0 175 -58t66 -153q0 -59 -24 -104t-105 -142l-69 -84h223v-164h-500zM223 16l1022 1528l160 -108l-1024 -1528zM1061 70l86 141q70 -55 145 -55
q45 0 71 20t26 55q0 48 -43 67.5t-117 2.5l-41 84l119 145h-205v162h436v-106l-141 -160q80 -15 129 -72.5t49 -136.5q0 -102 -73.5 -165.5t-192.5 -63.5q-147 0 -248 82z" />
    <glyph glyph-name="uni2155" unicode="&#x2155;" horiz-adv-x="1480" 
d="M209 741v463q-77 -26 -178 -26v149q74 0 120 25t82 82h156v-693h-180zM80 16l1022 1528l160 -108l-1024 -1528zM920 70l86 141q74 -53 147 -53q39 0 64.5 18.5t25.5 50.5q0 35 -27.5 54.5t-72.5 19.5q-55 0 -121 -16l-61 55l24 352h401v-162h-256l-8 -94q50 4 70 4
q105 0 172.5 -58.5t67.5 -162.5q0 -106 -73 -168.5t-190 -62.5q-143 0 -249 82z" />
    <glyph glyph-name="uni2156" unicode="&#x2156;" horiz-adv-x="1624" 
d="M51 741v121l209 236q48 56 62 79t14 46q0 28 -19 43.5t-53 15.5q-74 0 -139 -68l-100 119q64 61 123.5 87t136.5 26q109 0 175 -58t66 -153q0 -59 -24 -104t-105 -142l-69 -84h223v-164h-500zM223 16l1022 1528l160 -108l-1024 -1528zM1063 70l86 141q74 -53 147 -53
q39 0 64.5 18.5t25.5 50.5q0 35 -27.5 54.5t-72.5 19.5q-55 0 -121 -16l-61 55l24 352h402v-162h-256l-8 -94q50 4 69 4q105 0 172.5 -58.5t67.5 -162.5q0 -106 -72.5 -168.5t-189.5 -62.5q-144 0 -250 82z" />
    <glyph glyph-name="uni2157" unicode="&#x2157;" horiz-adv-x="1617" 
d="M283 729q-147 0 -248 82l86 141q70 -55 145 -55q44 0 70 20.5t26 55.5q0 48 -42.5 67t-116.5 2l-41 84l119 146h-205v162h436v-107l-141 -160q80 -15 129 -72.5t49 -136.5q0 -102 -73.5 -165.5t-192.5 -63.5zM217 16l1022 1528l160 -108l-1024 -1528zM1057 70l86 141
q74 -53 147 -53q39 0 64.5 18.5t25.5 50.5q0 35 -27.5 54.5t-72.5 19.5q-55 0 -121 -16l-61 55l24 352h402v-162h-256l-8 -94q50 4 69 4q105 0 172.5 -58.5t67.5 -162.5q0 -106 -72.5 -168.5t-189.5 -62.5q-144 0 -250 82z" />
    <glyph glyph-name="uni2158" unicode="&#x2158;" horiz-adv-x="1671" 
d="M358 741v119h-335v141l337 433h170v-418h74v-156h-74v-119h-172zM223 1012h142v184zM268 16l1022 1528l160 -108l-1024 -1528zM1110 70l86 141q74 -53 147 -53q39 0 65 19t26 50q0 35 -28 54.5t-73 19.5q-55 0 -121 -16l-61 55l25 352h401v-162h-256l-8 -94q50 4 69 4
q105 0 172.5 -58.5t67.5 -162.5q0 -106 -72.5 -168.5t-189.5 -62.5q-144 0 -250 82z" />
    <glyph glyph-name="uni2159" unicode="&#x2159;" horiz-adv-x="1527" 
d="M209 741v463q-77 -26 -178 -26v149q74 0 120 25t82 82h156v-693h-180zM80 16l1022 1528l160 -108l-1024 -1528zM940 332q0 180 79 276.5t220 96.5q107 0 205 -60l-70 -121q-57 31 -119 31q-61 0 -99.5 -36t-47.5 -105q51 51 139 51q104 0 168 -66.5t64 -167.5
q0 -108 -70.5 -175.5t-185.5 -67.5q-130 0 -206.5 89.5t-76.5 254.5zM1124 229q0 -43 26 -68.5t67 -25.5q38 0 64 26t26 68q0 41 -26.5 67t-63.5 26q-41 0 -67 -26t-26 -67z" />
    <glyph glyph-name="uni215A" unicode="&#x215a;" horiz-adv-x="1671" 
d="M287 729q-144 0 -250 82l86 141q74 -53 147 -53q39 0 64.5 19t25.5 51q0 35 -27.5 54t-72.5 19q-55 0 -121 -16l-61 55l24 353h402v-162h-256l-8 -94q50 4 69 4q105 0 172.5 -58.5t67.5 -162.5q0 -106 -72.5 -169t-189.5 -63zM221 16l1022 1528l160 -108l-1024 -1528z
M1081 332q0 180 79 276.5t220 96.5q107 0 205 -60l-69 -121q-57 31 -119 31q-61 0 -100 -36t-48 -105q51 51 140 51q104 0 167.5 -66t63.5 -168q0 -108 -70.5 -175.5t-185.5 -67.5q-130 0 -206.5 89.5t-76.5 254.5zM1266 229q0 -43 25.5 -68.5t66.5 -25.5q38 0 64 26t26 68
q0 41 -26 67t-64 26q-41 0 -66.5 -26t-25.5 -67z" />
    <glyph glyph-name="oneeighth" unicode="&#x215b;" horiz-adv-x="1540" 
d="M209 741v463q-77 -26 -178 -26v149q74 0 120 25t82 82h156v-693h-180zM80 16l1022 1528l160 -108l-1024 -1528zM936 197q0 107 94 168q-72 60 -72 145q0 88 69.5 141.5t184.5 53.5q114 0 183 -53.5t69 -141.5q0 -86 -71 -145q94 -61 94 -168q0 -95 -74.5 -152t-200.5 -57
q-127 0 -201.5 56.5t-74.5 152.5zM1116 211q0 -37 26.5 -59.5t69.5 -22.5t69 22.5t26 59.5t-26.5 60.5t-68.5 23.5q-43 0 -69.5 -23.5t-26.5 -60.5zM1135 496q0 -31 21 -49.5t56 -18.5q34 0 55 18.5t21 49.5t-21 49t-55 18q-35 0 -56 -18t-21 -49z" />
    <glyph glyph-name="threeeighths" unicode="&#x215c;" horiz-adv-x="1675" 
d="M283 729q-147 0 -248 82l86 141q70 -55 145 -55q44 0 70 20.5t26 55.5q0 48 -42.5 67t-116.5 2l-41 84l119 146h-205v162h436v-107l-141 -160q80 -15 129 -72.5t49 -136.5q0 -102 -73.5 -165.5t-192.5 -63.5zM217 16l1022 1528l160 -108l-1024 -1528zM1073 197
q0 107 94 168q-71 59 -71 145q0 88 69.5 141.5t184.5 53.5q114 0 183 -53.5t69 -141.5q0 -85 -72 -145q94 -61 94 -168q0 -95 -74 -152t-200 -57q-127 0 -202 57t-75 152zM1253 211q0 -37 27 -59.5t70 -22.5t68.5 22.5t25.5 59.5t-26 60.5t-68 23.5q-43 0 -70 -23.5
t-27 -60.5zM1272 496q0 -31 21.5 -49.5t56.5 -18.5q34 0 54.5 18.5t20.5 49.5t-20.5 49t-54.5 18q-35 0 -56.5 -18t-21.5 -49z" />
    <glyph glyph-name="fiveeighths" unicode="&#x215d;" horiz-adv-x="1681" 
d="M287 729q-144 0 -250 82l86 141q74 -53 147 -53q39 0 64.5 19t25.5 51q0 35 -27.5 54t-72.5 19q-55 0 -121 -16l-61 55l24 353h402v-162h-256l-8 -94q50 4 69 4q105 0 172.5 -58.5t67.5 -162.5q0 -106 -72.5 -169t-189.5 -63zM221 16l1022 1528l160 -108l-1024 -1528z
M1077 197q0 107 94 168q-71 59 -71 145q0 88 69.5 141.5t184.5 53.5q114 0 183 -53.5t69 -141.5q0 -85 -72 -145q94 -61 94 -168q0 -95 -74 -152t-200 -57q-127 0 -202 57t-75 152zM1257 211q0 -37 27 -59.5t70 -22.5t68.5 22.5t25.5 59.5t-26 60.5t-68 23.5
q-43 0 -70 -23.5t-27 -60.5zM1276 496q0 -31 21.5 -49.5t56.5 -18.5q34 0 55 18.5t21 49.5t-21 49t-55 18q-35 0 -56.5 -18t-21.5 -49z" />
    <glyph glyph-name="seveneighths" unicode="&#x215e;" horiz-adv-x="1646" 
d="M145 741l164 529h-270v164h475v-121l-176 -572h-193zM186 16l1022 1528l160 -108l-1024 -1528zM1042 197q0 106 95 168q-72 60 -72 145q0 88 69.5 141.5t184.5 53.5q114 0 183 -53.5t69 -141.5q0 -85 -72 -145q94 -61 94 -168q0 -95 -74 -152t-200 -57q-127 0 -202 57
t-75 152zM1223 211q0 -37 26.5 -59.5t69.5 -22.5t68.5 22.5t25.5 59.5t-26 60.5t-68 23.5q-43 0 -69.5 -23.5t-26.5 -60.5zM1241 496q0 -31 21.5 -49.5t56.5 -18.5q34 0 55 18.5t21 49.5t-21 49t-55 18q-35 0 -56.5 -18t-21.5 -49z" />
    <glyph glyph-name="arrowleft" unicode="&#x2190;" horiz-adv-x="1622" 
d="M713 1311l184 -183l-330 -329h979v-256h-981l332 -330l-184 -182l-639 639z" />
    <glyph glyph-name="arrowup" unicode="&#x2191;" horiz-adv-x="1437" 
d="M1360 803l-182 -185l-330 330v-979h-256v981l-330 -332l-182 185l639 639z" />
    <glyph glyph-name="arrowright" unicode="&#x2192;" horiz-adv-x="1622" 
d="M909 31l-184 182l330 330h-979v256h981l-332 329l184 183l639 -639z" />
    <glyph glyph-name="arrowdown" unicode="&#x2193;" horiz-adv-x="1437" 
d="M78 530l182 185l330 -330v979h256v-981l330 332l182 -185l-639 -639z" />
    <glyph glyph-name="arrowboth" unicode="&#x2194;" horiz-adv-x="2277" 
d="M1565 31l-183 182l328 330h-1143l328 -330l-182 -182l-639 641l639 639l182 -183l-330 -329h1147l-330 329l183 183l641 -639z" />
    <glyph glyph-name="arrowupdn" unicode="&#x2195;" horiz-adv-x="1437" 
d="M260 819l-182 182l641 639l639 -639l-182 -182l-328 328v-1147l328 330l182 -183l-639 -641l-641 641l182 183l330 -330v1147z" />
    <glyph glyph-name="uni2196" unicode="&#x2196;" horiz-adv-x="1327" 
d="M1006 1210l2 -260h-465l690 -692l-180 -180l-695 692l2 -467l-260 2v903z" />
    <glyph glyph-name="uni2197" unicode="&#x2197;" horiz-adv-x="1327" 
d="M1227 305l-260 -2v465l-693 -690l-180 180l694 694l-469 -2l3 260h903z" />
    <glyph glyph-name="uni2198" unicode="&#x2198;" horiz-adv-x="1327" 
d="M322 164l-3 258h467l-692 692l180 182l695 -696l-2 471l260 -2v-903z" />
    <glyph glyph-name="uni2199" unicode="&#x2199;" horiz-adv-x="1327" 
d="M100 1090l260 2v-465l691 690l182 -180l-692 -695l467 2l-2 -260h-904z" />
    <glyph glyph-name="uni21A9" unicode="&#x21a9;" horiz-adv-x="2355" 
d="M713 -221l-639 641l639 641l182 -184l-332 -332h981q224 0 360 132.5t136 350.5q0 217 -136 349t-360 132h-112v258h112q222 0 397 -94t273 -263t98 -382q0 -214 -98 -383.5t-273 -263.5t-397 -94h-973l324 -324z" />
    <glyph glyph-name="uni21AA" unicode="&#x21aa;" horiz-adv-x="2355" 
d="M811 287q-222 0 -397 94t-273 263.5t-98 383.5q0 213 98 382t273 263t397 94h113v-258h-113q-224 0 -360 -132t-136 -349q0 -218 136 -350.5t360 -132.5h981l-332 332l182 184l639 -641l-639 -641l-182 184l324 324h-973z" />
    <glyph glyph-name="uni21B0" unicode="&#x21b0;" horiz-adv-x="1816" 
d="M713 500l-639 641l639 639l182 -183l-330 -329h1096v-1162h-268v906h-826l328 -330z" />
    <glyph glyph-name="uni21B1" unicode="&#x21b1;" horiz-adv-x="1816" 
d="M1104 500l-182 182l327 330h-825v-906h-268v1162h1095l-329 329l182 183l639 -639z" />
    <glyph glyph-name="uni21B3" unicode="&#x21b3;" horiz-adv-x="1816" 
d="M1104 1184l639 -641l-639 -639l-182 182l329 330h-1095v1161h268v-905h825l-327 329z" />
    <glyph glyph-name="uni21B4" unicode="&#x21b4;" horiz-adv-x="1904" 
d="M547 637l182 182l330 -327v825h-905v268h1161v-1096l330 330l182 -182l-639 -639z" />
    <glyph glyph-name="carriagereturn" unicode="&#x21b5;" horiz-adv-x="1816" 
d="M713 1184l182 -183l-328 -329h826v905h268v-1161h-1096l330 -330l-182 -182l-639 639z" />
    <glyph glyph-name="uni21BA" unicode="&#x21ba;" horiz-adv-x="1865" 
d="M952 -328q-237 0 -426.5 105.5t-296 292.5t-106.5 422h252q0 -165 74.5 -298.5t206.5 -209.5t296 -76q163 0 295.5 76t207.5 209.5t75 298.5q0 123 -44 232t-120.5 186t-184 122t-229.5 45h-43l250 -250l-162 -157l-518 516l518 516l162 -158l-231 -231h24
q178 0 332 -61.5t263.5 -169.5t172 -261t62.5 -329q0 -234 -106.5 -421.5t-296.5 -293t-427 -105.5z" />
    <glyph glyph-name="uni21BB" unicode="&#x21bb;" horiz-adv-x="1865" 
d="M913 -328q-237 0 -426.5 105.5t-296 292.5t-106.5 422t106.5 423t296 293t426.5 105h25l-231 231l161 158l518 -516l-518 -516l-161 157l249 250h-43q-163 0 -295 -76t-207 -210t-75 -299t75 -298.5t207 -209.5t295 -76q164 0 296.5 76t207 209.5t74.5 298.5h252
q0 -234 -106.5 -421.5t-296.5 -293t-427 -105.5z" />
    <glyph glyph-name="uni21E4" unicode="&#x21e4;" horiz-adv-x="2240" 
d="M1128 23l-641 639l641 641l183 -183l-328 -329h1182v-256h-1184l330 -330zM158 0v1325h272v-1325h-272z" />
    <glyph glyph-name="uni21E5" unicode="&#x21e5;" horiz-adv-x="2240" 
d="M1112 23l-182 182l330 330h-1184v256h1181l-327 329l182 183l641 -641zM1810 0v1325h273v-1325h-273z" />
    <glyph glyph-name="uni21E7" unicode="&#x21e7;" horiz-adv-x="1857" 
d="M541 -27v635h-463l850 973l850 -973h-461v-635h-776zM580 821h200v-618h297v618h201l-350 400z" />
    <glyph glyph-name="uni21EA" unicode="&#x21ea;" horiz-adv-x="1857" 
d="M541 328v280h-463l850 973l850 -973h-461v-280h-776zM541 -268v487h776v-487h-776zM580 821h200v-309h297v309h201l-350 400zM776 -84h305v119h-305v-119z" />
    <glyph glyph-name="partialdiff" unicode="&#x2202;" horiz-adv-x="1333" 
d="M592 -25q-230 0 -372 136.5t-142 353.5q0 163 75.5 297.5t210.5 213.5t302 79q175 0 280 -76q-38 146 -154.5 253.5t-336.5 199.5l100 213q151 -50 270.5 -125t198 -162.5t130 -192t73.5 -210t22 -218.5q0 -178 -49 -323t-136.5 -240.5t-208 -147t-263.5 -51.5zM367 475
q0 -114 67 -181t182 -67q143 0 240.5 102t97.5 234q0 109 -68 177.5t-190 68.5q-139 0 -234 -94.5t-95 -239.5z" />
    <glyph glyph-name="emptyset" unicode="&#x2205;" horiz-adv-x="1585" 
d="M293 -111l-156 127l142 170q-179 192 -179 459q0 187 90 341t249.5 242.5t355.5 88.5q197 0 358 -90l145 172l152 -125l-143 -168q86 -91 133 -209.5t47 -251.5q0 -185 -89.5 -339t-248.5 -243.5t-354 -89.5q-196 0 -357 90zM348 645q0 -164 94 -285l572 682
q-102 54 -219 54q-191 0 -319 -127.5t-128 -323.5zM578 248q95 -53 217 -53q189 0 316.5 127t127.5 323q0 161 -88 279z" />
    <glyph glyph-name="uni2206" unicode="&#x2206;" horiz-adv-x="1511" 
d="M33 0l559 1434h334l553 -1434h-1446zM422 236h665l-331 905z" />
    <glyph glyph-name="product" unicode="&#x220f;" horiz-adv-x="1519" 
d="M981 -225v1401h-442v-1401h-287v1401h-191v258h1397v-258h-190v-1401h-287z" />
    <glyph glyph-name="summation" unicode="&#x2211;" horiz-adv-x="1112" 
d="M72 -225v207l430 626l-420 619v207h950v-252h-596l385 -568l-403 -587h651v-252h-997z" />
    <glyph glyph-name="minus" unicode="&#x2212;" horiz-adv-x="1048" 
d="M94 498v250h860v-250h-860z" />
    <glyph glyph-name="uni2215" unicode="&#x2215;" horiz-adv-x="425" 
d="M-219 -92l-158 108l1022 1528l160 -108z" />
    <glyph glyph-name="uni2219" unicode="&#x2219;" horiz-adv-x="661" 
d="M332 375q-103 0 -171.5 63t-68.5 164q0 104 68.5 168t171.5 64t171 -64t68 -168q0 -101 -68 -164t-171 -63z" />
    <glyph glyph-name="radical" unicode="&#x221a;" horiz-adv-x="1406" 
d="M621 0l-308 836h-264v215h475l156 -480l94 -290l88 290l391 1272h279l-596 -1843h-315z" />
    <glyph glyph-name="infinity" unicode="&#x221e;" horiz-adv-x="1728" 
d="M1286 236q-234 0 -403 206q-171 -206 -406 -206q-172 0 -281.5 107.5t-109.5 274.5q0 166 110.5 274.5t280.5 108.5q235 0 406 -206q169 206 403 206q170 0 279.5 -108.5t109.5 -274.5q0 -168 -109 -275t-280 -107zM317 618q0 -77 50.5 -127.5t128.5 -50.5
q66 0 130.5 40.5t114.5 115.5l17 22l-17 23q-50 75 -114.5 115.5t-130.5 40.5q-78 0 -128.5 -51t-50.5 -128zM1008 618l14 -22q50 -74 115.5 -115t130.5 -41q78 0 128 50.5t50 127.5t-50 128t-128 51q-65 0 -130.5 -41t-115.5 -115z" />
    <glyph glyph-name="integral" unicode="&#x222b;" horiz-adv-x="815" 
d="M188 -489q-134 0 -256 55l80 213q67 -23 119 -23q60 0 91.5 38t31.5 110v1276q0 167 95 263.5t259 96.5q132 0 256 -53l-82 -215q-67 24 -116 24q-61 0 -93 -38t-32 -109v-1276q0 -168 -94.5 -265t-258.5 -97z" />
    <glyph glyph-name="approxequal" unicode="&#x2248;" horiz-adv-x="1275" 
d="M98 262q19 159 104.5 245.5t223.5 86.5q58 0 109.5 -15t121.5 -53q67 -34 99.5 -45.5t64.5 -11.5q91 0 133 117l224 -70q-88 -287 -322 -287q-62 0 -117.5 16t-128.5 56q-98 49 -151 49q-101 0 -113 -127zM98 694q19 161 104 246.5t224 85.5q58 0 109.5 -14.5
t121.5 -50.5q67 -36 99.5 -48t64.5 -12q89 0 133 117l224 -70q-44 -144 -123.5 -214t-198.5 -70q-63 0 -118.5 15t-127.5 54q-93 49 -151 49q-101 0 -113 -125z" />
    <glyph glyph-name="notequal" unicode="&#x2260;" horiz-adv-x="1048" 
d="M444 86l-215 82l54 135h-189v236h283l61 166h-344v235h430l82 215l213 -80l-51 -135h186v-235h-280l-64 -166h344v-236h-428z" />
    <glyph glyph-name="lessequal" unicode="&#x2264;" horiz-adv-x="1060" 
d="M979 449l-909 331v178l909 318v-268l-471 -142l471 -149v-268zM70 88v236h911v-236h-911z" />
    <glyph glyph-name="greaterequal" unicode="&#x2265;" horiz-adv-x="1060" 
d="M82 449v268l473 149l-473 142v268l909 -318v-178zM80 88v236h911v-236h-911z" />
    <glyph glyph-name="uni2303" unicode="&#x2303;" horiz-adv-x="1574" 
d="M264 248l-182 182l706 707l705 -707l-182 -182l-523 524z" />
    <glyph glyph-name="uni2305" unicode="&#x2305;" horiz-adv-x="1574" 
d="M129 1120v240h1319v-240h-643l688 -690l-182 -182l-523 524l-524 -524l-182 182l690 690h-643z" />
    <glyph glyph-name="uni2318" unicode="&#x2318;" horiz-adv-x="1781" 
d="M459 -72q-155 0 -256 102t-101 257q0 150 101 248t256 98h106v172h-106q-155 0 -256 98t-101 248q0 155 101 255.5t256 100.5q150 0 248 -100.5t98 -255.5v-107h172v107q0 155 98 255.5t246 100.5q157 0 257.5 -100.5t100.5 -255.5q0 -150 -101 -248t-257 -98h-104v-172
h104q156 0 257 -98t101 -248q0 -156 -101 -257.5t-257 -101.5q-148 0 -246 102t-98 257v106h-172v-106q0 -155 -98.5 -257t-247.5 -102zM346 287q0 -46 31 -77.5t78 -31.5q45 0 75.5 31.5t30.5 77.5v108h-106q-47 0 -78 -31t-31 -77zM352 1151q0 -46 31 -77.5t78 -31.5h106
v109q0 46 -30.5 77.5t-75.5 31.5q-47 0 -78 -31.5t-31 -77.5zM801 629h180v180h-180v-180zM1214 287q0 -46 31.5 -77.5t75.5 -31.5q47 0 79 31.5t32 77.5t-32 77t-79 31h-107v-108zM1214 1042h107q47 0 79 31t32 78q0 46 -32 77.5t-79 31.5q-44 0 -75.5 -31.5t-31.5 -77.5
v-109z" />
    <glyph glyph-name="uni2325" unicode="&#x2325;" horiz-adv-x="1804" 
d="M1120 0l-594 1202h-444v232h602l594 -1203h444v-231h-602zM1157 1202v232h565v-232h-565z" />
    <glyph glyph-name="uni2326" unicode="&#x2326;" horiz-adv-x="2277" 
d="M1511 -8h-1355v1450h1355l693 -725zM387 211h1004l485 506l-485 506h-1004v-1012zM633 489l227 230l-225 225l143 137l223 -223l222 223l143 -137l-225 -225l227 -230l-141 -137l-226 228l-227 -228z" />
    <glyph glyph-name="uni2327" unicode="&#x2327;" horiz-adv-x="1814" 
d="M158 -8v1450h1501v-1450h-1501zM387 211h1040v1012h-1040v-1012zM528 481l228 230l-226 225l144 137l223 -223l221 223l144 -137l-226 -225l228 -230l-144 -137l-225 225l-225 -225z" />
    <glyph glyph-name="uni232B" unicode="&#x232b;" horiz-adv-x="2277" 
d="M766 -8l-692 725l692 725h1356v-1450h-1356zM401 717l486 -506h1003v1012h-1003zM909 489l228 230l-226 225l144 137l223 -223l221 223l143 -137l-225 -225l228 -230l-142 -137l-225 228l-227 -228z" />
    <glyph glyph-name="uni2387" unicode="&#x2387;" horiz-adv-x="1804" 
d="M82 0v231h444l594 1203h602v-232h-444l-594 -1202h-602zM1151 0v231h567v-231h-567z" />
    <glyph glyph-name="uni238B" unicode="&#x238b;" horiz-adv-x="1898" 
d="M971 -326q-175 0 -330 62.5t-265.5 171t-174.5 261t-64 325.5h238q0 -170 79 -304.5t215 -208t302 -73.5q245 0 407 167.5t162 418.5q0 254 -171 417.5t-439 163.5v236q244 0 442 -106t310 -293.5t112 -417.5q0 -231 -107 -419t-295.5 -294.5t-420.5 -106.5zM137 637v674
h678v-228h-283l529 -528l-160 -160l-534 533v-291h-230z" />
    <glyph glyph-name="uni23CE" unicode="&#x23ce;" horiz-adv-x="2291" 
d="M713 -96l-639 639l639 641l182 -183l-324 -325h1297v579h-469v258h735v-1095h-1571l332 -332z" />
    <glyph glyph-name="uni23CF" unicode="&#x23cf;" horiz-adv-x="1863" 
d="M80 594l850 971l850 -971h-1700zM150 -195v586h1558v-586h-1558zM385 -8h1088v215h-1088v-215zM580 807h698l-348 399z" />
    <glyph glyph-name="uni2423" unicode="&#x2423;" horiz-adv-x="878" 
d="M29 -213v346h196v-162h428v162h197v-346h-821z" />
    <glyph glyph-name="uni2460" unicode="&#x2460;" horiz-adv-x="1896" 
d="M895 369v462q-77 -26 -178 -26v149q74 0 120.5 25t82.5 82h155v-692h-180zM102 707q0 173 62 325t172 262t268.5 174t343.5 64t343 -64t267.5 -174t171.5 -262t62 -325q0 -174 -62 -326.5t-171.5 -263t-267.5 -174.5t-343 -64t-344 64t-268.5 174.5t-171.5 263t-62 326.5
zM309 707q0 -179 78.5 -324t225 -229t335.5 -84t335.5 84t225 229t78.5 324q0 178 -78.5 322t-225.5 228t-335 84t-335 -84t-225.5 -228t-78.5 -322z" />
    <glyph glyph-name="uni2461" unicode="&#x2461;" horiz-adv-x="1896" 
d="M948 -121q-185 0 -344 64t-268.5 174.5t-171.5 263t-62 326.5q0 173 62 325t172 262t268.5 174t343.5 64t343 -64t267.5 -174t171.5 -262t62 -325q0 -174 -62 -326.5t-171.5 -263t-267.5 -174.5t-343 -64zM309 707q0 -179 78.5 -324t225 -229t335.5 -84t335.5 84t225 229
t78.5 324q0 178 -78.5 322t-225.5 228t-335 84t-335 -84t-225.5 -228t-78.5 -322zM678 961q64 61 123.5 86.5t136.5 25.5q109 0 175.5 -58t66.5 -153q0 -59 -24 -104t-105 -142l-70 -84h223v-163h-499v120l208 236q48 56 62 79t14 46q0 28 -18.5 43.5t-52.5 15.5
q-76 0 -140 -67z" />
    <glyph glyph-name="uni2462" unicode="&#x2462;" horiz-adv-x="1896" 
d="M940 356q-147 0 -248 82l86 142q71 -56 146 -56q44 0 70 20.5t26 55.5q0 48 -43 67.5t-117 2.5l-41 84l119 145h-205v162h436v-107l-141 -159q80 -15 129 -72.5t49 -136.5q0 -102 -73.5 -166t-192.5 -64zM102 707q0 173 62 325t172 262t268.5 174t343.5 64t343 -64
t267.5 -174t171.5 -262t62 -325q0 -174 -62 -326.5t-171.5 -263t-267.5 -174.5t-343 -64t-344 64t-268.5 174.5t-171.5 263t-62 326.5zM309 707q0 -179 78.5 -324t225 -229t335.5 -84t335.5 84t225 229t78.5 324q0 178 -78.5 322t-225.5 228t-335 84t-335 -84t-225.5 -228
t-78.5 -322z" />
    <glyph glyph-name="uni2463" unicode="&#x2463;" horiz-adv-x="1896" 
d="M940 369v118h-336v142l338 432h170v-418h74v-156h-74v-118h-172zM102 707q0 173 62 325t172 262t268.5 174t343.5 64t343 -64t267.5 -174t171.5 -262t62 -325q0 -174 -62 -326.5t-171.5 -263t-267.5 -174.5t-343 -64t-344 64t-268.5 174.5t-171.5 263t-62 326.5zM309 707
q0 -179 78.5 -324t225 -229t335.5 -84t335.5 84t225 229t78.5 324q0 178 -78.5 322t-225.5 228t-335 84t-335 -84t-225.5 -228t-78.5 -322zM805 639h141v184z" />
    <glyph glyph-name="uni2464" unicode="&#x2464;" horiz-adv-x="1896" 
d="M930 356q-144 0 -250 82l86 142q76 -54 147 -54q39 0 65 19t26 51q0 35 -28 54.5t-73 19.5q-51 0 -121 -17l-61 56l24 352h402v-162h-256l-8 -94q50 4 69 4q105 0 172.5 -58.5t67.5 -162.5q0 -106 -72.5 -169t-189.5 -63zM102 709q0 173 62 325t172 262t268.5 174
t343.5 64t343 -64t267.5 -174t171.5 -262t62 -325q0 -174 -62 -326.5t-171.5 -263t-267.5 -174.5t-343 -64t-344 64t-268.5 174.5t-171.5 263t-62 326.5zM309 709q0 -179 78.5 -324t225 -229t335.5 -84t335.5 84t225 229t78.5 324q0 178 -78.5 322t-225.5 228t-335 84
t-335 -84t-225.5 -228t-78.5 -322z" />
    <glyph glyph-name="uni2465" unicode="&#x2465;" horiz-adv-x="1896" 
d="M950 356q-130 0 -206 89t-76 255q0 180 79 276.5t220 96.5q108 0 204 -59l-69 -121q-57 31 -119 31q-61 0 -99.5 -36.5t-47.5 -105.5q52 52 139 52q104 0 167.5 -66t63.5 -168q0 -108 -70.5 -176t-185.5 -68zM102 707q0 173 62 325t172 262t268.5 174t343.5 64t343 -64
t267.5 -174t171.5 -262t62 -325q0 -174 -62 -326.5t-171.5 -263t-267.5 -174.5t-343 -64t-344 64t-268.5 174.5t-171.5 263t-62 326.5zM309 707q0 -179 78.5 -324t225 -229t335.5 -84t335.5 84t225 229t78.5 324q0 178 -78.5 322t-225.5 228t-335 84t-335 -84t-225.5 -228
t-78.5 -322zM852 598q0 -43 25.5 -68.5t66.5 -25.5q38 0 64 26t26 68q0 40 -26 66t-64 26q-41 0 -66.5 -25.5t-25.5 -66.5z" />
    <glyph glyph-name="uni2466" unicode="&#x2466;" horiz-adv-x="1896" 
d="M811 369l164 528h-270v164h475v-121l-176 -571h-193zM102 707q0 173 62 325t172 262t268.5 174t343.5 64t343 -64t267.5 -174t171.5 -262t62 -325q0 -174 -62 -326.5t-171.5 -263t-267.5 -174.5t-343 -64t-344 64t-268.5 174.5t-171.5 263t-62 326.5zM309 707
q0 -179 78.5 -324t225 -229t335.5 -84t335.5 84t225 229t78.5 324q0 178 -78.5 322t-225.5 228t-335 84t-335 -84t-225.5 -228t-78.5 -322z" />
    <glyph glyph-name="uni2467" unicode="&#x2467;" horiz-adv-x="1896" 
d="M948 354q-127 0 -201.5 56.5t-74.5 152.5q0 107 94 168q-72 60 -72 146q0 88 69.5 141t184.5 53q114 0 183 -53t69 -141q0 -86 -72 -146q95 -62 95 -168q0 -95 -74.5 -152t-200.5 -57zM102 707q0 173 62 325t172 262t268.5 174t343.5 64t343 -64t267.5 -174t171.5 -262
t62 -325q0 -174 -62 -326.5t-171.5 -263t-267.5 -174.5t-343 -64t-344 64t-268.5 174.5t-171.5 263t-62 326.5zM309 707q0 -179 78.5 -324t225 -229t335.5 -84t335.5 84t225 229t78.5 324q0 178 -78.5 322t-225.5 228t-335 84t-335 -84t-225.5 -228t-78.5 -322zM852 578
q0 -37 26.5 -59.5t69.5 -22.5t68.5 22.5t25.5 59.5t-26 60.5t-68 23.5q-43 0 -69.5 -23.5t-26.5 -60.5zM870 862q0 -31 21.5 -49t56.5 -18q34 0 55 18t21 49t-21 49.5t-55 18.5q-35 0 -56.5 -18.5t-21.5 -49.5z" />
    <glyph glyph-name="uni2468" unicode="&#x2468;" horiz-adv-x="1896" 
d="M936 1071q130 0 206.5 -89.5t76.5 -254.5q0 -180 -79 -276.5t-220 -96.5q-107 0 -205 60l69 121q57 -31 119 -31q61 0 100 36t48 105q-51 -51 -140 -51q-104 0 -167.5 66t-63.5 167q0 108 70.5 176t185.5 68zM102 707q0 173 62 325t172 262t268.5 174t343.5 64t343 -64
t267.5 -174t171.5 -262t62 -325q0 -174 -62 -326.5t-171.5 -263t-267.5 -174.5t-343 -64t-344 64t-268.5 174.5t-171.5 263t-62 326.5zM309 707q0 -179 78.5 -324t225 -229t335.5 -84t335.5 84t225 229t78.5 324q0 178 -78.5 322t-225.5 228t-335 84t-335 -84t-225.5 -228
t-78.5 -322zM852 829q0 -40 26 -66t64 -26q41 0 66.5 25.5t25.5 66.5q0 43 -25.5 69t-66.5 26q-38 0 -64 -26.5t-26 -68.5z" />
    <glyph glyph-name="uni2469" unicode="&#x2469;" horiz-adv-x="1896" 
d="M621 367v462q-77 -26 -179 -26v149q74 0 120.5 25t82.5 82h156v-692h-180zM102 707q0 173 62 325t172 262t268.5 174t343.5 64t343 -64t267.5 -174t171.5 -262t62 -325q0 -174 -62 -326.5t-171.5 -263t-267.5 -174.5t-343 -64t-344 64t-268.5 174.5t-171.5 263t-62 326.5
zM309 707q0 -179 78.5 -324t225 -229t335.5 -84t335.5 84t225 229t78.5 324q0 178 -78.5 322t-225.5 228t-335 84t-335 -84t-225.5 -228t-78.5 -322zM860 713q0 166 83 262t226 96q141 0 224.5 -96.5t83.5 -261.5t-83.5 -262t-224.5 -97q-143 0 -226 96.5t-83 262.5z
M1044 713q0 -193 125 -193q123 0 123 193q0 192 -123 192q-125 0 -125 -192z" />
    <glyph glyph-name="uni24EA" unicode="&#x24ea;" horiz-adv-x="1896" 
d="M948 348q-143 0 -226 96.5t-83 262.5t83 262t226 96q141 0 224 -96.5t83 -261.5q0 -166 -83 -262.5t-224 -96.5zM102 707q0 173 62 325t172 262t268.5 174t343.5 64t343 -64t267.5 -174t171.5 -262t62 -325q0 -174 -62 -326.5t-171.5 -263t-267.5 -174.5t-343 -64
t-344 64t-268.5 174.5t-171.5 263t-62 326.5zM309 707q0 -179 78.5 -324t225 -229t335.5 -84t335.5 84t225 229t78.5 324q0 178 -78.5 322t-225.5 228t-335 84t-335 -84t-225.5 -228t-78.5 -322zM823 707q0 -193 125 -193q123 0 123 193q0 192 -123 192q-125 0 -125 -192z
" />
    <glyph glyph-name="uni24FF" unicode="&#x24ff;" horiz-adv-x="1882" 
d="M940 -121q-244 0 -436.5 109.5t-297 298t-104.5 420.5q0 173 62 325t170.5 262t265.5 174t340 64t340.5 -64t266 -174.5t170 -262.5t61.5 -324q0 -231 -104.5 -419.5t-297 -298.5t-436.5 -110zM633 707q0 -166 82.5 -262.5t224.5 -96.5q143 0 226 96.5t83 262.5t-83 262
t-226 96q-142 0 -224.5 -96t-82.5 -262zM817 707q0 192 123 192q61 0 93 -49t32 -143q0 -95 -32.5 -144t-92.5 -49q-123 0 -123 193z" />
    <glyph glyph-name="filledbox" unicode="&#x25a0;" horiz-adv-x="1630" 
d="M158 53v1317h1317v-1317h-1317z" />
    <glyph glyph-name="uni25A1" unicode="&#x25a1;" horiz-adv-x="1630" 
d="M158 53v1317h1317v-1317h-1317zM389 274h852v875h-852v-875z" />
    <glyph glyph-name="triagup" unicode="&#x25b2;" horiz-adv-x="1765" 
d="M33 18l850 1532l850 -1532h-1700z" />
    <glyph glyph-name="uni25B3" unicode="&#x25b3;" horiz-adv-x="1765" 
d="M33 18l850 1532l850 -1532h-1700zM446 260h873l-436 784z" />
    <glyph glyph-name="uni25B6" unicode="&#x25b6;" horiz-adv-x="1761" 
d="M158 1624l1532 -850l-1532 -850v1700z" />
    <glyph glyph-name="uni25BB" unicode="&#x25bb;" horiz-adv-x="1761" 
d="M158 1624l1532 -850l-1532 -850v1700zM399 338l785 436l-785 436v-872z" />
    <glyph glyph-name="triagdn" unicode="&#x25bc;" horiz-adv-x="1765" 
d="M1733 1466l-850 -1532l-850 1532h1700z" />
    <glyph glyph-name="uni25BD" unicode="&#x25bd;" horiz-adv-x="1765" 
d="M1733 1466l-850 -1532l-850 1532h1700zM446 1225l437 -785l436 785h-873z" />
    <glyph glyph-name="triaglf" unicode="&#x25c4;" horiz-adv-x="1761" 
d="M1606 1624v-1700l-1532 850z" />
    <glyph glyph-name="uni25C5" unicode="&#x25c5;" horiz-adv-x="1761" 
d="M1606 -76l-1532 850l1532 850v-1700zM580 774l784 -436v872z" />
    <glyph glyph-name="uni25C6" unicode="&#x25c6;" horiz-adv-x="1916" 
d="M958 -193l-884 885l884 885l887 -885z" />
    <glyph glyph-name="uni25C7" unicode="&#x25c7;" horiz-adv-x="1916" 
d="M958 -193l-884 885l884 885l887 -885zM393 692l565 -567l568 567l-568 565z" />
    <glyph glyph-name="lozenge" unicode="&#x25ca;" horiz-adv-x="1212" 
d="M481 0l-407 657l407 658h250l408 -658l-408 -657h-250zM352 657l254 -411l254 411l-254 412z" />
    <glyph glyph-name="circle" unicode="&#x25cb;" horiz-adv-x="1724" 
d="M862 -27q-221 0 -396 100.5t-269.5 270.5t-94.5 375q0 152 56 288t154.5 236t241.5 158.5t308 58.5q166 0 309 -58.5t241.5 -158.5t154 -236t55.5 -288q0 -205 -94.5 -375t-269.5 -270.5t-396 -100.5zM348 719q0 -141 64 -258t182.5 -186.5t267.5 -69.5t267.5 69.5
t182.5 186.5t64 258q0 139 -64 255.5t-182.5 186.5t-267.5 70t-267.5 -70t-182.5 -186.5t-64 -255.5z" />
    <glyph glyph-name="uni25CF" unicode="&#x25cf;" horiz-adv-x="1724" 
d="M862 -27q-221 0 -396 100.5t-269.5 270t-94.5 373.5q0 153 56 289t154.5 236.5t241 159t308.5 58.5t309 -58.5t241.5 -159t154 -236.5t55.5 -289q0 -204 -94.5 -373.5t-269.5 -270t-396 -100.5z" />
    <glyph glyph-name="uni261C" unicode="&#x261c;" horiz-adv-x="2224" 
d="M2066 106h-512v80q-83 -80 -229 -80h-635q-78 0 -122 45.5t-44 112.5q0 46 21 76q-43 20 -66.5 55.5t-23.5 73.5q0 54 28 82q-84 40 -84 133q0 14 9 45h-164q-71 0 -118.5 47.5t-47.5 114.5q0 66 48 115t118 49h393q-33 39 -33 108v101h721q140 0 229 -95v95h512v-1158z
M205 891q0 -20 13.5 -32.5t33.5 -12.5h625q64 0 111.5 -45t47.5 -111q0 -69 -45 -108q45 -39 45 -103q0 -67 -45 -106q45 -37 45 -97q0 -29 -16 -55h301q103 0 169 63.5t66 170.5v458q0 98 -68 167t-167 69h-590q0 -44 26 -72t77 -28h321q0 -119 34.5 -175.5t131.5 -80.5
l-31 -109q-107 25 -166.5 85.5t-74.5 166.5h-797q-20 0 -33.5 -12.5t-13.5 -32.5zM524 686q0 -20 13.5 -33.5t31.5 -13.5h305q19 0 32.5 13.5t13.5 33.5q0 18 -13.5 30.5t-32.5 12.5h-305q-18 0 -31.5 -12.5t-13.5 -30.5zM580 479q0 -21 12 -34t31 -13h251q19 0 32.5 13
t13.5 34q0 17 -13.5 30t-32.5 13h-251q-18 0 -30.5 -12.5t-12.5 -30.5zM649 270q0 -18 13.5 -31.5t31.5 -13.5h178q19 0 33.5 13.5t14.5 31.5t-14.5 31.5t-33.5 13.5h-178q-18 0 -31.5 -13.5t-13.5 -31.5zM1681 225h261v920h-261v-920z" />
    <glyph glyph-name="uni261D" unicode="&#x261d;" horiz-adv-x="1470" 
d="M1313 -141h-1157v512h94q-94 88 -94 229v721h100q70 0 109 -33v393q0 71 48.5 118.5t114.5 47.5q67 0 114.5 -47.5t47.5 -118.5v-163q28 8 45 8q93 0 133 -84q28 28 82 28q38 0 73.5 -23.5t55.5 -66.5q30 21 76 21q67 0 112.5 -44t45.5 -122v-635q0 -146 -80 -229h80
v-512zM270 604q0 -99 69 -167t167 -68h459q107 0 170 66t63 169v301q-26 -16 -55 -16q-59 0 -96 45q-39 -45 -107 -45q-63 0 -102 45q-39 -45 -109 -45q-66 0 -111 48t-45 112v624q0 20 -12.5 33.5t-32.5 13.5t-32.5 -13.5t-12.5 -33.5v-796q106 -15 166.5 -75t85.5 -167
l-108 -31q-24 97 -80.5 131.5t-175.5 34.5v322q0 51 -28.5 76.5t-72.5 25.5v-590zM274 -16h920v260h-920v-260zM690 1051q0 -19 12 -32t31 -13q20 0 33.5 13t13.5 32v305q0 18 -13.5 31.5t-33.5 13.5q-18 0 -30.5 -13.5t-12.5 -31.5v-305zM897 1051q0 -19 13 -32t30 -13
q21 0 34 13t13 32v252q0 19 -13 31t-34 12q-18 0 -30.5 -12.5t-12.5 -30.5v-252zM1104 1053q0 -19 13 -33t32 -14t32 14t13 33v178q0 18 -13.5 31.5t-31.5 13.5t-31.5 -13.5t-13.5 -31.5v-178z" />
    <glyph glyph-name="uni261E" unicode="&#x261e;" horiz-adv-x="2224" 
d="M158 106v1158h512v-95q89 95 229 95h721v-101q0 -69 -33 -108h393q70 0 118 -49t48 -115q0 -67 -47.5 -114.5t-118.5 -47.5h-163q8 -28 8 -45q0 -93 -84 -133q28 -28 28 -82q0 -38 -23.5 -73.5t-66.5 -55.5q21 -30 21 -76q0 -67 -44 -112.5t-122 -45.5h-635
q-146 0 -229 80v-80h-512zM283 225h260v920h-260v-920zM668 455q0 -107 66 -170.5t169 -63.5h301q-16 26 -16 55q0 60 45 97q-45 39 -45 106q0 64 45 103q-45 39 -45 108q0 66 48 111t112 45h624q20 0 33.5 12.5t13.5 32.5t-13.5 32.5t-33.5 12.5h-796q-15 -106 -75 -166.5
t-167 -85.5l-31 109q97 24 131.5 80.5t34.5 175.5h322q51 0 76.5 28t25.5 72h-590q-99 0 -167 -69t-68 -167v-458zM1305 270q0 -19 14 -32t33 -13h178q18 0 31.5 13.5t13.5 31.5t-13.5 31.5t-31.5 13.5h-178q-19 0 -33 -13t-14 -32zM1305 479q0 -21 13 -34t32 -13h252
q19 0 31 13t12 34q0 18 -12.5 30.5t-30.5 12.5h-252q-19 0 -32 -13t-13 -30zM1305 686q0 -20 13 -33.5t32 -13.5h305q18 0 31.5 13.5t13.5 33.5q0 18 -13.5 30.5t-31.5 12.5h-305q-19 0 -32 -12t-13 -31z" />
    <glyph glyph-name="uni261F" unicode="&#x261f;" horiz-adv-x="1470" 
d="M1313 1389v-512h-80q80 -83 80 -230v-635q0 -78 -45.5 -122t-112.5 -44q-46 0 -76 21q-20 -43 -55.5 -66.5t-73.5 -23.5q-54 0 -82 28q-40 -84 -133 -84q-13 0 -45 9v-164q0 -71 -47.5 -118.5t-114.5 -47.5q-66 0 -114.5 47.5t-48.5 118.5v393q-39 -33 -109 -33h-100v721
q0 142 94 230h-94v512h1157zM270 53q44 0 72.5 26t28.5 77v321q119 0 175.5 34.5t80.5 131.5l108 -31q-25 -107 -85.5 -166.5t-166.5 -74.5v-797q0 -20 12.5 -33.5t32.5 -13.5t32.5 13.5t12.5 33.5v625q0 64 45 111.5t111 47.5q70 0 109 -45q39 45 102 45q68 0 107 -45
q37 45 96 45q29 0 55 -16v301q0 103 -63 169.5t-170 66.5h-459q-97 0 -166.5 -68.5t-69.5 -167.5v-590zM274 1004h920v260h-920v-260zM690 -109q0 -18 12.5 -31.5t30.5 -13.5q20 0 33.5 13.5t13.5 31.5v306q0 19 -13.5 32t-33.5 13q-19 0 -31 -13t-12 -32v-306zM897 -55
q0 -18 12.5 -30.5t30.5 -12.5q21 0 34 12t13 31v252q0 19 -13 32t-34 13q-17 0 -30 -13t-13 -32v-252zM1104 16q0 -18 13.5 -31.5t31.5 -13.5t31.5 13.5t13.5 31.5v179q0 19 -13 33t-32 14t-32 -14t-13 -33v-179z" />
    <glyph glyph-name="uni2661" unicode="&#x2661;" horiz-adv-x="1841" 
d="M922 -72q-186 177 -311 301t-220.5 229.5t-149 177t-86.5 140.5t-43 122.5t-10 121.5q0 185 133.5 302.5t339.5 117.5q202 0 347 -142q142 142 344 142q206 0 339.5 -117.5t133.5 -302.5q0 -82 -17 -147.5t-63 -148.5t-141 -192t-234.5 -251t-361.5 -353zM375 993
q0 -54 20 -107.5t76.5 -134.5t167 -196.5t283.5 -275.5q173 161 283.5 276.5t167 196.5t76 134t19.5 107q0 90 -59.5 143.5t-157.5 53.5q-185 0 -329 -193q-144 193 -330 193q-99 0 -158 -53.5t-59 -143.5z" />
    <glyph glyph-name="heart" unicode="&#x2665;" horiz-adv-x="1841" 
d="M922 -74q-329 304 -505 499t-245.5 329t-69.5 262q0 194 124 309t329 115q214 0 367 -144q153 144 366 144q204 0 327.5 -115t123.5 -309q0 -128 -69 -262t-244.5 -329t-503.5 -499z" />
    <glyph glyph-name="uni26A0" unicode="&#x26a0;" horiz-adv-x="1871" 
d="M33 12l903 1555l903 -1555h-1806zM786 231q0 -62 43 -100.5t107 -38.5q63 0 105 38.5t42 100.5q0 63 -42 102.5t-105 39.5q-64 0 -107 -39.5t-43 -102.5zM811 1079l10 -319l17 -316h196l17 316l8 319h-248z" />
    <glyph glyph-name="uni2713" unicode="&#x2713;" horiz-adv-x="1843" 
d="M676 23l-594 591l162 166l430 -428l968 1053l168 -160z" />
    <glyph glyph-name="uni2717" unicode="&#x2717;" horiz-adv-x="1454" 
d="M1268 12l-541 541l-543 -541l-161 168l538 537l-538 536l161 168l543 -540l541 540l162 -168l-539 -536l539 -537z" />
    <glyph glyph-name="uni2776" unicode="&#x2776;" horiz-adv-x="1882" 
d="M940 -123q-184 0 -342 65t-266 176.5t-169 262.5t-61 321t60.5 321.5t168 263.5t266 177.5t343.5 65.5q149 0 281.5 -42t233.5 -118.5t174 -179.5t111 -227.5t38 -260.5q0 -169 -60 -320t-167.5 -262.5t-266 -177t-344.5 -65.5zM702 803q103 0 177 28v-464h182v692h-156
q-36 -57 -82.5 -82t-120.5 -25v-149z" />
    <glyph glyph-name="uni2777" unicode="&#x2777;" horiz-adv-x="1882" 
d="M940 -121q-237 0 -429 107t-300.5 296.5t-108.5 424.5q0 176 63.5 329.5t174 262t266 171t334.5 62.5t334.5 -62.5t266 -171t174 -262t63.5 -329.5q0 -177 -63.5 -331t-174 -263t-266 -171.5t-334.5 -62.5zM678 963l100 -121q64 67 137 67q34 0 53 -15.5t19 -43.5
q0 -24 -14 -47.5t-62 -77.5l-209 -236v-120h502v166h-145l-78 -3l68 84q79 92 105 144t26 108q0 91 -67 148t-175 57q-77 0 -137 -25t-123 -85z" />
    <glyph glyph-name="uni2778" unicode="&#x2778;" horiz-adv-x="1882" 
d="M940 -121q-237 0 -429 107t-300.5 296.5t-108.5 424.5q0 176 63.5 329.5t174 262t266 171t334.5 62.5t334.5 -62.5t266 -171t174 -262t63.5 -329.5q0 -177 -63.5 -331t-174 -263t-266 -171.5t-334.5 -62.5zM690 438q107 -82 250 -82q118 0 192 64t74 166q0 78 -48 135
t-128 74l137 159v107h-436v-162h201l-115 -145l43 -84q73 19 116.5 -0.5t43.5 -69.5q0 -35 -25 -54.5t-71 -19.5q-76 0 -148 54z" />
    <glyph glyph-name="uni2779" unicode="&#x2779;" horiz-adv-x="1882" 
d="M940 -121q-184 0 -342 65.5t-266 177.5t-169 263.5t-61 321.5t60.5 321t168 262.5t265.5 176.5t344 65t344.5 -65.5t266 -177t167.5 -262.5t60 -320q0 -136 -38 -260.5t-111 -227.5t-174 -179.5t-233.5 -118.5t-281.5 -42zM604 487h336v-118h172v118h74v156h-74v418h-170
l-338 -432v-142zM805 639l139 180v-180h-139z" />
    <glyph glyph-name="uni277A" unicode="&#x277a;" horiz-adv-x="1882" 
d="M940 -117q-182 0 -339 64t-266 175t-171 263t-62 324q0 173 62 325t170.5 262t265.5 174t340 64t340.5 -64t266 -174t170 -262t61.5 -325q0 -231 -104.5 -419t-297 -297.5t-436.5 -109.5zM680 438q109 -82 250 -82q117 0 189.5 63t72.5 169q0 103 -67 162t-173 59
q-39 0 -69 -6l6 98h258v160h-402l-24 -352l61 -56q58 17 121 17q46 0 73.5 -19.5t27.5 -54.5q0 -31 -25.5 -50.5t-65.5 -19.5q-73 0 -147 56z" />
    <glyph glyph-name="uni277B" unicode="&#x277b;" horiz-adv-x="1882" 
d="M940 -121q-184 0 -342 65.5t-266 177.5t-169 263.5t-61 321.5t60.5 321t168 262.5t265.5 176.5t344 65t344.5 -65.5t266 -177t167.5 -262.5t60 -320q0 -136 -38 -260.5t-111 -227.5t-174 -179.5t-233.5 -118.5t-281.5 -42zM668 700q0 -166 76 -255t206 -89
q115 0 185.5 68t70.5 176q0 102 -64 168t-169 66q-84 0 -137 -50q21 140 147 140q62 0 119 -31l69 121q-96 59 -204 59q-141 0 -220 -96.5t-79 -276.5zM852 598q0 41 24.5 66.5t65.5 25.5q39 0 65.5 -25.5t26.5 -66.5q0 -42 -26.5 -68t-65.5 -26q-41 0 -65.5 25.5
t-24.5 68.5z" />
    <glyph glyph-name="uni277C" unicode="&#x277c;" horiz-adv-x="1882" 
d="M940 -121q-184 0 -342 65.5t-266 177.5t-169 263.5t-61 321.5t60.5 321t168 262.5t265.5 176.5t344 65t344.5 -65.5t266 -177t167.5 -262.5t60 -320q0 -136 -38 -260.5t-111 -227.5t-174 -179.5t-233.5 -118.5t-281.5 -42zM705 897h268l-162 -528h193l176 571v121h-475
v-164z" />
    <glyph glyph-name="uni277D" unicode="&#x277d;" horiz-adv-x="1882" 
d="M940 -121q-184 0 -342 65.5t-266 177.5t-169 263.5t-61 321.5t60.5 321t168 262.5t265.5 176.5t344 65t344.5 -65.5t266 -177t167.5 -262.5t60 -320q0 -136 -38 -260.5t-111 -227.5t-174 -179.5t-233.5 -118.5t-281.5 -42zM664 563q0 -95 75 -152t201 -57q127 0 202 57
t75 152q0 109 -95 168q72 60 72 146q0 88 -69.5 141t-184.5 53q-114 0 -184 -53t-70 -141q0 -87 74 -146q-96 -59 -96 -168zM846 578q0 37 26 60.5t68 23.5q43 0 69.5 -23.5t26.5 -60.5t-26.5 -59.5t-69.5 -22.5t-68.5 22.5t-25.5 59.5zM864 862q0 31 21 49.5t55 18.5
q35 0 56.5 -18.5t21.5 -49.5t-21.5 -49t-56.5 -18q-34 0 -55 18t-21 49z" />
    <glyph glyph-name="uni277E" unicode="&#x277e;" horiz-adv-x="1882" 
d="M940 -121q-184 0 -342 65.5t-266 177.5t-169 263.5t-61 321.5t60.5 321t168 262.5t265.5 176.5t344 65t344.5 -65.5t266 -177t167.5 -262.5t60 -320q0 -136 -38 -260.5t-111 -227.5t-174 -179.5t-233.5 -118.5t-281.5 -42zM676 827q0 -101 63.5 -167t167.5 -66
q85 0 140 49q-10 -68 -49 -103.5t-101 -35.5q-60 0 -117 31l-69 -121q95 -60 202 -60q142 0 221.5 96.5t79.5 276.5q0 166 -76 255t-206 89q-115 0 -185.5 -68t-70.5 -176zM846 829q0 42 26.5 68.5t65.5 26.5q41 0 66.5 -26t25.5 -69q0 -41 -25.5 -66.5t-66.5 -25.5
q-39 0 -65.5 25.5t-26.5 66.5z" />
    <glyph glyph-name="uni277F" unicode="&#x277f;" horiz-adv-x="1882" 
d="M940 -121q-184 0 -342 65.5t-266 177.5t-169 263.5t-61 321.5t60.5 321t168 262.5t265.5 176.5t344 65t344.5 -65.5t266 -177t167.5 -262.5t60 -320q0 -136 -38 -260.5t-111 -227.5t-174 -179.5t-233.5 -118.5t-281.5 -42zM422 805q89 0 178 29v-465h180v692h-155
q-36 -56 -82.5 -80.5t-120.5 -24.5v-151zM860 713q0 -168 83.5 -263.5t225.5 -95.5q139 0 223.5 96.5t84.5 262.5q0 168 -84 263t-224 95q-142 0 -225.5 -94.5t-83.5 -263.5zM1047 713q0 192 122 192q121 0 121 -192q0 -88 -29.5 -140.5t-91.5 -52.5q-122 0 -122 193z" />
    <glyph glyph-name="uni27F5" unicode="&#x27f5;" horiz-adv-x="2441" 
d="M713 23l-639 639l639 641l182 -183l-328 -329h1796v-256h-1798l330 -330z" />
    <glyph glyph-name="uni27F6" unicode="&#x27f6;" horiz-adv-x="2441" 
d="M1729 23l-183 182l330 330h-1798v256h1796l-328 329l183 183l638 -641z" />
    <glyph glyph-name="uni2B06" unicode="&#x2b06;" horiz-adv-x="1857" 
d="M541 -27v635h-463l850 973l850 -973h-461v-635h-776z" />
    <glyph glyph-name="uniF8FF" unicode="&#xf8ff;" horiz-adv-x="2961" 
d="M303 279q-56 0 -85.5 29.5t-29.5 84.5v277h-96v75h96v132h80v-132h320v97q0 112 114 112h125v-75h-157v-134h225l121 -337l131 337h76l133 -342l121 342h88l-168 -466h-80l-131 346l-131 -346h-82l-137 391h-166v-391h-82v391h-320v-316h160v-75h-125zM1616 512
q0 106 65.5 176t167.5 70q106 0 172 -76v240h80v-643h-65l-11 65q-68 -78 -176 -78q-102 0 -167.5 69t-65.5 177zM1696 512q0 -76 46 -123t118 -47t117.5 47t45.5 123t-45 122t-118 46t-118.5 -46t-45.5 -122zM2302 315v420l262 -180v180l305 -209l-305 -211v183z" />
    <glyph glyph-name="u1F4E7" unicode="&#x1f4e7;" horiz-adv-x="2224" 
d="M158 -8v1450h1910v-1450h-1910zM387 211h1450v911l-725 -688l-725 688v-911zM573 1223l539 -510l539 510h-1078z" />
    <glyph glyph-name="uni004A0301" horiz-adv-x="989" 
d="M356 -25q-171 0 -346 88l109 240q106 -53 215 -53t160 72t51 223v889h301v-912q0 -268 -122.5 -407.5t-367.5 -139.5zM569 1583l131 268h312l-205 -268h-238z" />
    <glyph glyph-name="Adieresis.ss01" horiz-adv-x="1507" 
d="M33 0l557 1434h334l551 -1434h-312l-100 272h-614l-103 -272h-313zM207 1501q0 68 44.5 112t113.5 44t113 -44t44 -112t-44 -111.5t-113 -43.5t-113.5 43.5t-44.5 111.5zM524 506h463l-229 620zM993 1501q0 68 43.5 112t112.5 44q70 0 114 -44t44 -112t-44 -111.5
t-114 -43.5q-69 0 -112.5 43.5t-43.5 111.5z" />
    <glyph glyph-name="Aring.ss01" horiz-adv-x="1507" 
d="M33 0l528 1362q-74 74 -74 178q0 107 77.5 178.5t193.5 71.5q115 0 191.5 -71.5t76.5 -178.5q0 -104 -74 -178l523 -1362h-312l-100 272h-614l-103 -272h-313zM524 506h463l-229 620zM664 1540q0 -41 26.5 -67.5t67.5 -26.5t67.5 26.5t26.5 67.5t-26.5 67.5t-67.5 26.5
t-67.5 -26.5t-26.5 -67.5z" />
    <glyph glyph-name="Ccedilla.ss01" horiz-adv-x="1484" 
d="M662 -322l57 299q-190 21 -334 121.5t-221.5 261t-77.5 357.5q0 156 52 293t145 236.5t228.5 156.5t295.5 57q354 0 604 -293l-194 -192q-73 98 -177 151.5t-221 53.5q-190 0 -308 -129.5t-118 -333.5q0 -206 119 -334.5t315 -128.5q128 0 236.5 55.5t187.5 159.5
l193 -190q-197 -255 -512 -297l-6 -304h-264z" />
    <glyph glyph-name="G.ss01" horiz-adv-x="1624" 
d="M827 -27q-215 0 -384 94t-263 264t-94 386q0 212 96.5 382t267.5 265.5t384 95.5q165 0 312 -58t263 -167l-166 -203q-75 72 -182 114t-219 42q-201 0 -328 -132t-127 -341q0 -211 121.5 -340t322.5 -129q165 0 276 87.5t134 233.5h-485v246h780q20 -391 -168 -615.5
t-541 -224.5z" />
    <glyph glyph-name="Gbreve.ss01" horiz-adv-x="1624" 
d="M827 -27q-215 0 -384 94t-263 264t-94 386q0 212 96.5 382t267.5 265.5t384 95.5q165 0 312 -58t263 -167l-166 -203q-75 72 -182 114t-219 42q-201 0 -328 -132t-127 -341q0 -211 121.5 -340t322.5 -129q165 0 276 87.5t134 233.5h-485v246h780q20 -391 -168 -615.5
t-541 -224.5zM512 1827l197 39q18 -119 125 -119t122 119l199 -39q-19 -129 -97.5 -192.5t-223.5 -63.5q-147 0 -226 63.5t-96 192.5z" />
    <glyph glyph-name="Gcircumflex.ss01" horiz-adv-x="1624" 
d="M827 -27q-215 0 -384 94t-263 264t-94 386q0 212 96.5 382t267.5 265.5t384 95.5q165 0 312 -58t263 -167l-166 -203q-75 72 -182 114t-219 42q-201 0 -328 -132t-127 -341q0 -211 121.5 -340t322.5 -129q165 0 276 87.5t134 233.5h-485v246h780q20 -391 -168 -615.5
t-541 -224.5zM473 1583l248 268h225l248 -268h-262l-98 115l-99 -115h-262z" />
    <glyph glyph-name="uni0122.ss01" horiz-adv-x="1624" 
d="M827 -27q-215 0 -384 94t-263 264t-94 386q0 212 96.5 382t267.5 265.5t384 95.5q165 0 312 -58t263 -167l-166 -203q-75 72 -182 114t-219 42q-201 0 -328 -132t-127 -341q0 -211 121.5 -340t322.5 -129q165 0 276 87.5t134 233.5h-485v246h780q20 -391 -168 -615.5
t-541 -224.5zM711 -242q0 62 37.5 103t101.5 41q74 0 117 -49t43 -127q0 -160 -170 -308l-84 74q66 75 84 137q-57 3 -93 40t-36 89z" />
    <glyph glyph-name="Gdotaccent.ss01" horiz-adv-x="1624" 
d="M827 -27q-215 0 -384 94t-263 264t-94 386q0 212 96.5 382t267.5 265.5t384 95.5q165 0 312 -58t263 -167l-166 -203q-75 72 -182 114t-219 42q-201 0 -328 -132t-127 -341q0 -211 121.5 -340t322.5 -129q165 0 276 87.5t134 233.5h-485v246h780q20 -391 -168 -615.5
t-541 -224.5zM657 1729q0 76 48.5 124t125.5 48q78 0 127.5 -48t49.5 -124t-49.5 -124.5t-127.5 -48.5q-77 0 -125.5 48.5t-48.5 124.5z" />
    <glyph glyph-name="K.ss01" horiz-adv-x="1378" 
d="M987 0l-528 631v-631h-301v1434h301v-611l512 611h366l-592 -705l613 -729h-371z" />
    <glyph glyph-name="uni0136.ss01" horiz-adv-x="1378" 
d="M987 0l-528 631v-631h-301v1434h301v-611l512 611h366l-592 -705l613 -729h-371zM561 -242q0 62 37 103t100 41q75 0 117.5 -49t42.5 -127q0 -163 -170 -308l-84 74q69 75 84 137q-56 3 -91.5 40t-35.5 89z" />
    <glyph glyph-name="Odieresis.ss01" horiz-adv-x="1679" 
d="M840 -27q-216 0 -388.5 96t-269 266t-96.5 382t97 382t269.5 265.5t387.5 95.5q161 0 301 -56t239.5 -154t156 -236t56.5 -297t-56.5 -297.5t-156 -236.5t-239.5 -154t-301 -56zM106 1501q0 68 44.5 112t113.5 44t113.5 -44t44.5 -112t-44.5 -111.5t-113.5 -43.5
t-113.5 43.5t-44.5 111.5zM393 717q0 -203 125.5 -333t321.5 -130q195 0 320.5 130.5t125.5 332.5t-125.5 332.5t-320.5 130.5q-196 0 -321.5 -130t-125.5 -333zM1255 1501q0 68 44.5 112t113.5 44t113.5 -44t44.5 -112t-44.5 -111.5t-113.5 -43.5t-113.5 43.5t-44.5 111.5z
" />
    </font>
</defs>
</svg>
