<?xml version="1.0" standalone="no"?>
<!DOCTYPE svg PUBLIC "-//W3C//DTD SVG 20010904//EN"
 "http://www.w3.org/TR/2001/REC-SVG-20010904/DTD/svg10.dtd">
<svg version="1.0" xmlns="http://www.w3.org/2000/svg"
 width="2400.000000pt" height="2400.000000pt" viewBox="0 0 2400.000000 2400.000000"
 preserveAspectRatio="xMidYMid meet">
<metadata>
Created by potrace 1.14, written by Peter Selinger 2001-2017
</metadata>
<g transform="translate(0.000000,2400.000000) scale(0.100000,-0.100000)"
fill="#000000" stroke="none">
<path d="M14225 16185 c-111 -53 -456 -170 -560 -190 -11 -2 -92 -19 -180 -38
-88 -19 -180 -39 -205 -43 -53 -9 -59 -11 -62 -14 -2 -1 -12 -4 -24 -5 -11 -1
-38 -6 -60 -10 -21 -4 -46 -9 -54 -10 -20 -3 -209 -36 -235 -41 -11 -2 -33 -6
-50 -9 -16 -3 -43 -8 -60 -12 -16 -3 -41 -7 -55 -8 -34 -4 -91 -14 -115 -22
-11 -3 -31 -7 -45 -9 -38 -5 -72 -11 -100 -18 -14 -3 -37 -8 -52 -11 -16 -3
-38 -7 -50 -10 -13 -3 -32 -7 -43 -9 -11 -2 -40 -9 -65 -16 -25 -7 -53 -14
-62 -16 -20 -4 -58 -14 -73 -18 -5 -1 -30 -8 -55 -15 -77 -21 -293 -92 -327
-107 -17 -8 -33 -14 -36 -14 -3 0 -18 -5 -34 -12 -15 -6 -30 -12 -33 -13 -3 0
-27 -11 -54 -23 -27 -12 -50 -22 -52 -22 -11 0 -210 -102 -279 -143 -112 -67
-119 -71 -125 -78 -3 -3 -27 -20 -55 -39 -27 -19 -52 -36 -55 -39 -3 -3 -27
-24 -55 -46 -143 -113 -299 -277 -417 -438 -20 -29 -41 -56 -45 -62 -53 -67
-178 -305 -235 -445 -59 -143 -144 -411 -154 -485 -1 -11 -3 -20 -4 -20 -1 0
-3 -7 -5 -15 -11 -50 -16 -77 -19 -95 -2 -11 -11 -58 -20 -105 -9 -47 -19
-105 -22 -130 -3 -25 -7 -61 -10 -80 -10 -70 -12 -86 -19 -150 -20 -198 -24
-252 -31 -410 -15 -304 -9 -734 13 -945 4 -38 7 -85 8 -102 0 -18 3 -33 6 -33
3 0 6 -17 7 -37 1 -36 4 -49 18 -113 3 -14 6 -32 6 -40 0 -8 7 -44 15 -80 8
-36 17 -74 19 -85 21 -108 99 -357 140 -450 10 -22 18 -42 18 -45 1 -9 129
-264 138 -275 4 -5 31 -46 60 -90 28 -44 84 -121 125 -172 71 -89 263 -279
313 -312 14 -8 29 -21 33 -28 4 -7 12 -13 17 -13 9 0 36 -19 65 -47 8 -7 16
-13 20 -13 4 0 26 -14 50 -30 24 -16 48 -30 54 -30 6 0 11 -5 11 -11 0 -5 4
-8 9 -4 5 3 12 1 16 -4 11 -19 298 -150 330 -151 3 0 21 -7 41 -15 34 -14 123
-41 169 -51 11 -2 49 -11 85 -19 107 -24 194 -37 340 -52 91 -9 516 -10 533
-1 11 6 17 5 17 -2 0 -6 5 -8 11 -4 6 3 30 8 52 10 23 2 60 6 82 9 22 4 58 8
80 11 22 3 51 8 65 10 14 3 34 7 45 9 11 1 38 8 60 14 22 6 51 12 65 15 14 2
25 5 25 6 0 1 11 3 24 6 14 2 45 12 70 20 25 9 53 17 61 19 8 2 16 4 18 5 1 2
5 3 10 5 4 1 20 7 35 13 16 7 31 12 33 12 12 0 184 77 227 102 26 16 50 28 53
28 10 0 129 74 132 83 2 4 8 7 13 7 12 0 96 59 189 134 64 51 242 224 300 291
88 102 191 260 264 405 50 98 136 324 136 355 0 8 5 26 12 42 6 15 11 31 10
34 0 3 4 23 9 45 5 21 12 55 15 74 2 19 7 46 10 60 33 161 34 632 1 785 -2 11
-8 42 -11 68 -7 49 -11 67 -22 110 -3 12 -8 36 -11 52 -4 23 -51 169 -96 300
-2 6 -14 33 -27 60 -13 28 -23 53 -22 58 1 4 -3 7 -8 7 -6 0 -10 6 -10 13 0 7
-13 34 -30 60 -16 26 -28 47 -25 47 4 0 -58 97 -75 117 -5 7 -10 15 -10 17 0
3 -6 14 -14 23 -8 10 -45 56 -82 102 -120 150 -284 299 -451 409 -78 52 -148
94 -163 97 -3 1 -39 18 -80 38 -95 45 -180 79 -180 70 0 -3 -9 2 -20 12 -11
10 -20 16 -20 12 0 -3 -39 6 -87 19 -139 39 -196 50 -383 71 -131 16 -577 7
-632 -12 -7 -2 -33 -6 -58 -9 -25 -3 -56 -7 -70 -10 -85 -18 -127 -28 -140
-33 -8 -4 -22 -7 -30 -8 -8 -1 -28 -7 -45 -14 -16 -7 -41 -15 -55 -18 -13 -2
-29 -8 -35 -13 -7 -5 -20 -11 -31 -13 -10 -2 -40 -13 -67 -25 -26 -11 -51 -22
-55 -22 -14 -3 -107 -55 -110 -62 -2 -5 -12 -8 -22 -8 -10 0 -20 -3 -22 -8 -1
-4 -29 -23 -60 -42 -32 -19 -58 -38 -58 -42 0 -4 -5 -8 -11 -8 -15 0 -130 -92
-212 -170 -66 -62 -98 -86 -82 -61 4 7 9 33 11 58 2 25 6 53 8 62 5 15 8 32
21 114 8 49 67 251 76 262 5 5 9 15 9 23 0 13 95 212 123 257 81 132 200 260
307 333 30 20 57 40 60 43 3 3 21 14 40 25 19 10 37 21 40 24 8 8 74 40 82 40
4 0 28 11 52 25 57 32 256 108 315 121 13 3 31 9 40 13 9 5 19 9 24 10 4 1 8
1 10 2 1 0 9 2 17 4 8 1 72 17 141 34 69 17 133 31 142 31 10 0 17 5 17 11 0
5 5 7 11 4 5 -4 47 0 92 9 45 8 98 18 117 20 19 3 44 7 55 10 11 2 40 7 65 10
25 3 56 8 70 11 14 3 39 8 55 10 17 3 82 15 145 26 63 12 126 23 140 25 14 3
31 7 38 9 7 2 34 7 60 11 26 3 50 8 53 10 5 3 102 24 184 40 11 2 56 13 100
24 44 11 91 23 104 26 13 3 32 9 43 15 10 5 18 8 18 5 0 -3 26 4 58 15 31 11
62 22 67 23 31 7 92 30 104 40 8 6 16 9 18 7 4 -3 46 11 110 40 24 11 45 19
48 19 3 0 62 27 131 61 75 36 123 66 120 72 -2 7 -75 188 -161 402 -87 215
-162 401 -168 415 -5 14 -11 30 -13 35 -4 15 -34 85 -37 85 -1 0 -15 -7 -32
-15z m-1720 -3349 c79 -9 160 -24 210 -40 6 -1 30 -8 55 -15 100 -29 280 -128
364 -200 73 -64 196 -194 196 -207 0 -3 11 -19 24 -35 13 -15 45 -72 72 -126
58 -120 65 -138 80 -205 3 -13 8 -34 11 -48 3 -14 7 -34 8 -45 2 -11 4 -20 5
-20 14 0 19 -373 6 -450 -4 -27 -12 -68 -18 -90 -5 -22 -11 -47 -12 -55 -8
-41 -77 -213 -92 -231 -8 -8 -14 -19 -14 -23 0 -18 -104 -158 -161 -216 -88
-89 -223 -200 -244 -200 -3 0 -23 -11 -45 -25 -22 -14 -46 -25 -55 -25 -8 0
-15 -5 -15 -12 0 -6 -3 -8 -7 -5 -3 4 -11 3 -17 -2 -13 -10 -157 -57 -201 -65
-16 -4 -41 -9 -55 -11 -120 -23 -471 -24 -509 -1 -6 4 -15 4 -21 1 -5 -3 -10
-2 -10 2 0 5 -10 9 -22 9 -64 0 -243 69 -365 141 -51 29 -93 58 -93 63 0 6 -6
10 -13 10 -12 0 -148 130 -192 182 -34 41 -125 183 -125 195 0 5 -7 22 -16 38
-24 46 -64 160 -64 183 0 12 -4 23 -8 26 -4 2 -9 21 -10 42 -2 20 -5 40 -7 44
-7 11 -17 125 -19 212 -1 78 8 201 20 257 3 14 7 43 10 64 3 21 10 51 15 65 6
15 13 37 15 48 8 41 97 231 114 244 4 3 15 20 24 38 9 17 22 32 28 32 6 0 9 2
6 5 -9 10 131 160 186 200 16 11 34 25 41 32 32 30 182 112 265 145 42 17 153
48 190 54 19 3 42 7 50 9 8 3 44 7 80 11 36 3 66 6 67 8 4 4 213 -2 268 -8z"/>
<path d="M0 12455 l0 -2915 635 0 635 0 0 869 c0 736 2 870 14 874 8 3 17 3
20 0 5 -5 72 -7 94 -3 21 4 102 1 110 -4 6 -3 13 -2 17 4 4 6 11 7 17 4 10 -6
73 -9 96 -4 21 4 102 1 110 -4 6 -3 13 -2 17 4 4 6 11 7 17 4 10 -6 73 -9 96
-4 21 4 102 1 110 -4 6 -3 13 -2 17 4 4 6 11 7 17 4 10 -6 73 -9 96 -4 21 4
102 1 110 -4 6 -3 13 -2 17 3 3 6 15 7 28 3 12 -5 33 -7 47 -5 14 1 84 5 155
8 72 2 144 7 160 9 17 2 64 7 105 11 41 4 78 9 82 11 4 3 26 7 50 10 24 3 88
17 143 30 55 14 107 25 115 26 8 0 21 5 28 11 7 5 15 7 19 4 3 -4 11 -3 17 2
6 4 43 19 81 31 39 12 75 27 81 31 6 5 14 6 17 2 4 -3 7 -1 7 5 0 7 3 11 8 11
4 -1 10 0 15 1 4 1 10 3 15 4 51 12 417 231 442 265 3 3 32 29 64 56 49 42 97
89 181 179 28 30 124 157 153 201 17 28 35 55 39 60 9 11 93 181 118 238 40
93 98 286 109 367 3 19 7 45 10 56 36 165 41 603 10 784 -4 19 -8 44 -9 55
-13 90 -70 302 -100 370 -7 17 -16 41 -20 54 -4 14 -23 54 -41 90 -19 36 -34
72 -34 79 0 6 -3 12 -8 12 -4 0 -16 17 -27 38 -17 33 -92 149 -105 162 -3 3
-21 25 -40 50 -54 71 -150 171 -239 248 -14 13 -38 34 -53 47 -15 13 -40 32
-55 42 -16 10 -30 20 -33 23 -6 6 -134 89 -164 107 -37 20 -206 103 -211 103
-3 0 -24 9 -48 19 -40 19 -181 68 -219 77 -10 2 -26 6 -35 9 -101 27 -229 53
-298 60 -22 2 -51 6 -65 9 -87 17 -274 20 -1442 23 l-1298 4 0 -2916z m2350
1831 c36 -2 65 -5 65 -6 0 -1 14 -3 30 -5 17 -3 44 -6 60 -9 46 -6 182 -44
218 -60 17 -8 47 -20 65 -27 17 -8 32 -17 32 -20 0 -4 10 -9 23 -13 52 -13
228 -162 277 -236 8 -12 22 -32 31 -44 44 -58 107 -214 125 -311 4 -22 9 -47
11 -55 2 -8 5 -73 8 -145 6 -214 -23 -362 -101 -512 -57 -112 -123 -193 -225
-278 -59 -49 -217 -137 -231 -129 -4 3 -8 0 -8 -5 0 -6 -8 -11 -18 -11 -10 0
-22 -4 -27 -9 -6 -6 -21 -11 -35 -13 -14 -2 -31 -7 -37 -11 -7 -5 -17 -6 -22
-2 -5 3 -12 1 -15 -4 -3 -5 -29 -12 -58 -16 -29 -4 -62 -9 -73 -11 -96 -17
-575 -26 -575 -11 0 5 -5 5 -12 1 -17 -11 -468 -11 -468 0 0 5 -6 4 -12 -1
-12 -8 -27 -8 -104 -4 l-21 1 0 975 0 974 66 3 c96 4 955 0 1031 -6z"/>
<path d="M7086 13923 c-4 -4 -33 -8 -64 -9 -54 -1 -152 -9 -252 -19 -25 -3
-67 -10 -95 -15 -27 -6 -63 -12 -80 -15 -16 -2 -45 -8 -63 -14 -18 -5 -35 -10
-37 -10 -3 -1 -6 -1 -7 -2 -2 0 -10 -2 -18 -4 -60 -12 -196 -56 -295 -96 -16
-7 -33 -12 -37 -11 -5 1 -8 -3 -8 -8 0 -6 -7 -10 -15 -10 -37 0 -333 -174
-440 -259 -113 -89 -253 -223 -320 -306 -22 -27 -47 -57 -55 -66 -66 -71 -186
-264 -251 -399 -34 -71 -109 -273 -111 -297 -1 -13 -5 -23 -8 -23 -3 0 -6 -8
-7 -17 -1 -10 -11 -58 -22 -106 -12 -48 -24 -105 -27 -125 -3 -20 -7 -48 -10
-62 -8 -49 -27 -287 -24 -320 2 -24 2 -32 -1 -62 -2 -18 10 -246 15 -288 8
-72 17 -136 21 -160 13 -64 16 -77 21 -104 2 -16 7 -32 9 -36 2 -3 6 -17 9
-31 16 -80 54 -200 87 -274 14 -33 31 -80 29 -84 -1 -2 2 -7 7 -10 5 -3 22
-33 38 -66 15 -33 43 -84 62 -113 18 -29 33 -56 33 -60 0 -4 11 -19 25 -34 14
-15 25 -30 25 -33 0 -6 45 -69 65 -91 6 -6 28 -33 50 -60 72 -88 220 -230 320
-305 77 -58 212 -149 222 -149 4 0 19 -9 33 -20 14 -11 33 -20 43 -20 9 0 17
-4 17 -8 0 -7 59 -36 158 -78 17 -8 48 -21 68 -30 20 -9 42 -17 48 -19 6 -1
18 -5 26 -8 38 -14 177 -57 195 -60 11 -1 26 -6 33 -10 6 -5 16 -6 21 -2 5 3
12 1 16 -4 3 -6 12 -8 20 -4 8 3 15 1 15 -3 0 -5 10 -9 23 -10 26 -1 88 -11
108 -18 8 -3 37 -8 64 -10 28 -3 64 -8 80 -10 153 -26 696 -26 855 -1 14 2 48
6 75 10 62 7 125 18 185 30 14 3 41 8 60 12 19 4 38 6 43 5 4 -1 7 3 7 9 0 5
4 8 8 5 5 -3 49 6 98 20 49 14 98 28 109 31 11 3 26 10 33 16 6 5 12 7 12 4 0
-5 101 30 162 57 21 9 40 16 43 16 11 0 260 126 305 155 85 53 185 119 190
125 3 3 21 17 40 30 19 13 40 29 46 35 6 5 31 26 57 45 25 19 49 41 52 48 5
12 -37 80 -75 123 -8 9 -33 42 -55 74 -22 32 -45 63 -50 69 -6 6 -39 52 -75
101 -35 50 -68 92 -72 93 -5 2 -6 8 -2 13 3 5 1 9 -4 9 -6 0 -23 20 -39 45
-15 25 -31 45 -35 45 -5 0 -8 4 -8 10 0 9 -19 35 -47 65 -7 8 -13 17 -13 22 0
11 -54 73 -63 73 -4 0 -38 -23 -75 -51 -37 -28 -74 -56 -83 -62 -15 -12 -35
-23 -81 -50 -13 -6 -25 -14 -28 -17 -3 -3 -18 -12 -35 -20 -16 -8 -40 -22 -53
-32 -13 -9 -36 -20 -52 -23 -17 -4 -30 -10 -30 -15 0 -7 -18 -15 -55 -25 -6
-1 -33 -13 -59 -25 -27 -12 -56 -23 -65 -26 -9 -2 -61 -17 -115 -34 -55 -17
-111 -33 -125 -35 -15 -3 -37 -7 -51 -10 -14 -3 -41 -8 -60 -11 -19 -3 -46 -7
-60 -10 -159 -30 -553 -22 -690 13 -14 3 -32 7 -40 8 -23 2 -100 24 -141 40
-20 8 -39 11 -43 8 -3 -4 -6 -1 -6 5 0 7 -7 12 -15 12 -22 0 -135 52 -208 96
-111 67 -243 180 -306 264 -14 19 -28 37 -31 40 -12 11 -48 67 -77 120 -24 45
-83 182 -83 193 0 2 761 3 1691 3 930 -1 1695 1 1699 4 5 3 12 28 15 55 4 28
8 61 11 75 31 182 24 583 -15 790 -6 30 -12 66 -15 80 -5 26 -36 140 -54 197
-6 17 -8 34 -4 37 3 3 0 6 -7 6 -7 0 -10 4 -7 8 3 5 -1 19 -8 33 -7 13 -18 40
-25 59 -20 59 -34 91 -87 195 -62 121 -87 168 -95 175 -14 12 -69 100 -69 109
0 6 -4 11 -8 11 -5 0 -23 19 -40 43 -73 102 -319 346 -349 347 -7 0 -13 4 -13
9 0 5 -22 24 -50 42 -27 18 -50 36 -50 41 0 4 -6 8 -14 8 -8 0 -21 6 -28 13
-33 31 -295 172 -358 192 -13 4 -39 14 -59 23 -20 9 -39 17 -43 18 -5 1 -9 2
-10 4 -2 1 -12 3 -23 5 -10 2 -28 8 -40 13 -39 19 -169 51 -305 77 -14 3 -36
7 -50 10 -53 10 -127 18 -177 19 -29 1 -53 3 -53 6 0 3 -60 5 -132 5 -73 0
-138 3 -144 7 -6 4 -14 5 -18 1z m294 -957 c14 -4 41 -9 60 -12 89 -14 325
-105 350 -135 3 -3 25 -18 49 -33 70 -45 195 -161 246 -231 17 -22 32 -42 35
-45 30 -30 117 -192 147 -274 23 -63 62 -200 59 -204 -3 -2 -2039 -5 -2268 -2
-52 0 -51 -3 -27 80 7 25 13 47 14 50 4 17 18 58 25 75 5 11 21 49 36 85 74
174 245 370 421 483 24 15 47 27 51 27 5 0 20 8 33 18 61 45 229 97 394 122
55 8 336 5 375 -4z"/>
<path d="M21927 13924 c-3 -4 -53 -8 -111 -9 -95 -3 -191 -10 -256 -20 -46 -7
-109 -16 -139 -20 -17 -2 -35 -7 -41 -10 -7 -4 -24 -8 -38 -10 -94 -11 -301
-76 -447 -141 -22 -10 -42 -18 -45 -19 -3 0 -30 -14 -60 -30 -30 -16 -58 -28
-62 -27 -5 1 -8 -3 -8 -8 0 -6 -5 -10 -11 -10 -6 0 -24 -9 -40 -21 -16 -11
-29 -17 -29 -12 0 4 -5 0 -11 -9 -5 -10 -17 -18 -24 -18 -8 0 -15 -4 -15 -9 0
-5 -8 -11 -17 -15 -19 -6 -43 -21 -77 -48 -11 -9 -56 -45 -99 -79 -83 -65
-263 -241 -306 -299 -14 -19 -34 -44 -44 -55 -16 -17 -139 -201 -174 -260 -37
-62 -125 -257 -138 -305 -1 -3 -4 -12 -8 -20 -9 -24 -27 -85 -26 -90 0 -3 -5
-18 -11 -35 -12 -30 -16 -45 -26 -99 -2 -16 -7 -32 -9 -36 -2 -4 -6 -20 -9
-36 -2 -16 -8 -49 -12 -74 -16 -94 -25 -194 -28 -290 -1 -36 -5 -71 -10 -78
-4 -6 -3 -12 3 -12 6 0 6 -11 1 -29 -4 -16 -6 -32 -3 -35 5 -5 9 -77 17 -278
0 -21 3 -38 6 -38 3 0 6 -8 6 -17 1 -10 4 -38 8 -63 6 -42 10 -62 20 -115 4
-20 24 -101 30 -120 1 -5 8 -30 15 -55 6 -25 16 -54 20 -65 5 -11 14 -36 21
-55 38 -110 169 -369 213 -420 9 -11 17 -23 17 -27 0 -9 120 -164 144 -185 10
-10 16 -18 13 -18 -9 0 182 -189 232 -230 24 -19 48 -39 55 -45 43 -38 199
-144 271 -185 187 -105 445 -208 573 -227 17 -3 32 -8 32 -12 0 -4 8 -7 18 -7
17 -1 62 -8 112 -19 62 -13 172 -27 225 -29 22 -1 45 -5 50 -8 13 -7 483 -2
550 6 92 11 194 25 225 31 8 2 46 10 85 19 38 8 73 12 77 10 4 -3 8 0 8 5 0 6
9 11 19 11 23 0 178 46 203 60 10 6 25 10 33 10 28 0 385 169 385 182 0 4 9 8
20 8 11 0 20 4 20 9 0 5 14 14 30 21 17 7 30 16 30 21 0 5 7 9 15 9 8 0 15 5
15 10 0 6 5 10 10 10 9 0 97 65 175 130 36 30 219 213 257 257 14 17 24 34 21
37 -4 3 -1 6 5 6 24 0 10 22 -50 78 -34 31 -82 77 -108 102 -26 25 -102 97
-170 160 -155 146 -200 188 -293 276 -41 39 -79 74 -85 78 -5 3 -52 -37 -104
-89 -51 -52 -97 -95 -101 -95 -4 0 -18 -10 -30 -23 -67 -70 -366 -223 -492
-251 -5 -2 -28 -8 -50 -14 -22 -6 -53 -14 -70 -16 -16 -3 -41 -8 -55 -11 -114
-24 -414 -25 -530 -1 -14 3 -38 8 -55 12 -30 5 -117 31 -145 41 -8 4 -17 7
-20 8 -53 18 -187 86 -208 106 -10 9 -23 18 -28 20 -14 5 -86 64 -139 114
-189 178 -323 480 -339 762 -2 39 -6 75 -9 80 -3 5 -2 15 2 22 5 7 5 28 1 47
-4 19 -5 34 -1 34 3 0 7 26 7 58 2 76 20 207 31 225 2 4 6 19 9 33 3 14 12 45
20 67 9 23 16 48 16 55 1 6 5 12 10 12 4 0 7 3 6 8 -5 18 92 196 139 252 97
118 156 172 268 248 138 93 294 155 445 177 50 8 75 13 75 15 0 1 69 3 153 4
83 1 152 -1 152 -4 0 -3 15 -6 33 -6 99 -2 296 -53 423 -109 30 -13 55 -24 57
-23 4 2 124 -60 164 -85 24 -15 47 -27 52 -27 5 0 11 -4 13 -8 2 -5 24 -22 49
-40 44 -29 107 -83 155 -132 l21 -21 119 126 c65 70 144 153 174 184 30 32
109 115 175 186 66 70 143 151 171 179 27 29 48 58 46 64 -5 15 -151 157 -228
221 -77 64 -281 201 -300 201 -7 0 -14 3 -16 8 -4 8 -148 79 -228 112 -30 12
-68 28 -85 35 -33 14 -76 29 -87 30 -3 0 -10 3 -14 8 -4 4 -17 7 -29 7 -12 0
-25 3 -29 7 -3 4 -12 8 -19 9 -7 1 -39 10 -72 19 -33 10 -70 18 -82 19 -13 0
-23 3 -23 6 0 3 -14 7 -32 8 -18 2 -35 6 -38 10 -3 4 -16 7 -30 8 -29 1 -135
14 -165 20 -40 9 -173 18 -265 18 -52 1 -98 4 -101 9 -3 4 -8 4 -12 1z"/>
<path d="M14770 13810 c-5 -3 -2 -21 7 -40 8 -19 19 -44 24 -55 13 -31 129
-297 144 -330 7 -16 39 -88 70 -160 32 -71 65 -146 73 -165 9 -19 16 -37 16
-40 1 -3 10 -23 20 -45 10 -22 24 -53 32 -70 7 -16 27 -61 43 -99 17 -38 31
-75 31 -82 0 -8 4 -14 8 -14 4 0 19 -29 32 -65 13 -36 27 -65 30 -65 4 0 7 -6
7 -13 0 -13 70 -174 83 -192 4 -5 11 -25 15 -42 3 -18 11 -33 16 -33 5 0 9 -6
9 -14 0 -8 15 -47 34 -88 18 -40 55 -122 81 -183 26 -60 60 -138 76 -173 16
-34 29 -64 29 -67 0 -3 13 -32 29 -65 16 -33 27 -60 25 -60 -3 0 1 -10 8 -22
7 -13 13 -25 13 -28 0 -3 6 -14 12 -25 6 -11 32 -69 58 -130 26 -60 57 -130
68 -155 11 -25 21 -49 23 -55 1 -5 19 -46 40 -90 20 -44 39 -89 41 -100 2 -11
8 -21 13 -23 6 -2 10 -10 10 -17 0 -7 6 -26 14 -42 8 -15 21 -44 30 -63 8 -19
24 -58 36 -85 40 -93 43 -100 42 -107 -1 -5 2 -8 8 -8 5 0 10 -8 10 -18 0 -10
4 -22 8 -28 5 -5 26 -49 47 -99 21 -49 53 -123 72 -163 18 -41 33 -76 33 -78
0 -2 9 -23 20 -47 69 -150 222 -504 223 -514 0 -7 4 -13 9 -13 4 0 8 -8 8 -18
0 -10 4 -22 8 -27 5 -6 19 -35 32 -65 12 -30 32 -75 43 -100 11 -25 21 -47 22
-50 0 -3 10 -25 22 -50 44 -98 44 -95 22 -140 -10 -19 -36 -78 -59 -130 -23
-52 -47 -101 -53 -109 -12 -14 -32 -47 -43 -71 -8 -15 -77 -103 -104 -130 -8
-8 -38 -33 -65 -55 -28 -22 -53 -44 -56 -48 -3 -5 -9 -8 -13 -7 -3 0 -34 -12
-69 -29 -67 -32 -150 -55 -237 -67 -66 -9 -280 -12 -280 -4 0 3 -16 5 -35 4
-53 -2 -209 25 -273 46 -31 10 -57 18 -58 17 0 -1 -8 -29 -16 -62 -9 -33 -35
-132 -58 -220 -22 -88 -43 -167 -44 -175 -2 -8 -9 -33 -14 -55 -6 -22 -13 -51
-16 -65 -3 -14 -15 -59 -26 -100 -11 -41 -22 -84 -24 -95 -2 -11 -9 -40 -16
-65 -37 -135 -37 -146 -3 -155 15 -5 33 -9 38 -11 88 -26 192 -54 213 -58 108
-21 195 -36 240 -40 28 -4 76 -9 105 -12 74 -8 360 -8 437 0 73 8 95 11 160
22 25 4 52 8 60 9 8 1 22 4 30 7 16 6 126 35 170 44 14 3 29 9 34 15 6 5 17 9
26 9 8 0 32 9 53 20 20 11 38 20 39 19 2 0 14 4 28 9 14 5 29 10 34 10 5 0 12
4 15 9 3 4 31 21 61 37 65 35 165 103 235 160 59 48 190 179 225 225 14 18 30
38 35 44 18 21 70 91 80 108 101 169 129 219 170 304 26 55 48 106 48 113 0 6
4 12 9 12 4 0 7 3 6 8 0 4 2 16 7 27 12 31 49 129 96 255 23 63 46 119 51 125
4 5 8 14 8 21 0 6 8 29 17 50 9 22 16 43 15 48 -2 4 1 13 6 20 5 6 19 40 32
76 13 36 29 79 36 95 7 17 22 57 34 90 11 33 27 74 35 90 7 17 17 44 21 60 4
17 10 32 13 35 4 3 14 28 23 55 18 55 64 179 77 210 33 78 44 108 44 120 0 8
4 15 9 15 4 0 8 6 8 14 0 13 34 106 51 138 5 10 9 23 9 30 0 7 6 24 13 38 7
14 19 45 27 70 7 25 17 50 20 55 4 6 13 28 20 50 7 22 17 46 23 53 5 6 6 12 2
12 -4 0 -3 6 2 13 5 6 25 55 43 107 19 52 38 98 43 101 5 3 8 8 6 10 -1 2 1
15 5 29 11 35 12 37 40 110 134 351 179 470 188 500 6 19 13 40 17 45 11 15
74 188 74 202 0 7 4 13 9 13 4 0 8 8 8 18 0 10 3 22 7 26 4 3 8 12 9 19 3 13
158 424 179 472 7 17 20 53 30 80 9 28 21 59 25 70 8 20 22 55 25 65 1 3 7 19
14 35 7 17 37 98 68 180 30 83 61 164 68 180 7 17 25 64 40 105 15 41 39 104
52 140 14 36 37 99 52 140 14 41 29 77 34 78 4 2 7 10 7 18 0 11 24 79 65 179
4 11 9 25 11 30 1 6 14 38 27 73 14 34 24 62 22 62 -2 0 5 17 15 38 10 20 16
39 14 41 -3 3 -1197 5 -1269 2 -17 -1 -27 -21 -60 -118 -21 -65 -44 -121 -50
-125 -5 -4 -7 -8 -3 -8 4 0 -4 -30 -18 -67 -14 -38 -25 -70 -26 -73 0 -3 -2
-9 -4 -15 -31 -90 -56 -163 -61 -175 -4 -8 -7 -17 -8 -20 -1 -3 -4 -12 -8 -20
-3 -8 -24 -71 -48 -140 -23 -69 -47 -136 -52 -150 -12 -29 -10 -23 -26 -79 -7
-24 -16 -51 -21 -60 -9 -18 -40 -105 -44 -124 -2 -6 -6 -19 -9 -27 -10 -23
-77 -213 -82 -230 -2 -8 -4 -15 -5 -15 -1 0 -3 -7 -5 -15 -4 -14 -80 -231
-119 -337 -8 -24 -12 -43 -8 -43 4 0 2 -4 -3 -8 -9 -6 -34 -75 -36 -99 -1 -5
-6 -17 -12 -28 -6 -11 -12 -22 -12 -25 0 -3 -18 -57 -40 -120 -21 -63 -40
-119 -41 -125 -1 -5 -23 -73 -49 -150 -25 -77 -47 -148 -48 -157 -1 -10 -5
-18 -9 -18 -4 0 -8 -9 -8 -20 0 -12 -7 -34 -15 -50 -9 -17 -13 -30 -11 -30 3
0 -6 -29 -19 -65 -14 -36 -22 -65 -18 -65 4 0 2 -5 -5 -12 -7 -7 -12 -18 -12
-24 0 -7 -5 -25 -12 -41 -6 -15 -10 -34 -9 -40 1 -7 -3 -13 -9 -13 -6 0 -9 -3
-7 -7 3 -5 -1 -21 -8 -38 l-13 -30 -12 30 c-7 17 -14 35 -16 40 -1 6 -15 42
-29 80 -15 39 -39 104 -55 146 -15 42 -33 86 -39 98 -7 11 -10 21 -7 21 4 0
-13 44 -44 115 -5 11 -16 40 -24 65 -8 25 -40 110 -70 190 -31 80 -56 151 -56
158 0 6 -4 12 -8 12 -5 0 -9 6 -9 14 0 8 -7 29 -15 47 -9 19 -46 111 -83 204
-37 94 -73 184 -80 200 -34 77 -63 155 -58 155 3 0 1 6 -5 13 -10 11 -72 160
-76 182 -1 6 -10 25 -19 42 -10 18 -17 34 -16 35 1 4 -179 455 -348 873 -25
61 -45 116 -46 123 0 6 -4 12 -9 12 -4 0 -8 6 -8 14 0 16 -40 117 -51 130 -9
10 -1294 15 -1309 6z"/>
</g>
</svg>
