<svg width="17" height="17" viewBox="0 0 17 17" fill="none" xmlns="http://www.w3.org/2000/svg">
<g clip-path="url(#clip0_1_1181)">
<path d="M16.3006 8.69985C16.3006 4.22635 12.6741 0.599854 8.20059 0.599854C3.72708 0.599854 0.100586 4.22635 0.100586 8.69985C0.100586 13.1734 3.72708 16.7999 8.20059 16.7999C12.6741 16.7999 16.3006 13.1734 16.3006 8.69985Z" fill="#E3E5E8"/>
<path d="M9.01945 10.1568C9.01945 9.06054 11.1362 8.48094 11.1362 6.60354C11.1362 5.83494 10.859 5.23014 10.292 4.78914C9.73761 4.34814 9.08245 4.12134 8.31385 4.12134C6.95305 4.12134 5.76865 4.82694 5.26465 6.07434L6.75145 6.93114C7.04125 6.18774 7.54525 5.80974 8.25085 5.80974C8.96905 5.80974 9.39741 6.13734 9.39741 6.72954C9.39741 7.28394 8.85565 7.87614 8.33905 8.29194C7.82245 8.69514 7.28065 9.41334 7.28065 10.1568H9.01945ZM8.90605 12.9666C9.32181 12.5508 9.32181 11.8704 8.90605 11.4546C8.49025 11.0388 7.80985 11.0388 7.39405 11.4546C6.97825 11.8704 6.97825 12.5508 7.39405 12.9666C7.80985 13.3824 8.49025 13.3824 8.90605 12.9666Z" fill="white"/>
</g>
<defs>
<clipPath id="clip0_1_1181">
<rect width="16.2" height="16.2" fill="white" transform="translate(0.100098 0.599731)"/>
</clipPath>
</defs>
</svg>
