<svg width="15" height="13" viewBox="0 0 15 13" fill="none" xmlns="http://www.w3.org/2000/svg">
<path fill-rule="evenodd" clip-rule="evenodd" d="M1.03117 5.64135C5.0577 3.89806 7.74268 2.74878 9.08611 2.19351C12.9219 0.608082 13.7189 0.332677 14.2384 0.323583C14.3527 0.321583 14.6082 0.349722 14.7737 0.483161C14.9134 0.595833 14.9518 0.748038 14.9702 0.854864C14.9886 0.96169 15.0115 1.20504 14.9933 1.39519C14.7855 3.56552 13.8861 8.83232 13.4285 11.2631C13.2349 12.2917 12.8536 12.6366 12.4845 12.6703C11.6825 12.7437 11.0734 12.1436 10.2965 11.6375C9.08085 10.8456 8.39409 10.3527 7.21409 9.57996C5.8504 8.68694 6.73442 8.19613 7.51159 7.394C7.71498 7.18407 11.249 3.98974 11.3174 3.69997C11.326 3.66373 11.3339 3.52864 11.2532 3.4573C11.1724 3.38597 11.0532 3.41036 10.9672 3.42976C10.8453 3.45726 8.90325 4.73281 5.14115 7.2564C4.58991 7.63255 4.09062 7.81582 3.64327 7.80621C3.15011 7.79563 2.20146 7.52912 1.49623 7.30132C0.631245 7.02191 -0.0562297 6.87418 0.00363389 6.39966C0.0348146 6.1525 0.377327 5.89973 1.03117 5.64135Z" fill="white"/>
</svg>
