<svg width="75" height="28" viewBox="0 0 75 28" fill="none" xmlns="http://www.w3.org/2000/svg">
<path d="M0 21.6864V3.46861H7.26416C9.40873 3.46861 11.1138 4.04877 12.3794 5.20908C13.645 6.36093 14.2778 7.91507 14.2778 9.87156C14.2778 11.8025 13.645 13.3482 12.3794 14.5085C11.1138 15.6688 9.40873 16.249 7.26416 16.249H3.96826V21.6864H0ZM3.91553 12.946H6.88184C7.9541 12.946 8.79349 12.6749 9.39991 12.1329C10.0063 11.5908 10.3095 10.8455 10.3095 9.89688C10.3095 8.93141 10.0063 8.18186 9.39991 7.64829C8.79349 7.10624 7.9541 6.83522 6.88184 6.83522H3.91553V12.946ZM22.7026 22.0294C20.4175 22.0294 18.5806 21.3857 17.1919 20.0984C15.8121 18.8026 15.1221 17.1129 15.1221 15.0294C15.1221 12.9714 15.7988 11.2859 17.1524 9.97312C18.5059 8.66039 20.2505 8.004 22.3863 8.004C23.9595 8.004 25.3306 8.38089 26.4996 9.13467C27.6773 9.88847 28.5255 10.9132 29.0439 12.2091C29.5625 13.5049 29.69 14.9278 29.4264 16.4777H18.8136C19.0508 17.2569 19.5342 17.8836 20.2637 18.3579C21.002 18.8237 21.8897 19.0567 22.9268 19.0567C24.5264 19.0567 25.9371 18.5612 27.1587 17.5703L28.8594 19.8952C27.2511 21.318 25.1988 22.0294 22.7026 22.0294ZM18.7872 13.9115H26.025C25.8316 13.0137 25.4141 12.2938 24.7725 11.7517C24.1397 11.2097 23.3531 10.9387 22.4127 10.9387C21.4898 10.9387 20.6988 11.2097 20.0396 11.7517C19.3804 12.2938 18.963 13.0137 18.7872 13.9115ZM38.6158 22.0294C36.2251 22.0294 34.3575 21.2757 33.0128 19.7681C31.6768 18.2605 31.0088 16.0797 31.0088 13.2254C31.0088 11.3961 31.167 9.8419 31.4835 8.56298C31.7999 7.27563 32.3097 6.2 33.0128 5.33612C33.7159 4.46377 34.5772 3.78198 35.5968 3.29075C36.6251 2.79105 37.8951 2.40993 39.4068 2.14737C40.8658 1.90176 41.9469 1.69426 42.65 1.52487C43.3619 1.34701 43.9991 1.13104 44.5616 0.876953L45.7481 3.83703C45.0626 4.20122 44.3463 4.48918 43.5992 4.70092C42.8521 4.91265 41.6876 5.14556 40.1056 5.39964C38.2247 5.70455 36.8888 6.21695 36.0977 6.93685C35.3155 7.65675 34.8409 8.74932 34.6739 10.2146C35.8868 8.94412 37.4733 8.30891 39.4332 8.30891C41.4019 8.30891 43.0015 8.93987 44.232 10.2018C45.4625 11.4638 46.0777 13.0984 46.0777 15.1056C46.0777 17.1299 45.3789 18.7899 43.9815 20.0857C42.5841 21.3815 40.7955 22.0294 38.6158 22.0294ZM34.7662 15.0802C34.7662 16.1728 35.1178 17.0664 35.8209 17.7608C36.5328 18.4553 37.4469 18.8026 38.5631 18.8026C39.6705 18.8026 40.5757 18.4553 41.2789 17.7608C41.9908 17.0664 42.3468 16.1728 42.3468 15.0802C42.3468 13.9792 41.9908 13.0857 41.2789 12.3997C40.5757 11.7051 39.6705 11.3579 38.5631 11.3579C37.4381 11.3579 36.524 11.7051 35.8209 12.3997C35.1178 13.0857 34.7662 13.9792 34.7662 15.0802ZM49.8619 27.7971C48.9303 27.7971 48.0426 27.6489 47.1988 27.3525L47.9767 24.2907C48.4337 24.4432 48.9479 24.5194 49.5191 24.5194C50.1696 24.5194 50.6969 24.3712 51.1012 24.0748C51.5142 23.7869 51.8571 23.2871 52.1295 22.5757L52.2482 22.3344L46.1178 8.33431H50.2443L52.8414 14.8135L53.9488 17.7608L54.9113 14.8135L57.1788 8.33431H61.213L55.32 23.9223C54.318 26.5055 52.4987 27.7971 49.8619 27.7971ZM68.5436 22.0294C66.4254 22.0294 64.6808 21.3731 63.3097 20.0603C61.9387 18.7391 61.2531 17.0536 61.2531 15.004C61.2531 12.9714 61.9343 11.2987 63.2965 9.98587C64.6677 8.66462 66.4254 8.004 68.57 8.004C69.7477 8.004 70.8376 8.2115 71.8395 8.62651C72.8415 9.03305 73.6764 9.6132 74.3444 10.3669L72.1823 12.6538C71.7428 12.2049 71.2155 11.8576 70.6003 11.612C69.9939 11.3579 69.3698 11.2308 68.7282 11.2308C67.6384 11.2308 66.7419 11.5823 66.0387 12.2854C65.3444 12.9883 64.9972 13.8945 64.9972 15.004C64.9972 16.1305 65.34 17.0451 66.0256 17.7481C66.7111 18.4511 67.6207 18.8026 68.7546 18.8026C69.4753 18.8026 70.152 18.6586 70.7849 18.3707C71.4177 18.0826 71.9494 17.6719 72.38 17.1384L74.6739 19.298C73.9797 20.1873 73.1052 20.8648 72.0504 21.3307C71.0046 21.7966 69.8356 22.0294 68.5436 22.0294Z" fill="white"/>
</svg>
