<svg width="12" height="14" viewBox="0 0 12 14" fill="none" xmlns="http://www.w3.org/2000/svg">
<path d="M11.2324 6.55456C11.0541 6.37557 10.8378 6.28614 10.583 6.28614H10.2776V4.44513C10.2776 3.26901 9.85761 2.25916 9.01728 1.4154C8.17702 0.571613 7.17141 0.149719 5.99995 0.149719C4.82852 0.149719 3.82271 0.571613 2.98252 1.41537C2.14219 2.25916 1.72216 3.26897 1.72216 4.44513V6.28614H1.41665C1.1621 6.28614 0.945615 6.37557 0.767355 6.55456C0.589096 6.73342 0.5 6.9508 0.5 7.20663V12.7293C0.5 12.9849 0.58913 13.2023 0.767355 13.3814C0.945615 13.5602 1.1621 13.6497 1.41665 13.6497H10.5833C10.838 13.6497 11.0543 13.5603 11.2326 13.3814C11.4107 13.2023 11.5 12.9849 11.5 12.7293V7.20653C11.5001 6.9509 11.4107 6.73355 11.2324 6.55456ZM8.44438 6.28614H3.55552V4.44513C3.55552 3.7676 3.79428 3.18908 4.2717 2.70976C4.74919 2.23038 5.32524 1.99073 6.00005 1.99073C6.67493 1.99073 7.25084 2.23034 7.72836 2.70976C8.20565 3.18905 8.44438 3.7676 8.44438 4.44513V6.28614Z" fill="#E0E2E6"/>
</svg>
