<svg width="20" height="20" viewBox="0 0 20 20" fill="none" xmlns="http://www.w3.org/2000/svg">
<path d="M18.5021 3.44824H1.49785C0.670586 3.44824 0 4.11883 0 4.94609V15.0539C0 15.8811 0.670586 16.5517 1.49785 16.5517H18.5021C19.3294 16.5517 20 15.8811 20 15.0539V4.94609C20 4.11883 19.3294 3.44824 18.5021 3.44824Z" fill="#F5F5F5"/>
<path d="M0.0823828 4.45621H19.9176C19.7146 3.86961 19.1577 3.44824 18.5021 3.44824H1.49785C0.842227 3.44824 0.285391 3.86961 0.0823828 4.45621ZM0 7.48004H20V8.48797H0V7.48004ZM0 5.46402H20V6.47195H0V5.46402ZM0 10.1591C1.03579e-05 10.2506 0.0363453 10.3383 0.101014 10.4029C0.165682 10.4676 0.253389 10.5039 0.344844 10.5039H20V9.49598H0V10.1591ZM0 13.5281H20V14.5361H0V13.5281ZM19.9176 15.5437H0.0823828C0.285391 16.1303 0.842266 16.5517 1.49785 16.5517H18.5021C19.1578 16.5517 19.7146 16.1303 19.9176 15.5437ZM0 11.5121H20V12.52H0V11.5121Z" fill="#FF4B55"/>
<path d="M0.344844 10.504H8.96555C9.057 10.504 9.14471 10.4676 9.20938 10.403C9.27404 10.3383 9.31038 10.2506 9.31039 10.1591V3.79309C9.31039 3.70163 9.27406 3.61392 9.20939 3.54924C9.14472 3.48457 9.057 3.44824 8.96555 3.44824H1.49785C0.670586 3.44828 0 4.11887 0 4.94613V10.1591C0 10.2506 0.0363317 10.3383 0.101002 10.403C0.165673 10.4677 0.253386 10.504 0.344844 10.504Z" fill="#41479B"/>
<path d="M0.968339 4.23977L1.04467 4.46867L1.28596 4.47051C1.31721 4.47078 1.33014 4.51062 1.30502 4.52918L1.11092 4.6725L1.18373 4.90254C1.19318 4.9323 1.15924 4.95699 1.13381 4.93879L0.937519 4.79852L0.74123 4.93883C0.7158 4.95703 0.681933 4.93234 0.691308 4.90258L0.76412 4.67254L0.570019 4.52922C0.544902 4.51062 0.557831 4.47078 0.589081 4.47055L0.83037 4.46871L0.906699 4.2398C0.916542 4.21012 0.958417 4.21012 0.968339 4.23977ZM0.968339 5.43719L1.04467 5.66609L1.28596 5.66793C1.31721 5.6682 1.33014 5.70801 1.30502 5.7266L1.11092 5.86996L1.18373 6.1C1.19318 6.12977 1.15924 6.15445 1.13381 6.13625L0.937519 5.99598L0.74123 6.13629C0.7158 6.15445 0.681933 6.1298 0.691308 6.10004L0.76412 5.87L0.570019 5.72664C0.544902 5.70805 0.557831 5.66824 0.589081 5.66797L0.83037 5.66613L0.906699 5.43723C0.916542 5.40758 0.958417 5.40758 0.968339 5.43719ZM0.968339 6.63465L1.04467 6.86355L1.28596 6.86539C1.31721 6.86566 1.33014 6.90547 1.30502 6.92406L1.11092 7.06742L1.18373 7.29746C1.19318 7.32723 1.15924 7.35191 1.13381 7.33371L0.937519 7.19344L0.74123 7.33375C0.7158 7.35191 0.681933 7.3273 0.691308 7.2975L0.76412 7.06746L0.570019 6.9241C0.544902 6.90551 0.557831 6.8657 0.589081 6.86543L0.83037 6.86359L0.906699 6.63469C0.916542 6.605 0.958417 6.605 0.968339 6.63465ZM0.968339 7.83207L1.04467 8.06098L1.28596 8.06281C1.31721 8.06309 1.33014 8.10293 1.30502 8.12148L1.11092 8.26484L1.18373 8.49488C1.19318 8.52465 1.15924 8.54934 1.13381 8.53113L0.937519 8.39086L0.74123 8.53117C0.7158 8.54934 0.681933 8.52469 0.691308 8.49492L0.76412 8.26488L0.570019 8.12152C0.544902 8.10301 0.557831 8.06313 0.589081 8.06285L0.83037 8.06102L0.906699 7.83211C0.916542 7.80242 0.958417 7.80242 0.968339 7.83207ZM0.968339 9.02949L1.04467 9.2584L1.28596 9.26023C1.31721 9.26051 1.33014 9.30031 1.30502 9.31891L1.11092 9.46227L1.18373 9.6923C1.19318 9.72207 1.15924 9.74676 1.13381 9.72855L0.937519 9.58828L0.74123 9.72859C0.7158 9.74676 0.681933 9.72211 0.691308 9.69234L0.76412 9.4623L0.570019 9.31894C0.544902 9.30035 0.557831 9.26055 0.589081 9.26027L0.83037 9.25844L0.906699 9.02953C0.916542 8.99988 0.958417 8.99988 0.968339 9.02949ZM1.89775 4.82684L1.97408 5.05574L2.21537 5.05758C2.24662 5.05785 2.25955 5.0977 2.23443 5.11625L2.04033 5.25961L2.11314 5.48965C2.1226 5.51941 2.08865 5.5441 2.06322 5.5259L1.86693 5.38559L1.67064 5.5259C1.64521 5.54406 1.61135 5.51941 1.62072 5.48965L1.69353 5.25961L1.49943 5.11625C1.47432 5.09766 1.48725 5.05785 1.5185 5.05758L1.75978 5.05574L1.83611 4.82684C1.84596 4.79723 1.88787 4.79723 1.89775 4.82684ZM1.89775 6.0243L1.97408 6.2532L2.21537 6.25504C2.24662 6.25531 2.25955 6.29516 2.23443 6.31371L2.04033 6.45707L2.11314 6.68711C2.1226 6.71687 2.08865 6.74156 2.06322 6.72336L1.86693 6.58305L1.67064 6.72336C1.64521 6.74152 1.61135 6.71691 1.62072 6.68711L1.69353 6.45707L1.49943 6.31371C1.47432 6.2952 1.48725 6.25531 1.5185 6.25504L1.75978 6.2532L1.83611 6.0243C1.84596 5.99465 1.88787 5.99465 1.89775 6.0243ZM1.89775 7.22172L1.97408 7.45062L2.21537 7.45246C2.24662 7.45273 2.25955 7.49254 2.23443 7.51113L2.04033 7.65449L2.11314 7.88453C2.1226 7.9143 2.08865 7.93898 2.06322 7.92078L1.86693 7.78047L1.67064 7.92078C1.64521 7.93895 1.61135 7.9143 1.62072 7.88453L1.69353 7.65449L1.49943 7.51113C1.47432 7.49254 1.48725 7.45273 1.5185 7.45246L1.75978 7.45062L1.83611 7.22172C1.84596 7.19207 1.88787 7.19207 1.89775 7.22172ZM1.89775 8.41914L1.97408 8.64805L2.21537 8.64988C2.24662 8.65016 2.25955 8.68996 2.23443 8.70855L2.04033 8.85191L2.11314 9.08195C2.1226 9.11172 2.08865 9.13641 2.06322 9.1182L1.86693 8.97789L1.67064 9.1182C1.64521 9.13641 1.61135 9.11172 1.62072 9.08195L1.69353 8.85191L1.49943 8.70855C1.47432 8.68996 1.48725 8.65016 1.5185 8.64988L1.75978 8.64805L1.83611 8.41914C1.84596 8.38953 1.88787 8.38953 1.89775 8.41914ZM2.82717 4.23977L2.9035 4.46867L3.14478 4.47051C3.17603 4.47078 3.18896 4.51062 3.16385 4.52918L2.96975 4.6725L3.04256 4.90254C3.05201 4.9323 3.01807 4.95699 2.99264 4.93879L2.79635 4.79848L2.60006 4.93879C2.57463 4.95699 2.54076 4.9323 2.55014 4.90254L2.62295 4.6725L2.42885 4.52918C2.40373 4.51059 2.41666 4.47074 2.44791 4.47051L2.6892 4.46867L2.76553 4.23977C2.77537 4.21012 2.81728 4.21012 2.82717 4.23977ZM2.82717 5.43719L2.9035 5.66609L3.14478 5.66793C3.17603 5.6682 3.18896 5.70801 3.16385 5.7266L2.96975 5.86996L3.04256 6.1C3.05201 6.12977 3.01807 6.15445 2.99264 6.13625L2.79635 5.99594L2.60006 6.13625C2.57463 6.15441 2.54076 6.12977 2.55014 6.1L2.62295 5.86996L2.42885 5.7266C2.40373 5.70801 2.41666 5.6682 2.44791 5.66793L2.6892 5.66609L2.76553 5.43719C2.77537 5.40758 2.81728 5.40758 2.82717 5.43719ZM2.82717 6.63465L2.9035 6.86355L3.14478 6.86539C3.17603 6.86566 3.18896 6.90547 3.16385 6.92406L2.96975 7.06742L3.04256 7.29746C3.05201 7.32723 3.01807 7.35191 2.99264 7.33371L2.79635 7.1934L2.60006 7.33371C2.57463 7.35188 2.54076 7.32727 2.55014 7.29746L2.62295 7.06742L2.42885 6.92406C2.40373 6.90547 2.41666 6.86566 2.44791 6.86539L2.6892 6.86355L2.76553 6.63465C2.77537 6.605 2.81728 6.605 2.82717 6.63465ZM2.82717 7.83207L2.9035 8.06098L3.14478 8.06281C3.17603 8.06309 3.18896 8.10293 3.16385 8.12148L2.96975 8.26484L3.04256 8.49488C3.05201 8.52465 3.01807 8.54934 2.99264 8.53113L2.79635 8.39082L2.60006 8.53113C2.57463 8.5493 2.54076 8.52465 2.55014 8.49488L2.62295 8.26484L2.42885 8.12148C2.40373 8.10297 2.41666 8.06309 2.44791 8.06281L2.6892 8.06098L2.76553 7.83207C2.77537 7.80242 2.81728 7.80242 2.82717 7.83207ZM2.82717 9.02949L2.9035 9.2584L3.14478 9.26023C3.17603 9.26051 3.18896 9.30031 3.16385 9.31891L2.96975 9.46227L3.04256 9.6923C3.05201 9.72207 3.01807 9.74676 2.99264 9.72855L2.79635 9.58824L2.60006 9.72855C2.57463 9.74672 2.54076 9.72207 2.55014 9.6923L2.62295 9.46227L2.42885 9.31891C2.40373 9.30031 2.41666 9.26051 2.44791 9.26023L2.6892 9.2584L2.76553 9.02949C2.77537 8.99988 2.81728 8.99988 2.82717 9.02949ZM3.75662 4.82684L3.83295 5.05574L4.07424 5.05758C4.10549 5.05785 4.11842 5.0977 4.0933 5.11625L3.8992 5.25961L3.97201 5.48965C3.98146 5.51941 3.94752 5.5441 3.92209 5.5259L3.7258 5.38559L3.52951 5.5259C3.50408 5.54406 3.47021 5.51941 3.47959 5.48965L3.5524 5.25961L3.3583 5.11625C3.33318 5.09766 3.34611 5.05785 3.37736 5.05758L3.61865 5.05574L3.69498 4.82684C3.70478 4.79723 3.74674 4.79723 3.75662 4.82684ZM3.75662 6.0243L3.83295 6.2532L4.07424 6.25504C4.10549 6.25531 4.11842 6.29516 4.0933 6.31371L3.8992 6.45707L3.97201 6.68711C3.98146 6.71687 3.94752 6.74156 3.92209 6.72336L3.7258 6.58305L3.52951 6.72336C3.50408 6.74152 3.47021 6.71691 3.47959 6.68711L3.5524 6.45707L3.3583 6.31371C3.33318 6.2952 3.34611 6.25531 3.37736 6.25504L3.61865 6.2532L3.69498 6.0243C3.70478 5.99465 3.74674 5.99465 3.75662 6.0243ZM3.75662 7.22172L3.83295 7.45062L4.07424 7.45246C4.10549 7.45273 4.11842 7.49254 4.0933 7.51113L3.8992 7.65449L3.97201 7.88453C3.98146 7.9143 3.94752 7.93898 3.92209 7.92078L3.7258 7.78047L3.52951 7.92078C3.50408 7.93895 3.47021 7.9143 3.47959 7.88453L3.5524 7.65449L3.3583 7.51113C3.33318 7.49254 3.34611 7.45273 3.37736 7.45246L3.61865 7.45062L3.69498 7.22172C3.70478 7.19207 3.74674 7.19207 3.75662 7.22172ZM3.75662 8.41914L3.83295 8.64805L4.07424 8.64988C4.10549 8.65016 4.11842 8.68996 4.0933 8.70855L3.8992 8.85191L3.97201 9.08195C3.98146 9.11172 3.94752 9.13641 3.92209 9.1182L3.7258 8.97789L3.52951 9.1182C3.50408 9.13641 3.47021 9.11172 3.47959 9.08195L3.5524 8.85191L3.3583 8.70855C3.33318 8.68996 3.34611 8.65016 3.37736 8.64988L3.61865 8.64805L3.69498 8.41914C3.70478 8.38953 3.74674 8.38953 3.75662 8.41914ZM4.68603 4.23977L4.76236 4.46867L5.00365 4.47051C5.0349 4.47078 5.04783 4.51062 5.02271 4.52918L4.82861 4.6725L4.90143 4.90254C4.91088 4.9323 4.87693 4.95699 4.8515 4.93879L4.65518 4.79852L4.45889 4.93883C4.43346 4.95703 4.39959 4.93234 4.40896 4.90258L4.48178 4.67254L4.28768 4.52922C4.26256 4.51062 4.27549 4.47078 4.30674 4.47055L4.54803 4.46871L4.62435 4.2398C4.63424 4.21012 4.67615 4.21012 4.68603 4.23977ZM4.68603 5.43719L4.76236 5.66609L5.00365 5.66793C5.0349 5.6682 5.04783 5.70801 5.02271 5.7266L4.82861 5.86996L4.90143 6.1C4.91088 6.12977 4.87693 6.15445 4.8515 6.13625L4.65518 5.99594L4.45889 6.13625C4.43346 6.15441 4.39959 6.12977 4.40896 6.1L4.48178 5.86996L4.28768 5.7266C4.26256 5.70801 4.27549 5.6682 4.30674 5.66793L4.54803 5.66609L4.62435 5.43719C4.63424 5.40758 4.67615 5.40758 4.68603 5.43719ZM4.68603 6.63465L4.76236 6.86355L5.00365 6.86539C5.0349 6.86566 5.04783 6.90547 5.02271 6.92406L4.82861 7.06742L4.90143 7.29746C4.91088 7.32723 4.87693 7.35191 4.8515 7.33371L4.65518 7.19336L4.45889 7.33367C4.43346 7.35184 4.39959 7.32719 4.40896 7.29742L4.48178 7.06738L4.28768 6.92402C4.26256 6.90543 4.27549 6.86562 4.30674 6.86535L4.54803 6.86352L4.62435 6.63461C4.63424 6.605 4.67615 6.605 4.68603 6.63465ZM4.68603 7.83207L4.76236 8.06098L5.00365 8.06281C5.0349 8.06309 5.04783 8.10293 5.02271 8.12148L4.82861 8.26484L4.90143 8.49488C4.91088 8.52465 4.87693 8.54934 4.8515 8.53113L4.65518 8.39082L4.45889 8.53113C4.43346 8.5493 4.39959 8.52465 4.40896 8.49488L4.48178 8.26484L4.28768 8.12148C4.26256 8.10297 4.27549 8.06309 4.30674 8.06281L4.54803 8.06098L4.62435 7.83207C4.63424 7.80242 4.67615 7.80242 4.68603 7.83207ZM4.68603 9.02949L4.76236 9.2584L5.00365 9.26023C5.0349 9.26051 5.04783 9.30031 5.02271 9.31891L4.82861 9.46227L4.90143 9.6923C4.91088 9.72207 4.87693 9.74676 4.8515 9.72855L4.65518 9.58824L4.45889 9.72855C4.43346 9.74672 4.39959 9.72207 4.40896 9.6923L4.48178 9.46227L4.28768 9.31891C4.26256 9.30031 4.27549 9.26051 4.30674 9.26023L4.54803 9.2584L4.62435 9.02949C4.63424 8.99988 4.67615 8.99988 4.68603 9.02949ZM5.61545 4.82684L5.69178 5.05574L5.93307 5.05758C5.96432 5.05785 5.97725 5.0977 5.95213 5.11625L5.75803 5.25961L5.83084 5.48965C5.84029 5.51941 5.80635 5.5441 5.78092 5.5259L5.58463 5.38559L5.38834 5.5259C5.36291 5.54406 5.32904 5.51941 5.33842 5.48965L5.41123 5.25961L5.21713 5.11625C5.19201 5.09766 5.20494 5.05785 5.23619 5.05758L5.47748 5.05574L5.55381 4.82684C5.56369 4.79723 5.60557 4.79723 5.61545 4.82684ZM5.61545 6.0243L5.69178 6.2532L5.93307 6.25504C5.96432 6.25531 5.97725 6.29516 5.95213 6.31371L5.75803 6.45707L5.83084 6.68711C5.84029 6.71687 5.80635 6.74156 5.78092 6.72336L5.58463 6.58305L5.38834 6.72336C5.36291 6.74152 5.32904 6.71691 5.33842 6.68711L5.41123 6.45707L5.21713 6.31371C5.19201 6.2952 5.20494 6.25531 5.23619 6.25504L5.47748 6.2532L5.55381 6.0243C5.56369 5.99465 5.60557 5.99465 5.61545 6.0243ZM5.61545 7.22172L5.69178 7.45062L5.93307 7.45246C5.96432 7.45273 5.97725 7.49254 5.95213 7.51113L5.75803 7.65449L5.83084 7.88453C5.84029 7.9143 5.80635 7.93898 5.78092 7.92078L5.58463 7.78047L5.38834 7.92078C5.36291 7.93895 5.32904 7.9143 5.33842 7.88453L5.41123 7.65449L5.21713 7.51113C5.19201 7.49254 5.20494 7.45273 5.23619 7.45246L5.47748 7.45062L5.55381 7.22172C5.56369 7.19207 5.60557 7.19207 5.61545 7.22172ZM5.61545 8.41914L5.69178 8.64805L5.93307 8.64988C5.96432 8.65016 5.97725 8.68996 5.95213 8.70855L5.75803 8.85191L5.83084 9.08195C5.84029 9.11172 5.80635 9.13641 5.78092 9.1182L5.58463 8.97789L5.38834 9.1182C5.36291 9.13641 5.32904 9.11172 5.33842 9.08195L5.41123 8.85191L5.21713 8.70855C5.19201 8.68996 5.20494 8.65016 5.23619 8.64988L5.47748 8.64805L5.55381 8.41914C5.56369 8.38953 5.60557 8.38953 5.61545 8.41914ZM6.5449 4.23977L6.62123 4.46867L6.86252 4.47051C6.89377 4.47078 6.9067 4.51062 6.88158 4.52918L6.68748 4.6725L6.76029 4.90254C6.76975 4.9323 6.7358 4.95699 6.71037 4.93879L6.51408 4.79848L6.31779 4.93879C6.29236 4.95699 6.2585 4.9323 6.26787 4.90254L6.34068 4.6725L6.14658 4.52918C6.12146 4.51059 6.13439 4.47074 6.16564 4.47051L6.40693 4.46867L6.48326 4.23977C6.49307 4.21012 6.53502 4.21012 6.5449 4.23977ZM6.5449 5.43719L6.62123 5.66609L6.86252 5.66793C6.89377 5.6682 6.9067 5.70801 6.88158 5.7266L6.68748 5.86996L6.76029 6.1C6.76975 6.12977 6.7358 6.15445 6.71037 6.13625L6.51408 5.99594L6.31779 6.13625C6.29236 6.15441 6.2585 6.12977 6.26787 6.1L6.34068 5.86996L6.14658 5.7266C6.12146 5.70801 6.13439 5.6682 6.16564 5.66793L6.40693 5.66609L6.48326 5.43719C6.49307 5.40758 6.53502 5.40758 6.5449 5.43719ZM6.5449 6.63465L6.62123 6.86355L6.86252 6.86539C6.89377 6.86566 6.9067 6.90547 6.88158 6.92406L6.68748 7.06742L6.76029 7.29746C6.76975 7.32723 6.7358 7.35191 6.71037 7.33371L6.51408 7.1934L6.31779 7.33371C6.29236 7.35188 6.2585 7.32727 6.26787 7.29746L6.34068 7.06742L6.14658 6.92406C6.12146 6.90547 6.13439 6.86566 6.16564 6.86539L6.40693 6.86355L6.48326 6.63465C6.49307 6.605 6.53502 6.605 6.5449 6.63465ZM6.5449 7.83207L6.62123 8.06098L6.86252 8.06281C6.89377 8.06309 6.9067 8.10293 6.88158 8.12148L6.68748 8.26484L6.76029 8.49488C6.76975 8.52465 6.7358 8.54934 6.71037 8.53113L6.51408 8.39082L6.31779 8.53113C6.29236 8.5493 6.2585 8.52465 6.26787 8.49488L6.34068 8.26484L6.14658 8.12148C6.12146 8.10297 6.13439 8.06309 6.16564 8.06281L6.40693 8.06098L6.48326 7.83207C6.49307 7.80242 6.53502 7.80242 6.5449 7.83207ZM6.5449 9.02949L6.62123 9.2584L6.86252 9.26023C6.89377 9.26051 6.9067 9.30031 6.88158 9.31891L6.68748 9.46227L6.76029 9.6923C6.76975 9.72207 6.7358 9.74676 6.71037 9.72855L6.51408 9.58824L6.31779 9.72855C6.29236 9.74672 6.2585 9.72207 6.26787 9.6923L6.34068 9.46227L6.14658 9.31891C6.12146 9.30031 6.13439 9.26051 6.16564 9.26023L6.40693 9.2584L6.48326 9.02949C6.49307 8.99988 6.53502 8.99988 6.5449 9.02949ZM7.47432 4.82684L7.55064 5.05574L7.79193 5.05758C7.82318 5.05785 7.83611 5.0977 7.811 5.11625L7.61689 5.25961L7.68971 5.48965C7.69916 5.51941 7.66521 5.5441 7.63978 5.5259L7.4435 5.38559L7.24721 5.5259C7.22178 5.54406 7.18791 5.51941 7.19728 5.48965L7.2701 5.25961L7.076 5.11625C7.05088 5.09766 7.06381 5.05785 7.09506 5.05758L7.33635 5.05574L7.41268 4.82684C7.42252 4.79723 7.46443 4.79723 7.47432 4.82684ZM7.47432 6.0243L7.55064 6.2532L7.79193 6.25504C7.82318 6.25531 7.83611 6.29516 7.811 6.31371L7.61689 6.45707L7.68971 6.68711C7.69916 6.71687 7.66521 6.74156 7.63978 6.72336L7.4435 6.58305L7.24721 6.72336C7.22178 6.74152 7.18791 6.71691 7.19728 6.68711L7.2701 6.45707L7.076 6.31371C7.05088 6.2952 7.06381 6.25531 7.09506 6.25504L7.33635 6.2532L7.41268 6.0243C7.42252 5.99465 7.46443 5.99465 7.47432 6.0243ZM7.47432 7.22172L7.55064 7.45062L7.79193 7.45246C7.82318 7.45273 7.83611 7.49254 7.811 7.51113L7.61689 7.65449L7.68971 7.88453C7.69916 7.9143 7.66521 7.93898 7.63978 7.92078L7.4435 7.78047L7.24721 7.92078C7.22178 7.93895 7.18791 7.9143 7.19728 7.88453L7.2701 7.65449L7.076 7.51113C7.05088 7.49254 7.06381 7.45273 7.09506 7.45246L7.33635 7.45062L7.41268 7.22172C7.42252 7.19207 7.46443 7.19207 7.47432 7.22172ZM7.47432 8.41914L7.55064 8.64805L7.79193 8.64988C7.82318 8.65016 7.83611 8.68996 7.811 8.70855L7.61689 8.85191L7.68971 9.08195C7.69916 9.11172 7.66521 9.13641 7.63978 9.1182L7.4435 8.97789L7.24721 9.1182C7.22178 9.13641 7.18791 9.11172 7.19728 9.08195L7.2701 8.85191L7.076 8.70855C7.05088 8.68996 7.06381 8.65016 7.09506 8.64988L7.33635 8.64805L7.41268 8.41914C7.42252 8.38953 7.46443 8.38953 7.47432 8.41914ZM8.40377 4.23977L8.4801 4.46867L8.72139 4.47051C8.75264 4.47078 8.76557 4.51062 8.74045 4.52918L8.54635 4.6725L8.61916 4.90254C8.62861 4.9323 8.59467 4.95699 8.56924 4.93879L8.37295 4.79848L8.17666 4.93879C8.15123 4.95699 8.11736 4.9323 8.12674 4.90254L8.19955 4.6725L8.00545 4.52918C7.98033 4.51059 7.99326 4.47074 8.02451 4.47051L8.2658 4.46867L8.34213 4.23977C8.35197 4.21012 8.39385 4.21012 8.40377 4.23977ZM8.40377 5.43719L8.4801 5.66609L8.72139 5.66793C8.75264 5.6682 8.76557 5.70801 8.74045 5.7266L8.54635 5.86996L8.61916 6.1C8.62861 6.12977 8.59467 6.15445 8.56924 6.13625L8.37295 5.99594L8.17666 6.13625C8.15123 6.15441 8.11736 6.12977 8.12674 6.1L8.19955 5.86996L8.00545 5.7266C7.98033 5.70801 7.99326 5.6682 8.02451 5.66793L8.2658 5.66609L8.34213 5.43719C8.35197 5.40758 8.39385 5.40758 8.40377 5.43719ZM8.40377 6.63465L8.4801 6.86355L8.72139 6.86539C8.75264 6.86566 8.76557 6.90547 8.74045 6.92406L8.54635 7.06742L8.61916 7.29746C8.62861 7.32723 8.59467 7.35191 8.56924 7.33371L8.37295 7.1934L8.17666 7.33371C8.15123 7.35188 8.11736 7.32727 8.12674 7.29746L8.19955 7.06742L8.00545 6.92406C7.98033 6.90547 7.99326 6.86566 8.02451 6.86539L8.2658 6.86355L8.34213 6.63465C8.35197 6.605 8.39385 6.605 8.40377 6.63465ZM8.40377 7.83207L8.4801 8.06098L8.72139 8.06281C8.75264 8.06309 8.76557 8.10293 8.74045 8.12148L8.54635 8.26484L8.61916 8.49488C8.62861 8.52465 8.59467 8.54934 8.56924 8.53113L8.37295 8.39082L8.17666 8.53113C8.15123 8.5493 8.11736 8.52465 8.12674 8.49488L8.19955 8.26484L8.00545 8.12148C7.98033 8.10297 7.99326 8.06309 8.02451 8.06281L8.2658 8.06098L8.34213 7.83207C8.35197 7.80242 8.39385 7.80242 8.40377 7.83207ZM8.40377 9.02949L8.4801 9.2584L8.72139 9.26023C8.75264 9.26051 8.76557 9.30031 8.74045 9.31891L8.54635 9.46227L8.61916 9.6923C8.62861 9.72207 8.59467 9.74676 8.56924 9.72855L8.37295 9.58824L8.17666 9.72855C8.15123 9.74672 8.11736 9.72207 8.12674 9.6923L8.19955 9.46227L8.00545 9.31891C7.98033 9.30031 7.99326 9.26051 8.02451 9.26023L8.2658 9.2584L8.34213 9.02949C8.35197 8.99988 8.39385 8.99988 8.40377 9.02949Z" fill="#F5F5F5"/>
</svg>
