<svg width="20" height="20" viewBox="0 0 20 20" fill="none" xmlns="http://www.w3.org/2000/svg">
<g clip-path="url(#clip0_1_561)">
<path d="M18.5021 3.44824L1.49785 3.44824C0.670586 3.44824 2.67748e-09 4.11883 5.98054e-09 4.94609L1.74396e-08 7.81605L20 7.81605L20 4.94609C20 4.11883 19.3294 3.44824 18.5021 3.44824Z" fill="#F5F5F5"/>
<path d="M1.1459e-08 15.0538C1.47619e-08 15.881 0.670586 16.5517 1.49785 16.5517L18.5021 16.5516C19.3294 16.5516 20 15.8811 20 15.0538L20 12.1838L0 12.1838L1.1459e-08 15.0538Z" fill="#FF4B55"/>
<path d="M0 7.81592L20 7.81592L20 12.1835L1.74386e-08 12.1835L0 7.81592Z" fill="#41479B"/>
</g>
<defs>
<clipPath id="clip0_1_561">
<rect width="20" height="20" fill="white"/>
</clipPath>
</defs>
</svg>
